%
M48
M72
T01C0.0150
T02C0.0354
T03C0.0400
T04C0.1300
%
T01
X15333Y11500
X15883Y12000
X16333Y12000
X14333Y12000
X14333Y14000
X15533Y14150
X16333Y14000
X16333Y14400
X17333Y13850
X18083Y13850
X18833Y14250
X18133Y13000
X18333Y12200
X17833Y10500
T02
X19833Y12500
X19833Y13500
T03
X14333Y9500
X15333Y9500
X16333Y9500
X17333Y9500
X18333Y9500
X19333Y9500
X20333Y9500
T04
X19833Y15000
X14833Y15000
M30
