G75*
%MOIN*%
%OFA0B0*%
%FSLAX25Y25*%
%IPPOS*%
%LPD*%
%AMOC8*
5,1,8,0,0,1.08239X$1,22.5*
%
%ADD10C,0.08200*%
%ADD11R,0.05131X0.04737*%
%ADD12R,0.04737X0.05131*%
%ADD13C,0.13800*%
%ADD14C,0.04737*%
%ADD15R,0.02375X0.03556*%
%ADD16C,0.00197*%
D10*
X0143333Y0095000D03*
X0153333Y0095000D03*
X0163333Y0095000D03*
X0173333Y0095000D03*
X0183333Y0095000D03*
X0193333Y0095000D03*
X0203333Y0095000D03*
X0198333Y0125000D03*
X0198333Y0135000D03*
D11*
X0176680Y0142500D03*
X0169987Y0142500D03*
X0151680Y0135000D03*
X0144987Y0135000D03*
X0144987Y0125000D03*
X0151680Y0125000D03*
X0169987Y0117500D03*
X0176680Y0117500D03*
D12*
X0188333Y0126654D03*
X0188333Y0133346D03*
X0158833Y0133346D03*
X0158833Y0126654D03*
D13*
X0148333Y0150000D03*
X0198333Y0150000D03*
D14*
X0141333Y0157000D03*
X0198333Y0100000D03*
D15*
X0178058Y0125669D03*
X0175696Y0125669D03*
X0173333Y0125669D03*
X0170971Y0125669D03*
X0168609Y0125669D03*
X0168609Y0134331D03*
X0170971Y0134331D03*
X0173333Y0134331D03*
X0175696Y0134331D03*
X0178058Y0134331D03*
D16*
X0178156Y0132461D02*
X0178156Y0127539D01*
X0169593Y0127539D01*
X0168510Y0128622D01*
X0168510Y0132461D01*
X0178156Y0132461D01*
X0178156Y0132393D02*
X0168510Y0132393D01*
X0168510Y0132198D02*
X0178156Y0132198D01*
X0178156Y0132003D02*
X0168510Y0132003D01*
X0168510Y0131807D02*
X0178156Y0131807D01*
X0178156Y0131612D02*
X0168510Y0131612D01*
X0168510Y0131417D02*
X0178156Y0131417D01*
X0178156Y0131221D02*
X0168510Y0131221D01*
X0168510Y0131026D02*
X0178156Y0131026D01*
X0178156Y0130831D02*
X0168510Y0130831D01*
X0168510Y0130635D02*
X0178156Y0130635D01*
X0178156Y0130440D02*
X0168510Y0130440D01*
X0168510Y0130245D02*
X0178156Y0130245D01*
X0178156Y0130049D02*
X0168510Y0130049D01*
X0168510Y0129854D02*
X0178156Y0129854D01*
X0178156Y0129658D02*
X0168510Y0129658D01*
X0168510Y0129463D02*
X0178156Y0129463D01*
X0178156Y0129268D02*
X0168510Y0129268D01*
X0168510Y0129072D02*
X0178156Y0129072D01*
X0178156Y0128877D02*
X0168510Y0128877D01*
X0168510Y0128682D02*
X0178156Y0128682D01*
X0178156Y0128486D02*
X0168646Y0128486D01*
X0168842Y0128291D02*
X0178156Y0128291D01*
X0178156Y0128096D02*
X0169037Y0128096D01*
X0169232Y0127900D02*
X0178156Y0127900D01*
X0178156Y0127705D02*
X0169428Y0127705D01*
M02*
