G75*
%MOIN*%
%OFA0B0*%
%FSLAX25Y25*%
%IPPOS*%
%LPD*%
%AMOC8*
5,1,8,0,0,1.08239X$1,22.5*
%
%ADD10C,0.00800*%
%ADD11C,0.00000*%
D10*
X0138333Y0090000D02*
X0208333Y0090000D01*
X0208333Y0160000D01*
X0138333Y0160000D01*
X0138333Y0090000D01*
D11*
X0141833Y0150000D02*
X0141835Y0150161D01*
X0141841Y0150321D01*
X0141851Y0150482D01*
X0141865Y0150642D01*
X0141883Y0150802D01*
X0141904Y0150961D01*
X0141930Y0151120D01*
X0141960Y0151278D01*
X0141993Y0151435D01*
X0142031Y0151592D01*
X0142072Y0151747D01*
X0142117Y0151901D01*
X0142166Y0152054D01*
X0142219Y0152206D01*
X0142275Y0152357D01*
X0142336Y0152506D01*
X0142399Y0152654D01*
X0142467Y0152800D01*
X0142538Y0152944D01*
X0142612Y0153086D01*
X0142690Y0153227D01*
X0142772Y0153365D01*
X0142857Y0153502D01*
X0142945Y0153636D01*
X0143037Y0153768D01*
X0143132Y0153898D01*
X0143230Y0154026D01*
X0143331Y0154151D01*
X0143435Y0154273D01*
X0143542Y0154393D01*
X0143652Y0154510D01*
X0143765Y0154625D01*
X0143881Y0154736D01*
X0144000Y0154845D01*
X0144121Y0154950D01*
X0144245Y0155053D01*
X0144371Y0155153D01*
X0144499Y0155249D01*
X0144630Y0155342D01*
X0144764Y0155432D01*
X0144899Y0155519D01*
X0145037Y0155602D01*
X0145176Y0155682D01*
X0145318Y0155758D01*
X0145461Y0155831D01*
X0145606Y0155900D01*
X0145753Y0155966D01*
X0145901Y0156028D01*
X0146051Y0156086D01*
X0146202Y0156141D01*
X0146355Y0156192D01*
X0146509Y0156239D01*
X0146664Y0156282D01*
X0146820Y0156321D01*
X0146976Y0156357D01*
X0147134Y0156388D01*
X0147292Y0156416D01*
X0147451Y0156440D01*
X0147611Y0156460D01*
X0147771Y0156476D01*
X0147931Y0156488D01*
X0148092Y0156496D01*
X0148253Y0156500D01*
X0148413Y0156500D01*
X0148574Y0156496D01*
X0148735Y0156488D01*
X0148895Y0156476D01*
X0149055Y0156460D01*
X0149215Y0156440D01*
X0149374Y0156416D01*
X0149532Y0156388D01*
X0149690Y0156357D01*
X0149846Y0156321D01*
X0150002Y0156282D01*
X0150157Y0156239D01*
X0150311Y0156192D01*
X0150464Y0156141D01*
X0150615Y0156086D01*
X0150765Y0156028D01*
X0150913Y0155966D01*
X0151060Y0155900D01*
X0151205Y0155831D01*
X0151348Y0155758D01*
X0151490Y0155682D01*
X0151629Y0155602D01*
X0151767Y0155519D01*
X0151902Y0155432D01*
X0152036Y0155342D01*
X0152167Y0155249D01*
X0152295Y0155153D01*
X0152421Y0155053D01*
X0152545Y0154950D01*
X0152666Y0154845D01*
X0152785Y0154736D01*
X0152901Y0154625D01*
X0153014Y0154510D01*
X0153124Y0154393D01*
X0153231Y0154273D01*
X0153335Y0154151D01*
X0153436Y0154026D01*
X0153534Y0153898D01*
X0153629Y0153768D01*
X0153721Y0153636D01*
X0153809Y0153502D01*
X0153894Y0153365D01*
X0153976Y0153227D01*
X0154054Y0153086D01*
X0154128Y0152944D01*
X0154199Y0152800D01*
X0154267Y0152654D01*
X0154330Y0152506D01*
X0154391Y0152357D01*
X0154447Y0152206D01*
X0154500Y0152054D01*
X0154549Y0151901D01*
X0154594Y0151747D01*
X0154635Y0151592D01*
X0154673Y0151435D01*
X0154706Y0151278D01*
X0154736Y0151120D01*
X0154762Y0150961D01*
X0154783Y0150802D01*
X0154801Y0150642D01*
X0154815Y0150482D01*
X0154825Y0150321D01*
X0154831Y0150161D01*
X0154833Y0150000D01*
X0154831Y0149839D01*
X0154825Y0149679D01*
X0154815Y0149518D01*
X0154801Y0149358D01*
X0154783Y0149198D01*
X0154762Y0149039D01*
X0154736Y0148880D01*
X0154706Y0148722D01*
X0154673Y0148565D01*
X0154635Y0148408D01*
X0154594Y0148253D01*
X0154549Y0148099D01*
X0154500Y0147946D01*
X0154447Y0147794D01*
X0154391Y0147643D01*
X0154330Y0147494D01*
X0154267Y0147346D01*
X0154199Y0147200D01*
X0154128Y0147056D01*
X0154054Y0146914D01*
X0153976Y0146773D01*
X0153894Y0146635D01*
X0153809Y0146498D01*
X0153721Y0146364D01*
X0153629Y0146232D01*
X0153534Y0146102D01*
X0153436Y0145974D01*
X0153335Y0145849D01*
X0153231Y0145727D01*
X0153124Y0145607D01*
X0153014Y0145490D01*
X0152901Y0145375D01*
X0152785Y0145264D01*
X0152666Y0145155D01*
X0152545Y0145050D01*
X0152421Y0144947D01*
X0152295Y0144847D01*
X0152167Y0144751D01*
X0152036Y0144658D01*
X0151902Y0144568D01*
X0151767Y0144481D01*
X0151629Y0144398D01*
X0151490Y0144318D01*
X0151348Y0144242D01*
X0151205Y0144169D01*
X0151060Y0144100D01*
X0150913Y0144034D01*
X0150765Y0143972D01*
X0150615Y0143914D01*
X0150464Y0143859D01*
X0150311Y0143808D01*
X0150157Y0143761D01*
X0150002Y0143718D01*
X0149846Y0143679D01*
X0149690Y0143643D01*
X0149532Y0143612D01*
X0149374Y0143584D01*
X0149215Y0143560D01*
X0149055Y0143540D01*
X0148895Y0143524D01*
X0148735Y0143512D01*
X0148574Y0143504D01*
X0148413Y0143500D01*
X0148253Y0143500D01*
X0148092Y0143504D01*
X0147931Y0143512D01*
X0147771Y0143524D01*
X0147611Y0143540D01*
X0147451Y0143560D01*
X0147292Y0143584D01*
X0147134Y0143612D01*
X0146976Y0143643D01*
X0146820Y0143679D01*
X0146664Y0143718D01*
X0146509Y0143761D01*
X0146355Y0143808D01*
X0146202Y0143859D01*
X0146051Y0143914D01*
X0145901Y0143972D01*
X0145753Y0144034D01*
X0145606Y0144100D01*
X0145461Y0144169D01*
X0145318Y0144242D01*
X0145176Y0144318D01*
X0145037Y0144398D01*
X0144899Y0144481D01*
X0144764Y0144568D01*
X0144630Y0144658D01*
X0144499Y0144751D01*
X0144371Y0144847D01*
X0144245Y0144947D01*
X0144121Y0145050D01*
X0144000Y0145155D01*
X0143881Y0145264D01*
X0143765Y0145375D01*
X0143652Y0145490D01*
X0143542Y0145607D01*
X0143435Y0145727D01*
X0143331Y0145849D01*
X0143230Y0145974D01*
X0143132Y0146102D01*
X0143037Y0146232D01*
X0142945Y0146364D01*
X0142857Y0146498D01*
X0142772Y0146635D01*
X0142690Y0146773D01*
X0142612Y0146914D01*
X0142538Y0147056D01*
X0142467Y0147200D01*
X0142399Y0147346D01*
X0142336Y0147494D01*
X0142275Y0147643D01*
X0142219Y0147794D01*
X0142166Y0147946D01*
X0142117Y0148099D01*
X0142072Y0148253D01*
X0142031Y0148408D01*
X0141993Y0148565D01*
X0141960Y0148722D01*
X0141930Y0148880D01*
X0141904Y0149039D01*
X0141883Y0149198D01*
X0141865Y0149358D01*
X0141851Y0149518D01*
X0141841Y0149679D01*
X0141835Y0149839D01*
X0141833Y0150000D01*
X0191833Y0150000D02*
X0191835Y0150161D01*
X0191841Y0150321D01*
X0191851Y0150482D01*
X0191865Y0150642D01*
X0191883Y0150802D01*
X0191904Y0150961D01*
X0191930Y0151120D01*
X0191960Y0151278D01*
X0191993Y0151435D01*
X0192031Y0151592D01*
X0192072Y0151747D01*
X0192117Y0151901D01*
X0192166Y0152054D01*
X0192219Y0152206D01*
X0192275Y0152357D01*
X0192336Y0152506D01*
X0192399Y0152654D01*
X0192467Y0152800D01*
X0192538Y0152944D01*
X0192612Y0153086D01*
X0192690Y0153227D01*
X0192772Y0153365D01*
X0192857Y0153502D01*
X0192945Y0153636D01*
X0193037Y0153768D01*
X0193132Y0153898D01*
X0193230Y0154026D01*
X0193331Y0154151D01*
X0193435Y0154273D01*
X0193542Y0154393D01*
X0193652Y0154510D01*
X0193765Y0154625D01*
X0193881Y0154736D01*
X0194000Y0154845D01*
X0194121Y0154950D01*
X0194245Y0155053D01*
X0194371Y0155153D01*
X0194499Y0155249D01*
X0194630Y0155342D01*
X0194764Y0155432D01*
X0194899Y0155519D01*
X0195037Y0155602D01*
X0195176Y0155682D01*
X0195318Y0155758D01*
X0195461Y0155831D01*
X0195606Y0155900D01*
X0195753Y0155966D01*
X0195901Y0156028D01*
X0196051Y0156086D01*
X0196202Y0156141D01*
X0196355Y0156192D01*
X0196509Y0156239D01*
X0196664Y0156282D01*
X0196820Y0156321D01*
X0196976Y0156357D01*
X0197134Y0156388D01*
X0197292Y0156416D01*
X0197451Y0156440D01*
X0197611Y0156460D01*
X0197771Y0156476D01*
X0197931Y0156488D01*
X0198092Y0156496D01*
X0198253Y0156500D01*
X0198413Y0156500D01*
X0198574Y0156496D01*
X0198735Y0156488D01*
X0198895Y0156476D01*
X0199055Y0156460D01*
X0199215Y0156440D01*
X0199374Y0156416D01*
X0199532Y0156388D01*
X0199690Y0156357D01*
X0199846Y0156321D01*
X0200002Y0156282D01*
X0200157Y0156239D01*
X0200311Y0156192D01*
X0200464Y0156141D01*
X0200615Y0156086D01*
X0200765Y0156028D01*
X0200913Y0155966D01*
X0201060Y0155900D01*
X0201205Y0155831D01*
X0201348Y0155758D01*
X0201490Y0155682D01*
X0201629Y0155602D01*
X0201767Y0155519D01*
X0201902Y0155432D01*
X0202036Y0155342D01*
X0202167Y0155249D01*
X0202295Y0155153D01*
X0202421Y0155053D01*
X0202545Y0154950D01*
X0202666Y0154845D01*
X0202785Y0154736D01*
X0202901Y0154625D01*
X0203014Y0154510D01*
X0203124Y0154393D01*
X0203231Y0154273D01*
X0203335Y0154151D01*
X0203436Y0154026D01*
X0203534Y0153898D01*
X0203629Y0153768D01*
X0203721Y0153636D01*
X0203809Y0153502D01*
X0203894Y0153365D01*
X0203976Y0153227D01*
X0204054Y0153086D01*
X0204128Y0152944D01*
X0204199Y0152800D01*
X0204267Y0152654D01*
X0204330Y0152506D01*
X0204391Y0152357D01*
X0204447Y0152206D01*
X0204500Y0152054D01*
X0204549Y0151901D01*
X0204594Y0151747D01*
X0204635Y0151592D01*
X0204673Y0151435D01*
X0204706Y0151278D01*
X0204736Y0151120D01*
X0204762Y0150961D01*
X0204783Y0150802D01*
X0204801Y0150642D01*
X0204815Y0150482D01*
X0204825Y0150321D01*
X0204831Y0150161D01*
X0204833Y0150000D01*
X0204831Y0149839D01*
X0204825Y0149679D01*
X0204815Y0149518D01*
X0204801Y0149358D01*
X0204783Y0149198D01*
X0204762Y0149039D01*
X0204736Y0148880D01*
X0204706Y0148722D01*
X0204673Y0148565D01*
X0204635Y0148408D01*
X0204594Y0148253D01*
X0204549Y0148099D01*
X0204500Y0147946D01*
X0204447Y0147794D01*
X0204391Y0147643D01*
X0204330Y0147494D01*
X0204267Y0147346D01*
X0204199Y0147200D01*
X0204128Y0147056D01*
X0204054Y0146914D01*
X0203976Y0146773D01*
X0203894Y0146635D01*
X0203809Y0146498D01*
X0203721Y0146364D01*
X0203629Y0146232D01*
X0203534Y0146102D01*
X0203436Y0145974D01*
X0203335Y0145849D01*
X0203231Y0145727D01*
X0203124Y0145607D01*
X0203014Y0145490D01*
X0202901Y0145375D01*
X0202785Y0145264D01*
X0202666Y0145155D01*
X0202545Y0145050D01*
X0202421Y0144947D01*
X0202295Y0144847D01*
X0202167Y0144751D01*
X0202036Y0144658D01*
X0201902Y0144568D01*
X0201767Y0144481D01*
X0201629Y0144398D01*
X0201490Y0144318D01*
X0201348Y0144242D01*
X0201205Y0144169D01*
X0201060Y0144100D01*
X0200913Y0144034D01*
X0200765Y0143972D01*
X0200615Y0143914D01*
X0200464Y0143859D01*
X0200311Y0143808D01*
X0200157Y0143761D01*
X0200002Y0143718D01*
X0199846Y0143679D01*
X0199690Y0143643D01*
X0199532Y0143612D01*
X0199374Y0143584D01*
X0199215Y0143560D01*
X0199055Y0143540D01*
X0198895Y0143524D01*
X0198735Y0143512D01*
X0198574Y0143504D01*
X0198413Y0143500D01*
X0198253Y0143500D01*
X0198092Y0143504D01*
X0197931Y0143512D01*
X0197771Y0143524D01*
X0197611Y0143540D01*
X0197451Y0143560D01*
X0197292Y0143584D01*
X0197134Y0143612D01*
X0196976Y0143643D01*
X0196820Y0143679D01*
X0196664Y0143718D01*
X0196509Y0143761D01*
X0196355Y0143808D01*
X0196202Y0143859D01*
X0196051Y0143914D01*
X0195901Y0143972D01*
X0195753Y0144034D01*
X0195606Y0144100D01*
X0195461Y0144169D01*
X0195318Y0144242D01*
X0195176Y0144318D01*
X0195037Y0144398D01*
X0194899Y0144481D01*
X0194764Y0144568D01*
X0194630Y0144658D01*
X0194499Y0144751D01*
X0194371Y0144847D01*
X0194245Y0144947D01*
X0194121Y0145050D01*
X0194000Y0145155D01*
X0193881Y0145264D01*
X0193765Y0145375D01*
X0193652Y0145490D01*
X0193542Y0145607D01*
X0193435Y0145727D01*
X0193331Y0145849D01*
X0193230Y0145974D01*
X0193132Y0146102D01*
X0193037Y0146232D01*
X0192945Y0146364D01*
X0192857Y0146498D01*
X0192772Y0146635D01*
X0192690Y0146773D01*
X0192612Y0146914D01*
X0192538Y0147056D01*
X0192467Y0147200D01*
X0192399Y0147346D01*
X0192336Y0147494D01*
X0192275Y0147643D01*
X0192219Y0147794D01*
X0192166Y0147946D01*
X0192117Y0148099D01*
X0192072Y0148253D01*
X0192031Y0148408D01*
X0191993Y0148565D01*
X0191960Y0148722D01*
X0191930Y0148880D01*
X0191904Y0149039D01*
X0191883Y0149198D01*
X0191865Y0149358D01*
X0191851Y0149518D01*
X0191841Y0149679D01*
X0191835Y0149839D01*
X0191833Y0150000D01*
M02*
