G75*
%MOIN*%
%OFA0B0*%
%FSLAX25Y25*%
%IPPOS*%
%LPD*%
%AMOC8*
5,1,8,0,0,1.08239X$1,22.5*
%
%ADD10C,0.07400*%
%ADD11R,0.04331X0.03937*%
%ADD12R,0.03937X0.04331*%
%ADD13C,0.03937*%
%ADD14R,0.01575X0.02756*%
%ADD15R,0.09646X0.04331*%
%ADD16C,0.01000*%
%ADD17C,0.02900*%
%ADD18C,0.00700*%
D10*
X0143333Y0095000D03*
X0153333Y0095000D03*
X0163333Y0095000D03*
X0173333Y0095000D03*
X0183333Y0095000D03*
X0193333Y0095000D03*
X0203333Y0095000D03*
X0198333Y0125000D03*
X0198333Y0135000D03*
D11*
X0176680Y0142500D03*
X0169987Y0142500D03*
X0151680Y0135000D03*
X0144987Y0135000D03*
X0144987Y0125000D03*
X0151680Y0125000D03*
X0169987Y0117500D03*
X0176680Y0117500D03*
D12*
X0188333Y0126654D03*
X0188333Y0133346D03*
X0158833Y0133346D03*
X0158833Y0126654D03*
D13*
X0141333Y0157000D03*
X0198333Y0100000D03*
D14*
X0178058Y0125669D03*
X0175696Y0125669D03*
X0173333Y0125669D03*
X0170971Y0125669D03*
X0168609Y0125669D03*
X0168609Y0134331D03*
X0170971Y0134331D03*
X0173333Y0134331D03*
X0175696Y0134331D03*
X0178058Y0134331D03*
D15*
X0173333Y0130000D03*
D16*
X0167324Y0131753D02*
X0179342Y0131753D01*
X0180045Y0132456D01*
X0180045Y0132781D01*
X0183283Y0132781D01*
X0183283Y0126858D01*
X0184191Y0125950D01*
X0185038Y0125104D01*
X0185165Y0125104D01*
X0185165Y0123991D01*
X0185868Y0123288D01*
X0186783Y0123288D01*
X0186783Y0119050D01*
X0180045Y0119050D01*
X0180045Y0119966D01*
X0179561Y0120450D01*
X0181136Y0120450D01*
X0181832Y0119753D01*
X0182806Y0119350D01*
X0183860Y0119350D01*
X0184834Y0119753D01*
X0185580Y0120499D01*
X0185983Y0121473D01*
X0185983Y0122527D01*
X0185580Y0123501D01*
X0184834Y0124247D01*
X0183860Y0124650D01*
X0182806Y0124650D01*
X0181832Y0124247D01*
X0181136Y0123550D01*
X0179801Y0123550D01*
X0180045Y0123794D01*
X0180045Y0127544D01*
X0179342Y0128247D01*
X0167324Y0128247D01*
X0166622Y0127544D01*
X0166622Y0123794D01*
X0167029Y0123387D01*
X0165361Y0121720D01*
X0164883Y0122198D01*
X0164883Y0132642D01*
X0162629Y0134896D01*
X0162002Y0134896D01*
X0162002Y0135450D01*
X0166622Y0135450D01*
X0166622Y0132456D01*
X0167324Y0131753D01*
X0167140Y0131937D02*
X0164883Y0131937D01*
X0164883Y0130939D02*
X0183283Y0130939D01*
X0183283Y0131937D02*
X0179527Y0131937D01*
X0183283Y0129940D02*
X0164883Y0129940D01*
X0164883Y0128942D02*
X0183283Y0128942D01*
X0183283Y0127943D02*
X0179646Y0127943D01*
X0180045Y0126945D02*
X0183283Y0126945D01*
X0184195Y0125946D02*
X0180045Y0125946D01*
X0180045Y0124948D02*
X0185165Y0124948D01*
X0185132Y0123949D02*
X0185207Y0123949D01*
X0185808Y0122951D02*
X0186783Y0122951D01*
X0186783Y0121952D02*
X0185983Y0121952D01*
X0185768Y0120954D02*
X0186783Y0120954D01*
X0186783Y0119955D02*
X0185036Y0119955D01*
X0181630Y0119955D02*
X0180045Y0119955D01*
X0180045Y0123949D02*
X0181535Y0123949D01*
X0189883Y0123288D02*
X0190799Y0123288D01*
X0191502Y0123991D01*
X0191502Y0129316D01*
X0190818Y0130000D01*
X0191502Y0130684D01*
X0191502Y0131796D01*
X0192322Y0131796D01*
X0193761Y0133235D01*
X0194179Y0132224D01*
X0195558Y0130846D01*
X0197359Y0130100D01*
X0199308Y0130100D01*
X0201109Y0130846D01*
X0202487Y0132224D01*
X0203233Y0134025D01*
X0203233Y0135975D01*
X0202487Y0137776D01*
X0201109Y0139154D01*
X0199308Y0139900D01*
X0197359Y0139900D01*
X0195558Y0139154D01*
X0194179Y0137776D01*
X0193672Y0136550D01*
X0192691Y0136550D01*
X0191783Y0135642D01*
X0191502Y0135361D01*
X0191502Y0136009D01*
X0190799Y0136712D01*
X0186383Y0136712D01*
X0186383Y0140142D01*
X0182475Y0144050D01*
X0180045Y0144050D01*
X0180045Y0144966D01*
X0179342Y0145668D01*
X0178230Y0145668D01*
X0178230Y0146796D01*
X0177322Y0147704D01*
X0174475Y0150550D01*
X0162191Y0150550D01*
X0155791Y0144150D01*
X0155207Y0144150D01*
X0155256Y0144191D01*
X0155256Y0144191D01*
X0156826Y0146909D01*
X0157371Y0150000D01*
X0156826Y0153091D01*
X0155256Y0155809D01*
X0152852Y0157827D01*
X0151276Y0158400D01*
X0195390Y0158400D01*
X0193815Y0157827D01*
X0191410Y0155809D01*
X0189841Y0153091D01*
X0189841Y0153091D01*
X0189296Y0150000D01*
X0189841Y0146909D01*
X0191410Y0144191D01*
X0193815Y0142173D01*
X0196764Y0141100D01*
X0199903Y0141100D01*
X0202852Y0142173D01*
X0205256Y0144191D01*
X0205256Y0144191D01*
X0206733Y0146749D01*
X0206733Y0098954D01*
X0206721Y0098966D01*
X0206059Y0099447D01*
X0205329Y0099819D01*
X0204551Y0100072D01*
X0203833Y0100186D01*
X0203833Y0095500D01*
X0202833Y0095500D01*
X0202833Y0100186D01*
X0202116Y0100072D01*
X0201502Y0099872D01*
X0201502Y0100630D01*
X0201019Y0101795D01*
X0200128Y0102686D01*
X0198964Y0103168D01*
X0197703Y0103168D01*
X0196539Y0102686D01*
X0195647Y0101795D01*
X0195165Y0100630D01*
X0195165Y0099545D01*
X0194883Y0099662D01*
X0194883Y0110642D01*
X0189883Y0115642D01*
X0189883Y0123288D01*
X0189883Y0122951D02*
X0193878Y0122951D01*
X0194179Y0122224D02*
X0195558Y0120846D01*
X0197359Y0120100D01*
X0199308Y0120100D01*
X0201109Y0120846D01*
X0202487Y0122224D01*
X0203233Y0124025D01*
X0203233Y0125975D01*
X0202487Y0127776D01*
X0201109Y0129154D01*
X0199308Y0129900D01*
X0197359Y0129900D01*
X0195558Y0129154D01*
X0194179Y0127776D01*
X0193433Y0125975D01*
X0193433Y0124025D01*
X0194179Y0122224D01*
X0194451Y0121952D02*
X0189883Y0121952D01*
X0189883Y0120954D02*
X0195450Y0120954D01*
X0193465Y0123949D02*
X0191460Y0123949D01*
X0191502Y0124948D02*
X0193433Y0124948D01*
X0193433Y0125946D02*
X0191502Y0125946D01*
X0191502Y0126945D02*
X0193835Y0126945D01*
X0194347Y0127943D02*
X0191502Y0127943D01*
X0191502Y0128942D02*
X0195346Y0128942D01*
X0195465Y0130939D02*
X0191502Y0130939D01*
X0190877Y0129940D02*
X0206733Y0129940D01*
X0206733Y0128942D02*
X0201321Y0128942D01*
X0202320Y0127943D02*
X0206733Y0127943D01*
X0206733Y0126945D02*
X0202831Y0126945D01*
X0203233Y0125946D02*
X0206733Y0125946D01*
X0206733Y0124948D02*
X0203233Y0124948D01*
X0203202Y0123949D02*
X0206733Y0123949D01*
X0206733Y0122951D02*
X0202788Y0122951D01*
X0202215Y0121952D02*
X0206733Y0121952D01*
X0206733Y0120954D02*
X0201217Y0120954D01*
X0206733Y0119955D02*
X0189883Y0119955D01*
X0189883Y0118957D02*
X0206733Y0118957D01*
X0206733Y0117958D02*
X0189883Y0117958D01*
X0189883Y0116960D02*
X0206733Y0116960D01*
X0206733Y0115961D02*
X0189883Y0115961D01*
X0190563Y0114963D02*
X0206733Y0114963D01*
X0206733Y0113964D02*
X0191561Y0113964D01*
X0192560Y0112966D02*
X0206733Y0112966D01*
X0206733Y0111967D02*
X0193558Y0111967D01*
X0194557Y0110969D02*
X0206733Y0110969D01*
X0206733Y0109970D02*
X0194883Y0109970D01*
X0194883Y0108972D02*
X0206733Y0108972D01*
X0206733Y0107973D02*
X0194883Y0107973D01*
X0194883Y0106975D02*
X0206733Y0106975D01*
X0206733Y0105976D02*
X0194883Y0105976D01*
X0194883Y0104978D02*
X0206733Y0104978D01*
X0206733Y0103979D02*
X0194883Y0103979D01*
X0194883Y0102981D02*
X0197250Y0102981D01*
X0195835Y0101982D02*
X0194883Y0101982D01*
X0194883Y0100984D02*
X0195311Y0100984D01*
X0195165Y0099985D02*
X0194883Y0099985D01*
X0199417Y0102981D02*
X0206733Y0102981D01*
X0206733Y0101982D02*
X0200832Y0101982D01*
X0201355Y0100984D02*
X0206733Y0100984D01*
X0206733Y0099985D02*
X0204818Y0099985D01*
X0203833Y0099985D02*
X0202833Y0099985D01*
X0201848Y0099985D02*
X0201502Y0099985D01*
X0202833Y0098987D02*
X0203833Y0098987D01*
X0203833Y0097988D02*
X0202833Y0097988D01*
X0202833Y0096990D02*
X0203833Y0096990D01*
X0203833Y0095991D02*
X0202833Y0095991D01*
X0206693Y0098987D02*
X0206733Y0098987D01*
X0166592Y0122951D02*
X0164883Y0122951D01*
X0164883Y0123949D02*
X0166622Y0123949D01*
X0166622Y0124948D02*
X0164883Y0124948D01*
X0164883Y0125946D02*
X0166622Y0125946D01*
X0166622Y0126945D02*
X0164883Y0126945D01*
X0164883Y0127943D02*
X0167021Y0127943D01*
X0166622Y0132936D02*
X0164589Y0132936D01*
X0163591Y0133934D02*
X0166622Y0133934D01*
X0166622Y0134933D02*
X0162002Y0134933D01*
X0160693Y0140550D02*
X0157808Y0140550D01*
X0157983Y0140973D01*
X0157983Y0141958D01*
X0163475Y0147450D01*
X0173191Y0147450D01*
X0174973Y0145668D01*
X0174017Y0145668D01*
X0173494Y0145145D01*
X0173353Y0145390D01*
X0173073Y0145669D01*
X0172731Y0145866D01*
X0172350Y0145968D01*
X0170471Y0145968D01*
X0170471Y0142984D01*
X0169503Y0142984D01*
X0169503Y0142016D01*
X0166322Y0142016D01*
X0166322Y0140550D01*
X0165974Y0140550D01*
X0165580Y0141501D01*
X0164834Y0142247D01*
X0163860Y0142650D01*
X0162806Y0142650D01*
X0161832Y0142247D01*
X0161087Y0141501D01*
X0160693Y0140550D01*
X0160848Y0140924D02*
X0157963Y0140924D01*
X0157983Y0141923D02*
X0161508Y0141923D01*
X0159945Y0143920D02*
X0166322Y0143920D01*
X0166322Y0144666D02*
X0166322Y0142984D01*
X0169503Y0142984D01*
X0169503Y0145968D01*
X0167624Y0145968D01*
X0167243Y0145866D01*
X0166900Y0145669D01*
X0166621Y0145390D01*
X0166424Y0145047D01*
X0166322Y0144666D01*
X0166389Y0144918D02*
X0160943Y0144918D01*
X0161942Y0145917D02*
X0167431Y0145917D01*
X0169503Y0145917D02*
X0170471Y0145917D01*
X0170471Y0144918D02*
X0169503Y0144918D01*
X0169503Y0143920D02*
X0170471Y0143920D01*
X0169503Y0142921D02*
X0158946Y0142921D01*
X0156559Y0144918D02*
X0155676Y0144918D01*
X0155256Y0144191D02*
X0155256Y0144191D01*
X0156253Y0145917D02*
X0157558Y0145917D01*
X0156826Y0146909D02*
X0156826Y0146909D01*
X0156827Y0146915D02*
X0158556Y0146915D01*
X0159555Y0147914D02*
X0157003Y0147914D01*
X0157179Y0148912D02*
X0160553Y0148912D01*
X0161552Y0149911D02*
X0157355Y0149911D01*
X0157371Y0150000D02*
X0157371Y0150000D01*
X0157210Y0150909D02*
X0189456Y0150909D01*
X0189296Y0150000D02*
X0189296Y0150000D01*
X0189312Y0149911D02*
X0175115Y0149911D01*
X0176113Y0148912D02*
X0189488Y0148912D01*
X0189664Y0147914D02*
X0177112Y0147914D01*
X0178110Y0146915D02*
X0189840Y0146915D01*
X0189841Y0146909D02*
X0189841Y0146909D01*
X0190414Y0145917D02*
X0178230Y0145917D01*
X0180045Y0144918D02*
X0190991Y0144918D01*
X0191410Y0144191D02*
X0191410Y0144191D01*
X0191734Y0143920D02*
X0182606Y0143920D01*
X0183604Y0142921D02*
X0192924Y0142921D01*
X0193815Y0142173D02*
X0193815Y0142173D01*
X0194504Y0141923D02*
X0184603Y0141923D01*
X0185601Y0140924D02*
X0206733Y0140924D01*
X0206733Y0139926D02*
X0186383Y0139926D01*
X0186383Y0138927D02*
X0195331Y0138927D01*
X0194332Y0137929D02*
X0186383Y0137929D01*
X0186383Y0136930D02*
X0193829Y0136930D01*
X0192073Y0135932D02*
X0191502Y0135932D01*
X0193461Y0132936D02*
X0193885Y0132936D01*
X0194466Y0131937D02*
X0192463Y0131937D01*
X0201202Y0130939D02*
X0206733Y0130939D01*
X0206733Y0131937D02*
X0202200Y0131937D01*
X0202782Y0132936D02*
X0206733Y0132936D01*
X0206733Y0133934D02*
X0203196Y0133934D01*
X0203233Y0134933D02*
X0206733Y0134933D01*
X0206733Y0135932D02*
X0203233Y0135932D01*
X0202838Y0136930D02*
X0206733Y0136930D01*
X0206733Y0137929D02*
X0202334Y0137929D01*
X0201336Y0138927D02*
X0206733Y0138927D01*
X0206733Y0141923D02*
X0202163Y0141923D01*
X0202852Y0142173D02*
X0202852Y0142173D01*
X0203743Y0142921D02*
X0206733Y0142921D01*
X0206733Y0143920D02*
X0204933Y0143920D01*
X0205256Y0144191D02*
X0205256Y0144191D01*
X0205676Y0144918D02*
X0206733Y0144918D01*
X0206733Y0145917D02*
X0206253Y0145917D01*
X0192711Y0156900D02*
X0153956Y0156900D01*
X0152852Y0157827D02*
X0152852Y0157827D01*
X0152653Y0157899D02*
X0194013Y0157899D01*
X0191521Y0155902D02*
X0155146Y0155902D01*
X0155256Y0155809D02*
X0155256Y0155809D01*
X0155779Y0154903D02*
X0190887Y0154903D01*
X0191410Y0155809D02*
X0191410Y0155809D01*
X0191410Y0155809D01*
X0190311Y0153905D02*
X0156356Y0153905D01*
X0156826Y0153091D02*
X0156826Y0153091D01*
X0156858Y0152906D02*
X0189808Y0152906D01*
X0189632Y0151908D02*
X0157034Y0151908D01*
X0162941Y0146915D02*
X0173726Y0146915D01*
X0174725Y0145917D02*
X0172543Y0145917D01*
X0166322Y0141923D02*
X0165158Y0141923D01*
X0165819Y0140924D02*
X0166322Y0140924D01*
X0165594Y0121952D02*
X0165129Y0121952D01*
D17*
X0163333Y0120000D03*
X0158833Y0120000D03*
X0153333Y0115000D03*
X0143333Y0120000D03*
X0143333Y0140000D03*
X0155333Y0141500D03*
X0163333Y0140000D03*
X0163333Y0144000D03*
X0173333Y0138500D03*
X0180833Y0138500D03*
X0188333Y0142500D03*
X0181333Y0130000D03*
X0183333Y0122000D03*
X0178333Y0105000D03*
D18*
X0168333Y0105000D01*
X0163333Y0100000D01*
X0163333Y0095000D01*
X0153333Y0095000D02*
X0153333Y0105000D01*
X0158333Y0110000D01*
X0168333Y0110000D01*
X0173333Y0115000D01*
X0173333Y0125669D01*
X0170971Y0125669D02*
X0170971Y0121138D01*
X0169987Y0120154D01*
X0169987Y0117500D01*
X0165833Y0117500D01*
X0163333Y0115000D01*
X0158333Y0115000D01*
X0143333Y0100000D01*
X0143333Y0095000D01*
X0153333Y0115000D02*
X0153333Y0120000D01*
X0151680Y0121654D01*
X0151680Y0125000D01*
X0151680Y0128846D01*
X0155333Y0132500D01*
X0155333Y0136000D01*
X0156333Y0137000D01*
X0167833Y0137000D01*
X0168609Y0136224D01*
X0168609Y0134331D01*
X0170971Y0134331D02*
X0170971Y0137362D01*
X0169333Y0139000D01*
X0164333Y0139000D01*
X0163333Y0140000D01*
X0162333Y0139000D01*
X0152833Y0139000D01*
X0151680Y0137846D01*
X0151680Y0135000D01*
X0158833Y0133346D02*
X0161987Y0133346D01*
X0163333Y0132000D01*
X0163333Y0120000D01*
X0165833Y0120000D01*
X0168609Y0122776D01*
X0168609Y0125669D01*
X0175696Y0125669D02*
X0175696Y0122638D01*
X0176333Y0122000D01*
X0178333Y0122000D01*
X0178058Y0122276D01*
X0178058Y0125669D01*
X0184833Y0127500D02*
X0184833Y0134500D01*
X0184664Y0134331D01*
X0178058Y0134331D01*
X0175696Y0134331D02*
X0175696Y0137362D01*
X0176833Y0138500D01*
X0180833Y0138500D01*
X0184833Y0139500D02*
X0181833Y0142500D01*
X0176680Y0142500D01*
X0176680Y0146154D01*
X0173833Y0149000D01*
X0162833Y0149000D01*
X0155333Y0141500D01*
X0144987Y0138346D02*
X0144987Y0135000D01*
X0144987Y0138346D02*
X0143333Y0140000D01*
X0158833Y0126654D02*
X0158833Y0120000D01*
X0144987Y0121654D02*
X0143333Y0120000D01*
X0144987Y0121654D02*
X0144987Y0125000D01*
X0173333Y0134331D02*
X0173333Y0138500D01*
X0184833Y0139500D02*
X0184833Y0134500D01*
X0188333Y0133346D02*
X0191680Y0133346D01*
X0193333Y0135000D01*
X0198333Y0135000D01*
X0188333Y0126654D02*
X0185680Y0126654D01*
X0184833Y0127500D01*
X0188333Y0126654D02*
X0188333Y0117500D01*
X0176680Y0117500D01*
X0178333Y0122000D02*
X0183333Y0122000D01*
X0188333Y0117500D02*
X0188333Y0115000D01*
X0193333Y0110000D01*
X0193333Y0095000D01*
M02*
