%
M48
M72
T01C0.0150
T02C0.0354
T03C0.0400
T04C0.1300
%
T01
X1725Y3006
X2275Y3506
X2725Y3506
X4225Y2006
X5225Y2506
X4725Y3706
X4525Y4506
X4475Y5356
X3725Y5356
X2725Y5506
X2725Y5906
X1925Y5656
X725Y5506
X725Y3506
X5225Y5756
X7825Y5506
X9025Y5656
X9825Y5506
X9825Y5906
X10825Y5356
X11575Y5356
X12325Y5756
X11625Y4506
X11825Y3706
X12325Y2506
X11325Y2006
X9825Y3506
X9375Y3506
X8825Y3006
X7825Y3506
X11325Y9106
X12325Y9606
X11825Y10806
X11625Y11606
X11575Y12456
X12325Y12856
X10825Y12456
X9825Y12606
X9825Y13006
X9025Y12756
X7825Y12606
X7825Y10606
X8825Y10106
X9375Y10606
X9825Y10606
X5225Y9606
X4225Y9106
X2725Y10606
X2275Y10606
X1725Y10106
X725Y10606
X725Y12606
X1925Y12756
X2725Y12606
X2725Y13006
X3725Y12456
X4475Y12456
X5225Y12856
X4525Y11606
X4725Y10806
X4225Y16206
X5225Y16706
X4725Y17906
X4525Y18706
X4475Y19556
X3725Y19556
X2725Y19706
X2725Y20106
X1925Y19856
X725Y19706
X725Y17706
X1725Y17206
X2275Y17706
X2725Y17706
X5225Y19956
X7825Y19706
X9025Y19856
X9825Y19706
X9825Y20106
X10825Y19556
X11575Y19556
X12325Y19956
X11625Y18706
X11825Y17906
X12325Y16706
X11325Y16206
X9825Y17706
X9375Y17706
X8825Y17206
X7825Y17706
X14925Y17706
X15925Y17206
X16475Y17706
X16925Y17706
X18425Y16206
X19425Y16706
X18925Y17906
X18725Y18706
X18675Y19556
X17925Y19556
X16925Y19706
X16925Y20106
X16125Y19856
X14925Y19706
X19425Y19956
X16925Y13006
X16925Y12606
X16125Y12756
X14925Y12606
X14925Y10606
X15925Y10106
X16475Y10606
X16925Y10606
X18425Y9106
X19425Y9606
X18925Y10806
X18725Y11606
X18675Y12456
X17925Y12456
X19425Y12856
X19425Y5756
X18675Y5356
X17925Y5356
X18725Y4506
X18925Y3706
X19425Y2506
X18425Y2006
X16925Y3506
X16475Y3506
X15925Y3006
X14925Y3506
X14925Y5506
X16125Y5656
X16925Y5506
X16925Y5906
T02
X13325Y5006
X13325Y4006
X13325Y11106
X13325Y12106
X13325Y18206
X13325Y19206
X6225Y19206
X6225Y18206
X6225Y12106
X6225Y11106
X6225Y5006
X6225Y4006
X20425Y4006
X20425Y5006
X20425Y11106
X20425Y12106
X20425Y18206
X20425Y19206
T03
X725Y1006
X1725Y1006
X2725Y1006
X3725Y1006
X4725Y1006
X5725Y1006
X6725Y1006
X7825Y1006
X8825Y1006
X9825Y1006
X10825Y1006
X11825Y1006
X12825Y1006
X13825Y1006
X14925Y1006
X15925Y1006
X16925Y1006
X17925Y1006
X18925Y1006
X19925Y1006
X20925Y1006
X20925Y8106
X19925Y8106
X18925Y8106
X17925Y8106
X16925Y8106
X15925Y8106
X14925Y8106
X13825Y8106
X12825Y8106
X11825Y8106
X10825Y8106
X9825Y8106
X8825Y8106
X7825Y8106
X6725Y8106
X5725Y8106
X4725Y8106
X3725Y8106
X2725Y8106
X1725Y8106
X725Y8106
X725Y15206
X1725Y15206
X2725Y15206
X3725Y15206
X4725Y15206
X5725Y15206
X6725Y15206
X7825Y15206
X8825Y15206
X9825Y15206
X10825Y15206
X11825Y15206
X12825Y15206
X13825Y15206
X14925Y15206
X15925Y15206
X16925Y15206
X17925Y15206
X18925Y15206
X19925Y15206
X20925Y15206
T04
X20425Y13606
X15425Y13606
X13325Y13606
X8325Y13606
X6225Y13606
X1225Y13606
X1225Y6506
X6225Y6506
X8325Y6506
X13325Y6506
X15425Y6506
X20425Y6506
X20425Y20706
X15425Y20706
X13325Y20706
X8325Y20706
X6225Y20706
X1225Y20706
M30
