G75*
%MOIN*%
%OFA0B0*%
%FSLAX25Y25*%
%IPPOS*%
%LPD*%
%AMOC8*
5,1,8,0,0,1.08239X$1,22.5*
%
%ADD10C,0.00800*%
%ADD11C,0.00000*%
D10*
X0002250Y0005060D02*
X0072250Y0005060D01*
X0072250Y0075060D01*
X0002250Y0075060D01*
X0002250Y0005060D01*
X0002250Y0076060D02*
X0072250Y0076060D01*
X0072250Y0146060D01*
X0002250Y0146060D01*
X0002250Y0076060D01*
X0002250Y0147060D02*
X0072250Y0147060D01*
X0072250Y0217060D01*
X0002250Y0217060D01*
X0002250Y0147060D01*
X0073250Y0147060D02*
X0073250Y0217060D01*
X0143250Y0217060D01*
X0143250Y0147060D01*
X0073250Y0147060D01*
X0073250Y0146060D02*
X0143250Y0146060D01*
X0143250Y0076060D01*
X0073250Y0076060D01*
X0073250Y0146060D01*
X0073250Y0075060D02*
X0143250Y0075060D01*
X0143250Y0005060D01*
X0073250Y0005060D01*
X0073250Y0075060D01*
X0144250Y0075060D02*
X0144250Y0005060D01*
X0214250Y0005060D01*
X0214250Y0075060D01*
X0144250Y0075060D01*
X0144250Y0076060D02*
X0214250Y0076060D01*
X0214250Y0146060D01*
X0144250Y0146060D01*
X0144250Y0076060D01*
X0144250Y0147060D02*
X0214250Y0147060D01*
X0214250Y0217060D01*
X0144250Y0217060D01*
X0144250Y0147060D01*
D11*
X0147750Y0136060D02*
X0147752Y0136221D01*
X0147758Y0136381D01*
X0147768Y0136542D01*
X0147782Y0136702D01*
X0147800Y0136862D01*
X0147821Y0137021D01*
X0147847Y0137180D01*
X0147877Y0137338D01*
X0147910Y0137495D01*
X0147948Y0137652D01*
X0147989Y0137807D01*
X0148034Y0137961D01*
X0148083Y0138114D01*
X0148136Y0138266D01*
X0148192Y0138417D01*
X0148253Y0138566D01*
X0148316Y0138714D01*
X0148384Y0138860D01*
X0148455Y0139004D01*
X0148529Y0139146D01*
X0148607Y0139287D01*
X0148689Y0139425D01*
X0148774Y0139562D01*
X0148862Y0139696D01*
X0148954Y0139828D01*
X0149049Y0139958D01*
X0149147Y0140086D01*
X0149248Y0140211D01*
X0149352Y0140333D01*
X0149459Y0140453D01*
X0149569Y0140570D01*
X0149682Y0140685D01*
X0149798Y0140796D01*
X0149917Y0140905D01*
X0150038Y0141010D01*
X0150162Y0141113D01*
X0150288Y0141213D01*
X0150416Y0141309D01*
X0150547Y0141402D01*
X0150681Y0141492D01*
X0150816Y0141579D01*
X0150954Y0141662D01*
X0151093Y0141742D01*
X0151235Y0141818D01*
X0151378Y0141891D01*
X0151523Y0141960D01*
X0151670Y0142026D01*
X0151818Y0142088D01*
X0151968Y0142146D01*
X0152119Y0142201D01*
X0152272Y0142252D01*
X0152426Y0142299D01*
X0152581Y0142342D01*
X0152737Y0142381D01*
X0152893Y0142417D01*
X0153051Y0142448D01*
X0153209Y0142476D01*
X0153368Y0142500D01*
X0153528Y0142520D01*
X0153688Y0142536D01*
X0153848Y0142548D01*
X0154009Y0142556D01*
X0154170Y0142560D01*
X0154330Y0142560D01*
X0154491Y0142556D01*
X0154652Y0142548D01*
X0154812Y0142536D01*
X0154972Y0142520D01*
X0155132Y0142500D01*
X0155291Y0142476D01*
X0155449Y0142448D01*
X0155607Y0142417D01*
X0155763Y0142381D01*
X0155919Y0142342D01*
X0156074Y0142299D01*
X0156228Y0142252D01*
X0156381Y0142201D01*
X0156532Y0142146D01*
X0156682Y0142088D01*
X0156830Y0142026D01*
X0156977Y0141960D01*
X0157122Y0141891D01*
X0157265Y0141818D01*
X0157407Y0141742D01*
X0157546Y0141662D01*
X0157684Y0141579D01*
X0157819Y0141492D01*
X0157953Y0141402D01*
X0158084Y0141309D01*
X0158212Y0141213D01*
X0158338Y0141113D01*
X0158462Y0141010D01*
X0158583Y0140905D01*
X0158702Y0140796D01*
X0158818Y0140685D01*
X0158931Y0140570D01*
X0159041Y0140453D01*
X0159148Y0140333D01*
X0159252Y0140211D01*
X0159353Y0140086D01*
X0159451Y0139958D01*
X0159546Y0139828D01*
X0159638Y0139696D01*
X0159726Y0139562D01*
X0159811Y0139425D01*
X0159893Y0139287D01*
X0159971Y0139146D01*
X0160045Y0139004D01*
X0160116Y0138860D01*
X0160184Y0138714D01*
X0160247Y0138566D01*
X0160308Y0138417D01*
X0160364Y0138266D01*
X0160417Y0138114D01*
X0160466Y0137961D01*
X0160511Y0137807D01*
X0160552Y0137652D01*
X0160590Y0137495D01*
X0160623Y0137338D01*
X0160653Y0137180D01*
X0160679Y0137021D01*
X0160700Y0136862D01*
X0160718Y0136702D01*
X0160732Y0136542D01*
X0160742Y0136381D01*
X0160748Y0136221D01*
X0160750Y0136060D01*
X0160748Y0135899D01*
X0160742Y0135739D01*
X0160732Y0135578D01*
X0160718Y0135418D01*
X0160700Y0135258D01*
X0160679Y0135099D01*
X0160653Y0134940D01*
X0160623Y0134782D01*
X0160590Y0134625D01*
X0160552Y0134468D01*
X0160511Y0134313D01*
X0160466Y0134159D01*
X0160417Y0134006D01*
X0160364Y0133854D01*
X0160308Y0133703D01*
X0160247Y0133554D01*
X0160184Y0133406D01*
X0160116Y0133260D01*
X0160045Y0133116D01*
X0159971Y0132974D01*
X0159893Y0132833D01*
X0159811Y0132695D01*
X0159726Y0132558D01*
X0159638Y0132424D01*
X0159546Y0132292D01*
X0159451Y0132162D01*
X0159353Y0132034D01*
X0159252Y0131909D01*
X0159148Y0131787D01*
X0159041Y0131667D01*
X0158931Y0131550D01*
X0158818Y0131435D01*
X0158702Y0131324D01*
X0158583Y0131215D01*
X0158462Y0131110D01*
X0158338Y0131007D01*
X0158212Y0130907D01*
X0158084Y0130811D01*
X0157953Y0130718D01*
X0157819Y0130628D01*
X0157684Y0130541D01*
X0157546Y0130458D01*
X0157407Y0130378D01*
X0157265Y0130302D01*
X0157122Y0130229D01*
X0156977Y0130160D01*
X0156830Y0130094D01*
X0156682Y0130032D01*
X0156532Y0129974D01*
X0156381Y0129919D01*
X0156228Y0129868D01*
X0156074Y0129821D01*
X0155919Y0129778D01*
X0155763Y0129739D01*
X0155607Y0129703D01*
X0155449Y0129672D01*
X0155291Y0129644D01*
X0155132Y0129620D01*
X0154972Y0129600D01*
X0154812Y0129584D01*
X0154652Y0129572D01*
X0154491Y0129564D01*
X0154330Y0129560D01*
X0154170Y0129560D01*
X0154009Y0129564D01*
X0153848Y0129572D01*
X0153688Y0129584D01*
X0153528Y0129600D01*
X0153368Y0129620D01*
X0153209Y0129644D01*
X0153051Y0129672D01*
X0152893Y0129703D01*
X0152737Y0129739D01*
X0152581Y0129778D01*
X0152426Y0129821D01*
X0152272Y0129868D01*
X0152119Y0129919D01*
X0151968Y0129974D01*
X0151818Y0130032D01*
X0151670Y0130094D01*
X0151523Y0130160D01*
X0151378Y0130229D01*
X0151235Y0130302D01*
X0151093Y0130378D01*
X0150954Y0130458D01*
X0150816Y0130541D01*
X0150681Y0130628D01*
X0150547Y0130718D01*
X0150416Y0130811D01*
X0150288Y0130907D01*
X0150162Y0131007D01*
X0150038Y0131110D01*
X0149917Y0131215D01*
X0149798Y0131324D01*
X0149682Y0131435D01*
X0149569Y0131550D01*
X0149459Y0131667D01*
X0149352Y0131787D01*
X0149248Y0131909D01*
X0149147Y0132034D01*
X0149049Y0132162D01*
X0148954Y0132292D01*
X0148862Y0132424D01*
X0148774Y0132558D01*
X0148689Y0132695D01*
X0148607Y0132833D01*
X0148529Y0132974D01*
X0148455Y0133116D01*
X0148384Y0133260D01*
X0148316Y0133406D01*
X0148253Y0133554D01*
X0148192Y0133703D01*
X0148136Y0133854D01*
X0148083Y0134006D01*
X0148034Y0134159D01*
X0147989Y0134313D01*
X0147948Y0134468D01*
X0147910Y0134625D01*
X0147877Y0134782D01*
X0147847Y0134940D01*
X0147821Y0135099D01*
X0147800Y0135258D01*
X0147782Y0135418D01*
X0147768Y0135578D01*
X0147758Y0135739D01*
X0147752Y0135899D01*
X0147750Y0136060D01*
X0126750Y0136060D02*
X0126752Y0136221D01*
X0126758Y0136381D01*
X0126768Y0136542D01*
X0126782Y0136702D01*
X0126800Y0136862D01*
X0126821Y0137021D01*
X0126847Y0137180D01*
X0126877Y0137338D01*
X0126910Y0137495D01*
X0126948Y0137652D01*
X0126989Y0137807D01*
X0127034Y0137961D01*
X0127083Y0138114D01*
X0127136Y0138266D01*
X0127192Y0138417D01*
X0127253Y0138566D01*
X0127316Y0138714D01*
X0127384Y0138860D01*
X0127455Y0139004D01*
X0127529Y0139146D01*
X0127607Y0139287D01*
X0127689Y0139425D01*
X0127774Y0139562D01*
X0127862Y0139696D01*
X0127954Y0139828D01*
X0128049Y0139958D01*
X0128147Y0140086D01*
X0128248Y0140211D01*
X0128352Y0140333D01*
X0128459Y0140453D01*
X0128569Y0140570D01*
X0128682Y0140685D01*
X0128798Y0140796D01*
X0128917Y0140905D01*
X0129038Y0141010D01*
X0129162Y0141113D01*
X0129288Y0141213D01*
X0129416Y0141309D01*
X0129547Y0141402D01*
X0129681Y0141492D01*
X0129816Y0141579D01*
X0129954Y0141662D01*
X0130093Y0141742D01*
X0130235Y0141818D01*
X0130378Y0141891D01*
X0130523Y0141960D01*
X0130670Y0142026D01*
X0130818Y0142088D01*
X0130968Y0142146D01*
X0131119Y0142201D01*
X0131272Y0142252D01*
X0131426Y0142299D01*
X0131581Y0142342D01*
X0131737Y0142381D01*
X0131893Y0142417D01*
X0132051Y0142448D01*
X0132209Y0142476D01*
X0132368Y0142500D01*
X0132528Y0142520D01*
X0132688Y0142536D01*
X0132848Y0142548D01*
X0133009Y0142556D01*
X0133170Y0142560D01*
X0133330Y0142560D01*
X0133491Y0142556D01*
X0133652Y0142548D01*
X0133812Y0142536D01*
X0133972Y0142520D01*
X0134132Y0142500D01*
X0134291Y0142476D01*
X0134449Y0142448D01*
X0134607Y0142417D01*
X0134763Y0142381D01*
X0134919Y0142342D01*
X0135074Y0142299D01*
X0135228Y0142252D01*
X0135381Y0142201D01*
X0135532Y0142146D01*
X0135682Y0142088D01*
X0135830Y0142026D01*
X0135977Y0141960D01*
X0136122Y0141891D01*
X0136265Y0141818D01*
X0136407Y0141742D01*
X0136546Y0141662D01*
X0136684Y0141579D01*
X0136819Y0141492D01*
X0136953Y0141402D01*
X0137084Y0141309D01*
X0137212Y0141213D01*
X0137338Y0141113D01*
X0137462Y0141010D01*
X0137583Y0140905D01*
X0137702Y0140796D01*
X0137818Y0140685D01*
X0137931Y0140570D01*
X0138041Y0140453D01*
X0138148Y0140333D01*
X0138252Y0140211D01*
X0138353Y0140086D01*
X0138451Y0139958D01*
X0138546Y0139828D01*
X0138638Y0139696D01*
X0138726Y0139562D01*
X0138811Y0139425D01*
X0138893Y0139287D01*
X0138971Y0139146D01*
X0139045Y0139004D01*
X0139116Y0138860D01*
X0139184Y0138714D01*
X0139247Y0138566D01*
X0139308Y0138417D01*
X0139364Y0138266D01*
X0139417Y0138114D01*
X0139466Y0137961D01*
X0139511Y0137807D01*
X0139552Y0137652D01*
X0139590Y0137495D01*
X0139623Y0137338D01*
X0139653Y0137180D01*
X0139679Y0137021D01*
X0139700Y0136862D01*
X0139718Y0136702D01*
X0139732Y0136542D01*
X0139742Y0136381D01*
X0139748Y0136221D01*
X0139750Y0136060D01*
X0139748Y0135899D01*
X0139742Y0135739D01*
X0139732Y0135578D01*
X0139718Y0135418D01*
X0139700Y0135258D01*
X0139679Y0135099D01*
X0139653Y0134940D01*
X0139623Y0134782D01*
X0139590Y0134625D01*
X0139552Y0134468D01*
X0139511Y0134313D01*
X0139466Y0134159D01*
X0139417Y0134006D01*
X0139364Y0133854D01*
X0139308Y0133703D01*
X0139247Y0133554D01*
X0139184Y0133406D01*
X0139116Y0133260D01*
X0139045Y0133116D01*
X0138971Y0132974D01*
X0138893Y0132833D01*
X0138811Y0132695D01*
X0138726Y0132558D01*
X0138638Y0132424D01*
X0138546Y0132292D01*
X0138451Y0132162D01*
X0138353Y0132034D01*
X0138252Y0131909D01*
X0138148Y0131787D01*
X0138041Y0131667D01*
X0137931Y0131550D01*
X0137818Y0131435D01*
X0137702Y0131324D01*
X0137583Y0131215D01*
X0137462Y0131110D01*
X0137338Y0131007D01*
X0137212Y0130907D01*
X0137084Y0130811D01*
X0136953Y0130718D01*
X0136819Y0130628D01*
X0136684Y0130541D01*
X0136546Y0130458D01*
X0136407Y0130378D01*
X0136265Y0130302D01*
X0136122Y0130229D01*
X0135977Y0130160D01*
X0135830Y0130094D01*
X0135682Y0130032D01*
X0135532Y0129974D01*
X0135381Y0129919D01*
X0135228Y0129868D01*
X0135074Y0129821D01*
X0134919Y0129778D01*
X0134763Y0129739D01*
X0134607Y0129703D01*
X0134449Y0129672D01*
X0134291Y0129644D01*
X0134132Y0129620D01*
X0133972Y0129600D01*
X0133812Y0129584D01*
X0133652Y0129572D01*
X0133491Y0129564D01*
X0133330Y0129560D01*
X0133170Y0129560D01*
X0133009Y0129564D01*
X0132848Y0129572D01*
X0132688Y0129584D01*
X0132528Y0129600D01*
X0132368Y0129620D01*
X0132209Y0129644D01*
X0132051Y0129672D01*
X0131893Y0129703D01*
X0131737Y0129739D01*
X0131581Y0129778D01*
X0131426Y0129821D01*
X0131272Y0129868D01*
X0131119Y0129919D01*
X0130968Y0129974D01*
X0130818Y0130032D01*
X0130670Y0130094D01*
X0130523Y0130160D01*
X0130378Y0130229D01*
X0130235Y0130302D01*
X0130093Y0130378D01*
X0129954Y0130458D01*
X0129816Y0130541D01*
X0129681Y0130628D01*
X0129547Y0130718D01*
X0129416Y0130811D01*
X0129288Y0130907D01*
X0129162Y0131007D01*
X0129038Y0131110D01*
X0128917Y0131215D01*
X0128798Y0131324D01*
X0128682Y0131435D01*
X0128569Y0131550D01*
X0128459Y0131667D01*
X0128352Y0131787D01*
X0128248Y0131909D01*
X0128147Y0132034D01*
X0128049Y0132162D01*
X0127954Y0132292D01*
X0127862Y0132424D01*
X0127774Y0132558D01*
X0127689Y0132695D01*
X0127607Y0132833D01*
X0127529Y0132974D01*
X0127455Y0133116D01*
X0127384Y0133260D01*
X0127316Y0133406D01*
X0127253Y0133554D01*
X0127192Y0133703D01*
X0127136Y0133854D01*
X0127083Y0134006D01*
X0127034Y0134159D01*
X0126989Y0134313D01*
X0126948Y0134468D01*
X0126910Y0134625D01*
X0126877Y0134782D01*
X0126847Y0134940D01*
X0126821Y0135099D01*
X0126800Y0135258D01*
X0126782Y0135418D01*
X0126768Y0135578D01*
X0126758Y0135739D01*
X0126752Y0135899D01*
X0126750Y0136060D01*
X0076750Y0136060D02*
X0076752Y0136221D01*
X0076758Y0136381D01*
X0076768Y0136542D01*
X0076782Y0136702D01*
X0076800Y0136862D01*
X0076821Y0137021D01*
X0076847Y0137180D01*
X0076877Y0137338D01*
X0076910Y0137495D01*
X0076948Y0137652D01*
X0076989Y0137807D01*
X0077034Y0137961D01*
X0077083Y0138114D01*
X0077136Y0138266D01*
X0077192Y0138417D01*
X0077253Y0138566D01*
X0077316Y0138714D01*
X0077384Y0138860D01*
X0077455Y0139004D01*
X0077529Y0139146D01*
X0077607Y0139287D01*
X0077689Y0139425D01*
X0077774Y0139562D01*
X0077862Y0139696D01*
X0077954Y0139828D01*
X0078049Y0139958D01*
X0078147Y0140086D01*
X0078248Y0140211D01*
X0078352Y0140333D01*
X0078459Y0140453D01*
X0078569Y0140570D01*
X0078682Y0140685D01*
X0078798Y0140796D01*
X0078917Y0140905D01*
X0079038Y0141010D01*
X0079162Y0141113D01*
X0079288Y0141213D01*
X0079416Y0141309D01*
X0079547Y0141402D01*
X0079681Y0141492D01*
X0079816Y0141579D01*
X0079954Y0141662D01*
X0080093Y0141742D01*
X0080235Y0141818D01*
X0080378Y0141891D01*
X0080523Y0141960D01*
X0080670Y0142026D01*
X0080818Y0142088D01*
X0080968Y0142146D01*
X0081119Y0142201D01*
X0081272Y0142252D01*
X0081426Y0142299D01*
X0081581Y0142342D01*
X0081737Y0142381D01*
X0081893Y0142417D01*
X0082051Y0142448D01*
X0082209Y0142476D01*
X0082368Y0142500D01*
X0082528Y0142520D01*
X0082688Y0142536D01*
X0082848Y0142548D01*
X0083009Y0142556D01*
X0083170Y0142560D01*
X0083330Y0142560D01*
X0083491Y0142556D01*
X0083652Y0142548D01*
X0083812Y0142536D01*
X0083972Y0142520D01*
X0084132Y0142500D01*
X0084291Y0142476D01*
X0084449Y0142448D01*
X0084607Y0142417D01*
X0084763Y0142381D01*
X0084919Y0142342D01*
X0085074Y0142299D01*
X0085228Y0142252D01*
X0085381Y0142201D01*
X0085532Y0142146D01*
X0085682Y0142088D01*
X0085830Y0142026D01*
X0085977Y0141960D01*
X0086122Y0141891D01*
X0086265Y0141818D01*
X0086407Y0141742D01*
X0086546Y0141662D01*
X0086684Y0141579D01*
X0086819Y0141492D01*
X0086953Y0141402D01*
X0087084Y0141309D01*
X0087212Y0141213D01*
X0087338Y0141113D01*
X0087462Y0141010D01*
X0087583Y0140905D01*
X0087702Y0140796D01*
X0087818Y0140685D01*
X0087931Y0140570D01*
X0088041Y0140453D01*
X0088148Y0140333D01*
X0088252Y0140211D01*
X0088353Y0140086D01*
X0088451Y0139958D01*
X0088546Y0139828D01*
X0088638Y0139696D01*
X0088726Y0139562D01*
X0088811Y0139425D01*
X0088893Y0139287D01*
X0088971Y0139146D01*
X0089045Y0139004D01*
X0089116Y0138860D01*
X0089184Y0138714D01*
X0089247Y0138566D01*
X0089308Y0138417D01*
X0089364Y0138266D01*
X0089417Y0138114D01*
X0089466Y0137961D01*
X0089511Y0137807D01*
X0089552Y0137652D01*
X0089590Y0137495D01*
X0089623Y0137338D01*
X0089653Y0137180D01*
X0089679Y0137021D01*
X0089700Y0136862D01*
X0089718Y0136702D01*
X0089732Y0136542D01*
X0089742Y0136381D01*
X0089748Y0136221D01*
X0089750Y0136060D01*
X0089748Y0135899D01*
X0089742Y0135739D01*
X0089732Y0135578D01*
X0089718Y0135418D01*
X0089700Y0135258D01*
X0089679Y0135099D01*
X0089653Y0134940D01*
X0089623Y0134782D01*
X0089590Y0134625D01*
X0089552Y0134468D01*
X0089511Y0134313D01*
X0089466Y0134159D01*
X0089417Y0134006D01*
X0089364Y0133854D01*
X0089308Y0133703D01*
X0089247Y0133554D01*
X0089184Y0133406D01*
X0089116Y0133260D01*
X0089045Y0133116D01*
X0088971Y0132974D01*
X0088893Y0132833D01*
X0088811Y0132695D01*
X0088726Y0132558D01*
X0088638Y0132424D01*
X0088546Y0132292D01*
X0088451Y0132162D01*
X0088353Y0132034D01*
X0088252Y0131909D01*
X0088148Y0131787D01*
X0088041Y0131667D01*
X0087931Y0131550D01*
X0087818Y0131435D01*
X0087702Y0131324D01*
X0087583Y0131215D01*
X0087462Y0131110D01*
X0087338Y0131007D01*
X0087212Y0130907D01*
X0087084Y0130811D01*
X0086953Y0130718D01*
X0086819Y0130628D01*
X0086684Y0130541D01*
X0086546Y0130458D01*
X0086407Y0130378D01*
X0086265Y0130302D01*
X0086122Y0130229D01*
X0085977Y0130160D01*
X0085830Y0130094D01*
X0085682Y0130032D01*
X0085532Y0129974D01*
X0085381Y0129919D01*
X0085228Y0129868D01*
X0085074Y0129821D01*
X0084919Y0129778D01*
X0084763Y0129739D01*
X0084607Y0129703D01*
X0084449Y0129672D01*
X0084291Y0129644D01*
X0084132Y0129620D01*
X0083972Y0129600D01*
X0083812Y0129584D01*
X0083652Y0129572D01*
X0083491Y0129564D01*
X0083330Y0129560D01*
X0083170Y0129560D01*
X0083009Y0129564D01*
X0082848Y0129572D01*
X0082688Y0129584D01*
X0082528Y0129600D01*
X0082368Y0129620D01*
X0082209Y0129644D01*
X0082051Y0129672D01*
X0081893Y0129703D01*
X0081737Y0129739D01*
X0081581Y0129778D01*
X0081426Y0129821D01*
X0081272Y0129868D01*
X0081119Y0129919D01*
X0080968Y0129974D01*
X0080818Y0130032D01*
X0080670Y0130094D01*
X0080523Y0130160D01*
X0080378Y0130229D01*
X0080235Y0130302D01*
X0080093Y0130378D01*
X0079954Y0130458D01*
X0079816Y0130541D01*
X0079681Y0130628D01*
X0079547Y0130718D01*
X0079416Y0130811D01*
X0079288Y0130907D01*
X0079162Y0131007D01*
X0079038Y0131110D01*
X0078917Y0131215D01*
X0078798Y0131324D01*
X0078682Y0131435D01*
X0078569Y0131550D01*
X0078459Y0131667D01*
X0078352Y0131787D01*
X0078248Y0131909D01*
X0078147Y0132034D01*
X0078049Y0132162D01*
X0077954Y0132292D01*
X0077862Y0132424D01*
X0077774Y0132558D01*
X0077689Y0132695D01*
X0077607Y0132833D01*
X0077529Y0132974D01*
X0077455Y0133116D01*
X0077384Y0133260D01*
X0077316Y0133406D01*
X0077253Y0133554D01*
X0077192Y0133703D01*
X0077136Y0133854D01*
X0077083Y0134006D01*
X0077034Y0134159D01*
X0076989Y0134313D01*
X0076948Y0134468D01*
X0076910Y0134625D01*
X0076877Y0134782D01*
X0076847Y0134940D01*
X0076821Y0135099D01*
X0076800Y0135258D01*
X0076782Y0135418D01*
X0076768Y0135578D01*
X0076758Y0135739D01*
X0076752Y0135899D01*
X0076750Y0136060D01*
X0055750Y0136060D02*
X0055752Y0136221D01*
X0055758Y0136381D01*
X0055768Y0136542D01*
X0055782Y0136702D01*
X0055800Y0136862D01*
X0055821Y0137021D01*
X0055847Y0137180D01*
X0055877Y0137338D01*
X0055910Y0137495D01*
X0055948Y0137652D01*
X0055989Y0137807D01*
X0056034Y0137961D01*
X0056083Y0138114D01*
X0056136Y0138266D01*
X0056192Y0138417D01*
X0056253Y0138566D01*
X0056316Y0138714D01*
X0056384Y0138860D01*
X0056455Y0139004D01*
X0056529Y0139146D01*
X0056607Y0139287D01*
X0056689Y0139425D01*
X0056774Y0139562D01*
X0056862Y0139696D01*
X0056954Y0139828D01*
X0057049Y0139958D01*
X0057147Y0140086D01*
X0057248Y0140211D01*
X0057352Y0140333D01*
X0057459Y0140453D01*
X0057569Y0140570D01*
X0057682Y0140685D01*
X0057798Y0140796D01*
X0057917Y0140905D01*
X0058038Y0141010D01*
X0058162Y0141113D01*
X0058288Y0141213D01*
X0058416Y0141309D01*
X0058547Y0141402D01*
X0058681Y0141492D01*
X0058816Y0141579D01*
X0058954Y0141662D01*
X0059093Y0141742D01*
X0059235Y0141818D01*
X0059378Y0141891D01*
X0059523Y0141960D01*
X0059670Y0142026D01*
X0059818Y0142088D01*
X0059968Y0142146D01*
X0060119Y0142201D01*
X0060272Y0142252D01*
X0060426Y0142299D01*
X0060581Y0142342D01*
X0060737Y0142381D01*
X0060893Y0142417D01*
X0061051Y0142448D01*
X0061209Y0142476D01*
X0061368Y0142500D01*
X0061528Y0142520D01*
X0061688Y0142536D01*
X0061848Y0142548D01*
X0062009Y0142556D01*
X0062170Y0142560D01*
X0062330Y0142560D01*
X0062491Y0142556D01*
X0062652Y0142548D01*
X0062812Y0142536D01*
X0062972Y0142520D01*
X0063132Y0142500D01*
X0063291Y0142476D01*
X0063449Y0142448D01*
X0063607Y0142417D01*
X0063763Y0142381D01*
X0063919Y0142342D01*
X0064074Y0142299D01*
X0064228Y0142252D01*
X0064381Y0142201D01*
X0064532Y0142146D01*
X0064682Y0142088D01*
X0064830Y0142026D01*
X0064977Y0141960D01*
X0065122Y0141891D01*
X0065265Y0141818D01*
X0065407Y0141742D01*
X0065546Y0141662D01*
X0065684Y0141579D01*
X0065819Y0141492D01*
X0065953Y0141402D01*
X0066084Y0141309D01*
X0066212Y0141213D01*
X0066338Y0141113D01*
X0066462Y0141010D01*
X0066583Y0140905D01*
X0066702Y0140796D01*
X0066818Y0140685D01*
X0066931Y0140570D01*
X0067041Y0140453D01*
X0067148Y0140333D01*
X0067252Y0140211D01*
X0067353Y0140086D01*
X0067451Y0139958D01*
X0067546Y0139828D01*
X0067638Y0139696D01*
X0067726Y0139562D01*
X0067811Y0139425D01*
X0067893Y0139287D01*
X0067971Y0139146D01*
X0068045Y0139004D01*
X0068116Y0138860D01*
X0068184Y0138714D01*
X0068247Y0138566D01*
X0068308Y0138417D01*
X0068364Y0138266D01*
X0068417Y0138114D01*
X0068466Y0137961D01*
X0068511Y0137807D01*
X0068552Y0137652D01*
X0068590Y0137495D01*
X0068623Y0137338D01*
X0068653Y0137180D01*
X0068679Y0137021D01*
X0068700Y0136862D01*
X0068718Y0136702D01*
X0068732Y0136542D01*
X0068742Y0136381D01*
X0068748Y0136221D01*
X0068750Y0136060D01*
X0068748Y0135899D01*
X0068742Y0135739D01*
X0068732Y0135578D01*
X0068718Y0135418D01*
X0068700Y0135258D01*
X0068679Y0135099D01*
X0068653Y0134940D01*
X0068623Y0134782D01*
X0068590Y0134625D01*
X0068552Y0134468D01*
X0068511Y0134313D01*
X0068466Y0134159D01*
X0068417Y0134006D01*
X0068364Y0133854D01*
X0068308Y0133703D01*
X0068247Y0133554D01*
X0068184Y0133406D01*
X0068116Y0133260D01*
X0068045Y0133116D01*
X0067971Y0132974D01*
X0067893Y0132833D01*
X0067811Y0132695D01*
X0067726Y0132558D01*
X0067638Y0132424D01*
X0067546Y0132292D01*
X0067451Y0132162D01*
X0067353Y0132034D01*
X0067252Y0131909D01*
X0067148Y0131787D01*
X0067041Y0131667D01*
X0066931Y0131550D01*
X0066818Y0131435D01*
X0066702Y0131324D01*
X0066583Y0131215D01*
X0066462Y0131110D01*
X0066338Y0131007D01*
X0066212Y0130907D01*
X0066084Y0130811D01*
X0065953Y0130718D01*
X0065819Y0130628D01*
X0065684Y0130541D01*
X0065546Y0130458D01*
X0065407Y0130378D01*
X0065265Y0130302D01*
X0065122Y0130229D01*
X0064977Y0130160D01*
X0064830Y0130094D01*
X0064682Y0130032D01*
X0064532Y0129974D01*
X0064381Y0129919D01*
X0064228Y0129868D01*
X0064074Y0129821D01*
X0063919Y0129778D01*
X0063763Y0129739D01*
X0063607Y0129703D01*
X0063449Y0129672D01*
X0063291Y0129644D01*
X0063132Y0129620D01*
X0062972Y0129600D01*
X0062812Y0129584D01*
X0062652Y0129572D01*
X0062491Y0129564D01*
X0062330Y0129560D01*
X0062170Y0129560D01*
X0062009Y0129564D01*
X0061848Y0129572D01*
X0061688Y0129584D01*
X0061528Y0129600D01*
X0061368Y0129620D01*
X0061209Y0129644D01*
X0061051Y0129672D01*
X0060893Y0129703D01*
X0060737Y0129739D01*
X0060581Y0129778D01*
X0060426Y0129821D01*
X0060272Y0129868D01*
X0060119Y0129919D01*
X0059968Y0129974D01*
X0059818Y0130032D01*
X0059670Y0130094D01*
X0059523Y0130160D01*
X0059378Y0130229D01*
X0059235Y0130302D01*
X0059093Y0130378D01*
X0058954Y0130458D01*
X0058816Y0130541D01*
X0058681Y0130628D01*
X0058547Y0130718D01*
X0058416Y0130811D01*
X0058288Y0130907D01*
X0058162Y0131007D01*
X0058038Y0131110D01*
X0057917Y0131215D01*
X0057798Y0131324D01*
X0057682Y0131435D01*
X0057569Y0131550D01*
X0057459Y0131667D01*
X0057352Y0131787D01*
X0057248Y0131909D01*
X0057147Y0132034D01*
X0057049Y0132162D01*
X0056954Y0132292D01*
X0056862Y0132424D01*
X0056774Y0132558D01*
X0056689Y0132695D01*
X0056607Y0132833D01*
X0056529Y0132974D01*
X0056455Y0133116D01*
X0056384Y0133260D01*
X0056316Y0133406D01*
X0056253Y0133554D01*
X0056192Y0133703D01*
X0056136Y0133854D01*
X0056083Y0134006D01*
X0056034Y0134159D01*
X0055989Y0134313D01*
X0055948Y0134468D01*
X0055910Y0134625D01*
X0055877Y0134782D01*
X0055847Y0134940D01*
X0055821Y0135099D01*
X0055800Y0135258D01*
X0055782Y0135418D01*
X0055768Y0135578D01*
X0055758Y0135739D01*
X0055752Y0135899D01*
X0055750Y0136060D01*
X0005750Y0136060D02*
X0005752Y0136221D01*
X0005758Y0136381D01*
X0005768Y0136542D01*
X0005782Y0136702D01*
X0005800Y0136862D01*
X0005821Y0137021D01*
X0005847Y0137180D01*
X0005877Y0137338D01*
X0005910Y0137495D01*
X0005948Y0137652D01*
X0005989Y0137807D01*
X0006034Y0137961D01*
X0006083Y0138114D01*
X0006136Y0138266D01*
X0006192Y0138417D01*
X0006253Y0138566D01*
X0006316Y0138714D01*
X0006384Y0138860D01*
X0006455Y0139004D01*
X0006529Y0139146D01*
X0006607Y0139287D01*
X0006689Y0139425D01*
X0006774Y0139562D01*
X0006862Y0139696D01*
X0006954Y0139828D01*
X0007049Y0139958D01*
X0007147Y0140086D01*
X0007248Y0140211D01*
X0007352Y0140333D01*
X0007459Y0140453D01*
X0007569Y0140570D01*
X0007682Y0140685D01*
X0007798Y0140796D01*
X0007917Y0140905D01*
X0008038Y0141010D01*
X0008162Y0141113D01*
X0008288Y0141213D01*
X0008416Y0141309D01*
X0008547Y0141402D01*
X0008681Y0141492D01*
X0008816Y0141579D01*
X0008954Y0141662D01*
X0009093Y0141742D01*
X0009235Y0141818D01*
X0009378Y0141891D01*
X0009523Y0141960D01*
X0009670Y0142026D01*
X0009818Y0142088D01*
X0009968Y0142146D01*
X0010119Y0142201D01*
X0010272Y0142252D01*
X0010426Y0142299D01*
X0010581Y0142342D01*
X0010737Y0142381D01*
X0010893Y0142417D01*
X0011051Y0142448D01*
X0011209Y0142476D01*
X0011368Y0142500D01*
X0011528Y0142520D01*
X0011688Y0142536D01*
X0011848Y0142548D01*
X0012009Y0142556D01*
X0012170Y0142560D01*
X0012330Y0142560D01*
X0012491Y0142556D01*
X0012652Y0142548D01*
X0012812Y0142536D01*
X0012972Y0142520D01*
X0013132Y0142500D01*
X0013291Y0142476D01*
X0013449Y0142448D01*
X0013607Y0142417D01*
X0013763Y0142381D01*
X0013919Y0142342D01*
X0014074Y0142299D01*
X0014228Y0142252D01*
X0014381Y0142201D01*
X0014532Y0142146D01*
X0014682Y0142088D01*
X0014830Y0142026D01*
X0014977Y0141960D01*
X0015122Y0141891D01*
X0015265Y0141818D01*
X0015407Y0141742D01*
X0015546Y0141662D01*
X0015684Y0141579D01*
X0015819Y0141492D01*
X0015953Y0141402D01*
X0016084Y0141309D01*
X0016212Y0141213D01*
X0016338Y0141113D01*
X0016462Y0141010D01*
X0016583Y0140905D01*
X0016702Y0140796D01*
X0016818Y0140685D01*
X0016931Y0140570D01*
X0017041Y0140453D01*
X0017148Y0140333D01*
X0017252Y0140211D01*
X0017353Y0140086D01*
X0017451Y0139958D01*
X0017546Y0139828D01*
X0017638Y0139696D01*
X0017726Y0139562D01*
X0017811Y0139425D01*
X0017893Y0139287D01*
X0017971Y0139146D01*
X0018045Y0139004D01*
X0018116Y0138860D01*
X0018184Y0138714D01*
X0018247Y0138566D01*
X0018308Y0138417D01*
X0018364Y0138266D01*
X0018417Y0138114D01*
X0018466Y0137961D01*
X0018511Y0137807D01*
X0018552Y0137652D01*
X0018590Y0137495D01*
X0018623Y0137338D01*
X0018653Y0137180D01*
X0018679Y0137021D01*
X0018700Y0136862D01*
X0018718Y0136702D01*
X0018732Y0136542D01*
X0018742Y0136381D01*
X0018748Y0136221D01*
X0018750Y0136060D01*
X0018748Y0135899D01*
X0018742Y0135739D01*
X0018732Y0135578D01*
X0018718Y0135418D01*
X0018700Y0135258D01*
X0018679Y0135099D01*
X0018653Y0134940D01*
X0018623Y0134782D01*
X0018590Y0134625D01*
X0018552Y0134468D01*
X0018511Y0134313D01*
X0018466Y0134159D01*
X0018417Y0134006D01*
X0018364Y0133854D01*
X0018308Y0133703D01*
X0018247Y0133554D01*
X0018184Y0133406D01*
X0018116Y0133260D01*
X0018045Y0133116D01*
X0017971Y0132974D01*
X0017893Y0132833D01*
X0017811Y0132695D01*
X0017726Y0132558D01*
X0017638Y0132424D01*
X0017546Y0132292D01*
X0017451Y0132162D01*
X0017353Y0132034D01*
X0017252Y0131909D01*
X0017148Y0131787D01*
X0017041Y0131667D01*
X0016931Y0131550D01*
X0016818Y0131435D01*
X0016702Y0131324D01*
X0016583Y0131215D01*
X0016462Y0131110D01*
X0016338Y0131007D01*
X0016212Y0130907D01*
X0016084Y0130811D01*
X0015953Y0130718D01*
X0015819Y0130628D01*
X0015684Y0130541D01*
X0015546Y0130458D01*
X0015407Y0130378D01*
X0015265Y0130302D01*
X0015122Y0130229D01*
X0014977Y0130160D01*
X0014830Y0130094D01*
X0014682Y0130032D01*
X0014532Y0129974D01*
X0014381Y0129919D01*
X0014228Y0129868D01*
X0014074Y0129821D01*
X0013919Y0129778D01*
X0013763Y0129739D01*
X0013607Y0129703D01*
X0013449Y0129672D01*
X0013291Y0129644D01*
X0013132Y0129620D01*
X0012972Y0129600D01*
X0012812Y0129584D01*
X0012652Y0129572D01*
X0012491Y0129564D01*
X0012330Y0129560D01*
X0012170Y0129560D01*
X0012009Y0129564D01*
X0011848Y0129572D01*
X0011688Y0129584D01*
X0011528Y0129600D01*
X0011368Y0129620D01*
X0011209Y0129644D01*
X0011051Y0129672D01*
X0010893Y0129703D01*
X0010737Y0129739D01*
X0010581Y0129778D01*
X0010426Y0129821D01*
X0010272Y0129868D01*
X0010119Y0129919D01*
X0009968Y0129974D01*
X0009818Y0130032D01*
X0009670Y0130094D01*
X0009523Y0130160D01*
X0009378Y0130229D01*
X0009235Y0130302D01*
X0009093Y0130378D01*
X0008954Y0130458D01*
X0008816Y0130541D01*
X0008681Y0130628D01*
X0008547Y0130718D01*
X0008416Y0130811D01*
X0008288Y0130907D01*
X0008162Y0131007D01*
X0008038Y0131110D01*
X0007917Y0131215D01*
X0007798Y0131324D01*
X0007682Y0131435D01*
X0007569Y0131550D01*
X0007459Y0131667D01*
X0007352Y0131787D01*
X0007248Y0131909D01*
X0007147Y0132034D01*
X0007049Y0132162D01*
X0006954Y0132292D01*
X0006862Y0132424D01*
X0006774Y0132558D01*
X0006689Y0132695D01*
X0006607Y0132833D01*
X0006529Y0132974D01*
X0006455Y0133116D01*
X0006384Y0133260D01*
X0006316Y0133406D01*
X0006253Y0133554D01*
X0006192Y0133703D01*
X0006136Y0133854D01*
X0006083Y0134006D01*
X0006034Y0134159D01*
X0005989Y0134313D01*
X0005948Y0134468D01*
X0005910Y0134625D01*
X0005877Y0134782D01*
X0005847Y0134940D01*
X0005821Y0135099D01*
X0005800Y0135258D01*
X0005782Y0135418D01*
X0005768Y0135578D01*
X0005758Y0135739D01*
X0005752Y0135899D01*
X0005750Y0136060D01*
X0005750Y0065060D02*
X0005752Y0065221D01*
X0005758Y0065381D01*
X0005768Y0065542D01*
X0005782Y0065702D01*
X0005800Y0065862D01*
X0005821Y0066021D01*
X0005847Y0066180D01*
X0005877Y0066338D01*
X0005910Y0066495D01*
X0005948Y0066652D01*
X0005989Y0066807D01*
X0006034Y0066961D01*
X0006083Y0067114D01*
X0006136Y0067266D01*
X0006192Y0067417D01*
X0006253Y0067566D01*
X0006316Y0067714D01*
X0006384Y0067860D01*
X0006455Y0068004D01*
X0006529Y0068146D01*
X0006607Y0068287D01*
X0006689Y0068425D01*
X0006774Y0068562D01*
X0006862Y0068696D01*
X0006954Y0068828D01*
X0007049Y0068958D01*
X0007147Y0069086D01*
X0007248Y0069211D01*
X0007352Y0069333D01*
X0007459Y0069453D01*
X0007569Y0069570D01*
X0007682Y0069685D01*
X0007798Y0069796D01*
X0007917Y0069905D01*
X0008038Y0070010D01*
X0008162Y0070113D01*
X0008288Y0070213D01*
X0008416Y0070309D01*
X0008547Y0070402D01*
X0008681Y0070492D01*
X0008816Y0070579D01*
X0008954Y0070662D01*
X0009093Y0070742D01*
X0009235Y0070818D01*
X0009378Y0070891D01*
X0009523Y0070960D01*
X0009670Y0071026D01*
X0009818Y0071088D01*
X0009968Y0071146D01*
X0010119Y0071201D01*
X0010272Y0071252D01*
X0010426Y0071299D01*
X0010581Y0071342D01*
X0010737Y0071381D01*
X0010893Y0071417D01*
X0011051Y0071448D01*
X0011209Y0071476D01*
X0011368Y0071500D01*
X0011528Y0071520D01*
X0011688Y0071536D01*
X0011848Y0071548D01*
X0012009Y0071556D01*
X0012170Y0071560D01*
X0012330Y0071560D01*
X0012491Y0071556D01*
X0012652Y0071548D01*
X0012812Y0071536D01*
X0012972Y0071520D01*
X0013132Y0071500D01*
X0013291Y0071476D01*
X0013449Y0071448D01*
X0013607Y0071417D01*
X0013763Y0071381D01*
X0013919Y0071342D01*
X0014074Y0071299D01*
X0014228Y0071252D01*
X0014381Y0071201D01*
X0014532Y0071146D01*
X0014682Y0071088D01*
X0014830Y0071026D01*
X0014977Y0070960D01*
X0015122Y0070891D01*
X0015265Y0070818D01*
X0015407Y0070742D01*
X0015546Y0070662D01*
X0015684Y0070579D01*
X0015819Y0070492D01*
X0015953Y0070402D01*
X0016084Y0070309D01*
X0016212Y0070213D01*
X0016338Y0070113D01*
X0016462Y0070010D01*
X0016583Y0069905D01*
X0016702Y0069796D01*
X0016818Y0069685D01*
X0016931Y0069570D01*
X0017041Y0069453D01*
X0017148Y0069333D01*
X0017252Y0069211D01*
X0017353Y0069086D01*
X0017451Y0068958D01*
X0017546Y0068828D01*
X0017638Y0068696D01*
X0017726Y0068562D01*
X0017811Y0068425D01*
X0017893Y0068287D01*
X0017971Y0068146D01*
X0018045Y0068004D01*
X0018116Y0067860D01*
X0018184Y0067714D01*
X0018247Y0067566D01*
X0018308Y0067417D01*
X0018364Y0067266D01*
X0018417Y0067114D01*
X0018466Y0066961D01*
X0018511Y0066807D01*
X0018552Y0066652D01*
X0018590Y0066495D01*
X0018623Y0066338D01*
X0018653Y0066180D01*
X0018679Y0066021D01*
X0018700Y0065862D01*
X0018718Y0065702D01*
X0018732Y0065542D01*
X0018742Y0065381D01*
X0018748Y0065221D01*
X0018750Y0065060D01*
X0018748Y0064899D01*
X0018742Y0064739D01*
X0018732Y0064578D01*
X0018718Y0064418D01*
X0018700Y0064258D01*
X0018679Y0064099D01*
X0018653Y0063940D01*
X0018623Y0063782D01*
X0018590Y0063625D01*
X0018552Y0063468D01*
X0018511Y0063313D01*
X0018466Y0063159D01*
X0018417Y0063006D01*
X0018364Y0062854D01*
X0018308Y0062703D01*
X0018247Y0062554D01*
X0018184Y0062406D01*
X0018116Y0062260D01*
X0018045Y0062116D01*
X0017971Y0061974D01*
X0017893Y0061833D01*
X0017811Y0061695D01*
X0017726Y0061558D01*
X0017638Y0061424D01*
X0017546Y0061292D01*
X0017451Y0061162D01*
X0017353Y0061034D01*
X0017252Y0060909D01*
X0017148Y0060787D01*
X0017041Y0060667D01*
X0016931Y0060550D01*
X0016818Y0060435D01*
X0016702Y0060324D01*
X0016583Y0060215D01*
X0016462Y0060110D01*
X0016338Y0060007D01*
X0016212Y0059907D01*
X0016084Y0059811D01*
X0015953Y0059718D01*
X0015819Y0059628D01*
X0015684Y0059541D01*
X0015546Y0059458D01*
X0015407Y0059378D01*
X0015265Y0059302D01*
X0015122Y0059229D01*
X0014977Y0059160D01*
X0014830Y0059094D01*
X0014682Y0059032D01*
X0014532Y0058974D01*
X0014381Y0058919D01*
X0014228Y0058868D01*
X0014074Y0058821D01*
X0013919Y0058778D01*
X0013763Y0058739D01*
X0013607Y0058703D01*
X0013449Y0058672D01*
X0013291Y0058644D01*
X0013132Y0058620D01*
X0012972Y0058600D01*
X0012812Y0058584D01*
X0012652Y0058572D01*
X0012491Y0058564D01*
X0012330Y0058560D01*
X0012170Y0058560D01*
X0012009Y0058564D01*
X0011848Y0058572D01*
X0011688Y0058584D01*
X0011528Y0058600D01*
X0011368Y0058620D01*
X0011209Y0058644D01*
X0011051Y0058672D01*
X0010893Y0058703D01*
X0010737Y0058739D01*
X0010581Y0058778D01*
X0010426Y0058821D01*
X0010272Y0058868D01*
X0010119Y0058919D01*
X0009968Y0058974D01*
X0009818Y0059032D01*
X0009670Y0059094D01*
X0009523Y0059160D01*
X0009378Y0059229D01*
X0009235Y0059302D01*
X0009093Y0059378D01*
X0008954Y0059458D01*
X0008816Y0059541D01*
X0008681Y0059628D01*
X0008547Y0059718D01*
X0008416Y0059811D01*
X0008288Y0059907D01*
X0008162Y0060007D01*
X0008038Y0060110D01*
X0007917Y0060215D01*
X0007798Y0060324D01*
X0007682Y0060435D01*
X0007569Y0060550D01*
X0007459Y0060667D01*
X0007352Y0060787D01*
X0007248Y0060909D01*
X0007147Y0061034D01*
X0007049Y0061162D01*
X0006954Y0061292D01*
X0006862Y0061424D01*
X0006774Y0061558D01*
X0006689Y0061695D01*
X0006607Y0061833D01*
X0006529Y0061974D01*
X0006455Y0062116D01*
X0006384Y0062260D01*
X0006316Y0062406D01*
X0006253Y0062554D01*
X0006192Y0062703D01*
X0006136Y0062854D01*
X0006083Y0063006D01*
X0006034Y0063159D01*
X0005989Y0063313D01*
X0005948Y0063468D01*
X0005910Y0063625D01*
X0005877Y0063782D01*
X0005847Y0063940D01*
X0005821Y0064099D01*
X0005800Y0064258D01*
X0005782Y0064418D01*
X0005768Y0064578D01*
X0005758Y0064739D01*
X0005752Y0064899D01*
X0005750Y0065060D01*
X0055750Y0065060D02*
X0055752Y0065221D01*
X0055758Y0065381D01*
X0055768Y0065542D01*
X0055782Y0065702D01*
X0055800Y0065862D01*
X0055821Y0066021D01*
X0055847Y0066180D01*
X0055877Y0066338D01*
X0055910Y0066495D01*
X0055948Y0066652D01*
X0055989Y0066807D01*
X0056034Y0066961D01*
X0056083Y0067114D01*
X0056136Y0067266D01*
X0056192Y0067417D01*
X0056253Y0067566D01*
X0056316Y0067714D01*
X0056384Y0067860D01*
X0056455Y0068004D01*
X0056529Y0068146D01*
X0056607Y0068287D01*
X0056689Y0068425D01*
X0056774Y0068562D01*
X0056862Y0068696D01*
X0056954Y0068828D01*
X0057049Y0068958D01*
X0057147Y0069086D01*
X0057248Y0069211D01*
X0057352Y0069333D01*
X0057459Y0069453D01*
X0057569Y0069570D01*
X0057682Y0069685D01*
X0057798Y0069796D01*
X0057917Y0069905D01*
X0058038Y0070010D01*
X0058162Y0070113D01*
X0058288Y0070213D01*
X0058416Y0070309D01*
X0058547Y0070402D01*
X0058681Y0070492D01*
X0058816Y0070579D01*
X0058954Y0070662D01*
X0059093Y0070742D01*
X0059235Y0070818D01*
X0059378Y0070891D01*
X0059523Y0070960D01*
X0059670Y0071026D01*
X0059818Y0071088D01*
X0059968Y0071146D01*
X0060119Y0071201D01*
X0060272Y0071252D01*
X0060426Y0071299D01*
X0060581Y0071342D01*
X0060737Y0071381D01*
X0060893Y0071417D01*
X0061051Y0071448D01*
X0061209Y0071476D01*
X0061368Y0071500D01*
X0061528Y0071520D01*
X0061688Y0071536D01*
X0061848Y0071548D01*
X0062009Y0071556D01*
X0062170Y0071560D01*
X0062330Y0071560D01*
X0062491Y0071556D01*
X0062652Y0071548D01*
X0062812Y0071536D01*
X0062972Y0071520D01*
X0063132Y0071500D01*
X0063291Y0071476D01*
X0063449Y0071448D01*
X0063607Y0071417D01*
X0063763Y0071381D01*
X0063919Y0071342D01*
X0064074Y0071299D01*
X0064228Y0071252D01*
X0064381Y0071201D01*
X0064532Y0071146D01*
X0064682Y0071088D01*
X0064830Y0071026D01*
X0064977Y0070960D01*
X0065122Y0070891D01*
X0065265Y0070818D01*
X0065407Y0070742D01*
X0065546Y0070662D01*
X0065684Y0070579D01*
X0065819Y0070492D01*
X0065953Y0070402D01*
X0066084Y0070309D01*
X0066212Y0070213D01*
X0066338Y0070113D01*
X0066462Y0070010D01*
X0066583Y0069905D01*
X0066702Y0069796D01*
X0066818Y0069685D01*
X0066931Y0069570D01*
X0067041Y0069453D01*
X0067148Y0069333D01*
X0067252Y0069211D01*
X0067353Y0069086D01*
X0067451Y0068958D01*
X0067546Y0068828D01*
X0067638Y0068696D01*
X0067726Y0068562D01*
X0067811Y0068425D01*
X0067893Y0068287D01*
X0067971Y0068146D01*
X0068045Y0068004D01*
X0068116Y0067860D01*
X0068184Y0067714D01*
X0068247Y0067566D01*
X0068308Y0067417D01*
X0068364Y0067266D01*
X0068417Y0067114D01*
X0068466Y0066961D01*
X0068511Y0066807D01*
X0068552Y0066652D01*
X0068590Y0066495D01*
X0068623Y0066338D01*
X0068653Y0066180D01*
X0068679Y0066021D01*
X0068700Y0065862D01*
X0068718Y0065702D01*
X0068732Y0065542D01*
X0068742Y0065381D01*
X0068748Y0065221D01*
X0068750Y0065060D01*
X0068748Y0064899D01*
X0068742Y0064739D01*
X0068732Y0064578D01*
X0068718Y0064418D01*
X0068700Y0064258D01*
X0068679Y0064099D01*
X0068653Y0063940D01*
X0068623Y0063782D01*
X0068590Y0063625D01*
X0068552Y0063468D01*
X0068511Y0063313D01*
X0068466Y0063159D01*
X0068417Y0063006D01*
X0068364Y0062854D01*
X0068308Y0062703D01*
X0068247Y0062554D01*
X0068184Y0062406D01*
X0068116Y0062260D01*
X0068045Y0062116D01*
X0067971Y0061974D01*
X0067893Y0061833D01*
X0067811Y0061695D01*
X0067726Y0061558D01*
X0067638Y0061424D01*
X0067546Y0061292D01*
X0067451Y0061162D01*
X0067353Y0061034D01*
X0067252Y0060909D01*
X0067148Y0060787D01*
X0067041Y0060667D01*
X0066931Y0060550D01*
X0066818Y0060435D01*
X0066702Y0060324D01*
X0066583Y0060215D01*
X0066462Y0060110D01*
X0066338Y0060007D01*
X0066212Y0059907D01*
X0066084Y0059811D01*
X0065953Y0059718D01*
X0065819Y0059628D01*
X0065684Y0059541D01*
X0065546Y0059458D01*
X0065407Y0059378D01*
X0065265Y0059302D01*
X0065122Y0059229D01*
X0064977Y0059160D01*
X0064830Y0059094D01*
X0064682Y0059032D01*
X0064532Y0058974D01*
X0064381Y0058919D01*
X0064228Y0058868D01*
X0064074Y0058821D01*
X0063919Y0058778D01*
X0063763Y0058739D01*
X0063607Y0058703D01*
X0063449Y0058672D01*
X0063291Y0058644D01*
X0063132Y0058620D01*
X0062972Y0058600D01*
X0062812Y0058584D01*
X0062652Y0058572D01*
X0062491Y0058564D01*
X0062330Y0058560D01*
X0062170Y0058560D01*
X0062009Y0058564D01*
X0061848Y0058572D01*
X0061688Y0058584D01*
X0061528Y0058600D01*
X0061368Y0058620D01*
X0061209Y0058644D01*
X0061051Y0058672D01*
X0060893Y0058703D01*
X0060737Y0058739D01*
X0060581Y0058778D01*
X0060426Y0058821D01*
X0060272Y0058868D01*
X0060119Y0058919D01*
X0059968Y0058974D01*
X0059818Y0059032D01*
X0059670Y0059094D01*
X0059523Y0059160D01*
X0059378Y0059229D01*
X0059235Y0059302D01*
X0059093Y0059378D01*
X0058954Y0059458D01*
X0058816Y0059541D01*
X0058681Y0059628D01*
X0058547Y0059718D01*
X0058416Y0059811D01*
X0058288Y0059907D01*
X0058162Y0060007D01*
X0058038Y0060110D01*
X0057917Y0060215D01*
X0057798Y0060324D01*
X0057682Y0060435D01*
X0057569Y0060550D01*
X0057459Y0060667D01*
X0057352Y0060787D01*
X0057248Y0060909D01*
X0057147Y0061034D01*
X0057049Y0061162D01*
X0056954Y0061292D01*
X0056862Y0061424D01*
X0056774Y0061558D01*
X0056689Y0061695D01*
X0056607Y0061833D01*
X0056529Y0061974D01*
X0056455Y0062116D01*
X0056384Y0062260D01*
X0056316Y0062406D01*
X0056253Y0062554D01*
X0056192Y0062703D01*
X0056136Y0062854D01*
X0056083Y0063006D01*
X0056034Y0063159D01*
X0055989Y0063313D01*
X0055948Y0063468D01*
X0055910Y0063625D01*
X0055877Y0063782D01*
X0055847Y0063940D01*
X0055821Y0064099D01*
X0055800Y0064258D01*
X0055782Y0064418D01*
X0055768Y0064578D01*
X0055758Y0064739D01*
X0055752Y0064899D01*
X0055750Y0065060D01*
X0076750Y0065060D02*
X0076752Y0065221D01*
X0076758Y0065381D01*
X0076768Y0065542D01*
X0076782Y0065702D01*
X0076800Y0065862D01*
X0076821Y0066021D01*
X0076847Y0066180D01*
X0076877Y0066338D01*
X0076910Y0066495D01*
X0076948Y0066652D01*
X0076989Y0066807D01*
X0077034Y0066961D01*
X0077083Y0067114D01*
X0077136Y0067266D01*
X0077192Y0067417D01*
X0077253Y0067566D01*
X0077316Y0067714D01*
X0077384Y0067860D01*
X0077455Y0068004D01*
X0077529Y0068146D01*
X0077607Y0068287D01*
X0077689Y0068425D01*
X0077774Y0068562D01*
X0077862Y0068696D01*
X0077954Y0068828D01*
X0078049Y0068958D01*
X0078147Y0069086D01*
X0078248Y0069211D01*
X0078352Y0069333D01*
X0078459Y0069453D01*
X0078569Y0069570D01*
X0078682Y0069685D01*
X0078798Y0069796D01*
X0078917Y0069905D01*
X0079038Y0070010D01*
X0079162Y0070113D01*
X0079288Y0070213D01*
X0079416Y0070309D01*
X0079547Y0070402D01*
X0079681Y0070492D01*
X0079816Y0070579D01*
X0079954Y0070662D01*
X0080093Y0070742D01*
X0080235Y0070818D01*
X0080378Y0070891D01*
X0080523Y0070960D01*
X0080670Y0071026D01*
X0080818Y0071088D01*
X0080968Y0071146D01*
X0081119Y0071201D01*
X0081272Y0071252D01*
X0081426Y0071299D01*
X0081581Y0071342D01*
X0081737Y0071381D01*
X0081893Y0071417D01*
X0082051Y0071448D01*
X0082209Y0071476D01*
X0082368Y0071500D01*
X0082528Y0071520D01*
X0082688Y0071536D01*
X0082848Y0071548D01*
X0083009Y0071556D01*
X0083170Y0071560D01*
X0083330Y0071560D01*
X0083491Y0071556D01*
X0083652Y0071548D01*
X0083812Y0071536D01*
X0083972Y0071520D01*
X0084132Y0071500D01*
X0084291Y0071476D01*
X0084449Y0071448D01*
X0084607Y0071417D01*
X0084763Y0071381D01*
X0084919Y0071342D01*
X0085074Y0071299D01*
X0085228Y0071252D01*
X0085381Y0071201D01*
X0085532Y0071146D01*
X0085682Y0071088D01*
X0085830Y0071026D01*
X0085977Y0070960D01*
X0086122Y0070891D01*
X0086265Y0070818D01*
X0086407Y0070742D01*
X0086546Y0070662D01*
X0086684Y0070579D01*
X0086819Y0070492D01*
X0086953Y0070402D01*
X0087084Y0070309D01*
X0087212Y0070213D01*
X0087338Y0070113D01*
X0087462Y0070010D01*
X0087583Y0069905D01*
X0087702Y0069796D01*
X0087818Y0069685D01*
X0087931Y0069570D01*
X0088041Y0069453D01*
X0088148Y0069333D01*
X0088252Y0069211D01*
X0088353Y0069086D01*
X0088451Y0068958D01*
X0088546Y0068828D01*
X0088638Y0068696D01*
X0088726Y0068562D01*
X0088811Y0068425D01*
X0088893Y0068287D01*
X0088971Y0068146D01*
X0089045Y0068004D01*
X0089116Y0067860D01*
X0089184Y0067714D01*
X0089247Y0067566D01*
X0089308Y0067417D01*
X0089364Y0067266D01*
X0089417Y0067114D01*
X0089466Y0066961D01*
X0089511Y0066807D01*
X0089552Y0066652D01*
X0089590Y0066495D01*
X0089623Y0066338D01*
X0089653Y0066180D01*
X0089679Y0066021D01*
X0089700Y0065862D01*
X0089718Y0065702D01*
X0089732Y0065542D01*
X0089742Y0065381D01*
X0089748Y0065221D01*
X0089750Y0065060D01*
X0089748Y0064899D01*
X0089742Y0064739D01*
X0089732Y0064578D01*
X0089718Y0064418D01*
X0089700Y0064258D01*
X0089679Y0064099D01*
X0089653Y0063940D01*
X0089623Y0063782D01*
X0089590Y0063625D01*
X0089552Y0063468D01*
X0089511Y0063313D01*
X0089466Y0063159D01*
X0089417Y0063006D01*
X0089364Y0062854D01*
X0089308Y0062703D01*
X0089247Y0062554D01*
X0089184Y0062406D01*
X0089116Y0062260D01*
X0089045Y0062116D01*
X0088971Y0061974D01*
X0088893Y0061833D01*
X0088811Y0061695D01*
X0088726Y0061558D01*
X0088638Y0061424D01*
X0088546Y0061292D01*
X0088451Y0061162D01*
X0088353Y0061034D01*
X0088252Y0060909D01*
X0088148Y0060787D01*
X0088041Y0060667D01*
X0087931Y0060550D01*
X0087818Y0060435D01*
X0087702Y0060324D01*
X0087583Y0060215D01*
X0087462Y0060110D01*
X0087338Y0060007D01*
X0087212Y0059907D01*
X0087084Y0059811D01*
X0086953Y0059718D01*
X0086819Y0059628D01*
X0086684Y0059541D01*
X0086546Y0059458D01*
X0086407Y0059378D01*
X0086265Y0059302D01*
X0086122Y0059229D01*
X0085977Y0059160D01*
X0085830Y0059094D01*
X0085682Y0059032D01*
X0085532Y0058974D01*
X0085381Y0058919D01*
X0085228Y0058868D01*
X0085074Y0058821D01*
X0084919Y0058778D01*
X0084763Y0058739D01*
X0084607Y0058703D01*
X0084449Y0058672D01*
X0084291Y0058644D01*
X0084132Y0058620D01*
X0083972Y0058600D01*
X0083812Y0058584D01*
X0083652Y0058572D01*
X0083491Y0058564D01*
X0083330Y0058560D01*
X0083170Y0058560D01*
X0083009Y0058564D01*
X0082848Y0058572D01*
X0082688Y0058584D01*
X0082528Y0058600D01*
X0082368Y0058620D01*
X0082209Y0058644D01*
X0082051Y0058672D01*
X0081893Y0058703D01*
X0081737Y0058739D01*
X0081581Y0058778D01*
X0081426Y0058821D01*
X0081272Y0058868D01*
X0081119Y0058919D01*
X0080968Y0058974D01*
X0080818Y0059032D01*
X0080670Y0059094D01*
X0080523Y0059160D01*
X0080378Y0059229D01*
X0080235Y0059302D01*
X0080093Y0059378D01*
X0079954Y0059458D01*
X0079816Y0059541D01*
X0079681Y0059628D01*
X0079547Y0059718D01*
X0079416Y0059811D01*
X0079288Y0059907D01*
X0079162Y0060007D01*
X0079038Y0060110D01*
X0078917Y0060215D01*
X0078798Y0060324D01*
X0078682Y0060435D01*
X0078569Y0060550D01*
X0078459Y0060667D01*
X0078352Y0060787D01*
X0078248Y0060909D01*
X0078147Y0061034D01*
X0078049Y0061162D01*
X0077954Y0061292D01*
X0077862Y0061424D01*
X0077774Y0061558D01*
X0077689Y0061695D01*
X0077607Y0061833D01*
X0077529Y0061974D01*
X0077455Y0062116D01*
X0077384Y0062260D01*
X0077316Y0062406D01*
X0077253Y0062554D01*
X0077192Y0062703D01*
X0077136Y0062854D01*
X0077083Y0063006D01*
X0077034Y0063159D01*
X0076989Y0063313D01*
X0076948Y0063468D01*
X0076910Y0063625D01*
X0076877Y0063782D01*
X0076847Y0063940D01*
X0076821Y0064099D01*
X0076800Y0064258D01*
X0076782Y0064418D01*
X0076768Y0064578D01*
X0076758Y0064739D01*
X0076752Y0064899D01*
X0076750Y0065060D01*
X0126750Y0065060D02*
X0126752Y0065221D01*
X0126758Y0065381D01*
X0126768Y0065542D01*
X0126782Y0065702D01*
X0126800Y0065862D01*
X0126821Y0066021D01*
X0126847Y0066180D01*
X0126877Y0066338D01*
X0126910Y0066495D01*
X0126948Y0066652D01*
X0126989Y0066807D01*
X0127034Y0066961D01*
X0127083Y0067114D01*
X0127136Y0067266D01*
X0127192Y0067417D01*
X0127253Y0067566D01*
X0127316Y0067714D01*
X0127384Y0067860D01*
X0127455Y0068004D01*
X0127529Y0068146D01*
X0127607Y0068287D01*
X0127689Y0068425D01*
X0127774Y0068562D01*
X0127862Y0068696D01*
X0127954Y0068828D01*
X0128049Y0068958D01*
X0128147Y0069086D01*
X0128248Y0069211D01*
X0128352Y0069333D01*
X0128459Y0069453D01*
X0128569Y0069570D01*
X0128682Y0069685D01*
X0128798Y0069796D01*
X0128917Y0069905D01*
X0129038Y0070010D01*
X0129162Y0070113D01*
X0129288Y0070213D01*
X0129416Y0070309D01*
X0129547Y0070402D01*
X0129681Y0070492D01*
X0129816Y0070579D01*
X0129954Y0070662D01*
X0130093Y0070742D01*
X0130235Y0070818D01*
X0130378Y0070891D01*
X0130523Y0070960D01*
X0130670Y0071026D01*
X0130818Y0071088D01*
X0130968Y0071146D01*
X0131119Y0071201D01*
X0131272Y0071252D01*
X0131426Y0071299D01*
X0131581Y0071342D01*
X0131737Y0071381D01*
X0131893Y0071417D01*
X0132051Y0071448D01*
X0132209Y0071476D01*
X0132368Y0071500D01*
X0132528Y0071520D01*
X0132688Y0071536D01*
X0132848Y0071548D01*
X0133009Y0071556D01*
X0133170Y0071560D01*
X0133330Y0071560D01*
X0133491Y0071556D01*
X0133652Y0071548D01*
X0133812Y0071536D01*
X0133972Y0071520D01*
X0134132Y0071500D01*
X0134291Y0071476D01*
X0134449Y0071448D01*
X0134607Y0071417D01*
X0134763Y0071381D01*
X0134919Y0071342D01*
X0135074Y0071299D01*
X0135228Y0071252D01*
X0135381Y0071201D01*
X0135532Y0071146D01*
X0135682Y0071088D01*
X0135830Y0071026D01*
X0135977Y0070960D01*
X0136122Y0070891D01*
X0136265Y0070818D01*
X0136407Y0070742D01*
X0136546Y0070662D01*
X0136684Y0070579D01*
X0136819Y0070492D01*
X0136953Y0070402D01*
X0137084Y0070309D01*
X0137212Y0070213D01*
X0137338Y0070113D01*
X0137462Y0070010D01*
X0137583Y0069905D01*
X0137702Y0069796D01*
X0137818Y0069685D01*
X0137931Y0069570D01*
X0138041Y0069453D01*
X0138148Y0069333D01*
X0138252Y0069211D01*
X0138353Y0069086D01*
X0138451Y0068958D01*
X0138546Y0068828D01*
X0138638Y0068696D01*
X0138726Y0068562D01*
X0138811Y0068425D01*
X0138893Y0068287D01*
X0138971Y0068146D01*
X0139045Y0068004D01*
X0139116Y0067860D01*
X0139184Y0067714D01*
X0139247Y0067566D01*
X0139308Y0067417D01*
X0139364Y0067266D01*
X0139417Y0067114D01*
X0139466Y0066961D01*
X0139511Y0066807D01*
X0139552Y0066652D01*
X0139590Y0066495D01*
X0139623Y0066338D01*
X0139653Y0066180D01*
X0139679Y0066021D01*
X0139700Y0065862D01*
X0139718Y0065702D01*
X0139732Y0065542D01*
X0139742Y0065381D01*
X0139748Y0065221D01*
X0139750Y0065060D01*
X0139748Y0064899D01*
X0139742Y0064739D01*
X0139732Y0064578D01*
X0139718Y0064418D01*
X0139700Y0064258D01*
X0139679Y0064099D01*
X0139653Y0063940D01*
X0139623Y0063782D01*
X0139590Y0063625D01*
X0139552Y0063468D01*
X0139511Y0063313D01*
X0139466Y0063159D01*
X0139417Y0063006D01*
X0139364Y0062854D01*
X0139308Y0062703D01*
X0139247Y0062554D01*
X0139184Y0062406D01*
X0139116Y0062260D01*
X0139045Y0062116D01*
X0138971Y0061974D01*
X0138893Y0061833D01*
X0138811Y0061695D01*
X0138726Y0061558D01*
X0138638Y0061424D01*
X0138546Y0061292D01*
X0138451Y0061162D01*
X0138353Y0061034D01*
X0138252Y0060909D01*
X0138148Y0060787D01*
X0138041Y0060667D01*
X0137931Y0060550D01*
X0137818Y0060435D01*
X0137702Y0060324D01*
X0137583Y0060215D01*
X0137462Y0060110D01*
X0137338Y0060007D01*
X0137212Y0059907D01*
X0137084Y0059811D01*
X0136953Y0059718D01*
X0136819Y0059628D01*
X0136684Y0059541D01*
X0136546Y0059458D01*
X0136407Y0059378D01*
X0136265Y0059302D01*
X0136122Y0059229D01*
X0135977Y0059160D01*
X0135830Y0059094D01*
X0135682Y0059032D01*
X0135532Y0058974D01*
X0135381Y0058919D01*
X0135228Y0058868D01*
X0135074Y0058821D01*
X0134919Y0058778D01*
X0134763Y0058739D01*
X0134607Y0058703D01*
X0134449Y0058672D01*
X0134291Y0058644D01*
X0134132Y0058620D01*
X0133972Y0058600D01*
X0133812Y0058584D01*
X0133652Y0058572D01*
X0133491Y0058564D01*
X0133330Y0058560D01*
X0133170Y0058560D01*
X0133009Y0058564D01*
X0132848Y0058572D01*
X0132688Y0058584D01*
X0132528Y0058600D01*
X0132368Y0058620D01*
X0132209Y0058644D01*
X0132051Y0058672D01*
X0131893Y0058703D01*
X0131737Y0058739D01*
X0131581Y0058778D01*
X0131426Y0058821D01*
X0131272Y0058868D01*
X0131119Y0058919D01*
X0130968Y0058974D01*
X0130818Y0059032D01*
X0130670Y0059094D01*
X0130523Y0059160D01*
X0130378Y0059229D01*
X0130235Y0059302D01*
X0130093Y0059378D01*
X0129954Y0059458D01*
X0129816Y0059541D01*
X0129681Y0059628D01*
X0129547Y0059718D01*
X0129416Y0059811D01*
X0129288Y0059907D01*
X0129162Y0060007D01*
X0129038Y0060110D01*
X0128917Y0060215D01*
X0128798Y0060324D01*
X0128682Y0060435D01*
X0128569Y0060550D01*
X0128459Y0060667D01*
X0128352Y0060787D01*
X0128248Y0060909D01*
X0128147Y0061034D01*
X0128049Y0061162D01*
X0127954Y0061292D01*
X0127862Y0061424D01*
X0127774Y0061558D01*
X0127689Y0061695D01*
X0127607Y0061833D01*
X0127529Y0061974D01*
X0127455Y0062116D01*
X0127384Y0062260D01*
X0127316Y0062406D01*
X0127253Y0062554D01*
X0127192Y0062703D01*
X0127136Y0062854D01*
X0127083Y0063006D01*
X0127034Y0063159D01*
X0126989Y0063313D01*
X0126948Y0063468D01*
X0126910Y0063625D01*
X0126877Y0063782D01*
X0126847Y0063940D01*
X0126821Y0064099D01*
X0126800Y0064258D01*
X0126782Y0064418D01*
X0126768Y0064578D01*
X0126758Y0064739D01*
X0126752Y0064899D01*
X0126750Y0065060D01*
X0147750Y0065060D02*
X0147752Y0065221D01*
X0147758Y0065381D01*
X0147768Y0065542D01*
X0147782Y0065702D01*
X0147800Y0065862D01*
X0147821Y0066021D01*
X0147847Y0066180D01*
X0147877Y0066338D01*
X0147910Y0066495D01*
X0147948Y0066652D01*
X0147989Y0066807D01*
X0148034Y0066961D01*
X0148083Y0067114D01*
X0148136Y0067266D01*
X0148192Y0067417D01*
X0148253Y0067566D01*
X0148316Y0067714D01*
X0148384Y0067860D01*
X0148455Y0068004D01*
X0148529Y0068146D01*
X0148607Y0068287D01*
X0148689Y0068425D01*
X0148774Y0068562D01*
X0148862Y0068696D01*
X0148954Y0068828D01*
X0149049Y0068958D01*
X0149147Y0069086D01*
X0149248Y0069211D01*
X0149352Y0069333D01*
X0149459Y0069453D01*
X0149569Y0069570D01*
X0149682Y0069685D01*
X0149798Y0069796D01*
X0149917Y0069905D01*
X0150038Y0070010D01*
X0150162Y0070113D01*
X0150288Y0070213D01*
X0150416Y0070309D01*
X0150547Y0070402D01*
X0150681Y0070492D01*
X0150816Y0070579D01*
X0150954Y0070662D01*
X0151093Y0070742D01*
X0151235Y0070818D01*
X0151378Y0070891D01*
X0151523Y0070960D01*
X0151670Y0071026D01*
X0151818Y0071088D01*
X0151968Y0071146D01*
X0152119Y0071201D01*
X0152272Y0071252D01*
X0152426Y0071299D01*
X0152581Y0071342D01*
X0152737Y0071381D01*
X0152893Y0071417D01*
X0153051Y0071448D01*
X0153209Y0071476D01*
X0153368Y0071500D01*
X0153528Y0071520D01*
X0153688Y0071536D01*
X0153848Y0071548D01*
X0154009Y0071556D01*
X0154170Y0071560D01*
X0154330Y0071560D01*
X0154491Y0071556D01*
X0154652Y0071548D01*
X0154812Y0071536D01*
X0154972Y0071520D01*
X0155132Y0071500D01*
X0155291Y0071476D01*
X0155449Y0071448D01*
X0155607Y0071417D01*
X0155763Y0071381D01*
X0155919Y0071342D01*
X0156074Y0071299D01*
X0156228Y0071252D01*
X0156381Y0071201D01*
X0156532Y0071146D01*
X0156682Y0071088D01*
X0156830Y0071026D01*
X0156977Y0070960D01*
X0157122Y0070891D01*
X0157265Y0070818D01*
X0157407Y0070742D01*
X0157546Y0070662D01*
X0157684Y0070579D01*
X0157819Y0070492D01*
X0157953Y0070402D01*
X0158084Y0070309D01*
X0158212Y0070213D01*
X0158338Y0070113D01*
X0158462Y0070010D01*
X0158583Y0069905D01*
X0158702Y0069796D01*
X0158818Y0069685D01*
X0158931Y0069570D01*
X0159041Y0069453D01*
X0159148Y0069333D01*
X0159252Y0069211D01*
X0159353Y0069086D01*
X0159451Y0068958D01*
X0159546Y0068828D01*
X0159638Y0068696D01*
X0159726Y0068562D01*
X0159811Y0068425D01*
X0159893Y0068287D01*
X0159971Y0068146D01*
X0160045Y0068004D01*
X0160116Y0067860D01*
X0160184Y0067714D01*
X0160247Y0067566D01*
X0160308Y0067417D01*
X0160364Y0067266D01*
X0160417Y0067114D01*
X0160466Y0066961D01*
X0160511Y0066807D01*
X0160552Y0066652D01*
X0160590Y0066495D01*
X0160623Y0066338D01*
X0160653Y0066180D01*
X0160679Y0066021D01*
X0160700Y0065862D01*
X0160718Y0065702D01*
X0160732Y0065542D01*
X0160742Y0065381D01*
X0160748Y0065221D01*
X0160750Y0065060D01*
X0160748Y0064899D01*
X0160742Y0064739D01*
X0160732Y0064578D01*
X0160718Y0064418D01*
X0160700Y0064258D01*
X0160679Y0064099D01*
X0160653Y0063940D01*
X0160623Y0063782D01*
X0160590Y0063625D01*
X0160552Y0063468D01*
X0160511Y0063313D01*
X0160466Y0063159D01*
X0160417Y0063006D01*
X0160364Y0062854D01*
X0160308Y0062703D01*
X0160247Y0062554D01*
X0160184Y0062406D01*
X0160116Y0062260D01*
X0160045Y0062116D01*
X0159971Y0061974D01*
X0159893Y0061833D01*
X0159811Y0061695D01*
X0159726Y0061558D01*
X0159638Y0061424D01*
X0159546Y0061292D01*
X0159451Y0061162D01*
X0159353Y0061034D01*
X0159252Y0060909D01*
X0159148Y0060787D01*
X0159041Y0060667D01*
X0158931Y0060550D01*
X0158818Y0060435D01*
X0158702Y0060324D01*
X0158583Y0060215D01*
X0158462Y0060110D01*
X0158338Y0060007D01*
X0158212Y0059907D01*
X0158084Y0059811D01*
X0157953Y0059718D01*
X0157819Y0059628D01*
X0157684Y0059541D01*
X0157546Y0059458D01*
X0157407Y0059378D01*
X0157265Y0059302D01*
X0157122Y0059229D01*
X0156977Y0059160D01*
X0156830Y0059094D01*
X0156682Y0059032D01*
X0156532Y0058974D01*
X0156381Y0058919D01*
X0156228Y0058868D01*
X0156074Y0058821D01*
X0155919Y0058778D01*
X0155763Y0058739D01*
X0155607Y0058703D01*
X0155449Y0058672D01*
X0155291Y0058644D01*
X0155132Y0058620D01*
X0154972Y0058600D01*
X0154812Y0058584D01*
X0154652Y0058572D01*
X0154491Y0058564D01*
X0154330Y0058560D01*
X0154170Y0058560D01*
X0154009Y0058564D01*
X0153848Y0058572D01*
X0153688Y0058584D01*
X0153528Y0058600D01*
X0153368Y0058620D01*
X0153209Y0058644D01*
X0153051Y0058672D01*
X0152893Y0058703D01*
X0152737Y0058739D01*
X0152581Y0058778D01*
X0152426Y0058821D01*
X0152272Y0058868D01*
X0152119Y0058919D01*
X0151968Y0058974D01*
X0151818Y0059032D01*
X0151670Y0059094D01*
X0151523Y0059160D01*
X0151378Y0059229D01*
X0151235Y0059302D01*
X0151093Y0059378D01*
X0150954Y0059458D01*
X0150816Y0059541D01*
X0150681Y0059628D01*
X0150547Y0059718D01*
X0150416Y0059811D01*
X0150288Y0059907D01*
X0150162Y0060007D01*
X0150038Y0060110D01*
X0149917Y0060215D01*
X0149798Y0060324D01*
X0149682Y0060435D01*
X0149569Y0060550D01*
X0149459Y0060667D01*
X0149352Y0060787D01*
X0149248Y0060909D01*
X0149147Y0061034D01*
X0149049Y0061162D01*
X0148954Y0061292D01*
X0148862Y0061424D01*
X0148774Y0061558D01*
X0148689Y0061695D01*
X0148607Y0061833D01*
X0148529Y0061974D01*
X0148455Y0062116D01*
X0148384Y0062260D01*
X0148316Y0062406D01*
X0148253Y0062554D01*
X0148192Y0062703D01*
X0148136Y0062854D01*
X0148083Y0063006D01*
X0148034Y0063159D01*
X0147989Y0063313D01*
X0147948Y0063468D01*
X0147910Y0063625D01*
X0147877Y0063782D01*
X0147847Y0063940D01*
X0147821Y0064099D01*
X0147800Y0064258D01*
X0147782Y0064418D01*
X0147768Y0064578D01*
X0147758Y0064739D01*
X0147752Y0064899D01*
X0147750Y0065060D01*
X0197750Y0065060D02*
X0197752Y0065221D01*
X0197758Y0065381D01*
X0197768Y0065542D01*
X0197782Y0065702D01*
X0197800Y0065862D01*
X0197821Y0066021D01*
X0197847Y0066180D01*
X0197877Y0066338D01*
X0197910Y0066495D01*
X0197948Y0066652D01*
X0197989Y0066807D01*
X0198034Y0066961D01*
X0198083Y0067114D01*
X0198136Y0067266D01*
X0198192Y0067417D01*
X0198253Y0067566D01*
X0198316Y0067714D01*
X0198384Y0067860D01*
X0198455Y0068004D01*
X0198529Y0068146D01*
X0198607Y0068287D01*
X0198689Y0068425D01*
X0198774Y0068562D01*
X0198862Y0068696D01*
X0198954Y0068828D01*
X0199049Y0068958D01*
X0199147Y0069086D01*
X0199248Y0069211D01*
X0199352Y0069333D01*
X0199459Y0069453D01*
X0199569Y0069570D01*
X0199682Y0069685D01*
X0199798Y0069796D01*
X0199917Y0069905D01*
X0200038Y0070010D01*
X0200162Y0070113D01*
X0200288Y0070213D01*
X0200416Y0070309D01*
X0200547Y0070402D01*
X0200681Y0070492D01*
X0200816Y0070579D01*
X0200954Y0070662D01*
X0201093Y0070742D01*
X0201235Y0070818D01*
X0201378Y0070891D01*
X0201523Y0070960D01*
X0201670Y0071026D01*
X0201818Y0071088D01*
X0201968Y0071146D01*
X0202119Y0071201D01*
X0202272Y0071252D01*
X0202426Y0071299D01*
X0202581Y0071342D01*
X0202737Y0071381D01*
X0202893Y0071417D01*
X0203051Y0071448D01*
X0203209Y0071476D01*
X0203368Y0071500D01*
X0203528Y0071520D01*
X0203688Y0071536D01*
X0203848Y0071548D01*
X0204009Y0071556D01*
X0204170Y0071560D01*
X0204330Y0071560D01*
X0204491Y0071556D01*
X0204652Y0071548D01*
X0204812Y0071536D01*
X0204972Y0071520D01*
X0205132Y0071500D01*
X0205291Y0071476D01*
X0205449Y0071448D01*
X0205607Y0071417D01*
X0205763Y0071381D01*
X0205919Y0071342D01*
X0206074Y0071299D01*
X0206228Y0071252D01*
X0206381Y0071201D01*
X0206532Y0071146D01*
X0206682Y0071088D01*
X0206830Y0071026D01*
X0206977Y0070960D01*
X0207122Y0070891D01*
X0207265Y0070818D01*
X0207407Y0070742D01*
X0207546Y0070662D01*
X0207684Y0070579D01*
X0207819Y0070492D01*
X0207953Y0070402D01*
X0208084Y0070309D01*
X0208212Y0070213D01*
X0208338Y0070113D01*
X0208462Y0070010D01*
X0208583Y0069905D01*
X0208702Y0069796D01*
X0208818Y0069685D01*
X0208931Y0069570D01*
X0209041Y0069453D01*
X0209148Y0069333D01*
X0209252Y0069211D01*
X0209353Y0069086D01*
X0209451Y0068958D01*
X0209546Y0068828D01*
X0209638Y0068696D01*
X0209726Y0068562D01*
X0209811Y0068425D01*
X0209893Y0068287D01*
X0209971Y0068146D01*
X0210045Y0068004D01*
X0210116Y0067860D01*
X0210184Y0067714D01*
X0210247Y0067566D01*
X0210308Y0067417D01*
X0210364Y0067266D01*
X0210417Y0067114D01*
X0210466Y0066961D01*
X0210511Y0066807D01*
X0210552Y0066652D01*
X0210590Y0066495D01*
X0210623Y0066338D01*
X0210653Y0066180D01*
X0210679Y0066021D01*
X0210700Y0065862D01*
X0210718Y0065702D01*
X0210732Y0065542D01*
X0210742Y0065381D01*
X0210748Y0065221D01*
X0210750Y0065060D01*
X0210748Y0064899D01*
X0210742Y0064739D01*
X0210732Y0064578D01*
X0210718Y0064418D01*
X0210700Y0064258D01*
X0210679Y0064099D01*
X0210653Y0063940D01*
X0210623Y0063782D01*
X0210590Y0063625D01*
X0210552Y0063468D01*
X0210511Y0063313D01*
X0210466Y0063159D01*
X0210417Y0063006D01*
X0210364Y0062854D01*
X0210308Y0062703D01*
X0210247Y0062554D01*
X0210184Y0062406D01*
X0210116Y0062260D01*
X0210045Y0062116D01*
X0209971Y0061974D01*
X0209893Y0061833D01*
X0209811Y0061695D01*
X0209726Y0061558D01*
X0209638Y0061424D01*
X0209546Y0061292D01*
X0209451Y0061162D01*
X0209353Y0061034D01*
X0209252Y0060909D01*
X0209148Y0060787D01*
X0209041Y0060667D01*
X0208931Y0060550D01*
X0208818Y0060435D01*
X0208702Y0060324D01*
X0208583Y0060215D01*
X0208462Y0060110D01*
X0208338Y0060007D01*
X0208212Y0059907D01*
X0208084Y0059811D01*
X0207953Y0059718D01*
X0207819Y0059628D01*
X0207684Y0059541D01*
X0207546Y0059458D01*
X0207407Y0059378D01*
X0207265Y0059302D01*
X0207122Y0059229D01*
X0206977Y0059160D01*
X0206830Y0059094D01*
X0206682Y0059032D01*
X0206532Y0058974D01*
X0206381Y0058919D01*
X0206228Y0058868D01*
X0206074Y0058821D01*
X0205919Y0058778D01*
X0205763Y0058739D01*
X0205607Y0058703D01*
X0205449Y0058672D01*
X0205291Y0058644D01*
X0205132Y0058620D01*
X0204972Y0058600D01*
X0204812Y0058584D01*
X0204652Y0058572D01*
X0204491Y0058564D01*
X0204330Y0058560D01*
X0204170Y0058560D01*
X0204009Y0058564D01*
X0203848Y0058572D01*
X0203688Y0058584D01*
X0203528Y0058600D01*
X0203368Y0058620D01*
X0203209Y0058644D01*
X0203051Y0058672D01*
X0202893Y0058703D01*
X0202737Y0058739D01*
X0202581Y0058778D01*
X0202426Y0058821D01*
X0202272Y0058868D01*
X0202119Y0058919D01*
X0201968Y0058974D01*
X0201818Y0059032D01*
X0201670Y0059094D01*
X0201523Y0059160D01*
X0201378Y0059229D01*
X0201235Y0059302D01*
X0201093Y0059378D01*
X0200954Y0059458D01*
X0200816Y0059541D01*
X0200681Y0059628D01*
X0200547Y0059718D01*
X0200416Y0059811D01*
X0200288Y0059907D01*
X0200162Y0060007D01*
X0200038Y0060110D01*
X0199917Y0060215D01*
X0199798Y0060324D01*
X0199682Y0060435D01*
X0199569Y0060550D01*
X0199459Y0060667D01*
X0199352Y0060787D01*
X0199248Y0060909D01*
X0199147Y0061034D01*
X0199049Y0061162D01*
X0198954Y0061292D01*
X0198862Y0061424D01*
X0198774Y0061558D01*
X0198689Y0061695D01*
X0198607Y0061833D01*
X0198529Y0061974D01*
X0198455Y0062116D01*
X0198384Y0062260D01*
X0198316Y0062406D01*
X0198253Y0062554D01*
X0198192Y0062703D01*
X0198136Y0062854D01*
X0198083Y0063006D01*
X0198034Y0063159D01*
X0197989Y0063313D01*
X0197948Y0063468D01*
X0197910Y0063625D01*
X0197877Y0063782D01*
X0197847Y0063940D01*
X0197821Y0064099D01*
X0197800Y0064258D01*
X0197782Y0064418D01*
X0197768Y0064578D01*
X0197758Y0064739D01*
X0197752Y0064899D01*
X0197750Y0065060D01*
X0197750Y0136060D02*
X0197752Y0136221D01*
X0197758Y0136381D01*
X0197768Y0136542D01*
X0197782Y0136702D01*
X0197800Y0136862D01*
X0197821Y0137021D01*
X0197847Y0137180D01*
X0197877Y0137338D01*
X0197910Y0137495D01*
X0197948Y0137652D01*
X0197989Y0137807D01*
X0198034Y0137961D01*
X0198083Y0138114D01*
X0198136Y0138266D01*
X0198192Y0138417D01*
X0198253Y0138566D01*
X0198316Y0138714D01*
X0198384Y0138860D01*
X0198455Y0139004D01*
X0198529Y0139146D01*
X0198607Y0139287D01*
X0198689Y0139425D01*
X0198774Y0139562D01*
X0198862Y0139696D01*
X0198954Y0139828D01*
X0199049Y0139958D01*
X0199147Y0140086D01*
X0199248Y0140211D01*
X0199352Y0140333D01*
X0199459Y0140453D01*
X0199569Y0140570D01*
X0199682Y0140685D01*
X0199798Y0140796D01*
X0199917Y0140905D01*
X0200038Y0141010D01*
X0200162Y0141113D01*
X0200288Y0141213D01*
X0200416Y0141309D01*
X0200547Y0141402D01*
X0200681Y0141492D01*
X0200816Y0141579D01*
X0200954Y0141662D01*
X0201093Y0141742D01*
X0201235Y0141818D01*
X0201378Y0141891D01*
X0201523Y0141960D01*
X0201670Y0142026D01*
X0201818Y0142088D01*
X0201968Y0142146D01*
X0202119Y0142201D01*
X0202272Y0142252D01*
X0202426Y0142299D01*
X0202581Y0142342D01*
X0202737Y0142381D01*
X0202893Y0142417D01*
X0203051Y0142448D01*
X0203209Y0142476D01*
X0203368Y0142500D01*
X0203528Y0142520D01*
X0203688Y0142536D01*
X0203848Y0142548D01*
X0204009Y0142556D01*
X0204170Y0142560D01*
X0204330Y0142560D01*
X0204491Y0142556D01*
X0204652Y0142548D01*
X0204812Y0142536D01*
X0204972Y0142520D01*
X0205132Y0142500D01*
X0205291Y0142476D01*
X0205449Y0142448D01*
X0205607Y0142417D01*
X0205763Y0142381D01*
X0205919Y0142342D01*
X0206074Y0142299D01*
X0206228Y0142252D01*
X0206381Y0142201D01*
X0206532Y0142146D01*
X0206682Y0142088D01*
X0206830Y0142026D01*
X0206977Y0141960D01*
X0207122Y0141891D01*
X0207265Y0141818D01*
X0207407Y0141742D01*
X0207546Y0141662D01*
X0207684Y0141579D01*
X0207819Y0141492D01*
X0207953Y0141402D01*
X0208084Y0141309D01*
X0208212Y0141213D01*
X0208338Y0141113D01*
X0208462Y0141010D01*
X0208583Y0140905D01*
X0208702Y0140796D01*
X0208818Y0140685D01*
X0208931Y0140570D01*
X0209041Y0140453D01*
X0209148Y0140333D01*
X0209252Y0140211D01*
X0209353Y0140086D01*
X0209451Y0139958D01*
X0209546Y0139828D01*
X0209638Y0139696D01*
X0209726Y0139562D01*
X0209811Y0139425D01*
X0209893Y0139287D01*
X0209971Y0139146D01*
X0210045Y0139004D01*
X0210116Y0138860D01*
X0210184Y0138714D01*
X0210247Y0138566D01*
X0210308Y0138417D01*
X0210364Y0138266D01*
X0210417Y0138114D01*
X0210466Y0137961D01*
X0210511Y0137807D01*
X0210552Y0137652D01*
X0210590Y0137495D01*
X0210623Y0137338D01*
X0210653Y0137180D01*
X0210679Y0137021D01*
X0210700Y0136862D01*
X0210718Y0136702D01*
X0210732Y0136542D01*
X0210742Y0136381D01*
X0210748Y0136221D01*
X0210750Y0136060D01*
X0210748Y0135899D01*
X0210742Y0135739D01*
X0210732Y0135578D01*
X0210718Y0135418D01*
X0210700Y0135258D01*
X0210679Y0135099D01*
X0210653Y0134940D01*
X0210623Y0134782D01*
X0210590Y0134625D01*
X0210552Y0134468D01*
X0210511Y0134313D01*
X0210466Y0134159D01*
X0210417Y0134006D01*
X0210364Y0133854D01*
X0210308Y0133703D01*
X0210247Y0133554D01*
X0210184Y0133406D01*
X0210116Y0133260D01*
X0210045Y0133116D01*
X0209971Y0132974D01*
X0209893Y0132833D01*
X0209811Y0132695D01*
X0209726Y0132558D01*
X0209638Y0132424D01*
X0209546Y0132292D01*
X0209451Y0132162D01*
X0209353Y0132034D01*
X0209252Y0131909D01*
X0209148Y0131787D01*
X0209041Y0131667D01*
X0208931Y0131550D01*
X0208818Y0131435D01*
X0208702Y0131324D01*
X0208583Y0131215D01*
X0208462Y0131110D01*
X0208338Y0131007D01*
X0208212Y0130907D01*
X0208084Y0130811D01*
X0207953Y0130718D01*
X0207819Y0130628D01*
X0207684Y0130541D01*
X0207546Y0130458D01*
X0207407Y0130378D01*
X0207265Y0130302D01*
X0207122Y0130229D01*
X0206977Y0130160D01*
X0206830Y0130094D01*
X0206682Y0130032D01*
X0206532Y0129974D01*
X0206381Y0129919D01*
X0206228Y0129868D01*
X0206074Y0129821D01*
X0205919Y0129778D01*
X0205763Y0129739D01*
X0205607Y0129703D01*
X0205449Y0129672D01*
X0205291Y0129644D01*
X0205132Y0129620D01*
X0204972Y0129600D01*
X0204812Y0129584D01*
X0204652Y0129572D01*
X0204491Y0129564D01*
X0204330Y0129560D01*
X0204170Y0129560D01*
X0204009Y0129564D01*
X0203848Y0129572D01*
X0203688Y0129584D01*
X0203528Y0129600D01*
X0203368Y0129620D01*
X0203209Y0129644D01*
X0203051Y0129672D01*
X0202893Y0129703D01*
X0202737Y0129739D01*
X0202581Y0129778D01*
X0202426Y0129821D01*
X0202272Y0129868D01*
X0202119Y0129919D01*
X0201968Y0129974D01*
X0201818Y0130032D01*
X0201670Y0130094D01*
X0201523Y0130160D01*
X0201378Y0130229D01*
X0201235Y0130302D01*
X0201093Y0130378D01*
X0200954Y0130458D01*
X0200816Y0130541D01*
X0200681Y0130628D01*
X0200547Y0130718D01*
X0200416Y0130811D01*
X0200288Y0130907D01*
X0200162Y0131007D01*
X0200038Y0131110D01*
X0199917Y0131215D01*
X0199798Y0131324D01*
X0199682Y0131435D01*
X0199569Y0131550D01*
X0199459Y0131667D01*
X0199352Y0131787D01*
X0199248Y0131909D01*
X0199147Y0132034D01*
X0199049Y0132162D01*
X0198954Y0132292D01*
X0198862Y0132424D01*
X0198774Y0132558D01*
X0198689Y0132695D01*
X0198607Y0132833D01*
X0198529Y0132974D01*
X0198455Y0133116D01*
X0198384Y0133260D01*
X0198316Y0133406D01*
X0198253Y0133554D01*
X0198192Y0133703D01*
X0198136Y0133854D01*
X0198083Y0134006D01*
X0198034Y0134159D01*
X0197989Y0134313D01*
X0197948Y0134468D01*
X0197910Y0134625D01*
X0197877Y0134782D01*
X0197847Y0134940D01*
X0197821Y0135099D01*
X0197800Y0135258D01*
X0197782Y0135418D01*
X0197768Y0135578D01*
X0197758Y0135739D01*
X0197752Y0135899D01*
X0197750Y0136060D01*
X0197750Y0207060D02*
X0197752Y0207221D01*
X0197758Y0207381D01*
X0197768Y0207542D01*
X0197782Y0207702D01*
X0197800Y0207862D01*
X0197821Y0208021D01*
X0197847Y0208180D01*
X0197877Y0208338D01*
X0197910Y0208495D01*
X0197948Y0208652D01*
X0197989Y0208807D01*
X0198034Y0208961D01*
X0198083Y0209114D01*
X0198136Y0209266D01*
X0198192Y0209417D01*
X0198253Y0209566D01*
X0198316Y0209714D01*
X0198384Y0209860D01*
X0198455Y0210004D01*
X0198529Y0210146D01*
X0198607Y0210287D01*
X0198689Y0210425D01*
X0198774Y0210562D01*
X0198862Y0210696D01*
X0198954Y0210828D01*
X0199049Y0210958D01*
X0199147Y0211086D01*
X0199248Y0211211D01*
X0199352Y0211333D01*
X0199459Y0211453D01*
X0199569Y0211570D01*
X0199682Y0211685D01*
X0199798Y0211796D01*
X0199917Y0211905D01*
X0200038Y0212010D01*
X0200162Y0212113D01*
X0200288Y0212213D01*
X0200416Y0212309D01*
X0200547Y0212402D01*
X0200681Y0212492D01*
X0200816Y0212579D01*
X0200954Y0212662D01*
X0201093Y0212742D01*
X0201235Y0212818D01*
X0201378Y0212891D01*
X0201523Y0212960D01*
X0201670Y0213026D01*
X0201818Y0213088D01*
X0201968Y0213146D01*
X0202119Y0213201D01*
X0202272Y0213252D01*
X0202426Y0213299D01*
X0202581Y0213342D01*
X0202737Y0213381D01*
X0202893Y0213417D01*
X0203051Y0213448D01*
X0203209Y0213476D01*
X0203368Y0213500D01*
X0203528Y0213520D01*
X0203688Y0213536D01*
X0203848Y0213548D01*
X0204009Y0213556D01*
X0204170Y0213560D01*
X0204330Y0213560D01*
X0204491Y0213556D01*
X0204652Y0213548D01*
X0204812Y0213536D01*
X0204972Y0213520D01*
X0205132Y0213500D01*
X0205291Y0213476D01*
X0205449Y0213448D01*
X0205607Y0213417D01*
X0205763Y0213381D01*
X0205919Y0213342D01*
X0206074Y0213299D01*
X0206228Y0213252D01*
X0206381Y0213201D01*
X0206532Y0213146D01*
X0206682Y0213088D01*
X0206830Y0213026D01*
X0206977Y0212960D01*
X0207122Y0212891D01*
X0207265Y0212818D01*
X0207407Y0212742D01*
X0207546Y0212662D01*
X0207684Y0212579D01*
X0207819Y0212492D01*
X0207953Y0212402D01*
X0208084Y0212309D01*
X0208212Y0212213D01*
X0208338Y0212113D01*
X0208462Y0212010D01*
X0208583Y0211905D01*
X0208702Y0211796D01*
X0208818Y0211685D01*
X0208931Y0211570D01*
X0209041Y0211453D01*
X0209148Y0211333D01*
X0209252Y0211211D01*
X0209353Y0211086D01*
X0209451Y0210958D01*
X0209546Y0210828D01*
X0209638Y0210696D01*
X0209726Y0210562D01*
X0209811Y0210425D01*
X0209893Y0210287D01*
X0209971Y0210146D01*
X0210045Y0210004D01*
X0210116Y0209860D01*
X0210184Y0209714D01*
X0210247Y0209566D01*
X0210308Y0209417D01*
X0210364Y0209266D01*
X0210417Y0209114D01*
X0210466Y0208961D01*
X0210511Y0208807D01*
X0210552Y0208652D01*
X0210590Y0208495D01*
X0210623Y0208338D01*
X0210653Y0208180D01*
X0210679Y0208021D01*
X0210700Y0207862D01*
X0210718Y0207702D01*
X0210732Y0207542D01*
X0210742Y0207381D01*
X0210748Y0207221D01*
X0210750Y0207060D01*
X0210748Y0206899D01*
X0210742Y0206739D01*
X0210732Y0206578D01*
X0210718Y0206418D01*
X0210700Y0206258D01*
X0210679Y0206099D01*
X0210653Y0205940D01*
X0210623Y0205782D01*
X0210590Y0205625D01*
X0210552Y0205468D01*
X0210511Y0205313D01*
X0210466Y0205159D01*
X0210417Y0205006D01*
X0210364Y0204854D01*
X0210308Y0204703D01*
X0210247Y0204554D01*
X0210184Y0204406D01*
X0210116Y0204260D01*
X0210045Y0204116D01*
X0209971Y0203974D01*
X0209893Y0203833D01*
X0209811Y0203695D01*
X0209726Y0203558D01*
X0209638Y0203424D01*
X0209546Y0203292D01*
X0209451Y0203162D01*
X0209353Y0203034D01*
X0209252Y0202909D01*
X0209148Y0202787D01*
X0209041Y0202667D01*
X0208931Y0202550D01*
X0208818Y0202435D01*
X0208702Y0202324D01*
X0208583Y0202215D01*
X0208462Y0202110D01*
X0208338Y0202007D01*
X0208212Y0201907D01*
X0208084Y0201811D01*
X0207953Y0201718D01*
X0207819Y0201628D01*
X0207684Y0201541D01*
X0207546Y0201458D01*
X0207407Y0201378D01*
X0207265Y0201302D01*
X0207122Y0201229D01*
X0206977Y0201160D01*
X0206830Y0201094D01*
X0206682Y0201032D01*
X0206532Y0200974D01*
X0206381Y0200919D01*
X0206228Y0200868D01*
X0206074Y0200821D01*
X0205919Y0200778D01*
X0205763Y0200739D01*
X0205607Y0200703D01*
X0205449Y0200672D01*
X0205291Y0200644D01*
X0205132Y0200620D01*
X0204972Y0200600D01*
X0204812Y0200584D01*
X0204652Y0200572D01*
X0204491Y0200564D01*
X0204330Y0200560D01*
X0204170Y0200560D01*
X0204009Y0200564D01*
X0203848Y0200572D01*
X0203688Y0200584D01*
X0203528Y0200600D01*
X0203368Y0200620D01*
X0203209Y0200644D01*
X0203051Y0200672D01*
X0202893Y0200703D01*
X0202737Y0200739D01*
X0202581Y0200778D01*
X0202426Y0200821D01*
X0202272Y0200868D01*
X0202119Y0200919D01*
X0201968Y0200974D01*
X0201818Y0201032D01*
X0201670Y0201094D01*
X0201523Y0201160D01*
X0201378Y0201229D01*
X0201235Y0201302D01*
X0201093Y0201378D01*
X0200954Y0201458D01*
X0200816Y0201541D01*
X0200681Y0201628D01*
X0200547Y0201718D01*
X0200416Y0201811D01*
X0200288Y0201907D01*
X0200162Y0202007D01*
X0200038Y0202110D01*
X0199917Y0202215D01*
X0199798Y0202324D01*
X0199682Y0202435D01*
X0199569Y0202550D01*
X0199459Y0202667D01*
X0199352Y0202787D01*
X0199248Y0202909D01*
X0199147Y0203034D01*
X0199049Y0203162D01*
X0198954Y0203292D01*
X0198862Y0203424D01*
X0198774Y0203558D01*
X0198689Y0203695D01*
X0198607Y0203833D01*
X0198529Y0203974D01*
X0198455Y0204116D01*
X0198384Y0204260D01*
X0198316Y0204406D01*
X0198253Y0204554D01*
X0198192Y0204703D01*
X0198136Y0204854D01*
X0198083Y0205006D01*
X0198034Y0205159D01*
X0197989Y0205313D01*
X0197948Y0205468D01*
X0197910Y0205625D01*
X0197877Y0205782D01*
X0197847Y0205940D01*
X0197821Y0206099D01*
X0197800Y0206258D01*
X0197782Y0206418D01*
X0197768Y0206578D01*
X0197758Y0206739D01*
X0197752Y0206899D01*
X0197750Y0207060D01*
X0147750Y0207060D02*
X0147752Y0207221D01*
X0147758Y0207381D01*
X0147768Y0207542D01*
X0147782Y0207702D01*
X0147800Y0207862D01*
X0147821Y0208021D01*
X0147847Y0208180D01*
X0147877Y0208338D01*
X0147910Y0208495D01*
X0147948Y0208652D01*
X0147989Y0208807D01*
X0148034Y0208961D01*
X0148083Y0209114D01*
X0148136Y0209266D01*
X0148192Y0209417D01*
X0148253Y0209566D01*
X0148316Y0209714D01*
X0148384Y0209860D01*
X0148455Y0210004D01*
X0148529Y0210146D01*
X0148607Y0210287D01*
X0148689Y0210425D01*
X0148774Y0210562D01*
X0148862Y0210696D01*
X0148954Y0210828D01*
X0149049Y0210958D01*
X0149147Y0211086D01*
X0149248Y0211211D01*
X0149352Y0211333D01*
X0149459Y0211453D01*
X0149569Y0211570D01*
X0149682Y0211685D01*
X0149798Y0211796D01*
X0149917Y0211905D01*
X0150038Y0212010D01*
X0150162Y0212113D01*
X0150288Y0212213D01*
X0150416Y0212309D01*
X0150547Y0212402D01*
X0150681Y0212492D01*
X0150816Y0212579D01*
X0150954Y0212662D01*
X0151093Y0212742D01*
X0151235Y0212818D01*
X0151378Y0212891D01*
X0151523Y0212960D01*
X0151670Y0213026D01*
X0151818Y0213088D01*
X0151968Y0213146D01*
X0152119Y0213201D01*
X0152272Y0213252D01*
X0152426Y0213299D01*
X0152581Y0213342D01*
X0152737Y0213381D01*
X0152893Y0213417D01*
X0153051Y0213448D01*
X0153209Y0213476D01*
X0153368Y0213500D01*
X0153528Y0213520D01*
X0153688Y0213536D01*
X0153848Y0213548D01*
X0154009Y0213556D01*
X0154170Y0213560D01*
X0154330Y0213560D01*
X0154491Y0213556D01*
X0154652Y0213548D01*
X0154812Y0213536D01*
X0154972Y0213520D01*
X0155132Y0213500D01*
X0155291Y0213476D01*
X0155449Y0213448D01*
X0155607Y0213417D01*
X0155763Y0213381D01*
X0155919Y0213342D01*
X0156074Y0213299D01*
X0156228Y0213252D01*
X0156381Y0213201D01*
X0156532Y0213146D01*
X0156682Y0213088D01*
X0156830Y0213026D01*
X0156977Y0212960D01*
X0157122Y0212891D01*
X0157265Y0212818D01*
X0157407Y0212742D01*
X0157546Y0212662D01*
X0157684Y0212579D01*
X0157819Y0212492D01*
X0157953Y0212402D01*
X0158084Y0212309D01*
X0158212Y0212213D01*
X0158338Y0212113D01*
X0158462Y0212010D01*
X0158583Y0211905D01*
X0158702Y0211796D01*
X0158818Y0211685D01*
X0158931Y0211570D01*
X0159041Y0211453D01*
X0159148Y0211333D01*
X0159252Y0211211D01*
X0159353Y0211086D01*
X0159451Y0210958D01*
X0159546Y0210828D01*
X0159638Y0210696D01*
X0159726Y0210562D01*
X0159811Y0210425D01*
X0159893Y0210287D01*
X0159971Y0210146D01*
X0160045Y0210004D01*
X0160116Y0209860D01*
X0160184Y0209714D01*
X0160247Y0209566D01*
X0160308Y0209417D01*
X0160364Y0209266D01*
X0160417Y0209114D01*
X0160466Y0208961D01*
X0160511Y0208807D01*
X0160552Y0208652D01*
X0160590Y0208495D01*
X0160623Y0208338D01*
X0160653Y0208180D01*
X0160679Y0208021D01*
X0160700Y0207862D01*
X0160718Y0207702D01*
X0160732Y0207542D01*
X0160742Y0207381D01*
X0160748Y0207221D01*
X0160750Y0207060D01*
X0160748Y0206899D01*
X0160742Y0206739D01*
X0160732Y0206578D01*
X0160718Y0206418D01*
X0160700Y0206258D01*
X0160679Y0206099D01*
X0160653Y0205940D01*
X0160623Y0205782D01*
X0160590Y0205625D01*
X0160552Y0205468D01*
X0160511Y0205313D01*
X0160466Y0205159D01*
X0160417Y0205006D01*
X0160364Y0204854D01*
X0160308Y0204703D01*
X0160247Y0204554D01*
X0160184Y0204406D01*
X0160116Y0204260D01*
X0160045Y0204116D01*
X0159971Y0203974D01*
X0159893Y0203833D01*
X0159811Y0203695D01*
X0159726Y0203558D01*
X0159638Y0203424D01*
X0159546Y0203292D01*
X0159451Y0203162D01*
X0159353Y0203034D01*
X0159252Y0202909D01*
X0159148Y0202787D01*
X0159041Y0202667D01*
X0158931Y0202550D01*
X0158818Y0202435D01*
X0158702Y0202324D01*
X0158583Y0202215D01*
X0158462Y0202110D01*
X0158338Y0202007D01*
X0158212Y0201907D01*
X0158084Y0201811D01*
X0157953Y0201718D01*
X0157819Y0201628D01*
X0157684Y0201541D01*
X0157546Y0201458D01*
X0157407Y0201378D01*
X0157265Y0201302D01*
X0157122Y0201229D01*
X0156977Y0201160D01*
X0156830Y0201094D01*
X0156682Y0201032D01*
X0156532Y0200974D01*
X0156381Y0200919D01*
X0156228Y0200868D01*
X0156074Y0200821D01*
X0155919Y0200778D01*
X0155763Y0200739D01*
X0155607Y0200703D01*
X0155449Y0200672D01*
X0155291Y0200644D01*
X0155132Y0200620D01*
X0154972Y0200600D01*
X0154812Y0200584D01*
X0154652Y0200572D01*
X0154491Y0200564D01*
X0154330Y0200560D01*
X0154170Y0200560D01*
X0154009Y0200564D01*
X0153848Y0200572D01*
X0153688Y0200584D01*
X0153528Y0200600D01*
X0153368Y0200620D01*
X0153209Y0200644D01*
X0153051Y0200672D01*
X0152893Y0200703D01*
X0152737Y0200739D01*
X0152581Y0200778D01*
X0152426Y0200821D01*
X0152272Y0200868D01*
X0152119Y0200919D01*
X0151968Y0200974D01*
X0151818Y0201032D01*
X0151670Y0201094D01*
X0151523Y0201160D01*
X0151378Y0201229D01*
X0151235Y0201302D01*
X0151093Y0201378D01*
X0150954Y0201458D01*
X0150816Y0201541D01*
X0150681Y0201628D01*
X0150547Y0201718D01*
X0150416Y0201811D01*
X0150288Y0201907D01*
X0150162Y0202007D01*
X0150038Y0202110D01*
X0149917Y0202215D01*
X0149798Y0202324D01*
X0149682Y0202435D01*
X0149569Y0202550D01*
X0149459Y0202667D01*
X0149352Y0202787D01*
X0149248Y0202909D01*
X0149147Y0203034D01*
X0149049Y0203162D01*
X0148954Y0203292D01*
X0148862Y0203424D01*
X0148774Y0203558D01*
X0148689Y0203695D01*
X0148607Y0203833D01*
X0148529Y0203974D01*
X0148455Y0204116D01*
X0148384Y0204260D01*
X0148316Y0204406D01*
X0148253Y0204554D01*
X0148192Y0204703D01*
X0148136Y0204854D01*
X0148083Y0205006D01*
X0148034Y0205159D01*
X0147989Y0205313D01*
X0147948Y0205468D01*
X0147910Y0205625D01*
X0147877Y0205782D01*
X0147847Y0205940D01*
X0147821Y0206099D01*
X0147800Y0206258D01*
X0147782Y0206418D01*
X0147768Y0206578D01*
X0147758Y0206739D01*
X0147752Y0206899D01*
X0147750Y0207060D01*
X0126750Y0207060D02*
X0126752Y0207221D01*
X0126758Y0207381D01*
X0126768Y0207542D01*
X0126782Y0207702D01*
X0126800Y0207862D01*
X0126821Y0208021D01*
X0126847Y0208180D01*
X0126877Y0208338D01*
X0126910Y0208495D01*
X0126948Y0208652D01*
X0126989Y0208807D01*
X0127034Y0208961D01*
X0127083Y0209114D01*
X0127136Y0209266D01*
X0127192Y0209417D01*
X0127253Y0209566D01*
X0127316Y0209714D01*
X0127384Y0209860D01*
X0127455Y0210004D01*
X0127529Y0210146D01*
X0127607Y0210287D01*
X0127689Y0210425D01*
X0127774Y0210562D01*
X0127862Y0210696D01*
X0127954Y0210828D01*
X0128049Y0210958D01*
X0128147Y0211086D01*
X0128248Y0211211D01*
X0128352Y0211333D01*
X0128459Y0211453D01*
X0128569Y0211570D01*
X0128682Y0211685D01*
X0128798Y0211796D01*
X0128917Y0211905D01*
X0129038Y0212010D01*
X0129162Y0212113D01*
X0129288Y0212213D01*
X0129416Y0212309D01*
X0129547Y0212402D01*
X0129681Y0212492D01*
X0129816Y0212579D01*
X0129954Y0212662D01*
X0130093Y0212742D01*
X0130235Y0212818D01*
X0130378Y0212891D01*
X0130523Y0212960D01*
X0130670Y0213026D01*
X0130818Y0213088D01*
X0130968Y0213146D01*
X0131119Y0213201D01*
X0131272Y0213252D01*
X0131426Y0213299D01*
X0131581Y0213342D01*
X0131737Y0213381D01*
X0131893Y0213417D01*
X0132051Y0213448D01*
X0132209Y0213476D01*
X0132368Y0213500D01*
X0132528Y0213520D01*
X0132688Y0213536D01*
X0132848Y0213548D01*
X0133009Y0213556D01*
X0133170Y0213560D01*
X0133330Y0213560D01*
X0133491Y0213556D01*
X0133652Y0213548D01*
X0133812Y0213536D01*
X0133972Y0213520D01*
X0134132Y0213500D01*
X0134291Y0213476D01*
X0134449Y0213448D01*
X0134607Y0213417D01*
X0134763Y0213381D01*
X0134919Y0213342D01*
X0135074Y0213299D01*
X0135228Y0213252D01*
X0135381Y0213201D01*
X0135532Y0213146D01*
X0135682Y0213088D01*
X0135830Y0213026D01*
X0135977Y0212960D01*
X0136122Y0212891D01*
X0136265Y0212818D01*
X0136407Y0212742D01*
X0136546Y0212662D01*
X0136684Y0212579D01*
X0136819Y0212492D01*
X0136953Y0212402D01*
X0137084Y0212309D01*
X0137212Y0212213D01*
X0137338Y0212113D01*
X0137462Y0212010D01*
X0137583Y0211905D01*
X0137702Y0211796D01*
X0137818Y0211685D01*
X0137931Y0211570D01*
X0138041Y0211453D01*
X0138148Y0211333D01*
X0138252Y0211211D01*
X0138353Y0211086D01*
X0138451Y0210958D01*
X0138546Y0210828D01*
X0138638Y0210696D01*
X0138726Y0210562D01*
X0138811Y0210425D01*
X0138893Y0210287D01*
X0138971Y0210146D01*
X0139045Y0210004D01*
X0139116Y0209860D01*
X0139184Y0209714D01*
X0139247Y0209566D01*
X0139308Y0209417D01*
X0139364Y0209266D01*
X0139417Y0209114D01*
X0139466Y0208961D01*
X0139511Y0208807D01*
X0139552Y0208652D01*
X0139590Y0208495D01*
X0139623Y0208338D01*
X0139653Y0208180D01*
X0139679Y0208021D01*
X0139700Y0207862D01*
X0139718Y0207702D01*
X0139732Y0207542D01*
X0139742Y0207381D01*
X0139748Y0207221D01*
X0139750Y0207060D01*
X0139748Y0206899D01*
X0139742Y0206739D01*
X0139732Y0206578D01*
X0139718Y0206418D01*
X0139700Y0206258D01*
X0139679Y0206099D01*
X0139653Y0205940D01*
X0139623Y0205782D01*
X0139590Y0205625D01*
X0139552Y0205468D01*
X0139511Y0205313D01*
X0139466Y0205159D01*
X0139417Y0205006D01*
X0139364Y0204854D01*
X0139308Y0204703D01*
X0139247Y0204554D01*
X0139184Y0204406D01*
X0139116Y0204260D01*
X0139045Y0204116D01*
X0138971Y0203974D01*
X0138893Y0203833D01*
X0138811Y0203695D01*
X0138726Y0203558D01*
X0138638Y0203424D01*
X0138546Y0203292D01*
X0138451Y0203162D01*
X0138353Y0203034D01*
X0138252Y0202909D01*
X0138148Y0202787D01*
X0138041Y0202667D01*
X0137931Y0202550D01*
X0137818Y0202435D01*
X0137702Y0202324D01*
X0137583Y0202215D01*
X0137462Y0202110D01*
X0137338Y0202007D01*
X0137212Y0201907D01*
X0137084Y0201811D01*
X0136953Y0201718D01*
X0136819Y0201628D01*
X0136684Y0201541D01*
X0136546Y0201458D01*
X0136407Y0201378D01*
X0136265Y0201302D01*
X0136122Y0201229D01*
X0135977Y0201160D01*
X0135830Y0201094D01*
X0135682Y0201032D01*
X0135532Y0200974D01*
X0135381Y0200919D01*
X0135228Y0200868D01*
X0135074Y0200821D01*
X0134919Y0200778D01*
X0134763Y0200739D01*
X0134607Y0200703D01*
X0134449Y0200672D01*
X0134291Y0200644D01*
X0134132Y0200620D01*
X0133972Y0200600D01*
X0133812Y0200584D01*
X0133652Y0200572D01*
X0133491Y0200564D01*
X0133330Y0200560D01*
X0133170Y0200560D01*
X0133009Y0200564D01*
X0132848Y0200572D01*
X0132688Y0200584D01*
X0132528Y0200600D01*
X0132368Y0200620D01*
X0132209Y0200644D01*
X0132051Y0200672D01*
X0131893Y0200703D01*
X0131737Y0200739D01*
X0131581Y0200778D01*
X0131426Y0200821D01*
X0131272Y0200868D01*
X0131119Y0200919D01*
X0130968Y0200974D01*
X0130818Y0201032D01*
X0130670Y0201094D01*
X0130523Y0201160D01*
X0130378Y0201229D01*
X0130235Y0201302D01*
X0130093Y0201378D01*
X0129954Y0201458D01*
X0129816Y0201541D01*
X0129681Y0201628D01*
X0129547Y0201718D01*
X0129416Y0201811D01*
X0129288Y0201907D01*
X0129162Y0202007D01*
X0129038Y0202110D01*
X0128917Y0202215D01*
X0128798Y0202324D01*
X0128682Y0202435D01*
X0128569Y0202550D01*
X0128459Y0202667D01*
X0128352Y0202787D01*
X0128248Y0202909D01*
X0128147Y0203034D01*
X0128049Y0203162D01*
X0127954Y0203292D01*
X0127862Y0203424D01*
X0127774Y0203558D01*
X0127689Y0203695D01*
X0127607Y0203833D01*
X0127529Y0203974D01*
X0127455Y0204116D01*
X0127384Y0204260D01*
X0127316Y0204406D01*
X0127253Y0204554D01*
X0127192Y0204703D01*
X0127136Y0204854D01*
X0127083Y0205006D01*
X0127034Y0205159D01*
X0126989Y0205313D01*
X0126948Y0205468D01*
X0126910Y0205625D01*
X0126877Y0205782D01*
X0126847Y0205940D01*
X0126821Y0206099D01*
X0126800Y0206258D01*
X0126782Y0206418D01*
X0126768Y0206578D01*
X0126758Y0206739D01*
X0126752Y0206899D01*
X0126750Y0207060D01*
X0076750Y0207060D02*
X0076752Y0207221D01*
X0076758Y0207381D01*
X0076768Y0207542D01*
X0076782Y0207702D01*
X0076800Y0207862D01*
X0076821Y0208021D01*
X0076847Y0208180D01*
X0076877Y0208338D01*
X0076910Y0208495D01*
X0076948Y0208652D01*
X0076989Y0208807D01*
X0077034Y0208961D01*
X0077083Y0209114D01*
X0077136Y0209266D01*
X0077192Y0209417D01*
X0077253Y0209566D01*
X0077316Y0209714D01*
X0077384Y0209860D01*
X0077455Y0210004D01*
X0077529Y0210146D01*
X0077607Y0210287D01*
X0077689Y0210425D01*
X0077774Y0210562D01*
X0077862Y0210696D01*
X0077954Y0210828D01*
X0078049Y0210958D01*
X0078147Y0211086D01*
X0078248Y0211211D01*
X0078352Y0211333D01*
X0078459Y0211453D01*
X0078569Y0211570D01*
X0078682Y0211685D01*
X0078798Y0211796D01*
X0078917Y0211905D01*
X0079038Y0212010D01*
X0079162Y0212113D01*
X0079288Y0212213D01*
X0079416Y0212309D01*
X0079547Y0212402D01*
X0079681Y0212492D01*
X0079816Y0212579D01*
X0079954Y0212662D01*
X0080093Y0212742D01*
X0080235Y0212818D01*
X0080378Y0212891D01*
X0080523Y0212960D01*
X0080670Y0213026D01*
X0080818Y0213088D01*
X0080968Y0213146D01*
X0081119Y0213201D01*
X0081272Y0213252D01*
X0081426Y0213299D01*
X0081581Y0213342D01*
X0081737Y0213381D01*
X0081893Y0213417D01*
X0082051Y0213448D01*
X0082209Y0213476D01*
X0082368Y0213500D01*
X0082528Y0213520D01*
X0082688Y0213536D01*
X0082848Y0213548D01*
X0083009Y0213556D01*
X0083170Y0213560D01*
X0083330Y0213560D01*
X0083491Y0213556D01*
X0083652Y0213548D01*
X0083812Y0213536D01*
X0083972Y0213520D01*
X0084132Y0213500D01*
X0084291Y0213476D01*
X0084449Y0213448D01*
X0084607Y0213417D01*
X0084763Y0213381D01*
X0084919Y0213342D01*
X0085074Y0213299D01*
X0085228Y0213252D01*
X0085381Y0213201D01*
X0085532Y0213146D01*
X0085682Y0213088D01*
X0085830Y0213026D01*
X0085977Y0212960D01*
X0086122Y0212891D01*
X0086265Y0212818D01*
X0086407Y0212742D01*
X0086546Y0212662D01*
X0086684Y0212579D01*
X0086819Y0212492D01*
X0086953Y0212402D01*
X0087084Y0212309D01*
X0087212Y0212213D01*
X0087338Y0212113D01*
X0087462Y0212010D01*
X0087583Y0211905D01*
X0087702Y0211796D01*
X0087818Y0211685D01*
X0087931Y0211570D01*
X0088041Y0211453D01*
X0088148Y0211333D01*
X0088252Y0211211D01*
X0088353Y0211086D01*
X0088451Y0210958D01*
X0088546Y0210828D01*
X0088638Y0210696D01*
X0088726Y0210562D01*
X0088811Y0210425D01*
X0088893Y0210287D01*
X0088971Y0210146D01*
X0089045Y0210004D01*
X0089116Y0209860D01*
X0089184Y0209714D01*
X0089247Y0209566D01*
X0089308Y0209417D01*
X0089364Y0209266D01*
X0089417Y0209114D01*
X0089466Y0208961D01*
X0089511Y0208807D01*
X0089552Y0208652D01*
X0089590Y0208495D01*
X0089623Y0208338D01*
X0089653Y0208180D01*
X0089679Y0208021D01*
X0089700Y0207862D01*
X0089718Y0207702D01*
X0089732Y0207542D01*
X0089742Y0207381D01*
X0089748Y0207221D01*
X0089750Y0207060D01*
X0089748Y0206899D01*
X0089742Y0206739D01*
X0089732Y0206578D01*
X0089718Y0206418D01*
X0089700Y0206258D01*
X0089679Y0206099D01*
X0089653Y0205940D01*
X0089623Y0205782D01*
X0089590Y0205625D01*
X0089552Y0205468D01*
X0089511Y0205313D01*
X0089466Y0205159D01*
X0089417Y0205006D01*
X0089364Y0204854D01*
X0089308Y0204703D01*
X0089247Y0204554D01*
X0089184Y0204406D01*
X0089116Y0204260D01*
X0089045Y0204116D01*
X0088971Y0203974D01*
X0088893Y0203833D01*
X0088811Y0203695D01*
X0088726Y0203558D01*
X0088638Y0203424D01*
X0088546Y0203292D01*
X0088451Y0203162D01*
X0088353Y0203034D01*
X0088252Y0202909D01*
X0088148Y0202787D01*
X0088041Y0202667D01*
X0087931Y0202550D01*
X0087818Y0202435D01*
X0087702Y0202324D01*
X0087583Y0202215D01*
X0087462Y0202110D01*
X0087338Y0202007D01*
X0087212Y0201907D01*
X0087084Y0201811D01*
X0086953Y0201718D01*
X0086819Y0201628D01*
X0086684Y0201541D01*
X0086546Y0201458D01*
X0086407Y0201378D01*
X0086265Y0201302D01*
X0086122Y0201229D01*
X0085977Y0201160D01*
X0085830Y0201094D01*
X0085682Y0201032D01*
X0085532Y0200974D01*
X0085381Y0200919D01*
X0085228Y0200868D01*
X0085074Y0200821D01*
X0084919Y0200778D01*
X0084763Y0200739D01*
X0084607Y0200703D01*
X0084449Y0200672D01*
X0084291Y0200644D01*
X0084132Y0200620D01*
X0083972Y0200600D01*
X0083812Y0200584D01*
X0083652Y0200572D01*
X0083491Y0200564D01*
X0083330Y0200560D01*
X0083170Y0200560D01*
X0083009Y0200564D01*
X0082848Y0200572D01*
X0082688Y0200584D01*
X0082528Y0200600D01*
X0082368Y0200620D01*
X0082209Y0200644D01*
X0082051Y0200672D01*
X0081893Y0200703D01*
X0081737Y0200739D01*
X0081581Y0200778D01*
X0081426Y0200821D01*
X0081272Y0200868D01*
X0081119Y0200919D01*
X0080968Y0200974D01*
X0080818Y0201032D01*
X0080670Y0201094D01*
X0080523Y0201160D01*
X0080378Y0201229D01*
X0080235Y0201302D01*
X0080093Y0201378D01*
X0079954Y0201458D01*
X0079816Y0201541D01*
X0079681Y0201628D01*
X0079547Y0201718D01*
X0079416Y0201811D01*
X0079288Y0201907D01*
X0079162Y0202007D01*
X0079038Y0202110D01*
X0078917Y0202215D01*
X0078798Y0202324D01*
X0078682Y0202435D01*
X0078569Y0202550D01*
X0078459Y0202667D01*
X0078352Y0202787D01*
X0078248Y0202909D01*
X0078147Y0203034D01*
X0078049Y0203162D01*
X0077954Y0203292D01*
X0077862Y0203424D01*
X0077774Y0203558D01*
X0077689Y0203695D01*
X0077607Y0203833D01*
X0077529Y0203974D01*
X0077455Y0204116D01*
X0077384Y0204260D01*
X0077316Y0204406D01*
X0077253Y0204554D01*
X0077192Y0204703D01*
X0077136Y0204854D01*
X0077083Y0205006D01*
X0077034Y0205159D01*
X0076989Y0205313D01*
X0076948Y0205468D01*
X0076910Y0205625D01*
X0076877Y0205782D01*
X0076847Y0205940D01*
X0076821Y0206099D01*
X0076800Y0206258D01*
X0076782Y0206418D01*
X0076768Y0206578D01*
X0076758Y0206739D01*
X0076752Y0206899D01*
X0076750Y0207060D01*
X0055750Y0207060D02*
X0055752Y0207221D01*
X0055758Y0207381D01*
X0055768Y0207542D01*
X0055782Y0207702D01*
X0055800Y0207862D01*
X0055821Y0208021D01*
X0055847Y0208180D01*
X0055877Y0208338D01*
X0055910Y0208495D01*
X0055948Y0208652D01*
X0055989Y0208807D01*
X0056034Y0208961D01*
X0056083Y0209114D01*
X0056136Y0209266D01*
X0056192Y0209417D01*
X0056253Y0209566D01*
X0056316Y0209714D01*
X0056384Y0209860D01*
X0056455Y0210004D01*
X0056529Y0210146D01*
X0056607Y0210287D01*
X0056689Y0210425D01*
X0056774Y0210562D01*
X0056862Y0210696D01*
X0056954Y0210828D01*
X0057049Y0210958D01*
X0057147Y0211086D01*
X0057248Y0211211D01*
X0057352Y0211333D01*
X0057459Y0211453D01*
X0057569Y0211570D01*
X0057682Y0211685D01*
X0057798Y0211796D01*
X0057917Y0211905D01*
X0058038Y0212010D01*
X0058162Y0212113D01*
X0058288Y0212213D01*
X0058416Y0212309D01*
X0058547Y0212402D01*
X0058681Y0212492D01*
X0058816Y0212579D01*
X0058954Y0212662D01*
X0059093Y0212742D01*
X0059235Y0212818D01*
X0059378Y0212891D01*
X0059523Y0212960D01*
X0059670Y0213026D01*
X0059818Y0213088D01*
X0059968Y0213146D01*
X0060119Y0213201D01*
X0060272Y0213252D01*
X0060426Y0213299D01*
X0060581Y0213342D01*
X0060737Y0213381D01*
X0060893Y0213417D01*
X0061051Y0213448D01*
X0061209Y0213476D01*
X0061368Y0213500D01*
X0061528Y0213520D01*
X0061688Y0213536D01*
X0061848Y0213548D01*
X0062009Y0213556D01*
X0062170Y0213560D01*
X0062330Y0213560D01*
X0062491Y0213556D01*
X0062652Y0213548D01*
X0062812Y0213536D01*
X0062972Y0213520D01*
X0063132Y0213500D01*
X0063291Y0213476D01*
X0063449Y0213448D01*
X0063607Y0213417D01*
X0063763Y0213381D01*
X0063919Y0213342D01*
X0064074Y0213299D01*
X0064228Y0213252D01*
X0064381Y0213201D01*
X0064532Y0213146D01*
X0064682Y0213088D01*
X0064830Y0213026D01*
X0064977Y0212960D01*
X0065122Y0212891D01*
X0065265Y0212818D01*
X0065407Y0212742D01*
X0065546Y0212662D01*
X0065684Y0212579D01*
X0065819Y0212492D01*
X0065953Y0212402D01*
X0066084Y0212309D01*
X0066212Y0212213D01*
X0066338Y0212113D01*
X0066462Y0212010D01*
X0066583Y0211905D01*
X0066702Y0211796D01*
X0066818Y0211685D01*
X0066931Y0211570D01*
X0067041Y0211453D01*
X0067148Y0211333D01*
X0067252Y0211211D01*
X0067353Y0211086D01*
X0067451Y0210958D01*
X0067546Y0210828D01*
X0067638Y0210696D01*
X0067726Y0210562D01*
X0067811Y0210425D01*
X0067893Y0210287D01*
X0067971Y0210146D01*
X0068045Y0210004D01*
X0068116Y0209860D01*
X0068184Y0209714D01*
X0068247Y0209566D01*
X0068308Y0209417D01*
X0068364Y0209266D01*
X0068417Y0209114D01*
X0068466Y0208961D01*
X0068511Y0208807D01*
X0068552Y0208652D01*
X0068590Y0208495D01*
X0068623Y0208338D01*
X0068653Y0208180D01*
X0068679Y0208021D01*
X0068700Y0207862D01*
X0068718Y0207702D01*
X0068732Y0207542D01*
X0068742Y0207381D01*
X0068748Y0207221D01*
X0068750Y0207060D01*
X0068748Y0206899D01*
X0068742Y0206739D01*
X0068732Y0206578D01*
X0068718Y0206418D01*
X0068700Y0206258D01*
X0068679Y0206099D01*
X0068653Y0205940D01*
X0068623Y0205782D01*
X0068590Y0205625D01*
X0068552Y0205468D01*
X0068511Y0205313D01*
X0068466Y0205159D01*
X0068417Y0205006D01*
X0068364Y0204854D01*
X0068308Y0204703D01*
X0068247Y0204554D01*
X0068184Y0204406D01*
X0068116Y0204260D01*
X0068045Y0204116D01*
X0067971Y0203974D01*
X0067893Y0203833D01*
X0067811Y0203695D01*
X0067726Y0203558D01*
X0067638Y0203424D01*
X0067546Y0203292D01*
X0067451Y0203162D01*
X0067353Y0203034D01*
X0067252Y0202909D01*
X0067148Y0202787D01*
X0067041Y0202667D01*
X0066931Y0202550D01*
X0066818Y0202435D01*
X0066702Y0202324D01*
X0066583Y0202215D01*
X0066462Y0202110D01*
X0066338Y0202007D01*
X0066212Y0201907D01*
X0066084Y0201811D01*
X0065953Y0201718D01*
X0065819Y0201628D01*
X0065684Y0201541D01*
X0065546Y0201458D01*
X0065407Y0201378D01*
X0065265Y0201302D01*
X0065122Y0201229D01*
X0064977Y0201160D01*
X0064830Y0201094D01*
X0064682Y0201032D01*
X0064532Y0200974D01*
X0064381Y0200919D01*
X0064228Y0200868D01*
X0064074Y0200821D01*
X0063919Y0200778D01*
X0063763Y0200739D01*
X0063607Y0200703D01*
X0063449Y0200672D01*
X0063291Y0200644D01*
X0063132Y0200620D01*
X0062972Y0200600D01*
X0062812Y0200584D01*
X0062652Y0200572D01*
X0062491Y0200564D01*
X0062330Y0200560D01*
X0062170Y0200560D01*
X0062009Y0200564D01*
X0061848Y0200572D01*
X0061688Y0200584D01*
X0061528Y0200600D01*
X0061368Y0200620D01*
X0061209Y0200644D01*
X0061051Y0200672D01*
X0060893Y0200703D01*
X0060737Y0200739D01*
X0060581Y0200778D01*
X0060426Y0200821D01*
X0060272Y0200868D01*
X0060119Y0200919D01*
X0059968Y0200974D01*
X0059818Y0201032D01*
X0059670Y0201094D01*
X0059523Y0201160D01*
X0059378Y0201229D01*
X0059235Y0201302D01*
X0059093Y0201378D01*
X0058954Y0201458D01*
X0058816Y0201541D01*
X0058681Y0201628D01*
X0058547Y0201718D01*
X0058416Y0201811D01*
X0058288Y0201907D01*
X0058162Y0202007D01*
X0058038Y0202110D01*
X0057917Y0202215D01*
X0057798Y0202324D01*
X0057682Y0202435D01*
X0057569Y0202550D01*
X0057459Y0202667D01*
X0057352Y0202787D01*
X0057248Y0202909D01*
X0057147Y0203034D01*
X0057049Y0203162D01*
X0056954Y0203292D01*
X0056862Y0203424D01*
X0056774Y0203558D01*
X0056689Y0203695D01*
X0056607Y0203833D01*
X0056529Y0203974D01*
X0056455Y0204116D01*
X0056384Y0204260D01*
X0056316Y0204406D01*
X0056253Y0204554D01*
X0056192Y0204703D01*
X0056136Y0204854D01*
X0056083Y0205006D01*
X0056034Y0205159D01*
X0055989Y0205313D01*
X0055948Y0205468D01*
X0055910Y0205625D01*
X0055877Y0205782D01*
X0055847Y0205940D01*
X0055821Y0206099D01*
X0055800Y0206258D01*
X0055782Y0206418D01*
X0055768Y0206578D01*
X0055758Y0206739D01*
X0055752Y0206899D01*
X0055750Y0207060D01*
X0005750Y0207060D02*
X0005752Y0207221D01*
X0005758Y0207381D01*
X0005768Y0207542D01*
X0005782Y0207702D01*
X0005800Y0207862D01*
X0005821Y0208021D01*
X0005847Y0208180D01*
X0005877Y0208338D01*
X0005910Y0208495D01*
X0005948Y0208652D01*
X0005989Y0208807D01*
X0006034Y0208961D01*
X0006083Y0209114D01*
X0006136Y0209266D01*
X0006192Y0209417D01*
X0006253Y0209566D01*
X0006316Y0209714D01*
X0006384Y0209860D01*
X0006455Y0210004D01*
X0006529Y0210146D01*
X0006607Y0210287D01*
X0006689Y0210425D01*
X0006774Y0210562D01*
X0006862Y0210696D01*
X0006954Y0210828D01*
X0007049Y0210958D01*
X0007147Y0211086D01*
X0007248Y0211211D01*
X0007352Y0211333D01*
X0007459Y0211453D01*
X0007569Y0211570D01*
X0007682Y0211685D01*
X0007798Y0211796D01*
X0007917Y0211905D01*
X0008038Y0212010D01*
X0008162Y0212113D01*
X0008288Y0212213D01*
X0008416Y0212309D01*
X0008547Y0212402D01*
X0008681Y0212492D01*
X0008816Y0212579D01*
X0008954Y0212662D01*
X0009093Y0212742D01*
X0009235Y0212818D01*
X0009378Y0212891D01*
X0009523Y0212960D01*
X0009670Y0213026D01*
X0009818Y0213088D01*
X0009968Y0213146D01*
X0010119Y0213201D01*
X0010272Y0213252D01*
X0010426Y0213299D01*
X0010581Y0213342D01*
X0010737Y0213381D01*
X0010893Y0213417D01*
X0011051Y0213448D01*
X0011209Y0213476D01*
X0011368Y0213500D01*
X0011528Y0213520D01*
X0011688Y0213536D01*
X0011848Y0213548D01*
X0012009Y0213556D01*
X0012170Y0213560D01*
X0012330Y0213560D01*
X0012491Y0213556D01*
X0012652Y0213548D01*
X0012812Y0213536D01*
X0012972Y0213520D01*
X0013132Y0213500D01*
X0013291Y0213476D01*
X0013449Y0213448D01*
X0013607Y0213417D01*
X0013763Y0213381D01*
X0013919Y0213342D01*
X0014074Y0213299D01*
X0014228Y0213252D01*
X0014381Y0213201D01*
X0014532Y0213146D01*
X0014682Y0213088D01*
X0014830Y0213026D01*
X0014977Y0212960D01*
X0015122Y0212891D01*
X0015265Y0212818D01*
X0015407Y0212742D01*
X0015546Y0212662D01*
X0015684Y0212579D01*
X0015819Y0212492D01*
X0015953Y0212402D01*
X0016084Y0212309D01*
X0016212Y0212213D01*
X0016338Y0212113D01*
X0016462Y0212010D01*
X0016583Y0211905D01*
X0016702Y0211796D01*
X0016818Y0211685D01*
X0016931Y0211570D01*
X0017041Y0211453D01*
X0017148Y0211333D01*
X0017252Y0211211D01*
X0017353Y0211086D01*
X0017451Y0210958D01*
X0017546Y0210828D01*
X0017638Y0210696D01*
X0017726Y0210562D01*
X0017811Y0210425D01*
X0017893Y0210287D01*
X0017971Y0210146D01*
X0018045Y0210004D01*
X0018116Y0209860D01*
X0018184Y0209714D01*
X0018247Y0209566D01*
X0018308Y0209417D01*
X0018364Y0209266D01*
X0018417Y0209114D01*
X0018466Y0208961D01*
X0018511Y0208807D01*
X0018552Y0208652D01*
X0018590Y0208495D01*
X0018623Y0208338D01*
X0018653Y0208180D01*
X0018679Y0208021D01*
X0018700Y0207862D01*
X0018718Y0207702D01*
X0018732Y0207542D01*
X0018742Y0207381D01*
X0018748Y0207221D01*
X0018750Y0207060D01*
X0018748Y0206899D01*
X0018742Y0206739D01*
X0018732Y0206578D01*
X0018718Y0206418D01*
X0018700Y0206258D01*
X0018679Y0206099D01*
X0018653Y0205940D01*
X0018623Y0205782D01*
X0018590Y0205625D01*
X0018552Y0205468D01*
X0018511Y0205313D01*
X0018466Y0205159D01*
X0018417Y0205006D01*
X0018364Y0204854D01*
X0018308Y0204703D01*
X0018247Y0204554D01*
X0018184Y0204406D01*
X0018116Y0204260D01*
X0018045Y0204116D01*
X0017971Y0203974D01*
X0017893Y0203833D01*
X0017811Y0203695D01*
X0017726Y0203558D01*
X0017638Y0203424D01*
X0017546Y0203292D01*
X0017451Y0203162D01*
X0017353Y0203034D01*
X0017252Y0202909D01*
X0017148Y0202787D01*
X0017041Y0202667D01*
X0016931Y0202550D01*
X0016818Y0202435D01*
X0016702Y0202324D01*
X0016583Y0202215D01*
X0016462Y0202110D01*
X0016338Y0202007D01*
X0016212Y0201907D01*
X0016084Y0201811D01*
X0015953Y0201718D01*
X0015819Y0201628D01*
X0015684Y0201541D01*
X0015546Y0201458D01*
X0015407Y0201378D01*
X0015265Y0201302D01*
X0015122Y0201229D01*
X0014977Y0201160D01*
X0014830Y0201094D01*
X0014682Y0201032D01*
X0014532Y0200974D01*
X0014381Y0200919D01*
X0014228Y0200868D01*
X0014074Y0200821D01*
X0013919Y0200778D01*
X0013763Y0200739D01*
X0013607Y0200703D01*
X0013449Y0200672D01*
X0013291Y0200644D01*
X0013132Y0200620D01*
X0012972Y0200600D01*
X0012812Y0200584D01*
X0012652Y0200572D01*
X0012491Y0200564D01*
X0012330Y0200560D01*
X0012170Y0200560D01*
X0012009Y0200564D01*
X0011848Y0200572D01*
X0011688Y0200584D01*
X0011528Y0200600D01*
X0011368Y0200620D01*
X0011209Y0200644D01*
X0011051Y0200672D01*
X0010893Y0200703D01*
X0010737Y0200739D01*
X0010581Y0200778D01*
X0010426Y0200821D01*
X0010272Y0200868D01*
X0010119Y0200919D01*
X0009968Y0200974D01*
X0009818Y0201032D01*
X0009670Y0201094D01*
X0009523Y0201160D01*
X0009378Y0201229D01*
X0009235Y0201302D01*
X0009093Y0201378D01*
X0008954Y0201458D01*
X0008816Y0201541D01*
X0008681Y0201628D01*
X0008547Y0201718D01*
X0008416Y0201811D01*
X0008288Y0201907D01*
X0008162Y0202007D01*
X0008038Y0202110D01*
X0007917Y0202215D01*
X0007798Y0202324D01*
X0007682Y0202435D01*
X0007569Y0202550D01*
X0007459Y0202667D01*
X0007352Y0202787D01*
X0007248Y0202909D01*
X0007147Y0203034D01*
X0007049Y0203162D01*
X0006954Y0203292D01*
X0006862Y0203424D01*
X0006774Y0203558D01*
X0006689Y0203695D01*
X0006607Y0203833D01*
X0006529Y0203974D01*
X0006455Y0204116D01*
X0006384Y0204260D01*
X0006316Y0204406D01*
X0006253Y0204554D01*
X0006192Y0204703D01*
X0006136Y0204854D01*
X0006083Y0205006D01*
X0006034Y0205159D01*
X0005989Y0205313D01*
X0005948Y0205468D01*
X0005910Y0205625D01*
X0005877Y0205782D01*
X0005847Y0205940D01*
X0005821Y0206099D01*
X0005800Y0206258D01*
X0005782Y0206418D01*
X0005768Y0206578D01*
X0005758Y0206739D01*
X0005752Y0206899D01*
X0005750Y0207060D01*
M02*
