G75*
%MOIN*%
%OFA0B0*%
%FSLAX25Y25*%
%IPPOS*%
%LPD*%
%AMOC8*
5,1,8,0,0,1.08239X$1,22.5*
%
%ADD10C,0.08200*%
%ADD11R,0.05800X0.03300*%
%ADD12C,0.13800*%
%ADD13C,0.00500*%
D10*
X0007250Y0010060D03*
X0017250Y0010060D03*
X0027250Y0010060D03*
X0037250Y0010060D03*
X0047250Y0010060D03*
X0057250Y0010060D03*
X0067250Y0010060D03*
X0078250Y0010060D03*
X0088250Y0010060D03*
X0098250Y0010060D03*
X0108250Y0010060D03*
X0118250Y0010060D03*
X0128250Y0010060D03*
X0138250Y0010060D03*
X0149250Y0010060D03*
X0159250Y0010060D03*
X0169250Y0010060D03*
X0179250Y0010060D03*
X0189250Y0010060D03*
X0199250Y0010060D03*
X0209250Y0010060D03*
X0204250Y0040060D03*
X0204250Y0050060D03*
X0199250Y0081060D03*
X0189250Y0081060D03*
X0179250Y0081060D03*
X0169250Y0081060D03*
X0159250Y0081060D03*
X0149250Y0081060D03*
X0138250Y0081060D03*
X0128250Y0081060D03*
X0118250Y0081060D03*
X0108250Y0081060D03*
X0098250Y0081060D03*
X0088250Y0081060D03*
X0078250Y0081060D03*
X0067250Y0081060D03*
X0057250Y0081060D03*
X0047250Y0081060D03*
X0037250Y0081060D03*
X0027250Y0081060D03*
X0017250Y0081060D03*
X0007250Y0081060D03*
X0062250Y0111060D03*
X0062250Y0121060D03*
X0057250Y0152060D03*
X0067250Y0152060D03*
X0078250Y0152060D03*
X0088250Y0152060D03*
X0098250Y0152060D03*
X0108250Y0152060D03*
X0118250Y0152060D03*
X0128250Y0152060D03*
X0138250Y0152060D03*
X0149250Y0152060D03*
X0159250Y0152060D03*
X0169250Y0152060D03*
X0179250Y0152060D03*
X0189250Y0152060D03*
X0199250Y0152060D03*
X0209250Y0152060D03*
X0204250Y0182060D03*
X0204250Y0192060D03*
X0204250Y0121060D03*
X0204250Y0111060D03*
X0209250Y0081060D03*
X0133250Y0111060D03*
X0133250Y0121060D03*
X0133250Y0182060D03*
X0133250Y0192060D03*
X0062250Y0192060D03*
X0062250Y0182060D03*
X0047250Y0152060D03*
X0037250Y0152060D03*
X0027250Y0152060D03*
X0017250Y0152060D03*
X0007250Y0152060D03*
X0062250Y0050060D03*
X0062250Y0040060D03*
X0133250Y0040060D03*
X0133250Y0050060D03*
D11*
X0154250Y0049060D03*
X0154250Y0045060D03*
X0154250Y0041060D03*
X0169250Y0043460D03*
X0169250Y0046660D03*
X0154250Y0112060D03*
X0154250Y0116060D03*
X0154250Y0120060D03*
X0169250Y0117660D03*
X0169250Y0114460D03*
X0154250Y0183060D03*
X0154250Y0187060D03*
X0154250Y0191060D03*
X0169250Y0188660D03*
X0169250Y0185460D03*
X0098250Y0185460D03*
X0098250Y0188660D03*
X0083250Y0187060D03*
X0083250Y0191060D03*
X0083250Y0183060D03*
X0027250Y0185460D03*
X0027250Y0188660D03*
X0012250Y0187060D03*
X0012250Y0191060D03*
X0012250Y0183060D03*
X0012250Y0120060D03*
X0012250Y0116060D03*
X0012250Y0112060D03*
X0027250Y0114460D03*
X0027250Y0117660D03*
X0083250Y0116060D03*
X0083250Y0112060D03*
X0083250Y0120060D03*
X0098250Y0117660D03*
X0098250Y0114460D03*
X0083250Y0049060D03*
X0083250Y0045060D03*
X0083250Y0041060D03*
X0098250Y0043460D03*
X0098250Y0046660D03*
X0027250Y0046660D03*
X0027250Y0043460D03*
X0012250Y0045060D03*
X0012250Y0049060D03*
X0012250Y0041060D03*
D12*
X0012250Y0065060D03*
X0062250Y0065060D03*
X0083250Y0065060D03*
X0133250Y0065060D03*
X0154250Y0065060D03*
X0204250Y0065060D03*
X0204250Y0136060D03*
X0154250Y0136060D03*
X0133250Y0136060D03*
X0083250Y0136060D03*
X0062250Y0136060D03*
X0012250Y0136060D03*
X0012250Y0207060D03*
X0062250Y0207060D03*
X0083250Y0207060D03*
X0133250Y0207060D03*
X0154250Y0207060D03*
X0204250Y0207060D03*
D13*
X0154750Y0189810D02*
X0154750Y0188310D01*
X0153750Y0188310D01*
X0153750Y0189810D01*
X0154750Y0189810D01*
X0154750Y0189509D02*
X0153750Y0189509D01*
X0153750Y0189011D02*
X0154750Y0189011D01*
X0154750Y0188512D02*
X0153750Y0188512D01*
X0153750Y0185810D02*
X0153750Y0184310D01*
X0154750Y0184310D01*
X0154750Y0185810D01*
X0153750Y0185810D01*
X0153750Y0185521D02*
X0154750Y0185521D01*
X0154750Y0185023D02*
X0153750Y0185023D01*
X0153750Y0184524D02*
X0154750Y0184524D01*
X0154750Y0118810D02*
X0153750Y0118810D01*
X0153750Y0117310D01*
X0154750Y0117310D01*
X0154750Y0118810D01*
X0154750Y0118721D02*
X0153750Y0118721D01*
X0153750Y0118222D02*
X0154750Y0118222D01*
X0154750Y0117724D02*
X0153750Y0117724D01*
X0153750Y0114810D02*
X0153750Y0113310D01*
X0154750Y0113310D01*
X0154750Y0114810D01*
X0153750Y0114810D01*
X0153750Y0114732D02*
X0154750Y0114732D01*
X0154750Y0114234D02*
X0153750Y0114234D01*
X0153750Y0113735D02*
X0154750Y0113735D01*
X0154750Y0047810D02*
X0153750Y0047810D01*
X0153750Y0046310D01*
X0154750Y0046310D01*
X0154750Y0047810D01*
X0154750Y0047433D02*
X0153750Y0047433D01*
X0153750Y0046935D02*
X0154750Y0046935D01*
X0154750Y0046436D02*
X0153750Y0046436D01*
X0153750Y0043810D02*
X0153750Y0042310D01*
X0154750Y0042310D01*
X0154750Y0043810D01*
X0153750Y0043810D01*
X0153750Y0043445D02*
X0154750Y0043445D01*
X0154750Y0042947D02*
X0153750Y0042947D01*
X0153750Y0042448D02*
X0154750Y0042448D01*
X0083750Y0042448D02*
X0082750Y0042448D01*
X0082750Y0042310D02*
X0083750Y0042310D01*
X0083750Y0043810D01*
X0082750Y0043810D01*
X0082750Y0042310D01*
X0082750Y0042947D02*
X0083750Y0042947D01*
X0083750Y0043445D02*
X0082750Y0043445D01*
X0082750Y0046310D02*
X0083750Y0046310D01*
X0083750Y0047810D01*
X0082750Y0047810D01*
X0082750Y0046310D01*
X0082750Y0046436D02*
X0083750Y0046436D01*
X0083750Y0046935D02*
X0082750Y0046935D01*
X0082750Y0047433D02*
X0083750Y0047433D01*
X0083750Y0113310D02*
X0082750Y0113310D01*
X0082750Y0114810D01*
X0083750Y0114810D01*
X0083750Y0113310D01*
X0083750Y0113735D02*
X0082750Y0113735D01*
X0082750Y0114234D02*
X0083750Y0114234D01*
X0083750Y0114732D02*
X0082750Y0114732D01*
X0082750Y0117310D02*
X0083750Y0117310D01*
X0083750Y0118810D01*
X0082750Y0118810D01*
X0082750Y0117310D01*
X0082750Y0117724D02*
X0083750Y0117724D01*
X0083750Y0118222D02*
X0082750Y0118222D01*
X0082750Y0118721D02*
X0083750Y0118721D01*
X0083750Y0184310D02*
X0082750Y0184310D01*
X0082750Y0185810D01*
X0083750Y0185810D01*
X0083750Y0184310D01*
X0083750Y0184524D02*
X0082750Y0184524D01*
X0082750Y0185023D02*
X0083750Y0185023D01*
X0083750Y0185521D02*
X0082750Y0185521D01*
X0082750Y0188310D02*
X0083750Y0188310D01*
X0083750Y0189810D01*
X0082750Y0189810D01*
X0082750Y0188310D01*
X0082750Y0188512D02*
X0083750Y0188512D01*
X0083750Y0189011D02*
X0082750Y0189011D01*
X0082750Y0189509D02*
X0083750Y0189509D01*
X0012750Y0189509D02*
X0011750Y0189509D01*
X0011750Y0189810D02*
X0011750Y0188310D01*
X0012750Y0188310D01*
X0012750Y0189810D01*
X0011750Y0189810D01*
X0011750Y0189011D02*
X0012750Y0189011D01*
X0012750Y0188512D02*
X0011750Y0188512D01*
X0011750Y0185810D02*
X0011750Y0184310D01*
X0012750Y0184310D01*
X0012750Y0185810D01*
X0011750Y0185810D01*
X0011750Y0185521D02*
X0012750Y0185521D01*
X0012750Y0185023D02*
X0011750Y0185023D01*
X0011750Y0184524D02*
X0012750Y0184524D01*
X0012750Y0118810D02*
X0011750Y0118810D01*
X0011750Y0117310D01*
X0012750Y0117310D01*
X0012750Y0118810D01*
X0012750Y0118721D02*
X0011750Y0118721D01*
X0011750Y0118222D02*
X0012750Y0118222D01*
X0012750Y0117724D02*
X0011750Y0117724D01*
X0011750Y0114810D02*
X0011750Y0113310D01*
X0012750Y0113310D01*
X0012750Y0114810D01*
X0011750Y0114810D01*
X0011750Y0114732D02*
X0012750Y0114732D01*
X0012750Y0114234D02*
X0011750Y0114234D01*
X0011750Y0113735D02*
X0012750Y0113735D01*
X0012750Y0047810D02*
X0011750Y0047810D01*
X0011750Y0046310D01*
X0012750Y0046310D01*
X0012750Y0047810D01*
X0012750Y0047433D02*
X0011750Y0047433D01*
X0011750Y0046935D02*
X0012750Y0046935D01*
X0012750Y0046436D02*
X0011750Y0046436D01*
X0011750Y0043810D02*
X0011750Y0042310D01*
X0012750Y0042310D01*
X0012750Y0043810D01*
X0011750Y0043810D01*
X0011750Y0043445D02*
X0012750Y0043445D01*
X0012750Y0042947D02*
X0011750Y0042947D01*
X0011750Y0042448D02*
X0012750Y0042448D01*
M02*
