G75*
%MOIN*%
%OFA0B0*%
%FSLAX25Y25*%
%IPPOS*%
%LPD*%
%AMOC8*
5,1,8,0,0,1.08239X$1,22.5*
%
%ADD10C,0.08200*%
%ADD11R,0.05800X0.03300*%
%ADD12C,0.13800*%
%ADD13C,0.00500*%
%ADD14C,0.03900*%
D10*
X0007250Y0010060D03*
X0017250Y0010060D03*
X0027250Y0010060D03*
X0037250Y0010060D03*
X0047250Y0010060D03*
X0057250Y0010060D03*
X0067250Y0010060D03*
X0079250Y0010060D03*
X0089250Y0010060D03*
X0099250Y0010060D03*
X0109250Y0010060D03*
X0119250Y0010060D03*
X0129250Y0010060D03*
X0139250Y0010060D03*
X0151250Y0010060D03*
X0161250Y0010060D03*
X0171250Y0010060D03*
X0181250Y0010060D03*
X0191250Y0010060D03*
X0201250Y0010060D03*
X0211250Y0010060D03*
X0206250Y0040060D03*
X0206250Y0050060D03*
X0201250Y0082060D03*
X0191250Y0082060D03*
X0181250Y0082060D03*
X0171250Y0082060D03*
X0161250Y0082060D03*
X0151250Y0082060D03*
X0139250Y0082060D03*
X0129250Y0082060D03*
X0119250Y0082060D03*
X0109250Y0082060D03*
X0099250Y0082060D03*
X0089250Y0082060D03*
X0079250Y0082060D03*
X0067250Y0082060D03*
X0057250Y0082060D03*
X0047250Y0082060D03*
X0037250Y0082060D03*
X0027250Y0082060D03*
X0017250Y0082060D03*
X0007250Y0082060D03*
X0062250Y0112060D03*
X0062250Y0122060D03*
X0057250Y0154060D03*
X0067250Y0154060D03*
X0079250Y0154060D03*
X0089250Y0154060D03*
X0099250Y0154060D03*
X0109250Y0154060D03*
X0119250Y0154060D03*
X0129250Y0154060D03*
X0139250Y0154060D03*
X0151250Y0154060D03*
X0161250Y0154060D03*
X0171250Y0154060D03*
X0181250Y0154060D03*
X0191250Y0154060D03*
X0201250Y0154060D03*
X0211250Y0154060D03*
X0206250Y0184060D03*
X0206250Y0194060D03*
X0206250Y0122060D03*
X0206250Y0112060D03*
X0211250Y0082060D03*
X0134250Y0112060D03*
X0134250Y0122060D03*
X0134250Y0184060D03*
X0134250Y0194060D03*
X0062250Y0194060D03*
X0062250Y0184060D03*
X0047250Y0154060D03*
X0037250Y0154060D03*
X0027250Y0154060D03*
X0017250Y0154060D03*
X0007250Y0154060D03*
X0062250Y0050060D03*
X0062250Y0040060D03*
X0134250Y0040060D03*
X0134250Y0050060D03*
D11*
X0156250Y0049060D03*
X0156250Y0045060D03*
X0156250Y0041060D03*
X0171250Y0043460D03*
X0171250Y0046660D03*
X0156250Y0113060D03*
X0156250Y0117060D03*
X0156250Y0121060D03*
X0171250Y0118660D03*
X0171250Y0115460D03*
X0156250Y0185060D03*
X0156250Y0189060D03*
X0156250Y0193060D03*
X0171250Y0190660D03*
X0171250Y0187460D03*
X0099250Y0187460D03*
X0099250Y0190660D03*
X0084250Y0189060D03*
X0084250Y0193060D03*
X0084250Y0185060D03*
X0027250Y0187460D03*
X0027250Y0190660D03*
X0012250Y0189060D03*
X0012250Y0193060D03*
X0012250Y0185060D03*
X0012250Y0121060D03*
X0012250Y0117060D03*
X0012250Y0113060D03*
X0027250Y0115460D03*
X0027250Y0118660D03*
X0084250Y0117060D03*
X0084250Y0113060D03*
X0084250Y0121060D03*
X0099250Y0118660D03*
X0099250Y0115460D03*
X0084250Y0049060D03*
X0084250Y0045060D03*
X0084250Y0041060D03*
X0099250Y0043460D03*
X0099250Y0046660D03*
X0027250Y0046660D03*
X0027250Y0043460D03*
X0012250Y0045060D03*
X0012250Y0049060D03*
X0012250Y0041060D03*
D12*
X0012250Y0065060D03*
X0062250Y0065060D03*
X0084250Y0065060D03*
X0134250Y0065060D03*
X0156250Y0065060D03*
X0206250Y0065060D03*
X0206250Y0137060D03*
X0156250Y0137060D03*
X0134250Y0137060D03*
X0084250Y0137060D03*
X0062250Y0137060D03*
X0012250Y0137060D03*
X0012250Y0209060D03*
X0062250Y0209060D03*
X0084250Y0209060D03*
X0134250Y0209060D03*
X0156250Y0209060D03*
X0206250Y0209060D03*
D13*
X0156750Y0191810D02*
X0156750Y0190310D01*
X0155750Y0190310D01*
X0155750Y0191810D01*
X0156750Y0191810D01*
X0156750Y0191503D02*
X0155750Y0191503D01*
X0155750Y0191005D02*
X0156750Y0191005D01*
X0156750Y0190506D02*
X0155750Y0190506D01*
X0155750Y0187810D02*
X0155750Y0186310D01*
X0156750Y0186310D01*
X0156750Y0187810D01*
X0155750Y0187810D01*
X0155750Y0187515D02*
X0156750Y0187515D01*
X0156750Y0187017D02*
X0155750Y0187017D01*
X0155750Y0186518D02*
X0156750Y0186518D01*
X0156750Y0119810D02*
X0155750Y0119810D01*
X0155750Y0118310D01*
X0156750Y0118310D01*
X0156750Y0119810D01*
X0156750Y0119718D02*
X0155750Y0119718D01*
X0155750Y0119219D02*
X0156750Y0119219D01*
X0156750Y0118721D02*
X0155750Y0118721D01*
X0155750Y0115810D02*
X0155750Y0114310D01*
X0156750Y0114310D01*
X0156750Y0115810D01*
X0155750Y0115810D01*
X0155750Y0115730D02*
X0156750Y0115730D01*
X0156750Y0115231D02*
X0155750Y0115231D01*
X0155750Y0114732D02*
X0156750Y0114732D01*
X0156750Y0047810D02*
X0155750Y0047810D01*
X0155750Y0046310D01*
X0156750Y0046310D01*
X0156750Y0047810D01*
X0156750Y0047433D02*
X0155750Y0047433D01*
X0155750Y0046935D02*
X0156750Y0046935D01*
X0156750Y0046436D02*
X0155750Y0046436D01*
X0155750Y0043810D02*
X0155750Y0042310D01*
X0156750Y0042310D01*
X0156750Y0043810D01*
X0155750Y0043810D01*
X0155750Y0043445D02*
X0156750Y0043445D01*
X0156750Y0042947D02*
X0155750Y0042947D01*
X0155750Y0042448D02*
X0156750Y0042448D01*
X0084750Y0042448D02*
X0083750Y0042448D01*
X0083750Y0042310D02*
X0084750Y0042310D01*
X0084750Y0043810D01*
X0083750Y0043810D01*
X0083750Y0042310D01*
X0083750Y0042947D02*
X0084750Y0042947D01*
X0084750Y0043445D02*
X0083750Y0043445D01*
X0083750Y0046310D02*
X0084750Y0046310D01*
X0084750Y0047810D01*
X0083750Y0047810D01*
X0083750Y0046310D01*
X0083750Y0046436D02*
X0084750Y0046436D01*
X0084750Y0046935D02*
X0083750Y0046935D01*
X0083750Y0047433D02*
X0084750Y0047433D01*
X0084750Y0114310D02*
X0083750Y0114310D01*
X0083750Y0115810D01*
X0084750Y0115810D01*
X0084750Y0114310D01*
X0084750Y0114732D02*
X0083750Y0114732D01*
X0083750Y0115231D02*
X0084750Y0115231D01*
X0084750Y0115730D02*
X0083750Y0115730D01*
X0083750Y0118310D02*
X0084750Y0118310D01*
X0084750Y0119810D01*
X0083750Y0119810D01*
X0083750Y0118310D01*
X0083750Y0118721D02*
X0084750Y0118721D01*
X0084750Y0119219D02*
X0083750Y0119219D01*
X0083750Y0119718D02*
X0084750Y0119718D01*
X0084750Y0186310D02*
X0083750Y0186310D01*
X0083750Y0187810D01*
X0084750Y0187810D01*
X0084750Y0186310D01*
X0084750Y0186518D02*
X0083750Y0186518D01*
X0083750Y0187017D02*
X0084750Y0187017D01*
X0084750Y0187515D02*
X0083750Y0187515D01*
X0083750Y0190310D02*
X0084750Y0190310D01*
X0084750Y0191810D01*
X0083750Y0191810D01*
X0083750Y0190310D01*
X0083750Y0190506D02*
X0084750Y0190506D01*
X0084750Y0191005D02*
X0083750Y0191005D01*
X0083750Y0191503D02*
X0084750Y0191503D01*
X0012750Y0191503D02*
X0011750Y0191503D01*
X0011750Y0191810D02*
X0011750Y0190310D01*
X0012750Y0190310D01*
X0012750Y0191810D01*
X0011750Y0191810D01*
X0011750Y0191005D02*
X0012750Y0191005D01*
X0012750Y0190506D02*
X0011750Y0190506D01*
X0011750Y0187810D02*
X0011750Y0186310D01*
X0012750Y0186310D01*
X0012750Y0187810D01*
X0011750Y0187810D01*
X0011750Y0187515D02*
X0012750Y0187515D01*
X0012750Y0187017D02*
X0011750Y0187017D01*
X0011750Y0186518D02*
X0012750Y0186518D01*
X0012750Y0119810D02*
X0011750Y0119810D01*
X0011750Y0118310D01*
X0012750Y0118310D01*
X0012750Y0119810D01*
X0012750Y0119718D02*
X0011750Y0119718D01*
X0011750Y0119219D02*
X0012750Y0119219D01*
X0012750Y0118721D02*
X0011750Y0118721D01*
X0011750Y0115810D02*
X0011750Y0114310D01*
X0012750Y0114310D01*
X0012750Y0115810D01*
X0011750Y0115810D01*
X0011750Y0115730D02*
X0012750Y0115730D01*
X0012750Y0115231D02*
X0011750Y0115231D01*
X0011750Y0114732D02*
X0012750Y0114732D01*
X0012750Y0047810D02*
X0011750Y0047810D01*
X0011750Y0046310D01*
X0012750Y0046310D01*
X0012750Y0047810D01*
X0012750Y0047433D02*
X0011750Y0047433D01*
X0011750Y0046935D02*
X0012750Y0046935D01*
X0012750Y0046436D02*
X0011750Y0046436D01*
X0011750Y0043810D02*
X0011750Y0042310D01*
X0012750Y0042310D01*
X0012750Y0043810D01*
X0011750Y0043810D01*
X0011750Y0043445D02*
X0012750Y0043445D01*
X0012750Y0042947D02*
X0011750Y0042947D01*
X0011750Y0042448D02*
X0012750Y0042448D01*
D14*
X0007250Y0035060D03*
X0017250Y0030060D03*
X0022750Y0035060D03*
X0027250Y0035060D03*
X0042250Y0020060D03*
X0052250Y0025060D03*
X0047250Y0037060D03*
X0045250Y0045060D03*
X0044750Y0053560D03*
X0052250Y0057560D03*
X0037250Y0053560D03*
X0027250Y0055060D03*
X0027250Y0059060D03*
X0019250Y0056560D03*
X0007250Y0055060D03*
X0042250Y0092060D03*
X0052250Y0097060D03*
X0047250Y0109060D03*
X0045250Y0117060D03*
X0044750Y0125560D03*
X0052250Y0129560D03*
X0037250Y0125560D03*
X0027250Y0127060D03*
X0027250Y0131060D03*
X0019250Y0128560D03*
X0007250Y0127060D03*
X0007250Y0107060D03*
X0017250Y0102060D03*
X0022750Y0107060D03*
X0027250Y0107060D03*
X0079250Y0107060D03*
X0089250Y0102060D03*
X0094750Y0107060D03*
X0099250Y0107060D03*
X0114250Y0092060D03*
X0124250Y0097060D03*
X0119250Y0109060D03*
X0117250Y0117060D03*
X0116750Y0125560D03*
X0124250Y0129560D03*
X0109250Y0125560D03*
X0099250Y0127060D03*
X0099250Y0131060D03*
X0091250Y0128560D03*
X0079250Y0127060D03*
X0114250Y0164060D03*
X0124250Y0169060D03*
X0119250Y0181060D03*
X0117250Y0189060D03*
X0116750Y0197560D03*
X0124250Y0201560D03*
X0109250Y0197560D03*
X0099250Y0199060D03*
X0099250Y0203060D03*
X0091250Y0200560D03*
X0079250Y0199060D03*
X0079250Y0179060D03*
X0089250Y0174060D03*
X0094750Y0179060D03*
X0099250Y0179060D03*
X0052250Y0169060D03*
X0042250Y0164060D03*
X0047250Y0181060D03*
X0045250Y0189060D03*
X0044750Y0197560D03*
X0052250Y0201560D03*
X0037250Y0197560D03*
X0027250Y0199060D03*
X0027250Y0203060D03*
X0019250Y0200560D03*
X0007250Y0199060D03*
X0007250Y0179060D03*
X0017250Y0174060D03*
X0022750Y0179060D03*
X0027250Y0179060D03*
X0099250Y0059060D03*
X0099250Y0055060D03*
X0091250Y0056560D03*
X0079250Y0055060D03*
X0079250Y0035060D03*
X0089250Y0030060D03*
X0094750Y0035060D03*
X0099250Y0035060D03*
X0114250Y0020060D03*
X0124250Y0025060D03*
X0119250Y0037060D03*
X0117250Y0045060D03*
X0116750Y0053560D03*
X0124250Y0057560D03*
X0109250Y0053560D03*
X0151250Y0055060D03*
X0163250Y0056560D03*
X0171250Y0055060D03*
X0171250Y0059060D03*
X0181250Y0053560D03*
X0188750Y0053560D03*
X0196250Y0057560D03*
X0189250Y0045060D03*
X0191250Y0037060D03*
X0196250Y0025060D03*
X0186250Y0020060D03*
X0171250Y0035060D03*
X0166750Y0035060D03*
X0161250Y0030060D03*
X0151250Y0035060D03*
X0186250Y0092060D03*
X0196250Y0097060D03*
X0191250Y0109060D03*
X0189250Y0117060D03*
X0188750Y0125560D03*
X0196250Y0129560D03*
X0181250Y0125560D03*
X0171250Y0127060D03*
X0171250Y0131060D03*
X0163250Y0128560D03*
X0151250Y0127060D03*
X0151250Y0107060D03*
X0161250Y0102060D03*
X0166750Y0107060D03*
X0171250Y0107060D03*
X0186250Y0164060D03*
X0196250Y0169060D03*
X0191250Y0181060D03*
X0189250Y0189060D03*
X0188750Y0197560D03*
X0196250Y0201560D03*
X0181250Y0197560D03*
X0171250Y0199060D03*
X0171250Y0203060D03*
X0163250Y0200560D03*
X0151250Y0199060D03*
X0151250Y0179060D03*
X0161250Y0174060D03*
X0166750Y0179060D03*
X0171250Y0179060D03*
M02*
