%
M48
M72
T01C0.0150
T02C0.0354
T03C0.0400
T04C0.1300
%
T01
X1725Y3006
X2275Y3506
X2725Y3506
X4225Y2006
X5225Y2506
X4725Y3706
X4525Y4506
X4475Y5356
X5225Y5756
X3725Y5356
X2725Y5506
X2725Y5906
X1925Y5656
X725Y5506
X725Y3506
X4225Y9206
X5225Y9706
X4725Y10906
X4525Y11706
X4475Y12556
X5225Y12956
X3725Y12556
X2725Y12706
X2725Y13106
X1925Y12856
X725Y12706
X725Y10706
X1725Y10206
X2275Y10706
X2725Y10706
X7925Y10706
X8925Y10206
X9475Y10706
X9925Y10706
X11425Y9206
X12425Y9706
X11925Y10906
X11725Y11706
X11675Y12556
X12425Y12956
X10925Y12556
X9925Y12706
X9925Y13106
X9125Y12856
X7925Y12706
X11425Y16406
X12425Y16906
X11925Y18106
X11725Y18906
X11675Y19756
X12425Y20156
X10925Y19756
X9925Y19906
X9925Y20306
X9125Y20056
X7925Y19906
X7925Y17906
X8925Y17406
X9475Y17906
X9925Y17906
X5225Y16906
X4225Y16406
X4725Y18106
X4525Y18906
X4475Y19756
X5225Y20156
X3725Y19756
X2725Y19906
X2725Y20306
X1925Y20056
X725Y19906
X725Y17906
X1725Y17406
X2275Y17906
X2725Y17906
X9925Y5906
X9925Y5506
X9125Y5656
X7925Y5506
X7925Y3506
X8925Y3006
X9475Y3506
X9925Y3506
X11425Y2006
X12425Y2506
X11925Y3706
X11725Y4506
X11675Y5356
X12425Y5756
X10925Y5356
X15125Y5506
X16325Y5656
X17125Y5506
X17125Y5906
X18125Y5356
X18875Y5356
X19625Y5756
X18925Y4506
X19125Y3706
X19625Y2506
X18625Y2006
X17125Y3506
X16675Y3506
X16125Y3006
X15125Y3506
X18625Y9206
X19625Y9706
X19125Y10906
X18925Y11706
X18875Y12556
X19625Y12956
X18125Y12556
X17125Y12706
X17125Y13106
X16325Y12856
X15125Y12706
X15125Y10706
X16125Y10206
X16675Y10706
X17125Y10706
X18625Y16406
X19625Y16906
X19125Y18106
X18925Y18906
X18875Y19756
X19625Y20156
X18125Y19756
X17125Y19906
X17125Y20306
X16325Y20056
X15125Y19906
X15125Y17906
X16125Y17406
X16675Y17906
X17125Y17906
T02
X20625Y18406
X20625Y19406
X20625Y12206
X20625Y11206
X20625Y5006
X20625Y4006
X13425Y4006
X13425Y5006
X13425Y11206
X13425Y12206
X13425Y18406
X13425Y19406
X6225Y19406
X6225Y18406
X6225Y12206
X6225Y11206
X6225Y5006
X6225Y4006
T03
X725Y1006
X1725Y1006
X2725Y1006
X3725Y1006
X4725Y1006
X5725Y1006
X6725Y1006
X7925Y1006
X8925Y1006
X9925Y1006
X10925Y1006
X11925Y1006
X12925Y1006
X13925Y1006
X15125Y1006
X16125Y1006
X17125Y1006
X18125Y1006
X19125Y1006
X20125Y1006
X21125Y1006
X21125Y8206
X20125Y8206
X19125Y8206
X18125Y8206
X17125Y8206
X16125Y8206
X15125Y8206
X13925Y8206
X12925Y8206
X11925Y8206
X10925Y8206
X9925Y8206
X8925Y8206
X7925Y8206
X6725Y8206
X5725Y8206
X4725Y8206
X3725Y8206
X2725Y8206
X1725Y8206
X725Y8206
X725Y15406
X1725Y15406
X2725Y15406
X3725Y15406
X4725Y15406
X5725Y15406
X6725Y15406
X7925Y15406
X8925Y15406
X9925Y15406
X10925Y15406
X11925Y15406
X12925Y15406
X13925Y15406
X15125Y15406
X16125Y15406
X17125Y15406
X18125Y15406
X19125Y15406
X20125Y15406
X21125Y15406
T04
X20625Y13706
X15625Y13706
X13425Y13706
X8425Y13706
X6225Y13706
X1225Y13706
X1225Y6506
X6225Y6506
X8425Y6506
X13425Y6506
X15625Y6506
X20625Y6506
X20625Y20906
X15625Y20906
X13425Y20906
X8425Y20906
X6225Y20906
X1225Y20906
M30
