G75*
%MOIN*%
%OFA0B0*%
%FSLAX25Y25*%
%IPPOS*%
%LPD*%
%AMOC8*
5,1,8,0,0,1.08239X$1,22.5*
%
%ADD10C,0.07400*%
%ADD11R,0.04331X0.03937*%
%ADD12R,0.03937X0.04331*%
%ADD13C,0.03937*%
%ADD14R,0.01575X0.02756*%
%ADD15R,0.09646X0.04331*%
%ADD16C,0.01000*%
%ADD17C,0.03100*%
%ADD18C,0.00700*%
D10*
X0007250Y0010060D03*
X0017250Y0010060D03*
X0027250Y0010060D03*
X0037250Y0010060D03*
X0047250Y0010060D03*
X0057250Y0010060D03*
X0067250Y0010060D03*
X0079250Y0010060D03*
X0089250Y0010060D03*
X0099250Y0010060D03*
X0109250Y0010060D03*
X0119250Y0010060D03*
X0129250Y0010060D03*
X0139250Y0010060D03*
X0151250Y0010060D03*
X0161250Y0010060D03*
X0171250Y0010060D03*
X0181250Y0010060D03*
X0191250Y0010060D03*
X0201250Y0010060D03*
X0211250Y0010060D03*
X0206250Y0040060D03*
X0206250Y0050060D03*
X0201250Y0082060D03*
X0191250Y0082060D03*
X0181250Y0082060D03*
X0171250Y0082060D03*
X0161250Y0082060D03*
X0151250Y0082060D03*
X0139250Y0082060D03*
X0129250Y0082060D03*
X0119250Y0082060D03*
X0109250Y0082060D03*
X0099250Y0082060D03*
X0089250Y0082060D03*
X0079250Y0082060D03*
X0067250Y0082060D03*
X0057250Y0082060D03*
X0047250Y0082060D03*
X0037250Y0082060D03*
X0027250Y0082060D03*
X0017250Y0082060D03*
X0007250Y0082060D03*
X0062250Y0112060D03*
X0062250Y0122060D03*
X0057250Y0154060D03*
X0067250Y0154060D03*
X0079250Y0154060D03*
X0089250Y0154060D03*
X0099250Y0154060D03*
X0109250Y0154060D03*
X0119250Y0154060D03*
X0129250Y0154060D03*
X0139250Y0154060D03*
X0151250Y0154060D03*
X0161250Y0154060D03*
X0171250Y0154060D03*
X0181250Y0154060D03*
X0191250Y0154060D03*
X0201250Y0154060D03*
X0211250Y0154060D03*
X0206250Y0184060D03*
X0206250Y0194060D03*
X0206250Y0122060D03*
X0206250Y0112060D03*
X0211250Y0082060D03*
X0134250Y0112060D03*
X0134250Y0122060D03*
X0134250Y0184060D03*
X0134250Y0194060D03*
X0062250Y0194060D03*
X0062250Y0184060D03*
X0047250Y0154060D03*
X0037250Y0154060D03*
X0027250Y0154060D03*
X0017250Y0154060D03*
X0007250Y0154060D03*
X0062250Y0050060D03*
X0062250Y0040060D03*
X0134250Y0040060D03*
X0134250Y0050060D03*
D11*
X0152904Y0050060D03*
X0159596Y0050060D03*
X0159596Y0040060D03*
X0152904Y0040060D03*
X0170404Y0030060D03*
X0177096Y0030060D03*
X0185404Y0030060D03*
X0192096Y0030060D03*
X0184596Y0057560D03*
X0177904Y0057560D03*
X0177096Y0102060D03*
X0170404Y0102060D03*
X0159596Y0112060D03*
X0152904Y0112060D03*
X0152904Y0122060D03*
X0159596Y0122060D03*
X0177904Y0129560D03*
X0184596Y0129560D03*
X0185404Y0102060D03*
X0192096Y0102060D03*
X0192096Y0174060D03*
X0185404Y0174060D03*
X0177096Y0174060D03*
X0170404Y0174060D03*
X0159596Y0184060D03*
X0152904Y0184060D03*
X0152904Y0194060D03*
X0159596Y0194060D03*
X0177904Y0201560D03*
X0184596Y0201560D03*
X0120096Y0174060D03*
X0113404Y0174060D03*
X0105096Y0174060D03*
X0098404Y0174060D03*
X0087596Y0184060D03*
X0080904Y0184060D03*
X0080904Y0194060D03*
X0087596Y0194060D03*
X0105904Y0201560D03*
X0112596Y0201560D03*
X0048096Y0174060D03*
X0041404Y0174060D03*
X0033096Y0174060D03*
X0026404Y0174060D03*
X0015596Y0184060D03*
X0008904Y0184060D03*
X0008904Y0194060D03*
X0015596Y0194060D03*
X0033904Y0201560D03*
X0040596Y0201560D03*
X0040596Y0129560D03*
X0033904Y0129560D03*
X0015596Y0122060D03*
X0008904Y0122060D03*
X0008904Y0112060D03*
X0015596Y0112060D03*
X0026404Y0102060D03*
X0033096Y0102060D03*
X0041404Y0102060D03*
X0048096Y0102060D03*
X0080904Y0112060D03*
X0087596Y0112060D03*
X0087596Y0122060D03*
X0080904Y0122060D03*
X0098404Y0102060D03*
X0105096Y0102060D03*
X0113404Y0102060D03*
X0120096Y0102060D03*
X0112596Y0129560D03*
X0105904Y0129560D03*
X0105904Y0057560D03*
X0112596Y0057560D03*
X0087596Y0050060D03*
X0080904Y0050060D03*
X0080904Y0040060D03*
X0087596Y0040060D03*
X0098404Y0030060D03*
X0105096Y0030060D03*
X0113404Y0030060D03*
X0120096Y0030060D03*
X0048096Y0030060D03*
X0041404Y0030060D03*
X0033096Y0030060D03*
X0026404Y0030060D03*
X0015596Y0040060D03*
X0008904Y0040060D03*
X0008904Y0050060D03*
X0015596Y0050060D03*
X0033904Y0057560D03*
X0040596Y0057560D03*
D12*
X0052250Y0048406D03*
X0052250Y0041714D03*
X0022750Y0041714D03*
X0022750Y0048406D03*
X0022750Y0113714D03*
X0022750Y0120406D03*
X0052250Y0120406D03*
X0052250Y0113714D03*
X0094750Y0113714D03*
X0094750Y0120406D03*
X0124250Y0120406D03*
X0124250Y0113714D03*
X0166750Y0113714D03*
X0166750Y0120406D03*
X0196250Y0120406D03*
X0196250Y0113714D03*
X0196250Y0048406D03*
X0196250Y0041714D03*
X0166750Y0041714D03*
X0166750Y0048406D03*
X0124250Y0048406D03*
X0124250Y0041714D03*
X0094750Y0041714D03*
X0094750Y0048406D03*
X0094750Y0185714D03*
X0094750Y0192406D03*
X0124250Y0192406D03*
X0124250Y0185714D03*
X0166750Y0185714D03*
X0166750Y0192406D03*
X0196250Y0192406D03*
X0196250Y0185714D03*
X0052250Y0185714D03*
X0052250Y0192406D03*
X0022750Y0192406D03*
X0022750Y0185714D03*
D13*
X0005250Y0216060D03*
X0062250Y0159060D03*
X0077250Y0144060D03*
X0134250Y0159060D03*
X0149250Y0144060D03*
X0206250Y0159060D03*
X0149250Y0216060D03*
X0077250Y0216060D03*
X0005250Y0144060D03*
X0062250Y0087060D03*
X0077250Y0072060D03*
X0134250Y0087060D03*
X0149250Y0072060D03*
X0206250Y0087060D03*
X0206250Y0015060D03*
X0134250Y0015060D03*
X0062250Y0015060D03*
X0005250Y0072060D03*
D14*
X0032526Y0049391D03*
X0034888Y0049391D03*
X0037250Y0049391D03*
X0039612Y0049391D03*
X0041974Y0049391D03*
X0041974Y0040729D03*
X0039612Y0040729D03*
X0037250Y0040729D03*
X0034888Y0040729D03*
X0032526Y0040729D03*
X0032526Y0112729D03*
X0034888Y0112729D03*
X0037250Y0112729D03*
X0039612Y0112729D03*
X0041974Y0112729D03*
X0041974Y0121391D03*
X0039612Y0121391D03*
X0037250Y0121391D03*
X0034888Y0121391D03*
X0032526Y0121391D03*
X0032526Y0184729D03*
X0034888Y0184729D03*
X0037250Y0184729D03*
X0039612Y0184729D03*
X0041974Y0184729D03*
X0041974Y0193391D03*
X0039612Y0193391D03*
X0037250Y0193391D03*
X0034888Y0193391D03*
X0032526Y0193391D03*
X0104526Y0193391D03*
X0106888Y0193391D03*
X0109250Y0193391D03*
X0111612Y0193391D03*
X0113974Y0193391D03*
X0113974Y0184729D03*
X0111612Y0184729D03*
X0109250Y0184729D03*
X0106888Y0184729D03*
X0104526Y0184729D03*
X0104526Y0121391D03*
X0106888Y0121391D03*
X0109250Y0121391D03*
X0111612Y0121391D03*
X0113974Y0121391D03*
X0113974Y0112729D03*
X0111612Y0112729D03*
X0109250Y0112729D03*
X0106888Y0112729D03*
X0104526Y0112729D03*
X0104526Y0049391D03*
X0106888Y0049391D03*
X0109250Y0049391D03*
X0111612Y0049391D03*
X0113974Y0049391D03*
X0113974Y0040729D03*
X0111612Y0040729D03*
X0109250Y0040729D03*
X0106888Y0040729D03*
X0104526Y0040729D03*
X0176526Y0040729D03*
X0178888Y0040729D03*
X0181250Y0040729D03*
X0183612Y0040729D03*
X0185974Y0040729D03*
X0185974Y0049391D03*
X0183612Y0049391D03*
X0181250Y0049391D03*
X0178888Y0049391D03*
X0176526Y0049391D03*
X0176526Y0112729D03*
X0178888Y0112729D03*
X0181250Y0112729D03*
X0183612Y0112729D03*
X0185974Y0112729D03*
X0185974Y0121391D03*
X0183612Y0121391D03*
X0181250Y0121391D03*
X0178888Y0121391D03*
X0176526Y0121391D03*
X0176526Y0184729D03*
X0178888Y0184729D03*
X0181250Y0184729D03*
X0183612Y0184729D03*
X0185974Y0184729D03*
X0185974Y0193391D03*
X0183612Y0193391D03*
X0181250Y0193391D03*
X0178888Y0193391D03*
X0176526Y0193391D03*
D15*
X0181250Y0189060D03*
X0109250Y0189060D03*
X0037250Y0189060D03*
X0037250Y0117060D03*
X0037250Y0045060D03*
X0109250Y0045060D03*
X0109250Y0117060D03*
X0181250Y0117060D03*
X0181250Y0045060D03*
D16*
X0177562Y0043407D02*
X0175200Y0043407D01*
X0174438Y0042646D01*
X0174438Y0038813D01*
X0174804Y0038447D01*
X0173349Y0036992D01*
X0172900Y0037440D01*
X0172900Y0047743D01*
X0171933Y0048710D01*
X0170587Y0050056D01*
X0170018Y0050056D01*
X0170018Y0050410D01*
X0174438Y0050410D01*
X0174438Y0047474D01*
X0175200Y0046713D01*
X0187300Y0046713D01*
X0188062Y0047474D01*
X0188062Y0047741D01*
X0191100Y0047741D01*
X0191100Y0041877D01*
X0192067Y0040910D01*
X0192913Y0040064D01*
X0192981Y0040064D01*
X0192981Y0039359D01*
X0192864Y0039476D01*
X0191817Y0039910D01*
X0190683Y0039910D01*
X0189636Y0039476D01*
X0188869Y0038710D01*
X0187959Y0038710D01*
X0188062Y0038813D01*
X0188062Y0042646D01*
X0187300Y0043407D01*
X0177562Y0043407D01*
X0174796Y0043003D02*
X0172900Y0043003D01*
X0172900Y0042005D02*
X0174438Y0042005D01*
X0174438Y0041006D02*
X0172900Y0041006D01*
X0172900Y0040008D02*
X0174438Y0040008D01*
X0174438Y0039009D02*
X0172900Y0039009D01*
X0172900Y0038011D02*
X0174367Y0038011D01*
X0173369Y0037012D02*
X0173328Y0037012D01*
X0172900Y0044002D02*
X0191100Y0044002D01*
X0191100Y0045000D02*
X0172900Y0045000D01*
X0172900Y0045999D02*
X0191100Y0045999D01*
X0191100Y0046997D02*
X0187585Y0046997D01*
X0187704Y0043003D02*
X0191100Y0043003D01*
X0191100Y0042005D02*
X0188062Y0042005D01*
X0188062Y0041006D02*
X0191970Y0041006D01*
X0192981Y0040008D02*
X0188062Y0040008D01*
X0188062Y0039009D02*
X0189169Y0039009D01*
X0188869Y0035410D02*
X0189636Y0034644D01*
X0190683Y0034210D01*
X0191817Y0034210D01*
X0192864Y0034644D01*
X0193666Y0035446D01*
X0194100Y0036493D01*
X0194100Y0037627D01*
X0193843Y0038248D01*
X0194600Y0038248D01*
X0194600Y0033877D01*
X0195567Y0032910D01*
X0199600Y0028877D01*
X0199600Y0014788D01*
X0198418Y0014299D01*
X0197011Y0012892D01*
X0196250Y0011055D01*
X0195489Y0012892D01*
X0194082Y0014299D01*
X0192245Y0015060D01*
X0190255Y0015060D01*
X0188418Y0014299D01*
X0187011Y0012892D01*
X0186250Y0011055D01*
X0185489Y0012892D01*
X0184082Y0014299D01*
X0182245Y0015060D01*
X0180255Y0015060D01*
X0178418Y0014299D01*
X0177011Y0012892D01*
X0176250Y0011055D01*
X0175489Y0012892D01*
X0174082Y0014299D01*
X0173191Y0014668D01*
X0176933Y0018410D01*
X0183869Y0018410D01*
X0184636Y0017644D01*
X0185683Y0017210D01*
X0186817Y0017210D01*
X0187864Y0017644D01*
X0188666Y0018446D01*
X0189100Y0019493D01*
X0189100Y0020627D01*
X0188666Y0021674D01*
X0187900Y0022440D01*
X0187900Y0025743D01*
X0187054Y0026590D01*
X0187054Y0026791D01*
X0188107Y0026791D01*
X0188641Y0027325D01*
X0188731Y0027170D01*
X0189010Y0026891D01*
X0189352Y0026694D01*
X0189734Y0026591D01*
X0191612Y0026591D01*
X0191612Y0029576D01*
X0192581Y0029576D01*
X0192581Y0030544D01*
X0195762Y0030544D01*
X0195762Y0032226D01*
X0195660Y0032607D01*
X0195462Y0032950D01*
X0195183Y0033229D01*
X0194841Y0033426D01*
X0194459Y0033528D01*
X0192581Y0033528D01*
X0192581Y0030544D01*
X0191612Y0030544D01*
X0191612Y0033528D01*
X0189734Y0033528D01*
X0189352Y0033426D01*
X0189010Y0033229D01*
X0188731Y0032950D01*
X0188641Y0032795D01*
X0188107Y0033328D01*
X0182900Y0033328D01*
X0182900Y0036077D01*
X0182929Y0036048D01*
X0183567Y0035410D01*
X0188869Y0035410D01*
X0189264Y0035015D02*
X0182900Y0035015D01*
X0182900Y0034017D02*
X0194600Y0034017D01*
X0194600Y0035015D02*
X0193236Y0035015D01*
X0193901Y0036014D02*
X0194600Y0036014D01*
X0194600Y0037012D02*
X0194100Y0037012D01*
X0193941Y0038011D02*
X0194600Y0038011D01*
X0197900Y0038011D02*
X0201687Y0038011D01*
X0202011Y0037228D02*
X0201250Y0039065D01*
X0201250Y0041055D01*
X0202011Y0042892D01*
X0203418Y0044299D01*
X0205255Y0045060D01*
X0207245Y0045060D01*
X0209082Y0044299D01*
X0210489Y0042892D01*
X0211250Y0041055D01*
X0211250Y0039065D01*
X0210489Y0037228D01*
X0209082Y0035821D01*
X0207245Y0035060D01*
X0205255Y0035060D01*
X0203418Y0035821D01*
X0202011Y0037228D01*
X0202227Y0037012D02*
X0197900Y0037012D01*
X0197900Y0036014D02*
X0203225Y0036014D01*
X0201273Y0039009D02*
X0199518Y0039009D01*
X0199518Y0039010D02*
X0199518Y0044417D01*
X0198876Y0045060D01*
X0199518Y0045703D01*
X0199518Y0046756D01*
X0200280Y0046756D01*
X0201642Y0048119D01*
X0202011Y0047228D01*
X0203418Y0045821D01*
X0205255Y0045060D01*
X0207245Y0045060D01*
X0209082Y0045821D01*
X0210489Y0047228D01*
X0211250Y0049065D01*
X0211250Y0051055D01*
X0210489Y0052892D01*
X0209082Y0054299D01*
X0208889Y0054379D01*
X0210496Y0054810D01*
X0211350Y0055303D01*
X0211350Y0010560D01*
X0210750Y0010560D01*
X0210750Y0015246D01*
X0210032Y0015132D01*
X0209518Y0014965D01*
X0209518Y0015710D01*
X0209021Y0016911D01*
X0208101Y0017831D01*
X0206900Y0018328D01*
X0205600Y0018328D01*
X0204399Y0017831D01*
X0203479Y0016911D01*
X0202981Y0015710D01*
X0202981Y0014755D01*
X0202900Y0014788D01*
X0202900Y0030243D01*
X0197900Y0035243D01*
X0197900Y0038248D01*
X0198757Y0038248D01*
X0199518Y0039010D01*
X0199518Y0040008D02*
X0201250Y0040008D01*
X0201250Y0041006D02*
X0199518Y0041006D01*
X0199518Y0042005D02*
X0201644Y0042005D01*
X0202122Y0043003D02*
X0199518Y0043003D01*
X0199518Y0044002D02*
X0203121Y0044002D01*
X0203240Y0045999D02*
X0199518Y0045999D01*
X0198935Y0045000D02*
X0205112Y0045000D01*
X0207388Y0045000D02*
X0211350Y0045000D01*
X0211350Y0044002D02*
X0209379Y0044002D01*
X0210378Y0043003D02*
X0211350Y0043003D01*
X0211350Y0042005D02*
X0210856Y0042005D01*
X0211250Y0041006D02*
X0211350Y0041006D01*
X0211350Y0040008D02*
X0211250Y0040008D01*
X0211227Y0039009D02*
X0211350Y0039009D01*
X0211350Y0038011D02*
X0210813Y0038011D01*
X0211350Y0037012D02*
X0210273Y0037012D01*
X0209275Y0036014D02*
X0211350Y0036014D01*
X0211350Y0035015D02*
X0198128Y0035015D01*
X0199127Y0034017D02*
X0211350Y0034017D01*
X0211350Y0033018D02*
X0200125Y0033018D01*
X0201124Y0032020D02*
X0211350Y0032020D01*
X0211350Y0031021D02*
X0202122Y0031021D01*
X0202900Y0030023D02*
X0211350Y0030023D01*
X0211350Y0029024D02*
X0202900Y0029024D01*
X0202900Y0028026D02*
X0211350Y0028026D01*
X0211350Y0027027D02*
X0202900Y0027027D01*
X0202900Y0026029D02*
X0211350Y0026029D01*
X0211350Y0025030D02*
X0202900Y0025030D01*
X0202900Y0024032D02*
X0211350Y0024032D01*
X0211350Y0023033D02*
X0202900Y0023033D01*
X0202900Y0022035D02*
X0211350Y0022035D01*
X0211350Y0021036D02*
X0202900Y0021036D01*
X0202900Y0020038D02*
X0211350Y0020038D01*
X0211350Y0019039D02*
X0202900Y0019039D01*
X0202900Y0018041D02*
X0204905Y0018041D01*
X0203610Y0017042D02*
X0202900Y0017042D01*
X0202900Y0016044D02*
X0203120Y0016044D01*
X0202981Y0015045D02*
X0202900Y0015045D01*
X0199600Y0015045D02*
X0192280Y0015045D01*
X0190220Y0015045D02*
X0182280Y0015045D01*
X0180220Y0015045D02*
X0173569Y0015045D01*
X0174334Y0014047D02*
X0178166Y0014047D01*
X0177167Y0013048D02*
X0175333Y0013048D01*
X0175838Y0012050D02*
X0176662Y0012050D01*
X0176250Y0011055D02*
X0176250Y0009960D01*
X0176250Y0009960D01*
X0176250Y0011055D01*
X0176250Y0011051D02*
X0176250Y0011051D01*
X0176250Y0010053D02*
X0176250Y0010053D01*
X0174567Y0016044D02*
X0199600Y0016044D01*
X0199600Y0017042D02*
X0175566Y0017042D01*
X0176564Y0018041D02*
X0184239Y0018041D01*
X0188261Y0018041D02*
X0199600Y0018041D01*
X0199600Y0019039D02*
X0188912Y0019039D01*
X0189100Y0020038D02*
X0199600Y0020038D01*
X0199600Y0021036D02*
X0188930Y0021036D01*
X0188306Y0022035D02*
X0199600Y0022035D01*
X0199600Y0023033D02*
X0187900Y0023033D01*
X0187900Y0024032D02*
X0199600Y0024032D01*
X0199600Y0025030D02*
X0187900Y0025030D01*
X0187615Y0026029D02*
X0199600Y0026029D01*
X0199600Y0027027D02*
X0195319Y0027027D01*
X0195183Y0026891D02*
X0195462Y0027170D01*
X0195660Y0027512D01*
X0195762Y0027894D01*
X0195762Y0029576D01*
X0192581Y0029576D01*
X0192581Y0026591D01*
X0194459Y0026591D01*
X0194841Y0026694D01*
X0195183Y0026891D01*
X0195762Y0028026D02*
X0199600Y0028026D01*
X0199452Y0029024D02*
X0195762Y0029024D01*
X0195762Y0031021D02*
X0197455Y0031021D01*
X0198454Y0030023D02*
X0192581Y0030023D01*
X0192581Y0031021D02*
X0191612Y0031021D01*
X0191612Y0032020D02*
X0192581Y0032020D01*
X0192581Y0033018D02*
X0191612Y0033018D01*
X0188800Y0033018D02*
X0188418Y0033018D01*
X0191612Y0029024D02*
X0192581Y0029024D01*
X0192581Y0028026D02*
X0191612Y0028026D01*
X0191612Y0027027D02*
X0192581Y0027027D01*
X0188874Y0027027D02*
X0188343Y0027027D01*
X0195762Y0032020D02*
X0196457Y0032020D01*
X0195458Y0033018D02*
X0195393Y0033018D01*
X0182963Y0036014D02*
X0182900Y0036014D01*
X0182929Y0036048D02*
X0182929Y0036048D01*
X0174915Y0046997D02*
X0172900Y0046997D01*
X0172647Y0047996D02*
X0174438Y0047996D01*
X0174438Y0048994D02*
X0171649Y0048994D01*
X0170650Y0049993D02*
X0174438Y0049993D01*
X0174238Y0055710D02*
X0174066Y0055710D01*
X0173666Y0056674D01*
X0172864Y0057476D01*
X0171817Y0057910D01*
X0170683Y0057910D01*
X0169636Y0057476D01*
X0168834Y0056674D01*
X0168434Y0055710D01*
X0165983Y0055710D01*
X0166100Y0055993D01*
X0166100Y0057077D01*
X0171433Y0062410D01*
X0181067Y0062410D01*
X0182648Y0060828D01*
X0181893Y0060828D01*
X0181359Y0060295D01*
X0181269Y0060450D01*
X0180990Y0060729D01*
X0180648Y0060926D01*
X0180266Y0061028D01*
X0178388Y0061028D01*
X0178388Y0058044D01*
X0177419Y0058044D01*
X0177419Y0057076D01*
X0174238Y0057076D01*
X0174238Y0055710D01*
X0174238Y0055984D02*
X0173952Y0055984D01*
X0174238Y0056983D02*
X0173358Y0056983D01*
X0174238Y0058044D02*
X0177419Y0058044D01*
X0177419Y0061028D01*
X0175541Y0061028D01*
X0175159Y0060926D01*
X0174817Y0060729D01*
X0174538Y0060450D01*
X0174340Y0060107D01*
X0174238Y0059726D01*
X0174238Y0058044D01*
X0174238Y0058980D02*
X0168003Y0058980D01*
X0169002Y0059978D02*
X0174306Y0059978D01*
X0175347Y0060977D02*
X0170000Y0060977D01*
X0170999Y0061975D02*
X0181501Y0061975D01*
X0182500Y0060977D02*
X0180460Y0060977D01*
X0178388Y0060977D02*
X0177419Y0060977D01*
X0177419Y0059978D02*
X0178388Y0059978D01*
X0178388Y0058980D02*
X0177419Y0058980D01*
X0177419Y0057981D02*
X0167005Y0057981D01*
X0166100Y0056983D02*
X0169142Y0056983D01*
X0168548Y0055984D02*
X0166096Y0055984D01*
X0166987Y0062630D02*
X0167250Y0063612D01*
X0167250Y0066508D01*
X0166500Y0069306D01*
X0166007Y0070160D01*
X0196493Y0070160D01*
X0196000Y0069306D01*
X0195250Y0066508D01*
X0195250Y0063612D01*
X0196000Y0060814D01*
X0197448Y0058306D01*
X0199496Y0056258D01*
X0202004Y0054810D01*
X0203611Y0054379D01*
X0203418Y0054299D01*
X0202011Y0052892D01*
X0201521Y0051710D01*
X0200567Y0051710D01*
X0199600Y0050743D01*
X0199518Y0050662D01*
X0199518Y0051110D01*
X0198757Y0051872D01*
X0194400Y0051872D01*
X0194400Y0055243D01*
X0193433Y0056210D01*
X0191400Y0058243D01*
X0191400Y0058243D01*
X0190433Y0059210D01*
X0188062Y0059210D01*
X0188062Y0060067D01*
X0187300Y0060828D01*
X0186246Y0060828D01*
X0186246Y0061897D01*
X0185280Y0062864D01*
X0182433Y0065710D01*
X0170067Y0065710D01*
X0166987Y0062630D01*
X0167079Y0062974D02*
X0167330Y0062974D01*
X0167250Y0063972D02*
X0168329Y0063972D01*
X0169327Y0064971D02*
X0167250Y0064971D01*
X0167250Y0065969D02*
X0195250Y0065969D01*
X0195250Y0064971D02*
X0183173Y0064971D01*
X0184171Y0063972D02*
X0195250Y0063972D01*
X0195421Y0062974D02*
X0185170Y0062974D01*
X0186168Y0061975D02*
X0195689Y0061975D01*
X0195956Y0060977D02*
X0186246Y0060977D01*
X0188062Y0059978D02*
X0196482Y0059978D01*
X0197059Y0058980D02*
X0190664Y0058980D01*
X0191662Y0057981D02*
X0197773Y0057981D01*
X0198771Y0056983D02*
X0192661Y0056983D01*
X0193433Y0056210D02*
X0193433Y0056210D01*
X0193659Y0055984D02*
X0199970Y0055984D01*
X0201699Y0054986D02*
X0194400Y0054986D01*
X0194400Y0053987D02*
X0203106Y0053987D01*
X0202107Y0052989D02*
X0194400Y0052989D01*
X0194400Y0051990D02*
X0201637Y0051990D01*
X0199848Y0050992D02*
X0199518Y0050992D01*
X0201519Y0047996D02*
X0201693Y0047996D01*
X0202241Y0046997D02*
X0200521Y0046997D01*
X0209260Y0045999D02*
X0211350Y0045999D01*
X0211350Y0046997D02*
X0210259Y0046997D01*
X0210807Y0047996D02*
X0211350Y0047996D01*
X0211350Y0048994D02*
X0211221Y0048994D01*
X0211250Y0049993D02*
X0211350Y0049993D01*
X0211350Y0050992D02*
X0211250Y0050992D01*
X0211350Y0051990D02*
X0210863Y0051990D01*
X0210393Y0052989D02*
X0211350Y0052989D01*
X0211350Y0053987D02*
X0209394Y0053987D01*
X0210801Y0054986D02*
X0211350Y0054986D01*
X0195373Y0066968D02*
X0167127Y0066968D01*
X0166859Y0067966D02*
X0195641Y0067966D01*
X0195908Y0068965D02*
X0166592Y0068965D01*
X0166121Y0069963D02*
X0196379Y0069963D01*
X0196250Y0081960D02*
X0196250Y0083055D01*
X0195489Y0084892D01*
X0194082Y0086299D01*
X0192245Y0087060D01*
X0190255Y0087060D01*
X0188418Y0086299D01*
X0187011Y0084892D01*
X0186250Y0083055D01*
X0185489Y0084892D01*
X0184082Y0086299D01*
X0182245Y0087060D01*
X0180255Y0087060D01*
X0178418Y0086299D01*
X0177011Y0084892D01*
X0176250Y0083055D01*
X0175489Y0084892D01*
X0174082Y0086299D01*
X0173191Y0086668D01*
X0176933Y0090410D01*
X0183869Y0090410D01*
X0184636Y0089644D01*
X0185683Y0089210D01*
X0186817Y0089210D01*
X0187864Y0089644D01*
X0188666Y0090446D01*
X0189100Y0091493D01*
X0189100Y0092627D01*
X0188666Y0093674D01*
X0187900Y0094440D01*
X0187900Y0097743D01*
X0187054Y0098590D01*
X0187054Y0098791D01*
X0188107Y0098791D01*
X0188641Y0099325D01*
X0188731Y0099170D01*
X0189010Y0098891D01*
X0189352Y0098694D01*
X0189734Y0098591D01*
X0191612Y0098591D01*
X0191612Y0101576D01*
X0192581Y0101576D01*
X0192581Y0102544D01*
X0195762Y0102544D01*
X0195762Y0104226D01*
X0195660Y0104607D01*
X0195462Y0104950D01*
X0195183Y0105229D01*
X0194841Y0105426D01*
X0194459Y0105528D01*
X0192581Y0105528D01*
X0192581Y0102544D01*
X0191612Y0102544D01*
X0191612Y0105528D01*
X0189734Y0105528D01*
X0189352Y0105426D01*
X0189010Y0105229D01*
X0188731Y0104950D01*
X0188641Y0104795D01*
X0188107Y0105328D01*
X0182900Y0105328D01*
X0182900Y0108077D01*
X0183567Y0107410D01*
X0188870Y0107410D01*
X0189636Y0106644D01*
X0190683Y0106210D01*
X0191817Y0106210D01*
X0192864Y0106644D01*
X0193666Y0107446D01*
X0194100Y0108493D01*
X0194100Y0109627D01*
X0193843Y0110248D01*
X0194600Y0110248D01*
X0194600Y0105877D01*
X0195567Y0104910D01*
X0199600Y0100877D01*
X0199600Y0086788D01*
X0198418Y0086299D01*
X0197011Y0084892D01*
X0196250Y0083055D01*
X0196250Y0081960D01*
X0196250Y0081960D01*
X0196250Y0082944D02*
X0196250Y0082944D01*
X0195882Y0083942D02*
X0196618Y0083942D01*
X0197060Y0084941D02*
X0195440Y0084941D01*
X0194442Y0085939D02*
X0198058Y0085939D01*
X0199600Y0086938D02*
X0192539Y0086938D01*
X0189961Y0086938D02*
X0182539Y0086938D01*
X0184442Y0085939D02*
X0188058Y0085939D01*
X0187060Y0084941D02*
X0185440Y0084941D01*
X0185882Y0083942D02*
X0186618Y0083942D01*
X0186250Y0083055D02*
X0186250Y0081960D01*
X0186250Y0083055D01*
X0186250Y0082944D02*
X0186250Y0082944D01*
X0186250Y0081960D02*
X0186250Y0081960D01*
X0179961Y0086938D02*
X0173461Y0086938D01*
X0174442Y0085939D02*
X0178058Y0085939D01*
X0177060Y0084941D02*
X0175440Y0084941D01*
X0175882Y0083942D02*
X0176618Y0083942D01*
X0176250Y0083055D02*
X0176250Y0081960D01*
X0176250Y0083055D01*
X0176250Y0082944D02*
X0176250Y0082944D01*
X0176250Y0081960D02*
X0176250Y0081960D01*
X0174460Y0087936D02*
X0199600Y0087936D01*
X0199600Y0088935D02*
X0175458Y0088935D01*
X0176457Y0089933D02*
X0184346Y0089933D01*
X0188154Y0089933D02*
X0199600Y0089933D01*
X0199600Y0090932D02*
X0188868Y0090932D01*
X0189100Y0091930D02*
X0199600Y0091930D01*
X0199600Y0092929D02*
X0188975Y0092929D01*
X0188413Y0093927D02*
X0199600Y0093927D01*
X0199600Y0094926D02*
X0187900Y0094926D01*
X0187900Y0095925D02*
X0199600Y0095925D01*
X0199600Y0096923D02*
X0187900Y0096923D01*
X0187722Y0097922D02*
X0199600Y0097922D01*
X0199600Y0098920D02*
X0195212Y0098920D01*
X0195183Y0098891D02*
X0195462Y0099170D01*
X0195660Y0099512D01*
X0195762Y0099894D01*
X0195762Y0101576D01*
X0192581Y0101576D01*
X0192581Y0098591D01*
X0194459Y0098591D01*
X0194841Y0098694D01*
X0195183Y0098891D01*
X0195762Y0099919D02*
X0199600Y0099919D01*
X0199559Y0100917D02*
X0195762Y0100917D01*
X0195762Y0102914D02*
X0197562Y0102914D01*
X0196564Y0103913D02*
X0195762Y0103913D01*
X0195565Y0104911D02*
X0195484Y0104911D01*
X0194600Y0105910D02*
X0182900Y0105910D01*
X0182900Y0106908D02*
X0189371Y0106908D01*
X0188709Y0104911D02*
X0188525Y0104911D01*
X0191612Y0104911D02*
X0192581Y0104911D01*
X0192581Y0103913D02*
X0191612Y0103913D01*
X0191612Y0102914D02*
X0192581Y0102914D01*
X0192581Y0101916D02*
X0198561Y0101916D01*
X0201231Y0103913D02*
X0211350Y0103913D01*
X0211350Y0104911D02*
X0200232Y0104911D01*
X0199234Y0105910D02*
X0211350Y0105910D01*
X0211350Y0106908D02*
X0198235Y0106908D01*
X0197900Y0107243D02*
X0197900Y0110248D01*
X0198757Y0110248D01*
X0199518Y0111010D01*
X0199518Y0116417D01*
X0198876Y0117060D01*
X0199518Y0117703D01*
X0199518Y0118756D01*
X0200280Y0118756D01*
X0201642Y0120119D01*
X0202011Y0119228D01*
X0203418Y0117821D01*
X0205255Y0117060D01*
X0203418Y0116299D01*
X0202011Y0114892D01*
X0201250Y0113055D01*
X0201250Y0111065D01*
X0202011Y0109228D01*
X0203418Y0107821D01*
X0205255Y0107060D01*
X0207245Y0107060D01*
X0209082Y0107821D01*
X0210489Y0109228D01*
X0211250Y0111065D01*
X0211250Y0113055D01*
X0210489Y0114892D01*
X0209082Y0116299D01*
X0207245Y0117060D01*
X0205255Y0117060D01*
X0207245Y0117060D01*
X0209082Y0117821D01*
X0210489Y0119228D01*
X0211250Y0121065D01*
X0211250Y0123055D01*
X0210489Y0124892D01*
X0209082Y0126299D01*
X0208889Y0126379D01*
X0210496Y0126810D01*
X0211350Y0127303D01*
X0211350Y0082560D01*
X0210750Y0082560D01*
X0210750Y0087246D01*
X0210032Y0087132D01*
X0209518Y0086965D01*
X0209518Y0087710D01*
X0209021Y0088911D01*
X0208101Y0089831D01*
X0206900Y0090328D01*
X0205600Y0090328D01*
X0204399Y0089831D01*
X0203479Y0088911D01*
X0202981Y0087710D01*
X0202981Y0086755D01*
X0202900Y0086788D01*
X0202900Y0102243D01*
X0197900Y0107243D01*
X0197900Y0107907D02*
X0203332Y0107907D01*
X0202334Y0108905D02*
X0197900Y0108905D01*
X0197900Y0109904D02*
X0201731Y0109904D01*
X0201318Y0110902D02*
X0199411Y0110902D01*
X0199518Y0111901D02*
X0201250Y0111901D01*
X0201250Y0112899D02*
X0199518Y0112899D01*
X0199518Y0113898D02*
X0201599Y0113898D01*
X0202015Y0114896D02*
X0199518Y0114896D01*
X0199518Y0115895D02*
X0203014Y0115895D01*
X0203347Y0117892D02*
X0199518Y0117892D01*
X0199043Y0116893D02*
X0204853Y0116893D01*
X0207647Y0116893D02*
X0211350Y0116893D01*
X0211350Y0115895D02*
X0209486Y0115895D01*
X0210485Y0114896D02*
X0211350Y0114896D01*
X0211350Y0113898D02*
X0210901Y0113898D01*
X0211250Y0112899D02*
X0211350Y0112899D01*
X0211350Y0111901D02*
X0211250Y0111901D01*
X0211182Y0110902D02*
X0211350Y0110902D01*
X0211350Y0109904D02*
X0210769Y0109904D01*
X0211350Y0108905D02*
X0210166Y0108905D01*
X0209168Y0107907D02*
X0211350Y0107907D01*
X0211350Y0102914D02*
X0202229Y0102914D01*
X0202900Y0101916D02*
X0211350Y0101916D01*
X0211350Y0100917D02*
X0202900Y0100917D01*
X0202900Y0099919D02*
X0211350Y0099919D01*
X0211350Y0098920D02*
X0202900Y0098920D01*
X0202900Y0097922D02*
X0211350Y0097922D01*
X0211350Y0096923D02*
X0202900Y0096923D01*
X0202900Y0095925D02*
X0211350Y0095925D01*
X0211350Y0094926D02*
X0202900Y0094926D01*
X0202900Y0093927D02*
X0211350Y0093927D01*
X0211350Y0092929D02*
X0202900Y0092929D01*
X0202900Y0091930D02*
X0211350Y0091930D01*
X0211350Y0090932D02*
X0202900Y0090932D01*
X0202900Y0089933D02*
X0204646Y0089933D01*
X0203503Y0088935D02*
X0202900Y0088935D01*
X0202900Y0087936D02*
X0203075Y0087936D01*
X0202981Y0086938D02*
X0202900Y0086938D01*
X0207854Y0089933D02*
X0211350Y0089933D01*
X0211350Y0088935D02*
X0208997Y0088935D01*
X0209425Y0087936D02*
X0211350Y0087936D01*
X0211350Y0086938D02*
X0210750Y0086938D01*
X0210750Y0085939D02*
X0211350Y0085939D01*
X0211350Y0084941D02*
X0210750Y0084941D01*
X0210750Y0083942D02*
X0211350Y0083942D01*
X0211350Y0082944D02*
X0210750Y0082944D01*
X0192581Y0098920D02*
X0191612Y0098920D01*
X0191612Y0099919D02*
X0192581Y0099919D01*
X0192581Y0100917D02*
X0191612Y0100917D01*
X0188981Y0098920D02*
X0188236Y0098920D01*
X0193129Y0106908D02*
X0194600Y0106908D01*
X0194600Y0107907D02*
X0193857Y0107907D01*
X0194100Y0108905D02*
X0194600Y0108905D01*
X0194600Y0109904D02*
X0193985Y0109904D01*
X0192981Y0111359D02*
X0192864Y0111476D01*
X0191817Y0111910D01*
X0190683Y0111910D01*
X0189636Y0111476D01*
X0188870Y0110710D01*
X0187959Y0110710D01*
X0188062Y0110813D01*
X0188062Y0114646D01*
X0187300Y0115407D01*
X0177562Y0115407D01*
X0175200Y0115407D01*
X0174438Y0114646D01*
X0174438Y0110813D01*
X0174804Y0110447D01*
X0173349Y0108992D01*
X0172900Y0109440D01*
X0172900Y0119743D01*
X0171933Y0120710D01*
X0170587Y0122056D01*
X0170018Y0122056D01*
X0170018Y0122410D01*
X0174438Y0122410D01*
X0174438Y0119474D01*
X0175200Y0118713D01*
X0187300Y0118713D01*
X0188062Y0119474D01*
X0188062Y0119741D01*
X0191100Y0119741D01*
X0191100Y0113877D01*
X0192067Y0112910D01*
X0192913Y0112064D01*
X0192981Y0112064D01*
X0192981Y0111359D01*
X0192981Y0111901D02*
X0191839Y0111901D01*
X0192077Y0112899D02*
X0188062Y0112899D01*
X0188062Y0111901D02*
X0190661Y0111901D01*
X0189062Y0110902D02*
X0188062Y0110902D01*
X0188062Y0113898D02*
X0191100Y0113898D01*
X0191100Y0114896D02*
X0187811Y0114896D01*
X0191100Y0115895D02*
X0172900Y0115895D01*
X0172900Y0116893D02*
X0191100Y0116893D01*
X0191100Y0117892D02*
X0172900Y0117892D01*
X0172900Y0118890D02*
X0175022Y0118890D01*
X0174438Y0119889D02*
X0172755Y0119889D01*
X0171756Y0120887D02*
X0174438Y0120887D01*
X0174438Y0121886D02*
X0170758Y0121886D01*
X0168434Y0127710D02*
X0165983Y0127710D01*
X0166100Y0127993D01*
X0166100Y0129077D01*
X0171433Y0134410D01*
X0181067Y0134410D01*
X0182648Y0132828D01*
X0181893Y0132828D01*
X0181359Y0132295D01*
X0181269Y0132450D01*
X0180990Y0132729D01*
X0180648Y0132926D01*
X0180266Y0133028D01*
X0178388Y0133028D01*
X0178388Y0130044D01*
X0177419Y0130044D01*
X0177419Y0129076D01*
X0174238Y0129076D01*
X0174238Y0127710D01*
X0174066Y0127710D01*
X0173666Y0128674D01*
X0172864Y0129476D01*
X0171817Y0129910D01*
X0170683Y0129910D01*
X0169636Y0129476D01*
X0168834Y0128674D01*
X0168434Y0127710D01*
X0168504Y0127877D02*
X0166052Y0127877D01*
X0166100Y0128875D02*
X0169035Y0128875D01*
X0170596Y0129874D02*
X0166897Y0129874D01*
X0167896Y0130872D02*
X0174238Y0130872D01*
X0174238Y0130044D02*
X0174238Y0131726D01*
X0174340Y0132107D01*
X0174538Y0132450D01*
X0174817Y0132729D01*
X0175159Y0132926D01*
X0175541Y0133028D01*
X0177419Y0133028D01*
X0177419Y0130044D01*
X0174238Y0130044D01*
X0174238Y0128875D02*
X0173465Y0128875D01*
X0173996Y0127877D02*
X0174238Y0127877D01*
X0171904Y0129874D02*
X0177419Y0129874D01*
X0177419Y0130872D02*
X0178388Y0130872D01*
X0178388Y0131871D02*
X0177419Y0131871D01*
X0177419Y0132869D02*
X0178388Y0132869D01*
X0180746Y0132869D02*
X0182607Y0132869D01*
X0181609Y0133868D02*
X0170891Y0133868D01*
X0169893Y0132869D02*
X0175061Y0132869D01*
X0174277Y0131871D02*
X0168894Y0131871D01*
X0166987Y0134630D02*
X0167250Y0135612D01*
X0167250Y0138508D01*
X0166500Y0141306D01*
X0166007Y0142160D01*
X0196493Y0142160D01*
X0196000Y0141306D01*
X0195250Y0138508D01*
X0195250Y0135612D01*
X0196000Y0132814D01*
X0197448Y0130306D01*
X0199496Y0128258D01*
X0202004Y0126810D01*
X0203611Y0126379D01*
X0203418Y0126299D01*
X0202011Y0124892D01*
X0201521Y0123710D01*
X0200567Y0123710D01*
X0199600Y0122743D01*
X0199518Y0122662D01*
X0199518Y0123110D01*
X0198757Y0123872D01*
X0194400Y0123872D01*
X0194400Y0127243D01*
X0190433Y0131210D01*
X0188062Y0131210D01*
X0188062Y0132067D01*
X0187300Y0132828D01*
X0186246Y0132828D01*
X0186246Y0133897D01*
X0185280Y0134864D01*
X0182433Y0137710D01*
X0170067Y0137710D01*
X0166987Y0134630D01*
X0167050Y0134866D02*
X0167223Y0134866D01*
X0167250Y0135865D02*
X0168222Y0135865D01*
X0167250Y0136863D02*
X0169220Y0136863D01*
X0167250Y0137862D02*
X0195250Y0137862D01*
X0195250Y0136863D02*
X0183280Y0136863D01*
X0184278Y0135865D02*
X0195250Y0135865D01*
X0195450Y0134866D02*
X0185277Y0134866D01*
X0186246Y0133868D02*
X0195717Y0133868D01*
X0195985Y0132869D02*
X0186246Y0132869D01*
X0188062Y0131871D02*
X0196544Y0131871D01*
X0197121Y0130872D02*
X0190771Y0130872D01*
X0191770Y0129874D02*
X0197880Y0129874D01*
X0198878Y0128875D02*
X0192768Y0128875D01*
X0193767Y0127877D02*
X0200156Y0127877D01*
X0201885Y0126878D02*
X0194400Y0126878D01*
X0194400Y0125880D02*
X0202999Y0125880D01*
X0202007Y0124881D02*
X0194400Y0124881D01*
X0194400Y0123883D02*
X0201593Y0123883D01*
X0199741Y0122884D02*
X0199518Y0122884D01*
X0201412Y0119889D02*
X0201737Y0119889D01*
X0202349Y0118890D02*
X0200414Y0118890D01*
X0209153Y0117892D02*
X0211350Y0117892D01*
X0211350Y0118890D02*
X0210151Y0118890D01*
X0210763Y0119889D02*
X0211350Y0119889D01*
X0211350Y0120887D02*
X0211176Y0120887D01*
X0211250Y0121886D02*
X0211350Y0121886D01*
X0211350Y0122884D02*
X0211250Y0122884D01*
X0211350Y0123883D02*
X0210907Y0123883D01*
X0210493Y0124881D02*
X0211350Y0124881D01*
X0211350Y0125880D02*
X0209501Y0125880D01*
X0210615Y0126878D02*
X0211350Y0126878D01*
X0195344Y0138861D02*
X0167156Y0138861D01*
X0166888Y0139859D02*
X0195612Y0139859D01*
X0195880Y0140858D02*
X0166620Y0140858D01*
X0166183Y0141856D02*
X0196317Y0141856D01*
X0196250Y0153960D02*
X0196250Y0155055D01*
X0195489Y0156892D01*
X0194082Y0158299D01*
X0192245Y0159060D01*
X0190255Y0159060D01*
X0188418Y0158299D01*
X0187011Y0156892D01*
X0186250Y0155055D01*
X0185489Y0156892D01*
X0184082Y0158299D01*
X0182245Y0159060D01*
X0180255Y0159060D01*
X0178418Y0158299D01*
X0177011Y0156892D01*
X0176250Y0155055D01*
X0175489Y0156892D01*
X0174082Y0158299D01*
X0173191Y0158668D01*
X0176933Y0162410D01*
X0183869Y0162410D01*
X0184636Y0161644D01*
X0185683Y0161210D01*
X0186817Y0161210D01*
X0187864Y0161644D01*
X0188666Y0162446D01*
X0189100Y0163493D01*
X0189100Y0164627D01*
X0188666Y0165674D01*
X0187900Y0166440D01*
X0187900Y0169743D01*
X0187054Y0170590D01*
X0187054Y0170791D01*
X0188107Y0170791D01*
X0188641Y0171325D01*
X0188731Y0171170D01*
X0189010Y0170891D01*
X0189352Y0170694D01*
X0189734Y0170591D01*
X0191612Y0170591D01*
X0191612Y0173576D01*
X0192581Y0173576D01*
X0192581Y0174544D01*
X0195762Y0174544D01*
X0195762Y0176226D01*
X0195660Y0176607D01*
X0195462Y0176950D01*
X0195183Y0177229D01*
X0194841Y0177426D01*
X0194459Y0177528D01*
X0192581Y0177528D01*
X0192581Y0174544D01*
X0191612Y0174544D01*
X0191612Y0177528D01*
X0189734Y0177528D01*
X0189352Y0177426D01*
X0189010Y0177229D01*
X0188731Y0176950D01*
X0188641Y0176795D01*
X0188107Y0177328D01*
X0182900Y0177328D01*
X0182900Y0180077D01*
X0182929Y0180048D01*
X0183567Y0179410D01*
X0188869Y0179410D01*
X0189636Y0178644D01*
X0190683Y0178210D01*
X0191817Y0178210D01*
X0192864Y0178644D01*
X0193666Y0179446D01*
X0194100Y0180493D01*
X0194100Y0181627D01*
X0193843Y0182248D01*
X0194600Y0182248D01*
X0194600Y0177877D01*
X0195567Y0176910D01*
X0199600Y0172877D01*
X0199600Y0158788D01*
X0198418Y0158299D01*
X0197011Y0156892D01*
X0196250Y0155055D01*
X0196250Y0153960D01*
X0196250Y0153960D01*
X0196250Y0154837D02*
X0196250Y0154837D01*
X0195927Y0155835D02*
X0196573Y0155835D01*
X0196987Y0156834D02*
X0195513Y0156834D01*
X0194549Y0157832D02*
X0197951Y0157832D01*
X0199600Y0158831D02*
X0192798Y0158831D01*
X0189702Y0158831D02*
X0182798Y0158831D01*
X0184549Y0157832D02*
X0187951Y0157832D01*
X0186987Y0156834D02*
X0185513Y0156834D01*
X0185927Y0155835D02*
X0186573Y0155835D01*
X0186250Y0155055D02*
X0186250Y0153960D01*
X0186250Y0155055D01*
X0186250Y0154837D02*
X0186250Y0154837D01*
X0186250Y0153960D02*
X0186250Y0153960D01*
X0179702Y0158831D02*
X0173354Y0158831D01*
X0174353Y0159829D02*
X0199600Y0159829D01*
X0199600Y0160828D02*
X0175351Y0160828D01*
X0176350Y0161826D02*
X0184453Y0161826D01*
X0188047Y0161826D02*
X0199600Y0161826D01*
X0199600Y0162825D02*
X0188823Y0162825D01*
X0189100Y0163823D02*
X0199600Y0163823D01*
X0199600Y0164822D02*
X0189019Y0164822D01*
X0188520Y0165820D02*
X0199600Y0165820D01*
X0199600Y0166819D02*
X0187900Y0166819D01*
X0187900Y0167817D02*
X0199600Y0167817D01*
X0199600Y0168816D02*
X0187900Y0168816D01*
X0187829Y0169814D02*
X0199600Y0169814D01*
X0199600Y0170813D02*
X0195047Y0170813D01*
X0195183Y0170891D02*
X0194841Y0170694D01*
X0194459Y0170591D01*
X0192581Y0170591D01*
X0192581Y0173576D01*
X0195762Y0173576D01*
X0195762Y0171894D01*
X0195660Y0171513D01*
X0195462Y0171170D01*
X0195183Y0170891D01*
X0195740Y0171811D02*
X0199600Y0171811D01*
X0199600Y0172810D02*
X0195762Y0172810D01*
X0195762Y0174807D02*
X0197670Y0174807D01*
X0198668Y0173808D02*
X0192581Y0173808D01*
X0192581Y0172810D02*
X0191612Y0172810D01*
X0191612Y0171811D02*
X0192581Y0171811D01*
X0192581Y0170813D02*
X0191612Y0170813D01*
X0189146Y0170813D02*
X0188129Y0170813D01*
X0191612Y0174807D02*
X0192581Y0174807D01*
X0192581Y0175805D02*
X0191612Y0175805D01*
X0191612Y0176804D02*
X0192581Y0176804D01*
X0193021Y0178801D02*
X0194600Y0178801D01*
X0194600Y0179799D02*
X0193813Y0179799D01*
X0194100Y0180798D02*
X0194600Y0180798D01*
X0194600Y0181796D02*
X0194030Y0181796D01*
X0192981Y0183359D02*
X0192864Y0183476D01*
X0191817Y0183910D01*
X0190683Y0183910D01*
X0189636Y0183476D01*
X0188869Y0182710D01*
X0187959Y0182710D01*
X0188062Y0182813D01*
X0188062Y0186646D01*
X0187300Y0187407D01*
X0177562Y0187407D01*
X0175200Y0187407D01*
X0174438Y0186646D01*
X0174438Y0182813D01*
X0174804Y0182447D01*
X0173349Y0180992D01*
X0172900Y0181440D01*
X0172900Y0191743D01*
X0171933Y0192710D01*
X0170587Y0194056D01*
X0170018Y0194056D01*
X0170018Y0194410D01*
X0174438Y0194410D01*
X0174438Y0191474D01*
X0175200Y0190713D01*
X0187300Y0190713D01*
X0188062Y0191474D01*
X0188062Y0191741D01*
X0191100Y0191741D01*
X0191100Y0185877D01*
X0192067Y0184910D01*
X0192913Y0184064D01*
X0192981Y0184064D01*
X0192981Y0183359D01*
X0192981Y0183794D02*
X0192098Y0183794D01*
X0192184Y0184792D02*
X0188062Y0184792D01*
X0188062Y0183794D02*
X0190402Y0183794D01*
X0188955Y0182795D02*
X0188044Y0182795D01*
X0188062Y0185791D02*
X0191186Y0185791D01*
X0191100Y0186789D02*
X0187918Y0186789D01*
X0191100Y0187788D02*
X0172900Y0187788D01*
X0172900Y0188786D02*
X0191100Y0188786D01*
X0191100Y0189785D02*
X0172900Y0189785D01*
X0172900Y0190783D02*
X0175129Y0190783D01*
X0174438Y0191782D02*
X0172862Y0191782D01*
X0171863Y0192780D02*
X0174438Y0192780D01*
X0174438Y0193779D02*
X0170865Y0193779D01*
X0168434Y0199710D02*
X0165983Y0199710D01*
X0166100Y0199993D01*
X0166100Y0201077D01*
X0171433Y0206410D01*
X0181067Y0206410D01*
X0182648Y0204828D01*
X0181893Y0204828D01*
X0181359Y0204295D01*
X0181269Y0204450D01*
X0180990Y0204729D01*
X0180648Y0204926D01*
X0180266Y0205028D01*
X0178388Y0205028D01*
X0178388Y0202044D01*
X0177419Y0202044D01*
X0177419Y0201076D01*
X0174238Y0201076D01*
X0174238Y0199710D01*
X0174066Y0199710D01*
X0173666Y0200674D01*
X0172864Y0201476D01*
X0171817Y0201910D01*
X0170683Y0201910D01*
X0169636Y0201476D01*
X0168834Y0200674D01*
X0168434Y0199710D01*
X0168459Y0199770D02*
X0166007Y0199770D01*
X0166100Y0200768D02*
X0168928Y0200768D01*
X0170337Y0201767D02*
X0166790Y0201767D01*
X0167789Y0202765D02*
X0174238Y0202765D01*
X0174238Y0202044D02*
X0177419Y0202044D01*
X0177419Y0205028D01*
X0175541Y0205028D01*
X0175159Y0204926D01*
X0174817Y0204729D01*
X0174538Y0204450D01*
X0174340Y0204107D01*
X0174238Y0203726D01*
X0174238Y0202044D01*
X0174238Y0200768D02*
X0173572Y0200768D01*
X0174041Y0199770D02*
X0174238Y0199770D01*
X0172163Y0201767D02*
X0177419Y0201767D01*
X0177419Y0202765D02*
X0178388Y0202765D01*
X0178388Y0203764D02*
X0177419Y0203764D01*
X0177419Y0204762D02*
X0178388Y0204762D01*
X0180932Y0204762D02*
X0181826Y0204762D01*
X0181716Y0205761D02*
X0170784Y0205761D01*
X0169786Y0204762D02*
X0174875Y0204762D01*
X0174248Y0203764D02*
X0168787Y0203764D01*
X0166987Y0206630D02*
X0167250Y0207612D01*
X0167250Y0210508D01*
X0166500Y0213306D01*
X0166007Y0214160D01*
X0196493Y0214160D01*
X0196000Y0213306D01*
X0195250Y0210508D01*
X0195250Y0207612D01*
X0196000Y0204814D01*
X0197448Y0202306D01*
X0199496Y0200258D01*
X0202004Y0198810D01*
X0203611Y0198379D01*
X0203418Y0198299D01*
X0202011Y0196892D01*
X0201521Y0195710D01*
X0200567Y0195710D01*
X0199600Y0194743D01*
X0199518Y0194662D01*
X0199518Y0195110D01*
X0198757Y0195872D01*
X0194400Y0195872D01*
X0194400Y0199243D01*
X0190433Y0203210D01*
X0188062Y0203210D01*
X0188062Y0204067D01*
X0187300Y0204828D01*
X0186246Y0204828D01*
X0186246Y0205897D01*
X0185280Y0206864D01*
X0182433Y0209710D01*
X0170067Y0209710D01*
X0166987Y0206630D01*
X0167022Y0206759D02*
X0167116Y0206759D01*
X0167250Y0207758D02*
X0168114Y0207758D01*
X0167250Y0208756D02*
X0169113Y0208756D01*
X0167250Y0209755D02*
X0195250Y0209755D01*
X0195250Y0208756D02*
X0183387Y0208756D01*
X0184386Y0207758D02*
X0195250Y0207758D01*
X0195478Y0206759D02*
X0185384Y0206759D01*
X0186246Y0205761D02*
X0195746Y0205761D01*
X0196030Y0204762D02*
X0187367Y0204762D01*
X0188062Y0203764D02*
X0196606Y0203764D01*
X0197183Y0202765D02*
X0190878Y0202765D01*
X0191877Y0201767D02*
X0197987Y0201767D01*
X0198985Y0200768D02*
X0192875Y0200768D01*
X0193874Y0199770D02*
X0200341Y0199770D01*
X0202148Y0198771D02*
X0194400Y0198771D01*
X0194400Y0197773D02*
X0202892Y0197773D01*
X0201962Y0196774D02*
X0194400Y0196774D01*
X0198853Y0195776D02*
X0201549Y0195776D01*
X0199634Y0194777D02*
X0199518Y0194777D01*
X0201642Y0192119D02*
X0202011Y0191228D01*
X0203418Y0189821D01*
X0205255Y0189060D01*
X0203418Y0188299D01*
X0202011Y0186892D01*
X0201250Y0185055D01*
X0201250Y0183065D01*
X0202011Y0181228D01*
X0203418Y0179821D01*
X0205255Y0179060D01*
X0207245Y0179060D01*
X0209082Y0179821D01*
X0210489Y0181228D01*
X0211250Y0183065D01*
X0211250Y0185055D01*
X0210489Y0186892D01*
X0209082Y0188299D01*
X0207245Y0189060D01*
X0205255Y0189060D01*
X0207245Y0189060D01*
X0209082Y0189821D01*
X0210489Y0191228D01*
X0211250Y0193065D01*
X0211250Y0195055D01*
X0210489Y0196892D01*
X0209082Y0198299D01*
X0208889Y0198379D01*
X0210496Y0198810D01*
X0211350Y0199303D01*
X0211350Y0154560D01*
X0210750Y0154560D01*
X0210750Y0159246D01*
X0210032Y0159132D01*
X0209518Y0158965D01*
X0209518Y0159710D01*
X0209021Y0160911D01*
X0208101Y0161831D01*
X0206900Y0162328D01*
X0205600Y0162328D01*
X0204399Y0161831D01*
X0203479Y0160911D01*
X0202981Y0159710D01*
X0202981Y0158755D01*
X0202900Y0158788D01*
X0202900Y0174243D01*
X0197900Y0179243D01*
X0197900Y0182248D01*
X0198757Y0182248D01*
X0199518Y0183010D01*
X0199518Y0188417D01*
X0198876Y0189060D01*
X0199518Y0189703D01*
X0199518Y0190756D01*
X0200280Y0190756D01*
X0201642Y0192119D01*
X0201782Y0191782D02*
X0201305Y0191782D01*
X0200307Y0190783D02*
X0202456Y0190783D01*
X0203506Y0189785D02*
X0199518Y0189785D01*
X0199150Y0188786D02*
X0204594Y0188786D01*
X0202907Y0187788D02*
X0199518Y0187788D01*
X0199518Y0186789D02*
X0201968Y0186789D01*
X0201555Y0185791D02*
X0199518Y0185791D01*
X0199518Y0184792D02*
X0201250Y0184792D01*
X0201250Y0183794D02*
X0199518Y0183794D01*
X0199304Y0182795D02*
X0201362Y0182795D01*
X0201776Y0181796D02*
X0197900Y0181796D01*
X0197900Y0180798D02*
X0202441Y0180798D01*
X0203470Y0179799D02*
X0197900Y0179799D01*
X0198342Y0178801D02*
X0211350Y0178801D01*
X0211350Y0179799D02*
X0209030Y0179799D01*
X0210059Y0180798D02*
X0211350Y0180798D01*
X0211350Y0181796D02*
X0210724Y0181796D01*
X0211138Y0182795D02*
X0211350Y0182795D01*
X0211350Y0183794D02*
X0211250Y0183794D01*
X0211250Y0184792D02*
X0211350Y0184792D01*
X0211350Y0185791D02*
X0210945Y0185791D01*
X0211350Y0186789D02*
X0210532Y0186789D01*
X0211350Y0187788D02*
X0209593Y0187788D01*
X0207906Y0188786D02*
X0211350Y0188786D01*
X0211350Y0189785D02*
X0208994Y0189785D01*
X0210044Y0190783D02*
X0211350Y0190783D01*
X0211350Y0191782D02*
X0210718Y0191782D01*
X0211132Y0192780D02*
X0211350Y0192780D01*
X0211350Y0193779D02*
X0211250Y0193779D01*
X0211250Y0194777D02*
X0211350Y0194777D01*
X0211350Y0195776D02*
X0210951Y0195776D01*
X0211350Y0196774D02*
X0210538Y0196774D01*
X0211350Y0197773D02*
X0209608Y0197773D01*
X0210352Y0198771D02*
X0211350Y0198771D01*
X0195316Y0210753D02*
X0167184Y0210753D01*
X0166917Y0211752D02*
X0195583Y0211752D01*
X0195851Y0212750D02*
X0166649Y0212750D01*
X0166245Y0213749D02*
X0196255Y0213749D01*
X0191100Y0190783D02*
X0187371Y0190783D01*
X0183177Y0179799D02*
X0182900Y0179799D01*
X0182900Y0178801D02*
X0189479Y0178801D01*
X0188647Y0176804D02*
X0188632Y0176804D01*
X0182900Y0177802D02*
X0194674Y0177802D01*
X0195546Y0176804D02*
X0195673Y0176804D01*
X0195762Y0175805D02*
X0196671Y0175805D01*
X0199341Y0177802D02*
X0211350Y0177802D01*
X0211350Y0176804D02*
X0200339Y0176804D01*
X0201338Y0175805D02*
X0211350Y0175805D01*
X0211350Y0174807D02*
X0202337Y0174807D01*
X0202900Y0173808D02*
X0211350Y0173808D01*
X0211350Y0172810D02*
X0202900Y0172810D01*
X0202900Y0171811D02*
X0211350Y0171811D01*
X0211350Y0170813D02*
X0202900Y0170813D01*
X0202900Y0169814D02*
X0211350Y0169814D01*
X0211350Y0168816D02*
X0202900Y0168816D01*
X0202900Y0167817D02*
X0211350Y0167817D01*
X0211350Y0166819D02*
X0202900Y0166819D01*
X0202900Y0165820D02*
X0211350Y0165820D01*
X0211350Y0164822D02*
X0202900Y0164822D01*
X0202900Y0163823D02*
X0211350Y0163823D01*
X0211350Y0162825D02*
X0202900Y0162825D01*
X0202900Y0161826D02*
X0204394Y0161826D01*
X0203444Y0160828D02*
X0202900Y0160828D01*
X0202900Y0159829D02*
X0203031Y0159829D01*
X0202981Y0158831D02*
X0202900Y0158831D01*
X0208106Y0161826D02*
X0211350Y0161826D01*
X0211350Y0160828D02*
X0209056Y0160828D01*
X0209469Y0159829D02*
X0211350Y0159829D01*
X0211350Y0158831D02*
X0210750Y0158831D01*
X0210750Y0157832D02*
X0211350Y0157832D01*
X0211350Y0156834D02*
X0210750Y0156834D01*
X0210750Y0155835D02*
X0211350Y0155835D01*
X0211350Y0154837D02*
X0210750Y0154837D01*
X0177951Y0157832D02*
X0174549Y0157832D01*
X0175513Y0156834D02*
X0176987Y0156834D01*
X0176573Y0155835D02*
X0175927Y0155835D01*
X0176250Y0155055D02*
X0176250Y0153960D01*
X0176250Y0153960D01*
X0176250Y0155055D01*
X0176250Y0154837D02*
X0176250Y0154837D01*
X0174153Y0181796D02*
X0172900Y0181796D01*
X0172900Y0182795D02*
X0174456Y0182795D01*
X0174438Y0183794D02*
X0172900Y0183794D01*
X0172900Y0184792D02*
X0174438Y0184792D01*
X0174438Y0185791D02*
X0172900Y0185791D01*
X0172900Y0186789D02*
X0174582Y0186789D01*
X0139350Y0186789D02*
X0138532Y0186789D01*
X0138489Y0186892D02*
X0137082Y0188299D01*
X0135245Y0189060D01*
X0133255Y0189060D01*
X0131418Y0188299D01*
X0130011Y0186892D01*
X0129250Y0185055D01*
X0129250Y0183065D01*
X0130011Y0181228D01*
X0131418Y0179821D01*
X0133255Y0179060D01*
X0135245Y0179060D01*
X0137082Y0179821D01*
X0138489Y0181228D01*
X0139250Y0183065D01*
X0139250Y0185055D01*
X0138489Y0186892D01*
X0138945Y0185791D02*
X0139350Y0185791D01*
X0139350Y0184792D02*
X0139250Y0184792D01*
X0139250Y0183794D02*
X0139350Y0183794D01*
X0139350Y0182795D02*
X0139138Y0182795D01*
X0139350Y0181796D02*
X0138724Y0181796D01*
X0139350Y0180798D02*
X0138059Y0180798D01*
X0137030Y0179799D02*
X0139350Y0179799D01*
X0139350Y0178801D02*
X0126342Y0178801D01*
X0125900Y0179243D02*
X0125900Y0182248D01*
X0126757Y0182248D01*
X0127518Y0183010D01*
X0127518Y0188417D01*
X0126876Y0189060D01*
X0127518Y0189703D01*
X0127518Y0190756D01*
X0128280Y0190756D01*
X0129642Y0192119D01*
X0130011Y0191228D01*
X0131418Y0189821D01*
X0133255Y0189060D01*
X0135245Y0189060D01*
X0137082Y0189821D01*
X0138489Y0191228D01*
X0139250Y0193065D01*
X0139250Y0195055D01*
X0138489Y0196892D01*
X0137082Y0198299D01*
X0136889Y0198379D01*
X0138496Y0198810D01*
X0139350Y0199303D01*
X0139350Y0154560D01*
X0138750Y0154560D01*
X0138750Y0159246D01*
X0138032Y0159132D01*
X0137518Y0158965D01*
X0137518Y0159710D01*
X0137021Y0160911D01*
X0136101Y0161831D01*
X0134900Y0162328D01*
X0133600Y0162328D01*
X0132399Y0161831D01*
X0131479Y0160911D01*
X0130981Y0159710D01*
X0130981Y0158755D01*
X0130900Y0158788D01*
X0130900Y0174243D01*
X0125900Y0179243D01*
X0125900Y0179799D02*
X0131470Y0179799D01*
X0130441Y0180798D02*
X0125900Y0180798D01*
X0125900Y0181796D02*
X0129776Y0181796D01*
X0129362Y0182795D02*
X0127304Y0182795D01*
X0127518Y0183794D02*
X0129250Y0183794D01*
X0129250Y0184792D02*
X0127518Y0184792D01*
X0127518Y0185791D02*
X0129555Y0185791D01*
X0129968Y0186789D02*
X0127518Y0186789D01*
X0127518Y0187788D02*
X0130907Y0187788D01*
X0132594Y0188786D02*
X0127150Y0188786D01*
X0127518Y0189785D02*
X0131506Y0189785D01*
X0130456Y0190783D02*
X0128307Y0190783D01*
X0129305Y0191782D02*
X0129782Y0191782D01*
X0127518Y0194662D02*
X0127518Y0195110D01*
X0126757Y0195872D01*
X0122400Y0195872D01*
X0122400Y0199243D01*
X0119400Y0202243D01*
X0119400Y0202243D01*
X0118433Y0203210D01*
X0116062Y0203210D01*
X0116062Y0204067D01*
X0115300Y0204828D01*
X0114246Y0204828D01*
X0114246Y0205897D01*
X0113280Y0206864D01*
X0110433Y0209710D01*
X0098067Y0209710D01*
X0094987Y0206630D01*
X0095250Y0207612D01*
X0095250Y0210508D01*
X0094500Y0213306D01*
X0094007Y0214160D01*
X0124493Y0214160D01*
X0124000Y0213306D01*
X0123250Y0210508D01*
X0123250Y0207612D01*
X0124000Y0204814D01*
X0125448Y0202306D01*
X0127496Y0200258D01*
X0130004Y0198810D01*
X0131611Y0198379D01*
X0131418Y0198299D01*
X0130011Y0196892D01*
X0129521Y0195710D01*
X0128567Y0195710D01*
X0127600Y0194743D01*
X0127518Y0194662D01*
X0127518Y0194777D02*
X0127634Y0194777D01*
X0126853Y0195776D02*
X0129549Y0195776D01*
X0129962Y0196774D02*
X0122400Y0196774D01*
X0122400Y0197773D02*
X0130892Y0197773D01*
X0130148Y0198771D02*
X0122400Y0198771D01*
X0121874Y0199770D02*
X0128341Y0199770D01*
X0126985Y0200768D02*
X0120875Y0200768D01*
X0119877Y0201767D02*
X0125987Y0201767D01*
X0125183Y0202765D02*
X0118878Y0202765D01*
X0116062Y0203764D02*
X0124606Y0203764D01*
X0124030Y0204762D02*
X0115367Y0204762D01*
X0114246Y0205761D02*
X0123746Y0205761D01*
X0123478Y0206759D02*
X0113384Y0206759D01*
X0112386Y0207758D02*
X0123250Y0207758D01*
X0123250Y0208756D02*
X0111387Y0208756D01*
X0109067Y0206410D02*
X0099433Y0206410D01*
X0094100Y0201077D01*
X0094100Y0199993D01*
X0093983Y0199710D01*
X0096434Y0199710D01*
X0096834Y0200674D01*
X0097636Y0201476D01*
X0098683Y0201910D01*
X0099817Y0201910D01*
X0100864Y0201476D01*
X0101666Y0200674D01*
X0102066Y0199710D01*
X0102238Y0199710D01*
X0102238Y0201076D01*
X0105419Y0201076D01*
X0105419Y0202044D01*
X0102238Y0202044D01*
X0102238Y0203726D01*
X0102340Y0204107D01*
X0102538Y0204450D01*
X0102817Y0204729D01*
X0103159Y0204926D01*
X0103541Y0205028D01*
X0105419Y0205028D01*
X0105419Y0202044D01*
X0106388Y0202044D01*
X0106388Y0205028D01*
X0108266Y0205028D01*
X0108648Y0204926D01*
X0108990Y0204729D01*
X0109269Y0204450D01*
X0109359Y0204295D01*
X0109893Y0204828D01*
X0110648Y0204828D01*
X0109067Y0206410D01*
X0109716Y0205761D02*
X0098784Y0205761D01*
X0097786Y0204762D02*
X0102875Y0204762D01*
X0102248Y0203764D02*
X0096787Y0203764D01*
X0095789Y0202765D02*
X0102238Y0202765D01*
X0102238Y0200768D02*
X0101572Y0200768D01*
X0102041Y0199770D02*
X0102238Y0199770D01*
X0100163Y0201767D02*
X0105419Y0201767D01*
X0105419Y0202765D02*
X0106388Y0202765D01*
X0106388Y0203764D02*
X0105419Y0203764D01*
X0105419Y0204762D02*
X0106388Y0204762D01*
X0108932Y0204762D02*
X0109826Y0204762D01*
X0102438Y0194410D02*
X0102438Y0191474D01*
X0103200Y0190713D01*
X0115300Y0190713D01*
X0116062Y0191474D01*
X0116062Y0191741D01*
X0119100Y0191741D01*
X0119100Y0185877D01*
X0120913Y0184064D01*
X0120981Y0184064D01*
X0120981Y0183359D01*
X0120864Y0183476D01*
X0119817Y0183910D01*
X0118683Y0183910D01*
X0117636Y0183476D01*
X0116869Y0182710D01*
X0115959Y0182710D01*
X0116062Y0182813D01*
X0116062Y0186646D01*
X0115300Y0187407D01*
X0105562Y0187407D01*
X0103200Y0187407D01*
X0102438Y0186646D01*
X0102438Y0182813D01*
X0102804Y0182447D01*
X0101349Y0180992D01*
X0100900Y0181440D01*
X0100900Y0191743D01*
X0099933Y0192710D01*
X0098587Y0194056D01*
X0098018Y0194056D01*
X0098018Y0194410D01*
X0102438Y0194410D01*
X0102438Y0193779D02*
X0098865Y0193779D01*
X0099863Y0192780D02*
X0102438Y0192780D01*
X0102438Y0191782D02*
X0100862Y0191782D01*
X0100900Y0190783D02*
X0103129Y0190783D01*
X0100900Y0189785D02*
X0119100Y0189785D01*
X0119100Y0190783D02*
X0115371Y0190783D01*
X0115918Y0186789D02*
X0119100Y0186789D01*
X0119100Y0187788D02*
X0100900Y0187788D01*
X0100900Y0188786D02*
X0119100Y0188786D01*
X0119186Y0185791D02*
X0116062Y0185791D01*
X0116062Y0184792D02*
X0120184Y0184792D01*
X0120098Y0183794D02*
X0120981Y0183794D01*
X0121843Y0182248D02*
X0122600Y0182248D01*
X0122600Y0177877D01*
X0123567Y0176910D01*
X0127600Y0172877D01*
X0127600Y0158788D01*
X0126418Y0158299D01*
X0125011Y0156892D01*
X0124250Y0155055D01*
X0123489Y0156892D01*
X0122082Y0158299D01*
X0120245Y0159060D01*
X0118255Y0159060D01*
X0116418Y0158299D01*
X0115011Y0156892D01*
X0114250Y0155055D01*
X0113489Y0156892D01*
X0112082Y0158299D01*
X0110245Y0159060D01*
X0108255Y0159060D01*
X0106418Y0158299D01*
X0105011Y0156892D01*
X0104250Y0155055D01*
X0103489Y0156892D01*
X0102082Y0158299D01*
X0101191Y0158668D01*
X0104933Y0162410D01*
X0111870Y0162410D01*
X0112636Y0161644D01*
X0113683Y0161210D01*
X0114817Y0161210D01*
X0115864Y0161644D01*
X0116666Y0162446D01*
X0117100Y0163493D01*
X0117100Y0164627D01*
X0116666Y0165674D01*
X0115900Y0166440D01*
X0115900Y0169743D01*
X0115054Y0170590D01*
X0115054Y0170791D01*
X0116107Y0170791D01*
X0116641Y0171325D01*
X0116731Y0171170D01*
X0117010Y0170891D01*
X0117352Y0170694D01*
X0117734Y0170591D01*
X0119612Y0170591D01*
X0119612Y0173576D01*
X0120581Y0173576D01*
X0120581Y0174544D01*
X0123762Y0174544D01*
X0123762Y0176226D01*
X0123660Y0176607D01*
X0123462Y0176950D01*
X0123183Y0177229D01*
X0122841Y0177426D01*
X0122459Y0177528D01*
X0120581Y0177528D01*
X0120581Y0174544D01*
X0119612Y0174544D01*
X0119612Y0177528D01*
X0117734Y0177528D01*
X0117352Y0177426D01*
X0117010Y0177229D01*
X0116731Y0176950D01*
X0116641Y0176795D01*
X0116107Y0177328D01*
X0110900Y0177328D01*
X0110900Y0180077D01*
X0110929Y0180048D01*
X0111567Y0179410D01*
X0116869Y0179410D01*
X0117636Y0178644D01*
X0118683Y0178210D01*
X0119817Y0178210D01*
X0120864Y0178644D01*
X0121666Y0179446D01*
X0122100Y0180493D01*
X0122100Y0181627D01*
X0121843Y0182248D01*
X0122030Y0181796D02*
X0122600Y0181796D01*
X0122600Y0180798D02*
X0122100Y0180798D01*
X0121813Y0179799D02*
X0122600Y0179799D01*
X0122600Y0178801D02*
X0121021Y0178801D01*
X0122674Y0177802D02*
X0110900Y0177802D01*
X0110900Y0178801D02*
X0117479Y0178801D01*
X0116647Y0176804D02*
X0116632Y0176804D01*
X0119612Y0176804D02*
X0120581Y0176804D01*
X0120581Y0175805D02*
X0119612Y0175805D01*
X0119612Y0174807D02*
X0120581Y0174807D01*
X0120581Y0173808D02*
X0126668Y0173808D01*
X0127600Y0172810D02*
X0123762Y0172810D01*
X0123762Y0173576D02*
X0123762Y0171894D01*
X0123660Y0171513D01*
X0123462Y0171170D01*
X0123183Y0170891D01*
X0122841Y0170694D01*
X0122459Y0170591D01*
X0120581Y0170591D01*
X0120581Y0173576D01*
X0123762Y0173576D01*
X0123762Y0174807D02*
X0125670Y0174807D01*
X0124671Y0175805D02*
X0123762Y0175805D01*
X0123673Y0176804D02*
X0123546Y0176804D01*
X0127341Y0177802D02*
X0139350Y0177802D01*
X0139350Y0176804D02*
X0128339Y0176804D01*
X0129338Y0175805D02*
X0139350Y0175805D01*
X0139350Y0174807D02*
X0130337Y0174807D01*
X0130900Y0173808D02*
X0139350Y0173808D01*
X0139350Y0172810D02*
X0130900Y0172810D01*
X0130900Y0171811D02*
X0139350Y0171811D01*
X0139350Y0170813D02*
X0130900Y0170813D01*
X0130900Y0169814D02*
X0139350Y0169814D01*
X0139350Y0168816D02*
X0130900Y0168816D01*
X0130900Y0167817D02*
X0139350Y0167817D01*
X0139350Y0166819D02*
X0130900Y0166819D01*
X0130900Y0165820D02*
X0139350Y0165820D01*
X0139350Y0164822D02*
X0130900Y0164822D01*
X0130900Y0163823D02*
X0139350Y0163823D01*
X0139350Y0162825D02*
X0130900Y0162825D01*
X0130900Y0161826D02*
X0132394Y0161826D01*
X0131444Y0160828D02*
X0130900Y0160828D01*
X0130900Y0159829D02*
X0131031Y0159829D01*
X0130981Y0158831D02*
X0130900Y0158831D01*
X0127600Y0158831D02*
X0120798Y0158831D01*
X0122549Y0157832D02*
X0125951Y0157832D01*
X0124987Y0156834D02*
X0123513Y0156834D01*
X0123927Y0155835D02*
X0124573Y0155835D01*
X0124250Y0155055D02*
X0124250Y0153960D01*
X0124250Y0155055D01*
X0124250Y0154837D02*
X0124250Y0154837D01*
X0124250Y0153960D02*
X0124250Y0153960D01*
X0127600Y0159829D02*
X0102353Y0159829D01*
X0103351Y0160828D02*
X0127600Y0160828D01*
X0127600Y0161826D02*
X0116047Y0161826D01*
X0116823Y0162825D02*
X0127600Y0162825D01*
X0127600Y0163823D02*
X0117100Y0163823D01*
X0117019Y0164822D02*
X0127600Y0164822D01*
X0127600Y0165820D02*
X0116520Y0165820D01*
X0115900Y0166819D02*
X0127600Y0166819D01*
X0127600Y0167817D02*
X0115900Y0167817D01*
X0115900Y0168816D02*
X0127600Y0168816D01*
X0127600Y0169814D02*
X0115829Y0169814D01*
X0116129Y0170813D02*
X0117146Y0170813D01*
X0119612Y0170813D02*
X0120581Y0170813D01*
X0120581Y0171811D02*
X0119612Y0171811D01*
X0119612Y0172810D02*
X0120581Y0172810D01*
X0123047Y0170813D02*
X0127600Y0170813D01*
X0127600Y0171811D02*
X0123740Y0171811D01*
X0116955Y0182795D02*
X0116044Y0182795D01*
X0116062Y0183794D02*
X0118402Y0183794D01*
X0111177Y0179799D02*
X0110900Y0179799D01*
X0102456Y0182795D02*
X0100900Y0182795D01*
X0100900Y0183794D02*
X0102438Y0183794D01*
X0102438Y0184792D02*
X0100900Y0184792D01*
X0100900Y0185791D02*
X0102438Y0185791D01*
X0102582Y0186789D02*
X0100900Y0186789D01*
X0100900Y0181796D02*
X0102153Y0181796D01*
X0096459Y0199770D02*
X0094007Y0199770D01*
X0094100Y0200768D02*
X0096928Y0200768D01*
X0098337Y0201767D02*
X0094790Y0201767D01*
X0095022Y0206759D02*
X0095116Y0206759D01*
X0095250Y0207758D02*
X0096114Y0207758D01*
X0095250Y0208756D02*
X0097113Y0208756D01*
X0095250Y0209755D02*
X0123250Y0209755D01*
X0123316Y0210753D02*
X0095184Y0210753D01*
X0094917Y0211752D02*
X0123583Y0211752D01*
X0123851Y0212750D02*
X0094649Y0212750D01*
X0094245Y0213749D02*
X0124255Y0213749D01*
X0138352Y0198771D02*
X0139350Y0198771D01*
X0139350Y0197773D02*
X0137608Y0197773D01*
X0138538Y0196774D02*
X0139350Y0196774D01*
X0139350Y0195776D02*
X0138951Y0195776D01*
X0139250Y0194777D02*
X0139350Y0194777D01*
X0139350Y0193779D02*
X0139250Y0193779D01*
X0139350Y0192780D02*
X0139132Y0192780D01*
X0139350Y0191782D02*
X0138718Y0191782D01*
X0139350Y0190783D02*
X0138044Y0190783D01*
X0136994Y0189785D02*
X0139350Y0189785D01*
X0139350Y0188786D02*
X0135906Y0188786D01*
X0137593Y0187788D02*
X0139350Y0187788D01*
X0139350Y0161826D02*
X0136106Y0161826D01*
X0137056Y0160828D02*
X0139350Y0160828D01*
X0139350Y0159829D02*
X0137469Y0159829D01*
X0138750Y0158831D02*
X0139350Y0158831D01*
X0139350Y0157832D02*
X0138750Y0157832D01*
X0138750Y0156834D02*
X0139350Y0156834D01*
X0139350Y0155835D02*
X0138750Y0155835D01*
X0138750Y0154837D02*
X0139350Y0154837D01*
X0124493Y0142160D02*
X0124000Y0141306D01*
X0123250Y0138508D01*
X0123250Y0135612D01*
X0124000Y0132814D01*
X0125448Y0130306D01*
X0127496Y0128258D01*
X0130004Y0126810D01*
X0131611Y0126379D01*
X0131418Y0126299D01*
X0130011Y0124892D01*
X0129521Y0123710D01*
X0128567Y0123710D01*
X0127600Y0122743D01*
X0127518Y0122662D01*
X0127518Y0123110D01*
X0126757Y0123872D01*
X0122400Y0123872D01*
X0122400Y0127243D01*
X0119400Y0130243D01*
X0119400Y0130243D01*
X0118433Y0131210D01*
X0116062Y0131210D01*
X0116062Y0132067D01*
X0115300Y0132828D01*
X0114246Y0132828D01*
X0114246Y0133897D01*
X0113280Y0134864D01*
X0110433Y0137710D01*
X0109067Y0137710D01*
X0098067Y0137710D01*
X0097100Y0136743D01*
X0094987Y0134630D01*
X0095250Y0135612D01*
X0095250Y0138508D01*
X0094500Y0141306D01*
X0094007Y0142160D01*
X0124493Y0142160D01*
X0124317Y0141856D02*
X0094183Y0141856D01*
X0094620Y0140858D02*
X0123880Y0140858D01*
X0123612Y0139859D02*
X0094888Y0139859D01*
X0095156Y0138861D02*
X0123344Y0138861D01*
X0123250Y0137862D02*
X0095250Y0137862D01*
X0095250Y0136863D02*
X0097220Y0136863D01*
X0097100Y0136743D02*
X0097100Y0136743D01*
X0096222Y0135865D02*
X0095250Y0135865D01*
X0095223Y0134866D02*
X0095050Y0134866D01*
X0097893Y0132869D02*
X0103061Y0132869D01*
X0103159Y0132926D02*
X0102817Y0132729D01*
X0102538Y0132450D01*
X0102340Y0132107D01*
X0102238Y0131726D01*
X0102238Y0130044D01*
X0105419Y0130044D01*
X0105419Y0129076D01*
X0102238Y0129076D01*
X0102238Y0127710D01*
X0102066Y0127710D01*
X0101666Y0128674D01*
X0100864Y0129476D01*
X0099817Y0129910D01*
X0098683Y0129910D01*
X0097636Y0129476D01*
X0096834Y0128674D01*
X0096434Y0127710D01*
X0093983Y0127710D01*
X0094100Y0127993D01*
X0094100Y0129077D01*
X0099433Y0134410D01*
X0109067Y0134410D01*
X0110648Y0132828D01*
X0109893Y0132828D01*
X0109359Y0132295D01*
X0109269Y0132450D01*
X0108990Y0132729D01*
X0108648Y0132926D01*
X0108266Y0133028D01*
X0106388Y0133028D01*
X0106388Y0130044D01*
X0105419Y0130044D01*
X0105419Y0133028D01*
X0103541Y0133028D01*
X0103159Y0132926D01*
X0102277Y0131871D02*
X0096894Y0131871D01*
X0095896Y0130872D02*
X0102238Y0130872D01*
X0102238Y0128875D02*
X0101465Y0128875D01*
X0101996Y0127877D02*
X0102238Y0127877D01*
X0099904Y0129874D02*
X0105419Y0129874D01*
X0105419Y0130872D02*
X0106388Y0130872D01*
X0106388Y0131871D02*
X0105419Y0131871D01*
X0105419Y0132869D02*
X0106388Y0132869D01*
X0108746Y0132869D02*
X0110607Y0132869D01*
X0109609Y0133868D02*
X0098891Y0133868D01*
X0098596Y0129874D02*
X0094897Y0129874D01*
X0094100Y0128875D02*
X0097035Y0128875D01*
X0096504Y0127877D02*
X0094052Y0127877D01*
X0098018Y0122410D02*
X0102438Y0122410D01*
X0102438Y0119474D01*
X0103200Y0118713D01*
X0115300Y0118713D01*
X0116062Y0119474D01*
X0116062Y0119741D01*
X0119100Y0119741D01*
X0119100Y0113877D01*
X0120067Y0112910D01*
X0120913Y0112064D01*
X0120981Y0112064D01*
X0120981Y0111359D01*
X0120864Y0111476D01*
X0119817Y0111910D01*
X0118683Y0111910D01*
X0117636Y0111476D01*
X0116869Y0110710D01*
X0115959Y0110710D01*
X0116062Y0110813D01*
X0116062Y0114646D01*
X0115300Y0115407D01*
X0105562Y0115407D01*
X0103200Y0115407D01*
X0102438Y0114646D01*
X0102438Y0110813D01*
X0102804Y0110447D01*
X0101349Y0108992D01*
X0100900Y0109440D01*
X0100900Y0119743D01*
X0099933Y0120710D01*
X0098587Y0122056D01*
X0098018Y0122056D01*
X0098018Y0122410D01*
X0098758Y0121886D02*
X0102438Y0121886D01*
X0102438Y0120887D02*
X0099756Y0120887D01*
X0100755Y0119889D02*
X0102438Y0119889D01*
X0103022Y0118890D02*
X0100900Y0118890D01*
X0100900Y0117892D02*
X0119100Y0117892D01*
X0119100Y0118890D02*
X0115478Y0118890D01*
X0115811Y0114896D02*
X0119100Y0114896D01*
X0119100Y0113898D02*
X0116062Y0113898D01*
X0116062Y0112899D02*
X0120077Y0112899D01*
X0119839Y0111901D02*
X0120981Y0111901D01*
X0121843Y0110248D02*
X0122600Y0110248D01*
X0122600Y0105877D01*
X0123567Y0104910D01*
X0127600Y0100877D01*
X0127600Y0086788D01*
X0126418Y0086299D01*
X0125011Y0084892D01*
X0124250Y0083055D01*
X0123489Y0084892D01*
X0122082Y0086299D01*
X0120245Y0087060D01*
X0118255Y0087060D01*
X0116418Y0086299D01*
X0115011Y0084892D01*
X0114250Y0083055D01*
X0113489Y0084892D01*
X0112082Y0086299D01*
X0110245Y0087060D01*
X0108255Y0087060D01*
X0106418Y0086299D01*
X0105011Y0084892D01*
X0104250Y0083055D01*
X0103489Y0084892D01*
X0102082Y0086299D01*
X0101191Y0086668D01*
X0104933Y0090410D01*
X0111869Y0090410D01*
X0112636Y0089644D01*
X0113683Y0089210D01*
X0114817Y0089210D01*
X0115864Y0089644D01*
X0116666Y0090446D01*
X0117100Y0091493D01*
X0117100Y0092627D01*
X0116666Y0093674D01*
X0115900Y0094440D01*
X0115900Y0097743D01*
X0115054Y0098590D01*
X0115054Y0098791D01*
X0116107Y0098791D01*
X0116641Y0099325D01*
X0116731Y0099170D01*
X0117010Y0098891D01*
X0117352Y0098694D01*
X0117734Y0098591D01*
X0119612Y0098591D01*
X0119612Y0101576D01*
X0120581Y0101576D01*
X0120581Y0102544D01*
X0123762Y0102544D01*
X0123762Y0104226D01*
X0123660Y0104607D01*
X0123462Y0104950D01*
X0123183Y0105229D01*
X0122841Y0105426D01*
X0122459Y0105528D01*
X0120581Y0105528D01*
X0120581Y0102544D01*
X0119612Y0102544D01*
X0119612Y0105528D01*
X0117734Y0105528D01*
X0117352Y0105426D01*
X0117010Y0105229D01*
X0116731Y0104950D01*
X0116641Y0104795D01*
X0116107Y0105328D01*
X0110900Y0105328D01*
X0110900Y0108077D01*
X0110929Y0108048D01*
X0111567Y0107410D01*
X0116869Y0107410D01*
X0117636Y0106644D01*
X0118683Y0106210D01*
X0119817Y0106210D01*
X0120864Y0106644D01*
X0121666Y0107446D01*
X0122100Y0108493D01*
X0122100Y0109627D01*
X0121843Y0110248D01*
X0121985Y0109904D02*
X0122600Y0109904D01*
X0122600Y0108905D02*
X0122100Y0108905D01*
X0121857Y0107907D02*
X0122600Y0107907D01*
X0122600Y0106908D02*
X0121129Y0106908D01*
X0122600Y0105910D02*
X0110900Y0105910D01*
X0110900Y0106908D02*
X0117371Y0106908D01*
X0116709Y0104911D02*
X0116525Y0104911D01*
X0119612Y0104911D02*
X0120581Y0104911D01*
X0120581Y0103913D02*
X0119612Y0103913D01*
X0119612Y0102914D02*
X0120581Y0102914D01*
X0120581Y0101916D02*
X0126561Y0101916D01*
X0125562Y0102914D02*
X0123762Y0102914D01*
X0123762Y0103913D02*
X0124564Y0103913D01*
X0123565Y0104911D02*
X0123484Y0104911D01*
X0125900Y0107243D02*
X0125900Y0110248D01*
X0126757Y0110248D01*
X0127518Y0111010D01*
X0127518Y0116417D01*
X0126876Y0117060D01*
X0127518Y0117703D01*
X0127518Y0118756D01*
X0128280Y0118756D01*
X0129642Y0120119D01*
X0130011Y0119228D01*
X0131418Y0117821D01*
X0133255Y0117060D01*
X0131418Y0116299D01*
X0130011Y0114892D01*
X0129250Y0113055D01*
X0129250Y0111065D01*
X0130011Y0109228D01*
X0131418Y0107821D01*
X0133255Y0107060D01*
X0135245Y0107060D01*
X0137082Y0107821D01*
X0138489Y0109228D01*
X0139250Y0111065D01*
X0139250Y0113055D01*
X0138489Y0114892D01*
X0137082Y0116299D01*
X0135245Y0117060D01*
X0133255Y0117060D01*
X0135245Y0117060D01*
X0137082Y0117821D01*
X0138489Y0119228D01*
X0139250Y0121065D01*
X0139250Y0123055D01*
X0138489Y0124892D01*
X0137082Y0126299D01*
X0136889Y0126379D01*
X0138496Y0126810D01*
X0139350Y0127303D01*
X0139350Y0082560D01*
X0138750Y0082560D01*
X0138750Y0087246D01*
X0138032Y0087132D01*
X0137518Y0086965D01*
X0137518Y0087710D01*
X0137021Y0088911D01*
X0136101Y0089831D01*
X0134900Y0090328D01*
X0133600Y0090328D01*
X0132399Y0089831D01*
X0131479Y0088911D01*
X0130981Y0087710D01*
X0130981Y0086755D01*
X0130900Y0086788D01*
X0130900Y0102243D01*
X0125900Y0107243D01*
X0126235Y0106908D02*
X0139350Y0106908D01*
X0139350Y0105910D02*
X0127234Y0105910D01*
X0128232Y0104911D02*
X0139350Y0104911D01*
X0139350Y0103913D02*
X0129231Y0103913D01*
X0130229Y0102914D02*
X0139350Y0102914D01*
X0139350Y0101916D02*
X0130900Y0101916D01*
X0130900Y0100917D02*
X0139350Y0100917D01*
X0139350Y0099919D02*
X0130900Y0099919D01*
X0130900Y0098920D02*
X0139350Y0098920D01*
X0139350Y0097922D02*
X0130900Y0097922D01*
X0130900Y0096923D02*
X0139350Y0096923D01*
X0139350Y0095925D02*
X0130900Y0095925D01*
X0130900Y0094926D02*
X0139350Y0094926D01*
X0139350Y0093927D02*
X0130900Y0093927D01*
X0130900Y0092929D02*
X0139350Y0092929D01*
X0139350Y0091930D02*
X0130900Y0091930D01*
X0130900Y0090932D02*
X0139350Y0090932D01*
X0139350Y0089933D02*
X0135854Y0089933D01*
X0136997Y0088935D02*
X0139350Y0088935D01*
X0139350Y0087936D02*
X0137425Y0087936D01*
X0138750Y0086938D02*
X0139350Y0086938D01*
X0139350Y0085939D02*
X0138750Y0085939D01*
X0138750Y0084941D02*
X0139350Y0084941D01*
X0139350Y0083942D02*
X0138750Y0083942D01*
X0138750Y0082944D02*
X0139350Y0082944D01*
X0132646Y0089933D02*
X0130900Y0089933D01*
X0130900Y0088935D02*
X0131503Y0088935D01*
X0131075Y0087936D02*
X0130900Y0087936D01*
X0130900Y0086938D02*
X0130981Y0086938D01*
X0127600Y0086938D02*
X0120539Y0086938D01*
X0122442Y0085939D02*
X0126058Y0085939D01*
X0125060Y0084941D02*
X0123440Y0084941D01*
X0123882Y0083942D02*
X0124618Y0083942D01*
X0124250Y0083055D02*
X0124250Y0081960D01*
X0124250Y0083055D01*
X0124250Y0082944D02*
X0124250Y0082944D01*
X0124250Y0081960D02*
X0124250Y0081960D01*
X0127600Y0087936D02*
X0102460Y0087936D01*
X0101461Y0086938D02*
X0107961Y0086938D01*
X0106058Y0085939D02*
X0102442Y0085939D01*
X0103440Y0084941D02*
X0105060Y0084941D01*
X0104618Y0083942D02*
X0103882Y0083942D01*
X0104250Y0083055D02*
X0104250Y0081960D01*
X0104250Y0081960D01*
X0104250Y0083055D01*
X0104250Y0082944D02*
X0104250Y0082944D01*
X0103458Y0088935D02*
X0127600Y0088935D01*
X0127600Y0089933D02*
X0116154Y0089933D01*
X0116868Y0090932D02*
X0127600Y0090932D01*
X0127600Y0091930D02*
X0117100Y0091930D01*
X0116975Y0092929D02*
X0127600Y0092929D01*
X0127600Y0093927D02*
X0116413Y0093927D01*
X0115900Y0094926D02*
X0127600Y0094926D01*
X0127600Y0095925D02*
X0115900Y0095925D01*
X0115900Y0096923D02*
X0127600Y0096923D01*
X0127600Y0097922D02*
X0115722Y0097922D01*
X0116236Y0098920D02*
X0116981Y0098920D01*
X0119612Y0098920D02*
X0120581Y0098920D01*
X0120581Y0098591D02*
X0122459Y0098591D01*
X0122841Y0098694D01*
X0123183Y0098891D01*
X0123462Y0099170D01*
X0123660Y0099512D01*
X0123762Y0099894D01*
X0123762Y0101576D01*
X0120581Y0101576D01*
X0120581Y0098591D01*
X0120581Y0099919D02*
X0119612Y0099919D01*
X0119612Y0100917D02*
X0120581Y0100917D01*
X0123762Y0100917D02*
X0127559Y0100917D01*
X0127600Y0099919D02*
X0123762Y0099919D01*
X0123212Y0098920D02*
X0127600Y0098920D01*
X0125900Y0107907D02*
X0131332Y0107907D01*
X0130334Y0108905D02*
X0125900Y0108905D01*
X0125900Y0109904D02*
X0129731Y0109904D01*
X0129318Y0110902D02*
X0127411Y0110902D01*
X0127518Y0111901D02*
X0129250Y0111901D01*
X0129250Y0112899D02*
X0127518Y0112899D01*
X0127518Y0113898D02*
X0129599Y0113898D01*
X0130015Y0114896D02*
X0127518Y0114896D01*
X0127518Y0115895D02*
X0131014Y0115895D01*
X0131347Y0117892D02*
X0127518Y0117892D01*
X0127043Y0116893D02*
X0132853Y0116893D01*
X0135647Y0116893D02*
X0139350Y0116893D01*
X0139350Y0115895D02*
X0137486Y0115895D01*
X0138485Y0114896D02*
X0139350Y0114896D01*
X0139350Y0113898D02*
X0138901Y0113898D01*
X0139250Y0112899D02*
X0139350Y0112899D01*
X0139350Y0111901D02*
X0139250Y0111901D01*
X0139182Y0110902D02*
X0139350Y0110902D01*
X0139350Y0109904D02*
X0138769Y0109904D01*
X0139350Y0108905D02*
X0138166Y0108905D01*
X0137168Y0107907D02*
X0139350Y0107907D01*
X0139350Y0117892D02*
X0137153Y0117892D01*
X0138151Y0118890D02*
X0139350Y0118890D01*
X0139350Y0119889D02*
X0138763Y0119889D01*
X0139176Y0120887D02*
X0139350Y0120887D01*
X0139350Y0121886D02*
X0139250Y0121886D01*
X0139250Y0122884D02*
X0139350Y0122884D01*
X0139350Y0123883D02*
X0138907Y0123883D01*
X0138493Y0124881D02*
X0139350Y0124881D01*
X0139350Y0125880D02*
X0137501Y0125880D01*
X0138615Y0126878D02*
X0139350Y0126878D01*
X0130999Y0125880D02*
X0122400Y0125880D01*
X0122400Y0126878D02*
X0129885Y0126878D01*
X0128156Y0127877D02*
X0121767Y0127877D01*
X0120768Y0128875D02*
X0126878Y0128875D01*
X0125880Y0129874D02*
X0119770Y0129874D01*
X0118771Y0130872D02*
X0125121Y0130872D01*
X0124544Y0131871D02*
X0116062Y0131871D01*
X0114246Y0132869D02*
X0123985Y0132869D01*
X0123717Y0133868D02*
X0114246Y0133868D01*
X0113277Y0134866D02*
X0123450Y0134866D01*
X0123250Y0135865D02*
X0112278Y0135865D01*
X0111280Y0136863D02*
X0123250Y0136863D01*
X0122400Y0124881D02*
X0130007Y0124881D01*
X0129593Y0123883D02*
X0122400Y0123883D01*
X0127518Y0122884D02*
X0127741Y0122884D01*
X0129412Y0119889D02*
X0129737Y0119889D01*
X0130349Y0118890D02*
X0128414Y0118890D01*
X0119100Y0116893D02*
X0100900Y0116893D01*
X0100900Y0115895D02*
X0119100Y0115895D01*
X0118661Y0111901D02*
X0116062Y0111901D01*
X0116062Y0110902D02*
X0117062Y0110902D01*
X0111070Y0107907D02*
X0110900Y0107907D01*
X0102260Y0109904D02*
X0100900Y0109904D01*
X0100900Y0110902D02*
X0102438Y0110902D01*
X0102438Y0111901D02*
X0100900Y0111901D01*
X0100900Y0112899D02*
X0102438Y0112899D01*
X0102438Y0113898D02*
X0100900Y0113898D01*
X0100900Y0114896D02*
X0102689Y0114896D01*
X0104457Y0089933D02*
X0112346Y0089933D01*
X0110539Y0086938D02*
X0117961Y0086938D01*
X0116058Y0085939D02*
X0112442Y0085939D01*
X0113440Y0084941D02*
X0115060Y0084941D01*
X0114618Y0083942D02*
X0113882Y0083942D01*
X0114250Y0083055D02*
X0114250Y0081960D01*
X0114250Y0081960D01*
X0114250Y0083055D01*
X0114250Y0082944D02*
X0114250Y0082944D01*
X0124493Y0070160D02*
X0124000Y0069306D01*
X0123250Y0066508D01*
X0123250Y0063612D01*
X0124000Y0060814D01*
X0125448Y0058306D01*
X0127496Y0056258D01*
X0130004Y0054810D01*
X0131611Y0054379D01*
X0131418Y0054299D01*
X0130011Y0052892D01*
X0129521Y0051710D01*
X0128567Y0051710D01*
X0127518Y0050662D01*
X0127518Y0051110D01*
X0126757Y0051872D01*
X0122400Y0051872D01*
X0122400Y0055243D01*
X0118433Y0059210D01*
X0116062Y0059210D01*
X0116062Y0060067D01*
X0115300Y0060828D01*
X0114246Y0060828D01*
X0114246Y0061897D01*
X0113280Y0062864D01*
X0110433Y0065710D01*
X0098067Y0065710D01*
X0094987Y0062630D01*
X0095250Y0063612D01*
X0095250Y0066508D01*
X0094500Y0069306D01*
X0094007Y0070160D01*
X0124493Y0070160D01*
X0124379Y0069963D02*
X0094121Y0069963D01*
X0094592Y0068965D02*
X0123908Y0068965D01*
X0123641Y0067966D02*
X0094859Y0067966D01*
X0095127Y0066968D02*
X0123373Y0066968D01*
X0123250Y0065969D02*
X0095250Y0065969D01*
X0095250Y0064971D02*
X0097327Y0064971D01*
X0096329Y0063972D02*
X0095250Y0063972D01*
X0095330Y0062974D02*
X0095079Y0062974D01*
X0098000Y0060977D02*
X0103347Y0060977D01*
X0103159Y0060926D02*
X0102817Y0060729D01*
X0102538Y0060450D01*
X0102340Y0060107D01*
X0102238Y0059726D01*
X0102238Y0058044D01*
X0105419Y0058044D01*
X0105419Y0057076D01*
X0102238Y0057076D01*
X0102238Y0055710D01*
X0102066Y0055710D01*
X0101666Y0056674D01*
X0100864Y0057476D01*
X0099817Y0057910D01*
X0098683Y0057910D01*
X0097636Y0057476D01*
X0096834Y0056674D01*
X0096434Y0055710D01*
X0093983Y0055710D01*
X0094100Y0055993D01*
X0094100Y0057077D01*
X0099433Y0062410D01*
X0109067Y0062410D01*
X0110648Y0060828D01*
X0109893Y0060828D01*
X0109359Y0060295D01*
X0109269Y0060450D01*
X0108990Y0060729D01*
X0108648Y0060926D01*
X0108266Y0061028D01*
X0106388Y0061028D01*
X0106388Y0058044D01*
X0105419Y0058044D01*
X0105419Y0061028D01*
X0103541Y0061028D01*
X0103159Y0060926D01*
X0102306Y0059978D02*
X0097002Y0059978D01*
X0096003Y0058980D02*
X0102238Y0058980D01*
X0102238Y0056983D02*
X0101358Y0056983D01*
X0101952Y0055984D02*
X0102238Y0055984D01*
X0105419Y0057981D02*
X0095005Y0057981D01*
X0094100Y0056983D02*
X0097142Y0056983D01*
X0096548Y0055984D02*
X0094096Y0055984D01*
X0098018Y0050410D02*
X0102438Y0050410D01*
X0102438Y0047474D01*
X0103200Y0046713D01*
X0115300Y0046713D01*
X0116062Y0047474D01*
X0116062Y0047741D01*
X0119100Y0047741D01*
X0119100Y0041877D01*
X0120067Y0040910D01*
X0120913Y0040064D01*
X0120981Y0040064D01*
X0120981Y0039359D01*
X0120864Y0039476D01*
X0119817Y0039910D01*
X0118683Y0039910D01*
X0117636Y0039476D01*
X0116869Y0038710D01*
X0115959Y0038710D01*
X0116062Y0038813D01*
X0116062Y0042646D01*
X0115300Y0043407D01*
X0105562Y0043407D01*
X0103200Y0043407D01*
X0102438Y0042646D01*
X0102438Y0038813D01*
X0102804Y0038447D01*
X0101349Y0036992D01*
X0100900Y0037440D01*
X0100900Y0047743D01*
X0099933Y0048710D01*
X0098587Y0050056D01*
X0098018Y0050056D01*
X0098018Y0050410D01*
X0098650Y0049993D02*
X0102438Y0049993D01*
X0102438Y0048994D02*
X0099649Y0048994D01*
X0100647Y0047996D02*
X0102438Y0047996D01*
X0102915Y0046997D02*
X0100900Y0046997D01*
X0100900Y0045999D02*
X0119100Y0045999D01*
X0119100Y0046997D02*
X0115585Y0046997D01*
X0115704Y0043003D02*
X0119100Y0043003D01*
X0119100Y0042005D02*
X0116062Y0042005D01*
X0116062Y0041006D02*
X0119970Y0041006D01*
X0120981Y0040008D02*
X0116062Y0040008D01*
X0116062Y0039009D02*
X0117169Y0039009D01*
X0116869Y0035410D02*
X0117636Y0034644D01*
X0118683Y0034210D01*
X0119817Y0034210D01*
X0120864Y0034644D01*
X0121666Y0035446D01*
X0122100Y0036493D01*
X0122100Y0037627D01*
X0121843Y0038248D01*
X0122600Y0038248D01*
X0122600Y0033877D01*
X0127600Y0028877D01*
X0127600Y0014788D01*
X0126418Y0014299D01*
X0125011Y0012892D01*
X0124250Y0011055D01*
X0123489Y0012892D01*
X0122082Y0014299D01*
X0120245Y0015060D01*
X0118255Y0015060D01*
X0116418Y0014299D01*
X0115011Y0012892D01*
X0114250Y0011055D01*
X0113489Y0012892D01*
X0112082Y0014299D01*
X0110245Y0015060D01*
X0108255Y0015060D01*
X0106418Y0014299D01*
X0105011Y0012892D01*
X0104250Y0011055D01*
X0103489Y0012892D01*
X0102082Y0014299D01*
X0101191Y0014668D01*
X0104933Y0018410D01*
X0111869Y0018410D01*
X0112636Y0017644D01*
X0113683Y0017210D01*
X0114817Y0017210D01*
X0115864Y0017644D01*
X0116666Y0018446D01*
X0117100Y0019493D01*
X0117100Y0020627D01*
X0116666Y0021674D01*
X0115900Y0022440D01*
X0115900Y0025743D01*
X0115054Y0026590D01*
X0115054Y0026791D01*
X0116107Y0026791D01*
X0116641Y0027325D01*
X0116731Y0027170D01*
X0117010Y0026891D01*
X0117352Y0026694D01*
X0117734Y0026591D01*
X0119612Y0026591D01*
X0119612Y0029576D01*
X0120581Y0029576D01*
X0120581Y0030544D01*
X0123762Y0030544D01*
X0123762Y0032226D01*
X0123660Y0032607D01*
X0123462Y0032950D01*
X0123183Y0033229D01*
X0122841Y0033426D01*
X0122459Y0033528D01*
X0120581Y0033528D01*
X0120581Y0030544D01*
X0119612Y0030544D01*
X0119612Y0033528D01*
X0117734Y0033528D01*
X0117352Y0033426D01*
X0117010Y0033229D01*
X0116731Y0032950D01*
X0116641Y0032795D01*
X0116107Y0033328D01*
X0110900Y0033328D01*
X0110900Y0036077D01*
X0110929Y0036048D01*
X0111567Y0035410D01*
X0116869Y0035410D01*
X0117264Y0035015D02*
X0110900Y0035015D01*
X0110900Y0034017D02*
X0122600Y0034017D01*
X0122600Y0035015D02*
X0121236Y0035015D01*
X0121901Y0036014D02*
X0122600Y0036014D01*
X0122600Y0037012D02*
X0122100Y0037012D01*
X0121941Y0038011D02*
X0122600Y0038011D01*
X0125900Y0038011D02*
X0129687Y0038011D01*
X0130011Y0037228D02*
X0131418Y0035821D01*
X0133255Y0035060D01*
X0135245Y0035060D01*
X0137082Y0035821D01*
X0138489Y0037228D01*
X0139250Y0039065D01*
X0139250Y0041055D01*
X0138489Y0042892D01*
X0137082Y0044299D01*
X0135245Y0045060D01*
X0133255Y0045060D01*
X0131418Y0044299D01*
X0130011Y0042892D01*
X0129250Y0041055D01*
X0129250Y0039065D01*
X0130011Y0037228D01*
X0130227Y0037012D02*
X0125900Y0037012D01*
X0125900Y0036014D02*
X0131225Y0036014D01*
X0129273Y0039009D02*
X0127518Y0039009D01*
X0127518Y0039010D02*
X0127518Y0044417D01*
X0126876Y0045060D01*
X0127518Y0045703D01*
X0127518Y0046756D01*
X0128280Y0046756D01*
X0129642Y0048119D01*
X0130011Y0047228D01*
X0131418Y0045821D01*
X0133255Y0045060D01*
X0135245Y0045060D01*
X0137082Y0045821D01*
X0138489Y0047228D01*
X0139250Y0049065D01*
X0139250Y0051055D01*
X0138489Y0052892D01*
X0137082Y0054299D01*
X0136889Y0054379D01*
X0138496Y0054810D01*
X0139350Y0055303D01*
X0139350Y0010560D01*
X0138750Y0010560D01*
X0138750Y0015246D01*
X0138032Y0015132D01*
X0137518Y0014965D01*
X0137518Y0015710D01*
X0137021Y0016911D01*
X0136101Y0017831D01*
X0134900Y0018328D01*
X0133600Y0018328D01*
X0132399Y0017831D01*
X0131479Y0016911D01*
X0130981Y0015710D01*
X0130981Y0014755D01*
X0130900Y0014788D01*
X0130900Y0030243D01*
X0125900Y0035243D01*
X0125900Y0038248D01*
X0126757Y0038248D01*
X0127518Y0039010D01*
X0127518Y0040008D02*
X0129250Y0040008D01*
X0129250Y0041006D02*
X0127518Y0041006D01*
X0127518Y0042005D02*
X0129644Y0042005D01*
X0130122Y0043003D02*
X0127518Y0043003D01*
X0127518Y0044002D02*
X0131121Y0044002D01*
X0131240Y0045999D02*
X0127518Y0045999D01*
X0126935Y0045000D02*
X0133112Y0045000D01*
X0135388Y0045000D02*
X0139350Y0045000D01*
X0139350Y0044002D02*
X0137379Y0044002D01*
X0138378Y0043003D02*
X0139350Y0043003D01*
X0139350Y0042005D02*
X0138856Y0042005D01*
X0139250Y0041006D02*
X0139350Y0041006D01*
X0139350Y0040008D02*
X0139250Y0040008D01*
X0139227Y0039009D02*
X0139350Y0039009D01*
X0139350Y0038011D02*
X0138813Y0038011D01*
X0139350Y0037012D02*
X0138273Y0037012D01*
X0137275Y0036014D02*
X0139350Y0036014D01*
X0139350Y0035015D02*
X0126128Y0035015D01*
X0127127Y0034017D02*
X0139350Y0034017D01*
X0139350Y0033018D02*
X0128125Y0033018D01*
X0129124Y0032020D02*
X0139350Y0032020D01*
X0139350Y0031021D02*
X0130122Y0031021D01*
X0130900Y0030023D02*
X0139350Y0030023D01*
X0139350Y0029024D02*
X0130900Y0029024D01*
X0130900Y0028026D02*
X0139350Y0028026D01*
X0139350Y0027027D02*
X0130900Y0027027D01*
X0130900Y0026029D02*
X0139350Y0026029D01*
X0139350Y0025030D02*
X0130900Y0025030D01*
X0130900Y0024032D02*
X0139350Y0024032D01*
X0139350Y0023033D02*
X0130900Y0023033D01*
X0130900Y0022035D02*
X0139350Y0022035D01*
X0139350Y0021036D02*
X0130900Y0021036D01*
X0130900Y0020038D02*
X0139350Y0020038D01*
X0139350Y0019039D02*
X0130900Y0019039D01*
X0130900Y0018041D02*
X0132905Y0018041D01*
X0131610Y0017042D02*
X0130900Y0017042D01*
X0130900Y0016044D02*
X0131120Y0016044D01*
X0130981Y0015045D02*
X0130900Y0015045D01*
X0127600Y0015045D02*
X0120280Y0015045D01*
X0118220Y0015045D02*
X0110280Y0015045D01*
X0108220Y0015045D02*
X0101569Y0015045D01*
X0102334Y0014047D02*
X0106166Y0014047D01*
X0105167Y0013048D02*
X0103333Y0013048D01*
X0103838Y0012050D02*
X0104662Y0012050D01*
X0104250Y0011055D02*
X0104250Y0009960D01*
X0104250Y0009960D01*
X0104250Y0011055D01*
X0104250Y0011051D02*
X0104250Y0011051D01*
X0104250Y0010053D02*
X0104250Y0010053D01*
X0102567Y0016044D02*
X0127600Y0016044D01*
X0127600Y0017042D02*
X0103566Y0017042D01*
X0104564Y0018041D02*
X0112239Y0018041D01*
X0112334Y0014047D02*
X0116166Y0014047D01*
X0115167Y0013048D02*
X0113333Y0013048D01*
X0113838Y0012050D02*
X0114662Y0012050D01*
X0114250Y0011055D02*
X0114250Y0009960D01*
X0114250Y0009960D01*
X0114250Y0011055D01*
X0114250Y0011051D02*
X0114250Y0011051D01*
X0114250Y0010053D02*
X0114250Y0010053D01*
X0122334Y0014047D02*
X0126166Y0014047D01*
X0125167Y0013048D02*
X0123333Y0013048D01*
X0123838Y0012050D02*
X0124662Y0012050D01*
X0124250Y0011055D02*
X0124250Y0009960D01*
X0124250Y0009960D01*
X0124250Y0011055D01*
X0124250Y0011051D02*
X0124250Y0011051D01*
X0124250Y0010053D02*
X0124250Y0010053D01*
X0127600Y0018041D02*
X0116261Y0018041D01*
X0116912Y0019039D02*
X0127600Y0019039D01*
X0127600Y0020038D02*
X0117100Y0020038D01*
X0116930Y0021036D02*
X0127600Y0021036D01*
X0127600Y0022035D02*
X0116306Y0022035D01*
X0115900Y0023033D02*
X0127600Y0023033D01*
X0127600Y0024032D02*
X0115900Y0024032D01*
X0115900Y0025030D02*
X0127600Y0025030D01*
X0127600Y0026029D02*
X0115615Y0026029D01*
X0116343Y0027027D02*
X0116874Y0027027D01*
X0119612Y0027027D02*
X0120581Y0027027D01*
X0120581Y0026591D02*
X0122459Y0026591D01*
X0122841Y0026694D01*
X0123183Y0026891D01*
X0123462Y0027170D01*
X0123660Y0027512D01*
X0123762Y0027894D01*
X0123762Y0029576D01*
X0120581Y0029576D01*
X0120581Y0026591D01*
X0120581Y0028026D02*
X0119612Y0028026D01*
X0119612Y0029024D02*
X0120581Y0029024D01*
X0120581Y0030023D02*
X0126454Y0030023D01*
X0127452Y0029024D02*
X0123762Y0029024D01*
X0123762Y0028026D02*
X0127600Y0028026D01*
X0127600Y0027027D02*
X0123319Y0027027D01*
X0123762Y0031021D02*
X0125455Y0031021D01*
X0124457Y0032020D02*
X0123762Y0032020D01*
X0123458Y0033018D02*
X0123393Y0033018D01*
X0120581Y0033018D02*
X0119612Y0033018D01*
X0119612Y0032020D02*
X0120581Y0032020D01*
X0120581Y0031021D02*
X0119612Y0031021D01*
X0116800Y0033018D02*
X0116418Y0033018D01*
X0110963Y0036014D02*
X0110900Y0036014D01*
X0102367Y0038011D02*
X0100900Y0038011D01*
X0100900Y0039009D02*
X0102438Y0039009D01*
X0102438Y0040008D02*
X0100900Y0040008D01*
X0100900Y0041006D02*
X0102438Y0041006D01*
X0102438Y0042005D02*
X0100900Y0042005D01*
X0100900Y0043003D02*
X0102796Y0043003D01*
X0100900Y0044002D02*
X0119100Y0044002D01*
X0119100Y0045000D02*
X0100900Y0045000D01*
X0101328Y0037012D02*
X0101369Y0037012D01*
X0122400Y0051990D02*
X0129637Y0051990D01*
X0130107Y0052989D02*
X0122400Y0052989D01*
X0122400Y0053987D02*
X0131106Y0053987D01*
X0129699Y0054986D02*
X0122400Y0054986D01*
X0121659Y0055984D02*
X0127970Y0055984D01*
X0126771Y0056983D02*
X0120661Y0056983D01*
X0119662Y0057981D02*
X0125773Y0057981D01*
X0125059Y0058980D02*
X0118664Y0058980D01*
X0116062Y0059978D02*
X0124482Y0059978D01*
X0123956Y0060977D02*
X0114246Y0060977D01*
X0114168Y0061975D02*
X0123689Y0061975D01*
X0123421Y0062974D02*
X0113170Y0062974D01*
X0112171Y0063972D02*
X0123250Y0063972D01*
X0123250Y0064971D02*
X0111173Y0064971D01*
X0109501Y0061975D02*
X0098999Y0061975D01*
X0105419Y0060977D02*
X0106388Y0060977D01*
X0106388Y0059978D02*
X0105419Y0059978D01*
X0105419Y0058980D02*
X0106388Y0058980D01*
X0108460Y0060977D02*
X0110500Y0060977D01*
X0127518Y0050992D02*
X0127848Y0050992D01*
X0129519Y0047996D02*
X0129693Y0047996D01*
X0130241Y0046997D02*
X0128521Y0046997D01*
X0137260Y0045999D02*
X0139350Y0045999D01*
X0139350Y0046997D02*
X0138259Y0046997D01*
X0138807Y0047996D02*
X0139350Y0047996D01*
X0139350Y0048994D02*
X0139221Y0048994D01*
X0139250Y0049993D02*
X0139350Y0049993D01*
X0139350Y0050992D02*
X0139250Y0050992D01*
X0139350Y0051990D02*
X0138863Y0051990D01*
X0138393Y0052989D02*
X0139350Y0052989D01*
X0139350Y0053987D02*
X0137394Y0053987D01*
X0138801Y0054986D02*
X0139350Y0054986D01*
X0139350Y0018041D02*
X0135595Y0018041D01*
X0136890Y0017042D02*
X0139350Y0017042D01*
X0139350Y0016044D02*
X0137380Y0016044D01*
X0137518Y0015045D02*
X0137765Y0015045D01*
X0138750Y0015045D02*
X0139350Y0015045D01*
X0139350Y0014047D02*
X0138750Y0014047D01*
X0138750Y0013048D02*
X0139350Y0013048D01*
X0139350Y0012050D02*
X0138750Y0012050D01*
X0138750Y0011051D02*
X0139350Y0011051D01*
X0184334Y0014047D02*
X0188166Y0014047D01*
X0187167Y0013048D02*
X0185333Y0013048D01*
X0185838Y0012050D02*
X0186662Y0012050D01*
X0186250Y0011055D02*
X0186250Y0009960D01*
X0186250Y0009960D01*
X0186250Y0011055D01*
X0186250Y0011051D02*
X0186250Y0011051D01*
X0186250Y0010053D02*
X0186250Y0010053D01*
X0194334Y0014047D02*
X0198166Y0014047D01*
X0197167Y0013048D02*
X0195333Y0013048D01*
X0195838Y0012050D02*
X0196662Y0012050D01*
X0196250Y0011055D02*
X0196250Y0009960D01*
X0196250Y0009960D01*
X0196250Y0011055D01*
X0196250Y0011051D02*
X0196250Y0011051D01*
X0196250Y0010053D02*
X0196250Y0010053D01*
X0207595Y0018041D02*
X0211350Y0018041D01*
X0211350Y0017042D02*
X0208890Y0017042D01*
X0209380Y0016044D02*
X0211350Y0016044D01*
X0211350Y0015045D02*
X0210750Y0015045D01*
X0209765Y0015045D02*
X0209518Y0015045D01*
X0210750Y0014047D02*
X0211350Y0014047D01*
X0211350Y0013048D02*
X0210750Y0013048D01*
X0210750Y0012050D02*
X0211350Y0012050D01*
X0211350Y0011051D02*
X0210750Y0011051D01*
X0183070Y0107907D02*
X0182900Y0107907D01*
X0174260Y0109904D02*
X0172900Y0109904D01*
X0172900Y0110902D02*
X0174438Y0110902D01*
X0174438Y0111901D02*
X0172900Y0111901D01*
X0172900Y0112899D02*
X0174438Y0112899D01*
X0174438Y0113898D02*
X0172900Y0113898D01*
X0172900Y0114896D02*
X0174689Y0114896D01*
X0187478Y0118890D02*
X0191100Y0118890D01*
X0117702Y0158831D02*
X0110798Y0158831D01*
X0112549Y0157832D02*
X0115951Y0157832D01*
X0114987Y0156834D02*
X0113513Y0156834D01*
X0113927Y0155835D02*
X0114573Y0155835D01*
X0114250Y0155055D02*
X0114250Y0153960D01*
X0114250Y0155055D01*
X0114250Y0154837D02*
X0114250Y0154837D01*
X0114250Y0153960D02*
X0114250Y0153960D01*
X0107702Y0158831D02*
X0101354Y0158831D01*
X0102549Y0157832D02*
X0105951Y0157832D01*
X0104987Y0156834D02*
X0103513Y0156834D01*
X0103927Y0155835D02*
X0104573Y0155835D01*
X0104250Y0155055D02*
X0104250Y0153960D01*
X0104250Y0155055D01*
X0104250Y0154837D02*
X0104250Y0154837D01*
X0104250Y0153960D02*
X0104250Y0153960D01*
X0104350Y0161826D02*
X0112453Y0161826D01*
X0067350Y0161826D02*
X0064106Y0161826D01*
X0064101Y0161831D02*
X0062900Y0162328D01*
X0061600Y0162328D01*
X0060399Y0161831D01*
X0059479Y0160911D01*
X0058981Y0159710D01*
X0058981Y0158755D01*
X0058900Y0158788D01*
X0058900Y0174243D01*
X0053900Y0179243D01*
X0053900Y0182248D01*
X0054757Y0182248D01*
X0055518Y0183010D01*
X0055518Y0188417D01*
X0054876Y0189060D01*
X0055518Y0189703D01*
X0055518Y0190756D01*
X0056280Y0190756D01*
X0057642Y0192119D01*
X0058011Y0191228D01*
X0059418Y0189821D01*
X0061255Y0189060D01*
X0059418Y0188299D01*
X0058011Y0186892D01*
X0057250Y0185055D01*
X0057250Y0183065D01*
X0058011Y0181228D01*
X0059418Y0179821D01*
X0061255Y0179060D01*
X0063245Y0179060D01*
X0065082Y0179821D01*
X0066489Y0181228D01*
X0067250Y0183065D01*
X0067250Y0185055D01*
X0066489Y0186892D01*
X0065082Y0188299D01*
X0063245Y0189060D01*
X0061255Y0189060D01*
X0063245Y0189060D01*
X0065082Y0189821D01*
X0066489Y0191228D01*
X0067250Y0193065D01*
X0067250Y0195055D01*
X0066489Y0196892D01*
X0065082Y0198299D01*
X0064889Y0198379D01*
X0066496Y0198810D01*
X0067350Y0199303D01*
X0067350Y0154560D01*
X0066750Y0154560D01*
X0066750Y0159246D01*
X0066032Y0159132D01*
X0065518Y0158965D01*
X0065518Y0159710D01*
X0065021Y0160911D01*
X0064101Y0161831D01*
X0065056Y0160828D02*
X0067350Y0160828D01*
X0067350Y0159829D02*
X0065469Y0159829D01*
X0066750Y0158831D02*
X0067350Y0158831D01*
X0067350Y0157832D02*
X0066750Y0157832D01*
X0066750Y0156834D02*
X0067350Y0156834D01*
X0067350Y0155835D02*
X0066750Y0155835D01*
X0066750Y0154837D02*
X0067350Y0154837D01*
X0059444Y0160828D02*
X0058900Y0160828D01*
X0058900Y0161826D02*
X0060394Y0161826D01*
X0058900Y0162825D02*
X0067350Y0162825D01*
X0067350Y0163823D02*
X0058900Y0163823D01*
X0058900Y0164822D02*
X0067350Y0164822D01*
X0067350Y0165820D02*
X0058900Y0165820D01*
X0058900Y0166819D02*
X0067350Y0166819D01*
X0067350Y0167817D02*
X0058900Y0167817D01*
X0058900Y0168816D02*
X0067350Y0168816D01*
X0067350Y0169814D02*
X0058900Y0169814D01*
X0058900Y0170813D02*
X0067350Y0170813D01*
X0067350Y0171811D02*
X0058900Y0171811D01*
X0058900Y0172810D02*
X0067350Y0172810D01*
X0067350Y0173808D02*
X0058900Y0173808D01*
X0058337Y0174807D02*
X0067350Y0174807D01*
X0067350Y0175805D02*
X0057338Y0175805D01*
X0056339Y0176804D02*
X0067350Y0176804D01*
X0067350Y0177802D02*
X0055341Y0177802D01*
X0054342Y0178801D02*
X0067350Y0178801D01*
X0067350Y0179799D02*
X0065030Y0179799D01*
X0066059Y0180798D02*
X0067350Y0180798D01*
X0067350Y0181796D02*
X0066724Y0181796D01*
X0067138Y0182795D02*
X0067350Y0182795D01*
X0067350Y0183794D02*
X0067250Y0183794D01*
X0067250Y0184792D02*
X0067350Y0184792D01*
X0067350Y0185791D02*
X0066945Y0185791D01*
X0067350Y0186789D02*
X0066532Y0186789D01*
X0067350Y0187788D02*
X0065593Y0187788D01*
X0063906Y0188786D02*
X0067350Y0188786D01*
X0067350Y0189785D02*
X0064994Y0189785D01*
X0066044Y0190783D02*
X0067350Y0190783D01*
X0067350Y0191782D02*
X0066718Y0191782D01*
X0067132Y0192780D02*
X0067350Y0192780D01*
X0067350Y0193779D02*
X0067250Y0193779D01*
X0067250Y0194777D02*
X0067350Y0194777D01*
X0067350Y0195776D02*
X0066951Y0195776D01*
X0067350Y0196774D02*
X0066538Y0196774D01*
X0067350Y0197773D02*
X0065608Y0197773D01*
X0066352Y0198771D02*
X0067350Y0198771D01*
X0059611Y0198379D02*
X0059418Y0198299D01*
X0058011Y0196892D01*
X0057521Y0195710D01*
X0056567Y0195710D01*
X0055600Y0194743D01*
X0055518Y0194662D01*
X0055518Y0195110D01*
X0054757Y0195872D01*
X0050400Y0195872D01*
X0050400Y0199243D01*
X0046433Y0203210D01*
X0044062Y0203210D01*
X0044062Y0204067D01*
X0043300Y0204828D01*
X0042246Y0204828D01*
X0042246Y0205897D01*
X0041280Y0206864D01*
X0038433Y0209710D01*
X0026067Y0209710D01*
X0022987Y0206630D01*
X0023250Y0207612D01*
X0023250Y0210508D01*
X0022500Y0213306D01*
X0022007Y0214160D01*
X0052493Y0214160D01*
X0052000Y0213306D01*
X0051250Y0210508D01*
X0051250Y0207612D01*
X0052000Y0204814D01*
X0053448Y0202306D01*
X0055496Y0200258D01*
X0058004Y0198810D01*
X0059611Y0198379D01*
X0058892Y0197773D02*
X0050400Y0197773D01*
X0050400Y0198771D02*
X0058148Y0198771D01*
X0057962Y0196774D02*
X0050400Y0196774D01*
X0049874Y0199770D02*
X0056341Y0199770D01*
X0054985Y0200768D02*
X0048875Y0200768D01*
X0047877Y0201767D02*
X0053987Y0201767D01*
X0053183Y0202765D02*
X0046878Y0202765D01*
X0044062Y0203764D02*
X0052606Y0203764D01*
X0052030Y0204762D02*
X0043367Y0204762D01*
X0042246Y0205761D02*
X0051746Y0205761D01*
X0051478Y0206759D02*
X0041384Y0206759D01*
X0040386Y0207758D02*
X0051250Y0207758D01*
X0051250Y0208756D02*
X0039387Y0208756D01*
X0037067Y0206410D02*
X0027433Y0206410D01*
X0022100Y0201077D01*
X0022100Y0199993D01*
X0021983Y0199710D01*
X0024434Y0199710D01*
X0024834Y0200674D01*
X0025636Y0201476D01*
X0026683Y0201910D01*
X0027817Y0201910D01*
X0028864Y0201476D01*
X0029666Y0200674D01*
X0030066Y0199710D01*
X0030238Y0199710D01*
X0030238Y0201076D01*
X0033419Y0201076D01*
X0033419Y0202044D01*
X0030238Y0202044D01*
X0030238Y0203726D01*
X0030340Y0204107D01*
X0030538Y0204450D01*
X0030817Y0204729D01*
X0031159Y0204926D01*
X0031541Y0205028D01*
X0033419Y0205028D01*
X0033419Y0202044D01*
X0034388Y0202044D01*
X0034388Y0205028D01*
X0036266Y0205028D01*
X0036648Y0204926D01*
X0036990Y0204729D01*
X0037269Y0204450D01*
X0037359Y0204295D01*
X0037893Y0204828D01*
X0038648Y0204828D01*
X0037067Y0206410D01*
X0037716Y0205761D02*
X0026784Y0205761D01*
X0025786Y0204762D02*
X0030875Y0204762D01*
X0030248Y0203764D02*
X0024787Y0203764D01*
X0023789Y0202765D02*
X0030238Y0202765D01*
X0030238Y0200768D02*
X0029572Y0200768D01*
X0030041Y0199770D02*
X0030238Y0199770D01*
X0028163Y0201767D02*
X0033419Y0201767D01*
X0033419Y0202765D02*
X0034388Y0202765D01*
X0034388Y0203764D02*
X0033419Y0203764D01*
X0033419Y0204762D02*
X0034388Y0204762D01*
X0036932Y0204762D02*
X0037826Y0204762D01*
X0026337Y0201767D02*
X0022790Y0201767D01*
X0022100Y0200768D02*
X0024928Y0200768D01*
X0024459Y0199770D02*
X0022007Y0199770D01*
X0026018Y0194410D02*
X0030438Y0194410D01*
X0030438Y0191474D01*
X0031200Y0190713D01*
X0043300Y0190713D01*
X0044062Y0191474D01*
X0044062Y0191741D01*
X0047100Y0191741D01*
X0047100Y0185877D01*
X0048067Y0184910D01*
X0048913Y0184064D01*
X0048981Y0184064D01*
X0048981Y0183359D01*
X0048864Y0183476D01*
X0047817Y0183910D01*
X0046683Y0183910D01*
X0045636Y0183476D01*
X0044869Y0182710D01*
X0043959Y0182710D01*
X0044062Y0182813D01*
X0044062Y0186646D01*
X0043300Y0187407D01*
X0033562Y0187407D01*
X0031200Y0187407D01*
X0030438Y0186646D01*
X0030438Y0182813D01*
X0030804Y0182447D01*
X0029349Y0180992D01*
X0028900Y0181440D01*
X0028900Y0191743D01*
X0027933Y0192710D01*
X0026587Y0194056D01*
X0026018Y0194056D01*
X0026018Y0194410D01*
X0026865Y0193779D02*
X0030438Y0193779D01*
X0030438Y0192780D02*
X0027863Y0192780D01*
X0028862Y0191782D02*
X0030438Y0191782D01*
X0031129Y0190783D02*
X0028900Y0190783D01*
X0028900Y0189785D02*
X0047100Y0189785D01*
X0047100Y0190783D02*
X0043371Y0190783D01*
X0043918Y0186789D02*
X0047100Y0186789D01*
X0047100Y0187788D02*
X0028900Y0187788D01*
X0028900Y0188786D02*
X0047100Y0188786D01*
X0047186Y0185791D02*
X0044062Y0185791D01*
X0044062Y0184792D02*
X0048184Y0184792D01*
X0048098Y0183794D02*
X0048981Y0183794D01*
X0049843Y0182248D02*
X0050600Y0182248D01*
X0050600Y0177877D01*
X0051567Y0176910D01*
X0055600Y0172877D01*
X0055600Y0158788D01*
X0054418Y0158299D01*
X0053011Y0156892D01*
X0052250Y0155055D01*
X0051489Y0156892D01*
X0050082Y0158299D01*
X0048245Y0159060D01*
X0046255Y0159060D01*
X0044418Y0158299D01*
X0043011Y0156892D01*
X0042250Y0155055D01*
X0041489Y0156892D01*
X0040082Y0158299D01*
X0038245Y0159060D01*
X0036255Y0159060D01*
X0034418Y0158299D01*
X0033011Y0156892D01*
X0032250Y0155055D01*
X0031489Y0156892D01*
X0030082Y0158299D01*
X0029191Y0158668D01*
X0032933Y0162410D01*
X0039869Y0162410D01*
X0040636Y0161644D01*
X0041683Y0161210D01*
X0042817Y0161210D01*
X0043864Y0161644D01*
X0044666Y0162446D01*
X0045100Y0163493D01*
X0045100Y0164627D01*
X0044666Y0165674D01*
X0043900Y0166440D01*
X0043900Y0169743D01*
X0043054Y0170590D01*
X0043054Y0170791D01*
X0044107Y0170791D01*
X0044641Y0171325D01*
X0044731Y0171170D01*
X0045010Y0170891D01*
X0045352Y0170694D01*
X0045734Y0170591D01*
X0047612Y0170591D01*
X0047612Y0173576D01*
X0048581Y0173576D01*
X0048581Y0174544D01*
X0051762Y0174544D01*
X0051762Y0176226D01*
X0051660Y0176607D01*
X0051462Y0176950D01*
X0051183Y0177229D01*
X0050841Y0177426D01*
X0050459Y0177528D01*
X0048581Y0177528D01*
X0048581Y0174544D01*
X0047612Y0174544D01*
X0047612Y0177528D01*
X0045734Y0177528D01*
X0045352Y0177426D01*
X0045010Y0177229D01*
X0044731Y0176950D01*
X0044641Y0176795D01*
X0044107Y0177328D01*
X0038900Y0177328D01*
X0038900Y0180077D01*
X0038929Y0180048D01*
X0039567Y0179410D01*
X0044869Y0179410D01*
X0045636Y0178644D01*
X0046683Y0178210D01*
X0047817Y0178210D01*
X0048864Y0178644D01*
X0049666Y0179446D01*
X0050100Y0180493D01*
X0050100Y0181627D01*
X0049843Y0182248D01*
X0050030Y0181796D02*
X0050600Y0181796D01*
X0050600Y0180798D02*
X0050100Y0180798D01*
X0049813Y0179799D02*
X0050600Y0179799D01*
X0050600Y0178801D02*
X0049021Y0178801D01*
X0050674Y0177802D02*
X0038900Y0177802D01*
X0038900Y0178801D02*
X0045479Y0178801D01*
X0044647Y0176804D02*
X0044632Y0176804D01*
X0047612Y0176804D02*
X0048581Y0176804D01*
X0048581Y0175805D02*
X0047612Y0175805D01*
X0047612Y0174807D02*
X0048581Y0174807D01*
X0048581Y0173808D02*
X0054668Y0173808D01*
X0055600Y0172810D02*
X0051762Y0172810D01*
X0051762Y0173576D02*
X0051762Y0171894D01*
X0051660Y0171513D01*
X0051462Y0171170D01*
X0051183Y0170891D01*
X0050841Y0170694D01*
X0050459Y0170591D01*
X0048581Y0170591D01*
X0048581Y0173576D01*
X0051762Y0173576D01*
X0051762Y0174807D02*
X0053670Y0174807D01*
X0052671Y0175805D02*
X0051762Y0175805D01*
X0051673Y0176804D02*
X0051546Y0176804D01*
X0051567Y0176910D02*
X0051567Y0176910D01*
X0053900Y0179799D02*
X0059470Y0179799D01*
X0058441Y0180798D02*
X0053900Y0180798D01*
X0053900Y0181796D02*
X0057776Y0181796D01*
X0057362Y0182795D02*
X0055304Y0182795D01*
X0055518Y0183794D02*
X0057250Y0183794D01*
X0057250Y0184792D02*
X0055518Y0184792D01*
X0055518Y0185791D02*
X0057555Y0185791D01*
X0057968Y0186789D02*
X0055518Y0186789D01*
X0055518Y0187788D02*
X0058907Y0187788D01*
X0060594Y0188786D02*
X0055150Y0188786D01*
X0055518Y0189785D02*
X0059506Y0189785D01*
X0058456Y0190783D02*
X0056307Y0190783D01*
X0057305Y0191782D02*
X0057782Y0191782D01*
X0055600Y0194743D02*
X0055600Y0194743D01*
X0055634Y0194777D02*
X0055518Y0194777D01*
X0054853Y0195776D02*
X0057549Y0195776D01*
X0051250Y0209755D02*
X0023250Y0209755D01*
X0023250Y0208756D02*
X0025113Y0208756D01*
X0024114Y0207758D02*
X0023250Y0207758D01*
X0023116Y0206759D02*
X0023022Y0206759D01*
X0023184Y0210753D02*
X0051316Y0210753D01*
X0051583Y0211752D02*
X0022917Y0211752D01*
X0022649Y0212750D02*
X0051851Y0212750D01*
X0052255Y0213749D02*
X0022245Y0213749D01*
X0028900Y0186789D02*
X0030582Y0186789D01*
X0030438Y0185791D02*
X0028900Y0185791D01*
X0028900Y0184792D02*
X0030438Y0184792D01*
X0030438Y0183794D02*
X0028900Y0183794D01*
X0028900Y0182795D02*
X0030456Y0182795D01*
X0030153Y0181796D02*
X0028900Y0181796D01*
X0038900Y0179799D02*
X0039177Y0179799D01*
X0044044Y0182795D02*
X0044955Y0182795D01*
X0044062Y0183794D02*
X0046402Y0183794D01*
X0047612Y0172810D02*
X0048581Y0172810D01*
X0048581Y0171811D02*
X0047612Y0171811D01*
X0047612Y0170813D02*
X0048581Y0170813D01*
X0051047Y0170813D02*
X0055600Y0170813D01*
X0055600Y0171811D02*
X0051740Y0171811D01*
X0055600Y0169814D02*
X0043829Y0169814D01*
X0043900Y0168816D02*
X0055600Y0168816D01*
X0055600Y0167817D02*
X0043900Y0167817D01*
X0043900Y0166819D02*
X0055600Y0166819D01*
X0055600Y0165820D02*
X0044520Y0165820D01*
X0045019Y0164822D02*
X0055600Y0164822D01*
X0055600Y0163823D02*
X0045100Y0163823D01*
X0044823Y0162825D02*
X0055600Y0162825D01*
X0055600Y0161826D02*
X0044047Y0161826D01*
X0045702Y0158831D02*
X0038798Y0158831D01*
X0040549Y0157832D02*
X0043951Y0157832D01*
X0042987Y0156834D02*
X0041513Y0156834D01*
X0041927Y0155835D02*
X0042573Y0155835D01*
X0042250Y0155055D02*
X0042250Y0153960D01*
X0042250Y0155055D01*
X0042250Y0154837D02*
X0042250Y0154837D01*
X0042250Y0153960D02*
X0042250Y0153960D01*
X0035702Y0158831D02*
X0029354Y0158831D01*
X0030353Y0159829D02*
X0055600Y0159829D01*
X0055600Y0158831D02*
X0048798Y0158831D01*
X0050549Y0157832D02*
X0053951Y0157832D01*
X0052987Y0156834D02*
X0051513Y0156834D01*
X0051927Y0155835D02*
X0052573Y0155835D01*
X0052250Y0155055D02*
X0052250Y0153960D01*
X0052250Y0155055D01*
X0052250Y0154837D02*
X0052250Y0154837D01*
X0052250Y0153960D02*
X0052250Y0153960D01*
X0055600Y0160828D02*
X0031351Y0160828D01*
X0032350Y0161826D02*
X0040453Y0161826D01*
X0033951Y0157832D02*
X0030549Y0157832D01*
X0031513Y0156834D02*
X0032987Y0156834D01*
X0032573Y0155835D02*
X0031927Y0155835D01*
X0032250Y0155055D02*
X0032250Y0153960D01*
X0032250Y0153960D01*
X0032250Y0155055D01*
X0032250Y0154837D02*
X0032250Y0154837D01*
X0022007Y0142160D02*
X0052493Y0142160D01*
X0052000Y0141306D01*
X0051250Y0138508D01*
X0051250Y0135612D01*
X0052000Y0132814D01*
X0053448Y0130306D01*
X0055496Y0128258D01*
X0058004Y0126810D01*
X0059611Y0126379D01*
X0059418Y0126299D01*
X0058011Y0124892D01*
X0057521Y0123710D01*
X0056567Y0123710D01*
X0055600Y0122743D01*
X0055518Y0122662D01*
X0055518Y0123110D01*
X0054757Y0123872D01*
X0050400Y0123872D01*
X0050400Y0127243D01*
X0046433Y0131210D01*
X0044062Y0131210D01*
X0044062Y0132067D01*
X0043300Y0132828D01*
X0042246Y0132828D01*
X0042246Y0133897D01*
X0041280Y0134864D01*
X0038433Y0137710D01*
X0026067Y0137710D01*
X0022987Y0134630D01*
X0023250Y0135612D01*
X0023250Y0138508D01*
X0022500Y0141306D01*
X0022007Y0142160D01*
X0022183Y0141856D02*
X0052317Y0141856D01*
X0051880Y0140858D02*
X0022620Y0140858D01*
X0022888Y0139859D02*
X0051612Y0139859D01*
X0051344Y0138861D02*
X0023156Y0138861D01*
X0023250Y0137862D02*
X0051250Y0137862D01*
X0051250Y0136863D02*
X0039280Y0136863D01*
X0040278Y0135865D02*
X0051250Y0135865D01*
X0051450Y0134866D02*
X0041277Y0134866D01*
X0042246Y0133868D02*
X0051717Y0133868D01*
X0051985Y0132869D02*
X0042246Y0132869D01*
X0044062Y0131871D02*
X0052544Y0131871D01*
X0053121Y0130872D02*
X0046771Y0130872D01*
X0047770Y0129874D02*
X0053880Y0129874D01*
X0054878Y0128875D02*
X0048768Y0128875D01*
X0049767Y0127877D02*
X0056156Y0127877D01*
X0057885Y0126878D02*
X0050400Y0126878D01*
X0050400Y0125880D02*
X0058999Y0125880D01*
X0058007Y0124881D02*
X0050400Y0124881D01*
X0050400Y0123883D02*
X0057593Y0123883D01*
X0055741Y0122884D02*
X0055518Y0122884D01*
X0057642Y0120119D02*
X0058011Y0119228D01*
X0059418Y0117821D01*
X0061255Y0117060D01*
X0059418Y0116299D01*
X0058011Y0114892D01*
X0057250Y0113055D01*
X0057250Y0111065D01*
X0058011Y0109228D01*
X0059418Y0107821D01*
X0061255Y0107060D01*
X0063245Y0107060D01*
X0065082Y0107821D01*
X0066489Y0109228D01*
X0067250Y0111065D01*
X0067250Y0113055D01*
X0066489Y0114892D01*
X0065082Y0116299D01*
X0063245Y0117060D01*
X0061255Y0117060D01*
X0063245Y0117060D01*
X0065082Y0117821D01*
X0066489Y0119228D01*
X0067250Y0121065D01*
X0067250Y0123055D01*
X0066489Y0124892D01*
X0065082Y0126299D01*
X0064889Y0126379D01*
X0066496Y0126810D01*
X0067350Y0127303D01*
X0067350Y0082560D01*
X0066750Y0082560D01*
X0066750Y0087246D01*
X0066032Y0087132D01*
X0065518Y0086965D01*
X0065518Y0087710D01*
X0065021Y0088911D01*
X0064101Y0089831D01*
X0062900Y0090328D01*
X0061600Y0090328D01*
X0060399Y0089831D01*
X0059479Y0088911D01*
X0058981Y0087710D01*
X0058981Y0086755D01*
X0058900Y0086788D01*
X0058900Y0102243D01*
X0053900Y0107243D01*
X0053900Y0110248D01*
X0054757Y0110248D01*
X0055518Y0111010D01*
X0055518Y0116417D01*
X0054876Y0117060D01*
X0055518Y0117703D01*
X0055518Y0118756D01*
X0056280Y0118756D01*
X0057642Y0120119D01*
X0057737Y0119889D02*
X0057412Y0119889D01*
X0058349Y0118890D02*
X0056414Y0118890D01*
X0055518Y0117892D02*
X0059347Y0117892D01*
X0060853Y0116893D02*
X0055043Y0116893D01*
X0055518Y0115895D02*
X0059014Y0115895D01*
X0058015Y0114896D02*
X0055518Y0114896D01*
X0055518Y0113898D02*
X0057599Y0113898D01*
X0057250Y0112899D02*
X0055518Y0112899D01*
X0055518Y0111901D02*
X0057250Y0111901D01*
X0057318Y0110902D02*
X0055411Y0110902D01*
X0053900Y0109904D02*
X0057731Y0109904D01*
X0058334Y0108905D02*
X0053900Y0108905D01*
X0053900Y0107907D02*
X0059332Y0107907D01*
X0056232Y0104911D02*
X0067350Y0104911D01*
X0067350Y0103913D02*
X0057231Y0103913D01*
X0058229Y0102914D02*
X0067350Y0102914D01*
X0067350Y0101916D02*
X0058900Y0101916D01*
X0058900Y0100917D02*
X0067350Y0100917D01*
X0067350Y0099919D02*
X0058900Y0099919D01*
X0058900Y0098920D02*
X0067350Y0098920D01*
X0067350Y0097922D02*
X0058900Y0097922D01*
X0058900Y0096923D02*
X0067350Y0096923D01*
X0067350Y0095925D02*
X0058900Y0095925D01*
X0058900Y0094926D02*
X0067350Y0094926D01*
X0067350Y0093927D02*
X0058900Y0093927D01*
X0058900Y0092929D02*
X0067350Y0092929D01*
X0067350Y0091930D02*
X0058900Y0091930D01*
X0058900Y0090932D02*
X0067350Y0090932D01*
X0067350Y0089933D02*
X0063854Y0089933D01*
X0064997Y0088935D02*
X0067350Y0088935D01*
X0067350Y0087936D02*
X0065425Y0087936D01*
X0066750Y0086938D02*
X0067350Y0086938D01*
X0067350Y0085939D02*
X0066750Y0085939D01*
X0066750Y0084941D02*
X0067350Y0084941D01*
X0067350Y0083942D02*
X0066750Y0083942D01*
X0066750Y0082944D02*
X0067350Y0082944D01*
X0060646Y0089933D02*
X0058900Y0089933D01*
X0058900Y0088935D02*
X0059503Y0088935D01*
X0059075Y0087936D02*
X0058900Y0087936D01*
X0058900Y0086938D02*
X0058981Y0086938D01*
X0055600Y0086938D02*
X0048539Y0086938D01*
X0048245Y0087060D02*
X0046255Y0087060D01*
X0044418Y0086299D01*
X0043011Y0084892D01*
X0042250Y0083055D01*
X0041489Y0084892D01*
X0040082Y0086299D01*
X0038245Y0087060D01*
X0036255Y0087060D01*
X0034418Y0086299D01*
X0033011Y0084892D01*
X0032250Y0083055D01*
X0031489Y0084892D01*
X0030082Y0086299D01*
X0029191Y0086668D01*
X0032933Y0090410D01*
X0039869Y0090410D01*
X0040636Y0089644D01*
X0041683Y0089210D01*
X0042817Y0089210D01*
X0043864Y0089644D01*
X0044666Y0090446D01*
X0045100Y0091493D01*
X0045100Y0092627D01*
X0044666Y0093674D01*
X0043900Y0094440D01*
X0043900Y0097743D01*
X0043054Y0098590D01*
X0043054Y0098791D01*
X0044107Y0098791D01*
X0044641Y0099325D01*
X0044731Y0099170D01*
X0045010Y0098891D01*
X0045352Y0098694D01*
X0045734Y0098591D01*
X0047612Y0098591D01*
X0047612Y0101576D01*
X0048581Y0101576D01*
X0048581Y0102544D01*
X0051762Y0102544D01*
X0051762Y0104226D01*
X0051660Y0104607D01*
X0051462Y0104950D01*
X0051183Y0105229D01*
X0050841Y0105426D01*
X0050459Y0105528D01*
X0048581Y0105528D01*
X0048581Y0102544D01*
X0047612Y0102544D01*
X0047612Y0105528D01*
X0045734Y0105528D01*
X0045352Y0105426D01*
X0045010Y0105229D01*
X0044731Y0104950D01*
X0044641Y0104795D01*
X0044107Y0105328D01*
X0038900Y0105328D01*
X0038900Y0108077D01*
X0038929Y0108048D01*
X0039567Y0107410D01*
X0044869Y0107410D01*
X0045636Y0106644D01*
X0046683Y0106210D01*
X0047817Y0106210D01*
X0048864Y0106644D01*
X0049666Y0107446D01*
X0050100Y0108493D01*
X0050100Y0109627D01*
X0049843Y0110248D01*
X0050600Y0110248D01*
X0050600Y0105877D01*
X0051567Y0104910D01*
X0055600Y0100877D01*
X0055600Y0086788D01*
X0054418Y0086299D01*
X0053011Y0084892D01*
X0052250Y0083055D01*
X0051489Y0084892D01*
X0050082Y0086299D01*
X0048245Y0087060D01*
X0050442Y0085939D02*
X0054058Y0085939D01*
X0053060Y0084941D02*
X0051440Y0084941D01*
X0051882Y0083942D02*
X0052618Y0083942D01*
X0052250Y0083055D02*
X0052250Y0081960D01*
X0052250Y0083055D01*
X0052250Y0082944D02*
X0052250Y0082944D01*
X0052250Y0081960D02*
X0052250Y0081960D01*
X0055600Y0087936D02*
X0030460Y0087936D01*
X0029461Y0086938D02*
X0035961Y0086938D01*
X0034058Y0085939D02*
X0030442Y0085939D01*
X0031440Y0084941D02*
X0033060Y0084941D01*
X0032618Y0083942D02*
X0031882Y0083942D01*
X0032250Y0083055D02*
X0032250Y0081960D01*
X0032250Y0081960D01*
X0032250Y0083055D01*
X0032250Y0082944D02*
X0032250Y0082944D01*
X0031458Y0088935D02*
X0055600Y0088935D01*
X0055600Y0089933D02*
X0044154Y0089933D01*
X0044868Y0090932D02*
X0055600Y0090932D01*
X0055600Y0091930D02*
X0045100Y0091930D01*
X0044975Y0092929D02*
X0055600Y0092929D01*
X0055600Y0093927D02*
X0044413Y0093927D01*
X0043900Y0094926D02*
X0055600Y0094926D01*
X0055600Y0095925D02*
X0043900Y0095925D01*
X0043900Y0096923D02*
X0055600Y0096923D01*
X0055600Y0097922D02*
X0043722Y0097922D01*
X0044236Y0098920D02*
X0044981Y0098920D01*
X0047612Y0098920D02*
X0048581Y0098920D01*
X0048581Y0098591D02*
X0050459Y0098591D01*
X0050841Y0098694D01*
X0051183Y0098891D01*
X0051462Y0099170D01*
X0051660Y0099512D01*
X0051762Y0099894D01*
X0051762Y0101576D01*
X0048581Y0101576D01*
X0048581Y0098591D01*
X0048581Y0099919D02*
X0047612Y0099919D01*
X0047612Y0100917D02*
X0048581Y0100917D01*
X0048581Y0101916D02*
X0054561Y0101916D01*
X0053562Y0102914D02*
X0051762Y0102914D01*
X0051762Y0103913D02*
X0052564Y0103913D01*
X0051565Y0104911D02*
X0051484Y0104911D01*
X0050600Y0105910D02*
X0038900Y0105910D01*
X0038900Y0106908D02*
X0045371Y0106908D01*
X0044709Y0104911D02*
X0044525Y0104911D01*
X0047612Y0104911D02*
X0048581Y0104911D01*
X0048581Y0103913D02*
X0047612Y0103913D01*
X0047612Y0102914D02*
X0048581Y0102914D01*
X0051762Y0100917D02*
X0055559Y0100917D01*
X0055600Y0099919D02*
X0051762Y0099919D01*
X0051212Y0098920D02*
X0055600Y0098920D01*
X0055234Y0105910D02*
X0067350Y0105910D01*
X0067350Y0106908D02*
X0054235Y0106908D01*
X0050600Y0106908D02*
X0049129Y0106908D01*
X0049857Y0107907D02*
X0050600Y0107907D01*
X0050600Y0108905D02*
X0050100Y0108905D01*
X0049985Y0109904D02*
X0050600Y0109904D01*
X0048981Y0111359D02*
X0048864Y0111476D01*
X0047817Y0111910D01*
X0046683Y0111910D01*
X0045636Y0111476D01*
X0044869Y0110710D01*
X0043959Y0110710D01*
X0044062Y0110813D01*
X0044062Y0114646D01*
X0043300Y0115407D01*
X0033562Y0115407D01*
X0031200Y0115407D01*
X0030438Y0114646D01*
X0030438Y0110813D01*
X0030804Y0110447D01*
X0029349Y0108992D01*
X0028900Y0109440D01*
X0028900Y0119743D01*
X0027933Y0120710D01*
X0027554Y0121090D01*
X0026587Y0122056D01*
X0026018Y0122056D01*
X0026018Y0122410D01*
X0030438Y0122410D01*
X0030438Y0119474D01*
X0031200Y0118713D01*
X0043300Y0118713D01*
X0044062Y0119474D01*
X0044062Y0119741D01*
X0047100Y0119741D01*
X0047100Y0113877D01*
X0048067Y0112910D01*
X0048913Y0112064D01*
X0048981Y0112064D01*
X0048981Y0111359D01*
X0048981Y0111901D02*
X0047839Y0111901D01*
X0048077Y0112899D02*
X0044062Y0112899D01*
X0044062Y0111901D02*
X0046661Y0111901D01*
X0045062Y0110902D02*
X0044062Y0110902D01*
X0044062Y0113898D02*
X0047100Y0113898D01*
X0047100Y0114896D02*
X0043811Y0114896D01*
X0047100Y0115895D02*
X0028900Y0115895D01*
X0028900Y0116893D02*
X0047100Y0116893D01*
X0047100Y0117892D02*
X0028900Y0117892D01*
X0028900Y0118890D02*
X0031022Y0118890D01*
X0030438Y0119889D02*
X0028755Y0119889D01*
X0027933Y0120710D02*
X0027933Y0120710D01*
X0027756Y0120887D02*
X0030438Y0120887D01*
X0030438Y0121886D02*
X0026758Y0121886D01*
X0027554Y0121090D02*
X0027554Y0121090D01*
X0028900Y0114896D02*
X0030689Y0114896D01*
X0030438Y0113898D02*
X0028900Y0113898D01*
X0028900Y0112899D02*
X0030438Y0112899D01*
X0030438Y0111901D02*
X0028900Y0111901D01*
X0028900Y0110902D02*
X0030438Y0110902D01*
X0030260Y0109904D02*
X0028900Y0109904D01*
X0038900Y0107907D02*
X0039070Y0107907D01*
X0043478Y0118890D02*
X0047100Y0118890D01*
X0038648Y0132828D02*
X0037893Y0132828D01*
X0037359Y0132295D01*
X0037269Y0132450D01*
X0036990Y0132729D01*
X0036648Y0132926D01*
X0036266Y0133028D01*
X0034388Y0133028D01*
X0034388Y0130044D01*
X0033419Y0130044D01*
X0033419Y0129076D01*
X0030238Y0129076D01*
X0030238Y0127710D01*
X0030066Y0127710D01*
X0029666Y0128674D01*
X0028864Y0129476D01*
X0027817Y0129910D01*
X0026683Y0129910D01*
X0025636Y0129476D01*
X0024834Y0128674D01*
X0024434Y0127710D01*
X0021983Y0127710D01*
X0022100Y0127993D01*
X0022100Y0129077D01*
X0027433Y0134410D01*
X0037067Y0134410D01*
X0038648Y0132828D01*
X0038607Y0132869D02*
X0036746Y0132869D01*
X0037609Y0133868D02*
X0026891Y0133868D01*
X0025893Y0132869D02*
X0031061Y0132869D01*
X0031159Y0132926D02*
X0030817Y0132729D01*
X0030538Y0132450D01*
X0030340Y0132107D01*
X0030238Y0131726D01*
X0030238Y0130044D01*
X0033419Y0130044D01*
X0033419Y0133028D01*
X0031541Y0133028D01*
X0031159Y0132926D01*
X0030277Y0131871D02*
X0024894Y0131871D01*
X0023896Y0130872D02*
X0030238Y0130872D01*
X0030238Y0128875D02*
X0029465Y0128875D01*
X0029996Y0127877D02*
X0030238Y0127877D01*
X0027904Y0129874D02*
X0033419Y0129874D01*
X0033419Y0130872D02*
X0034388Y0130872D01*
X0034388Y0131871D02*
X0033419Y0131871D01*
X0033419Y0132869D02*
X0034388Y0132869D01*
X0026596Y0129874D02*
X0022897Y0129874D01*
X0022100Y0128875D02*
X0025035Y0128875D01*
X0024504Y0127877D02*
X0022052Y0127877D01*
X0023050Y0134866D02*
X0023223Y0134866D01*
X0023250Y0135865D02*
X0024222Y0135865D01*
X0023250Y0136863D02*
X0025220Y0136863D01*
X0058900Y0158831D02*
X0058981Y0158831D01*
X0059031Y0159829D02*
X0058900Y0159829D01*
X0045146Y0170813D02*
X0044129Y0170813D01*
X0066615Y0126878D02*
X0067350Y0126878D01*
X0067350Y0125880D02*
X0065501Y0125880D01*
X0066493Y0124881D02*
X0067350Y0124881D01*
X0067350Y0123883D02*
X0066907Y0123883D01*
X0067250Y0122884D02*
X0067350Y0122884D01*
X0067350Y0121886D02*
X0067250Y0121886D01*
X0067176Y0120887D02*
X0067350Y0120887D01*
X0067350Y0119889D02*
X0066763Y0119889D01*
X0067350Y0118890D02*
X0066151Y0118890D01*
X0065153Y0117892D02*
X0067350Y0117892D01*
X0067350Y0116893D02*
X0063647Y0116893D01*
X0065486Y0115895D02*
X0067350Y0115895D01*
X0067350Y0114896D02*
X0066485Y0114896D01*
X0066901Y0113898D02*
X0067350Y0113898D01*
X0067350Y0112899D02*
X0067250Y0112899D01*
X0067250Y0111901D02*
X0067350Y0111901D01*
X0067350Y0110902D02*
X0067182Y0110902D01*
X0067350Y0109904D02*
X0066769Y0109904D01*
X0067350Y0108905D02*
X0066166Y0108905D01*
X0065168Y0107907D02*
X0067350Y0107907D01*
X0045961Y0086938D02*
X0038539Y0086938D01*
X0040442Y0085939D02*
X0044058Y0085939D01*
X0043060Y0084941D02*
X0041440Y0084941D01*
X0041882Y0083942D02*
X0042618Y0083942D01*
X0042250Y0083055D02*
X0042250Y0081960D01*
X0042250Y0083055D01*
X0042250Y0082944D02*
X0042250Y0082944D01*
X0042250Y0081960D02*
X0042250Y0081960D01*
X0040346Y0089933D02*
X0032457Y0089933D01*
X0022007Y0070160D02*
X0052493Y0070160D01*
X0052000Y0069306D01*
X0051250Y0066508D01*
X0051250Y0063612D01*
X0052000Y0060814D01*
X0053448Y0058306D01*
X0055496Y0056258D01*
X0058004Y0054810D01*
X0059611Y0054379D01*
X0059418Y0054299D01*
X0058011Y0052892D01*
X0057521Y0051710D01*
X0056567Y0051710D01*
X0055600Y0050743D01*
X0055518Y0050662D01*
X0055518Y0051110D01*
X0054757Y0051872D01*
X0050400Y0051872D01*
X0050400Y0055243D01*
X0046433Y0059210D01*
X0044062Y0059210D01*
X0044062Y0060067D01*
X0043300Y0060828D01*
X0042246Y0060828D01*
X0042246Y0061897D01*
X0041280Y0062864D01*
X0038433Y0065710D01*
X0026067Y0065710D01*
X0022987Y0062630D01*
X0023250Y0063612D01*
X0023250Y0066508D01*
X0022500Y0069306D01*
X0022007Y0070160D01*
X0022121Y0069963D02*
X0052379Y0069963D01*
X0051908Y0068965D02*
X0022592Y0068965D01*
X0022859Y0067966D02*
X0051641Y0067966D01*
X0051373Y0066968D02*
X0023127Y0066968D01*
X0023250Y0065969D02*
X0051250Y0065969D01*
X0051250Y0064971D02*
X0039173Y0064971D01*
X0040171Y0063972D02*
X0051250Y0063972D01*
X0051421Y0062974D02*
X0041170Y0062974D01*
X0042168Y0061975D02*
X0051689Y0061975D01*
X0051956Y0060977D02*
X0042246Y0060977D01*
X0044062Y0059978D02*
X0052482Y0059978D01*
X0053059Y0058980D02*
X0046664Y0058980D01*
X0047662Y0057981D02*
X0053773Y0057981D01*
X0054771Y0056983D02*
X0048661Y0056983D01*
X0049659Y0055984D02*
X0055970Y0055984D01*
X0057699Y0054986D02*
X0050400Y0054986D01*
X0050400Y0053987D02*
X0059106Y0053987D01*
X0058107Y0052989D02*
X0050400Y0052989D01*
X0050400Y0051990D02*
X0057637Y0051990D01*
X0055848Y0050992D02*
X0055518Y0050992D01*
X0057642Y0048119D02*
X0056280Y0046756D01*
X0055518Y0046756D01*
X0055518Y0045703D01*
X0054876Y0045060D01*
X0055518Y0044417D01*
X0055518Y0039010D01*
X0054757Y0038248D01*
X0053900Y0038248D01*
X0053900Y0035243D01*
X0058900Y0030243D01*
X0058900Y0014788D01*
X0058981Y0014755D01*
X0058981Y0015710D01*
X0059479Y0016911D01*
X0060399Y0017831D01*
X0061600Y0018328D01*
X0062900Y0018328D01*
X0064101Y0017831D01*
X0065021Y0016911D01*
X0065518Y0015710D01*
X0065518Y0014965D01*
X0066032Y0015132D01*
X0066750Y0015246D01*
X0066750Y0010560D01*
X0067350Y0010560D01*
X0067350Y0055303D01*
X0066496Y0054810D01*
X0064889Y0054379D01*
X0065082Y0054299D01*
X0066489Y0052892D01*
X0067250Y0051055D01*
X0067250Y0049065D01*
X0066489Y0047228D01*
X0065082Y0045821D01*
X0063245Y0045060D01*
X0061255Y0045060D01*
X0059418Y0044299D01*
X0058011Y0042892D01*
X0057250Y0041055D01*
X0057250Y0039065D01*
X0058011Y0037228D01*
X0059418Y0035821D01*
X0061255Y0035060D01*
X0063245Y0035060D01*
X0065082Y0035821D01*
X0066489Y0037228D01*
X0067250Y0039065D01*
X0067250Y0041055D01*
X0066489Y0042892D01*
X0065082Y0044299D01*
X0063245Y0045060D01*
X0061255Y0045060D01*
X0059418Y0045821D01*
X0058011Y0047228D01*
X0057642Y0048119D01*
X0057693Y0047996D02*
X0057519Y0047996D01*
X0058241Y0046997D02*
X0056521Y0046997D01*
X0055518Y0045999D02*
X0059240Y0045999D01*
X0059121Y0044002D02*
X0055518Y0044002D01*
X0055518Y0043003D02*
X0058122Y0043003D01*
X0057644Y0042005D02*
X0055518Y0042005D01*
X0055518Y0041006D02*
X0057250Y0041006D01*
X0057250Y0040008D02*
X0055518Y0040008D01*
X0055518Y0039009D02*
X0057273Y0039009D01*
X0057687Y0038011D02*
X0053900Y0038011D01*
X0053900Y0037012D02*
X0058227Y0037012D01*
X0059225Y0036014D02*
X0053900Y0036014D01*
X0054128Y0035015D02*
X0067350Y0035015D01*
X0067350Y0034017D02*
X0055127Y0034017D01*
X0056125Y0033018D02*
X0067350Y0033018D01*
X0067350Y0032020D02*
X0057124Y0032020D01*
X0058122Y0031021D02*
X0067350Y0031021D01*
X0067350Y0030023D02*
X0058900Y0030023D01*
X0058900Y0029024D02*
X0067350Y0029024D01*
X0067350Y0028026D02*
X0058900Y0028026D01*
X0058900Y0027027D02*
X0067350Y0027027D01*
X0067350Y0026029D02*
X0058900Y0026029D01*
X0058900Y0025030D02*
X0067350Y0025030D01*
X0067350Y0024032D02*
X0058900Y0024032D01*
X0058900Y0023033D02*
X0067350Y0023033D01*
X0067350Y0022035D02*
X0058900Y0022035D01*
X0058900Y0021036D02*
X0067350Y0021036D01*
X0067350Y0020038D02*
X0058900Y0020038D01*
X0058900Y0019039D02*
X0067350Y0019039D01*
X0067350Y0018041D02*
X0063595Y0018041D01*
X0064890Y0017042D02*
X0067350Y0017042D01*
X0067350Y0016044D02*
X0065380Y0016044D01*
X0065518Y0015045D02*
X0065765Y0015045D01*
X0066750Y0015045D02*
X0067350Y0015045D01*
X0067350Y0014047D02*
X0066750Y0014047D01*
X0066750Y0013048D02*
X0067350Y0013048D01*
X0067350Y0012050D02*
X0066750Y0012050D01*
X0066750Y0011051D02*
X0067350Y0011051D01*
X0059610Y0017042D02*
X0058900Y0017042D01*
X0058900Y0016044D02*
X0059120Y0016044D01*
X0058981Y0015045D02*
X0058900Y0015045D01*
X0055600Y0015045D02*
X0048280Y0015045D01*
X0048245Y0015060D02*
X0046255Y0015060D01*
X0044418Y0014299D01*
X0043011Y0012892D01*
X0042250Y0011055D01*
X0041489Y0012892D01*
X0040082Y0014299D01*
X0038245Y0015060D01*
X0036255Y0015060D01*
X0034418Y0014299D01*
X0033011Y0012892D01*
X0032250Y0011055D01*
X0031489Y0012892D01*
X0030082Y0014299D01*
X0029191Y0014668D01*
X0032933Y0018410D01*
X0039869Y0018410D01*
X0040636Y0017644D01*
X0041683Y0017210D01*
X0042817Y0017210D01*
X0043864Y0017644D01*
X0044666Y0018446D01*
X0045100Y0019493D01*
X0045100Y0020627D01*
X0044666Y0021674D01*
X0043900Y0022440D01*
X0043900Y0025743D01*
X0043054Y0026590D01*
X0043054Y0026791D01*
X0044107Y0026791D01*
X0044641Y0027325D01*
X0044731Y0027170D01*
X0045010Y0026891D01*
X0045352Y0026694D01*
X0045734Y0026591D01*
X0047612Y0026591D01*
X0047612Y0029576D01*
X0048581Y0029576D01*
X0048581Y0030544D01*
X0051762Y0030544D01*
X0051762Y0032226D01*
X0051660Y0032607D01*
X0051462Y0032950D01*
X0051183Y0033229D01*
X0050841Y0033426D01*
X0050459Y0033528D01*
X0048581Y0033528D01*
X0048581Y0030544D01*
X0047612Y0030544D01*
X0047612Y0033528D01*
X0045734Y0033528D01*
X0045352Y0033426D01*
X0045010Y0033229D01*
X0044731Y0032950D01*
X0044641Y0032795D01*
X0044107Y0033328D01*
X0038900Y0033328D01*
X0038900Y0036077D01*
X0039567Y0035410D01*
X0044869Y0035410D01*
X0045636Y0034644D01*
X0046683Y0034210D01*
X0047817Y0034210D01*
X0048864Y0034644D01*
X0049666Y0035446D01*
X0050100Y0036493D01*
X0050100Y0037627D01*
X0049843Y0038248D01*
X0050600Y0038248D01*
X0050600Y0033877D01*
X0051567Y0032910D01*
X0055600Y0028877D01*
X0055600Y0014788D01*
X0054418Y0014299D01*
X0053011Y0012892D01*
X0052250Y0011055D01*
X0051489Y0012892D01*
X0050082Y0014299D01*
X0048245Y0015060D01*
X0046220Y0015045D02*
X0038280Y0015045D01*
X0036220Y0015045D02*
X0029569Y0015045D01*
X0030334Y0014047D02*
X0034166Y0014047D01*
X0033167Y0013048D02*
X0031333Y0013048D01*
X0031838Y0012050D02*
X0032662Y0012050D01*
X0032250Y0011055D02*
X0032250Y0009960D01*
X0032250Y0009960D01*
X0032250Y0011055D01*
X0032250Y0011051D02*
X0032250Y0011051D01*
X0032250Y0010053D02*
X0032250Y0010053D01*
X0030567Y0016044D02*
X0055600Y0016044D01*
X0055600Y0017042D02*
X0031566Y0017042D01*
X0032564Y0018041D02*
X0040239Y0018041D01*
X0040334Y0014047D02*
X0044166Y0014047D01*
X0043167Y0013048D02*
X0041333Y0013048D01*
X0041838Y0012050D02*
X0042662Y0012050D01*
X0042250Y0011055D02*
X0042250Y0009960D01*
X0042250Y0009960D01*
X0042250Y0011055D01*
X0042250Y0011051D02*
X0042250Y0011051D01*
X0042250Y0010053D02*
X0042250Y0010053D01*
X0050334Y0014047D02*
X0054166Y0014047D01*
X0053167Y0013048D02*
X0051333Y0013048D01*
X0051838Y0012050D02*
X0052662Y0012050D01*
X0052250Y0011055D02*
X0052250Y0009960D01*
X0052250Y0009960D01*
X0052250Y0011055D01*
X0052250Y0011051D02*
X0052250Y0011051D01*
X0052250Y0010053D02*
X0052250Y0010053D01*
X0055600Y0018041D02*
X0044261Y0018041D01*
X0044912Y0019039D02*
X0055600Y0019039D01*
X0055600Y0020038D02*
X0045100Y0020038D01*
X0044930Y0021036D02*
X0055600Y0021036D01*
X0055600Y0022035D02*
X0044306Y0022035D01*
X0043900Y0023033D02*
X0055600Y0023033D01*
X0055600Y0024032D02*
X0043900Y0024032D01*
X0043900Y0025030D02*
X0055600Y0025030D01*
X0055600Y0026029D02*
X0043615Y0026029D01*
X0044343Y0027027D02*
X0044874Y0027027D01*
X0047612Y0027027D02*
X0048581Y0027027D01*
X0048581Y0026591D02*
X0050459Y0026591D01*
X0050841Y0026694D01*
X0051183Y0026891D01*
X0051462Y0027170D01*
X0051660Y0027512D01*
X0051762Y0027894D01*
X0051762Y0029576D01*
X0048581Y0029576D01*
X0048581Y0026591D01*
X0048581Y0028026D02*
X0047612Y0028026D01*
X0047612Y0029024D02*
X0048581Y0029024D01*
X0048581Y0030023D02*
X0054454Y0030023D01*
X0055452Y0029024D02*
X0051762Y0029024D01*
X0051762Y0028026D02*
X0055600Y0028026D01*
X0055600Y0027027D02*
X0051319Y0027027D01*
X0051762Y0031021D02*
X0053455Y0031021D01*
X0052457Y0032020D02*
X0051762Y0032020D01*
X0051458Y0033018D02*
X0051393Y0033018D01*
X0050600Y0034017D02*
X0038900Y0034017D01*
X0038900Y0035015D02*
X0045264Y0035015D01*
X0044800Y0033018D02*
X0044418Y0033018D01*
X0047612Y0033018D02*
X0048581Y0033018D01*
X0048581Y0032020D02*
X0047612Y0032020D01*
X0047612Y0031021D02*
X0048581Y0031021D01*
X0049236Y0035015D02*
X0050600Y0035015D01*
X0050600Y0036014D02*
X0049901Y0036014D01*
X0050100Y0037012D02*
X0050600Y0037012D01*
X0050600Y0038011D02*
X0049941Y0038011D01*
X0048981Y0039359D02*
X0048864Y0039476D01*
X0047817Y0039910D01*
X0046683Y0039910D01*
X0045636Y0039476D01*
X0044869Y0038710D01*
X0043959Y0038710D01*
X0044062Y0038813D01*
X0044062Y0042646D01*
X0043300Y0043407D01*
X0033562Y0043407D01*
X0031200Y0043407D01*
X0030438Y0042646D01*
X0030438Y0038813D01*
X0030804Y0038447D01*
X0029349Y0036992D01*
X0028900Y0037440D01*
X0028900Y0047743D01*
X0027933Y0048710D01*
X0026587Y0050056D01*
X0026018Y0050056D01*
X0026018Y0050410D01*
X0030438Y0050410D01*
X0030438Y0047474D01*
X0031200Y0046713D01*
X0043300Y0046713D01*
X0044062Y0047474D01*
X0044062Y0047741D01*
X0047100Y0047741D01*
X0047100Y0041877D01*
X0048067Y0040910D01*
X0048913Y0040064D01*
X0048981Y0040064D01*
X0048981Y0039359D01*
X0048981Y0040008D02*
X0044062Y0040008D01*
X0044062Y0041006D02*
X0047970Y0041006D01*
X0047100Y0042005D02*
X0044062Y0042005D01*
X0043704Y0043003D02*
X0047100Y0043003D01*
X0047100Y0044002D02*
X0028900Y0044002D01*
X0028900Y0045000D02*
X0047100Y0045000D01*
X0047100Y0045999D02*
X0028900Y0045999D01*
X0028900Y0046997D02*
X0030915Y0046997D01*
X0030438Y0047996D02*
X0028647Y0047996D01*
X0027649Y0048994D02*
X0030438Y0048994D01*
X0030438Y0049993D02*
X0026650Y0049993D01*
X0024434Y0055710D02*
X0021983Y0055710D01*
X0022100Y0055993D01*
X0022100Y0057077D01*
X0027433Y0062410D01*
X0037067Y0062410D01*
X0038648Y0060828D01*
X0037893Y0060828D01*
X0037359Y0060295D01*
X0037269Y0060450D01*
X0036990Y0060729D01*
X0036648Y0060926D01*
X0036266Y0061028D01*
X0034388Y0061028D01*
X0034388Y0058044D01*
X0033419Y0058044D01*
X0033419Y0057076D01*
X0030238Y0057076D01*
X0030238Y0055710D01*
X0030066Y0055710D01*
X0029666Y0056674D01*
X0028864Y0057476D01*
X0027817Y0057910D01*
X0026683Y0057910D01*
X0025636Y0057476D01*
X0024834Y0056674D01*
X0024434Y0055710D01*
X0024548Y0055984D02*
X0022096Y0055984D01*
X0022100Y0056983D02*
X0025142Y0056983D01*
X0024003Y0058980D02*
X0030238Y0058980D01*
X0030238Y0059726D02*
X0030238Y0058044D01*
X0033419Y0058044D01*
X0033419Y0061028D01*
X0031541Y0061028D01*
X0031159Y0060926D01*
X0030817Y0060729D01*
X0030538Y0060450D01*
X0030340Y0060107D01*
X0030238Y0059726D01*
X0030306Y0059978D02*
X0025002Y0059978D01*
X0026000Y0060977D02*
X0031347Y0060977D01*
X0033419Y0060977D02*
X0034388Y0060977D01*
X0034388Y0059978D02*
X0033419Y0059978D01*
X0033419Y0058980D02*
X0034388Y0058980D01*
X0033419Y0057981D02*
X0023005Y0057981D01*
X0023079Y0062974D02*
X0023330Y0062974D01*
X0023250Y0063972D02*
X0024329Y0063972D01*
X0025327Y0064971D02*
X0023250Y0064971D01*
X0026999Y0061975D02*
X0037501Y0061975D01*
X0038500Y0060977D02*
X0036460Y0060977D01*
X0030238Y0056983D02*
X0029358Y0056983D01*
X0029952Y0055984D02*
X0030238Y0055984D01*
X0030796Y0043003D02*
X0028900Y0043003D01*
X0028900Y0042005D02*
X0030438Y0042005D01*
X0030438Y0041006D02*
X0028900Y0041006D01*
X0028900Y0040008D02*
X0030438Y0040008D01*
X0030438Y0039009D02*
X0028900Y0039009D01*
X0028900Y0038011D02*
X0030367Y0038011D01*
X0029369Y0037012D02*
X0029328Y0037012D01*
X0038900Y0036014D02*
X0038963Y0036014D01*
X0044062Y0039009D02*
X0045169Y0039009D01*
X0043585Y0046997D02*
X0047100Y0046997D01*
X0054935Y0045000D02*
X0061112Y0045000D01*
X0063388Y0045000D02*
X0067350Y0045000D01*
X0067350Y0044002D02*
X0065379Y0044002D01*
X0066378Y0043003D02*
X0067350Y0043003D01*
X0067350Y0042005D02*
X0066856Y0042005D01*
X0067250Y0041006D02*
X0067350Y0041006D01*
X0067350Y0040008D02*
X0067250Y0040008D01*
X0067227Y0039009D02*
X0067350Y0039009D01*
X0067350Y0038011D02*
X0066813Y0038011D01*
X0067350Y0037012D02*
X0066273Y0037012D01*
X0065275Y0036014D02*
X0067350Y0036014D01*
X0067350Y0045999D02*
X0065260Y0045999D01*
X0066259Y0046997D02*
X0067350Y0046997D01*
X0067350Y0047996D02*
X0066807Y0047996D01*
X0067221Y0048994D02*
X0067350Y0048994D01*
X0067350Y0049993D02*
X0067250Y0049993D01*
X0067250Y0050992D02*
X0067350Y0050992D01*
X0067350Y0051990D02*
X0066863Y0051990D01*
X0066393Y0052989D02*
X0067350Y0052989D01*
X0067350Y0053987D02*
X0065394Y0053987D01*
X0066801Y0054986D02*
X0067350Y0054986D01*
X0060905Y0018041D02*
X0058900Y0018041D01*
D17*
X0052250Y0025060D03*
X0042250Y0020060D03*
X0047250Y0037060D03*
X0045250Y0045060D03*
X0044750Y0053560D03*
X0052250Y0057560D03*
X0037250Y0053560D03*
X0027250Y0055060D03*
X0027250Y0059060D03*
X0019250Y0056560D03*
X0007250Y0055060D03*
X0007250Y0035060D03*
X0017250Y0030060D03*
X0022750Y0035060D03*
X0027250Y0035060D03*
X0079250Y0035060D03*
X0089250Y0030060D03*
X0094750Y0035060D03*
X0099250Y0035060D03*
X0114250Y0020060D03*
X0124250Y0025060D03*
X0119250Y0037060D03*
X0117250Y0045060D03*
X0116750Y0053560D03*
X0124250Y0057560D03*
X0109250Y0053560D03*
X0099250Y0055060D03*
X0099250Y0059060D03*
X0091250Y0056560D03*
X0079250Y0055060D03*
X0114250Y0092060D03*
X0124250Y0097060D03*
X0119250Y0109060D03*
X0117250Y0117060D03*
X0116750Y0125560D03*
X0124250Y0129560D03*
X0109250Y0125560D03*
X0099250Y0127060D03*
X0099250Y0131060D03*
X0091250Y0128560D03*
X0079250Y0127060D03*
X0079250Y0107060D03*
X0089250Y0102060D03*
X0094750Y0107060D03*
X0099250Y0107060D03*
X0052250Y0097060D03*
X0042250Y0092060D03*
X0027250Y0107060D03*
X0022750Y0107060D03*
X0017250Y0102060D03*
X0007250Y0107060D03*
X0007250Y0127060D03*
X0019250Y0128560D03*
X0027250Y0127060D03*
X0027250Y0131060D03*
X0037250Y0125560D03*
X0044750Y0125560D03*
X0052250Y0129560D03*
X0045250Y0117060D03*
X0047250Y0109060D03*
X0042250Y0164060D03*
X0052250Y0169060D03*
X0047250Y0181060D03*
X0045250Y0189060D03*
X0044750Y0197560D03*
X0052250Y0201560D03*
X0037250Y0197560D03*
X0027250Y0199060D03*
X0027250Y0203060D03*
X0019250Y0200560D03*
X0007250Y0199060D03*
X0007250Y0179060D03*
X0017250Y0174060D03*
X0022750Y0179060D03*
X0027250Y0179060D03*
X0079250Y0179060D03*
X0089250Y0174060D03*
X0094750Y0179060D03*
X0099250Y0179060D03*
X0114250Y0164060D03*
X0124250Y0169060D03*
X0119250Y0181060D03*
X0117250Y0189060D03*
X0116750Y0197560D03*
X0124250Y0201560D03*
X0109250Y0197560D03*
X0099250Y0199060D03*
X0099250Y0203060D03*
X0091250Y0200560D03*
X0079250Y0199060D03*
X0151250Y0199060D03*
X0163250Y0200560D03*
X0171250Y0199060D03*
X0171250Y0203060D03*
X0181250Y0197560D03*
X0188750Y0197560D03*
X0196250Y0201560D03*
X0189250Y0189060D03*
X0191250Y0181060D03*
X0196250Y0169060D03*
X0186250Y0164060D03*
X0171250Y0179060D03*
X0166750Y0179060D03*
X0161250Y0174060D03*
X0151250Y0179060D03*
X0171250Y0131060D03*
X0171250Y0127060D03*
X0163250Y0128560D03*
X0151250Y0127060D03*
X0151250Y0107060D03*
X0161250Y0102060D03*
X0166750Y0107060D03*
X0171250Y0107060D03*
X0186250Y0092060D03*
X0196250Y0097060D03*
X0191250Y0109060D03*
X0189250Y0117060D03*
X0188750Y0125560D03*
X0196250Y0129560D03*
X0181250Y0125560D03*
X0171250Y0059060D03*
X0171250Y0055060D03*
X0163250Y0056560D03*
X0151250Y0055060D03*
X0151250Y0035060D03*
X0161250Y0030060D03*
X0166750Y0035060D03*
X0171250Y0035060D03*
X0186250Y0020060D03*
X0196250Y0025060D03*
X0191250Y0037060D03*
X0189250Y0045060D03*
X0188750Y0053560D03*
X0196250Y0057560D03*
X0181250Y0053560D03*
D18*
X0181250Y0049391D01*
X0178888Y0049391D02*
X0178888Y0052422D01*
X0177250Y0054060D01*
X0172250Y0054060D01*
X0171250Y0055060D01*
X0170250Y0054060D01*
X0160750Y0054060D01*
X0159596Y0052906D01*
X0159596Y0050060D01*
X0163250Y0051060D02*
X0163250Y0047560D01*
X0159596Y0043906D01*
X0159596Y0040060D01*
X0159596Y0036714D01*
X0161250Y0035060D01*
X0161250Y0030060D01*
X0165750Y0024560D02*
X0161250Y0020060D01*
X0161250Y0010060D01*
X0151250Y0010060D02*
X0151250Y0025060D01*
X0152750Y0026560D01*
X0176250Y0026560D01*
X0177096Y0027406D01*
X0177096Y0030060D01*
X0177096Y0033406D01*
X0178888Y0035198D01*
X0178888Y0040729D01*
X0181250Y0040729D02*
X0181250Y0027560D01*
X0178250Y0024560D01*
X0165750Y0024560D01*
X0168250Y0030060D02*
X0166750Y0031560D01*
X0166750Y0035060D01*
X0166750Y0041714D01*
X0166750Y0048406D02*
X0169904Y0048406D01*
X0171250Y0047060D01*
X0171250Y0035060D01*
X0173750Y0035060D01*
X0176526Y0037836D01*
X0176526Y0040729D01*
X0183612Y0040729D02*
X0183612Y0037698D01*
X0184250Y0037060D01*
X0186250Y0037060D01*
X0185974Y0037336D01*
X0185974Y0040729D01*
X0186250Y0037060D02*
X0191250Y0037060D01*
X0193596Y0041714D02*
X0192750Y0042560D01*
X0192750Y0049560D01*
X0192581Y0049391D01*
X0185974Y0049391D01*
X0183612Y0049391D02*
X0183612Y0052422D01*
X0184750Y0053560D01*
X0188750Y0053560D01*
X0192750Y0054560D02*
X0189750Y0057560D01*
X0184596Y0057560D01*
X0184596Y0061214D01*
X0181750Y0064060D01*
X0170750Y0064060D01*
X0163250Y0056560D01*
X0164250Y0052060D02*
X0163250Y0051060D01*
X0164250Y0052060D02*
X0175750Y0052060D01*
X0176526Y0051284D01*
X0176526Y0049391D01*
X0192750Y0049560D02*
X0192750Y0054560D01*
X0196250Y0048406D02*
X0199596Y0048406D01*
X0201250Y0050060D01*
X0206250Y0050060D01*
X0196250Y0041714D02*
X0193596Y0041714D01*
X0196250Y0041714D02*
X0196250Y0034560D01*
X0201250Y0029560D01*
X0201250Y0010060D01*
X0186250Y0020060D02*
X0186250Y0025060D01*
X0185404Y0025906D01*
X0185404Y0030060D01*
X0186250Y0020060D02*
X0176250Y0020060D01*
X0171250Y0015060D01*
X0171250Y0010060D01*
X0170404Y0030060D02*
X0168250Y0030060D01*
X0152904Y0036714D02*
X0151250Y0035060D01*
X0152904Y0036714D02*
X0152904Y0040060D01*
X0152904Y0050060D02*
X0152904Y0053406D01*
X0151250Y0055060D01*
X0134250Y0050060D02*
X0129250Y0050060D01*
X0127596Y0048406D01*
X0124250Y0048406D01*
X0120750Y0049560D02*
X0120581Y0049391D01*
X0113974Y0049391D01*
X0111612Y0049391D02*
X0111612Y0052422D01*
X0112750Y0053560D01*
X0116750Y0053560D01*
X0120750Y0054560D02*
X0117750Y0057560D01*
X0112596Y0057560D01*
X0112596Y0061214D01*
X0109750Y0064060D01*
X0098750Y0064060D01*
X0091250Y0056560D01*
X0088750Y0054060D02*
X0098250Y0054060D01*
X0099250Y0055060D01*
X0100250Y0054060D01*
X0105250Y0054060D01*
X0106888Y0052422D01*
X0106888Y0049391D01*
X0109250Y0049391D02*
X0109250Y0053560D01*
X0104526Y0051284D02*
X0104526Y0049391D01*
X0104526Y0051284D02*
X0103750Y0052060D01*
X0092250Y0052060D01*
X0091250Y0051060D01*
X0091250Y0047560D01*
X0087596Y0043906D01*
X0087596Y0040060D01*
X0087596Y0036714D01*
X0089250Y0035060D01*
X0089250Y0030060D01*
X0093750Y0024560D02*
X0089250Y0020060D01*
X0089250Y0010060D01*
X0079250Y0010060D02*
X0079250Y0025060D01*
X0080750Y0026560D01*
X0104250Y0026560D01*
X0105096Y0027406D01*
X0105096Y0030060D01*
X0105096Y0033406D01*
X0106888Y0035198D01*
X0106888Y0040729D01*
X0109250Y0040729D02*
X0109250Y0027560D01*
X0106250Y0024560D01*
X0093750Y0024560D01*
X0096250Y0030060D02*
X0094750Y0031560D01*
X0094750Y0035060D01*
X0094750Y0041714D01*
X0094750Y0048406D02*
X0097904Y0048406D01*
X0099250Y0047060D01*
X0099250Y0035060D01*
X0101750Y0035060D01*
X0104526Y0037836D01*
X0104526Y0040729D01*
X0111612Y0040729D02*
X0111612Y0037698D01*
X0112250Y0037060D01*
X0114250Y0037060D01*
X0113974Y0037336D01*
X0113974Y0040729D01*
X0114250Y0037060D02*
X0119250Y0037060D01*
X0121596Y0041714D02*
X0120750Y0042560D01*
X0120750Y0049560D01*
X0120750Y0054560D01*
X0121596Y0041714D02*
X0124250Y0041714D01*
X0124250Y0034560D01*
X0129250Y0029560D01*
X0129250Y0010060D01*
X0114250Y0020060D02*
X0114250Y0025060D01*
X0113404Y0025906D01*
X0113404Y0030060D01*
X0114250Y0020060D02*
X0104250Y0020060D01*
X0099250Y0015060D01*
X0099250Y0010060D01*
X0098404Y0030060D02*
X0096250Y0030060D01*
X0080904Y0036714D02*
X0079250Y0035060D01*
X0080904Y0036714D02*
X0080904Y0040060D01*
X0080904Y0050060D02*
X0080904Y0053406D01*
X0079250Y0055060D01*
X0087596Y0052906D02*
X0087596Y0050060D01*
X0087596Y0052906D02*
X0088750Y0054060D01*
X0062250Y0050060D02*
X0057250Y0050060D01*
X0055596Y0048406D01*
X0052250Y0048406D01*
X0048750Y0049560D02*
X0048581Y0049391D01*
X0041974Y0049391D01*
X0039612Y0049391D02*
X0039612Y0052422D01*
X0040750Y0053560D01*
X0044750Y0053560D01*
X0048750Y0054560D02*
X0045750Y0057560D01*
X0040596Y0057560D01*
X0040596Y0061214D01*
X0037750Y0064060D01*
X0026750Y0064060D01*
X0019250Y0056560D01*
X0016750Y0054060D02*
X0026250Y0054060D01*
X0027250Y0055060D01*
X0028250Y0054060D01*
X0033250Y0054060D01*
X0034888Y0052422D01*
X0034888Y0049391D01*
X0037250Y0049391D02*
X0037250Y0053560D01*
X0032526Y0051284D02*
X0032526Y0049391D01*
X0032526Y0051284D02*
X0031750Y0052060D01*
X0020250Y0052060D01*
X0019250Y0051060D01*
X0019250Y0047560D01*
X0015596Y0043906D01*
X0015596Y0040060D01*
X0015596Y0036714D01*
X0017250Y0035060D01*
X0017250Y0030060D01*
X0021750Y0024560D02*
X0017250Y0020060D01*
X0017250Y0010060D01*
X0007250Y0010060D02*
X0007250Y0025060D01*
X0008750Y0026560D01*
X0032250Y0026560D01*
X0033096Y0027406D01*
X0033096Y0030060D01*
X0033096Y0033406D01*
X0034888Y0035198D01*
X0034888Y0040729D01*
X0037250Y0040729D02*
X0037250Y0027560D01*
X0034250Y0024560D01*
X0021750Y0024560D01*
X0024250Y0030060D02*
X0022750Y0031560D01*
X0022750Y0035060D01*
X0022750Y0041714D01*
X0022750Y0048406D02*
X0025904Y0048406D01*
X0027250Y0047060D01*
X0027250Y0035060D01*
X0029750Y0035060D01*
X0032526Y0037836D01*
X0032526Y0040729D01*
X0039612Y0040729D02*
X0039612Y0037698D01*
X0040250Y0037060D01*
X0042250Y0037060D01*
X0041974Y0037336D01*
X0041974Y0040729D01*
X0042250Y0037060D02*
X0047250Y0037060D01*
X0049596Y0041714D02*
X0048750Y0042560D01*
X0048750Y0049560D01*
X0048750Y0054560D01*
X0049596Y0041714D02*
X0052250Y0041714D01*
X0052250Y0034560D01*
X0057250Y0029560D01*
X0057250Y0010060D01*
X0042250Y0020060D02*
X0042250Y0025060D01*
X0041404Y0025906D01*
X0041404Y0030060D01*
X0042250Y0020060D02*
X0032250Y0020060D01*
X0027250Y0015060D01*
X0027250Y0010060D01*
X0026404Y0030060D02*
X0024250Y0030060D01*
X0008904Y0036714D02*
X0007250Y0035060D01*
X0008904Y0036714D02*
X0008904Y0040060D01*
X0008904Y0050060D02*
X0008904Y0053406D01*
X0007250Y0055060D01*
X0015596Y0052906D02*
X0015596Y0050060D01*
X0015596Y0052906D02*
X0016750Y0054060D01*
X0017250Y0082060D02*
X0017250Y0092060D01*
X0021750Y0096560D01*
X0034250Y0096560D01*
X0037250Y0099560D01*
X0037250Y0112729D01*
X0034888Y0112729D02*
X0034888Y0107198D01*
X0033096Y0105406D01*
X0033096Y0102060D01*
X0033096Y0099406D01*
X0032250Y0098560D01*
X0008750Y0098560D01*
X0007250Y0097060D01*
X0007250Y0082060D01*
X0027250Y0082060D02*
X0027250Y0087060D01*
X0032250Y0092060D01*
X0042250Y0092060D01*
X0042250Y0097060D01*
X0041404Y0097906D01*
X0041404Y0102060D01*
X0042250Y0109060D02*
X0040250Y0109060D01*
X0039612Y0109698D01*
X0039612Y0112729D01*
X0041974Y0112729D02*
X0041974Y0109336D01*
X0042250Y0109060D01*
X0047250Y0109060D01*
X0049596Y0113714D02*
X0048750Y0114560D01*
X0048750Y0121560D01*
X0048581Y0121391D01*
X0041974Y0121391D01*
X0039612Y0121391D02*
X0039612Y0124422D01*
X0040750Y0125560D01*
X0044750Y0125560D01*
X0045750Y0129560D02*
X0040596Y0129560D01*
X0040596Y0133214D01*
X0037750Y0136060D01*
X0026750Y0136060D01*
X0019250Y0128560D01*
X0016750Y0126060D02*
X0026250Y0126060D01*
X0027250Y0127060D01*
X0028250Y0126060D01*
X0033250Y0126060D01*
X0034888Y0124422D01*
X0034888Y0121391D01*
X0037250Y0121391D02*
X0037250Y0125560D01*
X0032526Y0123284D02*
X0032526Y0121391D01*
X0032526Y0123284D02*
X0031750Y0124060D01*
X0020250Y0124060D01*
X0019250Y0123060D01*
X0019250Y0119560D01*
X0015596Y0115906D01*
X0015596Y0112060D01*
X0015596Y0108714D01*
X0017250Y0107060D01*
X0017250Y0102060D01*
X0022750Y0103560D02*
X0022750Y0107060D01*
X0022750Y0113714D01*
X0027250Y0119060D02*
X0027250Y0107060D01*
X0029750Y0107060D01*
X0032526Y0109836D01*
X0032526Y0112729D01*
X0027250Y0119060D02*
X0025904Y0120406D01*
X0022750Y0120406D01*
X0015596Y0122060D02*
X0015596Y0124906D01*
X0016750Y0126060D01*
X0008904Y0125406D02*
X0008904Y0122060D01*
X0008904Y0125406D02*
X0007250Y0127060D01*
X0008904Y0112060D02*
X0008904Y0108714D01*
X0007250Y0107060D01*
X0022750Y0103560D02*
X0024250Y0102060D01*
X0026404Y0102060D01*
X0049596Y0113714D02*
X0052250Y0113714D01*
X0052250Y0106560D01*
X0057250Y0101560D01*
X0057250Y0082060D01*
X0079250Y0082060D02*
X0079250Y0097060D01*
X0080750Y0098560D01*
X0104250Y0098560D01*
X0105096Y0099406D01*
X0105096Y0102060D01*
X0105096Y0105406D01*
X0106888Y0107198D01*
X0106888Y0112729D01*
X0109250Y0112729D02*
X0109250Y0099560D01*
X0106250Y0096560D01*
X0093750Y0096560D01*
X0089250Y0092060D01*
X0089250Y0082060D01*
X0099250Y0082060D02*
X0099250Y0087060D01*
X0104250Y0092060D01*
X0114250Y0092060D01*
X0114250Y0097060D01*
X0113404Y0097906D01*
X0113404Y0102060D01*
X0114250Y0109060D02*
X0113974Y0109336D01*
X0113974Y0112729D01*
X0111612Y0112729D02*
X0111612Y0109698D01*
X0112250Y0109060D01*
X0114250Y0109060D01*
X0119250Y0109060D01*
X0121596Y0113714D02*
X0120750Y0114560D01*
X0120750Y0121560D01*
X0120581Y0121391D01*
X0113974Y0121391D01*
X0111612Y0121391D02*
X0111612Y0124422D01*
X0112750Y0125560D01*
X0116750Y0125560D01*
X0117750Y0129560D02*
X0112596Y0129560D01*
X0112596Y0133214D01*
X0109750Y0136060D01*
X0098750Y0136060D01*
X0091250Y0128560D01*
X0088750Y0126060D02*
X0087596Y0124906D01*
X0087596Y0122060D01*
X0088750Y0126060D02*
X0098250Y0126060D01*
X0099250Y0127060D01*
X0100250Y0126060D01*
X0105250Y0126060D01*
X0106888Y0124422D01*
X0106888Y0121391D01*
X0109250Y0121391D02*
X0109250Y0125560D01*
X0104526Y0123284D02*
X0104526Y0121391D01*
X0104526Y0123284D02*
X0103750Y0124060D01*
X0092250Y0124060D01*
X0091250Y0123060D01*
X0091250Y0119560D01*
X0087596Y0115906D01*
X0087596Y0112060D01*
X0087596Y0108714D01*
X0089250Y0107060D01*
X0089250Y0102060D01*
X0094750Y0103560D02*
X0094750Y0107060D01*
X0094750Y0113714D01*
X0099250Y0119060D02*
X0099250Y0107060D01*
X0101750Y0107060D01*
X0104526Y0109836D01*
X0104526Y0112729D01*
X0099250Y0119060D02*
X0097904Y0120406D01*
X0094750Y0120406D01*
X0080904Y0122060D02*
X0080904Y0125406D01*
X0079250Y0127060D01*
X0080904Y0112060D02*
X0080904Y0108714D01*
X0079250Y0107060D01*
X0094750Y0103560D02*
X0096250Y0102060D01*
X0098404Y0102060D01*
X0121596Y0113714D02*
X0124250Y0113714D01*
X0124250Y0106560D01*
X0129250Y0101560D01*
X0129250Y0082060D01*
X0151250Y0082060D02*
X0151250Y0097060D01*
X0152750Y0098560D01*
X0176250Y0098560D01*
X0177096Y0099406D01*
X0177096Y0102060D01*
X0177096Y0105406D01*
X0178888Y0107198D01*
X0178888Y0112729D01*
X0181250Y0112729D02*
X0181250Y0099560D01*
X0178250Y0096560D01*
X0165750Y0096560D01*
X0161250Y0092060D01*
X0161250Y0082060D01*
X0171250Y0082060D02*
X0171250Y0087060D01*
X0176250Y0092060D01*
X0186250Y0092060D01*
X0186250Y0097060D01*
X0185404Y0097906D01*
X0185404Y0102060D01*
X0186250Y0109060D02*
X0185974Y0109336D01*
X0185974Y0112729D01*
X0183612Y0112729D02*
X0183612Y0109698D01*
X0184250Y0109060D01*
X0186250Y0109060D01*
X0191250Y0109060D01*
X0193596Y0113714D02*
X0192750Y0114560D01*
X0192750Y0121560D01*
X0192581Y0121391D01*
X0185974Y0121391D01*
X0183612Y0121391D02*
X0183612Y0124422D01*
X0184750Y0125560D01*
X0188750Y0125560D01*
X0192750Y0126560D02*
X0189750Y0129560D01*
X0184596Y0129560D01*
X0184596Y0133214D01*
X0181750Y0136060D01*
X0170750Y0136060D01*
X0163250Y0128560D01*
X0160750Y0126060D02*
X0159596Y0124906D01*
X0159596Y0122060D01*
X0160750Y0126060D02*
X0170250Y0126060D01*
X0171250Y0127060D01*
X0172250Y0126060D01*
X0177250Y0126060D01*
X0178888Y0124422D01*
X0178888Y0121391D01*
X0181250Y0121391D02*
X0181250Y0125560D01*
X0176526Y0123284D02*
X0176526Y0121391D01*
X0176526Y0123284D02*
X0175750Y0124060D01*
X0164250Y0124060D01*
X0163250Y0123060D01*
X0163250Y0119560D01*
X0159596Y0115906D01*
X0159596Y0112060D01*
X0159596Y0108714D01*
X0161250Y0107060D01*
X0161250Y0102060D01*
X0166750Y0103560D02*
X0166750Y0107060D01*
X0166750Y0113714D01*
X0171250Y0119060D02*
X0171250Y0107060D01*
X0173750Y0107060D01*
X0176526Y0109836D01*
X0176526Y0112729D01*
X0171250Y0119060D02*
X0169904Y0120406D01*
X0166750Y0120406D01*
X0152904Y0122060D02*
X0152904Y0125406D01*
X0151250Y0127060D01*
X0152904Y0112060D02*
X0152904Y0108714D01*
X0151250Y0107060D01*
X0134250Y0122060D02*
X0129250Y0122060D01*
X0127596Y0120406D01*
X0124250Y0120406D01*
X0120750Y0121560D02*
X0120750Y0126560D01*
X0117750Y0129560D01*
X0129250Y0154060D02*
X0129250Y0173560D01*
X0124250Y0178560D01*
X0124250Y0185714D01*
X0121596Y0185714D01*
X0120750Y0186560D01*
X0120750Y0193560D01*
X0120581Y0193391D01*
X0113974Y0193391D01*
X0111612Y0193391D02*
X0111612Y0196422D01*
X0112750Y0197560D01*
X0116750Y0197560D01*
X0120750Y0198560D02*
X0117750Y0201560D01*
X0112596Y0201560D01*
X0112596Y0205214D01*
X0109750Y0208060D01*
X0098750Y0208060D01*
X0091250Y0200560D01*
X0088750Y0198060D02*
X0098250Y0198060D01*
X0099250Y0199060D01*
X0100250Y0198060D01*
X0105250Y0198060D01*
X0106888Y0196422D01*
X0106888Y0193391D01*
X0109250Y0193391D02*
X0109250Y0197560D01*
X0104526Y0195284D02*
X0104526Y0193391D01*
X0104526Y0195284D02*
X0103750Y0196060D01*
X0092250Y0196060D01*
X0091250Y0195060D01*
X0091250Y0191560D01*
X0087596Y0187906D01*
X0087596Y0184060D01*
X0087596Y0180714D01*
X0089250Y0179060D01*
X0089250Y0174060D01*
X0093750Y0168560D02*
X0089250Y0164060D01*
X0089250Y0154060D01*
X0079250Y0154060D02*
X0079250Y0169060D01*
X0080750Y0170560D01*
X0104250Y0170560D01*
X0105096Y0171406D01*
X0105096Y0174060D01*
X0105096Y0177406D01*
X0106888Y0179198D01*
X0106888Y0184729D01*
X0109250Y0184729D02*
X0109250Y0171560D01*
X0106250Y0168560D01*
X0093750Y0168560D01*
X0096250Y0174060D02*
X0094750Y0175560D01*
X0094750Y0179060D01*
X0094750Y0185714D01*
X0094750Y0192406D02*
X0097904Y0192406D01*
X0099250Y0191060D01*
X0099250Y0179060D01*
X0101750Y0179060D01*
X0104526Y0181836D01*
X0104526Y0184729D01*
X0111612Y0184729D02*
X0111612Y0181698D01*
X0112250Y0181060D01*
X0114250Y0181060D01*
X0113974Y0181336D01*
X0113974Y0184729D01*
X0114250Y0181060D02*
X0119250Y0181060D01*
X0113404Y0174060D02*
X0113404Y0169906D01*
X0114250Y0169060D01*
X0114250Y0164060D01*
X0104250Y0164060D01*
X0099250Y0159060D01*
X0099250Y0154060D01*
X0098404Y0174060D02*
X0096250Y0174060D01*
X0080904Y0180714D02*
X0079250Y0179060D01*
X0080904Y0180714D02*
X0080904Y0184060D01*
X0080904Y0194060D02*
X0080904Y0197406D01*
X0079250Y0199060D01*
X0087596Y0196906D02*
X0087596Y0194060D01*
X0087596Y0196906D02*
X0088750Y0198060D01*
X0062250Y0194060D02*
X0057250Y0194060D01*
X0055596Y0192406D01*
X0052250Y0192406D01*
X0048750Y0193560D02*
X0048581Y0193391D01*
X0041974Y0193391D01*
X0039612Y0193391D02*
X0039612Y0196422D01*
X0040750Y0197560D01*
X0044750Y0197560D01*
X0048750Y0198560D02*
X0045750Y0201560D01*
X0040596Y0201560D01*
X0040596Y0205214D01*
X0037750Y0208060D01*
X0026750Y0208060D01*
X0019250Y0200560D01*
X0016750Y0198060D02*
X0026250Y0198060D01*
X0027250Y0199060D01*
X0028250Y0198060D01*
X0033250Y0198060D01*
X0034888Y0196422D01*
X0034888Y0193391D01*
X0037250Y0193391D02*
X0037250Y0197560D01*
X0032526Y0195284D02*
X0032526Y0193391D01*
X0032526Y0195284D02*
X0031750Y0196060D01*
X0020250Y0196060D01*
X0019250Y0195060D01*
X0019250Y0191560D01*
X0015596Y0187906D01*
X0015596Y0184060D01*
X0015596Y0180714D01*
X0017250Y0179060D01*
X0017250Y0174060D01*
X0021750Y0168560D02*
X0017250Y0164060D01*
X0017250Y0154060D01*
X0007250Y0154060D02*
X0007250Y0169060D01*
X0008750Y0170560D01*
X0032250Y0170560D01*
X0033096Y0171406D01*
X0033096Y0174060D01*
X0033096Y0177406D01*
X0034888Y0179198D01*
X0034888Y0184729D01*
X0037250Y0184729D02*
X0037250Y0171560D01*
X0034250Y0168560D01*
X0021750Y0168560D01*
X0024250Y0174060D02*
X0022750Y0175560D01*
X0022750Y0179060D01*
X0022750Y0185714D01*
X0022750Y0192406D02*
X0025904Y0192406D01*
X0027250Y0191060D01*
X0027250Y0179060D01*
X0029750Y0179060D01*
X0032526Y0181836D01*
X0032526Y0184729D01*
X0039612Y0184729D02*
X0039612Y0181698D01*
X0040250Y0181060D01*
X0042250Y0181060D01*
X0041974Y0181336D01*
X0041974Y0184729D01*
X0042250Y0181060D02*
X0047250Y0181060D01*
X0049596Y0185714D02*
X0048750Y0186560D01*
X0048750Y0193560D01*
X0048750Y0198560D01*
X0049596Y0185714D02*
X0052250Y0185714D01*
X0052250Y0178560D01*
X0057250Y0173560D01*
X0057250Y0154060D01*
X0042250Y0164060D02*
X0042250Y0169060D01*
X0041404Y0169906D01*
X0041404Y0174060D01*
X0042250Y0164060D02*
X0032250Y0164060D01*
X0027250Y0159060D01*
X0027250Y0154060D01*
X0026404Y0174060D02*
X0024250Y0174060D01*
X0008904Y0180714D02*
X0007250Y0179060D01*
X0008904Y0180714D02*
X0008904Y0184060D01*
X0008904Y0194060D02*
X0008904Y0197406D01*
X0007250Y0199060D01*
X0015596Y0196906D02*
X0015596Y0194060D01*
X0015596Y0196906D02*
X0016750Y0198060D01*
X0045750Y0129560D02*
X0048750Y0126560D01*
X0048750Y0121560D01*
X0052250Y0120406D02*
X0055596Y0120406D01*
X0057250Y0122060D01*
X0062250Y0122060D01*
X0124250Y0192406D02*
X0127596Y0192406D01*
X0129250Y0194060D01*
X0134250Y0194060D01*
X0120750Y0193560D02*
X0120750Y0198560D01*
X0151250Y0199060D02*
X0152904Y0197406D01*
X0152904Y0194060D01*
X0159596Y0194060D02*
X0159596Y0196906D01*
X0160750Y0198060D01*
X0170250Y0198060D01*
X0171250Y0199060D01*
X0172250Y0198060D01*
X0177250Y0198060D01*
X0178888Y0196422D01*
X0178888Y0193391D01*
X0181250Y0193391D02*
X0181250Y0197560D01*
X0183612Y0196422D02*
X0184750Y0197560D01*
X0188750Y0197560D01*
X0192750Y0198560D02*
X0189750Y0201560D01*
X0184596Y0201560D01*
X0184596Y0205214D01*
X0181750Y0208060D01*
X0170750Y0208060D01*
X0163250Y0200560D01*
X0164250Y0196060D02*
X0163250Y0195060D01*
X0163250Y0191560D01*
X0159596Y0187906D01*
X0159596Y0184060D01*
X0159596Y0180714D01*
X0161250Y0179060D01*
X0161250Y0174060D01*
X0165750Y0168560D02*
X0161250Y0164060D01*
X0161250Y0154060D01*
X0151250Y0154060D02*
X0151250Y0169060D01*
X0152750Y0170560D01*
X0176250Y0170560D01*
X0177096Y0171406D01*
X0177096Y0174060D01*
X0177096Y0177406D01*
X0178888Y0179198D01*
X0178888Y0184729D01*
X0181250Y0184729D02*
X0181250Y0171560D01*
X0178250Y0168560D01*
X0165750Y0168560D01*
X0168250Y0174060D02*
X0166750Y0175560D01*
X0166750Y0179060D01*
X0166750Y0185714D01*
X0166750Y0192406D02*
X0169904Y0192406D01*
X0171250Y0191060D01*
X0171250Y0179060D01*
X0173750Y0179060D01*
X0176526Y0181836D01*
X0176526Y0184729D01*
X0183612Y0184729D02*
X0183612Y0181698D01*
X0184250Y0181060D01*
X0186250Y0181060D01*
X0185974Y0181336D01*
X0185974Y0184729D01*
X0186250Y0181060D02*
X0191250Y0181060D01*
X0193596Y0185714D02*
X0192750Y0186560D01*
X0192750Y0193560D01*
X0192581Y0193391D01*
X0185974Y0193391D01*
X0183612Y0193391D02*
X0183612Y0196422D01*
X0176526Y0195284D02*
X0176526Y0193391D01*
X0176526Y0195284D02*
X0175750Y0196060D01*
X0164250Y0196060D01*
X0152904Y0184060D02*
X0152904Y0180714D01*
X0151250Y0179060D01*
X0168250Y0174060D02*
X0170404Y0174060D01*
X0176250Y0164060D02*
X0171250Y0159060D01*
X0171250Y0154060D01*
X0176250Y0164060D02*
X0186250Y0164060D01*
X0186250Y0169060D01*
X0185404Y0169906D01*
X0185404Y0174060D01*
X0196250Y0178560D02*
X0196250Y0185714D01*
X0193596Y0185714D01*
X0196250Y0192406D02*
X0199596Y0192406D01*
X0201250Y0194060D01*
X0206250Y0194060D01*
X0192750Y0193560D02*
X0192750Y0198560D01*
X0196250Y0178560D02*
X0201250Y0173560D01*
X0201250Y0154060D01*
X0192750Y0126560D02*
X0192750Y0121560D01*
X0196250Y0120406D02*
X0199596Y0120406D01*
X0201250Y0122060D01*
X0206250Y0122060D01*
X0196250Y0113714D02*
X0193596Y0113714D01*
X0196250Y0113714D02*
X0196250Y0106560D01*
X0201250Y0101560D01*
X0201250Y0082060D01*
X0170404Y0102060D02*
X0168250Y0102060D01*
X0166750Y0103560D01*
M02*
