G75*
%MOIN*%
%OFA0B0*%
%FSLAX25Y25*%
%IPPOS*%
%LPD*%
%AMOC8*
5,1,8,0,0,1.08239X$1,22.5*
%
%ADD10R,0.04331X0.03937*%
%ADD11R,0.03937X0.04331*%
%ADD12R,0.02756X0.02826*%
%ADD13R,0.01575X0.02756*%
D10*
X0026404Y0030060D03*
X0033096Y0030060D03*
X0041404Y0030060D03*
X0048096Y0030060D03*
X0040596Y0057560D03*
X0033904Y0057560D03*
X0015596Y0050060D03*
X0008904Y0050060D03*
X0008904Y0040060D03*
X0015596Y0040060D03*
X0026404Y0101060D03*
X0033096Y0101060D03*
X0041404Y0101060D03*
X0048096Y0101060D03*
X0040596Y0128560D03*
X0033904Y0128560D03*
X0015596Y0121060D03*
X0008904Y0121060D03*
X0008904Y0111060D03*
X0015596Y0111060D03*
X0026404Y0172060D03*
X0033096Y0172060D03*
X0041404Y0172060D03*
X0048096Y0172060D03*
X0040596Y0199560D03*
X0033904Y0199560D03*
X0015596Y0192060D03*
X0008904Y0192060D03*
X0008904Y0182060D03*
X0015596Y0182060D03*
X0079904Y0182060D03*
X0086596Y0182060D03*
X0086596Y0192060D03*
X0079904Y0192060D03*
X0097404Y0172060D03*
X0104096Y0172060D03*
X0112404Y0172060D03*
X0119096Y0172060D03*
X0111596Y0199560D03*
X0104904Y0199560D03*
X0150904Y0192060D03*
X0157596Y0192060D03*
X0157596Y0182060D03*
X0150904Y0182060D03*
X0168404Y0172060D03*
X0175096Y0172060D03*
X0183404Y0172060D03*
X0190096Y0172060D03*
X0182596Y0199560D03*
X0175904Y0199560D03*
X0175904Y0128560D03*
X0182596Y0128560D03*
X0157596Y0121060D03*
X0150904Y0121060D03*
X0150904Y0111060D03*
X0157596Y0111060D03*
X0168404Y0101060D03*
X0175096Y0101060D03*
X0183404Y0101060D03*
X0190096Y0101060D03*
X0182596Y0057560D03*
X0175904Y0057560D03*
X0157596Y0050060D03*
X0150904Y0050060D03*
X0150904Y0040060D03*
X0157596Y0040060D03*
X0168404Y0030060D03*
X0175096Y0030060D03*
X0183404Y0030060D03*
X0190096Y0030060D03*
X0119096Y0030060D03*
X0112404Y0030060D03*
X0104096Y0030060D03*
X0097404Y0030060D03*
X0086596Y0040060D03*
X0079904Y0040060D03*
X0079904Y0050060D03*
X0086596Y0050060D03*
X0104904Y0057560D03*
X0111596Y0057560D03*
X0112404Y0101060D03*
X0119096Y0101060D03*
X0104096Y0101060D03*
X0097404Y0101060D03*
X0086596Y0111060D03*
X0079904Y0111060D03*
X0079904Y0121060D03*
X0086596Y0121060D03*
X0104904Y0128560D03*
X0111596Y0128560D03*
D11*
X0123250Y0119406D03*
X0123250Y0112714D03*
X0093750Y0112714D03*
X0093750Y0119406D03*
X0052250Y0119406D03*
X0052250Y0112714D03*
X0022750Y0112714D03*
X0022750Y0119406D03*
X0022750Y0183714D03*
X0022750Y0190406D03*
X0052250Y0190406D03*
X0052250Y0183714D03*
X0093750Y0183714D03*
X0093750Y0190406D03*
X0123250Y0190406D03*
X0123250Y0183714D03*
X0164750Y0183714D03*
X0164750Y0190406D03*
X0194250Y0190406D03*
X0194250Y0183714D03*
X0194250Y0119406D03*
X0194250Y0112714D03*
X0164750Y0112714D03*
X0164750Y0119406D03*
X0164750Y0048406D03*
X0164750Y0041714D03*
X0194250Y0041714D03*
X0194250Y0048406D03*
X0123250Y0048406D03*
X0123250Y0041714D03*
X0093750Y0041714D03*
X0093750Y0048406D03*
X0052250Y0048406D03*
X0052250Y0041714D03*
X0022750Y0041714D03*
X0022750Y0048406D03*
D12*
X0037053Y0045060D03*
X0037053Y0116060D03*
X0108053Y0116060D03*
X0108053Y0045060D03*
X0179053Y0045060D03*
X0179053Y0116060D03*
X0179053Y0187060D03*
X0108053Y0187060D03*
X0037053Y0187060D03*
D13*
X0037250Y0191391D03*
X0034888Y0191391D03*
X0032526Y0191391D03*
X0039612Y0191391D03*
X0041974Y0191391D03*
X0041974Y0182729D03*
X0039612Y0182729D03*
X0037250Y0182729D03*
X0034888Y0182729D03*
X0032526Y0182729D03*
X0032526Y0120391D03*
X0034888Y0120391D03*
X0037250Y0120391D03*
X0039612Y0120391D03*
X0041974Y0120391D03*
X0041974Y0111729D03*
X0039612Y0111729D03*
X0037250Y0111729D03*
X0034888Y0111729D03*
X0032526Y0111729D03*
X0032526Y0049391D03*
X0034888Y0049391D03*
X0037250Y0049391D03*
X0039612Y0049391D03*
X0041974Y0049391D03*
X0041974Y0040729D03*
X0039612Y0040729D03*
X0037250Y0040729D03*
X0034888Y0040729D03*
X0032526Y0040729D03*
X0103526Y0040729D03*
X0105888Y0040729D03*
X0108250Y0040729D03*
X0110612Y0040729D03*
X0112974Y0040729D03*
X0112974Y0049391D03*
X0110612Y0049391D03*
X0108250Y0049391D03*
X0105888Y0049391D03*
X0103526Y0049391D03*
X0103526Y0111729D03*
X0105888Y0111729D03*
X0108250Y0111729D03*
X0110612Y0111729D03*
X0112974Y0111729D03*
X0112974Y0120391D03*
X0110612Y0120391D03*
X0108250Y0120391D03*
X0105888Y0120391D03*
X0103526Y0120391D03*
X0103526Y0182729D03*
X0105888Y0182729D03*
X0108250Y0182729D03*
X0110612Y0182729D03*
X0112974Y0182729D03*
X0112974Y0191391D03*
X0110612Y0191391D03*
X0108250Y0191391D03*
X0105888Y0191391D03*
X0103526Y0191391D03*
X0174526Y0191391D03*
X0176888Y0191391D03*
X0179250Y0191391D03*
X0181612Y0191391D03*
X0183974Y0191391D03*
X0183974Y0182729D03*
X0181612Y0182729D03*
X0179250Y0182729D03*
X0176888Y0182729D03*
X0174526Y0182729D03*
X0174526Y0120391D03*
X0176888Y0120391D03*
X0179250Y0120391D03*
X0181612Y0120391D03*
X0183974Y0120391D03*
X0183974Y0111729D03*
X0181612Y0111729D03*
X0179250Y0111729D03*
X0176888Y0111729D03*
X0174526Y0111729D03*
X0174526Y0049391D03*
X0176888Y0049391D03*
X0179250Y0049391D03*
X0181612Y0049391D03*
X0183974Y0049391D03*
X0183974Y0040729D03*
X0181612Y0040729D03*
X0179250Y0040729D03*
X0176888Y0040729D03*
X0174526Y0040729D03*
M02*
