G75*
%MOIN*%
%OFA0B0*%
%FSLAX25Y25*%
%IPPOS*%
%LPD*%
%AMOC8*
5,1,8,0,0,1.08239X$1,22.5*
%
%ADD10C,0.07400*%
%ADD11R,0.04331X0.03937*%
%ADD12R,0.03937X0.04331*%
%ADD13C,0.03937*%
%ADD14R,0.01575X0.02756*%
%ADD15R,0.09646X0.04331*%
%ADD16C,0.01000*%
%ADD17C,0.02900*%
%ADD18C,0.00700*%
D10*
X0007250Y0010060D03*
X0017250Y0010060D03*
X0027250Y0010060D03*
X0037250Y0010060D03*
X0047250Y0010060D03*
X0057250Y0010060D03*
X0067250Y0010060D03*
X0079250Y0010060D03*
X0089250Y0010060D03*
X0099250Y0010060D03*
X0109250Y0010060D03*
X0119250Y0010060D03*
X0129250Y0010060D03*
X0139250Y0010060D03*
X0151250Y0010060D03*
X0161250Y0010060D03*
X0171250Y0010060D03*
X0181250Y0010060D03*
X0191250Y0010060D03*
X0201250Y0010060D03*
X0211250Y0010060D03*
X0206250Y0040060D03*
X0206250Y0050060D03*
X0201250Y0082060D03*
X0191250Y0082060D03*
X0181250Y0082060D03*
X0171250Y0082060D03*
X0161250Y0082060D03*
X0151250Y0082060D03*
X0139250Y0082060D03*
X0129250Y0082060D03*
X0119250Y0082060D03*
X0109250Y0082060D03*
X0099250Y0082060D03*
X0089250Y0082060D03*
X0079250Y0082060D03*
X0067250Y0082060D03*
X0057250Y0082060D03*
X0047250Y0082060D03*
X0037250Y0082060D03*
X0027250Y0082060D03*
X0017250Y0082060D03*
X0007250Y0082060D03*
X0062250Y0112060D03*
X0062250Y0122060D03*
X0057250Y0154060D03*
X0067250Y0154060D03*
X0079250Y0154060D03*
X0089250Y0154060D03*
X0099250Y0154060D03*
X0109250Y0154060D03*
X0119250Y0154060D03*
X0129250Y0154060D03*
X0139250Y0154060D03*
X0151250Y0154060D03*
X0161250Y0154060D03*
X0171250Y0154060D03*
X0181250Y0154060D03*
X0191250Y0154060D03*
X0201250Y0154060D03*
X0211250Y0154060D03*
X0206250Y0184060D03*
X0206250Y0194060D03*
X0206250Y0122060D03*
X0206250Y0112060D03*
X0211250Y0082060D03*
X0134250Y0112060D03*
X0134250Y0122060D03*
X0134250Y0184060D03*
X0134250Y0194060D03*
X0062250Y0194060D03*
X0062250Y0184060D03*
X0047250Y0154060D03*
X0037250Y0154060D03*
X0027250Y0154060D03*
X0017250Y0154060D03*
X0007250Y0154060D03*
X0062250Y0050060D03*
X0062250Y0040060D03*
X0134250Y0040060D03*
X0134250Y0050060D03*
D11*
X0152904Y0050060D03*
X0159596Y0050060D03*
X0159596Y0040060D03*
X0152904Y0040060D03*
X0170404Y0030060D03*
X0177096Y0030060D03*
X0185404Y0030060D03*
X0192096Y0030060D03*
X0184596Y0057560D03*
X0177904Y0057560D03*
X0177096Y0102060D03*
X0170404Y0102060D03*
X0159596Y0112060D03*
X0152904Y0112060D03*
X0152904Y0122060D03*
X0159596Y0122060D03*
X0177904Y0129560D03*
X0184596Y0129560D03*
X0185404Y0102060D03*
X0192096Y0102060D03*
X0192096Y0174060D03*
X0185404Y0174060D03*
X0177096Y0174060D03*
X0170404Y0174060D03*
X0159596Y0184060D03*
X0152904Y0184060D03*
X0152904Y0194060D03*
X0159596Y0194060D03*
X0177904Y0201560D03*
X0184596Y0201560D03*
X0120096Y0174060D03*
X0113404Y0174060D03*
X0105096Y0174060D03*
X0098404Y0174060D03*
X0087596Y0184060D03*
X0080904Y0184060D03*
X0080904Y0194060D03*
X0087596Y0194060D03*
X0105904Y0201560D03*
X0112596Y0201560D03*
X0048096Y0174060D03*
X0041404Y0174060D03*
X0033096Y0174060D03*
X0026404Y0174060D03*
X0015596Y0184060D03*
X0008904Y0184060D03*
X0008904Y0194060D03*
X0015596Y0194060D03*
X0033904Y0201560D03*
X0040596Y0201560D03*
X0040596Y0129560D03*
X0033904Y0129560D03*
X0015596Y0122060D03*
X0008904Y0122060D03*
X0008904Y0112060D03*
X0015596Y0112060D03*
X0026404Y0102060D03*
X0033096Y0102060D03*
X0041404Y0102060D03*
X0048096Y0102060D03*
X0080904Y0112060D03*
X0087596Y0112060D03*
X0087596Y0122060D03*
X0080904Y0122060D03*
X0098404Y0102060D03*
X0105096Y0102060D03*
X0113404Y0102060D03*
X0120096Y0102060D03*
X0112596Y0129560D03*
X0105904Y0129560D03*
X0105904Y0057560D03*
X0112596Y0057560D03*
X0087596Y0050060D03*
X0080904Y0050060D03*
X0080904Y0040060D03*
X0087596Y0040060D03*
X0098404Y0030060D03*
X0105096Y0030060D03*
X0113404Y0030060D03*
X0120096Y0030060D03*
X0048096Y0030060D03*
X0041404Y0030060D03*
X0033096Y0030060D03*
X0026404Y0030060D03*
X0015596Y0040060D03*
X0008904Y0040060D03*
X0008904Y0050060D03*
X0015596Y0050060D03*
X0033904Y0057560D03*
X0040596Y0057560D03*
D12*
X0052250Y0048406D03*
X0052250Y0041714D03*
X0022750Y0041714D03*
X0022750Y0048406D03*
X0022750Y0113714D03*
X0022750Y0120406D03*
X0052250Y0120406D03*
X0052250Y0113714D03*
X0094750Y0113714D03*
X0094750Y0120406D03*
X0124250Y0120406D03*
X0124250Y0113714D03*
X0166750Y0113714D03*
X0166750Y0120406D03*
X0196250Y0120406D03*
X0196250Y0113714D03*
X0196250Y0048406D03*
X0196250Y0041714D03*
X0166750Y0041714D03*
X0166750Y0048406D03*
X0124250Y0048406D03*
X0124250Y0041714D03*
X0094750Y0041714D03*
X0094750Y0048406D03*
X0094750Y0185714D03*
X0094750Y0192406D03*
X0124250Y0192406D03*
X0124250Y0185714D03*
X0166750Y0185714D03*
X0166750Y0192406D03*
X0196250Y0192406D03*
X0196250Y0185714D03*
X0052250Y0185714D03*
X0052250Y0192406D03*
X0022750Y0192406D03*
X0022750Y0185714D03*
D13*
X0005250Y0216060D03*
X0062250Y0159060D03*
X0077250Y0144060D03*
X0134250Y0159060D03*
X0149250Y0144060D03*
X0206250Y0159060D03*
X0149250Y0216060D03*
X0077250Y0216060D03*
X0005250Y0144060D03*
X0062250Y0087060D03*
X0077250Y0072060D03*
X0134250Y0087060D03*
X0149250Y0072060D03*
X0206250Y0087060D03*
X0206250Y0015060D03*
X0134250Y0015060D03*
X0062250Y0015060D03*
X0005250Y0072060D03*
D14*
X0032526Y0049391D03*
X0034888Y0049391D03*
X0037250Y0049391D03*
X0039612Y0049391D03*
X0041974Y0049391D03*
X0041974Y0040729D03*
X0039612Y0040729D03*
X0037250Y0040729D03*
X0034888Y0040729D03*
X0032526Y0040729D03*
X0032526Y0112729D03*
X0034888Y0112729D03*
X0037250Y0112729D03*
X0039612Y0112729D03*
X0041974Y0112729D03*
X0041974Y0121391D03*
X0039612Y0121391D03*
X0037250Y0121391D03*
X0034888Y0121391D03*
X0032526Y0121391D03*
X0032526Y0184729D03*
X0034888Y0184729D03*
X0037250Y0184729D03*
X0039612Y0184729D03*
X0041974Y0184729D03*
X0041974Y0193391D03*
X0039612Y0193391D03*
X0037250Y0193391D03*
X0034888Y0193391D03*
X0032526Y0193391D03*
X0104526Y0193391D03*
X0106888Y0193391D03*
X0109250Y0193391D03*
X0111612Y0193391D03*
X0113974Y0193391D03*
X0113974Y0184729D03*
X0111612Y0184729D03*
X0109250Y0184729D03*
X0106888Y0184729D03*
X0104526Y0184729D03*
X0104526Y0121391D03*
X0106888Y0121391D03*
X0109250Y0121391D03*
X0111612Y0121391D03*
X0113974Y0121391D03*
X0113974Y0112729D03*
X0111612Y0112729D03*
X0109250Y0112729D03*
X0106888Y0112729D03*
X0104526Y0112729D03*
X0104526Y0049391D03*
X0106888Y0049391D03*
X0109250Y0049391D03*
X0111612Y0049391D03*
X0113974Y0049391D03*
X0113974Y0040729D03*
X0111612Y0040729D03*
X0109250Y0040729D03*
X0106888Y0040729D03*
X0104526Y0040729D03*
X0176526Y0040729D03*
X0178888Y0040729D03*
X0181250Y0040729D03*
X0183612Y0040729D03*
X0185974Y0040729D03*
X0185974Y0049391D03*
X0183612Y0049391D03*
X0181250Y0049391D03*
X0178888Y0049391D03*
X0176526Y0049391D03*
X0176526Y0112729D03*
X0178888Y0112729D03*
X0181250Y0112729D03*
X0183612Y0112729D03*
X0185974Y0112729D03*
X0185974Y0121391D03*
X0183612Y0121391D03*
X0181250Y0121391D03*
X0178888Y0121391D03*
X0176526Y0121391D03*
X0176526Y0184729D03*
X0178888Y0184729D03*
X0181250Y0184729D03*
X0183612Y0184729D03*
X0185974Y0184729D03*
X0185974Y0193391D03*
X0183612Y0193391D03*
X0181250Y0193391D03*
X0178888Y0193391D03*
X0176526Y0193391D03*
D15*
X0181250Y0189060D03*
X0109250Y0189060D03*
X0037250Y0189060D03*
X0037250Y0117060D03*
X0037250Y0045060D03*
X0109250Y0045060D03*
X0109250Y0117060D03*
X0181250Y0117060D03*
X0181250Y0045060D03*
D16*
X0175241Y0046813D02*
X0187259Y0046813D01*
X0187962Y0047516D01*
X0187962Y0047841D01*
X0191200Y0047841D01*
X0191200Y0041918D01*
X0192108Y0041010D01*
X0192954Y0040164D01*
X0193081Y0040164D01*
X0193081Y0039051D01*
X0193784Y0038348D01*
X0194700Y0038348D01*
X0194700Y0033918D01*
X0195608Y0033010D01*
X0199700Y0028918D01*
X0199700Y0014722D01*
X0198474Y0014214D01*
X0197096Y0012836D01*
X0196350Y0011035D01*
X0196350Y0009085D01*
X0197096Y0007284D01*
X0197720Y0006660D01*
X0194780Y0006660D01*
X0195404Y0007284D01*
X0196150Y0009085D01*
X0196150Y0011035D01*
X0195404Y0012836D01*
X0194026Y0014214D01*
X0192225Y0014960D01*
X0190275Y0014960D01*
X0188474Y0014214D01*
X0187096Y0012836D01*
X0186350Y0011035D01*
X0186350Y0009085D01*
X0187096Y0007284D01*
X0187720Y0006660D01*
X0184780Y0006660D01*
X0185404Y0007284D01*
X0186150Y0009085D01*
X0186150Y0011035D01*
X0185404Y0012836D01*
X0184026Y0014214D01*
X0182225Y0014960D01*
X0180275Y0014960D01*
X0178474Y0014214D01*
X0177096Y0012836D01*
X0176350Y0011035D01*
X0176350Y0009085D01*
X0177096Y0007284D01*
X0177720Y0006660D01*
X0174780Y0006660D01*
X0175404Y0007284D01*
X0176150Y0009085D01*
X0176150Y0011035D01*
X0175404Y0012836D01*
X0174026Y0014214D01*
X0173015Y0014633D01*
X0176892Y0018510D01*
X0184052Y0018510D01*
X0184749Y0017813D01*
X0185723Y0017410D01*
X0186777Y0017410D01*
X0187751Y0017813D01*
X0188497Y0018559D01*
X0188900Y0019533D01*
X0188900Y0020587D01*
X0188497Y0021561D01*
X0187800Y0022258D01*
X0187800Y0025702D01*
X0186954Y0026548D01*
X0186954Y0026891D01*
X0188066Y0026891D01*
X0188590Y0027415D01*
X0188731Y0027170D01*
X0189010Y0026891D01*
X0189352Y0026694D01*
X0189734Y0026591D01*
X0191612Y0026591D01*
X0191612Y0029576D01*
X0192581Y0029576D01*
X0192581Y0030544D01*
X0195762Y0030544D01*
X0195762Y0032226D01*
X0195660Y0032607D01*
X0195462Y0032950D01*
X0195183Y0033229D01*
X0194841Y0033426D01*
X0194459Y0033528D01*
X0192581Y0033528D01*
X0192581Y0030544D01*
X0191612Y0030544D01*
X0191612Y0033528D01*
X0189734Y0033528D01*
X0189352Y0033426D01*
X0189010Y0033229D01*
X0188731Y0032950D01*
X0188590Y0032705D01*
X0188066Y0033228D01*
X0182800Y0033228D01*
X0182800Y0036318D01*
X0182970Y0036148D01*
X0182970Y0036148D01*
X0183608Y0035510D01*
X0189052Y0035510D01*
X0189749Y0034813D01*
X0190723Y0034410D01*
X0191777Y0034410D01*
X0192751Y0034813D01*
X0193497Y0035559D01*
X0193900Y0036533D01*
X0193900Y0037587D01*
X0193497Y0038561D01*
X0192751Y0039307D01*
X0191777Y0039710D01*
X0190723Y0039710D01*
X0189749Y0039307D01*
X0189052Y0038610D01*
X0187717Y0038610D01*
X0187962Y0038854D01*
X0187962Y0042604D01*
X0187259Y0043307D01*
X0175241Y0043307D01*
X0174538Y0042604D01*
X0174538Y0038854D01*
X0174945Y0038447D01*
X0173278Y0036780D01*
X0172800Y0037258D01*
X0172800Y0047702D01*
X0171892Y0048610D01*
X0170546Y0049956D01*
X0169918Y0049956D01*
X0169918Y0050510D01*
X0174538Y0050510D01*
X0174538Y0047516D01*
X0175241Y0046813D01*
X0175056Y0046997D02*
X0172800Y0046997D01*
X0172800Y0045999D02*
X0191200Y0045999D01*
X0191200Y0046997D02*
X0187444Y0046997D01*
X0187563Y0043003D02*
X0191200Y0043003D01*
X0191200Y0042005D02*
X0187962Y0042005D01*
X0187962Y0041006D02*
X0192112Y0041006D01*
X0193081Y0040008D02*
X0187962Y0040008D01*
X0187962Y0039009D02*
X0189452Y0039009D01*
X0193048Y0039009D02*
X0193123Y0039009D01*
X0193724Y0038011D02*
X0194700Y0038011D01*
X0194700Y0037012D02*
X0193900Y0037012D01*
X0193685Y0036014D02*
X0194700Y0036014D01*
X0194700Y0035015D02*
X0192953Y0035015D01*
X0194700Y0034017D02*
X0182800Y0034017D01*
X0182800Y0035015D02*
X0189547Y0035015D01*
X0188800Y0033018D02*
X0188276Y0033018D01*
X0191612Y0033018D02*
X0192581Y0033018D01*
X0192581Y0032020D02*
X0191612Y0032020D01*
X0191612Y0031021D02*
X0192581Y0031021D01*
X0192581Y0030023D02*
X0198595Y0030023D01*
X0197597Y0031021D02*
X0195762Y0031021D01*
X0195762Y0032020D02*
X0196598Y0032020D01*
X0195600Y0033018D02*
X0195393Y0033018D01*
X0197800Y0035202D02*
X0197800Y0038348D01*
X0198716Y0038348D01*
X0199418Y0039051D01*
X0199418Y0044376D01*
X0198734Y0045060D01*
X0199418Y0045744D01*
X0199418Y0046856D01*
X0200238Y0046856D01*
X0201677Y0048295D01*
X0202096Y0047284D01*
X0203474Y0045906D01*
X0205275Y0045160D01*
X0207225Y0045160D01*
X0209026Y0045906D01*
X0210404Y0047284D01*
X0211150Y0049085D01*
X0211150Y0051035D01*
X0210404Y0052836D01*
X0209026Y0054214D01*
X0207225Y0054960D01*
X0205275Y0054960D01*
X0203474Y0054214D01*
X0202096Y0052836D01*
X0201588Y0051610D01*
X0200608Y0051610D01*
X0199700Y0050702D01*
X0199418Y0050420D01*
X0199418Y0051069D01*
X0198716Y0051772D01*
X0194300Y0051772D01*
X0194300Y0055202D01*
X0193392Y0056110D01*
X0191300Y0058202D01*
X0190392Y0059110D01*
X0187962Y0059110D01*
X0187962Y0060026D01*
X0187259Y0060728D01*
X0186146Y0060728D01*
X0186146Y0061856D01*
X0185238Y0062764D01*
X0182392Y0065610D01*
X0170108Y0065610D01*
X0163708Y0059210D01*
X0163124Y0059210D01*
X0163173Y0059251D01*
X0164742Y0061969D01*
X0165287Y0065060D01*
X0164742Y0068151D01*
X0163173Y0070869D01*
X0163173Y0070869D01*
X0160769Y0072887D01*
X0160769Y0072887D01*
X0159193Y0073460D01*
X0203307Y0073460D01*
X0201731Y0072887D01*
X0199327Y0070869D01*
X0197758Y0068151D01*
X0197758Y0068151D01*
X0197213Y0065060D01*
X0197758Y0061969D01*
X0199327Y0059251D01*
X0199327Y0059251D01*
X0201731Y0057233D01*
X0204681Y0056160D01*
X0207819Y0056160D01*
X0210769Y0057233D01*
X0213173Y0059251D01*
X0214650Y0061809D01*
X0214650Y0014014D01*
X0214638Y0014026D01*
X0213975Y0014507D01*
X0213246Y0014879D01*
X0212468Y0015132D01*
X0211750Y0015246D01*
X0211750Y0010560D01*
X0210750Y0010560D01*
X0210750Y0015246D01*
X0210032Y0015132D01*
X0209418Y0014932D01*
X0209418Y0015690D01*
X0208936Y0016855D01*
X0208045Y0017746D01*
X0206880Y0018228D01*
X0205620Y0018228D01*
X0204455Y0017746D01*
X0203564Y0016855D01*
X0203081Y0015690D01*
X0203081Y0014605D01*
X0202800Y0014722D01*
X0202800Y0030202D01*
X0197800Y0035202D01*
X0197987Y0035015D02*
X0214650Y0035015D01*
X0214650Y0034017D02*
X0198985Y0034017D01*
X0199984Y0033018D02*
X0214650Y0033018D01*
X0214650Y0032020D02*
X0200982Y0032020D01*
X0201981Y0031021D02*
X0214650Y0031021D01*
X0214650Y0030023D02*
X0202800Y0030023D01*
X0202800Y0029024D02*
X0214650Y0029024D01*
X0214650Y0028026D02*
X0202800Y0028026D01*
X0202800Y0027027D02*
X0214650Y0027027D01*
X0214650Y0026029D02*
X0202800Y0026029D01*
X0202800Y0025030D02*
X0214650Y0025030D01*
X0214650Y0024032D02*
X0202800Y0024032D01*
X0202800Y0023033D02*
X0214650Y0023033D01*
X0214650Y0022035D02*
X0202800Y0022035D01*
X0202800Y0021036D02*
X0214650Y0021036D01*
X0214650Y0020038D02*
X0202800Y0020038D01*
X0202800Y0019039D02*
X0214650Y0019039D01*
X0214650Y0018041D02*
X0207334Y0018041D01*
X0208749Y0017042D02*
X0214650Y0017042D01*
X0214650Y0016044D02*
X0209272Y0016044D01*
X0209418Y0015045D02*
X0209765Y0015045D01*
X0210750Y0015045D02*
X0211750Y0015045D01*
X0212735Y0015045D02*
X0214650Y0015045D01*
X0214610Y0014047D02*
X0214650Y0014047D01*
X0211750Y0014047D02*
X0210750Y0014047D01*
X0210750Y0013048D02*
X0211750Y0013048D01*
X0211750Y0012050D02*
X0210750Y0012050D01*
X0210750Y0011051D02*
X0211750Y0011051D01*
X0203081Y0015045D02*
X0202800Y0015045D01*
X0202800Y0016044D02*
X0203228Y0016044D01*
X0202800Y0017042D02*
X0203751Y0017042D01*
X0202800Y0018041D02*
X0205166Y0018041D01*
X0199700Y0018041D02*
X0187978Y0018041D01*
X0188695Y0019039D02*
X0199700Y0019039D01*
X0199700Y0020038D02*
X0188900Y0020038D01*
X0188714Y0021036D02*
X0199700Y0021036D01*
X0199700Y0022035D02*
X0188023Y0022035D01*
X0187800Y0023033D02*
X0199700Y0023033D01*
X0199700Y0024032D02*
X0187800Y0024032D01*
X0187800Y0025030D02*
X0199700Y0025030D01*
X0199700Y0026029D02*
X0187473Y0026029D01*
X0188202Y0027027D02*
X0188874Y0027027D01*
X0191612Y0027027D02*
X0192581Y0027027D01*
X0192581Y0026591D02*
X0194459Y0026591D01*
X0194841Y0026694D01*
X0195183Y0026891D01*
X0195462Y0027170D01*
X0195660Y0027512D01*
X0195762Y0027894D01*
X0195762Y0029576D01*
X0192581Y0029576D01*
X0192581Y0026591D01*
X0192581Y0028026D02*
X0191612Y0028026D01*
X0191612Y0029024D02*
X0192581Y0029024D01*
X0195762Y0029024D02*
X0199594Y0029024D01*
X0199700Y0028026D02*
X0195762Y0028026D01*
X0195319Y0027027D02*
X0199700Y0027027D01*
X0203474Y0035906D02*
X0205275Y0035160D01*
X0207225Y0035160D01*
X0209026Y0035906D01*
X0210404Y0037284D01*
X0211150Y0039085D01*
X0211150Y0041035D01*
X0210404Y0042836D01*
X0209026Y0044214D01*
X0207225Y0044960D01*
X0205275Y0044960D01*
X0203474Y0044214D01*
X0202096Y0042836D01*
X0201350Y0041035D01*
X0201350Y0039085D01*
X0202096Y0037284D01*
X0203474Y0035906D01*
X0203366Y0036014D02*
X0197800Y0036014D01*
X0197800Y0037012D02*
X0202368Y0037012D01*
X0201795Y0038011D02*
X0197800Y0038011D01*
X0199377Y0039009D02*
X0201381Y0039009D01*
X0201350Y0040008D02*
X0199418Y0040008D01*
X0199418Y0041006D02*
X0201350Y0041006D01*
X0201752Y0042005D02*
X0199418Y0042005D01*
X0199418Y0043003D02*
X0202264Y0043003D01*
X0203262Y0044002D02*
X0199418Y0044002D01*
X0198794Y0045000D02*
X0214650Y0045000D01*
X0214650Y0044002D02*
X0209238Y0044002D01*
X0210236Y0043003D02*
X0214650Y0043003D01*
X0214650Y0042005D02*
X0210748Y0042005D01*
X0211150Y0041006D02*
X0214650Y0041006D01*
X0214650Y0040008D02*
X0211150Y0040008D01*
X0211119Y0039009D02*
X0214650Y0039009D01*
X0214650Y0038011D02*
X0210705Y0038011D01*
X0210132Y0037012D02*
X0214650Y0037012D01*
X0214650Y0036014D02*
X0209133Y0036014D01*
X0209119Y0045999D02*
X0214650Y0045999D01*
X0214650Y0046997D02*
X0210117Y0046997D01*
X0210699Y0047996D02*
X0214650Y0047996D01*
X0214650Y0048994D02*
X0211112Y0048994D01*
X0211150Y0049993D02*
X0214650Y0049993D01*
X0214650Y0050992D02*
X0211150Y0050992D01*
X0210754Y0051990D02*
X0214650Y0051990D01*
X0214650Y0052989D02*
X0210251Y0052989D01*
X0209253Y0053987D02*
X0214650Y0053987D01*
X0214650Y0054986D02*
X0194300Y0054986D01*
X0194300Y0053987D02*
X0203247Y0053987D01*
X0202249Y0052989D02*
X0194300Y0052989D01*
X0194300Y0051990D02*
X0201746Y0051990D01*
X0199989Y0050992D02*
X0199418Y0050992D01*
X0201378Y0047996D02*
X0201801Y0047996D01*
X0202383Y0046997D02*
X0200379Y0046997D01*
X0199418Y0045999D02*
X0203381Y0045999D01*
X0202421Y0056983D02*
X0192519Y0056983D01*
X0193392Y0056110D02*
X0193392Y0056110D01*
X0193518Y0055984D02*
X0214650Y0055984D01*
X0214650Y0056983D02*
X0210079Y0056983D01*
X0210769Y0057233D02*
X0210769Y0057233D01*
X0211660Y0057981D02*
X0214650Y0057981D01*
X0214650Y0058980D02*
X0212850Y0058980D01*
X0213173Y0059251D02*
X0213173Y0059251D01*
X0213173Y0059251D01*
X0213593Y0059978D02*
X0214650Y0059978D01*
X0214650Y0060977D02*
X0214169Y0060977D01*
X0201731Y0057233D02*
X0201731Y0057233D01*
X0200840Y0057981D02*
X0191521Y0057981D01*
X0191300Y0058202D02*
X0191300Y0058202D01*
X0190522Y0058980D02*
X0199650Y0058980D01*
X0198907Y0059978D02*
X0187962Y0059978D01*
X0186146Y0060977D02*
X0198331Y0060977D01*
X0197758Y0061969D02*
X0197758Y0061969D01*
X0197757Y0061975D02*
X0186027Y0061975D01*
X0185028Y0062974D02*
X0197581Y0062974D01*
X0197405Y0063972D02*
X0184030Y0063972D01*
X0183031Y0064971D02*
X0197228Y0064971D01*
X0197213Y0065060D02*
X0197213Y0065060D01*
X0197373Y0065969D02*
X0165127Y0065969D01*
X0165287Y0065060D02*
X0165287Y0065060D01*
X0165272Y0064971D02*
X0169469Y0064971D01*
X0168470Y0063972D02*
X0165095Y0063972D01*
X0164919Y0062974D02*
X0167472Y0062974D01*
X0166473Y0061975D02*
X0164743Y0061975D01*
X0164742Y0061969D02*
X0164742Y0061969D01*
X0164169Y0060977D02*
X0165475Y0060977D01*
X0164476Y0059978D02*
X0163593Y0059978D01*
X0163173Y0059251D02*
X0163173Y0059251D01*
X0163173Y0059251D01*
X0165900Y0057018D02*
X0171392Y0062510D01*
X0181108Y0062510D01*
X0182889Y0060728D01*
X0181934Y0060728D01*
X0181410Y0060205D01*
X0181269Y0060450D01*
X0180990Y0060729D01*
X0180648Y0060926D01*
X0180266Y0061028D01*
X0178388Y0061028D01*
X0178388Y0058044D01*
X0177419Y0058044D01*
X0177419Y0057076D01*
X0174238Y0057076D01*
X0174238Y0055610D01*
X0173891Y0055610D01*
X0173497Y0056561D01*
X0172751Y0057307D01*
X0171777Y0057710D01*
X0170723Y0057710D01*
X0169749Y0057307D01*
X0169003Y0056561D01*
X0168609Y0055610D01*
X0165725Y0055610D01*
X0165900Y0056033D01*
X0165900Y0057018D01*
X0165900Y0056983D02*
X0169425Y0056983D01*
X0168764Y0055984D02*
X0165880Y0055984D01*
X0166863Y0057981D02*
X0177419Y0057981D01*
X0177419Y0058044D02*
X0174238Y0058044D01*
X0174238Y0059726D01*
X0174340Y0060107D01*
X0174538Y0060450D01*
X0174817Y0060729D01*
X0175159Y0060926D01*
X0175541Y0061028D01*
X0177419Y0061028D01*
X0177419Y0058044D01*
X0177419Y0058980D02*
X0178388Y0058980D01*
X0178388Y0059978D02*
X0177419Y0059978D01*
X0177419Y0060977D02*
X0178388Y0060977D01*
X0180460Y0060977D02*
X0182641Y0060977D01*
X0181643Y0061975D02*
X0170857Y0061975D01*
X0169859Y0060977D02*
X0175347Y0060977D01*
X0174306Y0059978D02*
X0168860Y0059978D01*
X0167862Y0058980D02*
X0174238Y0058980D01*
X0174238Y0056983D02*
X0173075Y0056983D01*
X0173736Y0055984D02*
X0174238Y0055984D01*
X0174538Y0049993D02*
X0169918Y0049993D01*
X0171508Y0048994D02*
X0174538Y0048994D01*
X0174538Y0047996D02*
X0172506Y0047996D01*
X0172800Y0045000D02*
X0191200Y0045000D01*
X0191200Y0044002D02*
X0172800Y0044002D01*
X0172800Y0043003D02*
X0174937Y0043003D01*
X0174538Y0042005D02*
X0172800Y0042005D01*
X0172800Y0041006D02*
X0174538Y0041006D01*
X0174538Y0040008D02*
X0172800Y0040008D01*
X0172800Y0039009D02*
X0174538Y0039009D01*
X0174509Y0038011D02*
X0172800Y0038011D01*
X0173045Y0037012D02*
X0173510Y0037012D01*
X0182800Y0036014D02*
X0183104Y0036014D01*
X0184522Y0018041D02*
X0176423Y0018041D01*
X0175424Y0017042D02*
X0199700Y0017042D01*
X0199700Y0016044D02*
X0174426Y0016044D01*
X0173427Y0015045D02*
X0199700Y0015045D01*
X0198307Y0014047D02*
X0194193Y0014047D01*
X0195192Y0013048D02*
X0197308Y0013048D01*
X0196770Y0012050D02*
X0195730Y0012050D01*
X0196143Y0011051D02*
X0196357Y0011051D01*
X0196350Y0010053D02*
X0196150Y0010053D01*
X0196137Y0009054D02*
X0196363Y0009054D01*
X0196777Y0008056D02*
X0195723Y0008056D01*
X0195177Y0007057D02*
X0197323Y0007057D01*
X0187323Y0007057D02*
X0185177Y0007057D01*
X0185723Y0008056D02*
X0186777Y0008056D01*
X0186363Y0009054D02*
X0186137Y0009054D01*
X0186150Y0010053D02*
X0186350Y0010053D01*
X0186357Y0011051D02*
X0186143Y0011051D01*
X0185730Y0012050D02*
X0186770Y0012050D01*
X0187308Y0013048D02*
X0185192Y0013048D01*
X0184193Y0014047D02*
X0188307Y0014047D01*
X0178307Y0014047D02*
X0174193Y0014047D01*
X0175192Y0013048D02*
X0177308Y0013048D01*
X0176770Y0012050D02*
X0175730Y0012050D01*
X0176143Y0011051D02*
X0176357Y0011051D01*
X0176350Y0010053D02*
X0176150Y0010053D01*
X0176137Y0009054D02*
X0176363Y0009054D01*
X0176777Y0008056D02*
X0175723Y0008056D01*
X0175177Y0007057D02*
X0177323Y0007057D01*
X0142650Y0014014D02*
X0142638Y0014026D01*
X0141975Y0014507D01*
X0141246Y0014879D01*
X0140468Y0015132D01*
X0139750Y0015246D01*
X0139750Y0010560D01*
X0138750Y0010560D01*
X0138750Y0015246D01*
X0138032Y0015132D01*
X0137418Y0014932D01*
X0137418Y0015690D01*
X0136936Y0016855D01*
X0136045Y0017746D01*
X0134880Y0018228D01*
X0133620Y0018228D01*
X0132455Y0017746D01*
X0131564Y0016855D01*
X0131081Y0015690D01*
X0131081Y0014605D01*
X0130800Y0014722D01*
X0130800Y0030202D01*
X0125800Y0035202D01*
X0125800Y0038348D01*
X0126716Y0038348D01*
X0127418Y0039051D01*
X0127418Y0044376D01*
X0126734Y0045060D01*
X0127418Y0045744D01*
X0127418Y0046856D01*
X0128238Y0046856D01*
X0129677Y0048295D01*
X0130096Y0047284D01*
X0131474Y0045906D01*
X0133275Y0045160D01*
X0135225Y0045160D01*
X0137026Y0045906D01*
X0138404Y0047284D01*
X0139150Y0049085D01*
X0139150Y0051035D01*
X0138404Y0052836D01*
X0137026Y0054214D01*
X0135225Y0054960D01*
X0133275Y0054960D01*
X0131474Y0054214D01*
X0130096Y0052836D01*
X0129588Y0051610D01*
X0128608Y0051610D01*
X0127418Y0050420D01*
X0127418Y0051069D01*
X0126716Y0051772D01*
X0122300Y0051772D01*
X0122300Y0055202D01*
X0118392Y0059110D01*
X0115962Y0059110D01*
X0115962Y0060026D01*
X0115259Y0060728D01*
X0114146Y0060728D01*
X0114146Y0061856D01*
X0113238Y0062764D01*
X0110392Y0065610D01*
X0098108Y0065610D01*
X0091708Y0059210D01*
X0091124Y0059210D01*
X0091173Y0059251D01*
X0092742Y0061969D01*
X0093287Y0065060D01*
X0092742Y0068151D01*
X0091173Y0070869D01*
X0091173Y0070869D01*
X0088769Y0072887D01*
X0088769Y0072887D01*
X0087193Y0073460D01*
X0131307Y0073460D01*
X0129731Y0072887D01*
X0127327Y0070869D01*
X0125758Y0068151D01*
X0125758Y0068151D01*
X0125213Y0065060D01*
X0125758Y0061969D01*
X0127327Y0059251D01*
X0127327Y0059251D01*
X0129731Y0057233D01*
X0132681Y0056160D01*
X0135819Y0056160D01*
X0138769Y0057233D01*
X0138769Y0057233D01*
X0141173Y0059251D01*
X0142650Y0061809D01*
X0142650Y0014014D01*
X0142650Y0014047D02*
X0142610Y0014047D01*
X0142650Y0015045D02*
X0140735Y0015045D01*
X0139750Y0015045D02*
X0138750Y0015045D01*
X0137765Y0015045D02*
X0137418Y0015045D01*
X0137272Y0016044D02*
X0142650Y0016044D01*
X0142650Y0017042D02*
X0136749Y0017042D01*
X0135334Y0018041D02*
X0142650Y0018041D01*
X0142650Y0019039D02*
X0130800Y0019039D01*
X0130800Y0018041D02*
X0133166Y0018041D01*
X0131751Y0017042D02*
X0130800Y0017042D01*
X0130800Y0016044D02*
X0131228Y0016044D01*
X0131081Y0015045D02*
X0130800Y0015045D01*
X0127700Y0015045D02*
X0101427Y0015045D01*
X0101015Y0014633D02*
X0104892Y0018510D01*
X0112052Y0018510D01*
X0112749Y0017813D01*
X0113723Y0017410D01*
X0114777Y0017410D01*
X0115751Y0017813D01*
X0116497Y0018559D01*
X0116900Y0019533D01*
X0116900Y0020587D01*
X0116497Y0021561D01*
X0115800Y0022258D01*
X0115800Y0025702D01*
X0114954Y0026548D01*
X0114954Y0026891D01*
X0116066Y0026891D01*
X0116590Y0027415D01*
X0116731Y0027170D01*
X0117010Y0026891D01*
X0117352Y0026694D01*
X0117734Y0026591D01*
X0119612Y0026591D01*
X0119612Y0029576D01*
X0120581Y0029576D01*
X0120581Y0030544D01*
X0123762Y0030544D01*
X0123762Y0032226D01*
X0123660Y0032607D01*
X0123462Y0032950D01*
X0123183Y0033229D01*
X0122841Y0033426D01*
X0122459Y0033528D01*
X0120581Y0033528D01*
X0120581Y0030544D01*
X0119612Y0030544D01*
X0119612Y0033528D01*
X0117734Y0033528D01*
X0117352Y0033426D01*
X0117010Y0033229D01*
X0116731Y0032950D01*
X0116590Y0032705D01*
X0116066Y0033228D01*
X0110800Y0033228D01*
X0110800Y0036318D01*
X0110970Y0036148D01*
X0111608Y0035510D01*
X0117052Y0035510D01*
X0117749Y0034813D01*
X0118723Y0034410D01*
X0119777Y0034410D01*
X0120751Y0034813D01*
X0121497Y0035559D01*
X0121900Y0036533D01*
X0121900Y0037587D01*
X0121497Y0038561D01*
X0120751Y0039307D01*
X0119777Y0039710D01*
X0118723Y0039710D01*
X0117749Y0039307D01*
X0117052Y0038610D01*
X0115717Y0038610D01*
X0115962Y0038854D01*
X0115962Y0042604D01*
X0115259Y0043307D01*
X0103241Y0043307D01*
X0102538Y0042604D01*
X0102538Y0038854D01*
X0102945Y0038447D01*
X0101278Y0036780D01*
X0100800Y0037258D01*
X0100800Y0047702D01*
X0099892Y0048610D01*
X0098546Y0049956D01*
X0097918Y0049956D01*
X0097918Y0050510D01*
X0102538Y0050510D01*
X0102538Y0047516D01*
X0103241Y0046813D01*
X0115259Y0046813D01*
X0115962Y0047516D01*
X0115962Y0047841D01*
X0119200Y0047841D01*
X0119200Y0041918D01*
X0120108Y0041010D01*
X0120954Y0040164D01*
X0121081Y0040164D01*
X0121081Y0039051D01*
X0121784Y0038348D01*
X0122700Y0038348D01*
X0122700Y0033918D01*
X0127700Y0028918D01*
X0127700Y0014722D01*
X0126474Y0014214D01*
X0125096Y0012836D01*
X0124350Y0011035D01*
X0124350Y0009085D01*
X0125096Y0007284D01*
X0125720Y0006660D01*
X0122780Y0006660D01*
X0123404Y0007284D01*
X0124150Y0009085D01*
X0124150Y0011035D01*
X0123404Y0012836D01*
X0122026Y0014214D01*
X0120225Y0014960D01*
X0118275Y0014960D01*
X0116474Y0014214D01*
X0115096Y0012836D01*
X0114350Y0011035D01*
X0114350Y0009085D01*
X0115096Y0007284D01*
X0115720Y0006660D01*
X0112780Y0006660D01*
X0113404Y0007284D01*
X0114150Y0009085D01*
X0114150Y0011035D01*
X0113404Y0012836D01*
X0112026Y0014214D01*
X0110225Y0014960D01*
X0108275Y0014960D01*
X0106474Y0014214D01*
X0105096Y0012836D01*
X0104350Y0011035D01*
X0104350Y0009085D01*
X0105096Y0007284D01*
X0105720Y0006660D01*
X0102780Y0006660D01*
X0103404Y0007284D01*
X0104150Y0009085D01*
X0104150Y0011035D01*
X0103404Y0012836D01*
X0102026Y0014214D01*
X0101015Y0014633D01*
X0102193Y0014047D02*
X0106307Y0014047D01*
X0105308Y0013048D02*
X0103192Y0013048D01*
X0103730Y0012050D02*
X0104770Y0012050D01*
X0104357Y0011051D02*
X0104143Y0011051D01*
X0104150Y0010053D02*
X0104350Y0010053D01*
X0104363Y0009054D02*
X0104137Y0009054D01*
X0103723Y0008056D02*
X0104777Y0008056D01*
X0105323Y0007057D02*
X0103177Y0007057D01*
X0102426Y0016044D02*
X0127700Y0016044D01*
X0127700Y0017042D02*
X0103424Y0017042D01*
X0104423Y0018041D02*
X0112522Y0018041D01*
X0115978Y0018041D02*
X0127700Y0018041D01*
X0127700Y0019039D02*
X0116695Y0019039D01*
X0116900Y0020038D02*
X0127700Y0020038D01*
X0127700Y0021036D02*
X0116714Y0021036D01*
X0116023Y0022035D02*
X0127700Y0022035D01*
X0127700Y0023033D02*
X0115800Y0023033D01*
X0115800Y0024032D02*
X0127700Y0024032D01*
X0127700Y0025030D02*
X0115800Y0025030D01*
X0115473Y0026029D02*
X0127700Y0026029D01*
X0127700Y0027027D02*
X0123319Y0027027D01*
X0123183Y0026891D02*
X0123462Y0027170D01*
X0123660Y0027512D01*
X0123762Y0027894D01*
X0123762Y0029576D01*
X0120581Y0029576D01*
X0120581Y0026591D01*
X0122459Y0026591D01*
X0122841Y0026694D01*
X0123183Y0026891D01*
X0123762Y0028026D02*
X0127700Y0028026D01*
X0127594Y0029024D02*
X0123762Y0029024D01*
X0123762Y0031021D02*
X0125597Y0031021D01*
X0126595Y0030023D02*
X0120581Y0030023D01*
X0120581Y0031021D02*
X0119612Y0031021D01*
X0119612Y0032020D02*
X0120581Y0032020D01*
X0120581Y0033018D02*
X0119612Y0033018D01*
X0120953Y0035015D02*
X0122700Y0035015D01*
X0122700Y0034017D02*
X0110800Y0034017D01*
X0110800Y0035015D02*
X0117547Y0035015D01*
X0116800Y0033018D02*
X0116276Y0033018D01*
X0119612Y0029024D02*
X0120581Y0029024D01*
X0120581Y0028026D02*
X0119612Y0028026D01*
X0119612Y0027027D02*
X0120581Y0027027D01*
X0116874Y0027027D02*
X0116202Y0027027D01*
X0123762Y0032020D02*
X0124598Y0032020D01*
X0123600Y0033018D02*
X0123393Y0033018D01*
X0125987Y0035015D02*
X0142650Y0035015D01*
X0142650Y0034017D02*
X0126985Y0034017D01*
X0127984Y0033018D02*
X0142650Y0033018D01*
X0142650Y0032020D02*
X0128982Y0032020D01*
X0129981Y0031021D02*
X0142650Y0031021D01*
X0142650Y0030023D02*
X0130800Y0030023D01*
X0130800Y0029024D02*
X0142650Y0029024D01*
X0142650Y0028026D02*
X0130800Y0028026D01*
X0130800Y0027027D02*
X0142650Y0027027D01*
X0142650Y0026029D02*
X0130800Y0026029D01*
X0130800Y0025030D02*
X0142650Y0025030D01*
X0142650Y0024032D02*
X0130800Y0024032D01*
X0130800Y0023033D02*
X0142650Y0023033D01*
X0142650Y0022035D02*
X0130800Y0022035D01*
X0130800Y0021036D02*
X0142650Y0021036D01*
X0142650Y0020038D02*
X0130800Y0020038D01*
X0126307Y0014047D02*
X0122193Y0014047D01*
X0123192Y0013048D02*
X0125308Y0013048D01*
X0124770Y0012050D02*
X0123730Y0012050D01*
X0124143Y0011051D02*
X0124357Y0011051D01*
X0124350Y0010053D02*
X0124150Y0010053D01*
X0124137Y0009054D02*
X0124363Y0009054D01*
X0124777Y0008056D02*
X0123723Y0008056D01*
X0123177Y0007057D02*
X0125323Y0007057D01*
X0116307Y0014047D02*
X0112193Y0014047D01*
X0113192Y0013048D02*
X0115308Y0013048D01*
X0114770Y0012050D02*
X0113730Y0012050D01*
X0114143Y0011051D02*
X0114357Y0011051D01*
X0114350Y0010053D02*
X0114150Y0010053D01*
X0114137Y0009054D02*
X0114363Y0009054D01*
X0114777Y0008056D02*
X0113723Y0008056D01*
X0113177Y0007057D02*
X0115323Y0007057D01*
X0138750Y0011051D02*
X0139750Y0011051D01*
X0139750Y0012050D02*
X0138750Y0012050D01*
X0138750Y0013048D02*
X0139750Y0013048D01*
X0139750Y0014047D02*
X0138750Y0014047D01*
X0135225Y0035160D02*
X0133275Y0035160D01*
X0131474Y0035906D01*
X0130096Y0037284D01*
X0129350Y0039085D01*
X0129350Y0041035D01*
X0130096Y0042836D01*
X0131474Y0044214D01*
X0133275Y0044960D01*
X0135225Y0044960D01*
X0137026Y0044214D01*
X0138404Y0042836D01*
X0139150Y0041035D01*
X0139150Y0039085D01*
X0138404Y0037284D01*
X0137026Y0035906D01*
X0135225Y0035160D01*
X0137133Y0036014D02*
X0142650Y0036014D01*
X0142650Y0037012D02*
X0138132Y0037012D01*
X0138705Y0038011D02*
X0142650Y0038011D01*
X0142650Y0039009D02*
X0139119Y0039009D01*
X0139150Y0040008D02*
X0142650Y0040008D01*
X0142650Y0041006D02*
X0139150Y0041006D01*
X0138748Y0042005D02*
X0142650Y0042005D01*
X0142650Y0043003D02*
X0138236Y0043003D01*
X0137238Y0044002D02*
X0142650Y0044002D01*
X0142650Y0045000D02*
X0126794Y0045000D01*
X0127418Y0044002D02*
X0131262Y0044002D01*
X0130264Y0043003D02*
X0127418Y0043003D01*
X0127418Y0042005D02*
X0129752Y0042005D01*
X0129350Y0041006D02*
X0127418Y0041006D01*
X0127418Y0040008D02*
X0129350Y0040008D01*
X0129381Y0039009D02*
X0127377Y0039009D01*
X0125800Y0038011D02*
X0129795Y0038011D01*
X0130368Y0037012D02*
X0125800Y0037012D01*
X0125800Y0036014D02*
X0131366Y0036014D01*
X0122700Y0036014D02*
X0121685Y0036014D01*
X0121900Y0037012D02*
X0122700Y0037012D01*
X0122700Y0038011D02*
X0121724Y0038011D01*
X0121123Y0039009D02*
X0121048Y0039009D01*
X0121081Y0040008D02*
X0115962Y0040008D01*
X0115962Y0041006D02*
X0120112Y0041006D01*
X0119200Y0042005D02*
X0115962Y0042005D01*
X0115563Y0043003D02*
X0119200Y0043003D01*
X0119200Y0044002D02*
X0100800Y0044002D01*
X0100800Y0045000D02*
X0119200Y0045000D01*
X0119200Y0045999D02*
X0100800Y0045999D01*
X0100800Y0046997D02*
X0103056Y0046997D01*
X0102538Y0047996D02*
X0100506Y0047996D01*
X0099508Y0048994D02*
X0102538Y0048994D01*
X0102538Y0049993D02*
X0097918Y0049993D01*
X0096609Y0055610D02*
X0093725Y0055610D01*
X0093900Y0056033D01*
X0093900Y0057018D01*
X0099392Y0062510D01*
X0109108Y0062510D01*
X0110889Y0060728D01*
X0109934Y0060728D01*
X0109410Y0060205D01*
X0109269Y0060450D01*
X0108990Y0060729D01*
X0108648Y0060926D01*
X0108266Y0061028D01*
X0106388Y0061028D01*
X0106388Y0058044D01*
X0105419Y0058044D01*
X0105419Y0057076D01*
X0102238Y0057076D01*
X0102238Y0055610D01*
X0101891Y0055610D01*
X0101497Y0056561D01*
X0100751Y0057307D01*
X0099777Y0057710D01*
X0098723Y0057710D01*
X0097749Y0057307D01*
X0097003Y0056561D01*
X0096609Y0055610D01*
X0096764Y0055984D02*
X0093880Y0055984D01*
X0093900Y0056983D02*
X0097425Y0056983D01*
X0095862Y0058980D02*
X0102238Y0058980D01*
X0102238Y0059726D02*
X0102238Y0058044D01*
X0105419Y0058044D01*
X0105419Y0061028D01*
X0103541Y0061028D01*
X0103159Y0060926D01*
X0102817Y0060729D01*
X0102538Y0060450D01*
X0102340Y0060107D01*
X0102238Y0059726D01*
X0102306Y0059978D02*
X0096860Y0059978D01*
X0097859Y0060977D02*
X0103347Y0060977D01*
X0105419Y0060977D02*
X0106388Y0060977D01*
X0106388Y0059978D02*
X0105419Y0059978D01*
X0105419Y0058980D02*
X0106388Y0058980D01*
X0105419Y0057981D02*
X0094863Y0057981D01*
X0092476Y0059978D02*
X0091593Y0059978D01*
X0091173Y0059251D02*
X0091173Y0059251D01*
X0091173Y0059251D01*
X0092169Y0060977D02*
X0093475Y0060977D01*
X0092742Y0061969D02*
X0092742Y0061969D01*
X0092743Y0061975D02*
X0094473Y0061975D01*
X0095472Y0062974D02*
X0092919Y0062974D01*
X0093095Y0063972D02*
X0096470Y0063972D01*
X0097469Y0064971D02*
X0093272Y0064971D01*
X0093287Y0065060D02*
X0093287Y0065060D01*
X0093127Y0065969D02*
X0125373Y0065969D01*
X0125213Y0065060D02*
X0125213Y0065060D01*
X0125228Y0064971D02*
X0111031Y0064971D01*
X0112030Y0063972D02*
X0125405Y0063972D01*
X0125581Y0062974D02*
X0113028Y0062974D01*
X0114027Y0061975D02*
X0125757Y0061975D01*
X0125758Y0061969D02*
X0125758Y0061969D01*
X0126331Y0060977D02*
X0114146Y0060977D01*
X0115962Y0059978D02*
X0126907Y0059978D01*
X0127650Y0058980D02*
X0118522Y0058980D01*
X0119521Y0057981D02*
X0128840Y0057981D01*
X0129731Y0057233D02*
X0129731Y0057233D01*
X0130421Y0056983D02*
X0120519Y0056983D01*
X0121518Y0055984D02*
X0142650Y0055984D01*
X0142650Y0054986D02*
X0122300Y0054986D01*
X0122300Y0053987D02*
X0131247Y0053987D01*
X0130249Y0052989D02*
X0122300Y0052989D01*
X0122300Y0051990D02*
X0129746Y0051990D01*
X0127990Y0050992D02*
X0127418Y0050992D01*
X0129378Y0047996D02*
X0129801Y0047996D01*
X0130383Y0046997D02*
X0128379Y0046997D01*
X0127418Y0045999D02*
X0131381Y0045999D01*
X0137119Y0045999D02*
X0142650Y0045999D01*
X0142650Y0046997D02*
X0138117Y0046997D01*
X0138699Y0047996D02*
X0142650Y0047996D01*
X0142650Y0048994D02*
X0139112Y0048994D01*
X0139150Y0049993D02*
X0142650Y0049993D01*
X0142650Y0050992D02*
X0139150Y0050992D01*
X0138754Y0051990D02*
X0142650Y0051990D01*
X0142650Y0052989D02*
X0138251Y0052989D01*
X0137253Y0053987D02*
X0142650Y0053987D01*
X0142650Y0056983D02*
X0138079Y0056983D01*
X0139660Y0057981D02*
X0142650Y0057981D01*
X0142650Y0058980D02*
X0140850Y0058980D01*
X0141173Y0059251D02*
X0141173Y0059251D01*
X0141593Y0059978D02*
X0142650Y0059978D01*
X0142650Y0060977D02*
X0142169Y0060977D01*
X0129930Y0072959D02*
X0088570Y0072959D01*
X0089873Y0071960D02*
X0128627Y0071960D01*
X0129731Y0072887D02*
X0129731Y0072887D01*
X0127438Y0070962D02*
X0091062Y0070962D01*
X0091696Y0069963D02*
X0126804Y0069963D01*
X0127327Y0070869D02*
X0127327Y0070869D01*
X0127327Y0070869D01*
X0126228Y0068965D02*
X0092272Y0068965D01*
X0092742Y0068151D02*
X0092742Y0068151D01*
X0092775Y0067966D02*
X0125725Y0067966D01*
X0125549Y0066968D02*
X0092951Y0066968D01*
X0098857Y0061975D02*
X0109643Y0061975D01*
X0110641Y0060977D02*
X0108460Y0060977D01*
X0102238Y0056983D02*
X0101075Y0056983D01*
X0101736Y0055984D02*
X0102238Y0055984D01*
X0102937Y0043003D02*
X0100800Y0043003D01*
X0100800Y0042005D02*
X0102538Y0042005D01*
X0102538Y0041006D02*
X0100800Y0041006D01*
X0100800Y0040008D02*
X0102538Y0040008D01*
X0102538Y0039009D02*
X0100800Y0039009D01*
X0100800Y0038011D02*
X0102509Y0038011D01*
X0101510Y0037012D02*
X0101045Y0037012D01*
X0110800Y0036014D02*
X0111104Y0036014D01*
X0115962Y0039009D02*
X0117452Y0039009D01*
X0119200Y0046997D02*
X0115444Y0046997D01*
X0115720Y0078660D02*
X0112780Y0078660D01*
X0113404Y0079284D01*
X0114150Y0081085D01*
X0114150Y0083035D01*
X0113404Y0084836D01*
X0112026Y0086214D01*
X0110225Y0086960D01*
X0108275Y0086960D01*
X0106474Y0086214D01*
X0105096Y0084836D01*
X0104350Y0083035D01*
X0104350Y0081085D01*
X0105096Y0079284D01*
X0105720Y0078660D01*
X0102780Y0078660D01*
X0103404Y0079284D01*
X0104150Y0081085D01*
X0104150Y0083035D01*
X0103404Y0084836D01*
X0102026Y0086214D01*
X0101015Y0086633D01*
X0104892Y0090510D01*
X0112052Y0090510D01*
X0112749Y0089813D01*
X0113723Y0089410D01*
X0114777Y0089410D01*
X0115751Y0089813D01*
X0116497Y0090559D01*
X0116900Y0091533D01*
X0116900Y0092587D01*
X0116497Y0093561D01*
X0115800Y0094258D01*
X0115800Y0097702D01*
X0114954Y0098548D01*
X0114954Y0098891D01*
X0116066Y0098891D01*
X0116590Y0099415D01*
X0116731Y0099170D01*
X0117010Y0098891D01*
X0117352Y0098694D01*
X0117734Y0098591D01*
X0119612Y0098591D01*
X0119612Y0101576D01*
X0120581Y0101576D01*
X0120581Y0102544D01*
X0123762Y0102544D01*
X0123762Y0104226D01*
X0123660Y0104607D01*
X0123462Y0104950D01*
X0123183Y0105229D01*
X0122841Y0105426D01*
X0122459Y0105528D01*
X0120581Y0105528D01*
X0120581Y0102544D01*
X0119612Y0102544D01*
X0119612Y0105528D01*
X0117734Y0105528D01*
X0117352Y0105426D01*
X0117010Y0105229D01*
X0116731Y0104950D01*
X0116590Y0104705D01*
X0116066Y0105228D01*
X0110800Y0105228D01*
X0110800Y0108318D01*
X0110970Y0108148D01*
X0111608Y0107510D01*
X0117052Y0107510D01*
X0117749Y0106813D01*
X0118723Y0106410D01*
X0119777Y0106410D01*
X0120751Y0106813D01*
X0121497Y0107559D01*
X0121900Y0108533D01*
X0121900Y0109587D01*
X0121497Y0110561D01*
X0120751Y0111307D01*
X0119777Y0111710D01*
X0118723Y0111710D01*
X0117749Y0111307D01*
X0117052Y0110610D01*
X0115717Y0110610D01*
X0115962Y0110854D01*
X0115962Y0114604D01*
X0115259Y0115307D01*
X0103241Y0115307D01*
X0102538Y0114604D01*
X0102538Y0110854D01*
X0102945Y0110447D01*
X0101278Y0108780D01*
X0100800Y0109258D01*
X0100800Y0119702D01*
X0099892Y0120610D01*
X0098546Y0121956D01*
X0097918Y0121956D01*
X0097918Y0122510D01*
X0102538Y0122510D01*
X0102538Y0119516D01*
X0103241Y0118813D01*
X0115259Y0118813D01*
X0115962Y0119516D01*
X0115962Y0119841D01*
X0119200Y0119841D01*
X0119200Y0113918D01*
X0120108Y0113010D01*
X0120954Y0112164D01*
X0121081Y0112164D01*
X0121081Y0111051D01*
X0121784Y0110348D01*
X0122700Y0110348D01*
X0122700Y0105918D01*
X0123608Y0105010D01*
X0127700Y0100918D01*
X0127700Y0086722D01*
X0126474Y0086214D01*
X0125096Y0084836D01*
X0124350Y0083035D01*
X0124350Y0081085D01*
X0125096Y0079284D01*
X0125720Y0078660D01*
X0122780Y0078660D01*
X0123404Y0079284D01*
X0124150Y0081085D01*
X0124150Y0083035D01*
X0123404Y0084836D01*
X0122026Y0086214D01*
X0120225Y0086960D01*
X0118275Y0086960D01*
X0116474Y0086214D01*
X0115096Y0084836D01*
X0114350Y0083035D01*
X0114350Y0081085D01*
X0115096Y0079284D01*
X0115720Y0078660D01*
X0115431Y0078950D02*
X0113069Y0078950D01*
X0113679Y0079948D02*
X0114821Y0079948D01*
X0114407Y0080947D02*
X0114093Y0080947D01*
X0114150Y0081945D02*
X0114350Y0081945D01*
X0114350Y0082944D02*
X0114150Y0082944D01*
X0113774Y0083942D02*
X0114726Y0083942D01*
X0115201Y0084941D02*
X0113299Y0084941D01*
X0112300Y0085939D02*
X0116200Y0085939D01*
X0118222Y0086938D02*
X0110278Y0086938D01*
X0108222Y0086938D02*
X0101320Y0086938D01*
X0102300Y0085939D02*
X0106200Y0085939D01*
X0105201Y0084941D02*
X0103299Y0084941D01*
X0103774Y0083942D02*
X0104726Y0083942D01*
X0104350Y0082944D02*
X0104150Y0082944D01*
X0104150Y0081945D02*
X0104350Y0081945D01*
X0104407Y0080947D02*
X0104093Y0080947D01*
X0103679Y0079948D02*
X0104821Y0079948D01*
X0105431Y0078950D02*
X0103069Y0078950D01*
X0102318Y0087936D02*
X0127700Y0087936D01*
X0127700Y0086938D02*
X0120278Y0086938D01*
X0122300Y0085939D02*
X0126200Y0085939D01*
X0125201Y0084941D02*
X0123299Y0084941D01*
X0123774Y0083942D02*
X0124726Y0083942D01*
X0124350Y0082944D02*
X0124150Y0082944D01*
X0124150Y0081945D02*
X0124350Y0081945D01*
X0124407Y0080947D02*
X0124093Y0080947D01*
X0123679Y0079948D02*
X0124821Y0079948D01*
X0125431Y0078950D02*
X0123069Y0078950D01*
X0130800Y0086722D02*
X0130800Y0102202D01*
X0125800Y0107202D01*
X0125800Y0110348D01*
X0126716Y0110348D01*
X0127418Y0111051D01*
X0127418Y0116376D01*
X0126734Y0117060D01*
X0127418Y0117744D01*
X0127418Y0118856D01*
X0128238Y0118856D01*
X0129677Y0120295D01*
X0130096Y0119284D01*
X0131474Y0117906D01*
X0133275Y0117160D01*
X0135225Y0117160D01*
X0137026Y0117906D01*
X0138404Y0119284D01*
X0139150Y0121085D01*
X0139150Y0123035D01*
X0138404Y0124836D01*
X0137026Y0126214D01*
X0135225Y0126960D01*
X0133275Y0126960D01*
X0131474Y0126214D01*
X0130096Y0124836D01*
X0129588Y0123610D01*
X0128608Y0123610D01*
X0127700Y0122702D01*
X0127418Y0122420D01*
X0127418Y0123069D01*
X0126716Y0123772D01*
X0122300Y0123772D01*
X0122300Y0127202D01*
X0119300Y0130202D01*
X0118392Y0131110D01*
X0115962Y0131110D01*
X0115962Y0132026D01*
X0115259Y0132728D01*
X0114146Y0132728D01*
X0114146Y0133856D01*
X0113238Y0134764D01*
X0110392Y0137610D01*
X0109108Y0137610D01*
X0098108Y0137610D01*
X0097200Y0136702D01*
X0091708Y0131210D01*
X0091124Y0131210D01*
X0091173Y0131251D01*
X0092742Y0133969D01*
X0093287Y0137060D01*
X0092742Y0140151D01*
X0091173Y0142869D01*
X0088769Y0144886D01*
X0088769Y0144887D01*
X0087193Y0145460D01*
X0131307Y0145460D01*
X0129731Y0144887D01*
X0127327Y0142869D01*
X0125758Y0140151D01*
X0125758Y0140151D01*
X0125213Y0137060D01*
X0125758Y0133969D01*
X0127327Y0131251D01*
X0127327Y0131251D01*
X0129731Y0129233D01*
X0132681Y0128160D01*
X0135819Y0128160D01*
X0138769Y0129233D01*
X0141173Y0131251D01*
X0142650Y0133809D01*
X0142650Y0086014D01*
X0142638Y0086026D01*
X0141975Y0086507D01*
X0141246Y0086879D01*
X0140468Y0087132D01*
X0139750Y0087246D01*
X0139750Y0082560D01*
X0138750Y0082560D01*
X0138750Y0087246D01*
X0138032Y0087132D01*
X0137418Y0086932D01*
X0137418Y0087690D01*
X0136936Y0088855D01*
X0136045Y0089746D01*
X0134880Y0090228D01*
X0133620Y0090228D01*
X0132455Y0089746D01*
X0131564Y0088855D01*
X0131081Y0087690D01*
X0131081Y0086605D01*
X0130800Y0086722D01*
X0130800Y0086938D02*
X0131081Y0086938D01*
X0131183Y0087936D02*
X0130800Y0087936D01*
X0130800Y0088935D02*
X0131644Y0088935D01*
X0130800Y0089933D02*
X0132907Y0089933D01*
X0130800Y0090932D02*
X0142650Y0090932D01*
X0142650Y0091930D02*
X0130800Y0091930D01*
X0130800Y0092929D02*
X0142650Y0092929D01*
X0142650Y0093927D02*
X0130800Y0093927D01*
X0130800Y0094926D02*
X0142650Y0094926D01*
X0142650Y0095925D02*
X0130800Y0095925D01*
X0130800Y0096923D02*
X0142650Y0096923D01*
X0142650Y0097922D02*
X0130800Y0097922D01*
X0130800Y0098920D02*
X0142650Y0098920D01*
X0142650Y0099919D02*
X0130800Y0099919D01*
X0130800Y0100917D02*
X0142650Y0100917D01*
X0142650Y0101916D02*
X0130800Y0101916D01*
X0130088Y0102914D02*
X0142650Y0102914D01*
X0142650Y0103913D02*
X0129089Y0103913D01*
X0128091Y0104911D02*
X0142650Y0104911D01*
X0142650Y0105910D02*
X0127092Y0105910D01*
X0126094Y0106908D02*
X0142650Y0106908D01*
X0142650Y0107907D02*
X0137026Y0107907D01*
X0137026Y0107906D02*
X0138404Y0109284D01*
X0139150Y0111085D01*
X0139150Y0113035D01*
X0138404Y0114836D01*
X0137026Y0116214D01*
X0135225Y0116960D01*
X0133275Y0116960D01*
X0131474Y0116214D01*
X0130096Y0114836D01*
X0129350Y0113035D01*
X0129350Y0111085D01*
X0130096Y0109284D01*
X0131474Y0107906D01*
X0133275Y0107160D01*
X0135225Y0107160D01*
X0137026Y0107906D01*
X0138025Y0108905D02*
X0142650Y0108905D01*
X0142650Y0109904D02*
X0138661Y0109904D01*
X0139074Y0110902D02*
X0142650Y0110902D01*
X0142650Y0111901D02*
X0139150Y0111901D01*
X0139150Y0112899D02*
X0142650Y0112899D01*
X0142650Y0113898D02*
X0138792Y0113898D01*
X0138343Y0114896D02*
X0142650Y0114896D01*
X0142650Y0115895D02*
X0137345Y0115895D01*
X0136991Y0117892D02*
X0142650Y0117892D01*
X0142650Y0118890D02*
X0138010Y0118890D01*
X0138654Y0119889D02*
X0142650Y0119889D01*
X0142650Y0120887D02*
X0139068Y0120887D01*
X0139150Y0121886D02*
X0142650Y0121886D01*
X0142650Y0122884D02*
X0139150Y0122884D01*
X0138799Y0123883D02*
X0142650Y0123883D01*
X0142650Y0124881D02*
X0138358Y0124881D01*
X0137360Y0125880D02*
X0142650Y0125880D01*
X0142650Y0126878D02*
X0135422Y0126878D01*
X0133078Y0126878D02*
X0122300Y0126878D01*
X0122300Y0125880D02*
X0131140Y0125880D01*
X0130142Y0124881D02*
X0122300Y0124881D01*
X0122300Y0123883D02*
X0129701Y0123883D01*
X0127882Y0122884D02*
X0127418Y0122884D01*
X0129271Y0119889D02*
X0129846Y0119889D01*
X0130490Y0118890D02*
X0128272Y0118890D01*
X0127418Y0117892D02*
X0131509Y0117892D01*
X0133114Y0116893D02*
X0126901Y0116893D01*
X0127418Y0115895D02*
X0131155Y0115895D01*
X0130157Y0114896D02*
X0127418Y0114896D01*
X0127418Y0113898D02*
X0129708Y0113898D01*
X0129350Y0112899D02*
X0127418Y0112899D01*
X0127418Y0111901D02*
X0129350Y0111901D01*
X0129426Y0110902D02*
X0127270Y0110902D01*
X0125800Y0109904D02*
X0129839Y0109904D01*
X0130475Y0108905D02*
X0125800Y0108905D01*
X0125800Y0107907D02*
X0131474Y0107907D01*
X0125704Y0102914D02*
X0123762Y0102914D01*
X0123762Y0103913D02*
X0124705Y0103913D01*
X0123707Y0104911D02*
X0123484Y0104911D01*
X0122708Y0105910D02*
X0110800Y0105910D01*
X0110800Y0106908D02*
X0117654Y0106908D01*
X0116709Y0104911D02*
X0116383Y0104911D01*
X0119612Y0104911D02*
X0120581Y0104911D01*
X0120581Y0103913D02*
X0119612Y0103913D01*
X0119612Y0102914D02*
X0120581Y0102914D01*
X0120581Y0101916D02*
X0126702Y0101916D01*
X0127700Y0100917D02*
X0123762Y0100917D01*
X0123762Y0101576D02*
X0120581Y0101576D01*
X0120581Y0098591D01*
X0122459Y0098591D01*
X0122841Y0098694D01*
X0123183Y0098891D01*
X0123462Y0099170D01*
X0123660Y0099512D01*
X0123762Y0099894D01*
X0123762Y0101576D01*
X0123762Y0099919D02*
X0127700Y0099919D01*
X0127700Y0098920D02*
X0123212Y0098920D01*
X0120581Y0098920D02*
X0119612Y0098920D01*
X0119612Y0099919D02*
X0120581Y0099919D01*
X0120581Y0100917D02*
X0119612Y0100917D01*
X0116981Y0098920D02*
X0116095Y0098920D01*
X0115580Y0097922D02*
X0127700Y0097922D01*
X0127700Y0096923D02*
X0115800Y0096923D01*
X0115800Y0095925D02*
X0127700Y0095925D01*
X0127700Y0094926D02*
X0115800Y0094926D01*
X0116130Y0093927D02*
X0127700Y0093927D01*
X0127700Y0092929D02*
X0116758Y0092929D01*
X0116900Y0091930D02*
X0127700Y0091930D01*
X0127700Y0090932D02*
X0116651Y0090932D01*
X0115871Y0089933D02*
X0127700Y0089933D01*
X0127700Y0088935D02*
X0103317Y0088935D01*
X0104315Y0089933D02*
X0112629Y0089933D01*
X0111211Y0107907D02*
X0110800Y0107907D01*
X0115962Y0110902D02*
X0117345Y0110902D01*
X0115962Y0111901D02*
X0121081Y0111901D01*
X0121155Y0110902D02*
X0121230Y0110902D01*
X0121769Y0109904D02*
X0122700Y0109904D01*
X0122700Y0108905D02*
X0121900Y0108905D01*
X0121641Y0107907D02*
X0122700Y0107907D01*
X0122700Y0106908D02*
X0120846Y0106908D01*
X0120219Y0112899D02*
X0115962Y0112899D01*
X0115962Y0113898D02*
X0119220Y0113898D01*
X0119200Y0114896D02*
X0115670Y0114896D01*
X0119200Y0115895D02*
X0100800Y0115895D01*
X0100800Y0116893D02*
X0119200Y0116893D01*
X0119200Y0117892D02*
X0100800Y0117892D01*
X0100800Y0118890D02*
X0103164Y0118890D01*
X0102538Y0119889D02*
X0100613Y0119889D01*
X0099615Y0120887D02*
X0102538Y0120887D01*
X0102538Y0121886D02*
X0098616Y0121886D01*
X0096609Y0127610D02*
X0093725Y0127610D01*
X0093900Y0128033D01*
X0093900Y0129018D01*
X0099392Y0134510D01*
X0109108Y0134510D01*
X0110889Y0132728D01*
X0109934Y0132728D01*
X0109410Y0132205D01*
X0109269Y0132450D01*
X0108990Y0132729D01*
X0108648Y0132926D01*
X0108266Y0133028D01*
X0106388Y0133028D01*
X0106388Y0130044D01*
X0105419Y0130044D01*
X0105419Y0129076D01*
X0102238Y0129076D01*
X0102238Y0127610D01*
X0101891Y0127610D01*
X0101497Y0128561D01*
X0100751Y0129307D01*
X0099777Y0129710D01*
X0098723Y0129710D01*
X0097749Y0129307D01*
X0097003Y0128561D01*
X0096609Y0127610D01*
X0096720Y0127877D02*
X0093835Y0127877D01*
X0093900Y0128875D02*
X0097318Y0128875D01*
X0095754Y0130872D02*
X0102238Y0130872D01*
X0102238Y0130044D02*
X0102238Y0131726D01*
X0102340Y0132107D01*
X0102538Y0132450D01*
X0102817Y0132729D01*
X0103159Y0132926D01*
X0103541Y0133028D01*
X0105419Y0133028D01*
X0105419Y0130044D01*
X0102238Y0130044D01*
X0102238Y0128875D02*
X0101182Y0128875D01*
X0101780Y0127877D02*
X0102238Y0127877D01*
X0105419Y0129874D02*
X0094756Y0129874D01*
X0096753Y0131871D02*
X0102277Y0131871D01*
X0103061Y0132869D02*
X0097751Y0132869D01*
X0098750Y0133868D02*
X0109750Y0133868D01*
X0110749Y0132869D02*
X0108746Y0132869D01*
X0106388Y0132869D02*
X0105419Y0132869D01*
X0105419Y0131871D02*
X0106388Y0131871D01*
X0106388Y0130872D02*
X0105419Y0130872D01*
X0111139Y0136863D02*
X0125247Y0136863D01*
X0125213Y0137060D02*
X0125213Y0137060D01*
X0125354Y0137862D02*
X0093146Y0137862D01*
X0093287Y0137060D02*
X0093287Y0137060D01*
X0093253Y0136863D02*
X0097361Y0136863D01*
X0097200Y0136702D02*
X0097200Y0136702D01*
X0096363Y0135865D02*
X0093077Y0135865D01*
X0092901Y0134866D02*
X0095364Y0134866D01*
X0094366Y0133868D02*
X0092684Y0133868D01*
X0092742Y0133969D02*
X0092742Y0133969D01*
X0093367Y0132869D02*
X0092107Y0132869D01*
X0092369Y0131871D02*
X0091531Y0131871D01*
X0091173Y0131251D02*
X0091173Y0131251D01*
X0091173Y0131251D01*
X0092970Y0138861D02*
X0125530Y0138861D01*
X0125706Y0139859D02*
X0092794Y0139859D01*
X0092742Y0140151D02*
X0092742Y0140151D01*
X0092334Y0140858D02*
X0126166Y0140858D01*
X0126742Y0141856D02*
X0091758Y0141856D01*
X0091181Y0142855D02*
X0127319Y0142855D01*
X0127327Y0142869D02*
X0127327Y0142869D01*
X0127327Y0142869D01*
X0128500Y0143853D02*
X0090000Y0143853D01*
X0091173Y0142869D02*
X0091173Y0142869D01*
X0088810Y0144852D02*
X0129690Y0144852D01*
X0129731Y0144887D02*
X0129731Y0144887D01*
X0125720Y0150660D02*
X0122780Y0150660D01*
X0123404Y0151284D01*
X0124150Y0153085D01*
X0124150Y0155035D01*
X0123404Y0156836D01*
X0122026Y0158214D01*
X0120225Y0158960D01*
X0118275Y0158960D01*
X0116474Y0158214D01*
X0115096Y0156836D01*
X0114350Y0155035D01*
X0114350Y0153085D01*
X0115096Y0151284D01*
X0115720Y0150660D01*
X0112780Y0150660D01*
X0113404Y0151284D01*
X0114150Y0153085D01*
X0114150Y0155035D01*
X0113404Y0156836D01*
X0112026Y0158214D01*
X0110225Y0158960D01*
X0108275Y0158960D01*
X0106474Y0158214D01*
X0105096Y0156836D01*
X0104350Y0155035D01*
X0104350Y0153085D01*
X0105096Y0151284D01*
X0105720Y0150660D01*
X0102780Y0150660D01*
X0103404Y0151284D01*
X0104150Y0153085D01*
X0104150Y0155035D01*
X0103404Y0156836D01*
X0102026Y0158214D01*
X0101015Y0158633D01*
X0104892Y0162510D01*
X0112052Y0162510D01*
X0112749Y0161813D01*
X0113723Y0161410D01*
X0114777Y0161410D01*
X0115751Y0161813D01*
X0116497Y0162559D01*
X0116900Y0163533D01*
X0116900Y0164587D01*
X0116497Y0165561D01*
X0115800Y0166258D01*
X0115800Y0169702D01*
X0114954Y0170548D01*
X0114954Y0170891D01*
X0116066Y0170891D01*
X0116590Y0171415D01*
X0116731Y0171170D01*
X0117010Y0170891D01*
X0117352Y0170694D01*
X0117734Y0170591D01*
X0119612Y0170591D01*
X0119612Y0173576D01*
X0120581Y0173576D01*
X0120581Y0174544D01*
X0123762Y0174544D01*
X0123762Y0176226D01*
X0123660Y0176607D01*
X0123462Y0176950D01*
X0123183Y0177229D01*
X0122841Y0177426D01*
X0122459Y0177528D01*
X0120581Y0177528D01*
X0120581Y0174544D01*
X0119612Y0174544D01*
X0119612Y0177528D01*
X0117734Y0177528D01*
X0117352Y0177426D01*
X0117010Y0177229D01*
X0116731Y0176950D01*
X0116590Y0176705D01*
X0116066Y0177228D01*
X0110800Y0177228D01*
X0110800Y0180318D01*
X0110970Y0180148D01*
X0111608Y0179510D01*
X0117052Y0179510D01*
X0117749Y0178813D01*
X0118723Y0178410D01*
X0119777Y0178410D01*
X0120751Y0178813D01*
X0121497Y0179559D01*
X0121900Y0180533D01*
X0121900Y0181587D01*
X0121497Y0182561D01*
X0120751Y0183307D01*
X0119777Y0183710D01*
X0118723Y0183710D01*
X0117749Y0183307D01*
X0117052Y0182610D01*
X0115717Y0182610D01*
X0115962Y0182854D01*
X0115962Y0186604D01*
X0115259Y0187307D01*
X0103241Y0187307D01*
X0102538Y0186604D01*
X0102538Y0182854D01*
X0102945Y0182447D01*
X0101278Y0180780D01*
X0100800Y0181258D01*
X0100800Y0191702D01*
X0099892Y0192610D01*
X0098546Y0193956D01*
X0097918Y0193956D01*
X0097918Y0194510D01*
X0102538Y0194510D01*
X0102538Y0191516D01*
X0103241Y0190813D01*
X0115259Y0190813D01*
X0115962Y0191516D01*
X0115962Y0191841D01*
X0119200Y0191841D01*
X0119200Y0185918D01*
X0120954Y0184164D01*
X0121081Y0184164D01*
X0121081Y0183051D01*
X0121784Y0182348D01*
X0122700Y0182348D01*
X0122700Y0177918D01*
X0123608Y0177010D01*
X0127700Y0172918D01*
X0127700Y0158722D01*
X0126474Y0158214D01*
X0125096Y0156836D01*
X0124350Y0155035D01*
X0124350Y0153085D01*
X0125096Y0151284D01*
X0125720Y0150660D01*
X0125538Y0150843D02*
X0122962Y0150843D01*
X0123635Y0151841D02*
X0124865Y0151841D01*
X0124452Y0152840D02*
X0124048Y0152840D01*
X0124150Y0153838D02*
X0124350Y0153838D01*
X0124350Y0154837D02*
X0124150Y0154837D01*
X0123818Y0155835D02*
X0124682Y0155835D01*
X0125095Y0156834D02*
X0123405Y0156834D01*
X0122407Y0157832D02*
X0126093Y0157832D01*
X0127700Y0158831D02*
X0120537Y0158831D01*
X0117963Y0158831D02*
X0110537Y0158831D01*
X0112407Y0157832D02*
X0116093Y0157832D01*
X0115095Y0156834D02*
X0113405Y0156834D01*
X0113818Y0155835D02*
X0114682Y0155835D01*
X0114350Y0154837D02*
X0114150Y0154837D01*
X0114150Y0153838D02*
X0114350Y0153838D01*
X0114452Y0152840D02*
X0114048Y0152840D01*
X0113635Y0151841D02*
X0114865Y0151841D01*
X0115538Y0150843D02*
X0112962Y0150843D01*
X0105538Y0150843D02*
X0102962Y0150843D01*
X0103635Y0151841D02*
X0104865Y0151841D01*
X0104452Y0152840D02*
X0104048Y0152840D01*
X0104150Y0153838D02*
X0104350Y0153838D01*
X0104350Y0154837D02*
X0104150Y0154837D01*
X0103818Y0155835D02*
X0104682Y0155835D01*
X0105095Y0156834D02*
X0103405Y0156834D01*
X0102407Y0157832D02*
X0106093Y0157832D01*
X0107963Y0158831D02*
X0101213Y0158831D01*
X0102211Y0159829D02*
X0127700Y0159829D01*
X0127700Y0160828D02*
X0103210Y0160828D01*
X0104208Y0161826D02*
X0112736Y0161826D01*
X0115764Y0161826D02*
X0127700Y0161826D01*
X0127700Y0162825D02*
X0116607Y0162825D01*
X0116900Y0163823D02*
X0127700Y0163823D01*
X0127700Y0164822D02*
X0116803Y0164822D01*
X0116237Y0165820D02*
X0127700Y0165820D01*
X0127700Y0166819D02*
X0115800Y0166819D01*
X0115800Y0167817D02*
X0127700Y0167817D01*
X0127700Y0168816D02*
X0115800Y0168816D01*
X0115688Y0169814D02*
X0127700Y0169814D01*
X0127700Y0170813D02*
X0123047Y0170813D01*
X0123183Y0170891D02*
X0123462Y0171170D01*
X0123660Y0171513D01*
X0123762Y0171894D01*
X0123762Y0173576D01*
X0120581Y0173576D01*
X0120581Y0170591D01*
X0122459Y0170591D01*
X0122841Y0170694D01*
X0123183Y0170891D01*
X0123740Y0171811D02*
X0127700Y0171811D01*
X0127700Y0172810D02*
X0123762Y0172810D01*
X0123762Y0174807D02*
X0125811Y0174807D01*
X0124813Y0175805D02*
X0123762Y0175805D01*
X0123814Y0176804D02*
X0123546Y0176804D01*
X0122816Y0177802D02*
X0110800Y0177802D01*
X0110800Y0178801D02*
X0117779Y0178801D01*
X0116647Y0176804D02*
X0116490Y0176804D01*
X0119612Y0176804D02*
X0120581Y0176804D01*
X0120581Y0175805D02*
X0119612Y0175805D01*
X0119612Y0174807D02*
X0120581Y0174807D01*
X0120581Y0173808D02*
X0126810Y0173808D01*
X0129197Y0175805D02*
X0142650Y0175805D01*
X0142650Y0174807D02*
X0130195Y0174807D01*
X0130800Y0174202D02*
X0125800Y0179202D01*
X0125800Y0182348D01*
X0126716Y0182348D01*
X0127418Y0183051D01*
X0127418Y0188376D01*
X0126734Y0189060D01*
X0127418Y0189744D01*
X0127418Y0190856D01*
X0128238Y0190856D01*
X0129677Y0192295D01*
X0130096Y0191284D01*
X0131474Y0189906D01*
X0133275Y0189160D01*
X0135225Y0189160D01*
X0137026Y0189906D01*
X0138404Y0191284D01*
X0139150Y0193085D01*
X0139150Y0195035D01*
X0138404Y0196836D01*
X0137026Y0198214D01*
X0135225Y0198960D01*
X0133275Y0198960D01*
X0131474Y0198214D01*
X0130096Y0196836D01*
X0129588Y0195610D01*
X0128608Y0195610D01*
X0127700Y0194702D01*
X0127418Y0194420D01*
X0127418Y0195069D01*
X0126716Y0195772D01*
X0122300Y0195772D01*
X0122300Y0199202D01*
X0119300Y0202202D01*
X0118392Y0203110D01*
X0115962Y0203110D01*
X0115962Y0204026D01*
X0115259Y0204728D01*
X0114146Y0204728D01*
X0114146Y0205856D01*
X0113238Y0206764D01*
X0110392Y0209610D01*
X0098108Y0209610D01*
X0091708Y0203210D01*
X0091124Y0203210D01*
X0091173Y0203251D01*
X0092742Y0205969D01*
X0093287Y0209060D01*
X0092742Y0212151D01*
X0091173Y0214869D01*
X0091173Y0214869D01*
X0088769Y0216887D01*
X0088769Y0216887D01*
X0087193Y0217460D01*
X0131307Y0217460D01*
X0129731Y0216887D01*
X0127327Y0214869D01*
X0125758Y0212151D01*
X0125758Y0212151D01*
X0125213Y0209060D01*
X0125758Y0205969D01*
X0127327Y0203251D01*
X0127327Y0203251D01*
X0129731Y0201233D01*
X0132681Y0200160D01*
X0135819Y0200160D01*
X0138769Y0201233D01*
X0141173Y0203251D01*
X0142650Y0205809D01*
X0142650Y0158014D01*
X0142638Y0158026D01*
X0141975Y0158507D01*
X0141246Y0158879D01*
X0140468Y0159132D01*
X0139750Y0159246D01*
X0139750Y0154560D01*
X0138750Y0154560D01*
X0138750Y0159246D01*
X0138032Y0159132D01*
X0137418Y0158932D01*
X0137418Y0159690D01*
X0136936Y0160855D01*
X0136045Y0161746D01*
X0134880Y0162228D01*
X0133620Y0162228D01*
X0132455Y0161746D01*
X0131564Y0160855D01*
X0131081Y0159690D01*
X0131081Y0158605D01*
X0130800Y0158722D01*
X0130800Y0174202D01*
X0130800Y0173808D02*
X0142650Y0173808D01*
X0142650Y0172810D02*
X0130800Y0172810D01*
X0130800Y0171811D02*
X0142650Y0171811D01*
X0142650Y0170813D02*
X0130800Y0170813D01*
X0130800Y0169814D02*
X0142650Y0169814D01*
X0142650Y0168816D02*
X0130800Y0168816D01*
X0130800Y0167817D02*
X0142650Y0167817D01*
X0142650Y0166819D02*
X0130800Y0166819D01*
X0130800Y0165820D02*
X0142650Y0165820D01*
X0142650Y0164822D02*
X0130800Y0164822D01*
X0130800Y0163823D02*
X0142650Y0163823D01*
X0142650Y0162825D02*
X0130800Y0162825D01*
X0130800Y0161826D02*
X0132649Y0161826D01*
X0131553Y0160828D02*
X0130800Y0160828D01*
X0130800Y0159829D02*
X0131139Y0159829D01*
X0131081Y0158831D02*
X0130800Y0158831D01*
X0135851Y0161826D02*
X0142650Y0161826D01*
X0142650Y0160828D02*
X0136947Y0160828D01*
X0137361Y0159829D02*
X0142650Y0159829D01*
X0142650Y0158831D02*
X0141341Y0158831D01*
X0139750Y0158831D02*
X0138750Y0158831D01*
X0138750Y0157832D02*
X0139750Y0157832D01*
X0139750Y0156834D02*
X0138750Y0156834D01*
X0138750Y0155835D02*
X0139750Y0155835D01*
X0139750Y0154837D02*
X0138750Y0154837D01*
X0125423Y0135865D02*
X0112137Y0135865D01*
X0113136Y0134866D02*
X0125599Y0134866D01*
X0125758Y0133969D02*
X0125758Y0133969D01*
X0125816Y0133868D02*
X0114134Y0133868D01*
X0114146Y0132869D02*
X0126393Y0132869D01*
X0126969Y0131871D02*
X0115962Y0131871D01*
X0118630Y0130872D02*
X0127778Y0130872D01*
X0128968Y0129874D02*
X0119628Y0129874D01*
X0119300Y0130202D02*
X0119300Y0130202D01*
X0120627Y0128875D02*
X0130715Y0128875D01*
X0129731Y0129233D02*
X0129731Y0129233D01*
X0137785Y0128875D02*
X0142650Y0128875D01*
X0142650Y0127877D02*
X0121625Y0127877D01*
X0119200Y0118890D02*
X0115336Y0118890D01*
X0102830Y0114896D02*
X0100800Y0114896D01*
X0100800Y0113898D02*
X0102538Y0113898D01*
X0102538Y0112899D02*
X0100800Y0112899D01*
X0100800Y0111901D02*
X0102538Y0111901D01*
X0102538Y0110902D02*
X0100800Y0110902D01*
X0100800Y0109904D02*
X0102402Y0109904D01*
X0101403Y0108905D02*
X0101152Y0108905D01*
X0070650Y0108905D02*
X0066025Y0108905D01*
X0066404Y0109284D02*
X0067150Y0111085D01*
X0067150Y0113035D01*
X0066404Y0114836D01*
X0065026Y0116214D01*
X0063225Y0116960D01*
X0061275Y0116960D01*
X0059474Y0116214D01*
X0058096Y0114836D01*
X0057350Y0113035D01*
X0057350Y0111085D01*
X0058096Y0109284D01*
X0059474Y0107906D01*
X0061275Y0107160D01*
X0063225Y0107160D01*
X0065026Y0107906D01*
X0066404Y0109284D01*
X0066661Y0109904D02*
X0070650Y0109904D01*
X0070650Y0110902D02*
X0067074Y0110902D01*
X0067150Y0111901D02*
X0070650Y0111901D01*
X0070650Y0112899D02*
X0067150Y0112899D01*
X0066792Y0113898D02*
X0070650Y0113898D01*
X0070650Y0114896D02*
X0066343Y0114896D01*
X0065345Y0115895D02*
X0070650Y0115895D01*
X0070650Y0116893D02*
X0063386Y0116893D01*
X0063225Y0117160D02*
X0065026Y0117906D01*
X0066404Y0119284D01*
X0067150Y0121085D01*
X0067150Y0123035D01*
X0066404Y0124836D01*
X0065026Y0126214D01*
X0063225Y0126960D01*
X0061275Y0126960D01*
X0059474Y0126214D01*
X0058096Y0124836D01*
X0057588Y0123610D01*
X0056608Y0123610D01*
X0055700Y0122702D01*
X0055418Y0122420D01*
X0055418Y0123069D01*
X0054716Y0123772D01*
X0050300Y0123772D01*
X0050300Y0127202D01*
X0046392Y0131110D01*
X0043962Y0131110D01*
X0043962Y0132026D01*
X0043259Y0132728D01*
X0042146Y0132728D01*
X0042146Y0133856D01*
X0041238Y0134764D01*
X0038392Y0137610D01*
X0026108Y0137610D01*
X0019708Y0131210D01*
X0019124Y0131210D01*
X0019173Y0131251D01*
X0020742Y0133969D01*
X0021287Y0137060D01*
X0020742Y0140151D01*
X0019173Y0142869D01*
X0019173Y0142869D01*
X0016769Y0144887D01*
X0016769Y0144887D01*
X0015193Y0145460D01*
X0059307Y0145460D01*
X0057731Y0144887D01*
X0055327Y0142869D01*
X0053758Y0140151D01*
X0053758Y0140151D01*
X0053213Y0137060D01*
X0053758Y0133969D01*
X0055327Y0131251D01*
X0055327Y0131251D01*
X0057731Y0129233D01*
X0060681Y0128160D01*
X0063819Y0128160D01*
X0066769Y0129233D01*
X0069173Y0131251D01*
X0070650Y0133809D01*
X0070650Y0086014D01*
X0070638Y0086026D01*
X0069975Y0086507D01*
X0069246Y0086879D01*
X0068468Y0087132D01*
X0067750Y0087246D01*
X0067750Y0082560D01*
X0066750Y0082560D01*
X0066750Y0087246D01*
X0066032Y0087132D01*
X0065418Y0086932D01*
X0065418Y0087690D01*
X0064936Y0088855D01*
X0064045Y0089746D01*
X0062880Y0090228D01*
X0061620Y0090228D01*
X0060455Y0089746D01*
X0059564Y0088855D01*
X0059081Y0087690D01*
X0059081Y0086605D01*
X0058800Y0086722D01*
X0058800Y0102202D01*
X0053800Y0107202D01*
X0053800Y0110348D01*
X0054716Y0110348D01*
X0055418Y0111051D01*
X0055418Y0116376D01*
X0054734Y0117060D01*
X0055418Y0117744D01*
X0055418Y0118856D01*
X0056238Y0118856D01*
X0057677Y0120295D01*
X0058096Y0119284D01*
X0059474Y0117906D01*
X0061275Y0117160D01*
X0063225Y0117160D01*
X0064991Y0117892D02*
X0070650Y0117892D01*
X0070650Y0118890D02*
X0066010Y0118890D01*
X0066654Y0119889D02*
X0070650Y0119889D01*
X0070650Y0120887D02*
X0067068Y0120887D01*
X0067150Y0121886D02*
X0070650Y0121886D01*
X0070650Y0122884D02*
X0067150Y0122884D01*
X0066799Y0123883D02*
X0070650Y0123883D01*
X0070650Y0124881D02*
X0066358Y0124881D01*
X0065360Y0125880D02*
X0070650Y0125880D01*
X0070650Y0126878D02*
X0063422Y0126878D01*
X0061078Y0126878D02*
X0050300Y0126878D01*
X0050300Y0125880D02*
X0059140Y0125880D01*
X0058142Y0124881D02*
X0050300Y0124881D01*
X0050300Y0123883D02*
X0057701Y0123883D01*
X0055882Y0122884D02*
X0055418Y0122884D01*
X0057271Y0119889D02*
X0057846Y0119889D01*
X0058490Y0118890D02*
X0056272Y0118890D01*
X0055418Y0117892D02*
X0059509Y0117892D01*
X0061114Y0116893D02*
X0054901Y0116893D01*
X0055418Y0115895D02*
X0059155Y0115895D01*
X0058157Y0114896D02*
X0055418Y0114896D01*
X0055418Y0113898D02*
X0057708Y0113898D01*
X0057350Y0112899D02*
X0055418Y0112899D01*
X0055418Y0111901D02*
X0057350Y0111901D01*
X0057426Y0110902D02*
X0055270Y0110902D01*
X0053800Y0109904D02*
X0057839Y0109904D01*
X0058475Y0108905D02*
X0053800Y0108905D01*
X0053800Y0107907D02*
X0059474Y0107907D01*
X0056091Y0104911D02*
X0070650Y0104911D01*
X0070650Y0103913D02*
X0057089Y0103913D01*
X0058088Y0102914D02*
X0070650Y0102914D01*
X0070650Y0101916D02*
X0058800Y0101916D01*
X0058800Y0100917D02*
X0070650Y0100917D01*
X0070650Y0099919D02*
X0058800Y0099919D01*
X0058800Y0098920D02*
X0070650Y0098920D01*
X0070650Y0097922D02*
X0058800Y0097922D01*
X0058800Y0096923D02*
X0070650Y0096923D01*
X0070650Y0095925D02*
X0058800Y0095925D01*
X0058800Y0094926D02*
X0070650Y0094926D01*
X0070650Y0093927D02*
X0058800Y0093927D01*
X0058800Y0092929D02*
X0070650Y0092929D01*
X0070650Y0091930D02*
X0058800Y0091930D01*
X0058800Y0090932D02*
X0070650Y0090932D01*
X0070650Y0089933D02*
X0063593Y0089933D01*
X0064856Y0088935D02*
X0070650Y0088935D01*
X0070650Y0087936D02*
X0065317Y0087936D01*
X0065418Y0086938D02*
X0065435Y0086938D01*
X0066750Y0086938D02*
X0067750Y0086938D01*
X0067750Y0085939D02*
X0066750Y0085939D01*
X0066750Y0084941D02*
X0067750Y0084941D01*
X0067750Y0083942D02*
X0066750Y0083942D01*
X0066750Y0082944D02*
X0067750Y0082944D01*
X0069065Y0086938D02*
X0070650Y0086938D01*
X0060907Y0089933D02*
X0058800Y0089933D01*
X0058800Y0088935D02*
X0059644Y0088935D01*
X0059183Y0087936D02*
X0058800Y0087936D01*
X0058800Y0086938D02*
X0059081Y0086938D01*
X0055700Y0086938D02*
X0048278Y0086938D01*
X0048225Y0086960D02*
X0050026Y0086214D01*
X0051404Y0084836D01*
X0052150Y0083035D01*
X0052150Y0081085D01*
X0051404Y0079284D01*
X0050780Y0078660D01*
X0053720Y0078660D01*
X0053096Y0079284D01*
X0052350Y0081085D01*
X0052350Y0083035D01*
X0053096Y0084836D01*
X0054474Y0086214D01*
X0055700Y0086722D01*
X0055700Y0100918D01*
X0051608Y0105010D01*
X0050700Y0105918D01*
X0050700Y0110348D01*
X0049784Y0110348D01*
X0049081Y0111051D01*
X0049081Y0112164D01*
X0048954Y0112164D01*
X0048108Y0113010D01*
X0047200Y0113918D01*
X0047200Y0119841D01*
X0043962Y0119841D01*
X0043962Y0119516D01*
X0043259Y0118813D01*
X0031241Y0118813D01*
X0030538Y0119516D01*
X0030538Y0122510D01*
X0025918Y0122510D01*
X0025918Y0121956D01*
X0026546Y0121956D01*
X0027454Y0121048D01*
X0027454Y0121048D01*
X0027892Y0120610D01*
X0027892Y0120610D01*
X0028800Y0119702D01*
X0028800Y0109258D01*
X0029278Y0108780D01*
X0030945Y0110447D01*
X0030538Y0110854D01*
X0030538Y0114604D01*
X0031241Y0115307D01*
X0043259Y0115307D01*
X0043962Y0114604D01*
X0043962Y0110854D01*
X0043717Y0110610D01*
X0045052Y0110610D01*
X0045749Y0111307D01*
X0046723Y0111710D01*
X0047777Y0111710D01*
X0048751Y0111307D01*
X0049497Y0110561D01*
X0049900Y0109587D01*
X0049900Y0108533D01*
X0049497Y0107559D01*
X0048751Y0106813D01*
X0047777Y0106410D01*
X0046723Y0106410D01*
X0045749Y0106813D01*
X0045052Y0107510D01*
X0039608Y0107510D01*
X0038970Y0108148D01*
X0038800Y0108318D01*
X0038800Y0105228D01*
X0044066Y0105228D01*
X0044590Y0104705D01*
X0044731Y0104950D01*
X0045010Y0105229D01*
X0045352Y0105426D01*
X0045734Y0105528D01*
X0047612Y0105528D01*
X0047612Y0102544D01*
X0048581Y0102544D01*
X0051762Y0102544D01*
X0051762Y0104226D01*
X0051660Y0104607D01*
X0051462Y0104950D01*
X0051183Y0105229D01*
X0050841Y0105426D01*
X0050459Y0105528D01*
X0048581Y0105528D01*
X0048581Y0102544D01*
X0048581Y0101576D01*
X0051762Y0101576D01*
X0051762Y0099894D01*
X0051660Y0099512D01*
X0051462Y0099170D01*
X0051183Y0098891D01*
X0050841Y0098694D01*
X0050459Y0098591D01*
X0048581Y0098591D01*
X0048581Y0101576D01*
X0047612Y0101576D01*
X0047612Y0098591D01*
X0045734Y0098591D01*
X0045352Y0098694D01*
X0045010Y0098891D01*
X0044731Y0099170D01*
X0044590Y0099415D01*
X0044066Y0098891D01*
X0042954Y0098891D01*
X0042954Y0098548D01*
X0043800Y0097702D01*
X0043800Y0094258D01*
X0044497Y0093561D01*
X0044900Y0092587D01*
X0044900Y0091533D01*
X0044497Y0090559D01*
X0043751Y0089813D01*
X0042777Y0089410D01*
X0041723Y0089410D01*
X0040749Y0089813D01*
X0040052Y0090510D01*
X0032892Y0090510D01*
X0029015Y0086633D01*
X0030026Y0086214D01*
X0031404Y0084836D01*
X0032150Y0083035D01*
X0032150Y0081085D01*
X0031404Y0079284D01*
X0030780Y0078660D01*
X0033720Y0078660D01*
X0033096Y0079284D01*
X0032350Y0081085D01*
X0032350Y0083035D01*
X0033096Y0084836D01*
X0034474Y0086214D01*
X0036275Y0086960D01*
X0038225Y0086960D01*
X0040026Y0086214D01*
X0041404Y0084836D01*
X0042150Y0083035D01*
X0042150Y0081085D01*
X0041404Y0079284D01*
X0040780Y0078660D01*
X0043720Y0078660D01*
X0043096Y0079284D01*
X0042350Y0081085D01*
X0042350Y0083035D01*
X0043096Y0084836D01*
X0044474Y0086214D01*
X0046275Y0086960D01*
X0048225Y0086960D01*
X0046222Y0086938D02*
X0038278Y0086938D01*
X0036222Y0086938D02*
X0029320Y0086938D01*
X0030300Y0085939D02*
X0034200Y0085939D01*
X0033201Y0084941D02*
X0031299Y0084941D01*
X0031774Y0083942D02*
X0032726Y0083942D01*
X0032350Y0082944D02*
X0032150Y0082944D01*
X0032150Y0081945D02*
X0032350Y0081945D01*
X0032407Y0080947D02*
X0032093Y0080947D01*
X0031679Y0079948D02*
X0032821Y0079948D01*
X0033431Y0078950D02*
X0031069Y0078950D01*
X0030318Y0087936D02*
X0055700Y0087936D01*
X0055700Y0088935D02*
X0031317Y0088935D01*
X0032315Y0089933D02*
X0040629Y0089933D01*
X0043871Y0089933D02*
X0055700Y0089933D01*
X0055700Y0090932D02*
X0044651Y0090932D01*
X0044900Y0091930D02*
X0055700Y0091930D01*
X0055700Y0092929D02*
X0044758Y0092929D01*
X0044130Y0093927D02*
X0055700Y0093927D01*
X0055700Y0094926D02*
X0043800Y0094926D01*
X0043800Y0095925D02*
X0055700Y0095925D01*
X0055700Y0096923D02*
X0043800Y0096923D01*
X0043580Y0097922D02*
X0055700Y0097922D01*
X0055700Y0098920D02*
X0051212Y0098920D01*
X0051762Y0099919D02*
X0055700Y0099919D01*
X0055700Y0100917D02*
X0051762Y0100917D01*
X0051762Y0102914D02*
X0053704Y0102914D01*
X0054702Y0101916D02*
X0048581Y0101916D01*
X0048581Y0102914D02*
X0047612Y0102914D01*
X0047612Y0103913D02*
X0048581Y0103913D01*
X0048581Y0104911D02*
X0047612Y0104911D01*
X0048846Y0106908D02*
X0050700Y0106908D01*
X0050708Y0105910D02*
X0038800Y0105910D01*
X0038800Y0106908D02*
X0045654Y0106908D01*
X0044709Y0104911D02*
X0044383Y0104911D01*
X0047612Y0100917D02*
X0048581Y0100917D01*
X0048581Y0099919D02*
X0047612Y0099919D01*
X0047612Y0098920D02*
X0048581Y0098920D01*
X0044981Y0098920D02*
X0044095Y0098920D01*
X0051762Y0103913D02*
X0052705Y0103913D01*
X0051707Y0104911D02*
X0051484Y0104911D01*
X0050700Y0107907D02*
X0049641Y0107907D01*
X0049900Y0108905D02*
X0050700Y0108905D01*
X0050700Y0109904D02*
X0049769Y0109904D01*
X0049230Y0110902D02*
X0049155Y0110902D01*
X0049081Y0111901D02*
X0043962Y0111901D01*
X0043962Y0112899D02*
X0048219Y0112899D01*
X0047220Y0113898D02*
X0043962Y0113898D01*
X0043670Y0114896D02*
X0047200Y0114896D01*
X0047200Y0115895D02*
X0028800Y0115895D01*
X0028800Y0116893D02*
X0047200Y0116893D01*
X0047200Y0117892D02*
X0028800Y0117892D01*
X0028800Y0118890D02*
X0031164Y0118890D01*
X0030538Y0119889D02*
X0028613Y0119889D01*
X0027615Y0120887D02*
X0030538Y0120887D01*
X0030538Y0121886D02*
X0026616Y0121886D01*
X0024609Y0127610D02*
X0021725Y0127610D01*
X0021900Y0128033D01*
X0021900Y0129018D01*
X0027392Y0134510D01*
X0037108Y0134510D01*
X0038889Y0132728D01*
X0037934Y0132728D01*
X0037410Y0132205D01*
X0037269Y0132450D01*
X0036990Y0132729D01*
X0036648Y0132926D01*
X0036266Y0133028D01*
X0034388Y0133028D01*
X0034388Y0130044D01*
X0033419Y0130044D01*
X0033419Y0129076D01*
X0030238Y0129076D01*
X0030238Y0127610D01*
X0029891Y0127610D01*
X0029497Y0128561D01*
X0028751Y0129307D01*
X0027777Y0129710D01*
X0026723Y0129710D01*
X0025749Y0129307D01*
X0025003Y0128561D01*
X0024609Y0127610D01*
X0024720Y0127877D02*
X0021835Y0127877D01*
X0021900Y0128875D02*
X0025318Y0128875D01*
X0023754Y0130872D02*
X0030238Y0130872D01*
X0030238Y0130044D02*
X0030238Y0131726D01*
X0030340Y0132107D01*
X0030538Y0132450D01*
X0030817Y0132729D01*
X0031159Y0132926D01*
X0031541Y0133028D01*
X0033419Y0133028D01*
X0033419Y0130044D01*
X0030238Y0130044D01*
X0030238Y0128875D02*
X0029182Y0128875D01*
X0029780Y0127877D02*
X0030238Y0127877D01*
X0033419Y0129874D02*
X0022756Y0129874D01*
X0024753Y0131871D02*
X0030277Y0131871D01*
X0031061Y0132869D02*
X0025751Y0132869D01*
X0026750Y0133868D02*
X0037750Y0133868D01*
X0038749Y0132869D02*
X0036746Y0132869D01*
X0034388Y0132869D02*
X0033419Y0132869D01*
X0033419Y0131871D02*
X0034388Y0131871D01*
X0034388Y0130872D02*
X0033419Y0130872D01*
X0039139Y0136863D02*
X0053247Y0136863D01*
X0053213Y0137060D02*
X0053213Y0137060D01*
X0053354Y0137862D02*
X0021146Y0137862D01*
X0021287Y0137060D02*
X0021287Y0137060D01*
X0021253Y0136863D02*
X0025361Y0136863D01*
X0024363Y0135865D02*
X0021077Y0135865D01*
X0020901Y0134866D02*
X0023364Y0134866D01*
X0022366Y0133868D02*
X0020684Y0133868D01*
X0020742Y0133969D02*
X0020742Y0133969D01*
X0021367Y0132869D02*
X0020107Y0132869D01*
X0020369Y0131871D02*
X0019531Y0131871D01*
X0019173Y0131251D02*
X0019173Y0131251D01*
X0019173Y0131251D01*
X0020970Y0138861D02*
X0053530Y0138861D01*
X0053706Y0139859D02*
X0020794Y0139859D01*
X0020742Y0140151D02*
X0020742Y0140151D01*
X0020334Y0140858D02*
X0054166Y0140858D01*
X0054742Y0141856D02*
X0019758Y0141856D01*
X0019181Y0142855D02*
X0055319Y0142855D01*
X0055327Y0142869D02*
X0055327Y0142869D01*
X0055327Y0142869D01*
X0056500Y0143853D02*
X0018000Y0143853D01*
X0016810Y0144852D02*
X0057690Y0144852D01*
X0057731Y0144887D02*
X0057731Y0144887D01*
X0053720Y0150660D02*
X0050780Y0150660D01*
X0051404Y0151284D01*
X0052150Y0153085D01*
X0052150Y0155035D01*
X0051404Y0156836D01*
X0050026Y0158214D01*
X0048225Y0158960D01*
X0046275Y0158960D01*
X0044474Y0158214D01*
X0043096Y0156836D01*
X0042350Y0155035D01*
X0042350Y0153085D01*
X0043096Y0151284D01*
X0043720Y0150660D01*
X0040780Y0150660D01*
X0041404Y0151284D01*
X0042150Y0153085D01*
X0042150Y0155035D01*
X0041404Y0156836D01*
X0040026Y0158214D01*
X0038225Y0158960D01*
X0036275Y0158960D01*
X0034474Y0158214D01*
X0033096Y0156836D01*
X0032350Y0155035D01*
X0032350Y0153085D01*
X0033096Y0151284D01*
X0033720Y0150660D01*
X0030780Y0150660D01*
X0031404Y0151284D01*
X0032150Y0153085D01*
X0032150Y0155035D01*
X0031404Y0156836D01*
X0030026Y0158214D01*
X0029015Y0158633D01*
X0032892Y0162510D01*
X0040052Y0162510D01*
X0040749Y0161813D01*
X0041723Y0161410D01*
X0042777Y0161410D01*
X0043751Y0161813D01*
X0044497Y0162559D01*
X0044900Y0163533D01*
X0044900Y0164587D01*
X0044497Y0165561D01*
X0043800Y0166258D01*
X0043800Y0169702D01*
X0042954Y0170548D01*
X0042954Y0170891D01*
X0044066Y0170891D01*
X0044590Y0171415D01*
X0044731Y0171170D01*
X0045010Y0170891D01*
X0045352Y0170694D01*
X0045734Y0170591D01*
X0047612Y0170591D01*
X0047612Y0173576D01*
X0048581Y0173576D01*
X0048581Y0174544D01*
X0051762Y0174544D01*
X0051762Y0176226D01*
X0051660Y0176607D01*
X0051462Y0176950D01*
X0051183Y0177229D01*
X0050841Y0177426D01*
X0050459Y0177528D01*
X0048581Y0177528D01*
X0048581Y0174544D01*
X0047612Y0174544D01*
X0047612Y0177528D01*
X0045734Y0177528D01*
X0045352Y0177426D01*
X0045010Y0177229D01*
X0044731Y0176950D01*
X0044590Y0176705D01*
X0044066Y0177228D01*
X0038800Y0177228D01*
X0038800Y0180318D01*
X0038970Y0180148D01*
X0039608Y0179510D01*
X0045052Y0179510D01*
X0045749Y0178813D01*
X0046723Y0178410D01*
X0047777Y0178410D01*
X0048751Y0178813D01*
X0049497Y0179559D01*
X0049900Y0180533D01*
X0049900Y0181587D01*
X0049497Y0182561D01*
X0048751Y0183307D01*
X0047777Y0183710D01*
X0046723Y0183710D01*
X0045749Y0183307D01*
X0045052Y0182610D01*
X0043717Y0182610D01*
X0043962Y0182854D01*
X0043962Y0186604D01*
X0043259Y0187307D01*
X0031241Y0187307D01*
X0030538Y0186604D01*
X0030538Y0182854D01*
X0030945Y0182447D01*
X0029278Y0180780D01*
X0028800Y0181258D01*
X0028800Y0191702D01*
X0027892Y0192610D01*
X0026546Y0193956D01*
X0025918Y0193956D01*
X0025918Y0194510D01*
X0030538Y0194510D01*
X0030538Y0191516D01*
X0031241Y0190813D01*
X0043259Y0190813D01*
X0043962Y0191516D01*
X0043962Y0191841D01*
X0047200Y0191841D01*
X0047200Y0185918D01*
X0048108Y0185010D01*
X0048954Y0184164D01*
X0049081Y0184164D01*
X0049081Y0183051D01*
X0049784Y0182348D01*
X0050700Y0182348D01*
X0050700Y0177918D01*
X0051608Y0177010D01*
X0055700Y0172918D01*
X0055700Y0158722D01*
X0054474Y0158214D01*
X0053096Y0156836D01*
X0052350Y0155035D01*
X0052350Y0153085D01*
X0053096Y0151284D01*
X0053720Y0150660D01*
X0053538Y0150843D02*
X0050962Y0150843D01*
X0051635Y0151841D02*
X0052865Y0151841D01*
X0052452Y0152840D02*
X0052048Y0152840D01*
X0052150Y0153838D02*
X0052350Y0153838D01*
X0052350Y0154837D02*
X0052150Y0154837D01*
X0051818Y0155835D02*
X0052682Y0155835D01*
X0053095Y0156834D02*
X0051405Y0156834D01*
X0050407Y0157832D02*
X0054093Y0157832D01*
X0055700Y0158831D02*
X0048537Y0158831D01*
X0045963Y0158831D02*
X0038537Y0158831D01*
X0040407Y0157832D02*
X0044093Y0157832D01*
X0043095Y0156834D02*
X0041405Y0156834D01*
X0041818Y0155835D02*
X0042682Y0155835D01*
X0042350Y0154837D02*
X0042150Y0154837D01*
X0042150Y0153838D02*
X0042350Y0153838D01*
X0042452Y0152840D02*
X0042048Y0152840D01*
X0041635Y0151841D02*
X0042865Y0151841D01*
X0043538Y0150843D02*
X0040962Y0150843D01*
X0033538Y0150843D02*
X0030962Y0150843D01*
X0031635Y0151841D02*
X0032865Y0151841D01*
X0032452Y0152840D02*
X0032048Y0152840D01*
X0032150Y0153838D02*
X0032350Y0153838D01*
X0032350Y0154837D02*
X0032150Y0154837D01*
X0031818Y0155835D02*
X0032682Y0155835D01*
X0033095Y0156834D02*
X0031405Y0156834D01*
X0030407Y0157832D02*
X0034093Y0157832D01*
X0035963Y0158831D02*
X0029213Y0158831D01*
X0030211Y0159829D02*
X0055700Y0159829D01*
X0055700Y0160828D02*
X0031210Y0160828D01*
X0032208Y0161826D02*
X0040736Y0161826D01*
X0043764Y0161826D02*
X0055700Y0161826D01*
X0055700Y0162825D02*
X0044607Y0162825D01*
X0044900Y0163823D02*
X0055700Y0163823D01*
X0055700Y0164822D02*
X0044803Y0164822D01*
X0044237Y0165820D02*
X0055700Y0165820D01*
X0055700Y0166819D02*
X0043800Y0166819D01*
X0043800Y0167817D02*
X0055700Y0167817D01*
X0055700Y0168816D02*
X0043800Y0168816D01*
X0043688Y0169814D02*
X0055700Y0169814D01*
X0055700Y0170813D02*
X0051047Y0170813D01*
X0051183Y0170891D02*
X0051462Y0171170D01*
X0051660Y0171513D01*
X0051762Y0171894D01*
X0051762Y0173576D01*
X0048581Y0173576D01*
X0048581Y0170591D01*
X0050459Y0170591D01*
X0050841Y0170694D01*
X0051183Y0170891D01*
X0051740Y0171811D02*
X0055700Y0171811D01*
X0055700Y0172810D02*
X0051762Y0172810D01*
X0051762Y0174807D02*
X0053811Y0174807D01*
X0052813Y0175805D02*
X0051762Y0175805D01*
X0051814Y0176804D02*
X0051546Y0176804D01*
X0051608Y0177010D02*
X0051608Y0177010D01*
X0050816Y0177802D02*
X0038800Y0177802D01*
X0038800Y0178801D02*
X0045779Y0178801D01*
X0044647Y0176804D02*
X0044490Y0176804D01*
X0047612Y0176804D02*
X0048581Y0176804D01*
X0048581Y0175805D02*
X0047612Y0175805D01*
X0047612Y0174807D02*
X0048581Y0174807D01*
X0048581Y0173808D02*
X0054810Y0173808D01*
X0056198Y0176804D02*
X0070650Y0176804D01*
X0070650Y0177802D02*
X0055200Y0177802D01*
X0054201Y0178801D02*
X0070650Y0178801D01*
X0070650Y0179799D02*
X0064769Y0179799D01*
X0065026Y0179906D02*
X0066404Y0181284D01*
X0067150Y0183085D01*
X0067150Y0185035D01*
X0066404Y0186836D01*
X0065026Y0188214D01*
X0063225Y0188960D01*
X0061275Y0188960D01*
X0059474Y0188214D01*
X0058096Y0186836D01*
X0057350Y0185035D01*
X0057350Y0183085D01*
X0058096Y0181284D01*
X0059474Y0179906D01*
X0061275Y0179160D01*
X0063225Y0179160D01*
X0065026Y0179906D01*
X0065918Y0180798D02*
X0070650Y0180798D01*
X0070650Y0181796D02*
X0066616Y0181796D01*
X0067030Y0182795D02*
X0070650Y0182795D01*
X0070650Y0183794D02*
X0067150Y0183794D01*
X0067150Y0184792D02*
X0070650Y0184792D01*
X0070650Y0185791D02*
X0066837Y0185791D01*
X0066423Y0186789D02*
X0070650Y0186789D01*
X0070650Y0187788D02*
X0065452Y0187788D01*
X0063645Y0188786D02*
X0070650Y0188786D01*
X0070650Y0189785D02*
X0064733Y0189785D01*
X0065026Y0189906D02*
X0066404Y0191284D01*
X0067150Y0193085D01*
X0067150Y0195035D01*
X0066404Y0196836D01*
X0065026Y0198214D01*
X0063225Y0198960D01*
X0061275Y0198960D01*
X0059474Y0198214D01*
X0058096Y0196836D01*
X0057588Y0195610D01*
X0056608Y0195610D01*
X0055700Y0194702D01*
X0055418Y0194420D01*
X0055418Y0195069D01*
X0054716Y0195772D01*
X0050300Y0195772D01*
X0050300Y0199202D01*
X0046392Y0203110D01*
X0043962Y0203110D01*
X0043962Y0204026D01*
X0043259Y0204728D01*
X0042146Y0204728D01*
X0042146Y0205856D01*
X0041238Y0206764D01*
X0038392Y0209610D01*
X0026108Y0209610D01*
X0019708Y0203210D01*
X0019124Y0203210D01*
X0019173Y0203251D01*
X0020742Y0205969D01*
X0021287Y0209060D01*
X0020742Y0212151D01*
X0019173Y0214869D01*
X0019173Y0214869D01*
X0016769Y0216887D01*
X0016769Y0216887D01*
X0015193Y0217460D01*
X0059307Y0217460D01*
X0057731Y0216887D01*
X0055327Y0214869D01*
X0053758Y0212151D01*
X0053758Y0212151D01*
X0053213Y0209060D01*
X0053758Y0205969D01*
X0055327Y0203251D01*
X0055327Y0203251D01*
X0057731Y0201233D01*
X0060681Y0200160D01*
X0063819Y0200160D01*
X0066769Y0201233D01*
X0069173Y0203251D01*
X0070650Y0205809D01*
X0070650Y0158014D01*
X0070638Y0158026D01*
X0069975Y0158507D01*
X0069246Y0158879D01*
X0068468Y0159132D01*
X0067750Y0159246D01*
X0067750Y0154560D01*
X0066750Y0154560D01*
X0066750Y0159246D01*
X0066032Y0159132D01*
X0065418Y0158932D01*
X0065418Y0159690D01*
X0064936Y0160855D01*
X0064045Y0161746D01*
X0062880Y0162228D01*
X0061620Y0162228D01*
X0060455Y0161746D01*
X0059564Y0160855D01*
X0059081Y0159690D01*
X0059081Y0158605D01*
X0058800Y0158722D01*
X0058800Y0174202D01*
X0053800Y0179202D01*
X0053800Y0182348D01*
X0054716Y0182348D01*
X0055418Y0183051D01*
X0055418Y0188376D01*
X0054734Y0189060D01*
X0055418Y0189744D01*
X0055418Y0190856D01*
X0056238Y0190856D01*
X0057677Y0192295D01*
X0058096Y0191284D01*
X0059474Y0189906D01*
X0061275Y0189160D01*
X0063225Y0189160D01*
X0065026Y0189906D01*
X0065903Y0190783D02*
X0070650Y0190783D01*
X0070650Y0191782D02*
X0066610Y0191782D01*
X0067024Y0192780D02*
X0070650Y0192780D01*
X0070650Y0193779D02*
X0067150Y0193779D01*
X0067150Y0194777D02*
X0070650Y0194777D01*
X0070650Y0195776D02*
X0066843Y0195776D01*
X0066429Y0196774D02*
X0070650Y0196774D01*
X0070650Y0197773D02*
X0065467Y0197773D01*
X0063680Y0198771D02*
X0070650Y0198771D01*
X0070650Y0199770D02*
X0049732Y0199770D01*
X0050300Y0198771D02*
X0060820Y0198771D01*
X0059033Y0197773D02*
X0050300Y0197773D01*
X0050300Y0196774D02*
X0058071Y0196774D01*
X0057657Y0195776D02*
X0050300Y0195776D01*
X0047200Y0191782D02*
X0043962Y0191782D01*
X0047200Y0190783D02*
X0028800Y0190783D01*
X0028800Y0189785D02*
X0047200Y0189785D01*
X0047200Y0188786D02*
X0028800Y0188786D01*
X0028800Y0187788D02*
X0047200Y0187788D01*
X0047200Y0186789D02*
X0043777Y0186789D01*
X0043962Y0185791D02*
X0047327Y0185791D01*
X0048326Y0184792D02*
X0043962Y0184792D01*
X0043962Y0183794D02*
X0049081Y0183794D01*
X0049263Y0182795D02*
X0049338Y0182795D01*
X0049813Y0181796D02*
X0050700Y0181796D01*
X0050700Y0180798D02*
X0049900Y0180798D01*
X0049596Y0179799D02*
X0050700Y0179799D01*
X0050700Y0178801D02*
X0048721Y0178801D01*
X0053800Y0179799D02*
X0059731Y0179799D01*
X0058582Y0180798D02*
X0053800Y0180798D01*
X0053800Y0181796D02*
X0057884Y0181796D01*
X0057470Y0182795D02*
X0055162Y0182795D01*
X0055418Y0183794D02*
X0057350Y0183794D01*
X0057350Y0184792D02*
X0055418Y0184792D01*
X0055418Y0185791D02*
X0057663Y0185791D01*
X0058077Y0186789D02*
X0055418Y0186789D01*
X0055418Y0187788D02*
X0059048Y0187788D01*
X0060855Y0188786D02*
X0055008Y0188786D01*
X0055418Y0189785D02*
X0059767Y0189785D01*
X0058597Y0190783D02*
X0055418Y0190783D01*
X0057164Y0191782D02*
X0057890Y0191782D01*
X0055700Y0194702D02*
X0055700Y0194702D01*
X0055775Y0194777D02*
X0055418Y0194777D01*
X0057731Y0201233D02*
X0057731Y0201233D01*
X0057096Y0201767D02*
X0047735Y0201767D01*
X0046737Y0202765D02*
X0055906Y0202765D01*
X0055031Y0203764D02*
X0043962Y0203764D01*
X0042146Y0204762D02*
X0054454Y0204762D01*
X0053878Y0205761D02*
X0042146Y0205761D01*
X0041243Y0206759D02*
X0053618Y0206759D01*
X0053758Y0205969D02*
X0053758Y0205969D01*
X0053442Y0207758D02*
X0040244Y0207758D01*
X0039246Y0208756D02*
X0053266Y0208756D01*
X0053213Y0209060D02*
X0053213Y0209060D01*
X0053335Y0209755D02*
X0021165Y0209755D01*
X0021287Y0209060D02*
X0021287Y0209060D01*
X0021234Y0208756D02*
X0025254Y0208756D01*
X0024256Y0207758D02*
X0021058Y0207758D01*
X0020882Y0206759D02*
X0023257Y0206759D01*
X0022259Y0205761D02*
X0020622Y0205761D01*
X0020742Y0205969D02*
X0020742Y0205969D01*
X0021260Y0204762D02*
X0020046Y0204762D01*
X0020262Y0203764D02*
X0019469Y0203764D01*
X0019173Y0203251D02*
X0019173Y0203251D01*
X0019173Y0203251D01*
X0021900Y0201018D02*
X0027392Y0206510D01*
X0037108Y0206510D01*
X0038889Y0204728D01*
X0037934Y0204728D01*
X0037410Y0204205D01*
X0037269Y0204450D01*
X0036990Y0204729D01*
X0036648Y0204926D01*
X0036266Y0205028D01*
X0034388Y0205028D01*
X0034388Y0202044D01*
X0033419Y0202044D01*
X0033419Y0201076D01*
X0030238Y0201076D01*
X0030238Y0199610D01*
X0029891Y0199610D01*
X0029497Y0200561D01*
X0028751Y0201307D01*
X0027777Y0201710D01*
X0026723Y0201710D01*
X0025749Y0201307D01*
X0025003Y0200561D01*
X0024609Y0199610D01*
X0021725Y0199610D01*
X0021900Y0200033D01*
X0021900Y0201018D01*
X0021900Y0200768D02*
X0025211Y0200768D01*
X0024676Y0199770D02*
X0021791Y0199770D01*
X0022649Y0201767D02*
X0033419Y0201767D01*
X0033419Y0202044D02*
X0030238Y0202044D01*
X0030238Y0203726D01*
X0030340Y0204107D01*
X0030538Y0204450D01*
X0030817Y0204729D01*
X0031159Y0204926D01*
X0031541Y0205028D01*
X0033419Y0205028D01*
X0033419Y0202044D01*
X0033419Y0202765D02*
X0034388Y0202765D01*
X0034388Y0203764D02*
X0033419Y0203764D01*
X0033419Y0204762D02*
X0034388Y0204762D01*
X0036932Y0204762D02*
X0038856Y0204762D01*
X0037857Y0205761D02*
X0026643Y0205761D01*
X0025644Y0204762D02*
X0030875Y0204762D01*
X0030248Y0203764D02*
X0024646Y0203764D01*
X0023647Y0202765D02*
X0030238Y0202765D01*
X0030238Y0200768D02*
X0029289Y0200768D01*
X0029824Y0199770D02*
X0030238Y0199770D01*
X0030538Y0193779D02*
X0026723Y0193779D01*
X0027722Y0192780D02*
X0030538Y0192780D01*
X0030538Y0191782D02*
X0028720Y0191782D01*
X0028800Y0186789D02*
X0030723Y0186789D01*
X0030538Y0185791D02*
X0028800Y0185791D01*
X0028800Y0184792D02*
X0030538Y0184792D01*
X0030538Y0183794D02*
X0028800Y0183794D01*
X0028800Y0182795D02*
X0030597Y0182795D01*
X0030294Y0181796D02*
X0028800Y0181796D01*
X0029260Y0180798D02*
X0029296Y0180798D01*
X0038800Y0179799D02*
X0039318Y0179799D01*
X0043903Y0182795D02*
X0045237Y0182795D01*
X0047612Y0172810D02*
X0048581Y0172810D01*
X0048581Y0171811D02*
X0047612Y0171811D01*
X0047612Y0170813D02*
X0048581Y0170813D01*
X0045146Y0170813D02*
X0042954Y0170813D01*
X0057197Y0175805D02*
X0070650Y0175805D01*
X0070650Y0174807D02*
X0058195Y0174807D01*
X0058800Y0173808D02*
X0070650Y0173808D01*
X0070650Y0172810D02*
X0058800Y0172810D01*
X0058800Y0171811D02*
X0070650Y0171811D01*
X0070650Y0170813D02*
X0058800Y0170813D01*
X0058800Y0169814D02*
X0070650Y0169814D01*
X0070650Y0168816D02*
X0058800Y0168816D01*
X0058800Y0167817D02*
X0070650Y0167817D01*
X0070650Y0166819D02*
X0058800Y0166819D01*
X0058800Y0165820D02*
X0070650Y0165820D01*
X0070650Y0164822D02*
X0058800Y0164822D01*
X0058800Y0163823D02*
X0070650Y0163823D01*
X0070650Y0162825D02*
X0058800Y0162825D01*
X0058800Y0161826D02*
X0060649Y0161826D01*
X0059553Y0160828D02*
X0058800Y0160828D01*
X0058800Y0159829D02*
X0059139Y0159829D01*
X0059081Y0158831D02*
X0058800Y0158831D01*
X0063851Y0161826D02*
X0070650Y0161826D01*
X0070650Y0160828D02*
X0064947Y0160828D01*
X0065361Y0159829D02*
X0070650Y0159829D01*
X0070650Y0158831D02*
X0069341Y0158831D01*
X0067750Y0158831D02*
X0066750Y0158831D01*
X0066750Y0157832D02*
X0067750Y0157832D01*
X0067750Y0156834D02*
X0066750Y0156834D01*
X0066750Y0155835D02*
X0067750Y0155835D01*
X0067750Y0154837D02*
X0066750Y0154837D01*
X0053423Y0135865D02*
X0040137Y0135865D01*
X0041136Y0134866D02*
X0053599Y0134866D01*
X0053758Y0133969D02*
X0053758Y0133969D01*
X0053816Y0133868D02*
X0042134Y0133868D01*
X0042146Y0132869D02*
X0054393Y0132869D01*
X0054969Y0131871D02*
X0043962Y0131871D01*
X0046630Y0130872D02*
X0055778Y0130872D01*
X0056968Y0129874D02*
X0047628Y0129874D01*
X0048627Y0128875D02*
X0058715Y0128875D01*
X0057731Y0129233D02*
X0057731Y0129233D01*
X0065785Y0128875D02*
X0070650Y0128875D01*
X0070650Y0127877D02*
X0049625Y0127877D01*
X0047200Y0118890D02*
X0043336Y0118890D01*
X0043962Y0110902D02*
X0045345Y0110902D01*
X0039211Y0107907D02*
X0038800Y0107907D01*
X0030830Y0114896D02*
X0028800Y0114896D01*
X0028800Y0113898D02*
X0030538Y0113898D01*
X0030538Y0112899D02*
X0028800Y0112899D01*
X0028800Y0111901D02*
X0030538Y0111901D01*
X0030538Y0110902D02*
X0028800Y0110902D01*
X0028800Y0109904D02*
X0030402Y0109904D01*
X0029403Y0108905D02*
X0029152Y0108905D01*
X0054094Y0106908D02*
X0070650Y0106908D01*
X0070650Y0105910D02*
X0055092Y0105910D01*
X0065026Y0107907D02*
X0070650Y0107907D01*
X0066769Y0129233D02*
X0066769Y0129233D01*
X0067532Y0129874D02*
X0070650Y0129874D01*
X0070650Y0130872D02*
X0068722Y0130872D01*
X0069173Y0131251D02*
X0069173Y0131251D01*
X0069173Y0131251D01*
X0069531Y0131871D02*
X0070650Y0131871D01*
X0070650Y0132869D02*
X0070107Y0132869D01*
X0054200Y0085939D02*
X0050300Y0085939D01*
X0051299Y0084941D02*
X0053201Y0084941D01*
X0052726Y0083942D02*
X0051774Y0083942D01*
X0052150Y0082944D02*
X0052350Y0082944D01*
X0052350Y0081945D02*
X0052150Y0081945D01*
X0052093Y0080947D02*
X0052407Y0080947D01*
X0052821Y0079948D02*
X0051679Y0079948D01*
X0051069Y0078950D02*
X0053431Y0078950D01*
X0057731Y0072887D02*
X0055327Y0070869D01*
X0053758Y0068151D01*
X0053213Y0065060D01*
X0053758Y0061969D01*
X0055327Y0059251D01*
X0055327Y0059251D01*
X0057731Y0057233D01*
X0060681Y0056160D01*
X0063819Y0056160D01*
X0066769Y0057233D01*
X0069173Y0059251D01*
X0070650Y0061809D01*
X0070650Y0014014D01*
X0070638Y0014026D01*
X0069975Y0014507D01*
X0069246Y0014879D01*
X0068468Y0015132D01*
X0067750Y0015246D01*
X0067750Y0010560D01*
X0066750Y0010560D01*
X0066750Y0015246D01*
X0066032Y0015132D01*
X0065418Y0014932D01*
X0065418Y0015690D01*
X0064936Y0016855D01*
X0064045Y0017746D01*
X0062880Y0018228D01*
X0061620Y0018228D01*
X0060455Y0017746D01*
X0059564Y0016855D01*
X0059081Y0015690D01*
X0059081Y0014605D01*
X0058800Y0014722D01*
X0058800Y0030202D01*
X0053800Y0035202D01*
X0053800Y0038348D01*
X0054716Y0038348D01*
X0055418Y0039051D01*
X0055418Y0044376D01*
X0054734Y0045060D01*
X0055418Y0045744D01*
X0055418Y0046856D01*
X0056238Y0046856D01*
X0057677Y0048295D01*
X0058096Y0047284D01*
X0059474Y0045906D01*
X0061275Y0045160D01*
X0063225Y0045160D01*
X0065026Y0045906D01*
X0066404Y0047284D01*
X0067150Y0049085D01*
X0067150Y0051035D01*
X0066404Y0052836D01*
X0065026Y0054214D01*
X0063225Y0054960D01*
X0061275Y0054960D01*
X0059474Y0054214D01*
X0058096Y0052836D01*
X0057588Y0051610D01*
X0056608Y0051610D01*
X0055700Y0050702D01*
X0055418Y0050420D01*
X0055418Y0051069D01*
X0054716Y0051772D01*
X0050300Y0051772D01*
X0050300Y0055202D01*
X0046392Y0059110D01*
X0043962Y0059110D01*
X0043962Y0060026D01*
X0043259Y0060728D01*
X0042146Y0060728D01*
X0042146Y0061856D01*
X0041238Y0062764D01*
X0038392Y0065610D01*
X0026108Y0065610D01*
X0019708Y0059210D01*
X0019124Y0059210D01*
X0019173Y0059251D01*
X0020742Y0061969D01*
X0021287Y0065060D01*
X0020742Y0068151D01*
X0019173Y0070869D01*
X0019173Y0070869D01*
X0016769Y0072887D01*
X0016769Y0072887D01*
X0015193Y0073460D01*
X0059307Y0073460D01*
X0057731Y0072887D01*
X0057731Y0072887D01*
X0057930Y0072959D02*
X0016570Y0072959D01*
X0017873Y0071960D02*
X0056627Y0071960D01*
X0055438Y0070962D02*
X0019063Y0070962D01*
X0019696Y0069963D02*
X0054804Y0069963D01*
X0055327Y0070869D02*
X0055327Y0070869D01*
X0055327Y0070869D01*
X0054228Y0068965D02*
X0020272Y0068965D01*
X0020742Y0068151D02*
X0020742Y0068151D01*
X0020775Y0067966D02*
X0053725Y0067966D01*
X0053549Y0066968D02*
X0020951Y0066968D01*
X0021127Y0065969D02*
X0053373Y0065969D01*
X0053228Y0064971D02*
X0039031Y0064971D01*
X0040030Y0063972D02*
X0053405Y0063972D01*
X0053581Y0062974D02*
X0041028Y0062974D01*
X0042027Y0061975D02*
X0053757Y0061975D01*
X0054331Y0060977D02*
X0042146Y0060977D01*
X0043962Y0059978D02*
X0054907Y0059978D01*
X0055650Y0058980D02*
X0046522Y0058980D01*
X0047521Y0057981D02*
X0056840Y0057981D01*
X0057731Y0057233D02*
X0057731Y0057233D01*
X0058421Y0056983D02*
X0048519Y0056983D01*
X0049518Y0055984D02*
X0070650Y0055984D01*
X0070650Y0054986D02*
X0050300Y0054986D01*
X0050300Y0053987D02*
X0059247Y0053987D01*
X0058249Y0052989D02*
X0050300Y0052989D01*
X0050300Y0051990D02*
X0057746Y0051990D01*
X0055989Y0050992D02*
X0055418Y0050992D01*
X0057378Y0047996D02*
X0057801Y0047996D01*
X0058383Y0046997D02*
X0056379Y0046997D01*
X0055418Y0045999D02*
X0059381Y0045999D01*
X0059474Y0044214D02*
X0061275Y0044960D01*
X0063225Y0044960D01*
X0065026Y0044214D01*
X0066404Y0042836D01*
X0067150Y0041035D01*
X0067150Y0039085D01*
X0066404Y0037284D01*
X0065026Y0035906D01*
X0063225Y0035160D01*
X0061275Y0035160D01*
X0059474Y0035906D01*
X0058096Y0037284D01*
X0057350Y0039085D01*
X0057350Y0041035D01*
X0058096Y0042836D01*
X0059474Y0044214D01*
X0059262Y0044002D02*
X0055418Y0044002D01*
X0055418Y0043003D02*
X0058264Y0043003D01*
X0057752Y0042005D02*
X0055418Y0042005D01*
X0055418Y0041006D02*
X0057350Y0041006D01*
X0057350Y0040008D02*
X0055418Y0040008D01*
X0055377Y0039009D02*
X0057381Y0039009D01*
X0057795Y0038011D02*
X0053800Y0038011D01*
X0053800Y0037012D02*
X0058368Y0037012D01*
X0059366Y0036014D02*
X0053800Y0036014D01*
X0053987Y0035015D02*
X0070650Y0035015D01*
X0070650Y0034017D02*
X0054985Y0034017D01*
X0055984Y0033018D02*
X0070650Y0033018D01*
X0070650Y0032020D02*
X0056982Y0032020D01*
X0057981Y0031021D02*
X0070650Y0031021D01*
X0070650Y0030023D02*
X0058800Y0030023D01*
X0058800Y0029024D02*
X0070650Y0029024D01*
X0070650Y0028026D02*
X0058800Y0028026D01*
X0058800Y0027027D02*
X0070650Y0027027D01*
X0070650Y0026029D02*
X0058800Y0026029D01*
X0058800Y0025030D02*
X0070650Y0025030D01*
X0070650Y0024032D02*
X0058800Y0024032D01*
X0058800Y0023033D02*
X0070650Y0023033D01*
X0070650Y0022035D02*
X0058800Y0022035D01*
X0058800Y0021036D02*
X0070650Y0021036D01*
X0070650Y0020038D02*
X0058800Y0020038D01*
X0058800Y0019039D02*
X0070650Y0019039D01*
X0070650Y0018041D02*
X0063334Y0018041D01*
X0064749Y0017042D02*
X0070650Y0017042D01*
X0070650Y0016044D02*
X0065272Y0016044D01*
X0065418Y0015045D02*
X0065765Y0015045D01*
X0066750Y0015045D02*
X0067750Y0015045D01*
X0068735Y0015045D02*
X0070650Y0015045D01*
X0070610Y0014047D02*
X0070650Y0014047D01*
X0067750Y0014047D02*
X0066750Y0014047D01*
X0066750Y0013048D02*
X0067750Y0013048D01*
X0067750Y0012050D02*
X0066750Y0012050D01*
X0066750Y0011051D02*
X0067750Y0011051D01*
X0059228Y0016044D02*
X0058800Y0016044D01*
X0058800Y0017042D02*
X0059751Y0017042D01*
X0058800Y0018041D02*
X0061166Y0018041D01*
X0059081Y0015045D02*
X0058800Y0015045D01*
X0055700Y0015045D02*
X0029427Y0015045D01*
X0029015Y0014633D02*
X0032892Y0018510D01*
X0040052Y0018510D01*
X0040749Y0017813D01*
X0041723Y0017410D01*
X0042777Y0017410D01*
X0043751Y0017813D01*
X0044497Y0018559D01*
X0044900Y0019533D01*
X0044900Y0020587D01*
X0044497Y0021561D01*
X0043800Y0022258D01*
X0043800Y0025702D01*
X0042954Y0026548D01*
X0042954Y0026891D01*
X0044066Y0026891D01*
X0044590Y0027415D01*
X0044731Y0027170D01*
X0045010Y0026891D01*
X0045352Y0026694D01*
X0045734Y0026591D01*
X0047612Y0026591D01*
X0047612Y0029576D01*
X0048581Y0029576D01*
X0048581Y0030544D01*
X0051762Y0030544D01*
X0051762Y0032226D01*
X0051660Y0032607D01*
X0051462Y0032950D01*
X0051183Y0033229D01*
X0050841Y0033426D01*
X0050459Y0033528D01*
X0048581Y0033528D01*
X0048581Y0030544D01*
X0047612Y0030544D01*
X0047612Y0033528D01*
X0045734Y0033528D01*
X0045352Y0033426D01*
X0045010Y0033229D01*
X0044731Y0032950D01*
X0044590Y0032705D01*
X0044066Y0033228D01*
X0038800Y0033228D01*
X0038800Y0036318D01*
X0039608Y0035510D01*
X0045052Y0035510D01*
X0045749Y0034813D01*
X0046723Y0034410D01*
X0047777Y0034410D01*
X0048751Y0034813D01*
X0049497Y0035559D01*
X0049900Y0036533D01*
X0049900Y0037587D01*
X0049497Y0038561D01*
X0048751Y0039307D01*
X0047777Y0039710D01*
X0046723Y0039710D01*
X0045749Y0039307D01*
X0045052Y0038610D01*
X0043717Y0038610D01*
X0043962Y0038854D01*
X0043962Y0042604D01*
X0043259Y0043307D01*
X0031241Y0043307D01*
X0030538Y0042604D01*
X0030538Y0038854D01*
X0030945Y0038447D01*
X0029278Y0036780D01*
X0028800Y0037258D01*
X0028800Y0047702D01*
X0027892Y0048610D01*
X0026546Y0049956D01*
X0025918Y0049956D01*
X0025918Y0050510D01*
X0030538Y0050510D01*
X0030538Y0047516D01*
X0031241Y0046813D01*
X0043259Y0046813D01*
X0043962Y0047516D01*
X0043962Y0047841D01*
X0047200Y0047841D01*
X0047200Y0041918D01*
X0048108Y0041010D01*
X0048954Y0040164D01*
X0049081Y0040164D01*
X0049081Y0039051D01*
X0049784Y0038348D01*
X0050700Y0038348D01*
X0050700Y0033918D01*
X0051608Y0033010D01*
X0055700Y0028918D01*
X0055700Y0014722D01*
X0054474Y0014214D01*
X0053096Y0012836D01*
X0052350Y0011035D01*
X0052350Y0009085D01*
X0053096Y0007284D01*
X0053720Y0006660D01*
X0050780Y0006660D01*
X0051404Y0007284D01*
X0052150Y0009085D01*
X0052150Y0011035D01*
X0051404Y0012836D01*
X0050026Y0014214D01*
X0048225Y0014960D01*
X0046275Y0014960D01*
X0044474Y0014214D01*
X0043096Y0012836D01*
X0042350Y0011035D01*
X0042350Y0009085D01*
X0043096Y0007284D01*
X0043720Y0006660D01*
X0040780Y0006660D01*
X0041404Y0007284D01*
X0042150Y0009085D01*
X0042150Y0011035D01*
X0041404Y0012836D01*
X0040026Y0014214D01*
X0038225Y0014960D01*
X0036275Y0014960D01*
X0034474Y0014214D01*
X0033096Y0012836D01*
X0032350Y0011035D01*
X0032350Y0009085D01*
X0033096Y0007284D01*
X0033720Y0006660D01*
X0030780Y0006660D01*
X0031404Y0007284D01*
X0032150Y0009085D01*
X0032150Y0011035D01*
X0031404Y0012836D01*
X0030026Y0014214D01*
X0029015Y0014633D01*
X0030193Y0014047D02*
X0034307Y0014047D01*
X0033308Y0013048D02*
X0031192Y0013048D01*
X0031730Y0012050D02*
X0032770Y0012050D01*
X0032357Y0011051D02*
X0032143Y0011051D01*
X0032150Y0010053D02*
X0032350Y0010053D01*
X0032363Y0009054D02*
X0032137Y0009054D01*
X0031723Y0008056D02*
X0032777Y0008056D01*
X0033323Y0007057D02*
X0031177Y0007057D01*
X0030426Y0016044D02*
X0055700Y0016044D01*
X0055700Y0017042D02*
X0031424Y0017042D01*
X0032423Y0018041D02*
X0040522Y0018041D01*
X0043978Y0018041D02*
X0055700Y0018041D01*
X0055700Y0019039D02*
X0044695Y0019039D01*
X0044900Y0020038D02*
X0055700Y0020038D01*
X0055700Y0021036D02*
X0044714Y0021036D01*
X0044023Y0022035D02*
X0055700Y0022035D01*
X0055700Y0023033D02*
X0043800Y0023033D01*
X0043800Y0024032D02*
X0055700Y0024032D01*
X0055700Y0025030D02*
X0043800Y0025030D01*
X0043473Y0026029D02*
X0055700Y0026029D01*
X0055700Y0027027D02*
X0051319Y0027027D01*
X0051183Y0026891D02*
X0051462Y0027170D01*
X0051660Y0027512D01*
X0051762Y0027894D01*
X0051762Y0029576D01*
X0048581Y0029576D01*
X0048581Y0026591D01*
X0050459Y0026591D01*
X0050841Y0026694D01*
X0051183Y0026891D01*
X0051762Y0028026D02*
X0055700Y0028026D01*
X0055594Y0029024D02*
X0051762Y0029024D01*
X0051762Y0031021D02*
X0053597Y0031021D01*
X0054595Y0030023D02*
X0048581Y0030023D01*
X0048581Y0031021D02*
X0047612Y0031021D01*
X0047612Y0032020D02*
X0048581Y0032020D01*
X0048581Y0033018D02*
X0047612Y0033018D01*
X0048953Y0035015D02*
X0050700Y0035015D01*
X0050700Y0034017D02*
X0038800Y0034017D01*
X0038800Y0035015D02*
X0045547Y0035015D01*
X0044800Y0033018D02*
X0044276Y0033018D01*
X0047612Y0029024D02*
X0048581Y0029024D01*
X0048581Y0028026D02*
X0047612Y0028026D01*
X0047612Y0027027D02*
X0048581Y0027027D01*
X0044874Y0027027D02*
X0044202Y0027027D01*
X0051762Y0032020D02*
X0052598Y0032020D01*
X0051600Y0033018D02*
X0051393Y0033018D01*
X0050700Y0036014D02*
X0049685Y0036014D01*
X0049900Y0037012D02*
X0050700Y0037012D01*
X0050700Y0038011D02*
X0049724Y0038011D01*
X0049123Y0039009D02*
X0049048Y0039009D01*
X0049081Y0040008D02*
X0043962Y0040008D01*
X0043962Y0041006D02*
X0048112Y0041006D01*
X0047200Y0042005D02*
X0043962Y0042005D01*
X0043563Y0043003D02*
X0047200Y0043003D01*
X0047200Y0044002D02*
X0028800Y0044002D01*
X0028800Y0045000D02*
X0047200Y0045000D01*
X0047200Y0045999D02*
X0028800Y0045999D01*
X0028800Y0046997D02*
X0031056Y0046997D01*
X0030538Y0047996D02*
X0028506Y0047996D01*
X0027508Y0048994D02*
X0030538Y0048994D01*
X0030538Y0049993D02*
X0025918Y0049993D01*
X0024609Y0055610D02*
X0021725Y0055610D01*
X0021900Y0056033D01*
X0021900Y0057018D01*
X0027392Y0062510D01*
X0037108Y0062510D01*
X0038889Y0060728D01*
X0037934Y0060728D01*
X0037410Y0060205D01*
X0037269Y0060450D01*
X0036990Y0060729D01*
X0036648Y0060926D01*
X0036266Y0061028D01*
X0034388Y0061028D01*
X0034388Y0058044D01*
X0033419Y0058044D01*
X0033419Y0057076D01*
X0030238Y0057076D01*
X0030238Y0055610D01*
X0029891Y0055610D01*
X0029497Y0056561D01*
X0028751Y0057307D01*
X0027777Y0057710D01*
X0026723Y0057710D01*
X0025749Y0057307D01*
X0025003Y0056561D01*
X0024609Y0055610D01*
X0024764Y0055984D02*
X0021880Y0055984D01*
X0021900Y0056983D02*
X0025425Y0056983D01*
X0023862Y0058980D02*
X0030238Y0058980D01*
X0030238Y0059726D02*
X0030238Y0058044D01*
X0033419Y0058044D01*
X0033419Y0061028D01*
X0031541Y0061028D01*
X0031159Y0060926D01*
X0030817Y0060729D01*
X0030538Y0060450D01*
X0030340Y0060107D01*
X0030238Y0059726D01*
X0030306Y0059978D02*
X0024860Y0059978D01*
X0025859Y0060977D02*
X0031347Y0060977D01*
X0033419Y0060977D02*
X0034388Y0060977D01*
X0034388Y0059978D02*
X0033419Y0059978D01*
X0033419Y0058980D02*
X0034388Y0058980D01*
X0033419Y0057981D02*
X0022863Y0057981D01*
X0020476Y0059978D02*
X0019593Y0059978D01*
X0019173Y0059251D02*
X0019173Y0059251D01*
X0019173Y0059251D01*
X0020169Y0060977D02*
X0021475Y0060977D01*
X0020742Y0061969D02*
X0020742Y0061969D01*
X0020743Y0061975D02*
X0022473Y0061975D01*
X0023472Y0062974D02*
X0020919Y0062974D01*
X0021095Y0063972D02*
X0024470Y0063972D01*
X0025469Y0064971D02*
X0021272Y0064971D01*
X0021287Y0065060D02*
X0021287Y0065060D01*
X0026857Y0061975D02*
X0037643Y0061975D01*
X0038641Y0060977D02*
X0036460Y0060977D01*
X0030238Y0056983D02*
X0029075Y0056983D01*
X0029736Y0055984D02*
X0030238Y0055984D01*
X0030937Y0043003D02*
X0028800Y0043003D01*
X0028800Y0042005D02*
X0030538Y0042005D01*
X0030538Y0041006D02*
X0028800Y0041006D01*
X0028800Y0040008D02*
X0030538Y0040008D01*
X0030538Y0039009D02*
X0028800Y0039009D01*
X0028800Y0038011D02*
X0030509Y0038011D01*
X0029510Y0037012D02*
X0029045Y0037012D01*
X0038800Y0036014D02*
X0039104Y0036014D01*
X0043962Y0039009D02*
X0045452Y0039009D01*
X0047200Y0046997D02*
X0043444Y0046997D01*
X0054794Y0045000D02*
X0070650Y0045000D01*
X0070650Y0044002D02*
X0065238Y0044002D01*
X0066236Y0043003D02*
X0070650Y0043003D01*
X0070650Y0042005D02*
X0066748Y0042005D01*
X0067150Y0041006D02*
X0070650Y0041006D01*
X0070650Y0040008D02*
X0067150Y0040008D01*
X0067119Y0039009D02*
X0070650Y0039009D01*
X0070650Y0038011D02*
X0066705Y0038011D01*
X0066132Y0037012D02*
X0070650Y0037012D01*
X0070650Y0036014D02*
X0065133Y0036014D01*
X0065119Y0045999D02*
X0070650Y0045999D01*
X0070650Y0046997D02*
X0066117Y0046997D01*
X0066699Y0047996D02*
X0070650Y0047996D01*
X0070650Y0048994D02*
X0067112Y0048994D01*
X0067150Y0049993D02*
X0070650Y0049993D01*
X0070650Y0050992D02*
X0067150Y0050992D01*
X0066754Y0051990D02*
X0070650Y0051990D01*
X0070650Y0052989D02*
X0066251Y0052989D01*
X0065253Y0053987D02*
X0070650Y0053987D01*
X0070650Y0056983D02*
X0066079Y0056983D01*
X0066769Y0057233D02*
X0066769Y0057233D01*
X0067660Y0057981D02*
X0070650Y0057981D01*
X0070650Y0058980D02*
X0068850Y0058980D01*
X0069173Y0059251D02*
X0069173Y0059251D01*
X0069173Y0059251D01*
X0069593Y0059978D02*
X0070650Y0059978D01*
X0070650Y0060977D02*
X0070169Y0060977D01*
X0044200Y0085939D02*
X0040300Y0085939D01*
X0041299Y0084941D02*
X0043201Y0084941D01*
X0042726Y0083942D02*
X0041774Y0083942D01*
X0042150Y0082944D02*
X0042350Y0082944D01*
X0042350Y0081945D02*
X0042150Y0081945D01*
X0042093Y0080947D02*
X0042407Y0080947D01*
X0042821Y0079948D02*
X0041679Y0079948D01*
X0041069Y0078950D02*
X0043431Y0078950D01*
X0044307Y0014047D02*
X0040193Y0014047D01*
X0041192Y0013048D02*
X0043308Y0013048D01*
X0042770Y0012050D02*
X0041730Y0012050D01*
X0042143Y0011051D02*
X0042357Y0011051D01*
X0042350Y0010053D02*
X0042150Y0010053D01*
X0042137Y0009054D02*
X0042363Y0009054D01*
X0042777Y0008056D02*
X0041723Y0008056D01*
X0041177Y0007057D02*
X0043323Y0007057D01*
X0050193Y0014047D02*
X0054307Y0014047D01*
X0053308Y0013048D02*
X0051192Y0013048D01*
X0051730Y0012050D02*
X0052770Y0012050D01*
X0052357Y0011051D02*
X0052143Y0011051D01*
X0052150Y0010053D02*
X0052350Y0010053D01*
X0052363Y0009054D02*
X0052137Y0009054D01*
X0051723Y0008056D02*
X0052777Y0008056D01*
X0053323Y0007057D02*
X0051177Y0007057D01*
X0135593Y0089933D02*
X0142650Y0089933D01*
X0142650Y0088935D02*
X0136856Y0088935D01*
X0137317Y0087936D02*
X0142650Y0087936D01*
X0142650Y0086938D02*
X0141065Y0086938D01*
X0139750Y0086938D02*
X0138750Y0086938D01*
X0138750Y0085939D02*
X0139750Y0085939D01*
X0139750Y0084941D02*
X0138750Y0084941D01*
X0138750Y0083942D02*
X0139750Y0083942D01*
X0139750Y0082944D02*
X0138750Y0082944D01*
X0137435Y0086938D02*
X0137418Y0086938D01*
X0160570Y0072959D02*
X0201930Y0072959D01*
X0201731Y0072887D02*
X0201731Y0072887D01*
X0200627Y0071960D02*
X0161873Y0071960D01*
X0163063Y0070962D02*
X0199438Y0070962D01*
X0199327Y0070869D02*
X0199327Y0070869D01*
X0199327Y0070869D01*
X0198804Y0069963D02*
X0163696Y0069963D01*
X0164272Y0068965D02*
X0198228Y0068965D01*
X0197725Y0067966D02*
X0164775Y0067966D01*
X0164742Y0068151D02*
X0164742Y0068151D01*
X0164951Y0066968D02*
X0197549Y0066968D01*
X0197720Y0078660D02*
X0194780Y0078660D01*
X0195404Y0079284D01*
X0196150Y0081085D01*
X0196150Y0083035D01*
X0195404Y0084836D01*
X0194026Y0086214D01*
X0192225Y0086960D01*
X0190275Y0086960D01*
X0188474Y0086214D01*
X0187096Y0084836D01*
X0186350Y0083035D01*
X0186350Y0081085D01*
X0187096Y0079284D01*
X0187720Y0078660D01*
X0184780Y0078660D01*
X0185404Y0079284D01*
X0186150Y0081085D01*
X0186150Y0083035D01*
X0185404Y0084836D01*
X0184026Y0086214D01*
X0182225Y0086960D01*
X0180275Y0086960D01*
X0178474Y0086214D01*
X0177096Y0084836D01*
X0176350Y0083035D01*
X0176350Y0081085D01*
X0177096Y0079284D01*
X0177720Y0078660D01*
X0174780Y0078660D01*
X0175404Y0079284D01*
X0176150Y0081085D01*
X0176150Y0083035D01*
X0175404Y0084836D01*
X0174026Y0086214D01*
X0173015Y0086633D01*
X0176892Y0090510D01*
X0184052Y0090510D01*
X0184749Y0089813D01*
X0185723Y0089410D01*
X0186777Y0089410D01*
X0187751Y0089813D01*
X0188497Y0090559D01*
X0188900Y0091533D01*
X0188900Y0092587D01*
X0188497Y0093561D01*
X0187800Y0094258D01*
X0187800Y0097702D01*
X0186954Y0098548D01*
X0186954Y0098891D01*
X0188066Y0098891D01*
X0188590Y0099415D01*
X0188731Y0099170D01*
X0189010Y0098891D01*
X0189352Y0098694D01*
X0189734Y0098591D01*
X0191612Y0098591D01*
X0191612Y0101576D01*
X0192581Y0101576D01*
X0192581Y0102544D01*
X0195762Y0102544D01*
X0195762Y0104226D01*
X0195660Y0104607D01*
X0195462Y0104950D01*
X0195183Y0105229D01*
X0194841Y0105426D01*
X0194459Y0105528D01*
X0192581Y0105528D01*
X0192581Y0102544D01*
X0191612Y0102544D01*
X0191612Y0105528D01*
X0189734Y0105528D01*
X0189352Y0105426D01*
X0189010Y0105229D01*
X0188731Y0104950D01*
X0188590Y0104705D01*
X0188066Y0105228D01*
X0182800Y0105228D01*
X0182800Y0108318D01*
X0183608Y0107510D01*
X0189052Y0107510D01*
X0189749Y0106813D01*
X0190723Y0106410D01*
X0191777Y0106410D01*
X0192751Y0106813D01*
X0193497Y0107559D01*
X0193900Y0108533D01*
X0193900Y0109587D01*
X0193497Y0110561D01*
X0192751Y0111307D01*
X0191777Y0111710D01*
X0190723Y0111710D01*
X0189749Y0111307D01*
X0189052Y0110610D01*
X0187717Y0110610D01*
X0187962Y0110854D01*
X0187962Y0114604D01*
X0187259Y0115307D01*
X0175241Y0115307D01*
X0174538Y0114604D01*
X0174538Y0110854D01*
X0174945Y0110447D01*
X0173278Y0108780D01*
X0172800Y0109258D01*
X0172800Y0119702D01*
X0171892Y0120610D01*
X0170546Y0121956D01*
X0169918Y0121956D01*
X0169918Y0122510D01*
X0174538Y0122510D01*
X0174538Y0119516D01*
X0175241Y0118813D01*
X0187259Y0118813D01*
X0187962Y0119516D01*
X0187962Y0119841D01*
X0191200Y0119841D01*
X0191200Y0113918D01*
X0192108Y0113010D01*
X0192954Y0112164D01*
X0193081Y0112164D01*
X0193081Y0111051D01*
X0193784Y0110348D01*
X0194700Y0110348D01*
X0194700Y0105918D01*
X0195608Y0105010D01*
X0199700Y0100918D01*
X0199700Y0086722D01*
X0198474Y0086214D01*
X0197096Y0084836D01*
X0196350Y0083035D01*
X0196350Y0081085D01*
X0197096Y0079284D01*
X0197720Y0078660D01*
X0197431Y0078950D02*
X0195069Y0078950D01*
X0195679Y0079948D02*
X0196821Y0079948D01*
X0196407Y0080947D02*
X0196093Y0080947D01*
X0196150Y0081945D02*
X0196350Y0081945D01*
X0196350Y0082944D02*
X0196150Y0082944D01*
X0195774Y0083942D02*
X0196726Y0083942D01*
X0197201Y0084941D02*
X0195299Y0084941D01*
X0194300Y0085939D02*
X0198200Y0085939D01*
X0199700Y0086938D02*
X0192278Y0086938D01*
X0190222Y0086938D02*
X0182278Y0086938D01*
X0180222Y0086938D02*
X0173320Y0086938D01*
X0174300Y0085939D02*
X0178200Y0085939D01*
X0177201Y0084941D02*
X0175299Y0084941D01*
X0175774Y0083942D02*
X0176726Y0083942D01*
X0176350Y0082944D02*
X0176150Y0082944D01*
X0176150Y0081945D02*
X0176350Y0081945D01*
X0176407Y0080947D02*
X0176093Y0080947D01*
X0175679Y0079948D02*
X0176821Y0079948D01*
X0177431Y0078950D02*
X0175069Y0078950D01*
X0174318Y0087936D02*
X0199700Y0087936D01*
X0199700Y0088935D02*
X0175317Y0088935D01*
X0176315Y0089933D02*
X0184629Y0089933D01*
X0187871Y0089933D02*
X0199700Y0089933D01*
X0199700Y0090932D02*
X0188651Y0090932D01*
X0188900Y0091930D02*
X0199700Y0091930D01*
X0199700Y0092929D02*
X0188758Y0092929D01*
X0188130Y0093927D02*
X0199700Y0093927D01*
X0199700Y0094926D02*
X0187800Y0094926D01*
X0187800Y0095925D02*
X0199700Y0095925D01*
X0199700Y0096923D02*
X0187800Y0096923D01*
X0187580Y0097922D02*
X0199700Y0097922D01*
X0199700Y0098920D02*
X0195212Y0098920D01*
X0195183Y0098891D02*
X0195462Y0099170D01*
X0195660Y0099512D01*
X0195762Y0099894D01*
X0195762Y0101576D01*
X0192581Y0101576D01*
X0192581Y0098591D01*
X0194459Y0098591D01*
X0194841Y0098694D01*
X0195183Y0098891D01*
X0195762Y0099919D02*
X0199700Y0099919D01*
X0199700Y0100917D02*
X0195762Y0100917D01*
X0195762Y0102914D02*
X0197704Y0102914D01*
X0198702Y0101916D02*
X0192581Y0101916D01*
X0192581Y0102914D02*
X0191612Y0102914D01*
X0191612Y0103913D02*
X0192581Y0103913D01*
X0192581Y0104911D02*
X0191612Y0104911D01*
X0192846Y0106908D02*
X0194700Y0106908D01*
X0194708Y0105910D02*
X0182800Y0105910D01*
X0182800Y0106908D02*
X0189654Y0106908D01*
X0188709Y0104911D02*
X0188383Y0104911D01*
X0191612Y0100917D02*
X0192581Y0100917D01*
X0192581Y0099919D02*
X0191612Y0099919D01*
X0191612Y0098920D02*
X0192581Y0098920D01*
X0188981Y0098920D02*
X0188095Y0098920D01*
X0195762Y0103913D02*
X0196705Y0103913D01*
X0195707Y0104911D02*
X0195484Y0104911D01*
X0194700Y0107907D02*
X0193641Y0107907D01*
X0193900Y0108905D02*
X0194700Y0108905D01*
X0194700Y0109904D02*
X0193769Y0109904D01*
X0193230Y0110902D02*
X0193155Y0110902D01*
X0193081Y0111901D02*
X0187962Y0111901D01*
X0187962Y0112899D02*
X0192219Y0112899D01*
X0191220Y0113898D02*
X0187962Y0113898D01*
X0187670Y0114896D02*
X0191200Y0114896D01*
X0191200Y0115895D02*
X0172800Y0115895D01*
X0172800Y0116893D02*
X0191200Y0116893D01*
X0191200Y0117892D02*
X0172800Y0117892D01*
X0172800Y0118890D02*
X0175164Y0118890D01*
X0174538Y0119889D02*
X0172613Y0119889D01*
X0171615Y0120887D02*
X0174538Y0120887D01*
X0174538Y0121886D02*
X0170616Y0121886D01*
X0168609Y0127610D02*
X0165725Y0127610D01*
X0165900Y0128033D01*
X0165900Y0129018D01*
X0171392Y0134510D01*
X0181108Y0134510D01*
X0182889Y0132728D01*
X0181934Y0132728D01*
X0181410Y0132205D01*
X0181269Y0132450D01*
X0180990Y0132729D01*
X0180648Y0132926D01*
X0180266Y0133028D01*
X0178388Y0133028D01*
X0178388Y0130044D01*
X0177419Y0130044D01*
X0177419Y0129076D01*
X0174238Y0129076D01*
X0174238Y0127610D01*
X0173891Y0127610D01*
X0173497Y0128561D01*
X0172751Y0129307D01*
X0171777Y0129710D01*
X0170723Y0129710D01*
X0169749Y0129307D01*
X0169003Y0128561D01*
X0168609Y0127610D01*
X0168720Y0127877D02*
X0165835Y0127877D01*
X0165900Y0128875D02*
X0169318Y0128875D01*
X0167754Y0130872D02*
X0174238Y0130872D01*
X0174238Y0130044D02*
X0174238Y0131726D01*
X0174340Y0132107D01*
X0174538Y0132450D01*
X0174817Y0132729D01*
X0175159Y0132926D01*
X0175541Y0133028D01*
X0177419Y0133028D01*
X0177419Y0130044D01*
X0174238Y0130044D01*
X0174238Y0128875D02*
X0173182Y0128875D01*
X0173780Y0127877D02*
X0174238Y0127877D01*
X0177419Y0129874D02*
X0166756Y0129874D01*
X0168753Y0131871D02*
X0174277Y0131871D01*
X0175061Y0132869D02*
X0169751Y0132869D01*
X0170750Y0133868D02*
X0181750Y0133868D01*
X0182749Y0132869D02*
X0180746Y0132869D01*
X0178388Y0132869D02*
X0177419Y0132869D01*
X0177419Y0131871D02*
X0178388Y0131871D01*
X0178388Y0130872D02*
X0177419Y0130872D01*
X0183139Y0136863D02*
X0197247Y0136863D01*
X0197213Y0137060D02*
X0197758Y0133969D01*
X0199327Y0131251D01*
X0199327Y0131251D01*
X0201731Y0129233D01*
X0204681Y0128160D01*
X0207819Y0128160D01*
X0210769Y0129233D01*
X0213173Y0131251D01*
X0214650Y0133809D01*
X0214650Y0086014D01*
X0214638Y0086026D01*
X0213975Y0086507D01*
X0213246Y0086879D01*
X0212468Y0087132D01*
X0211750Y0087246D01*
X0211750Y0082560D01*
X0210750Y0082560D01*
X0210750Y0087246D01*
X0210032Y0087132D01*
X0209418Y0086932D01*
X0209418Y0087690D01*
X0208936Y0088855D01*
X0208045Y0089746D01*
X0206880Y0090228D01*
X0205620Y0090228D01*
X0204455Y0089746D01*
X0203564Y0088855D01*
X0203081Y0087690D01*
X0203081Y0086605D01*
X0202800Y0086722D01*
X0202800Y0102202D01*
X0197800Y0107202D01*
X0197800Y0110348D01*
X0198716Y0110348D01*
X0199418Y0111051D01*
X0199418Y0116376D01*
X0198734Y0117060D01*
X0199418Y0117744D01*
X0199418Y0118856D01*
X0200238Y0118856D01*
X0201677Y0120295D01*
X0202096Y0119284D01*
X0203474Y0117906D01*
X0205275Y0117160D01*
X0207225Y0117160D01*
X0209026Y0117906D01*
X0210404Y0119284D01*
X0211150Y0121085D01*
X0211150Y0123035D01*
X0210404Y0124836D01*
X0209026Y0126214D01*
X0207225Y0126960D01*
X0205275Y0126960D01*
X0203474Y0126214D01*
X0202096Y0124836D01*
X0201588Y0123610D01*
X0200608Y0123610D01*
X0199700Y0122702D01*
X0199418Y0122420D01*
X0199418Y0123069D01*
X0198716Y0123772D01*
X0194300Y0123772D01*
X0194300Y0127202D01*
X0190392Y0131110D01*
X0187962Y0131110D01*
X0187962Y0132026D01*
X0187259Y0132728D01*
X0186146Y0132728D01*
X0186146Y0133856D01*
X0185238Y0134764D01*
X0182392Y0137610D01*
X0170108Y0137610D01*
X0163708Y0131210D01*
X0163124Y0131210D01*
X0163173Y0131251D01*
X0164742Y0133969D01*
X0165287Y0137060D01*
X0164742Y0140151D01*
X0163173Y0142869D01*
X0163173Y0142869D01*
X0160769Y0144887D01*
X0160769Y0144887D01*
X0159193Y0145460D01*
X0203307Y0145460D01*
X0201731Y0144887D01*
X0199327Y0142869D01*
X0197758Y0140151D01*
X0197758Y0140151D01*
X0197213Y0137060D01*
X0197213Y0137060D01*
X0197354Y0137862D02*
X0165146Y0137862D01*
X0165287Y0137060D02*
X0165287Y0137060D01*
X0165253Y0136863D02*
X0169361Y0136863D01*
X0168363Y0135865D02*
X0165077Y0135865D01*
X0164901Y0134866D02*
X0167364Y0134866D01*
X0166366Y0133868D02*
X0164684Y0133868D01*
X0164742Y0133969D02*
X0164742Y0133969D01*
X0165367Y0132869D02*
X0164107Y0132869D01*
X0164369Y0131871D02*
X0163531Y0131871D01*
X0163173Y0131251D02*
X0163173Y0131251D01*
X0163173Y0131251D01*
X0164970Y0138861D02*
X0197530Y0138861D01*
X0197706Y0139859D02*
X0164794Y0139859D01*
X0164742Y0140151D02*
X0164742Y0140151D01*
X0164334Y0140858D02*
X0198166Y0140858D01*
X0198742Y0141856D02*
X0163758Y0141856D01*
X0163181Y0142855D02*
X0199319Y0142855D01*
X0199327Y0142869D02*
X0199327Y0142869D01*
X0199327Y0142869D01*
X0200500Y0143853D02*
X0162000Y0143853D01*
X0160810Y0144852D02*
X0201690Y0144852D01*
X0201731Y0144887D02*
X0201731Y0144887D01*
X0197720Y0150660D02*
X0194780Y0150660D01*
X0195404Y0151284D01*
X0196150Y0153085D01*
X0196150Y0155035D01*
X0195404Y0156836D01*
X0194026Y0158214D01*
X0192225Y0158960D01*
X0190275Y0158960D01*
X0188474Y0158214D01*
X0187096Y0156836D01*
X0186350Y0155035D01*
X0186350Y0153085D01*
X0187096Y0151284D01*
X0187720Y0150660D01*
X0184780Y0150660D01*
X0185404Y0151284D01*
X0186150Y0153085D01*
X0186150Y0155035D01*
X0185404Y0156836D01*
X0184026Y0158214D01*
X0182225Y0158960D01*
X0180275Y0158960D01*
X0178474Y0158214D01*
X0177096Y0156836D01*
X0176350Y0155035D01*
X0176350Y0153085D01*
X0177096Y0151284D01*
X0177720Y0150660D01*
X0174780Y0150660D01*
X0175404Y0151284D01*
X0176150Y0153085D01*
X0176150Y0155035D01*
X0175404Y0156836D01*
X0174026Y0158214D01*
X0173015Y0158633D01*
X0176892Y0162510D01*
X0184052Y0162510D01*
X0184749Y0161813D01*
X0185723Y0161410D01*
X0186777Y0161410D01*
X0187751Y0161813D01*
X0188497Y0162559D01*
X0188900Y0163533D01*
X0188900Y0164587D01*
X0188497Y0165561D01*
X0187800Y0166258D01*
X0187800Y0169702D01*
X0186954Y0170548D01*
X0186954Y0170891D01*
X0188066Y0170891D01*
X0188590Y0171415D01*
X0188731Y0171170D01*
X0189010Y0170891D01*
X0189352Y0170694D01*
X0189734Y0170591D01*
X0191612Y0170591D01*
X0191612Y0173576D01*
X0192581Y0173576D01*
X0192581Y0174544D01*
X0195762Y0174544D01*
X0195762Y0176226D01*
X0195660Y0176607D01*
X0195462Y0176950D01*
X0195183Y0177229D01*
X0194841Y0177426D01*
X0194459Y0177528D01*
X0192581Y0177528D01*
X0192581Y0174544D01*
X0191612Y0174544D01*
X0191612Y0177528D01*
X0189734Y0177528D01*
X0189352Y0177426D01*
X0189010Y0177229D01*
X0188731Y0176950D01*
X0188590Y0176705D01*
X0188066Y0177228D01*
X0182800Y0177228D01*
X0182800Y0180318D01*
X0182970Y0180148D01*
X0183608Y0179510D01*
X0189052Y0179510D01*
X0189749Y0178813D01*
X0190723Y0178410D01*
X0191777Y0178410D01*
X0192751Y0178813D01*
X0193497Y0179559D01*
X0193900Y0180533D01*
X0193900Y0181587D01*
X0193497Y0182561D01*
X0192751Y0183307D01*
X0191777Y0183710D01*
X0190723Y0183710D01*
X0189749Y0183307D01*
X0189052Y0182610D01*
X0187717Y0182610D01*
X0187962Y0182854D01*
X0187962Y0186604D01*
X0187259Y0187307D01*
X0175241Y0187307D01*
X0174538Y0186604D01*
X0174538Y0182854D01*
X0174945Y0182447D01*
X0173278Y0180780D01*
X0172800Y0181258D01*
X0172800Y0191702D01*
X0171892Y0192610D01*
X0170546Y0193956D01*
X0169918Y0193956D01*
X0169918Y0194510D01*
X0174538Y0194510D01*
X0174538Y0191516D01*
X0175241Y0190813D01*
X0187259Y0190813D01*
X0187962Y0191516D01*
X0187962Y0191841D01*
X0191200Y0191841D01*
X0191200Y0185918D01*
X0192108Y0185010D01*
X0192954Y0184164D01*
X0193081Y0184164D01*
X0193081Y0183051D01*
X0193784Y0182348D01*
X0194700Y0182348D01*
X0194700Y0177918D01*
X0195608Y0177010D01*
X0199700Y0172918D01*
X0199700Y0158722D01*
X0198474Y0158214D01*
X0197096Y0156836D01*
X0196350Y0155035D01*
X0196350Y0153085D01*
X0197096Y0151284D01*
X0197720Y0150660D01*
X0197538Y0150843D02*
X0194962Y0150843D01*
X0195635Y0151841D02*
X0196865Y0151841D01*
X0196452Y0152840D02*
X0196048Y0152840D01*
X0196150Y0153838D02*
X0196350Y0153838D01*
X0196350Y0154837D02*
X0196150Y0154837D01*
X0195818Y0155835D02*
X0196682Y0155835D01*
X0197095Y0156834D02*
X0195405Y0156834D01*
X0194407Y0157832D02*
X0198093Y0157832D01*
X0199700Y0158831D02*
X0192537Y0158831D01*
X0189963Y0158831D02*
X0182537Y0158831D01*
X0184407Y0157832D02*
X0188093Y0157832D01*
X0187095Y0156834D02*
X0185405Y0156834D01*
X0185818Y0155835D02*
X0186682Y0155835D01*
X0186350Y0154837D02*
X0186150Y0154837D01*
X0186150Y0153838D02*
X0186350Y0153838D01*
X0186452Y0152840D02*
X0186048Y0152840D01*
X0185635Y0151841D02*
X0186865Y0151841D01*
X0187538Y0150843D02*
X0184962Y0150843D01*
X0179963Y0158831D02*
X0173213Y0158831D01*
X0174211Y0159829D02*
X0199700Y0159829D01*
X0199700Y0160828D02*
X0175210Y0160828D01*
X0176208Y0161826D02*
X0184736Y0161826D01*
X0187764Y0161826D02*
X0199700Y0161826D01*
X0199700Y0162825D02*
X0188607Y0162825D01*
X0188900Y0163823D02*
X0199700Y0163823D01*
X0199700Y0164822D02*
X0188803Y0164822D01*
X0188237Y0165820D02*
X0199700Y0165820D01*
X0199700Y0166819D02*
X0187800Y0166819D01*
X0187800Y0167817D02*
X0199700Y0167817D01*
X0199700Y0168816D02*
X0187800Y0168816D01*
X0187688Y0169814D02*
X0199700Y0169814D01*
X0199700Y0170813D02*
X0195047Y0170813D01*
X0195183Y0170891D02*
X0194841Y0170694D01*
X0194459Y0170591D01*
X0192581Y0170591D01*
X0192581Y0173576D01*
X0195762Y0173576D01*
X0195762Y0171894D01*
X0195660Y0171513D01*
X0195462Y0171170D01*
X0195183Y0170891D01*
X0195740Y0171811D02*
X0199700Y0171811D01*
X0199700Y0172810D02*
X0195762Y0172810D01*
X0195762Y0174807D02*
X0197811Y0174807D01*
X0196813Y0175805D02*
X0195762Y0175805D01*
X0195814Y0176804D02*
X0195546Y0176804D01*
X0194816Y0177802D02*
X0182800Y0177802D01*
X0182800Y0178801D02*
X0189779Y0178801D01*
X0188647Y0176804D02*
X0188490Y0176804D01*
X0191612Y0176804D02*
X0192581Y0176804D01*
X0192581Y0175805D02*
X0191612Y0175805D01*
X0191612Y0174807D02*
X0192581Y0174807D01*
X0192581Y0173808D02*
X0198810Y0173808D01*
X0201197Y0175805D02*
X0214650Y0175805D01*
X0214650Y0174807D02*
X0202195Y0174807D01*
X0202800Y0174202D02*
X0197800Y0179202D01*
X0197800Y0182348D01*
X0198716Y0182348D01*
X0199418Y0183051D01*
X0199418Y0188376D01*
X0198734Y0189060D01*
X0199418Y0189744D01*
X0199418Y0190856D01*
X0200238Y0190856D01*
X0201677Y0192295D01*
X0202096Y0191284D01*
X0203474Y0189906D01*
X0205275Y0189160D01*
X0207225Y0189160D01*
X0209026Y0189906D01*
X0210404Y0191284D01*
X0211150Y0193085D01*
X0211150Y0195035D01*
X0210404Y0196836D01*
X0209026Y0198214D01*
X0207225Y0198960D01*
X0205275Y0198960D01*
X0203474Y0198214D01*
X0202096Y0196836D01*
X0201588Y0195610D01*
X0200608Y0195610D01*
X0199700Y0194702D01*
X0199418Y0194420D01*
X0199418Y0195069D01*
X0198716Y0195772D01*
X0194300Y0195772D01*
X0194300Y0199202D01*
X0190392Y0203110D01*
X0187962Y0203110D01*
X0187962Y0204026D01*
X0187259Y0204728D01*
X0186146Y0204728D01*
X0186146Y0205856D01*
X0185238Y0206764D01*
X0182392Y0209610D01*
X0170108Y0209610D01*
X0163708Y0203210D01*
X0163124Y0203210D01*
X0163173Y0203251D01*
X0164742Y0205969D01*
X0165287Y0209060D01*
X0164742Y0212151D01*
X0163173Y0214869D01*
X0163173Y0214869D01*
X0160769Y0216887D01*
X0160769Y0216887D01*
X0159193Y0217460D01*
X0203307Y0217460D01*
X0201731Y0216887D01*
X0199327Y0214869D01*
X0197758Y0212151D01*
X0197758Y0212151D01*
X0197213Y0209060D01*
X0197758Y0205969D01*
X0199327Y0203251D01*
X0199327Y0203251D01*
X0201731Y0201233D01*
X0204681Y0200160D01*
X0207819Y0200160D01*
X0210769Y0201233D01*
X0213173Y0203251D01*
X0214650Y0205809D01*
X0214650Y0158014D01*
X0214638Y0158026D01*
X0213975Y0158507D01*
X0213246Y0158879D01*
X0212468Y0159132D01*
X0211750Y0159246D01*
X0211750Y0154560D01*
X0210750Y0154560D01*
X0210750Y0159246D01*
X0210032Y0159132D01*
X0209418Y0158932D01*
X0209418Y0159690D01*
X0208936Y0160855D01*
X0208045Y0161746D01*
X0206880Y0162228D01*
X0205620Y0162228D01*
X0204455Y0161746D01*
X0203564Y0160855D01*
X0203081Y0159690D01*
X0203081Y0158605D01*
X0202800Y0158722D01*
X0202800Y0174202D01*
X0202800Y0173808D02*
X0214650Y0173808D01*
X0214650Y0172810D02*
X0202800Y0172810D01*
X0202800Y0171811D02*
X0214650Y0171811D01*
X0214650Y0170813D02*
X0202800Y0170813D01*
X0202800Y0169814D02*
X0214650Y0169814D01*
X0214650Y0168816D02*
X0202800Y0168816D01*
X0202800Y0167817D02*
X0214650Y0167817D01*
X0214650Y0166819D02*
X0202800Y0166819D01*
X0202800Y0165820D02*
X0214650Y0165820D01*
X0214650Y0164822D02*
X0202800Y0164822D01*
X0202800Y0163823D02*
X0214650Y0163823D01*
X0214650Y0162825D02*
X0202800Y0162825D01*
X0202800Y0161826D02*
X0204649Y0161826D01*
X0203553Y0160828D02*
X0202800Y0160828D01*
X0202800Y0159829D02*
X0203139Y0159829D01*
X0203081Y0158831D02*
X0202800Y0158831D01*
X0207851Y0161826D02*
X0214650Y0161826D01*
X0214650Y0160828D02*
X0208947Y0160828D01*
X0209361Y0159829D02*
X0214650Y0159829D01*
X0214650Y0158831D02*
X0213341Y0158831D01*
X0211750Y0158831D02*
X0210750Y0158831D01*
X0210750Y0157832D02*
X0211750Y0157832D01*
X0211750Y0156834D02*
X0210750Y0156834D01*
X0210750Y0155835D02*
X0211750Y0155835D01*
X0211750Y0154837D02*
X0210750Y0154837D01*
X0197423Y0135865D02*
X0184137Y0135865D01*
X0185136Y0134866D02*
X0197599Y0134866D01*
X0197758Y0133969D02*
X0197758Y0133969D01*
X0197816Y0133868D02*
X0186134Y0133868D01*
X0186146Y0132869D02*
X0198393Y0132869D01*
X0198969Y0131871D02*
X0187962Y0131871D01*
X0190630Y0130872D02*
X0199778Y0130872D01*
X0200968Y0129874D02*
X0191628Y0129874D01*
X0192627Y0128875D02*
X0202715Y0128875D01*
X0201731Y0129233D02*
X0201731Y0129233D01*
X0205078Y0126878D02*
X0194300Y0126878D01*
X0194300Y0125880D02*
X0203140Y0125880D01*
X0202142Y0124881D02*
X0194300Y0124881D01*
X0194300Y0123883D02*
X0201701Y0123883D01*
X0199882Y0122884D02*
X0199418Y0122884D01*
X0201271Y0119889D02*
X0201846Y0119889D01*
X0202490Y0118890D02*
X0200272Y0118890D01*
X0199418Y0117892D02*
X0203509Y0117892D01*
X0203474Y0116214D02*
X0202096Y0114836D01*
X0201350Y0113035D01*
X0201350Y0111085D01*
X0202096Y0109284D01*
X0203474Y0107906D01*
X0205275Y0107160D01*
X0207225Y0107160D01*
X0209026Y0107906D01*
X0210404Y0109284D01*
X0211150Y0111085D01*
X0211150Y0113035D01*
X0210404Y0114836D01*
X0209026Y0116214D01*
X0207225Y0116960D01*
X0205275Y0116960D01*
X0203474Y0116214D01*
X0203155Y0115895D02*
X0199418Y0115895D01*
X0199418Y0114896D02*
X0202157Y0114896D01*
X0201708Y0113898D02*
X0199418Y0113898D01*
X0199418Y0112899D02*
X0201350Y0112899D01*
X0201350Y0111901D02*
X0199418Y0111901D01*
X0199270Y0110902D02*
X0201426Y0110902D01*
X0201839Y0109904D02*
X0197800Y0109904D01*
X0197800Y0108905D02*
X0202475Y0108905D01*
X0203474Y0107907D02*
X0197800Y0107907D01*
X0198094Y0106908D02*
X0214650Y0106908D01*
X0214650Y0105910D02*
X0199092Y0105910D01*
X0200091Y0104911D02*
X0214650Y0104911D01*
X0214650Y0103913D02*
X0201089Y0103913D01*
X0202088Y0102914D02*
X0214650Y0102914D01*
X0214650Y0101916D02*
X0202800Y0101916D01*
X0202800Y0100917D02*
X0214650Y0100917D01*
X0214650Y0099919D02*
X0202800Y0099919D01*
X0202800Y0098920D02*
X0214650Y0098920D01*
X0214650Y0097922D02*
X0202800Y0097922D01*
X0202800Y0096923D02*
X0214650Y0096923D01*
X0214650Y0095925D02*
X0202800Y0095925D01*
X0202800Y0094926D02*
X0214650Y0094926D01*
X0214650Y0093927D02*
X0202800Y0093927D01*
X0202800Y0092929D02*
X0214650Y0092929D01*
X0214650Y0091930D02*
X0202800Y0091930D01*
X0202800Y0090932D02*
X0214650Y0090932D01*
X0214650Y0089933D02*
X0207593Y0089933D01*
X0208856Y0088935D02*
X0214650Y0088935D01*
X0214650Y0087936D02*
X0209317Y0087936D01*
X0209418Y0086938D02*
X0209435Y0086938D01*
X0210750Y0086938D02*
X0211750Y0086938D01*
X0211750Y0085939D02*
X0210750Y0085939D01*
X0210750Y0084941D02*
X0211750Y0084941D01*
X0211750Y0083942D02*
X0210750Y0083942D01*
X0210750Y0082944D02*
X0211750Y0082944D01*
X0213065Y0086938D02*
X0214650Y0086938D01*
X0204907Y0089933D02*
X0202800Y0089933D01*
X0202800Y0088935D02*
X0203644Y0088935D01*
X0203183Y0087936D02*
X0202800Y0087936D01*
X0202800Y0086938D02*
X0203081Y0086938D01*
X0188200Y0085939D02*
X0184300Y0085939D01*
X0185299Y0084941D02*
X0187201Y0084941D01*
X0186726Y0083942D02*
X0185774Y0083942D01*
X0186150Y0082944D02*
X0186350Y0082944D01*
X0186350Y0081945D02*
X0186150Y0081945D01*
X0186093Y0080947D02*
X0186407Y0080947D01*
X0186821Y0079948D02*
X0185679Y0079948D01*
X0185069Y0078950D02*
X0187431Y0078950D01*
X0183211Y0107907D02*
X0182800Y0107907D01*
X0187962Y0110902D02*
X0189345Y0110902D01*
X0191200Y0118890D02*
X0187336Y0118890D01*
X0193625Y0127877D02*
X0214650Y0127877D01*
X0214650Y0128875D02*
X0209785Y0128875D01*
X0210769Y0129233D02*
X0210769Y0129233D01*
X0211532Y0129874D02*
X0214650Y0129874D01*
X0214650Y0130872D02*
X0212722Y0130872D01*
X0213173Y0131251D02*
X0213173Y0131251D01*
X0213173Y0131251D01*
X0213531Y0131871D02*
X0214650Y0131871D01*
X0214650Y0132869D02*
X0214107Y0132869D01*
X0214650Y0126878D02*
X0207422Y0126878D01*
X0209360Y0125880D02*
X0214650Y0125880D01*
X0214650Y0124881D02*
X0210358Y0124881D01*
X0210799Y0123883D02*
X0214650Y0123883D01*
X0214650Y0122884D02*
X0211150Y0122884D01*
X0211150Y0121886D02*
X0214650Y0121886D01*
X0214650Y0120887D02*
X0211068Y0120887D01*
X0210654Y0119889D02*
X0214650Y0119889D01*
X0214650Y0118890D02*
X0210010Y0118890D01*
X0208991Y0117892D02*
X0214650Y0117892D01*
X0214650Y0116893D02*
X0207386Y0116893D01*
X0209345Y0115895D02*
X0214650Y0115895D01*
X0214650Y0114896D02*
X0210343Y0114896D01*
X0210792Y0113898D02*
X0214650Y0113898D01*
X0214650Y0112899D02*
X0211150Y0112899D01*
X0211150Y0111901D02*
X0214650Y0111901D01*
X0214650Y0110902D02*
X0211074Y0110902D01*
X0210661Y0109904D02*
X0214650Y0109904D01*
X0214650Y0108905D02*
X0210025Y0108905D01*
X0209026Y0107907D02*
X0214650Y0107907D01*
X0205114Y0116893D02*
X0198901Y0116893D01*
X0174830Y0114896D02*
X0172800Y0114896D01*
X0172800Y0113898D02*
X0174538Y0113898D01*
X0174538Y0112899D02*
X0172800Y0112899D01*
X0172800Y0111901D02*
X0174538Y0111901D01*
X0174538Y0110902D02*
X0172800Y0110902D01*
X0172800Y0109904D02*
X0174402Y0109904D01*
X0173403Y0108905D02*
X0173152Y0108905D01*
X0142650Y0116893D02*
X0135386Y0116893D01*
X0138769Y0129233D02*
X0138769Y0129233D01*
X0139532Y0129874D02*
X0142650Y0129874D01*
X0142650Y0130872D02*
X0140722Y0130872D01*
X0141173Y0131251D02*
X0141173Y0131251D01*
X0141173Y0131251D01*
X0141531Y0131871D02*
X0142650Y0131871D01*
X0142650Y0132869D02*
X0142107Y0132869D01*
X0174962Y0150843D02*
X0177538Y0150843D01*
X0176865Y0151841D02*
X0175635Y0151841D01*
X0176048Y0152840D02*
X0176452Y0152840D01*
X0176350Y0153838D02*
X0176150Y0153838D01*
X0176150Y0154837D02*
X0176350Y0154837D01*
X0176682Y0155835D02*
X0175818Y0155835D01*
X0175405Y0156834D02*
X0177095Y0156834D01*
X0178093Y0157832D02*
X0174407Y0157832D01*
X0186954Y0170813D02*
X0189146Y0170813D01*
X0191612Y0170813D02*
X0192581Y0170813D01*
X0192581Y0171811D02*
X0191612Y0171811D01*
X0191612Y0172810D02*
X0192581Y0172810D01*
X0192721Y0178801D02*
X0194700Y0178801D01*
X0194700Y0179799D02*
X0193596Y0179799D01*
X0193900Y0180798D02*
X0194700Y0180798D01*
X0194700Y0181796D02*
X0193813Y0181796D01*
X0193338Y0182795D02*
X0193263Y0182795D01*
X0193081Y0183794D02*
X0187962Y0183794D01*
X0187962Y0184792D02*
X0192326Y0184792D01*
X0191327Y0185791D02*
X0187962Y0185791D01*
X0187777Y0186789D02*
X0191200Y0186789D01*
X0191200Y0187788D02*
X0172800Y0187788D01*
X0172800Y0188786D02*
X0191200Y0188786D01*
X0191200Y0189785D02*
X0172800Y0189785D01*
X0172800Y0190783D02*
X0191200Y0190783D01*
X0191200Y0191782D02*
X0187962Y0191782D01*
X0194300Y0195776D02*
X0201657Y0195776D01*
X0202071Y0196774D02*
X0194300Y0196774D01*
X0194300Y0197773D02*
X0203033Y0197773D01*
X0204820Y0198771D02*
X0194300Y0198771D01*
X0193732Y0199770D02*
X0214650Y0199770D01*
X0214650Y0200768D02*
X0209490Y0200768D01*
X0210769Y0201233D02*
X0210769Y0201233D01*
X0211404Y0201767D02*
X0214650Y0201767D01*
X0214650Y0202765D02*
X0212594Y0202765D01*
X0213173Y0203251D02*
X0213173Y0203251D01*
X0213173Y0203251D01*
X0213469Y0203764D02*
X0214650Y0203764D01*
X0214650Y0204762D02*
X0214046Y0204762D01*
X0214622Y0205761D02*
X0214650Y0205761D01*
X0214650Y0198771D02*
X0207680Y0198771D01*
X0209467Y0197773D02*
X0214650Y0197773D01*
X0214650Y0196774D02*
X0210429Y0196774D01*
X0210843Y0195776D02*
X0214650Y0195776D01*
X0214650Y0194777D02*
X0211150Y0194777D01*
X0211150Y0193779D02*
X0214650Y0193779D01*
X0214650Y0192780D02*
X0211024Y0192780D01*
X0210610Y0191782D02*
X0214650Y0191782D01*
X0214650Y0190783D02*
X0209903Y0190783D01*
X0208733Y0189785D02*
X0214650Y0189785D01*
X0214650Y0188786D02*
X0207645Y0188786D01*
X0207225Y0188960D02*
X0205275Y0188960D01*
X0203474Y0188214D01*
X0202096Y0186836D01*
X0201350Y0185035D01*
X0201350Y0183085D01*
X0202096Y0181284D01*
X0203474Y0179906D01*
X0205275Y0179160D01*
X0207225Y0179160D01*
X0209026Y0179906D01*
X0210404Y0181284D01*
X0211150Y0183085D01*
X0211150Y0185035D01*
X0210404Y0186836D01*
X0209026Y0188214D01*
X0207225Y0188960D01*
X0204855Y0188786D02*
X0199008Y0188786D01*
X0199418Y0187788D02*
X0203048Y0187788D01*
X0202077Y0186789D02*
X0199418Y0186789D01*
X0199418Y0185791D02*
X0201663Y0185791D01*
X0201350Y0184792D02*
X0199418Y0184792D01*
X0199418Y0183794D02*
X0201350Y0183794D01*
X0201470Y0182795D02*
X0199162Y0182795D01*
X0197800Y0181796D02*
X0201884Y0181796D01*
X0202582Y0180798D02*
X0197800Y0180798D01*
X0197800Y0179799D02*
X0203731Y0179799D01*
X0200198Y0176804D02*
X0214650Y0176804D01*
X0214650Y0177802D02*
X0199200Y0177802D01*
X0198201Y0178801D02*
X0214650Y0178801D01*
X0214650Y0179799D02*
X0208769Y0179799D01*
X0209918Y0180798D02*
X0214650Y0180798D01*
X0214650Y0181796D02*
X0210616Y0181796D01*
X0211030Y0182795D02*
X0214650Y0182795D01*
X0214650Y0183794D02*
X0211150Y0183794D01*
X0211150Y0184792D02*
X0214650Y0184792D01*
X0214650Y0185791D02*
X0210837Y0185791D01*
X0210423Y0186789D02*
X0214650Y0186789D01*
X0214650Y0187788D02*
X0209452Y0187788D01*
X0203767Y0189785D02*
X0199418Y0189785D01*
X0199418Y0190783D02*
X0202597Y0190783D01*
X0201890Y0191782D02*
X0201164Y0191782D01*
X0199775Y0194777D02*
X0199418Y0194777D01*
X0201731Y0201233D02*
X0201731Y0201233D01*
X0201096Y0201767D02*
X0191735Y0201767D01*
X0190737Y0202765D02*
X0199906Y0202765D01*
X0199031Y0203764D02*
X0187962Y0203764D01*
X0186146Y0204762D02*
X0198454Y0204762D01*
X0197878Y0205761D02*
X0186146Y0205761D01*
X0185243Y0206759D02*
X0197618Y0206759D01*
X0197758Y0205969D02*
X0197758Y0205969D01*
X0197442Y0207758D02*
X0184244Y0207758D01*
X0183246Y0208756D02*
X0197266Y0208756D01*
X0197213Y0209060D02*
X0197213Y0209060D01*
X0197335Y0209755D02*
X0165165Y0209755D01*
X0165287Y0209060D02*
X0165287Y0209060D01*
X0165234Y0208756D02*
X0169254Y0208756D01*
X0168256Y0207758D02*
X0165058Y0207758D01*
X0164882Y0206759D02*
X0167257Y0206759D01*
X0166259Y0205761D02*
X0164622Y0205761D01*
X0164742Y0205969D02*
X0164742Y0205969D01*
X0165260Y0204762D02*
X0164046Y0204762D01*
X0164262Y0203764D02*
X0163469Y0203764D01*
X0163173Y0203251D02*
X0163173Y0203251D01*
X0163173Y0203251D01*
X0165900Y0201018D02*
X0171392Y0206510D01*
X0181108Y0206510D01*
X0182889Y0204728D01*
X0181934Y0204728D01*
X0181410Y0204205D01*
X0181269Y0204450D01*
X0180990Y0204729D01*
X0180648Y0204926D01*
X0180266Y0205028D01*
X0178388Y0205028D01*
X0178388Y0202044D01*
X0177419Y0202044D01*
X0177419Y0201076D01*
X0174238Y0201076D01*
X0174238Y0199610D01*
X0173891Y0199610D01*
X0173497Y0200561D01*
X0172751Y0201307D01*
X0171777Y0201710D01*
X0170723Y0201710D01*
X0169749Y0201307D01*
X0169003Y0200561D01*
X0168609Y0199610D01*
X0165725Y0199610D01*
X0165900Y0200033D01*
X0165900Y0201018D01*
X0165900Y0200768D02*
X0169211Y0200768D01*
X0168676Y0199770D02*
X0165791Y0199770D01*
X0166649Y0201767D02*
X0177419Y0201767D01*
X0177419Y0202044D02*
X0174238Y0202044D01*
X0174238Y0203726D01*
X0174340Y0204107D01*
X0174538Y0204450D01*
X0174817Y0204729D01*
X0175159Y0204926D01*
X0175541Y0205028D01*
X0177419Y0205028D01*
X0177419Y0202044D01*
X0177419Y0202765D02*
X0178388Y0202765D01*
X0178388Y0203764D02*
X0177419Y0203764D01*
X0177419Y0204762D02*
X0178388Y0204762D01*
X0180932Y0204762D02*
X0182856Y0204762D01*
X0181857Y0205761D02*
X0170643Y0205761D01*
X0169644Y0204762D02*
X0174875Y0204762D01*
X0174248Y0203764D02*
X0168646Y0203764D01*
X0167647Y0202765D02*
X0174238Y0202765D01*
X0174238Y0200768D02*
X0173289Y0200768D01*
X0173824Y0199770D02*
X0174238Y0199770D01*
X0174538Y0193779D02*
X0170723Y0193779D01*
X0171722Y0192780D02*
X0174538Y0192780D01*
X0174538Y0191782D02*
X0172720Y0191782D01*
X0172800Y0186789D02*
X0174723Y0186789D01*
X0174538Y0185791D02*
X0172800Y0185791D01*
X0172800Y0184792D02*
X0174538Y0184792D01*
X0174538Y0183794D02*
X0172800Y0183794D01*
X0172800Y0182795D02*
X0174597Y0182795D01*
X0174294Y0181796D02*
X0172800Y0181796D01*
X0173260Y0180798D02*
X0173296Y0180798D01*
X0182800Y0179799D02*
X0183318Y0179799D01*
X0187903Y0182795D02*
X0189237Y0182795D01*
X0192734Y0200768D02*
X0203010Y0200768D01*
X0197511Y0210753D02*
X0164989Y0210753D01*
X0164813Y0211752D02*
X0197687Y0211752D01*
X0198104Y0212750D02*
X0164396Y0212750D01*
X0164742Y0212151D02*
X0164742Y0212151D01*
X0163820Y0213749D02*
X0198680Y0213749D01*
X0199257Y0214747D02*
X0163243Y0214747D01*
X0162128Y0215746D02*
X0200372Y0215746D01*
X0199327Y0214869D02*
X0199327Y0214869D01*
X0199327Y0214869D01*
X0201562Y0216744D02*
X0160938Y0216744D01*
X0142650Y0205761D02*
X0142622Y0205761D01*
X0142650Y0204762D02*
X0142046Y0204762D01*
X0141469Y0203764D02*
X0142650Y0203764D01*
X0142650Y0202765D02*
X0140594Y0202765D01*
X0141173Y0203251D02*
X0141173Y0203251D01*
X0141173Y0203251D01*
X0142650Y0201767D02*
X0139404Y0201767D01*
X0138769Y0201233D02*
X0138769Y0201233D01*
X0137490Y0200768D02*
X0142650Y0200768D01*
X0142650Y0199770D02*
X0121732Y0199770D01*
X0122300Y0198771D02*
X0132820Y0198771D01*
X0131033Y0197773D02*
X0122300Y0197773D01*
X0122300Y0196774D02*
X0130071Y0196774D01*
X0129657Y0195776D02*
X0122300Y0195776D01*
X0119200Y0191782D02*
X0115962Y0191782D01*
X0119200Y0190783D02*
X0100800Y0190783D01*
X0100800Y0189785D02*
X0119200Y0189785D01*
X0119200Y0188786D02*
X0100800Y0188786D01*
X0100800Y0187788D02*
X0119200Y0187788D01*
X0119200Y0186789D02*
X0115777Y0186789D01*
X0115962Y0185791D02*
X0119327Y0185791D01*
X0120326Y0184792D02*
X0115962Y0184792D01*
X0115962Y0183794D02*
X0121081Y0183794D01*
X0121263Y0182795D02*
X0121338Y0182795D01*
X0121813Y0181796D02*
X0122700Y0181796D01*
X0122700Y0180798D02*
X0121900Y0180798D01*
X0121596Y0179799D02*
X0122700Y0179799D01*
X0122700Y0178801D02*
X0120721Y0178801D01*
X0125800Y0179799D02*
X0131731Y0179799D01*
X0131474Y0179906D02*
X0133275Y0179160D01*
X0135225Y0179160D01*
X0137026Y0179906D01*
X0138404Y0181284D01*
X0139150Y0183085D01*
X0139150Y0185035D01*
X0138404Y0186836D01*
X0137026Y0188214D01*
X0135225Y0188960D01*
X0133275Y0188960D01*
X0131474Y0188214D01*
X0130096Y0186836D01*
X0129350Y0185035D01*
X0129350Y0183085D01*
X0130096Y0181284D01*
X0131474Y0179906D01*
X0130582Y0180798D02*
X0125800Y0180798D01*
X0125800Y0181796D02*
X0129884Y0181796D01*
X0129470Y0182795D02*
X0127162Y0182795D01*
X0127418Y0183794D02*
X0129350Y0183794D01*
X0129350Y0184792D02*
X0127418Y0184792D01*
X0127418Y0185791D02*
X0129663Y0185791D01*
X0130077Y0186789D02*
X0127418Y0186789D01*
X0127418Y0187788D02*
X0131048Y0187788D01*
X0132855Y0188786D02*
X0127008Y0188786D01*
X0127418Y0189785D02*
X0131767Y0189785D01*
X0130597Y0190783D02*
X0127418Y0190783D01*
X0129164Y0191782D02*
X0129890Y0191782D01*
X0127775Y0194777D02*
X0127418Y0194777D01*
X0129731Y0201233D02*
X0129731Y0201233D01*
X0129096Y0201767D02*
X0119735Y0201767D01*
X0119300Y0202202D02*
X0119300Y0202202D01*
X0118737Y0202765D02*
X0127906Y0202765D01*
X0127031Y0203764D02*
X0115962Y0203764D01*
X0114146Y0204762D02*
X0126454Y0204762D01*
X0125878Y0205761D02*
X0114146Y0205761D01*
X0113243Y0206759D02*
X0125618Y0206759D01*
X0125758Y0205969D02*
X0125758Y0205969D01*
X0125442Y0207758D02*
X0112244Y0207758D01*
X0111246Y0208756D02*
X0125266Y0208756D01*
X0125213Y0209060D02*
X0125213Y0209060D01*
X0125335Y0209755D02*
X0093165Y0209755D01*
X0093287Y0209060D02*
X0093287Y0209060D01*
X0093234Y0208756D02*
X0097254Y0208756D01*
X0096256Y0207758D02*
X0093058Y0207758D01*
X0092882Y0206759D02*
X0095257Y0206759D01*
X0094259Y0205761D02*
X0092622Y0205761D01*
X0092742Y0205969D02*
X0092742Y0205969D01*
X0093260Y0204762D02*
X0092046Y0204762D01*
X0092262Y0203764D02*
X0091469Y0203764D01*
X0091173Y0203251D02*
X0091173Y0203251D01*
X0093900Y0201018D02*
X0099392Y0206510D01*
X0109108Y0206510D01*
X0110889Y0204728D01*
X0109934Y0204728D01*
X0109410Y0204205D01*
X0109269Y0204450D01*
X0108990Y0204729D01*
X0108648Y0204926D01*
X0108266Y0205028D01*
X0106388Y0205028D01*
X0106388Y0202044D01*
X0105419Y0202044D01*
X0105419Y0201076D01*
X0102238Y0201076D01*
X0102238Y0199610D01*
X0101891Y0199610D01*
X0101497Y0200561D01*
X0100751Y0201307D01*
X0099777Y0201710D01*
X0098723Y0201710D01*
X0097749Y0201307D01*
X0097003Y0200561D01*
X0096609Y0199610D01*
X0093725Y0199610D01*
X0093900Y0200033D01*
X0093900Y0201018D01*
X0093900Y0200768D02*
X0097211Y0200768D01*
X0096676Y0199770D02*
X0093791Y0199770D01*
X0094649Y0201767D02*
X0105419Y0201767D01*
X0105419Y0202044D02*
X0102238Y0202044D01*
X0102238Y0203726D01*
X0102340Y0204107D01*
X0102538Y0204450D01*
X0102817Y0204729D01*
X0103159Y0204926D01*
X0103541Y0205028D01*
X0105419Y0205028D01*
X0105419Y0202044D01*
X0105419Y0202765D02*
X0106388Y0202765D01*
X0106388Y0203764D02*
X0105419Y0203764D01*
X0105419Y0204762D02*
X0106388Y0204762D01*
X0108932Y0204762D02*
X0110856Y0204762D01*
X0109857Y0205761D02*
X0098643Y0205761D01*
X0097644Y0204762D02*
X0102875Y0204762D01*
X0102248Y0203764D02*
X0096646Y0203764D01*
X0095647Y0202765D02*
X0102238Y0202765D01*
X0102238Y0200768D02*
X0101289Y0200768D01*
X0101824Y0199770D02*
X0102238Y0199770D01*
X0102538Y0193779D02*
X0098723Y0193779D01*
X0099722Y0192780D02*
X0102538Y0192780D01*
X0102538Y0191782D02*
X0100720Y0191782D01*
X0100800Y0186789D02*
X0102723Y0186789D01*
X0102538Y0185791D02*
X0100800Y0185791D01*
X0100800Y0184792D02*
X0102538Y0184792D01*
X0102538Y0183794D02*
X0100800Y0183794D01*
X0100800Y0182795D02*
X0102597Y0182795D01*
X0102294Y0181796D02*
X0100800Y0181796D01*
X0101260Y0180798D02*
X0101296Y0180798D01*
X0110800Y0179799D02*
X0111318Y0179799D01*
X0115903Y0182795D02*
X0117237Y0182795D01*
X0126201Y0178801D02*
X0142650Y0178801D01*
X0142650Y0179799D02*
X0136769Y0179799D01*
X0137918Y0180798D02*
X0142650Y0180798D01*
X0142650Y0181796D02*
X0138616Y0181796D01*
X0139030Y0182795D02*
X0142650Y0182795D01*
X0142650Y0183794D02*
X0139150Y0183794D01*
X0139150Y0184792D02*
X0142650Y0184792D01*
X0142650Y0185791D02*
X0138837Y0185791D01*
X0138423Y0186789D02*
X0142650Y0186789D01*
X0142650Y0187788D02*
X0137452Y0187788D01*
X0135645Y0188786D02*
X0142650Y0188786D01*
X0142650Y0189785D02*
X0136733Y0189785D01*
X0137903Y0190783D02*
X0142650Y0190783D01*
X0142650Y0191782D02*
X0138610Y0191782D01*
X0139024Y0192780D02*
X0142650Y0192780D01*
X0142650Y0193779D02*
X0139150Y0193779D01*
X0139150Y0194777D02*
X0142650Y0194777D01*
X0142650Y0195776D02*
X0138843Y0195776D01*
X0138429Y0196774D02*
X0142650Y0196774D01*
X0142650Y0197773D02*
X0137467Y0197773D01*
X0135680Y0198771D02*
X0142650Y0198771D01*
X0131010Y0200768D02*
X0120734Y0200768D01*
X0125511Y0210753D02*
X0092989Y0210753D01*
X0092813Y0211752D02*
X0125687Y0211752D01*
X0126104Y0212750D02*
X0092396Y0212750D01*
X0092742Y0212151D02*
X0092742Y0212151D01*
X0091820Y0213749D02*
X0126680Y0213749D01*
X0127257Y0214747D02*
X0091243Y0214747D01*
X0090128Y0215746D02*
X0128372Y0215746D01*
X0127327Y0214869D02*
X0127327Y0214869D01*
X0127327Y0214869D01*
X0129562Y0216744D02*
X0088938Y0216744D01*
X0070650Y0205761D02*
X0070622Y0205761D01*
X0070650Y0204762D02*
X0070046Y0204762D01*
X0069469Y0203764D02*
X0070650Y0203764D01*
X0070650Y0202765D02*
X0068594Y0202765D01*
X0069173Y0203251D02*
X0069173Y0203251D01*
X0069173Y0203251D01*
X0070650Y0201767D02*
X0067404Y0201767D01*
X0066769Y0201233D02*
X0066769Y0201233D01*
X0065490Y0200768D02*
X0070650Y0200768D01*
X0059010Y0200768D02*
X0048734Y0200768D01*
X0053511Y0210753D02*
X0020989Y0210753D01*
X0020813Y0211752D02*
X0053687Y0211752D01*
X0054104Y0212750D02*
X0020396Y0212750D01*
X0020742Y0212151D02*
X0020742Y0212151D01*
X0019820Y0213749D02*
X0054680Y0213749D01*
X0055257Y0214747D02*
X0019243Y0214747D01*
X0018128Y0215746D02*
X0056372Y0215746D01*
X0055327Y0214869D02*
X0055327Y0214869D01*
X0055327Y0214869D01*
X0057562Y0216744D02*
X0016938Y0216744D01*
X0057731Y0216887D02*
X0057731Y0216887D01*
X0114954Y0170813D02*
X0117146Y0170813D01*
X0119612Y0170813D02*
X0120581Y0170813D01*
X0120581Y0171811D02*
X0119612Y0171811D01*
X0119612Y0172810D02*
X0120581Y0172810D01*
X0127200Y0177802D02*
X0142650Y0177802D01*
X0142650Y0176804D02*
X0128198Y0176804D01*
X0129731Y0216887D02*
X0129731Y0216887D01*
D17*
X0124250Y0201560D03*
X0116750Y0197560D03*
X0109250Y0197560D03*
X0099250Y0199060D03*
X0099250Y0203060D03*
X0091250Y0200560D03*
X0079250Y0199060D03*
X0079250Y0179060D03*
X0089250Y0174060D03*
X0094750Y0179060D03*
X0099250Y0179060D03*
X0114250Y0164060D03*
X0124250Y0169060D03*
X0119250Y0181060D03*
X0117250Y0189060D03*
X0151250Y0179060D03*
X0161250Y0174060D03*
X0166750Y0179060D03*
X0171250Y0179060D03*
X0186250Y0164060D03*
X0196250Y0169060D03*
X0191250Y0181060D03*
X0189250Y0189060D03*
X0188750Y0197560D03*
X0196250Y0201560D03*
X0181250Y0197560D03*
X0171250Y0199060D03*
X0171250Y0203060D03*
X0163250Y0200560D03*
X0151250Y0199060D03*
X0171250Y0131060D03*
X0171250Y0127060D03*
X0163250Y0128560D03*
X0151250Y0127060D03*
X0151250Y0107060D03*
X0161250Y0102060D03*
X0166750Y0107060D03*
X0171250Y0107060D03*
X0186250Y0092060D03*
X0196250Y0097060D03*
X0191250Y0109060D03*
X0189250Y0117060D03*
X0188750Y0125560D03*
X0196250Y0129560D03*
X0181250Y0125560D03*
X0124250Y0129560D03*
X0116750Y0125560D03*
X0109250Y0125560D03*
X0099250Y0127060D03*
X0099250Y0131060D03*
X0091250Y0128560D03*
X0079250Y0127060D03*
X0079250Y0107060D03*
X0089250Y0102060D03*
X0094750Y0107060D03*
X0099250Y0107060D03*
X0114250Y0092060D03*
X0124250Y0097060D03*
X0119250Y0109060D03*
X0117250Y0117060D03*
X0099250Y0059060D03*
X0099250Y0055060D03*
X0091250Y0056560D03*
X0079250Y0055060D03*
X0079250Y0035060D03*
X0089250Y0030060D03*
X0094750Y0035060D03*
X0099250Y0035060D03*
X0114250Y0020060D03*
X0124250Y0025060D03*
X0119250Y0037060D03*
X0117250Y0045060D03*
X0116750Y0053560D03*
X0124250Y0057560D03*
X0109250Y0053560D03*
X0151250Y0055060D03*
X0163250Y0056560D03*
X0171250Y0055060D03*
X0171250Y0059060D03*
X0181250Y0053560D03*
X0188750Y0053560D03*
X0196250Y0057560D03*
X0189250Y0045060D03*
X0191250Y0037060D03*
X0196250Y0025060D03*
X0186250Y0020060D03*
X0171250Y0035060D03*
X0166750Y0035060D03*
X0161250Y0030060D03*
X0151250Y0035060D03*
X0052250Y0025060D03*
X0042250Y0020060D03*
X0047250Y0037060D03*
X0045250Y0045060D03*
X0044750Y0053560D03*
X0052250Y0057560D03*
X0037250Y0053560D03*
X0027250Y0055060D03*
X0027250Y0059060D03*
X0019250Y0056560D03*
X0007250Y0055060D03*
X0007250Y0035060D03*
X0017250Y0030060D03*
X0022750Y0035060D03*
X0027250Y0035060D03*
X0042250Y0092060D03*
X0052250Y0097060D03*
X0047250Y0109060D03*
X0045250Y0117060D03*
X0044750Y0125560D03*
X0052250Y0129560D03*
X0037250Y0125560D03*
X0027250Y0127060D03*
X0027250Y0131060D03*
X0019250Y0128560D03*
X0007250Y0127060D03*
X0007250Y0107060D03*
X0017250Y0102060D03*
X0022750Y0107060D03*
X0027250Y0107060D03*
X0042250Y0164060D03*
X0052250Y0169060D03*
X0047250Y0181060D03*
X0045250Y0189060D03*
X0044750Y0197560D03*
X0052250Y0201560D03*
X0037250Y0197560D03*
X0027250Y0199060D03*
X0027250Y0203060D03*
X0019250Y0200560D03*
X0007250Y0199060D03*
X0007250Y0179060D03*
X0017250Y0174060D03*
X0022750Y0179060D03*
X0027250Y0179060D03*
D18*
X0029750Y0179060D01*
X0032526Y0181836D01*
X0032526Y0184729D01*
X0034888Y0184729D02*
X0034888Y0179198D01*
X0033096Y0177406D01*
X0033096Y0174060D01*
X0033096Y0171406D01*
X0032250Y0170560D01*
X0008750Y0170560D01*
X0007250Y0169060D01*
X0007250Y0154060D01*
X0017250Y0154060D02*
X0017250Y0164060D01*
X0021750Y0168560D01*
X0034250Y0168560D01*
X0037250Y0171560D01*
X0037250Y0184729D01*
X0039612Y0184729D02*
X0039612Y0181698D01*
X0040250Y0181060D01*
X0042250Y0181060D01*
X0041974Y0181336D01*
X0041974Y0184729D01*
X0042250Y0181060D02*
X0047250Y0181060D01*
X0049596Y0185714D02*
X0048750Y0186560D01*
X0048750Y0193560D01*
X0048581Y0193391D01*
X0041974Y0193391D01*
X0039612Y0193391D02*
X0039612Y0196422D01*
X0040750Y0197560D01*
X0044750Y0197560D01*
X0048750Y0198560D02*
X0045750Y0201560D01*
X0040596Y0201560D01*
X0040596Y0205214D01*
X0037750Y0208060D01*
X0026750Y0208060D01*
X0019250Y0200560D01*
X0016750Y0198060D02*
X0026250Y0198060D01*
X0027250Y0199060D01*
X0028250Y0198060D01*
X0033250Y0198060D01*
X0034888Y0196422D01*
X0034888Y0193391D01*
X0037250Y0193391D02*
X0037250Y0197560D01*
X0032526Y0195284D02*
X0032526Y0193391D01*
X0032526Y0195284D02*
X0031750Y0196060D01*
X0020250Y0196060D01*
X0019250Y0195060D01*
X0019250Y0191560D01*
X0015596Y0187906D01*
X0015596Y0184060D01*
X0015596Y0180714D01*
X0017250Y0179060D01*
X0017250Y0174060D01*
X0022750Y0175560D02*
X0022750Y0179060D01*
X0022750Y0185714D01*
X0022750Y0192406D02*
X0025904Y0192406D01*
X0027250Y0191060D01*
X0027250Y0179060D01*
X0026404Y0174060D02*
X0024250Y0174060D01*
X0022750Y0175560D01*
X0032250Y0164060D02*
X0027250Y0159060D01*
X0027250Y0154060D01*
X0032250Y0164060D02*
X0042250Y0164060D01*
X0042250Y0169060D01*
X0041404Y0169906D01*
X0041404Y0174060D01*
X0052250Y0178560D02*
X0052250Y0185714D01*
X0049596Y0185714D01*
X0052250Y0192406D02*
X0055596Y0192406D01*
X0057250Y0194060D01*
X0062250Y0194060D01*
X0048750Y0193560D02*
X0048750Y0198560D01*
X0052250Y0178560D02*
X0057250Y0173560D01*
X0057250Y0154060D01*
X0037750Y0136060D02*
X0040596Y0133214D01*
X0040596Y0129560D01*
X0045750Y0129560D01*
X0048750Y0126560D01*
X0048750Y0121560D01*
X0048581Y0121391D01*
X0041974Y0121391D01*
X0039612Y0121391D02*
X0039612Y0124422D01*
X0040750Y0125560D01*
X0044750Y0125560D01*
X0048750Y0121560D02*
X0048750Y0114560D01*
X0049596Y0113714D01*
X0052250Y0113714D01*
X0052250Y0106560D01*
X0057250Y0101560D01*
X0057250Y0082060D01*
X0042250Y0092060D02*
X0042250Y0097060D01*
X0041404Y0097906D01*
X0041404Y0102060D01*
X0037250Y0099560D02*
X0034250Y0096560D01*
X0021750Y0096560D01*
X0017250Y0092060D01*
X0017250Y0082060D01*
X0007250Y0082060D02*
X0007250Y0097060D01*
X0008750Y0098560D01*
X0032250Y0098560D01*
X0033096Y0099406D01*
X0033096Y0102060D01*
X0033096Y0105406D01*
X0034888Y0107198D01*
X0034888Y0112729D01*
X0037250Y0112729D02*
X0037250Y0099560D01*
X0032250Y0092060D02*
X0027250Y0087060D01*
X0027250Y0082060D01*
X0032250Y0092060D02*
X0042250Y0092060D01*
X0026404Y0102060D02*
X0024250Y0102060D01*
X0022750Y0103560D01*
X0022750Y0107060D01*
X0022750Y0113714D01*
X0019250Y0119560D02*
X0015596Y0115906D01*
X0015596Y0112060D01*
X0015596Y0108714D01*
X0017250Y0107060D01*
X0017250Y0102060D01*
X0008904Y0108714D02*
X0007250Y0107060D01*
X0008904Y0108714D02*
X0008904Y0112060D01*
X0019250Y0119560D02*
X0019250Y0123060D01*
X0020250Y0124060D01*
X0031750Y0124060D01*
X0032526Y0123284D01*
X0032526Y0121391D01*
X0034888Y0121391D02*
X0034888Y0124422D01*
X0033250Y0126060D01*
X0028250Y0126060D01*
X0027250Y0127060D01*
X0026250Y0126060D01*
X0016750Y0126060D01*
X0015596Y0124906D01*
X0015596Y0122060D01*
X0008904Y0122060D02*
X0008904Y0125406D01*
X0007250Y0127060D01*
X0019250Y0128560D02*
X0026750Y0136060D01*
X0037750Y0136060D01*
X0037250Y0125560D02*
X0037250Y0121391D01*
X0039612Y0112729D02*
X0039612Y0109698D01*
X0040250Y0109060D01*
X0042250Y0109060D01*
X0041974Y0109336D01*
X0041974Y0112729D01*
X0042250Y0109060D02*
X0047250Y0109060D01*
X0052250Y0120406D02*
X0055596Y0120406D01*
X0057250Y0122060D01*
X0062250Y0122060D01*
X0079250Y0127060D02*
X0080904Y0125406D01*
X0080904Y0122060D01*
X0087596Y0122060D02*
X0087596Y0124906D01*
X0088750Y0126060D01*
X0098250Y0126060D01*
X0099250Y0127060D01*
X0100250Y0126060D01*
X0105250Y0126060D01*
X0106888Y0124422D01*
X0106888Y0121391D01*
X0109250Y0121391D02*
X0109250Y0125560D01*
X0111612Y0124422D02*
X0112750Y0125560D01*
X0116750Y0125560D01*
X0117750Y0129560D02*
X0112596Y0129560D01*
X0112596Y0133214D01*
X0109750Y0136060D01*
X0098750Y0136060D01*
X0091250Y0128560D01*
X0092250Y0124060D02*
X0091250Y0123060D01*
X0091250Y0119560D01*
X0087596Y0115906D01*
X0087596Y0112060D01*
X0087596Y0108714D01*
X0089250Y0107060D01*
X0089250Y0102060D01*
X0094750Y0103560D02*
X0094750Y0107060D01*
X0094750Y0113714D01*
X0099250Y0119060D02*
X0099250Y0107060D01*
X0101750Y0107060D01*
X0104526Y0109836D01*
X0104526Y0112729D01*
X0106888Y0112729D02*
X0106888Y0107198D01*
X0105096Y0105406D01*
X0105096Y0102060D01*
X0105096Y0099406D01*
X0104250Y0098560D01*
X0080750Y0098560D01*
X0079250Y0097060D01*
X0079250Y0082060D01*
X0089250Y0082060D02*
X0089250Y0092060D01*
X0093750Y0096560D01*
X0106250Y0096560D01*
X0109250Y0099560D01*
X0109250Y0112729D01*
X0111612Y0112729D02*
X0111612Y0109698D01*
X0112250Y0109060D01*
X0114250Y0109060D01*
X0113974Y0109336D01*
X0113974Y0112729D01*
X0114250Y0109060D02*
X0119250Y0109060D01*
X0121596Y0113714D02*
X0120750Y0114560D01*
X0120750Y0121560D01*
X0120581Y0121391D01*
X0113974Y0121391D01*
X0111612Y0121391D02*
X0111612Y0124422D01*
X0104526Y0123284D02*
X0104526Y0121391D01*
X0104526Y0123284D02*
X0103750Y0124060D01*
X0092250Y0124060D01*
X0094750Y0120406D02*
X0097904Y0120406D01*
X0099250Y0119060D01*
X0094750Y0103560D02*
X0096250Y0102060D01*
X0098404Y0102060D01*
X0104250Y0092060D02*
X0099250Y0087060D01*
X0099250Y0082060D01*
X0104250Y0092060D02*
X0114250Y0092060D01*
X0114250Y0097060D01*
X0113404Y0097906D01*
X0113404Y0102060D01*
X0124250Y0106560D02*
X0124250Y0113714D01*
X0121596Y0113714D01*
X0124250Y0120406D02*
X0127596Y0120406D01*
X0129250Y0122060D01*
X0134250Y0122060D01*
X0120750Y0121560D02*
X0120750Y0126560D01*
X0117750Y0129560D01*
X0124250Y0106560D02*
X0129250Y0101560D01*
X0129250Y0082060D01*
X0109750Y0064060D02*
X0112596Y0061214D01*
X0112596Y0057560D01*
X0117750Y0057560D01*
X0120750Y0054560D01*
X0120750Y0049560D01*
X0120581Y0049391D01*
X0113974Y0049391D01*
X0111612Y0049391D02*
X0111612Y0052422D01*
X0112750Y0053560D01*
X0116750Y0053560D01*
X0120750Y0049560D02*
X0120750Y0042560D01*
X0121596Y0041714D01*
X0124250Y0041714D01*
X0124250Y0034560D01*
X0129250Y0029560D01*
X0129250Y0010060D01*
X0114250Y0020060D02*
X0114250Y0025060D01*
X0113404Y0025906D01*
X0113404Y0030060D01*
X0109250Y0027560D02*
X0106250Y0024560D01*
X0093750Y0024560D01*
X0089250Y0020060D01*
X0089250Y0010060D01*
X0079250Y0010060D02*
X0079250Y0025060D01*
X0080750Y0026560D01*
X0104250Y0026560D01*
X0105096Y0027406D01*
X0105096Y0030060D01*
X0105096Y0033406D01*
X0106888Y0035198D01*
X0106888Y0040729D01*
X0109250Y0040729D02*
X0109250Y0027560D01*
X0104250Y0020060D02*
X0099250Y0015060D01*
X0099250Y0010060D01*
X0104250Y0020060D02*
X0114250Y0020060D01*
X0101750Y0035060D02*
X0099250Y0035060D01*
X0099250Y0047060D01*
X0097904Y0048406D01*
X0094750Y0048406D01*
X0091250Y0047560D02*
X0091250Y0051060D01*
X0092250Y0052060D01*
X0103750Y0052060D01*
X0104526Y0051284D01*
X0104526Y0049391D01*
X0106888Y0049391D02*
X0106888Y0052422D01*
X0105250Y0054060D01*
X0100250Y0054060D01*
X0099250Y0055060D01*
X0098250Y0054060D01*
X0088750Y0054060D01*
X0087596Y0052906D01*
X0087596Y0050060D01*
X0091250Y0047560D02*
X0087596Y0043906D01*
X0087596Y0040060D01*
X0087596Y0036714D01*
X0089250Y0035060D01*
X0089250Y0030060D01*
X0094750Y0031560D02*
X0096250Y0030060D01*
X0098404Y0030060D01*
X0094750Y0031560D02*
X0094750Y0035060D01*
X0094750Y0041714D01*
X0101750Y0035060D02*
X0104526Y0037836D01*
X0104526Y0040729D01*
X0111612Y0040729D02*
X0111612Y0037698D01*
X0112250Y0037060D01*
X0114250Y0037060D01*
X0113974Y0037336D01*
X0113974Y0040729D01*
X0114250Y0037060D02*
X0119250Y0037060D01*
X0124250Y0048406D02*
X0127596Y0048406D01*
X0129250Y0050060D01*
X0134250Y0050060D01*
X0151250Y0055060D02*
X0152904Y0053406D01*
X0152904Y0050060D01*
X0159596Y0050060D02*
X0159596Y0052906D01*
X0160750Y0054060D01*
X0170250Y0054060D01*
X0171250Y0055060D01*
X0172250Y0054060D01*
X0177250Y0054060D01*
X0178888Y0052422D01*
X0178888Y0049391D01*
X0181250Y0049391D02*
X0181250Y0053560D01*
X0183612Y0052422D02*
X0184750Y0053560D01*
X0188750Y0053560D01*
X0192750Y0054560D02*
X0189750Y0057560D01*
X0184596Y0057560D01*
X0184596Y0061214D01*
X0181750Y0064060D01*
X0170750Y0064060D01*
X0163250Y0056560D01*
X0164250Y0052060D02*
X0163250Y0051060D01*
X0163250Y0047560D01*
X0159596Y0043906D01*
X0159596Y0040060D01*
X0159596Y0036714D01*
X0161250Y0035060D01*
X0161250Y0030060D01*
X0165750Y0024560D02*
X0161250Y0020060D01*
X0161250Y0010060D01*
X0151250Y0010060D02*
X0151250Y0025060D01*
X0152750Y0026560D01*
X0176250Y0026560D01*
X0177096Y0027406D01*
X0177096Y0030060D01*
X0177096Y0033406D01*
X0178888Y0035198D01*
X0178888Y0040729D01*
X0181250Y0040729D02*
X0181250Y0027560D01*
X0178250Y0024560D01*
X0165750Y0024560D01*
X0168250Y0030060D02*
X0166750Y0031560D01*
X0166750Y0035060D01*
X0166750Y0041714D01*
X0166750Y0048406D02*
X0169904Y0048406D01*
X0171250Y0047060D01*
X0171250Y0035060D01*
X0173750Y0035060D01*
X0176526Y0037836D01*
X0176526Y0040729D01*
X0183612Y0040729D02*
X0183612Y0037698D01*
X0184250Y0037060D01*
X0186250Y0037060D01*
X0185974Y0037336D01*
X0185974Y0040729D01*
X0186250Y0037060D02*
X0191250Y0037060D01*
X0193596Y0041714D02*
X0192750Y0042560D01*
X0192750Y0049560D01*
X0192581Y0049391D01*
X0185974Y0049391D01*
X0183612Y0049391D02*
X0183612Y0052422D01*
X0176526Y0051284D02*
X0176526Y0049391D01*
X0176526Y0051284D02*
X0175750Y0052060D01*
X0164250Y0052060D01*
X0152904Y0040060D02*
X0152904Y0036714D01*
X0151250Y0035060D01*
X0168250Y0030060D02*
X0170404Y0030060D01*
X0176250Y0020060D02*
X0171250Y0015060D01*
X0171250Y0010060D01*
X0176250Y0020060D02*
X0186250Y0020060D01*
X0186250Y0025060D01*
X0185404Y0025906D01*
X0185404Y0030060D01*
X0196250Y0034560D02*
X0196250Y0041714D01*
X0193596Y0041714D01*
X0196250Y0048406D02*
X0199596Y0048406D01*
X0201250Y0050060D01*
X0206250Y0050060D01*
X0192750Y0049560D02*
X0192750Y0054560D01*
X0196250Y0034560D02*
X0201250Y0029560D01*
X0201250Y0010060D01*
X0201250Y0082060D02*
X0201250Y0101560D01*
X0196250Y0106560D01*
X0196250Y0113714D01*
X0193596Y0113714D01*
X0192750Y0114560D01*
X0192750Y0121560D01*
X0192581Y0121391D01*
X0185974Y0121391D01*
X0183612Y0121391D02*
X0183612Y0124422D01*
X0184750Y0125560D01*
X0188750Y0125560D01*
X0192750Y0126560D02*
X0189750Y0129560D01*
X0184596Y0129560D01*
X0184596Y0133214D01*
X0181750Y0136060D01*
X0170750Y0136060D01*
X0163250Y0128560D01*
X0160750Y0126060D02*
X0159596Y0124906D01*
X0159596Y0122060D01*
X0160750Y0126060D02*
X0170250Y0126060D01*
X0171250Y0127060D01*
X0172250Y0126060D01*
X0177250Y0126060D01*
X0178888Y0124422D01*
X0178888Y0121391D01*
X0181250Y0121391D02*
X0181250Y0125560D01*
X0176526Y0123284D02*
X0176526Y0121391D01*
X0176526Y0123284D02*
X0175750Y0124060D01*
X0164250Y0124060D01*
X0163250Y0123060D01*
X0163250Y0119560D01*
X0159596Y0115906D01*
X0159596Y0112060D01*
X0159596Y0108714D01*
X0161250Y0107060D01*
X0161250Y0102060D01*
X0166750Y0103560D02*
X0166750Y0107060D01*
X0166750Y0113714D01*
X0171250Y0119060D02*
X0171250Y0107060D01*
X0173750Y0107060D01*
X0176526Y0109836D01*
X0176526Y0112729D01*
X0178888Y0112729D02*
X0178888Y0107198D01*
X0177096Y0105406D01*
X0177096Y0102060D01*
X0177096Y0099406D01*
X0176250Y0098560D01*
X0152750Y0098560D01*
X0151250Y0097060D01*
X0151250Y0082060D01*
X0161250Y0082060D02*
X0161250Y0092060D01*
X0165750Y0096560D01*
X0178250Y0096560D01*
X0181250Y0099560D01*
X0181250Y0112729D01*
X0183612Y0112729D02*
X0183612Y0109698D01*
X0184250Y0109060D01*
X0186250Y0109060D01*
X0185974Y0109336D01*
X0185974Y0112729D01*
X0186250Y0109060D02*
X0191250Y0109060D01*
X0185404Y0102060D02*
X0185404Y0097906D01*
X0186250Y0097060D01*
X0186250Y0092060D01*
X0176250Y0092060D01*
X0171250Y0087060D01*
X0171250Y0082060D01*
X0170404Y0102060D02*
X0168250Y0102060D01*
X0166750Y0103560D01*
X0152904Y0108714D02*
X0151250Y0107060D01*
X0152904Y0108714D02*
X0152904Y0112060D01*
X0152904Y0122060D02*
X0152904Y0125406D01*
X0151250Y0127060D01*
X0166750Y0120406D02*
X0169904Y0120406D01*
X0171250Y0119060D01*
X0192750Y0121560D02*
X0192750Y0126560D01*
X0196250Y0120406D02*
X0199596Y0120406D01*
X0201250Y0122060D01*
X0206250Y0122060D01*
X0201250Y0154060D02*
X0201250Y0173560D01*
X0196250Y0178560D01*
X0196250Y0185714D01*
X0193596Y0185714D01*
X0192750Y0186560D01*
X0192750Y0193560D01*
X0192581Y0193391D01*
X0185974Y0193391D01*
X0183612Y0193391D02*
X0183612Y0196422D01*
X0184750Y0197560D01*
X0188750Y0197560D01*
X0192750Y0198560D02*
X0189750Y0201560D01*
X0184596Y0201560D01*
X0184596Y0205214D01*
X0181750Y0208060D01*
X0170750Y0208060D01*
X0163250Y0200560D01*
X0160750Y0198060D02*
X0170250Y0198060D01*
X0171250Y0199060D01*
X0172250Y0198060D01*
X0177250Y0198060D01*
X0178888Y0196422D01*
X0178888Y0193391D01*
X0181250Y0193391D02*
X0181250Y0197560D01*
X0176526Y0195284D02*
X0176526Y0193391D01*
X0176526Y0195284D02*
X0175750Y0196060D01*
X0164250Y0196060D01*
X0163250Y0195060D01*
X0163250Y0191560D01*
X0159596Y0187906D01*
X0159596Y0184060D01*
X0159596Y0180714D01*
X0161250Y0179060D01*
X0161250Y0174060D01*
X0165750Y0168560D02*
X0161250Y0164060D01*
X0161250Y0154060D01*
X0151250Y0154060D02*
X0151250Y0169060D01*
X0152750Y0170560D01*
X0176250Y0170560D01*
X0177096Y0171406D01*
X0177096Y0174060D01*
X0177096Y0177406D01*
X0178888Y0179198D01*
X0178888Y0184729D01*
X0181250Y0184729D02*
X0181250Y0171560D01*
X0178250Y0168560D01*
X0165750Y0168560D01*
X0168250Y0174060D02*
X0166750Y0175560D01*
X0166750Y0179060D01*
X0166750Y0185714D01*
X0166750Y0192406D02*
X0169904Y0192406D01*
X0171250Y0191060D01*
X0171250Y0179060D01*
X0173750Y0179060D01*
X0176526Y0181836D01*
X0176526Y0184729D01*
X0183612Y0184729D02*
X0183612Y0181698D01*
X0184250Y0181060D01*
X0186250Y0181060D01*
X0185974Y0181336D01*
X0185974Y0184729D01*
X0186250Y0181060D02*
X0191250Y0181060D01*
X0185404Y0174060D02*
X0185404Y0169906D01*
X0186250Y0169060D01*
X0186250Y0164060D01*
X0176250Y0164060D01*
X0171250Y0159060D01*
X0171250Y0154060D01*
X0170404Y0174060D02*
X0168250Y0174060D01*
X0152904Y0180714D02*
X0151250Y0179060D01*
X0152904Y0180714D02*
X0152904Y0184060D01*
X0152904Y0194060D02*
X0152904Y0197406D01*
X0151250Y0199060D01*
X0159596Y0196906D02*
X0159596Y0194060D01*
X0159596Y0196906D02*
X0160750Y0198060D01*
X0134250Y0194060D02*
X0129250Y0194060D01*
X0127596Y0192406D01*
X0124250Y0192406D01*
X0120750Y0193560D02*
X0120581Y0193391D01*
X0113974Y0193391D01*
X0111612Y0193391D02*
X0111612Y0196422D01*
X0112750Y0197560D01*
X0116750Y0197560D01*
X0120750Y0198560D02*
X0117750Y0201560D01*
X0112596Y0201560D01*
X0112596Y0205214D01*
X0109750Y0208060D01*
X0098750Y0208060D01*
X0091250Y0200560D01*
X0088750Y0198060D02*
X0098250Y0198060D01*
X0099250Y0199060D01*
X0100250Y0198060D01*
X0105250Y0198060D01*
X0106888Y0196422D01*
X0106888Y0193391D01*
X0109250Y0193391D02*
X0109250Y0197560D01*
X0104526Y0195284D02*
X0104526Y0193391D01*
X0104526Y0195284D02*
X0103750Y0196060D01*
X0092250Y0196060D01*
X0091250Y0195060D01*
X0091250Y0191560D01*
X0087596Y0187906D01*
X0087596Y0184060D01*
X0087596Y0180714D01*
X0089250Y0179060D01*
X0089250Y0174060D01*
X0093750Y0168560D02*
X0089250Y0164060D01*
X0089250Y0154060D01*
X0079250Y0154060D02*
X0079250Y0169060D01*
X0080750Y0170560D01*
X0104250Y0170560D01*
X0105096Y0171406D01*
X0105096Y0174060D01*
X0105096Y0177406D01*
X0106888Y0179198D01*
X0106888Y0184729D01*
X0109250Y0184729D02*
X0109250Y0171560D01*
X0106250Y0168560D01*
X0093750Y0168560D01*
X0096250Y0174060D02*
X0094750Y0175560D01*
X0094750Y0179060D01*
X0094750Y0185714D01*
X0094750Y0192406D02*
X0097904Y0192406D01*
X0099250Y0191060D01*
X0099250Y0179060D01*
X0101750Y0179060D01*
X0104526Y0181836D01*
X0104526Y0184729D01*
X0111612Y0184729D02*
X0111612Y0181698D01*
X0112250Y0181060D01*
X0114250Y0181060D01*
X0113974Y0181336D01*
X0113974Y0184729D01*
X0114250Y0181060D02*
X0119250Y0181060D01*
X0121596Y0185714D02*
X0120750Y0186560D01*
X0120750Y0193560D01*
X0120750Y0198560D01*
X0121596Y0185714D02*
X0124250Y0185714D01*
X0124250Y0178560D01*
X0129250Y0173560D01*
X0129250Y0154060D01*
X0114250Y0164060D02*
X0114250Y0169060D01*
X0113404Y0169906D01*
X0113404Y0174060D01*
X0114250Y0164060D02*
X0104250Y0164060D01*
X0099250Y0159060D01*
X0099250Y0154060D01*
X0098404Y0174060D02*
X0096250Y0174060D01*
X0080904Y0180714D02*
X0079250Y0179060D01*
X0080904Y0180714D02*
X0080904Y0184060D01*
X0080904Y0194060D02*
X0080904Y0197406D01*
X0079250Y0199060D01*
X0087596Y0196906D02*
X0087596Y0194060D01*
X0087596Y0196906D02*
X0088750Y0198060D01*
X0016750Y0198060D02*
X0015596Y0196906D01*
X0015596Y0194060D01*
X0008904Y0194060D02*
X0008904Y0197406D01*
X0007250Y0199060D01*
X0008904Y0184060D02*
X0008904Y0180714D01*
X0007250Y0179060D01*
X0022750Y0120406D02*
X0025904Y0120406D01*
X0027250Y0119060D01*
X0027250Y0107060D01*
X0029750Y0107060D01*
X0032526Y0109836D01*
X0032526Y0112729D01*
X0079250Y0107060D02*
X0080904Y0108714D01*
X0080904Y0112060D01*
X0098750Y0064060D02*
X0091250Y0056560D01*
X0098750Y0064060D02*
X0109750Y0064060D01*
X0109250Y0053560D02*
X0109250Y0049391D01*
X0080904Y0050060D02*
X0080904Y0053406D01*
X0079250Y0055060D01*
X0080904Y0040060D02*
X0080904Y0036714D01*
X0079250Y0035060D01*
X0062250Y0050060D02*
X0057250Y0050060D01*
X0055596Y0048406D01*
X0052250Y0048406D01*
X0048750Y0049560D02*
X0048581Y0049391D01*
X0041974Y0049391D01*
X0039612Y0049391D02*
X0039612Y0052422D01*
X0040750Y0053560D01*
X0044750Y0053560D01*
X0048750Y0054560D02*
X0045750Y0057560D01*
X0040596Y0057560D01*
X0040596Y0061214D01*
X0037750Y0064060D01*
X0026750Y0064060D01*
X0019250Y0056560D01*
X0016750Y0054060D02*
X0026250Y0054060D01*
X0027250Y0055060D01*
X0028250Y0054060D01*
X0033250Y0054060D01*
X0034888Y0052422D01*
X0034888Y0049391D01*
X0037250Y0049391D02*
X0037250Y0053560D01*
X0032526Y0051284D02*
X0032526Y0049391D01*
X0032526Y0051284D02*
X0031750Y0052060D01*
X0020250Y0052060D01*
X0019250Y0051060D01*
X0019250Y0047560D01*
X0015596Y0043906D01*
X0015596Y0040060D01*
X0015596Y0036714D01*
X0017250Y0035060D01*
X0017250Y0030060D01*
X0021750Y0024560D02*
X0017250Y0020060D01*
X0017250Y0010060D01*
X0007250Y0010060D02*
X0007250Y0025060D01*
X0008750Y0026560D01*
X0032250Y0026560D01*
X0033096Y0027406D01*
X0033096Y0030060D01*
X0033096Y0033406D01*
X0034888Y0035198D01*
X0034888Y0040729D01*
X0037250Y0040729D02*
X0037250Y0027560D01*
X0034250Y0024560D01*
X0021750Y0024560D01*
X0024250Y0030060D02*
X0022750Y0031560D01*
X0022750Y0035060D01*
X0022750Y0041714D01*
X0022750Y0048406D02*
X0025904Y0048406D01*
X0027250Y0047060D01*
X0027250Y0035060D01*
X0029750Y0035060D01*
X0032526Y0037836D01*
X0032526Y0040729D01*
X0039612Y0040729D02*
X0039612Y0037698D01*
X0040250Y0037060D01*
X0042250Y0037060D01*
X0041974Y0037336D01*
X0041974Y0040729D01*
X0042250Y0037060D02*
X0047250Y0037060D01*
X0049596Y0041714D02*
X0048750Y0042560D01*
X0048750Y0049560D01*
X0048750Y0054560D01*
X0049596Y0041714D02*
X0052250Y0041714D01*
X0052250Y0034560D01*
X0057250Y0029560D01*
X0057250Y0010060D01*
X0042250Y0020060D02*
X0042250Y0025060D01*
X0041404Y0025906D01*
X0041404Y0030060D01*
X0042250Y0020060D02*
X0032250Y0020060D01*
X0027250Y0015060D01*
X0027250Y0010060D01*
X0026404Y0030060D02*
X0024250Y0030060D01*
X0008904Y0036714D02*
X0007250Y0035060D01*
X0008904Y0036714D02*
X0008904Y0040060D01*
X0008904Y0050060D02*
X0008904Y0053406D01*
X0007250Y0055060D01*
X0015596Y0052906D02*
X0015596Y0050060D01*
X0015596Y0052906D02*
X0016750Y0054060D01*
X0192750Y0193560D02*
X0192750Y0198560D01*
X0196250Y0192406D02*
X0199596Y0192406D01*
X0201250Y0194060D01*
X0206250Y0194060D01*
M02*
