G75*
%MOIN*%
%OFA0B0*%
%FSLAX25Y25*%
%IPPOS*%
%LPD*%
%AMOC8*
5,1,8,0,0,1.08239X$1,22.5*
%
%ADD10C,0.07400*%
%ADD11R,0.04331X0.03937*%
%ADD12R,0.03937X0.04331*%
%ADD13C,0.03937*%
%ADD14R,0.01575X0.02756*%
%ADD15R,0.09646X0.04331*%
%ADD16C,0.01000*%
%ADD17C,0.02900*%
%ADD18C,0.00700*%
D10*
X0007250Y0010060D03*
X0017250Y0010060D03*
X0027250Y0010060D03*
X0037250Y0010060D03*
X0047250Y0010060D03*
X0057250Y0010060D03*
X0067250Y0010060D03*
X0078250Y0010060D03*
X0088250Y0010060D03*
X0098250Y0010060D03*
X0108250Y0010060D03*
X0118250Y0010060D03*
X0128250Y0010060D03*
X0138250Y0010060D03*
X0149250Y0010060D03*
X0159250Y0010060D03*
X0169250Y0010060D03*
X0179250Y0010060D03*
X0189250Y0010060D03*
X0199250Y0010060D03*
X0209250Y0010060D03*
X0204250Y0040060D03*
X0204250Y0050060D03*
X0199250Y0081060D03*
X0189250Y0081060D03*
X0179250Y0081060D03*
X0169250Y0081060D03*
X0159250Y0081060D03*
X0149250Y0081060D03*
X0138250Y0081060D03*
X0128250Y0081060D03*
X0118250Y0081060D03*
X0108250Y0081060D03*
X0098250Y0081060D03*
X0088250Y0081060D03*
X0078250Y0081060D03*
X0067250Y0081060D03*
X0057250Y0081060D03*
X0047250Y0081060D03*
X0037250Y0081060D03*
X0027250Y0081060D03*
X0017250Y0081060D03*
X0007250Y0081060D03*
X0062250Y0111060D03*
X0062250Y0121060D03*
X0057250Y0152060D03*
X0067250Y0152060D03*
X0078250Y0152060D03*
X0088250Y0152060D03*
X0098250Y0152060D03*
X0108250Y0152060D03*
X0118250Y0152060D03*
X0128250Y0152060D03*
X0138250Y0152060D03*
X0149250Y0152060D03*
X0159250Y0152060D03*
X0169250Y0152060D03*
X0179250Y0152060D03*
X0189250Y0152060D03*
X0199250Y0152060D03*
X0209250Y0152060D03*
X0204250Y0182060D03*
X0204250Y0192060D03*
X0204250Y0121060D03*
X0204250Y0111060D03*
X0209250Y0081060D03*
X0133250Y0111060D03*
X0133250Y0121060D03*
X0133250Y0182060D03*
X0133250Y0192060D03*
X0062250Y0192060D03*
X0062250Y0182060D03*
X0047250Y0152060D03*
X0037250Y0152060D03*
X0027250Y0152060D03*
X0017250Y0152060D03*
X0007250Y0152060D03*
X0062250Y0050060D03*
X0062250Y0040060D03*
X0133250Y0040060D03*
X0133250Y0050060D03*
D11*
X0150904Y0050060D03*
X0157596Y0050060D03*
X0157596Y0040060D03*
X0150904Y0040060D03*
X0168404Y0030060D03*
X0175096Y0030060D03*
X0183404Y0030060D03*
X0190096Y0030060D03*
X0182596Y0057560D03*
X0175904Y0057560D03*
X0175096Y0101060D03*
X0168404Y0101060D03*
X0157596Y0111060D03*
X0150904Y0111060D03*
X0150904Y0121060D03*
X0157596Y0121060D03*
X0175904Y0128560D03*
X0182596Y0128560D03*
X0183404Y0101060D03*
X0190096Y0101060D03*
X0190096Y0172060D03*
X0183404Y0172060D03*
X0175096Y0172060D03*
X0168404Y0172060D03*
X0157596Y0182060D03*
X0150904Y0182060D03*
X0150904Y0192060D03*
X0157596Y0192060D03*
X0175904Y0199560D03*
X0182596Y0199560D03*
X0119096Y0172060D03*
X0112404Y0172060D03*
X0104096Y0172060D03*
X0097404Y0172060D03*
X0086596Y0182060D03*
X0079904Y0182060D03*
X0079904Y0192060D03*
X0086596Y0192060D03*
X0104904Y0199560D03*
X0111596Y0199560D03*
X0048096Y0172060D03*
X0041404Y0172060D03*
X0033096Y0172060D03*
X0026404Y0172060D03*
X0015596Y0182060D03*
X0008904Y0182060D03*
X0008904Y0192060D03*
X0015596Y0192060D03*
X0033904Y0199560D03*
X0040596Y0199560D03*
X0040596Y0128560D03*
X0033904Y0128560D03*
X0015596Y0121060D03*
X0008904Y0121060D03*
X0008904Y0111060D03*
X0015596Y0111060D03*
X0026404Y0101060D03*
X0033096Y0101060D03*
X0041404Y0101060D03*
X0048096Y0101060D03*
X0079904Y0111060D03*
X0086596Y0111060D03*
X0086596Y0121060D03*
X0079904Y0121060D03*
X0097404Y0101060D03*
X0104096Y0101060D03*
X0112404Y0101060D03*
X0119096Y0101060D03*
X0111596Y0128560D03*
X0104904Y0128560D03*
X0104904Y0057560D03*
X0111596Y0057560D03*
X0086596Y0050060D03*
X0079904Y0050060D03*
X0079904Y0040060D03*
X0086596Y0040060D03*
X0097404Y0030060D03*
X0104096Y0030060D03*
X0112404Y0030060D03*
X0119096Y0030060D03*
X0048096Y0030060D03*
X0041404Y0030060D03*
X0033096Y0030060D03*
X0026404Y0030060D03*
X0015596Y0040060D03*
X0008904Y0040060D03*
X0008904Y0050060D03*
X0015596Y0050060D03*
X0033904Y0057560D03*
X0040596Y0057560D03*
D12*
X0052250Y0048406D03*
X0052250Y0041714D03*
X0022750Y0041714D03*
X0022750Y0048406D03*
X0022750Y0112714D03*
X0022750Y0119406D03*
X0052250Y0119406D03*
X0052250Y0112714D03*
X0093750Y0112714D03*
X0093750Y0119406D03*
X0123250Y0119406D03*
X0123250Y0112714D03*
X0164750Y0112714D03*
X0164750Y0119406D03*
X0194250Y0119406D03*
X0194250Y0112714D03*
X0194250Y0048406D03*
X0194250Y0041714D03*
X0164750Y0041714D03*
X0164750Y0048406D03*
X0123250Y0048406D03*
X0123250Y0041714D03*
X0093750Y0041714D03*
X0093750Y0048406D03*
X0093750Y0183714D03*
X0093750Y0190406D03*
X0123250Y0190406D03*
X0123250Y0183714D03*
X0164750Y0183714D03*
X0164750Y0190406D03*
X0194250Y0190406D03*
X0194250Y0183714D03*
X0052250Y0183714D03*
X0052250Y0190406D03*
X0022750Y0190406D03*
X0022750Y0183714D03*
D13*
X0005250Y0214060D03*
X0062250Y0157060D03*
X0076250Y0143060D03*
X0133250Y0157060D03*
X0147250Y0143060D03*
X0133250Y0086060D03*
X0147250Y0072060D03*
X0133250Y0015060D03*
X0076250Y0072060D03*
X0062250Y0086060D03*
X0005250Y0072060D03*
X0062250Y0015060D03*
X0005250Y0143060D03*
X0076250Y0214060D03*
X0147250Y0214060D03*
X0204250Y0157060D03*
X0204250Y0086060D03*
X0204250Y0015060D03*
D14*
X0183974Y0040729D03*
X0181612Y0040729D03*
X0179250Y0040729D03*
X0176888Y0040729D03*
X0174526Y0040729D03*
X0174526Y0049391D03*
X0176888Y0049391D03*
X0179250Y0049391D03*
X0181612Y0049391D03*
X0183974Y0049391D03*
X0183974Y0111729D03*
X0181612Y0111729D03*
X0179250Y0111729D03*
X0176888Y0111729D03*
X0174526Y0111729D03*
X0174526Y0120391D03*
X0176888Y0120391D03*
X0179250Y0120391D03*
X0181612Y0120391D03*
X0183974Y0120391D03*
X0183974Y0182729D03*
X0181612Y0182729D03*
X0179250Y0182729D03*
X0176888Y0182729D03*
X0174526Y0182729D03*
X0174526Y0191391D03*
X0176888Y0191391D03*
X0179250Y0191391D03*
X0181612Y0191391D03*
X0183974Y0191391D03*
X0112974Y0191391D03*
X0110612Y0191391D03*
X0108250Y0191391D03*
X0105888Y0191391D03*
X0103526Y0191391D03*
X0103526Y0182729D03*
X0105888Y0182729D03*
X0108250Y0182729D03*
X0110612Y0182729D03*
X0112974Y0182729D03*
X0112974Y0120391D03*
X0110612Y0120391D03*
X0108250Y0120391D03*
X0105888Y0120391D03*
X0103526Y0120391D03*
X0103526Y0111729D03*
X0105888Y0111729D03*
X0108250Y0111729D03*
X0110612Y0111729D03*
X0112974Y0111729D03*
X0112974Y0049391D03*
X0110612Y0049391D03*
X0108250Y0049391D03*
X0105888Y0049391D03*
X0103526Y0049391D03*
X0103526Y0040729D03*
X0105888Y0040729D03*
X0108250Y0040729D03*
X0110612Y0040729D03*
X0112974Y0040729D03*
X0041974Y0040729D03*
X0039612Y0040729D03*
X0037250Y0040729D03*
X0034888Y0040729D03*
X0032526Y0040729D03*
X0032526Y0049391D03*
X0034888Y0049391D03*
X0037250Y0049391D03*
X0039612Y0049391D03*
X0041974Y0049391D03*
X0041974Y0111729D03*
X0039612Y0111729D03*
X0037250Y0111729D03*
X0034888Y0111729D03*
X0032526Y0111729D03*
X0032526Y0120391D03*
X0034888Y0120391D03*
X0037250Y0120391D03*
X0039612Y0120391D03*
X0041974Y0120391D03*
X0041974Y0182729D03*
X0039612Y0182729D03*
X0037250Y0182729D03*
X0034888Y0182729D03*
X0032526Y0182729D03*
X0032526Y0191391D03*
X0034888Y0191391D03*
X0037250Y0191391D03*
X0039612Y0191391D03*
X0041974Y0191391D03*
D15*
X0037250Y0187060D03*
X0108250Y0187060D03*
X0179250Y0187060D03*
X0179250Y0116060D03*
X0179250Y0045060D03*
X0108250Y0045060D03*
X0108250Y0116060D03*
X0037250Y0116060D03*
X0037250Y0045060D03*
D16*
X0043259Y0046813D02*
X0043962Y0047516D01*
X0043962Y0047841D01*
X0047200Y0047841D01*
X0047200Y0041918D01*
X0048108Y0041010D01*
X0048954Y0040164D01*
X0049081Y0040164D01*
X0049081Y0039051D01*
X0049784Y0038348D01*
X0050700Y0038348D01*
X0050700Y0033918D01*
X0051608Y0033010D01*
X0055700Y0028918D01*
X0055700Y0014722D01*
X0054474Y0014214D01*
X0053096Y0012836D01*
X0052350Y0011035D01*
X0052350Y0009085D01*
X0053096Y0007284D01*
X0053720Y0006660D01*
X0050780Y0006660D01*
X0051404Y0007284D01*
X0052150Y0009085D01*
X0052150Y0011035D01*
X0051404Y0012836D01*
X0050026Y0014214D01*
X0048225Y0014960D01*
X0046275Y0014960D01*
X0044474Y0014214D01*
X0043096Y0012836D01*
X0042350Y0011035D01*
X0042350Y0009085D01*
X0043096Y0007284D01*
X0043720Y0006660D01*
X0040780Y0006660D01*
X0041404Y0007284D01*
X0042150Y0009085D01*
X0042150Y0011035D01*
X0041404Y0012836D01*
X0040026Y0014214D01*
X0038225Y0014960D01*
X0036275Y0014960D01*
X0034474Y0014214D01*
X0033096Y0012836D01*
X0032350Y0011035D01*
X0032350Y0009085D01*
X0033096Y0007284D01*
X0033720Y0006660D01*
X0030780Y0006660D01*
X0031404Y0007284D01*
X0032150Y0009085D01*
X0032150Y0011035D01*
X0031404Y0012836D01*
X0030026Y0014214D01*
X0029015Y0014633D01*
X0032892Y0018510D01*
X0040052Y0018510D01*
X0040749Y0017813D01*
X0041723Y0017410D01*
X0042777Y0017410D01*
X0043751Y0017813D01*
X0044497Y0018559D01*
X0044900Y0019533D01*
X0044900Y0020587D01*
X0044497Y0021561D01*
X0043800Y0022258D01*
X0043800Y0025702D01*
X0042954Y0026548D01*
X0042954Y0026891D01*
X0044066Y0026891D01*
X0044590Y0027415D01*
X0044731Y0027170D01*
X0045010Y0026891D01*
X0045352Y0026694D01*
X0045734Y0026591D01*
X0047612Y0026591D01*
X0047612Y0029576D01*
X0048581Y0029576D01*
X0048581Y0030544D01*
X0051762Y0030544D01*
X0051762Y0032226D01*
X0051660Y0032607D01*
X0051462Y0032950D01*
X0051183Y0033229D01*
X0050841Y0033426D01*
X0050459Y0033528D01*
X0048581Y0033528D01*
X0048581Y0030544D01*
X0047612Y0030544D01*
X0047612Y0033528D01*
X0045734Y0033528D01*
X0045352Y0033426D01*
X0045010Y0033229D01*
X0044731Y0032950D01*
X0044590Y0032705D01*
X0044066Y0033228D01*
X0038800Y0033228D01*
X0038800Y0036318D01*
X0039608Y0035510D01*
X0045052Y0035510D01*
X0045749Y0034813D01*
X0046723Y0034410D01*
X0047777Y0034410D01*
X0048751Y0034813D01*
X0049497Y0035559D01*
X0049900Y0036533D01*
X0049900Y0037587D01*
X0049497Y0038561D01*
X0048751Y0039307D01*
X0047777Y0039710D01*
X0046723Y0039710D01*
X0045749Y0039307D01*
X0045052Y0038610D01*
X0043717Y0038610D01*
X0043962Y0038854D01*
X0043962Y0042604D01*
X0043259Y0043307D01*
X0031241Y0043307D01*
X0030538Y0042604D01*
X0030538Y0038854D01*
X0030945Y0038447D01*
X0029278Y0036780D01*
X0028800Y0037258D01*
X0028800Y0047702D01*
X0027892Y0048610D01*
X0026546Y0049956D01*
X0025918Y0049956D01*
X0025918Y0050510D01*
X0030538Y0050510D01*
X0030538Y0047516D01*
X0031241Y0046813D01*
X0043259Y0046813D01*
X0043444Y0046997D02*
X0047200Y0046997D01*
X0047200Y0045999D02*
X0028800Y0045999D01*
X0028800Y0046997D02*
X0031056Y0046997D01*
X0030538Y0047996D02*
X0028506Y0047996D01*
X0027508Y0048994D02*
X0030538Y0048994D01*
X0030538Y0049993D02*
X0025918Y0049993D01*
X0028800Y0045000D02*
X0047200Y0045000D01*
X0047200Y0044002D02*
X0028800Y0044002D01*
X0028800Y0043003D02*
X0030937Y0043003D01*
X0030538Y0042005D02*
X0028800Y0042005D01*
X0028800Y0041006D02*
X0030538Y0041006D01*
X0030538Y0040008D02*
X0028800Y0040008D01*
X0028800Y0039009D02*
X0030538Y0039009D01*
X0030509Y0038011D02*
X0028800Y0038011D01*
X0029045Y0037012D02*
X0029510Y0037012D01*
X0038800Y0036014D02*
X0039104Y0036014D01*
X0038800Y0035015D02*
X0045547Y0035015D01*
X0044800Y0033018D02*
X0044276Y0033018D01*
X0047612Y0033018D02*
X0048581Y0033018D01*
X0048581Y0032020D02*
X0047612Y0032020D01*
X0047612Y0031021D02*
X0048581Y0031021D01*
X0048581Y0030023D02*
X0054595Y0030023D01*
X0053597Y0031021D02*
X0051762Y0031021D01*
X0051762Y0032020D02*
X0052598Y0032020D01*
X0051600Y0033018D02*
X0051393Y0033018D01*
X0050700Y0034017D02*
X0038800Y0034017D01*
X0043962Y0039009D02*
X0045452Y0039009D01*
X0043962Y0040008D02*
X0049081Y0040008D01*
X0049048Y0039009D02*
X0049123Y0039009D01*
X0049724Y0038011D02*
X0050700Y0038011D01*
X0050700Y0037012D02*
X0049900Y0037012D01*
X0049685Y0036014D02*
X0050700Y0036014D01*
X0050700Y0035015D02*
X0048953Y0035015D01*
X0053800Y0035202D02*
X0053800Y0038348D01*
X0054716Y0038348D01*
X0055418Y0039051D01*
X0055418Y0044376D01*
X0054734Y0045060D01*
X0055418Y0045744D01*
X0055418Y0046856D01*
X0056238Y0046856D01*
X0057677Y0048295D01*
X0058096Y0047284D01*
X0059474Y0045906D01*
X0061275Y0045160D01*
X0063225Y0045160D01*
X0065026Y0045906D01*
X0066404Y0047284D01*
X0067150Y0049085D01*
X0067150Y0051035D01*
X0066404Y0052836D01*
X0065026Y0054214D01*
X0063225Y0054960D01*
X0061275Y0054960D01*
X0059474Y0054214D01*
X0058096Y0052836D01*
X0057588Y0051610D01*
X0056608Y0051610D01*
X0055700Y0050702D01*
X0055418Y0050420D01*
X0055418Y0051069D01*
X0054716Y0051772D01*
X0050300Y0051772D01*
X0050300Y0055202D01*
X0046392Y0059110D01*
X0043962Y0059110D01*
X0043962Y0060026D01*
X0043259Y0060728D01*
X0042146Y0060728D01*
X0042146Y0061856D01*
X0041238Y0062764D01*
X0038392Y0065610D01*
X0026108Y0065610D01*
X0019708Y0059210D01*
X0019124Y0059210D01*
X0019173Y0059251D01*
X0020742Y0061969D01*
X0021287Y0065060D01*
X0020742Y0068151D01*
X0019173Y0070869D01*
X0019173Y0070869D01*
X0016769Y0072887D01*
X0016769Y0072887D01*
X0015193Y0073460D01*
X0059307Y0073460D01*
X0057731Y0072887D01*
X0055327Y0070869D01*
X0053758Y0068151D01*
X0053213Y0065060D01*
X0053758Y0061969D01*
X0055327Y0059251D01*
X0055327Y0059251D01*
X0057731Y0057233D01*
X0060681Y0056160D01*
X0063819Y0056160D01*
X0066769Y0057233D01*
X0069173Y0059251D01*
X0070650Y0061809D01*
X0070650Y0014014D01*
X0070638Y0014026D01*
X0069975Y0014507D01*
X0069246Y0014879D01*
X0068468Y0015132D01*
X0067750Y0015246D01*
X0067750Y0010560D01*
X0066750Y0010560D01*
X0066750Y0015246D01*
X0066032Y0015132D01*
X0065418Y0014932D01*
X0065418Y0015690D01*
X0064936Y0016855D01*
X0064045Y0017746D01*
X0062880Y0018228D01*
X0061620Y0018228D01*
X0060455Y0017746D01*
X0059564Y0016855D01*
X0059081Y0015690D01*
X0059081Y0014605D01*
X0058800Y0014722D01*
X0058800Y0030202D01*
X0053800Y0035202D01*
X0053987Y0035015D02*
X0070650Y0035015D01*
X0070650Y0034017D02*
X0054985Y0034017D01*
X0055984Y0033018D02*
X0070650Y0033018D01*
X0070650Y0032020D02*
X0056982Y0032020D01*
X0057981Y0031021D02*
X0070650Y0031021D01*
X0070650Y0030023D02*
X0058800Y0030023D01*
X0058800Y0029024D02*
X0070650Y0029024D01*
X0070650Y0028026D02*
X0058800Y0028026D01*
X0058800Y0027027D02*
X0070650Y0027027D01*
X0070650Y0026029D02*
X0058800Y0026029D01*
X0058800Y0025030D02*
X0070650Y0025030D01*
X0070650Y0024032D02*
X0058800Y0024032D01*
X0058800Y0023033D02*
X0070650Y0023033D01*
X0070650Y0022035D02*
X0058800Y0022035D01*
X0058800Y0021036D02*
X0070650Y0021036D01*
X0070650Y0020038D02*
X0058800Y0020038D01*
X0058800Y0019039D02*
X0070650Y0019039D01*
X0070650Y0018041D02*
X0063334Y0018041D01*
X0064749Y0017042D02*
X0070650Y0017042D01*
X0070650Y0016044D02*
X0065272Y0016044D01*
X0065418Y0015045D02*
X0065765Y0015045D01*
X0066750Y0015045D02*
X0067750Y0015045D01*
X0068735Y0015045D02*
X0070650Y0015045D01*
X0070610Y0014047D02*
X0070650Y0014047D01*
X0067750Y0014047D02*
X0066750Y0014047D01*
X0066750Y0013048D02*
X0067750Y0013048D01*
X0067750Y0012050D02*
X0066750Y0012050D01*
X0066750Y0011051D02*
X0067750Y0011051D01*
X0061166Y0018041D02*
X0058800Y0018041D01*
X0058800Y0017042D02*
X0059751Y0017042D01*
X0059228Y0016044D02*
X0058800Y0016044D01*
X0058800Y0015045D02*
X0059081Y0015045D01*
X0055700Y0015045D02*
X0029427Y0015045D01*
X0030193Y0014047D02*
X0034307Y0014047D01*
X0033308Y0013048D02*
X0031192Y0013048D01*
X0031730Y0012050D02*
X0032770Y0012050D01*
X0032357Y0011051D02*
X0032143Y0011051D01*
X0032150Y0010053D02*
X0032350Y0010053D01*
X0032363Y0009054D02*
X0032137Y0009054D01*
X0031723Y0008056D02*
X0032777Y0008056D01*
X0033323Y0007057D02*
X0031177Y0007057D01*
X0030426Y0016044D02*
X0055700Y0016044D01*
X0055700Y0017042D02*
X0031424Y0017042D01*
X0032423Y0018041D02*
X0040522Y0018041D01*
X0043978Y0018041D02*
X0055700Y0018041D01*
X0055700Y0019039D02*
X0044695Y0019039D01*
X0044900Y0020038D02*
X0055700Y0020038D01*
X0055700Y0021036D02*
X0044714Y0021036D01*
X0044023Y0022035D02*
X0055700Y0022035D01*
X0055700Y0023033D02*
X0043800Y0023033D01*
X0043800Y0024032D02*
X0055700Y0024032D01*
X0055700Y0025030D02*
X0043800Y0025030D01*
X0043473Y0026029D02*
X0055700Y0026029D01*
X0055700Y0027027D02*
X0051319Y0027027D01*
X0051183Y0026891D02*
X0051462Y0027170D01*
X0051660Y0027512D01*
X0051762Y0027894D01*
X0051762Y0029576D01*
X0048581Y0029576D01*
X0048581Y0026591D01*
X0050459Y0026591D01*
X0050841Y0026694D01*
X0051183Y0026891D01*
X0051762Y0028026D02*
X0055700Y0028026D01*
X0055594Y0029024D02*
X0051762Y0029024D01*
X0048581Y0029024D02*
X0047612Y0029024D01*
X0047612Y0028026D02*
X0048581Y0028026D01*
X0048581Y0027027D02*
X0047612Y0027027D01*
X0044874Y0027027D02*
X0044202Y0027027D01*
X0053800Y0036014D02*
X0059366Y0036014D01*
X0059474Y0035906D02*
X0061275Y0035160D01*
X0063225Y0035160D01*
X0065026Y0035906D01*
X0066404Y0037284D01*
X0067150Y0039085D01*
X0067150Y0041035D01*
X0066404Y0042836D01*
X0065026Y0044214D01*
X0063225Y0044960D01*
X0061275Y0044960D01*
X0059474Y0044214D01*
X0058096Y0042836D01*
X0057350Y0041035D01*
X0057350Y0039085D01*
X0058096Y0037284D01*
X0059474Y0035906D01*
X0058368Y0037012D02*
X0053800Y0037012D01*
X0053800Y0038011D02*
X0057795Y0038011D01*
X0057381Y0039009D02*
X0055377Y0039009D01*
X0055418Y0040008D02*
X0057350Y0040008D01*
X0057350Y0041006D02*
X0055418Y0041006D01*
X0055418Y0042005D02*
X0057752Y0042005D01*
X0058264Y0043003D02*
X0055418Y0043003D01*
X0055418Y0044002D02*
X0059262Y0044002D01*
X0059381Y0045999D02*
X0055418Y0045999D01*
X0054794Y0045000D02*
X0070650Y0045000D01*
X0070650Y0044002D02*
X0065238Y0044002D01*
X0066236Y0043003D02*
X0070650Y0043003D01*
X0070650Y0042005D02*
X0066748Y0042005D01*
X0067150Y0041006D02*
X0070650Y0041006D01*
X0070650Y0040008D02*
X0067150Y0040008D01*
X0067119Y0039009D02*
X0070650Y0039009D01*
X0070650Y0038011D02*
X0066705Y0038011D01*
X0066132Y0037012D02*
X0070650Y0037012D01*
X0070650Y0036014D02*
X0065133Y0036014D01*
X0065119Y0045999D02*
X0070650Y0045999D01*
X0070650Y0046997D02*
X0066117Y0046997D01*
X0066699Y0047996D02*
X0070650Y0047996D01*
X0070650Y0048994D02*
X0067112Y0048994D01*
X0067150Y0049993D02*
X0070650Y0049993D01*
X0070650Y0050992D02*
X0067150Y0050992D01*
X0066754Y0051990D02*
X0070650Y0051990D01*
X0070650Y0052989D02*
X0066251Y0052989D01*
X0065253Y0053987D02*
X0070650Y0053987D01*
X0070650Y0054986D02*
X0050300Y0054986D01*
X0050300Y0053987D02*
X0059247Y0053987D01*
X0058249Y0052989D02*
X0050300Y0052989D01*
X0050300Y0051990D02*
X0057746Y0051990D01*
X0055989Y0050992D02*
X0055418Y0050992D01*
X0057378Y0047996D02*
X0057801Y0047996D01*
X0058383Y0046997D02*
X0056379Y0046997D01*
X0048112Y0041006D02*
X0043962Y0041006D01*
X0043962Y0042005D02*
X0047200Y0042005D01*
X0047200Y0043003D02*
X0043563Y0043003D01*
X0049518Y0055984D02*
X0070650Y0055984D01*
X0070650Y0056983D02*
X0066079Y0056983D01*
X0066769Y0057233D02*
X0066769Y0057233D01*
X0067660Y0057981D02*
X0070650Y0057981D01*
X0070650Y0058980D02*
X0068850Y0058980D01*
X0069173Y0059251D02*
X0069173Y0059251D01*
X0069173Y0059251D01*
X0069593Y0059978D02*
X0070650Y0059978D01*
X0070650Y0060977D02*
X0070169Y0060977D01*
X0058421Y0056983D02*
X0048519Y0056983D01*
X0047521Y0057981D02*
X0056840Y0057981D01*
X0057731Y0057233D02*
X0057731Y0057233D01*
X0055650Y0058980D02*
X0046522Y0058980D01*
X0043962Y0059978D02*
X0054907Y0059978D01*
X0054331Y0060977D02*
X0042146Y0060977D01*
X0042027Y0061975D02*
X0053757Y0061975D01*
X0053581Y0062974D02*
X0041028Y0062974D01*
X0040030Y0063972D02*
X0053405Y0063972D01*
X0053228Y0064971D02*
X0039031Y0064971D01*
X0037108Y0062510D02*
X0027392Y0062510D01*
X0021900Y0057018D01*
X0021900Y0056033D01*
X0021725Y0055610D01*
X0024609Y0055610D01*
X0025003Y0056561D01*
X0025749Y0057307D01*
X0026723Y0057710D01*
X0027777Y0057710D01*
X0028751Y0057307D01*
X0029497Y0056561D01*
X0029891Y0055610D01*
X0030238Y0055610D01*
X0030238Y0057076D01*
X0033419Y0057076D01*
X0033419Y0058044D01*
X0030238Y0058044D01*
X0030238Y0059726D01*
X0030340Y0060107D01*
X0030538Y0060450D01*
X0030817Y0060729D01*
X0031159Y0060926D01*
X0031541Y0061028D01*
X0033419Y0061028D01*
X0033419Y0058044D01*
X0034388Y0058044D01*
X0034388Y0061028D01*
X0036266Y0061028D01*
X0036648Y0060926D01*
X0036990Y0060729D01*
X0037269Y0060450D01*
X0037410Y0060205D01*
X0037934Y0060728D01*
X0038889Y0060728D01*
X0037108Y0062510D01*
X0037643Y0061975D02*
X0026857Y0061975D01*
X0025859Y0060977D02*
X0031347Y0060977D01*
X0030306Y0059978D02*
X0024860Y0059978D01*
X0023862Y0058980D02*
X0030238Y0058980D01*
X0030238Y0056983D02*
X0029075Y0056983D01*
X0029736Y0055984D02*
X0030238Y0055984D01*
X0033419Y0057981D02*
X0022863Y0057981D01*
X0021900Y0056983D02*
X0025425Y0056983D01*
X0024764Y0055984D02*
X0021880Y0055984D01*
X0020476Y0059978D02*
X0019593Y0059978D01*
X0019173Y0059251D02*
X0019173Y0059251D01*
X0019173Y0059251D01*
X0020169Y0060977D02*
X0021475Y0060977D01*
X0020742Y0061969D02*
X0020742Y0061969D01*
X0020743Y0061975D02*
X0022473Y0061975D01*
X0023472Y0062974D02*
X0020919Y0062974D01*
X0021095Y0063972D02*
X0024470Y0063972D01*
X0025469Y0064971D02*
X0021272Y0064971D01*
X0021287Y0065060D02*
X0021287Y0065060D01*
X0021127Y0065969D02*
X0053373Y0065969D01*
X0053549Y0066968D02*
X0020951Y0066968D01*
X0020775Y0067966D02*
X0053725Y0067966D01*
X0054228Y0068965D02*
X0020272Y0068965D01*
X0020742Y0068151D02*
X0020742Y0068151D01*
X0019696Y0069963D02*
X0054804Y0069963D01*
X0055327Y0070869D02*
X0055327Y0070869D01*
X0055327Y0070869D01*
X0055438Y0070962D02*
X0019063Y0070962D01*
X0017873Y0071960D02*
X0056627Y0071960D01*
X0057731Y0072887D02*
X0057731Y0072887D01*
X0057930Y0072959D02*
X0016570Y0072959D01*
X0029015Y0085633D02*
X0032892Y0089510D01*
X0040052Y0089510D01*
X0040749Y0088813D01*
X0041723Y0088410D01*
X0042777Y0088410D01*
X0043751Y0088813D01*
X0044497Y0089559D01*
X0044900Y0090533D01*
X0044900Y0091587D01*
X0044497Y0092561D01*
X0043800Y0093258D01*
X0043800Y0096702D01*
X0042954Y0097548D01*
X0042954Y0097891D01*
X0044066Y0097891D01*
X0044590Y0098415D01*
X0044731Y0098170D01*
X0045010Y0097891D01*
X0045352Y0097694D01*
X0045734Y0097591D01*
X0047612Y0097591D01*
X0047612Y0100576D01*
X0048581Y0100576D01*
X0048581Y0101544D01*
X0051762Y0101544D01*
X0051762Y0103226D01*
X0051660Y0103607D01*
X0051462Y0103950D01*
X0051183Y0104229D01*
X0050841Y0104426D01*
X0050459Y0104528D01*
X0048581Y0104528D01*
X0048581Y0101544D01*
X0047612Y0101544D01*
X0047612Y0104528D01*
X0045734Y0104528D01*
X0045352Y0104426D01*
X0045010Y0104229D01*
X0044731Y0103950D01*
X0044590Y0103705D01*
X0044066Y0104228D01*
X0038800Y0104228D01*
X0038800Y0107318D01*
X0038970Y0107148D01*
X0039608Y0106510D01*
X0045052Y0106510D01*
X0045749Y0105813D01*
X0046723Y0105410D01*
X0047777Y0105410D01*
X0048751Y0105813D01*
X0049497Y0106559D01*
X0049900Y0107533D01*
X0049900Y0108587D01*
X0049497Y0109561D01*
X0048751Y0110307D01*
X0047777Y0110710D01*
X0046723Y0110710D01*
X0045749Y0110307D01*
X0045052Y0109610D01*
X0043717Y0109610D01*
X0043962Y0109854D01*
X0043962Y0113604D01*
X0043259Y0114307D01*
X0031241Y0114307D01*
X0030538Y0113604D01*
X0030538Y0109854D01*
X0030945Y0109447D01*
X0029278Y0107780D01*
X0028800Y0108258D01*
X0028800Y0118702D01*
X0027892Y0119610D01*
X0027454Y0120048D01*
X0027454Y0120048D01*
X0026546Y0120956D01*
X0025918Y0120956D01*
X0025918Y0121510D01*
X0030538Y0121510D01*
X0030538Y0118516D01*
X0031241Y0117813D01*
X0043259Y0117813D01*
X0043962Y0118516D01*
X0043962Y0118841D01*
X0047200Y0118841D01*
X0047200Y0112918D01*
X0048108Y0112010D01*
X0048954Y0111164D01*
X0049081Y0111164D01*
X0049081Y0110051D01*
X0049784Y0109348D01*
X0050700Y0109348D01*
X0050700Y0104918D01*
X0051608Y0104010D01*
X0055700Y0099918D01*
X0055700Y0085722D01*
X0054474Y0085214D01*
X0053096Y0083836D01*
X0052350Y0082035D01*
X0052350Y0080085D01*
X0053096Y0078284D01*
X0053720Y0077660D01*
X0050780Y0077660D01*
X0051404Y0078284D01*
X0052150Y0080085D01*
X0052150Y0082035D01*
X0051404Y0083836D01*
X0050026Y0085214D01*
X0048225Y0085960D01*
X0046275Y0085960D01*
X0044474Y0085214D01*
X0043096Y0083836D01*
X0042350Y0082035D01*
X0042350Y0080085D01*
X0043096Y0078284D01*
X0043720Y0077660D01*
X0040780Y0077660D01*
X0041404Y0078284D01*
X0042150Y0080085D01*
X0042150Y0082035D01*
X0041404Y0083836D01*
X0040026Y0085214D01*
X0038225Y0085960D01*
X0036275Y0085960D01*
X0034474Y0085214D01*
X0033096Y0083836D01*
X0032350Y0082035D01*
X0032350Y0080085D01*
X0033096Y0078284D01*
X0033720Y0077660D01*
X0030780Y0077660D01*
X0031404Y0078284D01*
X0032150Y0080085D01*
X0032150Y0082035D01*
X0031404Y0083836D01*
X0030026Y0085214D01*
X0029015Y0085633D01*
X0029321Y0085939D02*
X0036226Y0085939D01*
X0038274Y0085939D02*
X0046226Y0085939D01*
X0048274Y0085939D02*
X0055700Y0085939D01*
X0055700Y0086938D02*
X0030320Y0086938D01*
X0031318Y0087936D02*
X0055700Y0087936D01*
X0055700Y0088935D02*
X0043873Y0088935D01*
X0044652Y0089933D02*
X0055700Y0089933D01*
X0055700Y0090932D02*
X0044900Y0090932D01*
X0044758Y0091930D02*
X0055700Y0091930D01*
X0055700Y0092929D02*
X0044129Y0092929D01*
X0043800Y0093927D02*
X0055700Y0093927D01*
X0055700Y0094926D02*
X0043800Y0094926D01*
X0043800Y0095925D02*
X0055700Y0095925D01*
X0055700Y0096923D02*
X0043579Y0096923D01*
X0044096Y0097922D02*
X0044980Y0097922D01*
X0047612Y0097922D02*
X0048581Y0097922D01*
X0048581Y0097591D02*
X0050459Y0097591D01*
X0050841Y0097694D01*
X0051183Y0097891D01*
X0051462Y0098170D01*
X0051660Y0098512D01*
X0051762Y0098894D01*
X0051762Y0100576D01*
X0048581Y0100576D01*
X0048581Y0097591D01*
X0048581Y0098920D02*
X0047612Y0098920D01*
X0047612Y0099919D02*
X0048581Y0099919D01*
X0048581Y0100917D02*
X0054701Y0100917D01*
X0055699Y0099919D02*
X0051762Y0099919D01*
X0051762Y0098920D02*
X0055700Y0098920D01*
X0055700Y0097922D02*
X0051213Y0097922D01*
X0051762Y0101916D02*
X0053702Y0101916D01*
X0052704Y0102914D02*
X0051762Y0102914D01*
X0051705Y0103913D02*
X0051483Y0103913D01*
X0050707Y0104911D02*
X0038800Y0104911D01*
X0038800Y0105910D02*
X0045653Y0105910D01*
X0044710Y0103913D02*
X0044382Y0103913D01*
X0047612Y0103913D02*
X0048581Y0103913D01*
X0048581Y0102914D02*
X0047612Y0102914D01*
X0047612Y0101916D02*
X0048581Y0101916D01*
X0048847Y0105910D02*
X0050700Y0105910D01*
X0050700Y0106908D02*
X0049641Y0106908D01*
X0049900Y0107907D02*
X0050700Y0107907D01*
X0050700Y0108905D02*
X0049768Y0108905D01*
X0049229Y0109904D02*
X0049154Y0109904D01*
X0049081Y0110902D02*
X0043962Y0110902D01*
X0043962Y0109904D02*
X0045346Y0109904D01*
X0043962Y0111901D02*
X0048217Y0111901D01*
X0047219Y0112899D02*
X0043962Y0112899D01*
X0043668Y0113898D02*
X0047200Y0113898D01*
X0047200Y0114896D02*
X0028800Y0114896D01*
X0028800Y0113898D02*
X0030832Y0113898D01*
X0030538Y0112899D02*
X0028800Y0112899D01*
X0028800Y0111901D02*
X0030538Y0111901D01*
X0030538Y0110902D02*
X0028800Y0110902D01*
X0028800Y0109904D02*
X0030538Y0109904D01*
X0030403Y0108905D02*
X0028800Y0108905D01*
X0029151Y0107907D02*
X0029405Y0107907D01*
X0028800Y0115895D02*
X0047200Y0115895D01*
X0047200Y0116893D02*
X0028800Y0116893D01*
X0028800Y0117892D02*
X0031162Y0117892D01*
X0030538Y0118890D02*
X0028612Y0118890D01*
X0027892Y0119610D02*
X0027892Y0119610D01*
X0027613Y0119889D02*
X0030538Y0119889D01*
X0030538Y0120887D02*
X0026615Y0120887D01*
X0024609Y0126610D02*
X0021725Y0126610D01*
X0021900Y0127033D01*
X0021900Y0128018D01*
X0027392Y0133510D01*
X0037108Y0133510D01*
X0038889Y0131728D01*
X0037934Y0131728D01*
X0037410Y0131205D01*
X0037269Y0131450D01*
X0036990Y0131729D01*
X0036648Y0131926D01*
X0036266Y0132028D01*
X0034388Y0132028D01*
X0034388Y0129044D01*
X0033419Y0129044D01*
X0033419Y0128076D01*
X0030238Y0128076D01*
X0030238Y0126610D01*
X0029891Y0126610D01*
X0029497Y0127561D01*
X0028751Y0128307D01*
X0027777Y0128710D01*
X0026723Y0128710D01*
X0025749Y0128307D01*
X0025003Y0127561D01*
X0024609Y0126610D01*
X0024721Y0126878D02*
X0021836Y0126878D01*
X0021900Y0127877D02*
X0025319Y0127877D01*
X0023756Y0129874D02*
X0030238Y0129874D01*
X0030238Y0129044D02*
X0030238Y0130726D01*
X0030340Y0131107D01*
X0030538Y0131450D01*
X0030817Y0131729D01*
X0031159Y0131926D01*
X0031541Y0132028D01*
X0033419Y0132028D01*
X0033419Y0129044D01*
X0030238Y0129044D01*
X0030238Y0127877D02*
X0029181Y0127877D01*
X0029779Y0126878D02*
X0030238Y0126878D01*
X0033419Y0128875D02*
X0022757Y0128875D01*
X0024754Y0130872D02*
X0030277Y0130872D01*
X0031063Y0131871D02*
X0025753Y0131871D01*
X0026751Y0132869D02*
X0037749Y0132869D01*
X0038747Y0131871D02*
X0036744Y0131871D01*
X0034388Y0131871D02*
X0033419Y0131871D01*
X0033419Y0130872D02*
X0034388Y0130872D01*
X0034388Y0129874D02*
X0033419Y0129874D01*
X0039137Y0135865D02*
X0053247Y0135865D01*
X0053213Y0136060D02*
X0053758Y0132969D01*
X0055327Y0130251D01*
X0055327Y0130251D01*
X0057731Y0128233D01*
X0060681Y0127160D01*
X0063819Y0127160D01*
X0066769Y0128233D01*
X0069173Y0130251D01*
X0070650Y0132809D01*
X0070650Y0085014D01*
X0070638Y0085026D01*
X0069975Y0085507D01*
X0069246Y0085879D01*
X0068468Y0086132D01*
X0067750Y0086246D01*
X0067750Y0081560D01*
X0066750Y0081560D01*
X0066750Y0086246D01*
X0066032Y0086132D01*
X0065418Y0085932D01*
X0065418Y0086690D01*
X0064936Y0087855D01*
X0064045Y0088746D01*
X0062880Y0089228D01*
X0061620Y0089228D01*
X0060455Y0088746D01*
X0059564Y0087855D01*
X0059081Y0086690D01*
X0059081Y0085605D01*
X0058800Y0085722D01*
X0058800Y0101202D01*
X0053800Y0106202D01*
X0053800Y0109348D01*
X0054716Y0109348D01*
X0055418Y0110051D01*
X0055418Y0115376D01*
X0054734Y0116060D01*
X0055418Y0116744D01*
X0055418Y0117856D01*
X0056238Y0117856D01*
X0057677Y0119295D01*
X0058096Y0118284D01*
X0059474Y0116906D01*
X0061275Y0116160D01*
X0063225Y0116160D01*
X0065026Y0116906D01*
X0066404Y0118284D01*
X0067150Y0120085D01*
X0067150Y0122035D01*
X0066404Y0123836D01*
X0065026Y0125214D01*
X0063225Y0125960D01*
X0061275Y0125960D01*
X0059474Y0125214D01*
X0058096Y0123836D01*
X0057588Y0122610D01*
X0056608Y0122610D01*
X0055700Y0121702D01*
X0055418Y0121420D01*
X0055418Y0122069D01*
X0054716Y0122772D01*
X0050300Y0122772D01*
X0050300Y0126202D01*
X0046392Y0130110D01*
X0043962Y0130110D01*
X0043962Y0131026D01*
X0043259Y0131728D01*
X0042146Y0131728D01*
X0042146Y0132856D01*
X0041238Y0133764D01*
X0038392Y0136610D01*
X0026108Y0136610D01*
X0019708Y0130210D01*
X0019124Y0130210D01*
X0019173Y0130251D01*
X0020742Y0132969D01*
X0021287Y0136060D01*
X0020742Y0139151D01*
X0019173Y0141869D01*
X0019173Y0141869D01*
X0016769Y0143887D01*
X0016769Y0143887D01*
X0015193Y0144460D01*
X0059307Y0144460D01*
X0057731Y0143887D01*
X0055327Y0141869D01*
X0053758Y0139151D01*
X0053758Y0139151D01*
X0053213Y0136060D01*
X0053213Y0136060D01*
X0053354Y0136863D02*
X0021146Y0136863D01*
X0021287Y0136060D02*
X0021287Y0136060D01*
X0021253Y0135865D02*
X0025363Y0135865D01*
X0024364Y0134866D02*
X0021077Y0134866D01*
X0020901Y0133868D02*
X0023366Y0133868D01*
X0022367Y0132869D02*
X0020685Y0132869D01*
X0020742Y0132969D02*
X0020742Y0132969D01*
X0021369Y0131871D02*
X0020108Y0131871D01*
X0020370Y0130872D02*
X0019532Y0130872D01*
X0019173Y0130251D02*
X0019173Y0130251D01*
X0019173Y0130251D01*
X0020970Y0137862D02*
X0053530Y0137862D01*
X0053707Y0138861D02*
X0020793Y0138861D01*
X0020742Y0139151D02*
X0020742Y0139151D01*
X0020333Y0139859D02*
X0054167Y0139859D01*
X0054743Y0140858D02*
X0019757Y0140858D01*
X0019180Y0141856D02*
X0055320Y0141856D01*
X0055327Y0141869D02*
X0055327Y0141869D01*
X0055327Y0141869D01*
X0056502Y0142855D02*
X0017998Y0142855D01*
X0016809Y0143853D02*
X0057691Y0143853D01*
X0057731Y0143887D02*
X0057731Y0143887D01*
X0053720Y0148660D02*
X0050780Y0148660D01*
X0051404Y0149284D01*
X0052150Y0151085D01*
X0052150Y0153035D01*
X0051404Y0154836D01*
X0050026Y0156214D01*
X0048225Y0156960D01*
X0046275Y0156960D01*
X0044474Y0156214D01*
X0043096Y0154836D01*
X0042350Y0153035D01*
X0042350Y0151085D01*
X0043096Y0149284D01*
X0043720Y0148660D01*
X0040780Y0148660D01*
X0041404Y0149284D01*
X0042150Y0151085D01*
X0042150Y0153035D01*
X0041404Y0154836D01*
X0040026Y0156214D01*
X0038225Y0156960D01*
X0036275Y0156960D01*
X0034474Y0156214D01*
X0033096Y0154836D01*
X0032350Y0153035D01*
X0032350Y0151085D01*
X0033096Y0149284D01*
X0033720Y0148660D01*
X0030780Y0148660D01*
X0031404Y0149284D01*
X0032150Y0151085D01*
X0032150Y0153035D01*
X0031404Y0154836D01*
X0030026Y0156214D01*
X0029015Y0156633D01*
X0032892Y0160510D01*
X0040052Y0160510D01*
X0040749Y0159813D01*
X0041723Y0159410D01*
X0042777Y0159410D01*
X0043751Y0159813D01*
X0044497Y0160559D01*
X0044900Y0161533D01*
X0044900Y0162587D01*
X0044497Y0163561D01*
X0043800Y0164258D01*
X0043800Y0167702D01*
X0042954Y0168548D01*
X0042954Y0168891D01*
X0044066Y0168891D01*
X0044590Y0169415D01*
X0044731Y0169170D01*
X0045010Y0168891D01*
X0045352Y0168694D01*
X0045734Y0168591D01*
X0047612Y0168591D01*
X0047612Y0171576D01*
X0048581Y0171576D01*
X0048581Y0172544D01*
X0051762Y0172544D01*
X0051762Y0174226D01*
X0051660Y0174607D01*
X0051462Y0174950D01*
X0051183Y0175229D01*
X0050841Y0175426D01*
X0050459Y0175528D01*
X0048581Y0175528D01*
X0048581Y0172544D01*
X0047612Y0172544D01*
X0047612Y0175528D01*
X0045734Y0175528D01*
X0045352Y0175426D01*
X0045010Y0175229D01*
X0044731Y0174950D01*
X0044590Y0174705D01*
X0044066Y0175228D01*
X0038800Y0175228D01*
X0038800Y0178318D01*
X0038970Y0178148D01*
X0039608Y0177510D01*
X0045052Y0177510D01*
X0045749Y0176813D01*
X0046723Y0176410D01*
X0047777Y0176410D01*
X0048751Y0176813D01*
X0049497Y0177559D01*
X0049900Y0178533D01*
X0049900Y0179587D01*
X0049497Y0180561D01*
X0048751Y0181307D01*
X0047777Y0181710D01*
X0046723Y0181710D01*
X0045749Y0181307D01*
X0045052Y0180610D01*
X0043717Y0180610D01*
X0043962Y0180854D01*
X0043962Y0184604D01*
X0043259Y0185307D01*
X0031241Y0185307D01*
X0030538Y0184604D01*
X0030538Y0180854D01*
X0030945Y0180447D01*
X0029278Y0178780D01*
X0028800Y0179258D01*
X0028800Y0189702D01*
X0027892Y0190610D01*
X0026546Y0191956D01*
X0025918Y0191956D01*
X0025918Y0192510D01*
X0030538Y0192510D01*
X0030538Y0189516D01*
X0031241Y0188813D01*
X0043259Y0188813D01*
X0043962Y0189516D01*
X0043962Y0189841D01*
X0047200Y0189841D01*
X0047200Y0183918D01*
X0048108Y0183010D01*
X0048954Y0182164D01*
X0049081Y0182164D01*
X0049081Y0181051D01*
X0049784Y0180348D01*
X0050700Y0180348D01*
X0050700Y0175918D01*
X0051608Y0175010D01*
X0055700Y0170918D01*
X0055700Y0156722D01*
X0054474Y0156214D01*
X0053096Y0154836D01*
X0052350Y0153035D01*
X0052350Y0151085D01*
X0053096Y0149284D01*
X0053720Y0148660D01*
X0053535Y0148846D02*
X0050965Y0148846D01*
X0051636Y0149844D02*
X0052864Y0149844D01*
X0052451Y0150843D02*
X0052049Y0150843D01*
X0052150Y0151841D02*
X0052350Y0151841D01*
X0052350Y0152840D02*
X0052150Y0152840D01*
X0051817Y0153838D02*
X0052683Y0153838D01*
X0053097Y0154837D02*
X0051403Y0154837D01*
X0050404Y0155835D02*
X0054096Y0155835D01*
X0055700Y0156834D02*
X0048530Y0156834D01*
X0045970Y0156834D02*
X0038530Y0156834D01*
X0040404Y0155835D02*
X0044096Y0155835D01*
X0043097Y0154837D02*
X0041403Y0154837D01*
X0041817Y0153838D02*
X0042683Y0153838D01*
X0042350Y0152840D02*
X0042150Y0152840D01*
X0042150Y0151841D02*
X0042350Y0151841D01*
X0042451Y0150843D02*
X0042049Y0150843D01*
X0041636Y0149844D02*
X0042864Y0149844D01*
X0043535Y0148846D02*
X0040965Y0148846D01*
X0033535Y0148846D02*
X0030965Y0148846D01*
X0031636Y0149844D02*
X0032864Y0149844D01*
X0032451Y0150843D02*
X0032049Y0150843D01*
X0032150Y0151841D02*
X0032350Y0151841D01*
X0032350Y0152840D02*
X0032150Y0152840D01*
X0031817Y0153838D02*
X0032683Y0153838D01*
X0033097Y0154837D02*
X0031403Y0154837D01*
X0030404Y0155835D02*
X0034096Y0155835D01*
X0035970Y0156834D02*
X0029216Y0156834D01*
X0030214Y0157832D02*
X0055700Y0157832D01*
X0055700Y0158831D02*
X0031213Y0158831D01*
X0032211Y0159829D02*
X0040733Y0159829D01*
X0043767Y0159829D02*
X0055700Y0159829D01*
X0055700Y0160828D02*
X0044608Y0160828D01*
X0044900Y0161826D02*
X0055700Y0161826D01*
X0055700Y0162825D02*
X0044802Y0162825D01*
X0044234Y0163823D02*
X0055700Y0163823D01*
X0055700Y0164822D02*
X0043800Y0164822D01*
X0043800Y0165820D02*
X0055700Y0165820D01*
X0055700Y0166819D02*
X0043800Y0166819D01*
X0043685Y0167817D02*
X0055700Y0167817D01*
X0055700Y0168816D02*
X0051052Y0168816D01*
X0051183Y0168891D02*
X0051462Y0169170D01*
X0051660Y0169513D01*
X0051762Y0169894D01*
X0051762Y0171576D01*
X0048581Y0171576D01*
X0048581Y0168591D01*
X0050459Y0168591D01*
X0050841Y0168694D01*
X0051183Y0168891D01*
X0051740Y0169814D02*
X0055700Y0169814D01*
X0055700Y0170813D02*
X0051762Y0170813D01*
X0051762Y0172810D02*
X0053808Y0172810D01*
X0052810Y0173808D02*
X0051762Y0173808D01*
X0051811Y0174807D02*
X0051544Y0174807D01*
X0051608Y0175010D02*
X0051608Y0175010D01*
X0050813Y0175805D02*
X0038800Y0175805D01*
X0038800Y0176804D02*
X0045772Y0176804D01*
X0044648Y0174807D02*
X0044488Y0174807D01*
X0047612Y0174807D02*
X0048581Y0174807D01*
X0048581Y0173808D02*
X0047612Y0173808D01*
X0047612Y0172810D02*
X0048581Y0172810D01*
X0048581Y0171811D02*
X0054807Y0171811D01*
X0057194Y0173808D02*
X0070650Y0173808D01*
X0070650Y0172810D02*
X0058192Y0172810D01*
X0058800Y0172202D02*
X0053800Y0177202D01*
X0053800Y0180348D01*
X0054716Y0180348D01*
X0055418Y0181051D01*
X0055418Y0186376D01*
X0054734Y0187060D01*
X0055418Y0187744D01*
X0055418Y0188856D01*
X0056238Y0188856D01*
X0057677Y0190295D01*
X0058096Y0189284D01*
X0059474Y0187906D01*
X0061275Y0187160D01*
X0063225Y0187160D01*
X0065026Y0187906D01*
X0066404Y0189284D01*
X0067150Y0191085D01*
X0067150Y0193035D01*
X0066404Y0194836D01*
X0065026Y0196214D01*
X0063225Y0196960D01*
X0061275Y0196960D01*
X0059474Y0196214D01*
X0058096Y0194836D01*
X0057588Y0193610D01*
X0056608Y0193610D01*
X0055700Y0192702D01*
X0055418Y0192420D01*
X0055418Y0193069D01*
X0054716Y0193772D01*
X0050300Y0193772D01*
X0050300Y0197202D01*
X0046392Y0201110D01*
X0043962Y0201110D01*
X0043962Y0202026D01*
X0043259Y0202728D01*
X0042146Y0202728D01*
X0042146Y0203856D01*
X0041238Y0204764D01*
X0038392Y0207610D01*
X0026108Y0207610D01*
X0019708Y0201210D01*
X0019124Y0201210D01*
X0019173Y0201251D01*
X0020742Y0203969D01*
X0021287Y0207060D01*
X0020742Y0210151D01*
X0019173Y0212869D01*
X0019173Y0212869D01*
X0016769Y0214887D01*
X0016769Y0214887D01*
X0015193Y0215460D01*
X0059307Y0215460D01*
X0057731Y0214887D01*
X0055327Y0212869D01*
X0053758Y0210151D01*
X0053758Y0210151D01*
X0053213Y0207060D01*
X0053758Y0203969D01*
X0055327Y0201251D01*
X0055327Y0201251D01*
X0057731Y0199233D01*
X0060681Y0198160D01*
X0063819Y0198160D01*
X0066769Y0199233D01*
X0069173Y0201251D01*
X0070650Y0203809D01*
X0070650Y0156014D01*
X0070638Y0156026D01*
X0069975Y0156507D01*
X0069246Y0156879D01*
X0068468Y0157132D01*
X0067750Y0157246D01*
X0067750Y0152560D01*
X0066750Y0152560D01*
X0066750Y0157246D01*
X0066032Y0157132D01*
X0065418Y0156932D01*
X0065418Y0157690D01*
X0064936Y0158855D01*
X0064045Y0159746D01*
X0062880Y0160228D01*
X0061620Y0160228D01*
X0060455Y0159746D01*
X0059564Y0158855D01*
X0059081Y0157690D01*
X0059081Y0156605D01*
X0058800Y0156722D01*
X0058800Y0172202D01*
X0058800Y0171811D02*
X0070650Y0171811D01*
X0070650Y0170813D02*
X0058800Y0170813D01*
X0058800Y0169814D02*
X0070650Y0169814D01*
X0070650Y0168816D02*
X0058800Y0168816D01*
X0058800Y0167817D02*
X0070650Y0167817D01*
X0070650Y0166819D02*
X0058800Y0166819D01*
X0058800Y0165820D02*
X0070650Y0165820D01*
X0070650Y0164822D02*
X0058800Y0164822D01*
X0058800Y0163823D02*
X0070650Y0163823D01*
X0070650Y0162825D02*
X0058800Y0162825D01*
X0058800Y0161826D02*
X0070650Y0161826D01*
X0070650Y0160828D02*
X0058800Y0160828D01*
X0058800Y0159829D02*
X0060656Y0159829D01*
X0059554Y0158831D02*
X0058800Y0158831D01*
X0058800Y0157832D02*
X0059140Y0157832D01*
X0059081Y0156834D02*
X0058800Y0156834D01*
X0063844Y0159829D02*
X0070650Y0159829D01*
X0070650Y0158831D02*
X0064946Y0158831D01*
X0065360Y0157832D02*
X0070650Y0157832D01*
X0070650Y0156834D02*
X0069335Y0156834D01*
X0067750Y0156834D02*
X0066750Y0156834D01*
X0066750Y0155835D02*
X0067750Y0155835D01*
X0067750Y0154837D02*
X0066750Y0154837D01*
X0066750Y0153838D02*
X0067750Y0153838D01*
X0067750Y0152840D02*
X0066750Y0152840D01*
X0053423Y0134866D02*
X0040136Y0134866D01*
X0041134Y0133868D02*
X0053599Y0133868D01*
X0053758Y0132969D02*
X0053758Y0132969D01*
X0053815Y0132869D02*
X0042133Y0132869D01*
X0042146Y0131871D02*
X0054392Y0131871D01*
X0054968Y0130872D02*
X0043962Y0130872D01*
X0046628Y0129874D02*
X0055776Y0129874D01*
X0056966Y0128875D02*
X0047627Y0128875D01*
X0048625Y0127877D02*
X0058711Y0127877D01*
X0057731Y0128233D02*
X0057731Y0128233D01*
X0059142Y0124881D02*
X0050300Y0124881D01*
X0050300Y0123883D02*
X0058143Y0123883D01*
X0057702Y0122884D02*
X0050300Y0122884D01*
X0050300Y0125880D02*
X0061082Y0125880D01*
X0063418Y0125880D02*
X0070650Y0125880D01*
X0070650Y0126878D02*
X0049624Y0126878D01*
X0055418Y0121886D02*
X0055884Y0121886D01*
X0057272Y0118890D02*
X0057845Y0118890D01*
X0058489Y0117892D02*
X0056274Y0117892D01*
X0055418Y0116893D02*
X0059505Y0116893D01*
X0059474Y0115214D02*
X0058096Y0113836D01*
X0057350Y0112035D01*
X0057350Y0110085D01*
X0058096Y0108284D01*
X0059474Y0106906D01*
X0061275Y0106160D01*
X0063225Y0106160D01*
X0065026Y0106906D01*
X0066404Y0108284D01*
X0067150Y0110085D01*
X0067150Y0112035D01*
X0066404Y0113836D01*
X0065026Y0115214D01*
X0063225Y0115960D01*
X0061275Y0115960D01*
X0059474Y0115214D01*
X0059157Y0114896D02*
X0055418Y0114896D01*
X0055418Y0113898D02*
X0058158Y0113898D01*
X0057708Y0112899D02*
X0055418Y0112899D01*
X0055418Y0111901D02*
X0057350Y0111901D01*
X0057350Y0110902D02*
X0055418Y0110902D01*
X0055271Y0109904D02*
X0057425Y0109904D01*
X0057839Y0108905D02*
X0053800Y0108905D01*
X0053800Y0107907D02*
X0058474Y0107907D01*
X0059472Y0106908D02*
X0053800Y0106908D01*
X0054092Y0105910D02*
X0070650Y0105910D01*
X0070650Y0106908D02*
X0065028Y0106908D01*
X0066026Y0107907D02*
X0070650Y0107907D01*
X0070650Y0108905D02*
X0066661Y0108905D01*
X0067075Y0109904D02*
X0070650Y0109904D01*
X0070650Y0110902D02*
X0067150Y0110902D01*
X0067150Y0111901D02*
X0070650Y0111901D01*
X0070650Y0112899D02*
X0066792Y0112899D01*
X0066342Y0113898D02*
X0070650Y0113898D01*
X0070650Y0114896D02*
X0065343Y0114896D01*
X0064995Y0116893D02*
X0070650Y0116893D01*
X0070650Y0115895D02*
X0063382Y0115895D01*
X0061118Y0115895D02*
X0054900Y0115895D01*
X0047200Y0117892D02*
X0043338Y0117892D01*
X0039210Y0106908D02*
X0038800Y0106908D01*
X0055091Y0104911D02*
X0070650Y0104911D01*
X0070650Y0103913D02*
X0056089Y0103913D01*
X0057088Y0102914D02*
X0070650Y0102914D01*
X0070650Y0101916D02*
X0058086Y0101916D01*
X0058800Y0100917D02*
X0070650Y0100917D01*
X0070650Y0099919D02*
X0058800Y0099919D01*
X0058800Y0098920D02*
X0070650Y0098920D01*
X0070650Y0097922D02*
X0058800Y0097922D01*
X0058800Y0096923D02*
X0070650Y0096923D01*
X0070650Y0095925D02*
X0058800Y0095925D01*
X0058800Y0094926D02*
X0070650Y0094926D01*
X0070650Y0093927D02*
X0058800Y0093927D01*
X0058800Y0092929D02*
X0070650Y0092929D01*
X0070650Y0091930D02*
X0058800Y0091930D01*
X0058800Y0090932D02*
X0070650Y0090932D01*
X0070650Y0089933D02*
X0058800Y0089933D01*
X0058800Y0088935D02*
X0060911Y0088935D01*
X0059645Y0087936D02*
X0058800Y0087936D01*
X0058800Y0086938D02*
X0059184Y0086938D01*
X0059081Y0085939D02*
X0058800Y0085939D01*
X0063589Y0088935D02*
X0070650Y0088935D01*
X0070650Y0087936D02*
X0064854Y0087936D01*
X0065316Y0086938D02*
X0070650Y0086938D01*
X0070650Y0085939D02*
X0069060Y0085939D01*
X0067750Y0085939D02*
X0066750Y0085939D01*
X0066750Y0084941D02*
X0067750Y0084941D01*
X0067750Y0083942D02*
X0066750Y0083942D01*
X0066750Y0082944D02*
X0067750Y0082944D01*
X0067750Y0081945D02*
X0066750Y0081945D01*
X0065440Y0085939D02*
X0065418Y0085939D01*
X0054201Y0084941D02*
X0050299Y0084941D01*
X0051297Y0083942D02*
X0053203Y0083942D01*
X0052727Y0082944D02*
X0051773Y0082944D01*
X0052150Y0081945D02*
X0052350Y0081945D01*
X0052350Y0080947D02*
X0052150Y0080947D01*
X0052093Y0079948D02*
X0052407Y0079948D01*
X0052820Y0078950D02*
X0051680Y0078950D01*
X0051071Y0077951D02*
X0053429Y0077951D01*
X0044201Y0084941D02*
X0040299Y0084941D01*
X0041297Y0083942D02*
X0043203Y0083942D01*
X0042727Y0082944D02*
X0041773Y0082944D01*
X0042150Y0081945D02*
X0042350Y0081945D01*
X0042350Y0080947D02*
X0042150Y0080947D01*
X0042093Y0079948D02*
X0042407Y0079948D01*
X0042820Y0078950D02*
X0041680Y0078950D01*
X0041071Y0077951D02*
X0043429Y0077951D01*
X0033429Y0077951D02*
X0031071Y0077951D01*
X0031680Y0078950D02*
X0032820Y0078950D01*
X0032407Y0079948D02*
X0032093Y0079948D01*
X0032150Y0080947D02*
X0032350Y0080947D01*
X0032350Y0081945D02*
X0032150Y0081945D01*
X0031773Y0082944D02*
X0032727Y0082944D01*
X0033203Y0083942D02*
X0031297Y0083942D01*
X0030299Y0084941D02*
X0034201Y0084941D01*
X0032317Y0088935D02*
X0040627Y0088935D01*
X0038641Y0060977D02*
X0036460Y0060977D01*
X0034388Y0060977D02*
X0033419Y0060977D01*
X0033419Y0059978D02*
X0034388Y0059978D01*
X0034388Y0058980D02*
X0033419Y0058980D01*
X0040193Y0014047D02*
X0044307Y0014047D01*
X0043308Y0013048D02*
X0041192Y0013048D01*
X0041730Y0012050D02*
X0042770Y0012050D01*
X0042357Y0011051D02*
X0042143Y0011051D01*
X0042150Y0010053D02*
X0042350Y0010053D01*
X0042363Y0009054D02*
X0042137Y0009054D01*
X0041723Y0008056D02*
X0042777Y0008056D01*
X0043323Y0007057D02*
X0041177Y0007057D01*
X0051177Y0007057D02*
X0053323Y0007057D01*
X0052777Y0008056D02*
X0051723Y0008056D01*
X0052137Y0009054D02*
X0052363Y0009054D01*
X0052350Y0010053D02*
X0052150Y0010053D01*
X0052143Y0011051D02*
X0052357Y0011051D01*
X0052770Y0012050D02*
X0051730Y0012050D01*
X0051192Y0013048D02*
X0053308Y0013048D01*
X0054307Y0014047D02*
X0050193Y0014047D01*
X0092725Y0055610D02*
X0092900Y0056033D01*
X0092900Y0057018D01*
X0098392Y0062510D01*
X0108108Y0062510D01*
X0109889Y0060728D01*
X0108934Y0060728D01*
X0108410Y0060205D01*
X0108269Y0060450D01*
X0107990Y0060729D01*
X0107648Y0060926D01*
X0107266Y0061028D01*
X0105388Y0061028D01*
X0105388Y0058044D01*
X0104419Y0058044D01*
X0104419Y0057076D01*
X0101238Y0057076D01*
X0101238Y0055610D01*
X0100891Y0055610D01*
X0100497Y0056561D01*
X0099751Y0057307D01*
X0098777Y0057710D01*
X0097723Y0057710D01*
X0096749Y0057307D01*
X0096003Y0056561D01*
X0095609Y0055610D01*
X0092725Y0055610D01*
X0092880Y0055984D02*
X0095764Y0055984D01*
X0096425Y0056983D02*
X0092900Y0056983D01*
X0093863Y0057981D02*
X0104419Y0057981D01*
X0104419Y0058044D02*
X0101238Y0058044D01*
X0101238Y0059726D01*
X0101340Y0060107D01*
X0101538Y0060450D01*
X0101817Y0060729D01*
X0102159Y0060926D01*
X0102541Y0061028D01*
X0104419Y0061028D01*
X0104419Y0058044D01*
X0104419Y0058980D02*
X0105388Y0058980D01*
X0105388Y0059978D02*
X0104419Y0059978D01*
X0104419Y0060977D02*
X0105388Y0060977D01*
X0107460Y0060977D02*
X0109641Y0060977D01*
X0108643Y0061975D02*
X0097857Y0061975D01*
X0096859Y0060977D02*
X0102347Y0060977D01*
X0101306Y0059978D02*
X0095860Y0059978D01*
X0094862Y0058980D02*
X0101238Y0058980D01*
X0101238Y0056983D02*
X0100075Y0056983D01*
X0100736Y0055984D02*
X0101238Y0055984D01*
X0101538Y0050510D02*
X0096918Y0050510D01*
X0096918Y0049956D01*
X0097546Y0049956D01*
X0098892Y0048610D01*
X0099800Y0047702D01*
X0099800Y0037258D01*
X0100278Y0036780D01*
X0101945Y0038447D01*
X0101538Y0038854D01*
X0101538Y0042604D01*
X0102241Y0043307D01*
X0114259Y0043307D01*
X0114962Y0042604D01*
X0114962Y0038854D01*
X0114717Y0038610D01*
X0116052Y0038610D01*
X0116749Y0039307D01*
X0117723Y0039710D01*
X0118777Y0039710D01*
X0119751Y0039307D01*
X0120497Y0038561D01*
X0120900Y0037587D01*
X0120900Y0036533D01*
X0120497Y0035559D01*
X0119751Y0034813D01*
X0118777Y0034410D01*
X0117723Y0034410D01*
X0116749Y0034813D01*
X0116052Y0035510D01*
X0110608Y0035510D01*
X0109970Y0036148D01*
X0109800Y0036318D01*
X0109800Y0033228D01*
X0115066Y0033228D01*
X0115590Y0032705D01*
X0115731Y0032950D01*
X0116010Y0033229D01*
X0116352Y0033426D01*
X0116734Y0033528D01*
X0118612Y0033528D01*
X0118612Y0030544D01*
X0119581Y0030544D01*
X0122762Y0030544D01*
X0122762Y0032226D01*
X0122660Y0032607D01*
X0122462Y0032950D01*
X0122183Y0033229D01*
X0121841Y0033426D01*
X0121459Y0033528D01*
X0119581Y0033528D01*
X0119581Y0030544D01*
X0119581Y0029576D01*
X0122762Y0029576D01*
X0122762Y0027894D01*
X0122660Y0027512D01*
X0122462Y0027170D01*
X0122183Y0026891D01*
X0121841Y0026694D01*
X0121459Y0026591D01*
X0119581Y0026591D01*
X0119581Y0029576D01*
X0118612Y0029576D01*
X0118612Y0026591D01*
X0116734Y0026591D01*
X0116352Y0026694D01*
X0116010Y0026891D01*
X0115731Y0027170D01*
X0115590Y0027415D01*
X0115066Y0026891D01*
X0113954Y0026891D01*
X0113954Y0026548D01*
X0114800Y0025702D01*
X0114800Y0022258D01*
X0115497Y0021561D01*
X0115900Y0020587D01*
X0115900Y0019533D01*
X0115497Y0018559D01*
X0114751Y0017813D01*
X0113777Y0017410D01*
X0112723Y0017410D01*
X0111749Y0017813D01*
X0111052Y0018510D01*
X0103892Y0018510D01*
X0100015Y0014633D01*
X0101026Y0014214D01*
X0102404Y0012836D01*
X0103150Y0011035D01*
X0103150Y0009085D01*
X0102404Y0007284D01*
X0101780Y0006660D01*
X0104720Y0006660D01*
X0104096Y0007284D01*
X0103350Y0009085D01*
X0103350Y0011035D01*
X0104096Y0012836D01*
X0105474Y0014214D01*
X0107275Y0014960D01*
X0109225Y0014960D01*
X0111026Y0014214D01*
X0112404Y0012836D01*
X0113150Y0011035D01*
X0113150Y0009085D01*
X0112404Y0007284D01*
X0111780Y0006660D01*
X0114720Y0006660D01*
X0114096Y0007284D01*
X0113350Y0009085D01*
X0113350Y0011035D01*
X0114096Y0012836D01*
X0115474Y0014214D01*
X0117275Y0014960D01*
X0119225Y0014960D01*
X0121026Y0014214D01*
X0122404Y0012836D01*
X0123150Y0011035D01*
X0123150Y0009085D01*
X0122404Y0007284D01*
X0121780Y0006660D01*
X0124720Y0006660D01*
X0124096Y0007284D01*
X0123350Y0009085D01*
X0123350Y0011035D01*
X0124096Y0012836D01*
X0125474Y0014214D01*
X0126700Y0014722D01*
X0126700Y0028918D01*
X0121700Y0033918D01*
X0121700Y0038348D01*
X0120784Y0038348D01*
X0120081Y0039051D01*
X0120081Y0040164D01*
X0119954Y0040164D01*
X0119108Y0041010D01*
X0118200Y0041918D01*
X0118200Y0047841D01*
X0114962Y0047841D01*
X0114962Y0047516D01*
X0114259Y0046813D01*
X0102241Y0046813D01*
X0101538Y0047516D01*
X0101538Y0050510D01*
X0101538Y0049993D02*
X0096918Y0049993D01*
X0098508Y0048994D02*
X0101538Y0048994D01*
X0101538Y0047996D02*
X0099506Y0047996D01*
X0099800Y0046997D02*
X0102056Y0046997D01*
X0099800Y0045999D02*
X0118200Y0045999D01*
X0118200Y0046997D02*
X0114444Y0046997D01*
X0114563Y0043003D02*
X0118200Y0043003D01*
X0118200Y0042005D02*
X0114962Y0042005D01*
X0114962Y0041006D02*
X0119112Y0041006D01*
X0120081Y0040008D02*
X0114962Y0040008D01*
X0114962Y0039009D02*
X0116452Y0039009D01*
X0120048Y0039009D02*
X0120123Y0039009D01*
X0120724Y0038011D02*
X0121700Y0038011D01*
X0121700Y0037012D02*
X0120900Y0037012D01*
X0120685Y0036014D02*
X0121700Y0036014D01*
X0121700Y0035015D02*
X0119953Y0035015D01*
X0121700Y0034017D02*
X0109800Y0034017D01*
X0109800Y0035015D02*
X0116547Y0035015D01*
X0115800Y0033018D02*
X0115276Y0033018D01*
X0118612Y0033018D02*
X0119581Y0033018D01*
X0119581Y0032020D02*
X0118612Y0032020D01*
X0118612Y0031021D02*
X0119581Y0031021D01*
X0119581Y0030023D02*
X0125595Y0030023D01*
X0124597Y0031021D02*
X0122762Y0031021D01*
X0122762Y0032020D02*
X0123598Y0032020D01*
X0122600Y0033018D02*
X0122393Y0033018D01*
X0124800Y0035202D02*
X0124800Y0038348D01*
X0125716Y0038348D01*
X0126418Y0039051D01*
X0126418Y0044376D01*
X0125734Y0045060D01*
X0126418Y0045744D01*
X0126418Y0046856D01*
X0127238Y0046856D01*
X0128677Y0048295D01*
X0129096Y0047284D01*
X0130474Y0045906D01*
X0132275Y0045160D01*
X0134225Y0045160D01*
X0136026Y0045906D01*
X0137404Y0047284D01*
X0138150Y0049085D01*
X0138150Y0051035D01*
X0137404Y0052836D01*
X0136026Y0054214D01*
X0134225Y0054960D01*
X0132275Y0054960D01*
X0130474Y0054214D01*
X0129096Y0052836D01*
X0128588Y0051610D01*
X0127608Y0051610D01*
X0126418Y0050420D01*
X0126418Y0051069D01*
X0125716Y0051772D01*
X0121300Y0051772D01*
X0121300Y0055202D01*
X0117392Y0059110D01*
X0114962Y0059110D01*
X0114962Y0060026D01*
X0114259Y0060728D01*
X0113146Y0060728D01*
X0113146Y0061856D01*
X0112238Y0062764D01*
X0109392Y0065610D01*
X0097108Y0065610D01*
X0090708Y0059210D01*
X0090124Y0059210D01*
X0090173Y0059251D01*
X0091742Y0061969D01*
X0092287Y0065060D01*
X0091742Y0068151D01*
X0090173Y0070869D01*
X0090173Y0070869D01*
X0087769Y0072887D01*
X0087769Y0072887D01*
X0086193Y0073460D01*
X0130307Y0073460D01*
X0128731Y0072887D01*
X0126327Y0070869D01*
X0124758Y0068151D01*
X0124758Y0068151D01*
X0124213Y0065060D01*
X0124758Y0061969D01*
X0126327Y0059251D01*
X0126327Y0059251D01*
X0128731Y0057233D01*
X0131681Y0056160D01*
X0134819Y0056160D01*
X0137769Y0057233D01*
X0137769Y0057233D01*
X0140173Y0059251D01*
X0141650Y0061809D01*
X0141650Y0014014D01*
X0141638Y0014026D01*
X0140975Y0014507D01*
X0140246Y0014879D01*
X0139468Y0015132D01*
X0138750Y0015246D01*
X0138750Y0010560D01*
X0137750Y0010560D01*
X0137750Y0015246D01*
X0137032Y0015132D01*
X0136418Y0014932D01*
X0136418Y0015690D01*
X0135936Y0016855D01*
X0135045Y0017746D01*
X0133880Y0018228D01*
X0132620Y0018228D01*
X0131455Y0017746D01*
X0130564Y0016855D01*
X0130081Y0015690D01*
X0130081Y0014605D01*
X0129800Y0014722D01*
X0129800Y0030202D01*
X0124800Y0035202D01*
X0124987Y0035015D02*
X0141650Y0035015D01*
X0141650Y0034017D02*
X0125985Y0034017D01*
X0126984Y0033018D02*
X0141650Y0033018D01*
X0141650Y0032020D02*
X0127982Y0032020D01*
X0128981Y0031021D02*
X0141650Y0031021D01*
X0141650Y0030023D02*
X0129800Y0030023D01*
X0129800Y0029024D02*
X0141650Y0029024D01*
X0141650Y0028026D02*
X0129800Y0028026D01*
X0129800Y0027027D02*
X0141650Y0027027D01*
X0141650Y0026029D02*
X0129800Y0026029D01*
X0129800Y0025030D02*
X0141650Y0025030D01*
X0141650Y0024032D02*
X0129800Y0024032D01*
X0129800Y0023033D02*
X0141650Y0023033D01*
X0141650Y0022035D02*
X0129800Y0022035D01*
X0129800Y0021036D02*
X0141650Y0021036D01*
X0141650Y0020038D02*
X0129800Y0020038D01*
X0129800Y0019039D02*
X0141650Y0019039D01*
X0141650Y0018041D02*
X0134334Y0018041D01*
X0135749Y0017042D02*
X0141650Y0017042D01*
X0141650Y0016044D02*
X0136272Y0016044D01*
X0136418Y0015045D02*
X0136765Y0015045D01*
X0137750Y0015045D02*
X0138750Y0015045D01*
X0139735Y0015045D02*
X0141650Y0015045D01*
X0141610Y0014047D02*
X0141650Y0014047D01*
X0138750Y0014047D02*
X0137750Y0014047D01*
X0137750Y0013048D02*
X0138750Y0013048D01*
X0138750Y0012050D02*
X0137750Y0012050D01*
X0137750Y0011051D02*
X0138750Y0011051D01*
X0132166Y0018041D02*
X0129800Y0018041D01*
X0129800Y0017042D02*
X0130751Y0017042D01*
X0130228Y0016044D02*
X0129800Y0016044D01*
X0129800Y0015045D02*
X0130081Y0015045D01*
X0126700Y0015045D02*
X0100427Y0015045D01*
X0101193Y0014047D02*
X0105307Y0014047D01*
X0104308Y0013048D02*
X0102192Y0013048D01*
X0102730Y0012050D02*
X0103770Y0012050D01*
X0103357Y0011051D02*
X0103143Y0011051D01*
X0103150Y0010053D02*
X0103350Y0010053D01*
X0103363Y0009054D02*
X0103137Y0009054D01*
X0102723Y0008056D02*
X0103777Y0008056D01*
X0104323Y0007057D02*
X0102177Y0007057D01*
X0101426Y0016044D02*
X0126700Y0016044D01*
X0126700Y0017042D02*
X0102424Y0017042D01*
X0103423Y0018041D02*
X0111522Y0018041D01*
X0114978Y0018041D02*
X0126700Y0018041D01*
X0126700Y0019039D02*
X0115695Y0019039D01*
X0115900Y0020038D02*
X0126700Y0020038D01*
X0126700Y0021036D02*
X0115714Y0021036D01*
X0115023Y0022035D02*
X0126700Y0022035D01*
X0126700Y0023033D02*
X0114800Y0023033D01*
X0114800Y0024032D02*
X0126700Y0024032D01*
X0126700Y0025030D02*
X0114800Y0025030D01*
X0114473Y0026029D02*
X0126700Y0026029D01*
X0126700Y0027027D02*
X0122319Y0027027D01*
X0122762Y0028026D02*
X0126700Y0028026D01*
X0126594Y0029024D02*
X0122762Y0029024D01*
X0119581Y0029024D02*
X0118612Y0029024D01*
X0118612Y0028026D02*
X0119581Y0028026D01*
X0119581Y0027027D02*
X0118612Y0027027D01*
X0115874Y0027027D02*
X0115202Y0027027D01*
X0110104Y0036014D02*
X0109800Y0036014D01*
X0101509Y0038011D02*
X0099800Y0038011D01*
X0099800Y0039009D02*
X0101538Y0039009D01*
X0101538Y0040008D02*
X0099800Y0040008D01*
X0099800Y0041006D02*
X0101538Y0041006D01*
X0101538Y0042005D02*
X0099800Y0042005D01*
X0099800Y0043003D02*
X0101937Y0043003D01*
X0099800Y0044002D02*
X0118200Y0044002D01*
X0118200Y0045000D02*
X0099800Y0045000D01*
X0100045Y0037012D02*
X0100510Y0037012D01*
X0121300Y0051990D02*
X0128746Y0051990D01*
X0129249Y0052989D02*
X0121300Y0052989D01*
X0121300Y0053987D02*
X0130247Y0053987D01*
X0129421Y0056983D02*
X0119519Y0056983D01*
X0118521Y0057981D02*
X0127840Y0057981D01*
X0128731Y0057233D02*
X0128731Y0057233D01*
X0126650Y0058980D02*
X0117522Y0058980D01*
X0120518Y0055984D02*
X0141650Y0055984D01*
X0141650Y0054986D02*
X0121300Y0054986D01*
X0125907Y0059978D02*
X0114962Y0059978D01*
X0113146Y0060977D02*
X0125331Y0060977D01*
X0124758Y0061969D02*
X0124758Y0061969D01*
X0124757Y0061975D02*
X0113027Y0061975D01*
X0112028Y0062974D02*
X0124581Y0062974D01*
X0124405Y0063972D02*
X0111030Y0063972D01*
X0110031Y0064971D02*
X0124228Y0064971D01*
X0124213Y0065060D02*
X0124213Y0065060D01*
X0124373Y0065969D02*
X0092127Y0065969D01*
X0092287Y0065060D02*
X0092287Y0065060D01*
X0092272Y0064971D02*
X0096469Y0064971D01*
X0095470Y0063972D02*
X0092095Y0063972D01*
X0091919Y0062974D02*
X0094472Y0062974D01*
X0093473Y0061975D02*
X0091743Y0061975D01*
X0091742Y0061969D02*
X0091742Y0061969D01*
X0091169Y0060977D02*
X0092475Y0060977D01*
X0091476Y0059978D02*
X0090593Y0059978D01*
X0090173Y0059251D02*
X0090173Y0059251D01*
X0090173Y0059251D01*
X0091951Y0066968D02*
X0124549Y0066968D01*
X0124725Y0067966D02*
X0091775Y0067966D01*
X0091742Y0068151D02*
X0091742Y0068151D01*
X0091272Y0068965D02*
X0125228Y0068965D01*
X0125804Y0069963D02*
X0090696Y0069963D01*
X0090062Y0070962D02*
X0126438Y0070962D01*
X0126327Y0070869D02*
X0126327Y0070869D01*
X0126327Y0070869D01*
X0127627Y0071960D02*
X0088873Y0071960D01*
X0087570Y0072959D02*
X0128930Y0072959D01*
X0128731Y0072887D02*
X0128731Y0072887D01*
X0124720Y0077660D02*
X0121780Y0077660D01*
X0122404Y0078284D01*
X0123150Y0080085D01*
X0123150Y0082035D01*
X0122404Y0083836D01*
X0121026Y0085214D01*
X0119225Y0085960D01*
X0117275Y0085960D01*
X0115474Y0085214D01*
X0114096Y0083836D01*
X0113350Y0082035D01*
X0113350Y0080085D01*
X0114096Y0078284D01*
X0114720Y0077660D01*
X0111780Y0077660D01*
X0112404Y0078284D01*
X0113150Y0080085D01*
X0113150Y0082035D01*
X0112404Y0083836D01*
X0111026Y0085214D01*
X0109225Y0085960D01*
X0107275Y0085960D01*
X0105474Y0085214D01*
X0104096Y0083836D01*
X0103350Y0082035D01*
X0103350Y0080085D01*
X0104096Y0078284D01*
X0104720Y0077660D01*
X0101780Y0077660D01*
X0102404Y0078284D01*
X0103150Y0080085D01*
X0103150Y0082035D01*
X0102404Y0083836D01*
X0101026Y0085214D01*
X0100015Y0085633D01*
X0103892Y0089510D01*
X0111052Y0089510D01*
X0111749Y0088813D01*
X0112723Y0088410D01*
X0113777Y0088410D01*
X0114751Y0088813D01*
X0115497Y0089559D01*
X0115900Y0090533D01*
X0115900Y0091587D01*
X0115497Y0092561D01*
X0114800Y0093258D01*
X0114800Y0096702D01*
X0113954Y0097548D01*
X0113954Y0097891D01*
X0115066Y0097891D01*
X0115590Y0098415D01*
X0115731Y0098170D01*
X0116010Y0097891D01*
X0116352Y0097694D01*
X0116734Y0097591D01*
X0118612Y0097591D01*
X0118612Y0100576D01*
X0119581Y0100576D01*
X0119581Y0101544D01*
X0122762Y0101544D01*
X0122762Y0103226D01*
X0122660Y0103607D01*
X0122462Y0103950D01*
X0122183Y0104229D01*
X0121841Y0104426D01*
X0121459Y0104528D01*
X0119581Y0104528D01*
X0119581Y0101544D01*
X0118612Y0101544D01*
X0118612Y0104528D01*
X0116734Y0104528D01*
X0116352Y0104426D01*
X0116010Y0104229D01*
X0115731Y0103950D01*
X0115590Y0103705D01*
X0115066Y0104228D01*
X0109800Y0104228D01*
X0109800Y0107318D01*
X0109970Y0107148D01*
X0110608Y0106510D01*
X0116052Y0106510D01*
X0116749Y0105813D01*
X0117723Y0105410D01*
X0118777Y0105410D01*
X0119751Y0105813D01*
X0120497Y0106559D01*
X0120900Y0107533D01*
X0120900Y0108587D01*
X0120497Y0109561D01*
X0119751Y0110307D01*
X0118777Y0110710D01*
X0117723Y0110710D01*
X0116749Y0110307D01*
X0116052Y0109610D01*
X0114717Y0109610D01*
X0114962Y0109854D01*
X0114962Y0113604D01*
X0114259Y0114307D01*
X0102241Y0114307D01*
X0101538Y0113604D01*
X0101538Y0109854D01*
X0101945Y0109447D01*
X0100278Y0107780D01*
X0099800Y0108258D01*
X0099800Y0118702D01*
X0098892Y0119610D01*
X0097546Y0120956D01*
X0096918Y0120956D01*
X0096918Y0121510D01*
X0101538Y0121510D01*
X0101538Y0118516D01*
X0102241Y0117813D01*
X0114259Y0117813D01*
X0114962Y0118516D01*
X0114962Y0118841D01*
X0118200Y0118841D01*
X0118200Y0112918D01*
X0119108Y0112010D01*
X0119954Y0111164D01*
X0120081Y0111164D01*
X0120081Y0110051D01*
X0120784Y0109348D01*
X0121700Y0109348D01*
X0121700Y0104918D01*
X0122608Y0104010D01*
X0126700Y0099918D01*
X0126700Y0085722D01*
X0125474Y0085214D01*
X0124096Y0083836D01*
X0123350Y0082035D01*
X0123350Y0080085D01*
X0124096Y0078284D01*
X0124720Y0077660D01*
X0124429Y0077951D02*
X0122071Y0077951D01*
X0122680Y0078950D02*
X0123820Y0078950D01*
X0123407Y0079948D02*
X0123093Y0079948D01*
X0123150Y0080947D02*
X0123350Y0080947D01*
X0123350Y0081945D02*
X0123150Y0081945D01*
X0122773Y0082944D02*
X0123727Y0082944D01*
X0124203Y0083942D02*
X0122297Y0083942D01*
X0121299Y0084941D02*
X0125201Y0084941D01*
X0126700Y0085939D02*
X0119274Y0085939D01*
X0117226Y0085939D02*
X0109274Y0085939D01*
X0107226Y0085939D02*
X0100321Y0085939D01*
X0101299Y0084941D02*
X0105201Y0084941D01*
X0104203Y0083942D02*
X0102297Y0083942D01*
X0102773Y0082944D02*
X0103727Y0082944D01*
X0103350Y0081945D02*
X0103150Y0081945D01*
X0103150Y0080947D02*
X0103350Y0080947D01*
X0103407Y0079948D02*
X0103093Y0079948D01*
X0102680Y0078950D02*
X0103820Y0078950D01*
X0104429Y0077951D02*
X0102071Y0077951D01*
X0101320Y0086938D02*
X0126700Y0086938D01*
X0126700Y0087936D02*
X0102318Y0087936D01*
X0103317Y0088935D02*
X0111627Y0088935D01*
X0114873Y0088935D02*
X0126700Y0088935D01*
X0126700Y0089933D02*
X0115652Y0089933D01*
X0115900Y0090932D02*
X0126700Y0090932D01*
X0126700Y0091930D02*
X0115758Y0091930D01*
X0115129Y0092929D02*
X0126700Y0092929D01*
X0126700Y0093927D02*
X0114800Y0093927D01*
X0114800Y0094926D02*
X0126700Y0094926D01*
X0126700Y0095925D02*
X0114800Y0095925D01*
X0114579Y0096923D02*
X0126700Y0096923D01*
X0126700Y0097922D02*
X0122213Y0097922D01*
X0122183Y0097891D02*
X0122462Y0098170D01*
X0122660Y0098512D01*
X0122762Y0098894D01*
X0122762Y0100576D01*
X0119581Y0100576D01*
X0119581Y0097591D01*
X0121459Y0097591D01*
X0121841Y0097694D01*
X0122183Y0097891D01*
X0122762Y0098920D02*
X0126700Y0098920D01*
X0126699Y0099919D02*
X0122762Y0099919D01*
X0122762Y0101916D02*
X0124702Y0101916D01*
X0123704Y0102914D02*
X0122762Y0102914D01*
X0122705Y0103913D02*
X0122483Y0103913D01*
X0121707Y0104911D02*
X0109800Y0104911D01*
X0109800Y0105910D02*
X0116653Y0105910D01*
X0115710Y0103913D02*
X0115382Y0103913D01*
X0118612Y0103913D02*
X0119581Y0103913D01*
X0119581Y0102914D02*
X0118612Y0102914D01*
X0118612Y0101916D02*
X0119581Y0101916D01*
X0119581Y0100917D02*
X0125701Y0100917D01*
X0128088Y0102914D02*
X0141650Y0102914D01*
X0141650Y0101916D02*
X0129086Y0101916D01*
X0129800Y0101202D02*
X0124800Y0106202D01*
X0124800Y0109348D01*
X0125716Y0109348D01*
X0126418Y0110051D01*
X0126418Y0115376D01*
X0125734Y0116060D01*
X0126418Y0116744D01*
X0126418Y0117856D01*
X0127238Y0117856D01*
X0128677Y0119295D01*
X0129096Y0118284D01*
X0130474Y0116906D01*
X0132275Y0116160D01*
X0134225Y0116160D01*
X0136026Y0116906D01*
X0137404Y0118284D01*
X0138150Y0120085D01*
X0138150Y0122035D01*
X0137404Y0123836D01*
X0136026Y0125214D01*
X0134225Y0125960D01*
X0132275Y0125960D01*
X0130474Y0125214D01*
X0129096Y0123836D01*
X0128588Y0122610D01*
X0127608Y0122610D01*
X0126700Y0121702D01*
X0126418Y0121420D01*
X0126418Y0122069D01*
X0125716Y0122772D01*
X0121300Y0122772D01*
X0121300Y0126202D01*
X0118300Y0129202D01*
X0117392Y0130110D01*
X0114962Y0130110D01*
X0114962Y0131026D01*
X0114259Y0131728D01*
X0113146Y0131728D01*
X0113146Y0132856D01*
X0112238Y0133764D01*
X0109392Y0136610D01*
X0108108Y0136610D01*
X0097108Y0136610D01*
X0096200Y0135702D01*
X0090708Y0130210D01*
X0090124Y0130210D01*
X0090173Y0130251D01*
X0091742Y0132969D01*
X0092287Y0136060D01*
X0091742Y0139151D01*
X0090173Y0141869D01*
X0087769Y0143886D01*
X0087769Y0143887D01*
X0086193Y0144460D01*
X0130307Y0144460D01*
X0128731Y0143887D01*
X0126327Y0141869D01*
X0124758Y0139151D01*
X0124758Y0139151D01*
X0124213Y0136060D01*
X0124758Y0132969D01*
X0126327Y0130251D01*
X0126327Y0130251D01*
X0128731Y0128233D01*
X0131681Y0127160D01*
X0134819Y0127160D01*
X0137769Y0128233D01*
X0140173Y0130251D01*
X0141650Y0132809D01*
X0141650Y0085014D01*
X0141638Y0085026D01*
X0140975Y0085507D01*
X0140246Y0085879D01*
X0139468Y0086132D01*
X0138750Y0086246D01*
X0138750Y0081560D01*
X0137750Y0081560D01*
X0137750Y0086246D01*
X0137032Y0086132D01*
X0136418Y0085932D01*
X0136418Y0086690D01*
X0135936Y0087855D01*
X0135045Y0088746D01*
X0133880Y0089228D01*
X0132620Y0089228D01*
X0131455Y0088746D01*
X0130564Y0087855D01*
X0130081Y0086690D01*
X0130081Y0085605D01*
X0129800Y0085722D01*
X0129800Y0101202D01*
X0129800Y0100917D02*
X0141650Y0100917D01*
X0141650Y0099919D02*
X0129800Y0099919D01*
X0129800Y0098920D02*
X0141650Y0098920D01*
X0141650Y0097922D02*
X0129800Y0097922D01*
X0129800Y0096923D02*
X0141650Y0096923D01*
X0141650Y0095925D02*
X0129800Y0095925D01*
X0129800Y0094926D02*
X0141650Y0094926D01*
X0141650Y0093927D02*
X0129800Y0093927D01*
X0129800Y0092929D02*
X0141650Y0092929D01*
X0141650Y0091930D02*
X0129800Y0091930D01*
X0129800Y0090932D02*
X0141650Y0090932D01*
X0141650Y0089933D02*
X0129800Y0089933D01*
X0129800Y0088935D02*
X0131911Y0088935D01*
X0130645Y0087936D02*
X0129800Y0087936D01*
X0129800Y0086938D02*
X0130184Y0086938D01*
X0130081Y0085939D02*
X0129800Y0085939D01*
X0134589Y0088935D02*
X0141650Y0088935D01*
X0141650Y0087936D02*
X0135854Y0087936D01*
X0136316Y0086938D02*
X0141650Y0086938D01*
X0141650Y0085939D02*
X0140060Y0085939D01*
X0138750Y0085939D02*
X0137750Y0085939D01*
X0137750Y0084941D02*
X0138750Y0084941D01*
X0138750Y0083942D02*
X0137750Y0083942D01*
X0137750Y0082944D02*
X0138750Y0082944D01*
X0138750Y0081945D02*
X0137750Y0081945D01*
X0136440Y0085939D02*
X0136418Y0085939D01*
X0119581Y0097922D02*
X0118612Y0097922D01*
X0118612Y0098920D02*
X0119581Y0098920D01*
X0119581Y0099919D02*
X0118612Y0099919D01*
X0115980Y0097922D02*
X0115096Y0097922D01*
X0119847Y0105910D02*
X0121700Y0105910D01*
X0121700Y0106908D02*
X0120641Y0106908D01*
X0120900Y0107907D02*
X0121700Y0107907D01*
X0121700Y0108905D02*
X0120768Y0108905D01*
X0120229Y0109904D02*
X0120154Y0109904D01*
X0120081Y0110902D02*
X0114962Y0110902D01*
X0114962Y0109904D02*
X0116346Y0109904D01*
X0114962Y0111901D02*
X0119217Y0111901D01*
X0118219Y0112899D02*
X0114962Y0112899D01*
X0114668Y0113898D02*
X0118200Y0113898D01*
X0118200Y0114896D02*
X0099800Y0114896D01*
X0099800Y0113898D02*
X0101832Y0113898D01*
X0101538Y0112899D02*
X0099800Y0112899D01*
X0099800Y0111901D02*
X0101538Y0111901D01*
X0101538Y0110902D02*
X0099800Y0110902D01*
X0099800Y0109904D02*
X0101538Y0109904D01*
X0101403Y0108905D02*
X0099800Y0108905D01*
X0100151Y0107907D02*
X0100405Y0107907D01*
X0099800Y0115895D02*
X0118200Y0115895D01*
X0118200Y0116893D02*
X0099800Y0116893D01*
X0099800Y0117892D02*
X0102162Y0117892D01*
X0101538Y0118890D02*
X0099612Y0118890D01*
X0098613Y0119889D02*
X0101538Y0119889D01*
X0101538Y0120887D02*
X0097615Y0120887D01*
X0095609Y0126610D02*
X0092725Y0126610D01*
X0092900Y0127033D01*
X0092900Y0128018D01*
X0098392Y0133510D01*
X0108108Y0133510D01*
X0109889Y0131728D01*
X0108934Y0131728D01*
X0108410Y0131205D01*
X0108269Y0131450D01*
X0107990Y0131729D01*
X0107648Y0131926D01*
X0107266Y0132028D01*
X0105388Y0132028D01*
X0105388Y0129044D01*
X0104419Y0129044D01*
X0104419Y0128076D01*
X0101238Y0128076D01*
X0101238Y0126610D01*
X0100891Y0126610D01*
X0100497Y0127561D01*
X0099751Y0128307D01*
X0098777Y0128710D01*
X0097723Y0128710D01*
X0096749Y0128307D01*
X0096003Y0127561D01*
X0095609Y0126610D01*
X0095721Y0126878D02*
X0092836Y0126878D01*
X0092900Y0127877D02*
X0096319Y0127877D01*
X0094756Y0129874D02*
X0101238Y0129874D01*
X0101238Y0129044D02*
X0101238Y0130726D01*
X0101340Y0131107D01*
X0101538Y0131450D01*
X0101817Y0131729D01*
X0102159Y0131926D01*
X0102541Y0132028D01*
X0104419Y0132028D01*
X0104419Y0129044D01*
X0101238Y0129044D01*
X0101238Y0127877D02*
X0100181Y0127877D01*
X0100779Y0126878D02*
X0101238Y0126878D01*
X0104419Y0128875D02*
X0093757Y0128875D01*
X0095754Y0130872D02*
X0101277Y0130872D01*
X0102063Y0131871D02*
X0096753Y0131871D01*
X0097751Y0132869D02*
X0108749Y0132869D01*
X0109747Y0131871D02*
X0107744Y0131871D01*
X0105388Y0131871D02*
X0104419Y0131871D01*
X0104419Y0130872D02*
X0105388Y0130872D01*
X0105388Y0129874D02*
X0104419Y0129874D01*
X0110137Y0135865D02*
X0124247Y0135865D01*
X0124213Y0136060D02*
X0124213Y0136060D01*
X0124354Y0136863D02*
X0092146Y0136863D01*
X0092287Y0136060D02*
X0092287Y0136060D01*
X0092253Y0135865D02*
X0096363Y0135865D01*
X0096200Y0135702D02*
X0096200Y0135702D01*
X0095364Y0134866D02*
X0092077Y0134866D01*
X0091901Y0133868D02*
X0094366Y0133868D01*
X0093367Y0132869D02*
X0091685Y0132869D01*
X0091742Y0132969D02*
X0091742Y0132969D01*
X0092369Y0131871D02*
X0091108Y0131871D01*
X0091370Y0130872D02*
X0090532Y0130872D01*
X0090173Y0130251D02*
X0090173Y0130251D01*
X0090173Y0130251D01*
X0091970Y0137862D02*
X0124530Y0137862D01*
X0124707Y0138861D02*
X0091793Y0138861D01*
X0091742Y0139151D02*
X0091742Y0139151D01*
X0091333Y0139859D02*
X0125167Y0139859D01*
X0125743Y0140858D02*
X0090757Y0140858D01*
X0090180Y0141856D02*
X0126320Y0141856D01*
X0126327Y0141869D02*
X0126327Y0141869D01*
X0126327Y0141869D01*
X0127502Y0142855D02*
X0088998Y0142855D01*
X0090173Y0141869D02*
X0090173Y0141869D01*
X0087808Y0143853D02*
X0128691Y0143853D01*
X0128731Y0143887D02*
X0128731Y0143887D01*
X0124720Y0148660D02*
X0121780Y0148660D01*
X0122404Y0149284D01*
X0123150Y0151085D01*
X0123150Y0153035D01*
X0122404Y0154836D01*
X0121026Y0156214D01*
X0119225Y0156960D01*
X0117275Y0156960D01*
X0115474Y0156214D01*
X0114096Y0154836D01*
X0113350Y0153035D01*
X0113350Y0151085D01*
X0114096Y0149284D01*
X0114720Y0148660D01*
X0111780Y0148660D01*
X0112404Y0149284D01*
X0113150Y0151085D01*
X0113150Y0153035D01*
X0112404Y0154836D01*
X0111026Y0156214D01*
X0109225Y0156960D01*
X0107275Y0156960D01*
X0105474Y0156214D01*
X0104096Y0154836D01*
X0103350Y0153035D01*
X0103350Y0151085D01*
X0104096Y0149284D01*
X0104720Y0148660D01*
X0101780Y0148660D01*
X0102404Y0149284D01*
X0103150Y0151085D01*
X0103150Y0153035D01*
X0102404Y0154836D01*
X0101026Y0156214D01*
X0100015Y0156633D01*
X0103892Y0160510D01*
X0111052Y0160510D01*
X0111749Y0159813D01*
X0112723Y0159410D01*
X0113777Y0159410D01*
X0114751Y0159813D01*
X0115497Y0160559D01*
X0115900Y0161533D01*
X0115900Y0162587D01*
X0115497Y0163561D01*
X0114800Y0164258D01*
X0114800Y0167702D01*
X0113954Y0168548D01*
X0113954Y0168891D01*
X0115066Y0168891D01*
X0115590Y0169415D01*
X0115731Y0169170D01*
X0116010Y0168891D01*
X0116352Y0168694D01*
X0116734Y0168591D01*
X0118612Y0168591D01*
X0118612Y0171576D01*
X0119581Y0171576D01*
X0119581Y0172544D01*
X0122762Y0172544D01*
X0122762Y0174226D01*
X0122660Y0174607D01*
X0122462Y0174950D01*
X0122183Y0175229D01*
X0121841Y0175426D01*
X0121459Y0175528D01*
X0119581Y0175528D01*
X0119581Y0172544D01*
X0118612Y0172544D01*
X0118612Y0175528D01*
X0116734Y0175528D01*
X0116352Y0175426D01*
X0116010Y0175229D01*
X0115731Y0174950D01*
X0115590Y0174705D01*
X0115066Y0175228D01*
X0109800Y0175228D01*
X0109800Y0178318D01*
X0109970Y0178148D01*
X0110608Y0177510D01*
X0116052Y0177510D01*
X0116749Y0176813D01*
X0117723Y0176410D01*
X0118777Y0176410D01*
X0119751Y0176813D01*
X0120497Y0177559D01*
X0120900Y0178533D01*
X0120900Y0179587D01*
X0120497Y0180561D01*
X0119751Y0181307D01*
X0118777Y0181710D01*
X0117723Y0181710D01*
X0116749Y0181307D01*
X0116052Y0180610D01*
X0114717Y0180610D01*
X0114962Y0180854D01*
X0114962Y0184604D01*
X0114259Y0185307D01*
X0102241Y0185307D01*
X0101538Y0184604D01*
X0101538Y0180854D01*
X0101945Y0180447D01*
X0100278Y0178780D01*
X0099800Y0179258D01*
X0099800Y0189702D01*
X0098892Y0190610D01*
X0097546Y0191956D01*
X0096918Y0191956D01*
X0096918Y0192510D01*
X0101538Y0192510D01*
X0101538Y0189516D01*
X0102241Y0188813D01*
X0114259Y0188813D01*
X0114962Y0189516D01*
X0114962Y0189841D01*
X0118200Y0189841D01*
X0118200Y0183918D01*
X0119954Y0182164D01*
X0120081Y0182164D01*
X0120081Y0181051D01*
X0120784Y0180348D01*
X0121700Y0180348D01*
X0121700Y0175918D01*
X0122608Y0175010D01*
X0126700Y0170918D01*
X0126700Y0156722D01*
X0125474Y0156214D01*
X0124096Y0154836D01*
X0123350Y0153035D01*
X0123350Y0151085D01*
X0124096Y0149284D01*
X0124720Y0148660D01*
X0124535Y0148846D02*
X0121965Y0148846D01*
X0122636Y0149844D02*
X0123864Y0149844D01*
X0123451Y0150843D02*
X0123049Y0150843D01*
X0123150Y0151841D02*
X0123350Y0151841D01*
X0123350Y0152840D02*
X0123150Y0152840D01*
X0122817Y0153838D02*
X0123683Y0153838D01*
X0124097Y0154837D02*
X0122403Y0154837D01*
X0121404Y0155835D02*
X0125096Y0155835D01*
X0126700Y0156834D02*
X0119530Y0156834D01*
X0116970Y0156834D02*
X0109530Y0156834D01*
X0111404Y0155835D02*
X0115096Y0155835D01*
X0114097Y0154837D02*
X0112403Y0154837D01*
X0112817Y0153838D02*
X0113683Y0153838D01*
X0113350Y0152840D02*
X0113150Y0152840D01*
X0113150Y0151841D02*
X0113350Y0151841D01*
X0113451Y0150843D02*
X0113049Y0150843D01*
X0112636Y0149844D02*
X0113864Y0149844D01*
X0114535Y0148846D02*
X0111965Y0148846D01*
X0104535Y0148846D02*
X0101965Y0148846D01*
X0102636Y0149844D02*
X0103864Y0149844D01*
X0103451Y0150843D02*
X0103049Y0150843D01*
X0103150Y0151841D02*
X0103350Y0151841D01*
X0103350Y0152840D02*
X0103150Y0152840D01*
X0102817Y0153838D02*
X0103683Y0153838D01*
X0104097Y0154837D02*
X0102403Y0154837D01*
X0101404Y0155835D02*
X0105096Y0155835D01*
X0106970Y0156834D02*
X0100216Y0156834D01*
X0101214Y0157832D02*
X0126700Y0157832D01*
X0126700Y0158831D02*
X0102213Y0158831D01*
X0103211Y0159829D02*
X0111733Y0159829D01*
X0114767Y0159829D02*
X0126700Y0159829D01*
X0126700Y0160828D02*
X0115608Y0160828D01*
X0115900Y0161826D02*
X0126700Y0161826D01*
X0126700Y0162825D02*
X0115802Y0162825D01*
X0115234Y0163823D02*
X0126700Y0163823D01*
X0126700Y0164822D02*
X0114800Y0164822D01*
X0114800Y0165820D02*
X0126700Y0165820D01*
X0126700Y0166819D02*
X0114800Y0166819D01*
X0114685Y0167817D02*
X0126700Y0167817D01*
X0126700Y0168816D02*
X0122052Y0168816D01*
X0122183Y0168891D02*
X0122462Y0169170D01*
X0122660Y0169513D01*
X0122762Y0169894D01*
X0122762Y0171576D01*
X0119581Y0171576D01*
X0119581Y0168591D01*
X0121459Y0168591D01*
X0121841Y0168694D01*
X0122183Y0168891D01*
X0122740Y0169814D02*
X0126700Y0169814D01*
X0126700Y0170813D02*
X0122762Y0170813D01*
X0122762Y0172810D02*
X0124808Y0172810D01*
X0123810Y0173808D02*
X0122762Y0173808D01*
X0122811Y0174807D02*
X0122544Y0174807D01*
X0121813Y0175805D02*
X0109800Y0175805D01*
X0109800Y0176804D02*
X0116772Y0176804D01*
X0115648Y0174807D02*
X0115488Y0174807D01*
X0118612Y0174807D02*
X0119581Y0174807D01*
X0119581Y0173808D02*
X0118612Y0173808D01*
X0118612Y0172810D02*
X0119581Y0172810D01*
X0119581Y0171811D02*
X0125807Y0171811D01*
X0127195Y0174807D02*
X0141650Y0174807D01*
X0141650Y0175805D02*
X0126197Y0175805D01*
X0125198Y0176804D02*
X0141650Y0176804D01*
X0141650Y0177802D02*
X0135776Y0177802D01*
X0136026Y0177906D02*
X0137404Y0179284D01*
X0138150Y0181085D01*
X0138150Y0183035D01*
X0137404Y0184836D01*
X0136026Y0186214D01*
X0134225Y0186960D01*
X0132275Y0186960D01*
X0130474Y0186214D01*
X0129096Y0184836D01*
X0128350Y0183035D01*
X0128350Y0181085D01*
X0129096Y0179284D01*
X0130474Y0177906D01*
X0132275Y0177160D01*
X0134225Y0177160D01*
X0136026Y0177906D01*
X0136921Y0178801D02*
X0141650Y0178801D01*
X0141650Y0179799D02*
X0137617Y0179799D01*
X0138031Y0180798D02*
X0141650Y0180798D01*
X0141650Y0181796D02*
X0138150Y0181796D01*
X0138150Y0182795D02*
X0141650Y0182795D01*
X0141650Y0183794D02*
X0137836Y0183794D01*
X0137422Y0184792D02*
X0141650Y0184792D01*
X0141650Y0185791D02*
X0136449Y0185791D01*
X0134637Y0186789D02*
X0141650Y0186789D01*
X0141650Y0187788D02*
X0135740Y0187788D01*
X0136026Y0187906D02*
X0137404Y0189284D01*
X0138150Y0191085D01*
X0138150Y0193035D01*
X0137404Y0194836D01*
X0136026Y0196214D01*
X0134225Y0196960D01*
X0132275Y0196960D01*
X0130474Y0196214D01*
X0129096Y0194836D01*
X0128588Y0193610D01*
X0127608Y0193610D01*
X0126700Y0192702D01*
X0126418Y0192420D01*
X0126418Y0193069D01*
X0125716Y0193772D01*
X0121300Y0193772D01*
X0121300Y0197202D01*
X0118300Y0200202D01*
X0117392Y0201110D01*
X0114962Y0201110D01*
X0114962Y0202026D01*
X0114259Y0202728D01*
X0113146Y0202728D01*
X0113146Y0203856D01*
X0112238Y0204764D01*
X0109392Y0207610D01*
X0097108Y0207610D01*
X0090708Y0201210D01*
X0090124Y0201210D01*
X0090173Y0201251D01*
X0091742Y0203969D01*
X0092287Y0207060D01*
X0091742Y0210151D01*
X0090173Y0212869D01*
X0090173Y0212869D01*
X0087769Y0214887D01*
X0087769Y0214887D01*
X0086193Y0215460D01*
X0130307Y0215460D01*
X0128731Y0214887D01*
X0126327Y0212869D01*
X0124758Y0210151D01*
X0124758Y0210151D01*
X0124213Y0207060D01*
X0124758Y0203969D01*
X0126327Y0201251D01*
X0126327Y0201251D01*
X0128731Y0199233D01*
X0131681Y0198160D01*
X0134819Y0198160D01*
X0137769Y0199233D01*
X0140173Y0201251D01*
X0141650Y0203809D01*
X0141650Y0156014D01*
X0141638Y0156026D01*
X0140975Y0156507D01*
X0140246Y0156879D01*
X0139468Y0157132D01*
X0138750Y0157246D01*
X0138750Y0152560D01*
X0137750Y0152560D01*
X0137750Y0157246D01*
X0137032Y0157132D01*
X0136418Y0156932D01*
X0136418Y0157690D01*
X0135936Y0158855D01*
X0135045Y0159746D01*
X0133880Y0160228D01*
X0132620Y0160228D01*
X0131455Y0159746D01*
X0130564Y0158855D01*
X0130081Y0157690D01*
X0130081Y0156605D01*
X0129800Y0156722D01*
X0129800Y0172202D01*
X0124800Y0177202D01*
X0124800Y0180348D01*
X0125716Y0180348D01*
X0126418Y0181051D01*
X0126418Y0186376D01*
X0125734Y0187060D01*
X0126418Y0187744D01*
X0126418Y0188856D01*
X0127238Y0188856D01*
X0128677Y0190295D01*
X0129096Y0189284D01*
X0130474Y0187906D01*
X0132275Y0187160D01*
X0134225Y0187160D01*
X0136026Y0187906D01*
X0136906Y0188786D02*
X0141650Y0188786D01*
X0141650Y0189785D02*
X0137611Y0189785D01*
X0138025Y0190783D02*
X0141650Y0190783D01*
X0141650Y0191782D02*
X0138150Y0191782D01*
X0138150Y0192780D02*
X0141650Y0192780D01*
X0141650Y0193779D02*
X0137842Y0193779D01*
X0137428Y0194777D02*
X0141650Y0194777D01*
X0141650Y0195776D02*
X0136464Y0195776D01*
X0134673Y0196774D02*
X0141650Y0196774D01*
X0141650Y0197773D02*
X0120729Y0197773D01*
X0121300Y0196774D02*
X0131827Y0196774D01*
X0130036Y0195776D02*
X0121300Y0195776D01*
X0121300Y0194777D02*
X0129072Y0194777D01*
X0128658Y0193779D02*
X0121300Y0193779D01*
X0118200Y0189785D02*
X0114962Y0189785D01*
X0118200Y0188786D02*
X0099800Y0188786D01*
X0099800Y0187788D02*
X0118200Y0187788D01*
X0118200Y0186789D02*
X0099800Y0186789D01*
X0099800Y0185791D02*
X0118200Y0185791D01*
X0118200Y0184792D02*
X0114774Y0184792D01*
X0114962Y0183794D02*
X0118324Y0183794D01*
X0119323Y0182795D02*
X0114962Y0182795D01*
X0114962Y0181796D02*
X0120081Y0181796D01*
X0120260Y0180798D02*
X0120335Y0180798D01*
X0120812Y0179799D02*
X0121700Y0179799D01*
X0121700Y0178801D02*
X0120900Y0178801D01*
X0120597Y0177802D02*
X0121700Y0177802D01*
X0121700Y0176804D02*
X0119728Y0176804D01*
X0124800Y0177802D02*
X0130724Y0177802D01*
X0129579Y0178801D02*
X0124800Y0178801D01*
X0124800Y0179799D02*
X0128883Y0179799D01*
X0128469Y0180798D02*
X0126165Y0180798D01*
X0126418Y0181796D02*
X0128350Y0181796D01*
X0128350Y0182795D02*
X0126418Y0182795D01*
X0126418Y0183794D02*
X0128664Y0183794D01*
X0129078Y0184792D02*
X0126418Y0184792D01*
X0126418Y0185791D02*
X0130051Y0185791D01*
X0131863Y0186789D02*
X0126005Y0186789D01*
X0126418Y0187788D02*
X0130760Y0187788D01*
X0129594Y0188786D02*
X0126418Y0188786D01*
X0128167Y0189785D02*
X0128889Y0189785D01*
X0126778Y0192780D02*
X0126418Y0192780D01*
X0128731Y0199233D02*
X0128731Y0199233D01*
X0128092Y0199770D02*
X0118732Y0199770D01*
X0118300Y0200202D02*
X0118300Y0200202D01*
X0117734Y0200768D02*
X0126902Y0200768D01*
X0126029Y0201767D02*
X0114962Y0201767D01*
X0113146Y0202765D02*
X0125453Y0202765D01*
X0124876Y0203764D02*
X0113146Y0203764D01*
X0112240Y0204762D02*
X0124618Y0204762D01*
X0124758Y0203969D02*
X0124758Y0203969D01*
X0124442Y0205761D02*
X0111241Y0205761D01*
X0110243Y0206759D02*
X0124266Y0206759D01*
X0124213Y0207060D02*
X0124213Y0207060D01*
X0124336Y0207758D02*
X0092164Y0207758D01*
X0092287Y0207060D02*
X0092287Y0207060D01*
X0092234Y0206759D02*
X0096257Y0206759D01*
X0095259Y0205761D02*
X0092058Y0205761D01*
X0091882Y0204762D02*
X0094260Y0204762D01*
X0093262Y0203764D02*
X0091624Y0203764D01*
X0091742Y0203969D02*
X0091742Y0203969D01*
X0092263Y0202765D02*
X0091047Y0202765D01*
X0091265Y0201767D02*
X0090471Y0201767D01*
X0090173Y0201251D02*
X0090173Y0201251D01*
X0092900Y0199018D02*
X0098392Y0204510D01*
X0108108Y0204510D01*
X0109889Y0202728D01*
X0108934Y0202728D01*
X0108410Y0202205D01*
X0108269Y0202450D01*
X0107990Y0202729D01*
X0107648Y0202926D01*
X0107266Y0203028D01*
X0105388Y0203028D01*
X0105388Y0200044D01*
X0104419Y0200044D01*
X0104419Y0199076D01*
X0101238Y0199076D01*
X0101238Y0197610D01*
X0100891Y0197610D01*
X0100497Y0198561D01*
X0099751Y0199307D01*
X0098777Y0199710D01*
X0097723Y0199710D01*
X0096749Y0199307D01*
X0096003Y0198561D01*
X0095609Y0197610D01*
X0092725Y0197610D01*
X0092900Y0198033D01*
X0092900Y0199018D01*
X0092900Y0198771D02*
X0096214Y0198771D01*
X0095677Y0197773D02*
X0092792Y0197773D01*
X0093652Y0199770D02*
X0104419Y0199770D01*
X0104419Y0200044D02*
X0101238Y0200044D01*
X0101238Y0201726D01*
X0101340Y0202107D01*
X0101538Y0202450D01*
X0101817Y0202729D01*
X0102159Y0202926D01*
X0102541Y0203028D01*
X0104419Y0203028D01*
X0104419Y0200044D01*
X0104419Y0200768D02*
X0105388Y0200768D01*
X0105388Y0201767D02*
X0104419Y0201767D01*
X0104419Y0202765D02*
X0105388Y0202765D01*
X0107927Y0202765D02*
X0109853Y0202765D01*
X0108854Y0203764D02*
X0097646Y0203764D01*
X0096647Y0202765D02*
X0101880Y0202765D01*
X0101249Y0201767D02*
X0095649Y0201767D01*
X0094650Y0200768D02*
X0101238Y0200768D01*
X0101238Y0198771D02*
X0100286Y0198771D01*
X0100823Y0197773D02*
X0101238Y0197773D01*
X0101538Y0191782D02*
X0097720Y0191782D01*
X0098719Y0190783D02*
X0101538Y0190783D01*
X0101538Y0189785D02*
X0099717Y0189785D01*
X0099800Y0184792D02*
X0101726Y0184792D01*
X0101538Y0183794D02*
X0099800Y0183794D01*
X0099800Y0182795D02*
X0101538Y0182795D01*
X0101538Y0181796D02*
X0099800Y0181796D01*
X0099800Y0180798D02*
X0101594Y0180798D01*
X0101297Y0179799D02*
X0099800Y0179799D01*
X0100257Y0178801D02*
X0100299Y0178801D01*
X0109800Y0177802D02*
X0110316Y0177802D01*
X0114905Y0180798D02*
X0116240Y0180798D01*
X0118612Y0170813D02*
X0119581Y0170813D01*
X0119581Y0169814D02*
X0118612Y0169814D01*
X0118612Y0168816D02*
X0119581Y0168816D01*
X0116141Y0168816D02*
X0113954Y0168816D01*
X0128194Y0173808D02*
X0141650Y0173808D01*
X0141650Y0172810D02*
X0129192Y0172810D01*
X0129800Y0171811D02*
X0141650Y0171811D01*
X0141650Y0170813D02*
X0129800Y0170813D01*
X0129800Y0169814D02*
X0141650Y0169814D01*
X0141650Y0168816D02*
X0129800Y0168816D01*
X0129800Y0167817D02*
X0141650Y0167817D01*
X0141650Y0166819D02*
X0129800Y0166819D01*
X0129800Y0165820D02*
X0141650Y0165820D01*
X0141650Y0164822D02*
X0129800Y0164822D01*
X0129800Y0163823D02*
X0141650Y0163823D01*
X0141650Y0162825D02*
X0129800Y0162825D01*
X0129800Y0161826D02*
X0141650Y0161826D01*
X0141650Y0160828D02*
X0129800Y0160828D01*
X0129800Y0159829D02*
X0131656Y0159829D01*
X0130554Y0158831D02*
X0129800Y0158831D01*
X0129800Y0157832D02*
X0130140Y0157832D01*
X0130081Y0156834D02*
X0129800Y0156834D01*
X0134844Y0159829D02*
X0141650Y0159829D01*
X0141650Y0158831D02*
X0135946Y0158831D01*
X0136360Y0157832D02*
X0141650Y0157832D01*
X0141650Y0156834D02*
X0140335Y0156834D01*
X0138750Y0156834D02*
X0137750Y0156834D01*
X0137750Y0155835D02*
X0138750Y0155835D01*
X0138750Y0154837D02*
X0137750Y0154837D01*
X0137750Y0153838D02*
X0138750Y0153838D01*
X0138750Y0152840D02*
X0137750Y0152840D01*
X0124423Y0134866D02*
X0111136Y0134866D01*
X0112134Y0133868D02*
X0124599Y0133868D01*
X0124758Y0132969D02*
X0124758Y0132969D01*
X0124815Y0132869D02*
X0113133Y0132869D01*
X0113146Y0131871D02*
X0125392Y0131871D01*
X0125968Y0130872D02*
X0114962Y0130872D01*
X0117628Y0129874D02*
X0126776Y0129874D01*
X0127966Y0128875D02*
X0118627Y0128875D01*
X0118300Y0129202D02*
X0118300Y0129202D01*
X0119625Y0127877D02*
X0129711Y0127877D01*
X0128731Y0128233D02*
X0128731Y0128233D01*
X0132082Y0125880D02*
X0121300Y0125880D01*
X0121300Y0124881D02*
X0130142Y0124881D01*
X0129143Y0123883D02*
X0121300Y0123883D01*
X0121300Y0122884D02*
X0128702Y0122884D01*
X0126884Y0121886D02*
X0126418Y0121886D01*
X0128272Y0118890D02*
X0128845Y0118890D01*
X0129489Y0117892D02*
X0127274Y0117892D01*
X0126418Y0116893D02*
X0130505Y0116893D01*
X0130474Y0115214D02*
X0129096Y0113836D01*
X0128350Y0112035D01*
X0128350Y0110085D01*
X0129096Y0108284D01*
X0130474Y0106906D01*
X0132275Y0106160D01*
X0134225Y0106160D01*
X0136026Y0106906D01*
X0137404Y0108284D01*
X0138150Y0110085D01*
X0138150Y0112035D01*
X0137404Y0113836D01*
X0136026Y0115214D01*
X0134225Y0115960D01*
X0132275Y0115960D01*
X0130474Y0115214D01*
X0130157Y0114896D02*
X0126418Y0114896D01*
X0126418Y0113898D02*
X0129158Y0113898D01*
X0128708Y0112899D02*
X0126418Y0112899D01*
X0126418Y0111901D02*
X0128350Y0111901D01*
X0128350Y0110902D02*
X0126418Y0110902D01*
X0126271Y0109904D02*
X0128425Y0109904D01*
X0128839Y0108905D02*
X0124800Y0108905D01*
X0124800Y0107907D02*
X0129474Y0107907D01*
X0130472Y0106908D02*
X0124800Y0106908D01*
X0125092Y0105910D02*
X0141650Y0105910D01*
X0141650Y0106908D02*
X0136028Y0106908D01*
X0137026Y0107907D02*
X0141650Y0107907D01*
X0141650Y0108905D02*
X0137661Y0108905D01*
X0138075Y0109904D02*
X0141650Y0109904D01*
X0141650Y0110902D02*
X0138150Y0110902D01*
X0138150Y0111901D02*
X0141650Y0111901D01*
X0141650Y0112899D02*
X0137792Y0112899D01*
X0137342Y0113898D02*
X0141650Y0113898D01*
X0141650Y0114896D02*
X0136343Y0114896D01*
X0135995Y0116893D02*
X0141650Y0116893D01*
X0141650Y0115895D02*
X0134382Y0115895D01*
X0132118Y0115895D02*
X0125900Y0115895D01*
X0118200Y0117892D02*
X0114338Y0117892D01*
X0120624Y0126878D02*
X0141650Y0126878D01*
X0141650Y0125880D02*
X0134418Y0125880D01*
X0136358Y0124881D02*
X0141650Y0124881D01*
X0141650Y0123883D02*
X0137357Y0123883D01*
X0137798Y0122884D02*
X0141650Y0122884D01*
X0141650Y0121886D02*
X0138150Y0121886D01*
X0138150Y0120887D02*
X0141650Y0120887D01*
X0141650Y0119889D02*
X0138069Y0119889D01*
X0137655Y0118890D02*
X0141650Y0118890D01*
X0141650Y0117892D02*
X0137011Y0117892D01*
X0136789Y0127877D02*
X0141650Y0127877D01*
X0141650Y0128875D02*
X0138534Y0128875D01*
X0137769Y0128233D02*
X0137769Y0128233D01*
X0139724Y0129874D02*
X0141650Y0129874D01*
X0141650Y0130872D02*
X0140532Y0130872D01*
X0140173Y0130251D02*
X0140173Y0130251D01*
X0140173Y0130251D01*
X0141108Y0131871D02*
X0141650Y0131871D01*
X0157193Y0144460D02*
X0201307Y0144460D01*
X0199731Y0143887D01*
X0197327Y0141869D01*
X0195758Y0139151D01*
X0195758Y0139151D01*
X0195213Y0136060D01*
X0195758Y0132969D01*
X0197327Y0130251D01*
X0197327Y0130251D01*
X0199731Y0128233D01*
X0202681Y0127160D01*
X0205819Y0127160D01*
X0208769Y0128233D01*
X0211173Y0130251D01*
X0212650Y0132809D01*
X0212650Y0085014D01*
X0212638Y0085026D01*
X0211975Y0085507D01*
X0211246Y0085879D01*
X0210468Y0086132D01*
X0209750Y0086246D01*
X0209750Y0081560D01*
X0208750Y0081560D01*
X0208750Y0086246D01*
X0208032Y0086132D01*
X0207418Y0085932D01*
X0207418Y0086690D01*
X0206936Y0087855D01*
X0206045Y0088746D01*
X0204880Y0089228D01*
X0203620Y0089228D01*
X0202455Y0088746D01*
X0201564Y0087855D01*
X0201081Y0086690D01*
X0201081Y0085605D01*
X0200800Y0085722D01*
X0200800Y0101202D01*
X0195800Y0106202D01*
X0195800Y0109348D01*
X0196716Y0109348D01*
X0197418Y0110051D01*
X0197418Y0115376D01*
X0196734Y0116060D01*
X0197418Y0116744D01*
X0197418Y0117856D01*
X0198238Y0117856D01*
X0199677Y0119295D01*
X0200096Y0118284D01*
X0201474Y0116906D01*
X0203275Y0116160D01*
X0205225Y0116160D01*
X0207026Y0116906D01*
X0208404Y0118284D01*
X0209150Y0120085D01*
X0209150Y0122035D01*
X0208404Y0123836D01*
X0207026Y0125214D01*
X0205225Y0125960D01*
X0203275Y0125960D01*
X0201474Y0125214D01*
X0200096Y0123836D01*
X0199588Y0122610D01*
X0198608Y0122610D01*
X0197700Y0121702D01*
X0197418Y0121420D01*
X0197418Y0122069D01*
X0196716Y0122772D01*
X0192300Y0122772D01*
X0192300Y0126202D01*
X0188392Y0130110D01*
X0185962Y0130110D01*
X0185962Y0131026D01*
X0185259Y0131728D01*
X0184146Y0131728D01*
X0184146Y0132856D01*
X0183238Y0133764D01*
X0180392Y0136610D01*
X0168108Y0136610D01*
X0161708Y0130210D01*
X0161124Y0130210D01*
X0161173Y0130251D01*
X0162742Y0132969D01*
X0163287Y0136060D01*
X0162742Y0139151D01*
X0161173Y0141869D01*
X0161173Y0141869D01*
X0158769Y0143887D01*
X0158769Y0143887D01*
X0157193Y0144460D01*
X0158809Y0143853D02*
X0199691Y0143853D01*
X0199731Y0143887D02*
X0199731Y0143887D01*
X0198502Y0142855D02*
X0159998Y0142855D01*
X0161180Y0141856D02*
X0197320Y0141856D01*
X0197327Y0141869D02*
X0197327Y0141869D01*
X0197327Y0141869D01*
X0196743Y0140858D02*
X0161757Y0140858D01*
X0162333Y0139859D02*
X0196167Y0139859D01*
X0195707Y0138861D02*
X0162793Y0138861D01*
X0162742Y0139151D02*
X0162742Y0139151D01*
X0162970Y0137862D02*
X0195530Y0137862D01*
X0195354Y0136863D02*
X0163146Y0136863D01*
X0163287Y0136060D02*
X0163287Y0136060D01*
X0163253Y0135865D02*
X0167363Y0135865D01*
X0166364Y0134866D02*
X0163077Y0134866D01*
X0162901Y0133868D02*
X0165366Y0133868D01*
X0164367Y0132869D02*
X0162685Y0132869D01*
X0162742Y0132969D02*
X0162742Y0132969D01*
X0163369Y0131871D02*
X0162108Y0131871D01*
X0162370Y0130872D02*
X0161532Y0130872D01*
X0161173Y0130251D02*
X0161173Y0130251D01*
X0161173Y0130251D01*
X0163900Y0128018D02*
X0169392Y0133510D01*
X0179108Y0133510D01*
X0180889Y0131728D01*
X0179934Y0131728D01*
X0179410Y0131205D01*
X0179269Y0131450D01*
X0178990Y0131729D01*
X0178648Y0131926D01*
X0178266Y0132028D01*
X0176388Y0132028D01*
X0176388Y0129044D01*
X0175419Y0129044D01*
X0175419Y0128076D01*
X0172238Y0128076D01*
X0172238Y0126610D01*
X0171891Y0126610D01*
X0171497Y0127561D01*
X0170751Y0128307D01*
X0169777Y0128710D01*
X0168723Y0128710D01*
X0167749Y0128307D01*
X0167003Y0127561D01*
X0166609Y0126610D01*
X0163725Y0126610D01*
X0163900Y0127033D01*
X0163900Y0128018D01*
X0163900Y0127877D02*
X0167319Y0127877D01*
X0166721Y0126878D02*
X0163836Y0126878D01*
X0164757Y0128875D02*
X0175419Y0128875D01*
X0175419Y0129044D02*
X0172238Y0129044D01*
X0172238Y0130726D01*
X0172340Y0131107D01*
X0172538Y0131450D01*
X0172817Y0131729D01*
X0173159Y0131926D01*
X0173541Y0132028D01*
X0175419Y0132028D01*
X0175419Y0129044D01*
X0175419Y0129874D02*
X0176388Y0129874D01*
X0176388Y0130872D02*
X0175419Y0130872D01*
X0175419Y0131871D02*
X0176388Y0131871D01*
X0178744Y0131871D02*
X0180747Y0131871D01*
X0179749Y0132869D02*
X0168751Y0132869D01*
X0167753Y0131871D02*
X0173063Y0131871D01*
X0172277Y0130872D02*
X0166754Y0130872D01*
X0165756Y0129874D02*
X0172238Y0129874D01*
X0172238Y0127877D02*
X0171181Y0127877D01*
X0171779Y0126878D02*
X0172238Y0126878D01*
X0172538Y0121510D02*
X0167918Y0121510D01*
X0167918Y0120956D01*
X0168546Y0120956D01*
X0169892Y0119610D01*
X0170800Y0118702D01*
X0170800Y0108258D01*
X0171278Y0107780D01*
X0172945Y0109447D01*
X0172538Y0109854D01*
X0172538Y0113604D01*
X0173241Y0114307D01*
X0185259Y0114307D01*
X0185962Y0113604D01*
X0185962Y0109854D01*
X0185717Y0109610D01*
X0187052Y0109610D01*
X0187749Y0110307D01*
X0188723Y0110710D01*
X0189777Y0110710D01*
X0190751Y0110307D01*
X0191497Y0109561D01*
X0191900Y0108587D01*
X0191900Y0107533D01*
X0191497Y0106559D01*
X0190751Y0105813D01*
X0189777Y0105410D01*
X0188723Y0105410D01*
X0187749Y0105813D01*
X0187052Y0106510D01*
X0181608Y0106510D01*
X0180800Y0107318D01*
X0180800Y0104228D01*
X0186066Y0104228D01*
X0186590Y0103705D01*
X0186731Y0103950D01*
X0187010Y0104229D01*
X0187352Y0104426D01*
X0187734Y0104528D01*
X0189612Y0104528D01*
X0189612Y0101544D01*
X0190581Y0101544D01*
X0193762Y0101544D01*
X0193762Y0103226D01*
X0193660Y0103607D01*
X0193462Y0103950D01*
X0193183Y0104229D01*
X0192841Y0104426D01*
X0192459Y0104528D01*
X0190581Y0104528D01*
X0190581Y0101544D01*
X0190581Y0100576D01*
X0193762Y0100576D01*
X0193762Y0098894D01*
X0193660Y0098512D01*
X0193462Y0098170D01*
X0193183Y0097891D01*
X0192841Y0097694D01*
X0192459Y0097591D01*
X0190581Y0097591D01*
X0190581Y0100576D01*
X0189612Y0100576D01*
X0189612Y0097591D01*
X0187734Y0097591D01*
X0187352Y0097694D01*
X0187010Y0097891D01*
X0186731Y0098170D01*
X0186590Y0098415D01*
X0186066Y0097891D01*
X0184954Y0097891D01*
X0184954Y0097548D01*
X0185800Y0096702D01*
X0185800Y0093258D01*
X0186497Y0092561D01*
X0186900Y0091587D01*
X0186900Y0090533D01*
X0186497Y0089559D01*
X0185751Y0088813D01*
X0184777Y0088410D01*
X0183723Y0088410D01*
X0182749Y0088813D01*
X0182052Y0089510D01*
X0174892Y0089510D01*
X0171015Y0085633D01*
X0172026Y0085214D01*
X0173404Y0083836D01*
X0174150Y0082035D01*
X0174150Y0080085D01*
X0173404Y0078284D01*
X0172780Y0077660D01*
X0175720Y0077660D01*
X0175096Y0078284D01*
X0174350Y0080085D01*
X0174350Y0082035D01*
X0175096Y0083836D01*
X0176474Y0085214D01*
X0178275Y0085960D01*
X0180225Y0085960D01*
X0182026Y0085214D01*
X0183404Y0083836D01*
X0184150Y0082035D01*
X0184150Y0080085D01*
X0183404Y0078284D01*
X0182780Y0077660D01*
X0185720Y0077660D01*
X0185096Y0078284D01*
X0184350Y0080085D01*
X0184350Y0082035D01*
X0185096Y0083836D01*
X0186474Y0085214D01*
X0188275Y0085960D01*
X0190225Y0085960D01*
X0192026Y0085214D01*
X0193404Y0083836D01*
X0194150Y0082035D01*
X0194150Y0080085D01*
X0193404Y0078284D01*
X0192780Y0077660D01*
X0195720Y0077660D01*
X0195096Y0078284D01*
X0194350Y0080085D01*
X0194350Y0082035D01*
X0195096Y0083836D01*
X0196474Y0085214D01*
X0197700Y0085722D01*
X0197700Y0099918D01*
X0193608Y0104010D01*
X0192700Y0104918D01*
X0192700Y0109348D01*
X0191784Y0109348D01*
X0191081Y0110051D01*
X0191081Y0111164D01*
X0190954Y0111164D01*
X0190108Y0112010D01*
X0189200Y0112918D01*
X0189200Y0118841D01*
X0185962Y0118841D01*
X0185962Y0118516D01*
X0185259Y0117813D01*
X0173241Y0117813D01*
X0172538Y0118516D01*
X0172538Y0121510D01*
X0172538Y0120887D02*
X0168615Y0120887D01*
X0169613Y0119889D02*
X0172538Y0119889D01*
X0172538Y0118890D02*
X0170612Y0118890D01*
X0170800Y0117892D02*
X0173162Y0117892D01*
X0170800Y0116893D02*
X0189200Y0116893D01*
X0189200Y0115895D02*
X0170800Y0115895D01*
X0170800Y0114896D02*
X0189200Y0114896D01*
X0189200Y0113898D02*
X0185668Y0113898D01*
X0185962Y0112899D02*
X0189219Y0112899D01*
X0190217Y0111901D02*
X0185962Y0111901D01*
X0185962Y0110902D02*
X0191081Y0110902D01*
X0191154Y0109904D02*
X0191229Y0109904D01*
X0191768Y0108905D02*
X0192700Y0108905D01*
X0192700Y0107907D02*
X0191900Y0107907D01*
X0191641Y0106908D02*
X0192700Y0106908D01*
X0192700Y0105910D02*
X0190847Y0105910D01*
X0190581Y0103913D02*
X0189612Y0103913D01*
X0189612Y0102914D02*
X0190581Y0102914D01*
X0190581Y0101916D02*
X0189612Y0101916D01*
X0190581Y0100917D02*
X0196701Y0100917D01*
X0197699Y0099919D02*
X0193762Y0099919D01*
X0193762Y0098920D02*
X0197700Y0098920D01*
X0197700Y0097922D02*
X0193213Y0097922D01*
X0190581Y0097922D02*
X0189612Y0097922D01*
X0189612Y0098920D02*
X0190581Y0098920D01*
X0190581Y0099919D02*
X0189612Y0099919D01*
X0186980Y0097922D02*
X0186096Y0097922D01*
X0185579Y0096923D02*
X0197700Y0096923D01*
X0197700Y0095925D02*
X0185800Y0095925D01*
X0185800Y0094926D02*
X0197700Y0094926D01*
X0197700Y0093927D02*
X0185800Y0093927D01*
X0186129Y0092929D02*
X0197700Y0092929D01*
X0197700Y0091930D02*
X0186758Y0091930D01*
X0186900Y0090932D02*
X0197700Y0090932D01*
X0197700Y0089933D02*
X0186652Y0089933D01*
X0185873Y0088935D02*
X0197700Y0088935D01*
X0197700Y0087936D02*
X0173318Y0087936D01*
X0172320Y0086938D02*
X0197700Y0086938D01*
X0197700Y0085939D02*
X0190274Y0085939D01*
X0188226Y0085939D02*
X0180274Y0085939D01*
X0178226Y0085939D02*
X0171321Y0085939D01*
X0172299Y0084941D02*
X0176201Y0084941D01*
X0175203Y0083942D02*
X0173297Y0083942D01*
X0173773Y0082944D02*
X0174727Y0082944D01*
X0174350Y0081945D02*
X0174150Y0081945D01*
X0174150Y0080947D02*
X0174350Y0080947D01*
X0174407Y0079948D02*
X0174093Y0079948D01*
X0173680Y0078950D02*
X0174820Y0078950D01*
X0175429Y0077951D02*
X0173071Y0077951D01*
X0182299Y0084941D02*
X0186201Y0084941D01*
X0185203Y0083942D02*
X0183297Y0083942D01*
X0183773Y0082944D02*
X0184727Y0082944D01*
X0184350Y0081945D02*
X0184150Y0081945D01*
X0184150Y0080947D02*
X0184350Y0080947D01*
X0184407Y0079948D02*
X0184093Y0079948D01*
X0183680Y0078950D02*
X0184820Y0078950D01*
X0185429Y0077951D02*
X0183071Y0077951D01*
X0193071Y0077951D02*
X0195429Y0077951D01*
X0194820Y0078950D02*
X0193680Y0078950D01*
X0194093Y0079948D02*
X0194407Y0079948D01*
X0194350Y0080947D02*
X0194150Y0080947D01*
X0194150Y0081945D02*
X0194350Y0081945D01*
X0194727Y0082944D02*
X0193773Y0082944D01*
X0193297Y0083942D02*
X0195203Y0083942D01*
X0196201Y0084941D02*
X0192299Y0084941D01*
X0200800Y0085939D02*
X0201081Y0085939D01*
X0201184Y0086938D02*
X0200800Y0086938D01*
X0200800Y0087936D02*
X0201645Y0087936D01*
X0200800Y0088935D02*
X0202911Y0088935D01*
X0200800Y0089933D02*
X0212650Y0089933D01*
X0212650Y0088935D02*
X0205589Y0088935D01*
X0206854Y0087936D02*
X0212650Y0087936D01*
X0212650Y0086938D02*
X0207316Y0086938D01*
X0207418Y0085939D02*
X0207440Y0085939D01*
X0208750Y0085939D02*
X0209750Y0085939D01*
X0209750Y0084941D02*
X0208750Y0084941D01*
X0208750Y0083942D02*
X0209750Y0083942D01*
X0209750Y0082944D02*
X0208750Y0082944D01*
X0208750Y0081945D02*
X0209750Y0081945D01*
X0211060Y0085939D02*
X0212650Y0085939D01*
X0212650Y0090932D02*
X0200800Y0090932D01*
X0200800Y0091930D02*
X0212650Y0091930D01*
X0212650Y0092929D02*
X0200800Y0092929D01*
X0200800Y0093927D02*
X0212650Y0093927D01*
X0212650Y0094926D02*
X0200800Y0094926D01*
X0200800Y0095925D02*
X0212650Y0095925D01*
X0212650Y0096923D02*
X0200800Y0096923D01*
X0200800Y0097922D02*
X0212650Y0097922D01*
X0212650Y0098920D02*
X0200800Y0098920D01*
X0200800Y0099919D02*
X0212650Y0099919D01*
X0212650Y0100917D02*
X0200800Y0100917D01*
X0200086Y0101916D02*
X0212650Y0101916D01*
X0212650Y0102914D02*
X0199088Y0102914D01*
X0198089Y0103913D02*
X0212650Y0103913D01*
X0212650Y0104911D02*
X0197091Y0104911D01*
X0196092Y0105910D02*
X0212650Y0105910D01*
X0212650Y0106908D02*
X0207028Y0106908D01*
X0207026Y0106906D02*
X0208404Y0108284D01*
X0209150Y0110085D01*
X0209150Y0112035D01*
X0208404Y0113836D01*
X0207026Y0115214D01*
X0205225Y0115960D01*
X0203275Y0115960D01*
X0201474Y0115214D01*
X0200096Y0113836D01*
X0199350Y0112035D01*
X0199350Y0110085D01*
X0200096Y0108284D01*
X0201474Y0106906D01*
X0203275Y0106160D01*
X0205225Y0106160D01*
X0207026Y0106906D01*
X0208026Y0107907D02*
X0212650Y0107907D01*
X0212650Y0108905D02*
X0208661Y0108905D01*
X0209075Y0109904D02*
X0212650Y0109904D01*
X0212650Y0110902D02*
X0209150Y0110902D01*
X0209150Y0111901D02*
X0212650Y0111901D01*
X0212650Y0112899D02*
X0208792Y0112899D01*
X0208342Y0113898D02*
X0212650Y0113898D01*
X0212650Y0114896D02*
X0207343Y0114896D01*
X0206995Y0116893D02*
X0212650Y0116893D01*
X0212650Y0115895D02*
X0205382Y0115895D01*
X0203118Y0115895D02*
X0196900Y0115895D01*
X0197418Y0116893D02*
X0201505Y0116893D01*
X0200489Y0117892D02*
X0198274Y0117892D01*
X0199272Y0118890D02*
X0199845Y0118890D01*
X0197884Y0121886D02*
X0197418Y0121886D01*
X0199702Y0122884D02*
X0192300Y0122884D01*
X0192300Y0123883D02*
X0200143Y0123883D01*
X0201142Y0124881D02*
X0192300Y0124881D01*
X0192300Y0125880D02*
X0203082Y0125880D01*
X0205418Y0125880D02*
X0212650Y0125880D01*
X0212650Y0126878D02*
X0191624Y0126878D01*
X0190625Y0127877D02*
X0200711Y0127877D01*
X0199731Y0128233D02*
X0199731Y0128233D01*
X0198966Y0128875D02*
X0189627Y0128875D01*
X0188628Y0129874D02*
X0197776Y0129874D01*
X0196968Y0130872D02*
X0185962Y0130872D01*
X0184146Y0131871D02*
X0196392Y0131871D01*
X0195815Y0132869D02*
X0184133Y0132869D01*
X0183134Y0133868D02*
X0195599Y0133868D01*
X0195758Y0132969D02*
X0195758Y0132969D01*
X0195423Y0134866D02*
X0182136Y0134866D01*
X0181137Y0135865D02*
X0195247Y0135865D01*
X0195213Y0136060D02*
X0195213Y0136060D01*
X0195720Y0148660D02*
X0192780Y0148660D01*
X0193404Y0149284D01*
X0194150Y0151085D01*
X0194150Y0153035D01*
X0193404Y0154836D01*
X0192026Y0156214D01*
X0190225Y0156960D01*
X0188275Y0156960D01*
X0186474Y0156214D01*
X0185096Y0154836D01*
X0184350Y0153035D01*
X0184350Y0151085D01*
X0185096Y0149284D01*
X0185720Y0148660D01*
X0182780Y0148660D01*
X0183404Y0149284D01*
X0184150Y0151085D01*
X0184150Y0153035D01*
X0183404Y0154836D01*
X0182026Y0156214D01*
X0180225Y0156960D01*
X0178275Y0156960D01*
X0176474Y0156214D01*
X0175096Y0154836D01*
X0174350Y0153035D01*
X0174350Y0151085D01*
X0175096Y0149284D01*
X0175720Y0148660D01*
X0172780Y0148660D01*
X0173404Y0149284D01*
X0174150Y0151085D01*
X0174150Y0153035D01*
X0173404Y0154836D01*
X0172026Y0156214D01*
X0171015Y0156633D01*
X0174892Y0160510D01*
X0182052Y0160510D01*
X0182749Y0159813D01*
X0183723Y0159410D01*
X0184777Y0159410D01*
X0185751Y0159813D01*
X0186497Y0160559D01*
X0186900Y0161533D01*
X0186900Y0162587D01*
X0186497Y0163561D01*
X0185800Y0164258D01*
X0185800Y0167702D01*
X0184954Y0168548D01*
X0184954Y0168891D01*
X0186066Y0168891D01*
X0186590Y0169415D01*
X0186731Y0169170D01*
X0187010Y0168891D01*
X0187352Y0168694D01*
X0187734Y0168591D01*
X0189612Y0168591D01*
X0189612Y0171576D01*
X0190581Y0171576D01*
X0190581Y0172544D01*
X0193762Y0172544D01*
X0193762Y0174226D01*
X0193660Y0174607D01*
X0193462Y0174950D01*
X0193183Y0175229D01*
X0192841Y0175426D01*
X0192459Y0175528D01*
X0190581Y0175528D01*
X0190581Y0172544D01*
X0189612Y0172544D01*
X0189612Y0175528D01*
X0187734Y0175528D01*
X0187352Y0175426D01*
X0187010Y0175229D01*
X0186731Y0174950D01*
X0186590Y0174705D01*
X0186066Y0175228D01*
X0180800Y0175228D01*
X0180800Y0178318D01*
X0180970Y0178148D01*
X0181608Y0177510D01*
X0187052Y0177510D01*
X0187749Y0176813D01*
X0188723Y0176410D01*
X0189777Y0176410D01*
X0190751Y0176813D01*
X0191497Y0177559D01*
X0191900Y0178533D01*
X0191900Y0179587D01*
X0191497Y0180561D01*
X0190751Y0181307D01*
X0189777Y0181710D01*
X0188723Y0181710D01*
X0187749Y0181307D01*
X0187052Y0180610D01*
X0185717Y0180610D01*
X0185962Y0180854D01*
X0185962Y0184604D01*
X0185259Y0185307D01*
X0173241Y0185307D01*
X0172538Y0184604D01*
X0172538Y0180854D01*
X0172945Y0180447D01*
X0171278Y0178780D01*
X0170800Y0179258D01*
X0170800Y0189702D01*
X0169892Y0190610D01*
X0168546Y0191956D01*
X0167918Y0191956D01*
X0167918Y0192510D01*
X0172538Y0192510D01*
X0172538Y0189516D01*
X0173241Y0188813D01*
X0185259Y0188813D01*
X0185962Y0189516D01*
X0185962Y0189841D01*
X0189200Y0189841D01*
X0189200Y0183918D01*
X0190108Y0183010D01*
X0190954Y0182164D01*
X0191081Y0182164D01*
X0191081Y0181051D01*
X0191784Y0180348D01*
X0192700Y0180348D01*
X0192700Y0175918D01*
X0193608Y0175010D01*
X0197700Y0170918D01*
X0197700Y0156722D01*
X0196474Y0156214D01*
X0195096Y0154836D01*
X0194350Y0153035D01*
X0194350Y0151085D01*
X0195096Y0149284D01*
X0195720Y0148660D01*
X0195535Y0148846D02*
X0192965Y0148846D01*
X0193636Y0149844D02*
X0194864Y0149844D01*
X0194451Y0150843D02*
X0194049Y0150843D01*
X0194150Y0151841D02*
X0194350Y0151841D01*
X0194350Y0152840D02*
X0194150Y0152840D01*
X0193817Y0153838D02*
X0194683Y0153838D01*
X0195097Y0154837D02*
X0193403Y0154837D01*
X0192404Y0155835D02*
X0196096Y0155835D01*
X0197700Y0156834D02*
X0190530Y0156834D01*
X0187970Y0156834D02*
X0180530Y0156834D01*
X0182404Y0155835D02*
X0186096Y0155835D01*
X0185097Y0154837D02*
X0183403Y0154837D01*
X0183817Y0153838D02*
X0184683Y0153838D01*
X0184350Y0152840D02*
X0184150Y0152840D01*
X0184150Y0151841D02*
X0184350Y0151841D01*
X0184451Y0150843D02*
X0184049Y0150843D01*
X0183636Y0149844D02*
X0184864Y0149844D01*
X0185535Y0148846D02*
X0182965Y0148846D01*
X0176096Y0155835D02*
X0172404Y0155835D01*
X0173403Y0154837D02*
X0175097Y0154837D01*
X0174683Y0153838D02*
X0173817Y0153838D01*
X0174150Y0152840D02*
X0174350Y0152840D01*
X0174350Y0151841D02*
X0174150Y0151841D01*
X0174049Y0150843D02*
X0174451Y0150843D01*
X0174864Y0149844D02*
X0173636Y0149844D01*
X0172965Y0148846D02*
X0175535Y0148846D01*
X0177970Y0156834D02*
X0171216Y0156834D01*
X0172214Y0157832D02*
X0197700Y0157832D01*
X0197700Y0158831D02*
X0173213Y0158831D01*
X0174211Y0159829D02*
X0182733Y0159829D01*
X0185767Y0159829D02*
X0197700Y0159829D01*
X0197700Y0160828D02*
X0186608Y0160828D01*
X0186900Y0161826D02*
X0197700Y0161826D01*
X0197700Y0162825D02*
X0186802Y0162825D01*
X0186234Y0163823D02*
X0197700Y0163823D01*
X0197700Y0164822D02*
X0185800Y0164822D01*
X0185800Y0165820D02*
X0197700Y0165820D01*
X0197700Y0166819D02*
X0185800Y0166819D01*
X0185685Y0167817D02*
X0197700Y0167817D01*
X0197700Y0168816D02*
X0193052Y0168816D01*
X0193183Y0168891D02*
X0193462Y0169170D01*
X0193660Y0169513D01*
X0193762Y0169894D01*
X0193762Y0171576D01*
X0190581Y0171576D01*
X0190581Y0168591D01*
X0192459Y0168591D01*
X0192841Y0168694D01*
X0193183Y0168891D01*
X0193740Y0169814D02*
X0197700Y0169814D01*
X0197700Y0170813D02*
X0193762Y0170813D01*
X0193762Y0172810D02*
X0195808Y0172810D01*
X0194810Y0173808D02*
X0193762Y0173808D01*
X0193811Y0174807D02*
X0193544Y0174807D01*
X0192813Y0175805D02*
X0180800Y0175805D01*
X0180800Y0176804D02*
X0187772Y0176804D01*
X0186648Y0174807D02*
X0186488Y0174807D01*
X0189612Y0174807D02*
X0190581Y0174807D01*
X0190581Y0173808D02*
X0189612Y0173808D01*
X0189612Y0172810D02*
X0190581Y0172810D01*
X0190581Y0171811D02*
X0196807Y0171811D01*
X0199194Y0173808D02*
X0212650Y0173808D01*
X0212650Y0172810D02*
X0200192Y0172810D01*
X0200800Y0172202D02*
X0195800Y0177202D01*
X0195800Y0180348D01*
X0196716Y0180348D01*
X0197418Y0181051D01*
X0197418Y0186376D01*
X0196734Y0187060D01*
X0197418Y0187744D01*
X0197418Y0188856D01*
X0198238Y0188856D01*
X0199677Y0190295D01*
X0200096Y0189284D01*
X0201474Y0187906D01*
X0203275Y0187160D01*
X0205225Y0187160D01*
X0207026Y0187906D01*
X0208404Y0189284D01*
X0209150Y0191085D01*
X0209150Y0193035D01*
X0208404Y0194836D01*
X0207026Y0196214D01*
X0205225Y0196960D01*
X0203275Y0196960D01*
X0201474Y0196214D01*
X0200096Y0194836D01*
X0199588Y0193610D01*
X0198608Y0193610D01*
X0197700Y0192702D01*
X0197418Y0192420D01*
X0197418Y0193069D01*
X0196716Y0193772D01*
X0192300Y0193772D01*
X0192300Y0197202D01*
X0188392Y0201110D01*
X0185962Y0201110D01*
X0185962Y0202026D01*
X0185259Y0202728D01*
X0184146Y0202728D01*
X0184146Y0203856D01*
X0183238Y0204764D01*
X0180392Y0207610D01*
X0168108Y0207610D01*
X0161708Y0201210D01*
X0161124Y0201210D01*
X0161173Y0201251D01*
X0162742Y0203969D01*
X0163287Y0207060D01*
X0162742Y0210151D01*
X0161173Y0212869D01*
X0161173Y0212869D01*
X0158769Y0214887D01*
X0158769Y0214887D01*
X0157193Y0215460D01*
X0201307Y0215460D01*
X0199731Y0214887D01*
X0197327Y0212869D01*
X0195758Y0210151D01*
X0195758Y0210151D01*
X0195213Y0207060D01*
X0195758Y0203969D01*
X0197327Y0201251D01*
X0197327Y0201251D01*
X0199731Y0199233D01*
X0202681Y0198160D01*
X0205819Y0198160D01*
X0208769Y0199233D01*
X0211173Y0201251D01*
X0212650Y0203809D01*
X0212650Y0156014D01*
X0212638Y0156026D01*
X0211975Y0156507D01*
X0211246Y0156879D01*
X0210468Y0157132D01*
X0209750Y0157246D01*
X0209750Y0152560D01*
X0208750Y0152560D01*
X0208750Y0157246D01*
X0208032Y0157132D01*
X0207418Y0156932D01*
X0207418Y0157690D01*
X0206936Y0158855D01*
X0206045Y0159746D01*
X0204880Y0160228D01*
X0203620Y0160228D01*
X0202455Y0159746D01*
X0201564Y0158855D01*
X0201081Y0157690D01*
X0201081Y0156605D01*
X0200800Y0156722D01*
X0200800Y0172202D01*
X0200800Y0171811D02*
X0212650Y0171811D01*
X0212650Y0170813D02*
X0200800Y0170813D01*
X0200800Y0169814D02*
X0212650Y0169814D01*
X0212650Y0168816D02*
X0200800Y0168816D01*
X0200800Y0167817D02*
X0212650Y0167817D01*
X0212650Y0166819D02*
X0200800Y0166819D01*
X0200800Y0165820D02*
X0212650Y0165820D01*
X0212650Y0164822D02*
X0200800Y0164822D01*
X0200800Y0163823D02*
X0212650Y0163823D01*
X0212650Y0162825D02*
X0200800Y0162825D01*
X0200800Y0161826D02*
X0212650Y0161826D01*
X0212650Y0160828D02*
X0200800Y0160828D01*
X0200800Y0159829D02*
X0202656Y0159829D01*
X0201554Y0158831D02*
X0200800Y0158831D01*
X0200800Y0157832D02*
X0201140Y0157832D01*
X0201081Y0156834D02*
X0200800Y0156834D01*
X0205844Y0159829D02*
X0212650Y0159829D01*
X0212650Y0158831D02*
X0206946Y0158831D01*
X0207360Y0157832D02*
X0212650Y0157832D01*
X0212650Y0156834D02*
X0211335Y0156834D01*
X0209750Y0156834D02*
X0208750Y0156834D01*
X0208750Y0155835D02*
X0209750Y0155835D01*
X0209750Y0154837D02*
X0208750Y0154837D01*
X0208750Y0153838D02*
X0209750Y0153838D01*
X0209750Y0152840D02*
X0208750Y0152840D01*
X0212108Y0131871D02*
X0212650Y0131871D01*
X0212650Y0130872D02*
X0211532Y0130872D01*
X0211173Y0130251D02*
X0211173Y0130251D01*
X0211173Y0130251D01*
X0210724Y0129874D02*
X0212650Y0129874D01*
X0212650Y0128875D02*
X0209534Y0128875D01*
X0208769Y0128233D02*
X0208769Y0128233D01*
X0207789Y0127877D02*
X0212650Y0127877D01*
X0212650Y0124881D02*
X0207358Y0124881D01*
X0208357Y0123883D02*
X0212650Y0123883D01*
X0212650Y0122884D02*
X0208798Y0122884D01*
X0209150Y0121886D02*
X0212650Y0121886D01*
X0212650Y0120887D02*
X0209150Y0120887D01*
X0209069Y0119889D02*
X0212650Y0119889D01*
X0212650Y0118890D02*
X0208655Y0118890D01*
X0208011Y0117892D02*
X0212650Y0117892D01*
X0201157Y0114896D02*
X0197418Y0114896D01*
X0197418Y0113898D02*
X0200158Y0113898D01*
X0199708Y0112899D02*
X0197418Y0112899D01*
X0197418Y0111901D02*
X0199350Y0111901D01*
X0199350Y0110902D02*
X0197418Y0110902D01*
X0197271Y0109904D02*
X0199425Y0109904D01*
X0199839Y0108905D02*
X0195800Y0108905D01*
X0195800Y0107907D02*
X0200474Y0107907D01*
X0201472Y0106908D02*
X0195800Y0106908D01*
X0193705Y0103913D02*
X0193483Y0103913D01*
X0193762Y0102914D02*
X0194704Y0102914D01*
X0193762Y0101916D02*
X0195702Y0101916D01*
X0192707Y0104911D02*
X0180800Y0104911D01*
X0180800Y0105910D02*
X0187653Y0105910D01*
X0186710Y0103913D02*
X0186382Y0103913D01*
X0181210Y0106908D02*
X0180800Y0106908D01*
X0185962Y0109904D02*
X0187346Y0109904D01*
X0189200Y0117892D02*
X0185338Y0117892D01*
X0172832Y0113898D02*
X0170800Y0113898D01*
X0170800Y0112899D02*
X0172538Y0112899D01*
X0172538Y0111901D02*
X0170800Y0111901D01*
X0170800Y0110902D02*
X0172538Y0110902D01*
X0172538Y0109904D02*
X0170800Y0109904D01*
X0170800Y0108905D02*
X0172403Y0108905D01*
X0171405Y0107907D02*
X0171151Y0107907D01*
X0174317Y0088935D02*
X0182627Y0088935D01*
X0197327Y0070869D02*
X0199731Y0072887D01*
X0199731Y0072887D01*
X0201307Y0073460D01*
X0157193Y0073460D01*
X0158769Y0072887D01*
X0158769Y0072887D01*
X0161173Y0070869D01*
X0161173Y0070869D01*
X0162742Y0068151D01*
X0162742Y0068151D01*
X0163287Y0065060D01*
X0163287Y0065060D01*
X0162742Y0061969D01*
X0162742Y0061969D01*
X0161173Y0059251D01*
X0161173Y0059251D01*
X0161173Y0059251D01*
X0161124Y0059210D01*
X0161708Y0059210D01*
X0168108Y0065610D01*
X0180392Y0065610D01*
X0183238Y0062764D01*
X0184146Y0061856D01*
X0184146Y0060728D01*
X0185259Y0060728D01*
X0185962Y0060026D01*
X0185962Y0059110D01*
X0188392Y0059110D01*
X0189300Y0058202D01*
X0189300Y0058202D01*
X0191392Y0056110D01*
X0191392Y0056110D01*
X0192300Y0055202D01*
X0192300Y0051772D01*
X0196716Y0051772D01*
X0197418Y0051069D01*
X0197418Y0050420D01*
X0197700Y0050702D01*
X0198608Y0051610D01*
X0199588Y0051610D01*
X0200096Y0052836D01*
X0201474Y0054214D01*
X0203275Y0054960D01*
X0205225Y0054960D01*
X0207026Y0054214D01*
X0208404Y0052836D01*
X0209150Y0051035D01*
X0209150Y0049085D01*
X0208404Y0047284D01*
X0207026Y0045906D01*
X0205225Y0045160D01*
X0203275Y0045160D01*
X0201474Y0045906D01*
X0200096Y0047284D01*
X0199677Y0048295D01*
X0198238Y0046856D01*
X0197418Y0046856D01*
X0197418Y0045744D01*
X0196734Y0045060D01*
X0197418Y0044376D01*
X0197418Y0039051D01*
X0196716Y0038348D01*
X0195800Y0038348D01*
X0195800Y0035202D01*
X0200800Y0030202D01*
X0200800Y0014722D01*
X0201081Y0014605D01*
X0201081Y0015690D01*
X0201564Y0016855D01*
X0202455Y0017746D01*
X0203620Y0018228D01*
X0204880Y0018228D01*
X0206045Y0017746D01*
X0206936Y0016855D01*
X0207418Y0015690D01*
X0207418Y0014932D01*
X0208032Y0015132D01*
X0208750Y0015246D01*
X0208750Y0010560D01*
X0209750Y0010560D01*
X0209750Y0015246D01*
X0210468Y0015132D01*
X0211246Y0014879D01*
X0211975Y0014507D01*
X0212638Y0014026D01*
X0212650Y0014014D01*
X0212650Y0061809D01*
X0211173Y0059251D01*
X0211173Y0059251D01*
X0211173Y0059251D01*
X0208769Y0057233D01*
X0208769Y0057233D01*
X0205819Y0056160D01*
X0202681Y0056160D01*
X0199731Y0057233D01*
X0199731Y0057233D01*
X0197327Y0059251D01*
X0197327Y0059251D01*
X0195758Y0061969D01*
X0195758Y0061969D01*
X0195213Y0065060D01*
X0195213Y0065060D01*
X0195758Y0068151D01*
X0195758Y0068151D01*
X0197327Y0070869D01*
X0197327Y0070869D01*
X0197327Y0070869D01*
X0197438Y0070962D02*
X0161063Y0070962D01*
X0161696Y0069963D02*
X0196804Y0069963D01*
X0196228Y0068965D02*
X0162272Y0068965D01*
X0162775Y0067966D02*
X0195725Y0067966D01*
X0195549Y0066968D02*
X0162951Y0066968D01*
X0163127Y0065969D02*
X0195373Y0065969D01*
X0195228Y0064971D02*
X0181031Y0064971D01*
X0182030Y0063972D02*
X0195405Y0063972D01*
X0195581Y0062974D02*
X0183028Y0062974D01*
X0184027Y0061975D02*
X0195757Y0061975D01*
X0196331Y0060977D02*
X0184146Y0060977D01*
X0185962Y0059978D02*
X0196907Y0059978D01*
X0197650Y0058980D02*
X0188522Y0058980D01*
X0189521Y0057981D02*
X0198840Y0057981D01*
X0200421Y0056983D02*
X0190519Y0056983D01*
X0191518Y0055984D02*
X0212650Y0055984D01*
X0212650Y0054986D02*
X0192300Y0054986D01*
X0192300Y0053987D02*
X0201247Y0053987D01*
X0200249Y0052989D02*
X0192300Y0052989D01*
X0192300Y0051990D02*
X0199746Y0051990D01*
X0197989Y0050992D02*
X0197418Y0050992D01*
X0199378Y0047996D02*
X0199801Y0047996D01*
X0200383Y0046997D02*
X0198379Y0046997D01*
X0197418Y0045999D02*
X0201381Y0045999D01*
X0201474Y0044214D02*
X0200096Y0042836D01*
X0199350Y0041035D01*
X0199350Y0039085D01*
X0200096Y0037284D01*
X0201474Y0035906D01*
X0203275Y0035160D01*
X0205225Y0035160D01*
X0207026Y0035906D01*
X0208404Y0037284D01*
X0209150Y0039085D01*
X0209150Y0041035D01*
X0208404Y0042836D01*
X0207026Y0044214D01*
X0205225Y0044960D01*
X0203275Y0044960D01*
X0201474Y0044214D01*
X0201262Y0044002D02*
X0197418Y0044002D01*
X0197418Y0043003D02*
X0200264Y0043003D01*
X0199752Y0042005D02*
X0197418Y0042005D01*
X0197418Y0041006D02*
X0199350Y0041006D01*
X0199350Y0040008D02*
X0197418Y0040008D01*
X0197377Y0039009D02*
X0199381Y0039009D01*
X0199795Y0038011D02*
X0195800Y0038011D01*
X0195800Y0037012D02*
X0200368Y0037012D01*
X0201366Y0036014D02*
X0195800Y0036014D01*
X0195987Y0035015D02*
X0212650Y0035015D01*
X0212650Y0034017D02*
X0196985Y0034017D01*
X0197984Y0033018D02*
X0212650Y0033018D01*
X0212650Y0032020D02*
X0198982Y0032020D01*
X0199981Y0031021D02*
X0212650Y0031021D01*
X0212650Y0030023D02*
X0200800Y0030023D01*
X0200800Y0029024D02*
X0212650Y0029024D01*
X0212650Y0028026D02*
X0200800Y0028026D01*
X0200800Y0027027D02*
X0212650Y0027027D01*
X0212650Y0026029D02*
X0200800Y0026029D01*
X0200800Y0025030D02*
X0212650Y0025030D01*
X0212650Y0024032D02*
X0200800Y0024032D01*
X0200800Y0023033D02*
X0212650Y0023033D01*
X0212650Y0022035D02*
X0200800Y0022035D01*
X0200800Y0021036D02*
X0212650Y0021036D01*
X0212650Y0020038D02*
X0200800Y0020038D01*
X0200800Y0019039D02*
X0212650Y0019039D01*
X0212650Y0018041D02*
X0205334Y0018041D01*
X0206749Y0017042D02*
X0212650Y0017042D01*
X0212650Y0016044D02*
X0207272Y0016044D01*
X0207418Y0015045D02*
X0207765Y0015045D01*
X0208750Y0015045D02*
X0209750Y0015045D01*
X0210735Y0015045D02*
X0212650Y0015045D01*
X0212610Y0014047D02*
X0212650Y0014047D01*
X0209750Y0014047D02*
X0208750Y0014047D01*
X0208750Y0013048D02*
X0209750Y0013048D01*
X0209750Y0012050D02*
X0208750Y0012050D01*
X0208750Y0011051D02*
X0209750Y0011051D01*
X0203166Y0018041D02*
X0200800Y0018041D01*
X0200800Y0017042D02*
X0201751Y0017042D01*
X0201228Y0016044D02*
X0200800Y0016044D01*
X0200800Y0015045D02*
X0201081Y0015045D01*
X0197700Y0015045D02*
X0171427Y0015045D01*
X0171015Y0014633D02*
X0174892Y0018510D01*
X0182052Y0018510D01*
X0182749Y0017813D01*
X0183723Y0017410D01*
X0184777Y0017410D01*
X0185751Y0017813D01*
X0186497Y0018559D01*
X0186900Y0019533D01*
X0186900Y0020587D01*
X0186497Y0021561D01*
X0185800Y0022258D01*
X0185800Y0025702D01*
X0184954Y0026548D01*
X0184954Y0026891D01*
X0186066Y0026891D01*
X0186590Y0027415D01*
X0186731Y0027170D01*
X0187010Y0026891D01*
X0187352Y0026694D01*
X0187734Y0026591D01*
X0189612Y0026591D01*
X0189612Y0029576D01*
X0190581Y0029576D01*
X0190581Y0030544D01*
X0193762Y0030544D01*
X0193762Y0032226D01*
X0193660Y0032607D01*
X0193462Y0032950D01*
X0193183Y0033229D01*
X0192841Y0033426D01*
X0192459Y0033528D01*
X0190581Y0033528D01*
X0190581Y0030544D01*
X0189612Y0030544D01*
X0189612Y0033528D01*
X0187734Y0033528D01*
X0187352Y0033426D01*
X0187010Y0033229D01*
X0186731Y0032950D01*
X0186590Y0032705D01*
X0186066Y0033228D01*
X0180800Y0033228D01*
X0180800Y0036318D01*
X0180970Y0036148D01*
X0180970Y0036148D01*
X0181608Y0035510D01*
X0187052Y0035510D01*
X0187749Y0034813D01*
X0188723Y0034410D01*
X0189777Y0034410D01*
X0190751Y0034813D01*
X0191497Y0035559D01*
X0191900Y0036533D01*
X0191900Y0037587D01*
X0191497Y0038561D01*
X0190751Y0039307D01*
X0189777Y0039710D01*
X0188723Y0039710D01*
X0187749Y0039307D01*
X0187052Y0038610D01*
X0185717Y0038610D01*
X0185962Y0038854D01*
X0185962Y0042604D01*
X0185259Y0043307D01*
X0173241Y0043307D01*
X0172538Y0042604D01*
X0172538Y0038854D01*
X0172945Y0038447D01*
X0171278Y0036780D01*
X0170800Y0037258D01*
X0170800Y0047702D01*
X0169892Y0048610D01*
X0168546Y0049956D01*
X0167918Y0049956D01*
X0167918Y0050510D01*
X0172538Y0050510D01*
X0172538Y0047516D01*
X0173241Y0046813D01*
X0185259Y0046813D01*
X0185962Y0047516D01*
X0185962Y0047841D01*
X0189200Y0047841D01*
X0189200Y0041918D01*
X0190108Y0041010D01*
X0190954Y0040164D01*
X0191081Y0040164D01*
X0191081Y0039051D01*
X0191784Y0038348D01*
X0192700Y0038348D01*
X0192700Y0033918D01*
X0193608Y0033010D01*
X0197700Y0028918D01*
X0197700Y0014722D01*
X0196474Y0014214D01*
X0195096Y0012836D01*
X0194350Y0011035D01*
X0194350Y0009085D01*
X0195096Y0007284D01*
X0195720Y0006660D01*
X0192780Y0006660D01*
X0193404Y0007284D01*
X0194150Y0009085D01*
X0194150Y0011035D01*
X0193404Y0012836D01*
X0192026Y0014214D01*
X0190225Y0014960D01*
X0188275Y0014960D01*
X0186474Y0014214D01*
X0185096Y0012836D01*
X0184350Y0011035D01*
X0184350Y0009085D01*
X0185096Y0007284D01*
X0185720Y0006660D01*
X0182780Y0006660D01*
X0183404Y0007284D01*
X0184150Y0009085D01*
X0184150Y0011035D01*
X0183404Y0012836D01*
X0182026Y0014214D01*
X0180225Y0014960D01*
X0178275Y0014960D01*
X0176474Y0014214D01*
X0175096Y0012836D01*
X0174350Y0011035D01*
X0174350Y0009085D01*
X0175096Y0007284D01*
X0175720Y0006660D01*
X0172780Y0006660D01*
X0173404Y0007284D01*
X0174150Y0009085D01*
X0174150Y0011035D01*
X0173404Y0012836D01*
X0172026Y0014214D01*
X0171015Y0014633D01*
X0172193Y0014047D02*
X0176307Y0014047D01*
X0175308Y0013048D02*
X0173192Y0013048D01*
X0173730Y0012050D02*
X0174770Y0012050D01*
X0174357Y0011051D02*
X0174143Y0011051D01*
X0174150Y0010053D02*
X0174350Y0010053D01*
X0174363Y0009054D02*
X0174137Y0009054D01*
X0173723Y0008056D02*
X0174777Y0008056D01*
X0175323Y0007057D02*
X0173177Y0007057D01*
X0172426Y0016044D02*
X0197700Y0016044D01*
X0197700Y0017042D02*
X0173424Y0017042D01*
X0174423Y0018041D02*
X0182522Y0018041D01*
X0185978Y0018041D02*
X0197700Y0018041D01*
X0197700Y0019039D02*
X0186695Y0019039D01*
X0186900Y0020038D02*
X0197700Y0020038D01*
X0197700Y0021036D02*
X0186714Y0021036D01*
X0186023Y0022035D02*
X0197700Y0022035D01*
X0197700Y0023033D02*
X0185800Y0023033D01*
X0185800Y0024032D02*
X0197700Y0024032D01*
X0197700Y0025030D02*
X0185800Y0025030D01*
X0185473Y0026029D02*
X0197700Y0026029D01*
X0197700Y0027027D02*
X0193319Y0027027D01*
X0193183Y0026891D02*
X0193462Y0027170D01*
X0193660Y0027512D01*
X0193762Y0027894D01*
X0193762Y0029576D01*
X0190581Y0029576D01*
X0190581Y0026591D01*
X0192459Y0026591D01*
X0192841Y0026694D01*
X0193183Y0026891D01*
X0193762Y0028026D02*
X0197700Y0028026D01*
X0197594Y0029024D02*
X0193762Y0029024D01*
X0193762Y0031021D02*
X0195597Y0031021D01*
X0196595Y0030023D02*
X0190581Y0030023D01*
X0190581Y0031021D02*
X0189612Y0031021D01*
X0189612Y0032020D02*
X0190581Y0032020D01*
X0190581Y0033018D02*
X0189612Y0033018D01*
X0190953Y0035015D02*
X0192700Y0035015D01*
X0192700Y0034017D02*
X0180800Y0034017D01*
X0180800Y0035015D02*
X0187547Y0035015D01*
X0186800Y0033018D02*
X0186276Y0033018D01*
X0189612Y0029024D02*
X0190581Y0029024D01*
X0190581Y0028026D02*
X0189612Y0028026D01*
X0189612Y0027027D02*
X0190581Y0027027D01*
X0186874Y0027027D02*
X0186202Y0027027D01*
X0193762Y0032020D02*
X0194598Y0032020D01*
X0193600Y0033018D02*
X0193393Y0033018D01*
X0192700Y0036014D02*
X0191685Y0036014D01*
X0191900Y0037012D02*
X0192700Y0037012D01*
X0192700Y0038011D02*
X0191724Y0038011D01*
X0191123Y0039009D02*
X0191048Y0039009D01*
X0191081Y0040008D02*
X0185962Y0040008D01*
X0185962Y0041006D02*
X0190112Y0041006D01*
X0189200Y0042005D02*
X0185962Y0042005D01*
X0185563Y0043003D02*
X0189200Y0043003D01*
X0189200Y0044002D02*
X0170800Y0044002D01*
X0170800Y0045000D02*
X0189200Y0045000D01*
X0189200Y0045999D02*
X0170800Y0045999D01*
X0170800Y0046997D02*
X0173056Y0046997D01*
X0172538Y0047996D02*
X0170506Y0047996D01*
X0169508Y0048994D02*
X0172538Y0048994D01*
X0172538Y0049993D02*
X0167918Y0049993D01*
X0166609Y0055610D02*
X0163725Y0055610D01*
X0163900Y0056033D01*
X0163900Y0057018D01*
X0169392Y0062510D01*
X0179108Y0062510D01*
X0180889Y0060728D01*
X0179934Y0060728D01*
X0179410Y0060205D01*
X0179269Y0060450D01*
X0178990Y0060729D01*
X0178648Y0060926D01*
X0178266Y0061028D01*
X0176388Y0061028D01*
X0176388Y0058044D01*
X0175419Y0058044D01*
X0175419Y0057076D01*
X0172238Y0057076D01*
X0172238Y0055610D01*
X0171891Y0055610D01*
X0171497Y0056561D01*
X0170751Y0057307D01*
X0169777Y0057710D01*
X0168723Y0057710D01*
X0167749Y0057307D01*
X0167003Y0056561D01*
X0166609Y0055610D01*
X0166764Y0055984D02*
X0163880Y0055984D01*
X0163900Y0056983D02*
X0167425Y0056983D01*
X0165862Y0058980D02*
X0172238Y0058980D01*
X0172238Y0059726D02*
X0172238Y0058044D01*
X0175419Y0058044D01*
X0175419Y0061028D01*
X0173541Y0061028D01*
X0173159Y0060926D01*
X0172817Y0060729D01*
X0172538Y0060450D01*
X0172340Y0060107D01*
X0172238Y0059726D01*
X0172306Y0059978D02*
X0166860Y0059978D01*
X0167859Y0060977D02*
X0173347Y0060977D01*
X0175419Y0060977D02*
X0176388Y0060977D01*
X0176388Y0059978D02*
X0175419Y0059978D01*
X0175419Y0058980D02*
X0176388Y0058980D01*
X0175419Y0057981D02*
X0164863Y0057981D01*
X0162476Y0059978D02*
X0161593Y0059978D01*
X0162169Y0060977D02*
X0163475Y0060977D01*
X0162743Y0061975D02*
X0164473Y0061975D01*
X0165472Y0062974D02*
X0162919Y0062974D01*
X0163095Y0063972D02*
X0166470Y0063972D01*
X0167469Y0064971D02*
X0163272Y0064971D01*
X0168857Y0061975D02*
X0179643Y0061975D01*
X0180641Y0060977D02*
X0178460Y0060977D01*
X0172238Y0056983D02*
X0171075Y0056983D01*
X0171736Y0055984D02*
X0172238Y0055984D01*
X0172937Y0043003D02*
X0170800Y0043003D01*
X0170800Y0042005D02*
X0172538Y0042005D01*
X0172538Y0041006D02*
X0170800Y0041006D01*
X0170800Y0040008D02*
X0172538Y0040008D01*
X0172538Y0039009D02*
X0170800Y0039009D01*
X0170800Y0038011D02*
X0172509Y0038011D01*
X0171510Y0037012D02*
X0171045Y0037012D01*
X0180800Y0036014D02*
X0181104Y0036014D01*
X0185962Y0039009D02*
X0187452Y0039009D01*
X0189200Y0046997D02*
X0185444Y0046997D01*
X0196794Y0045000D02*
X0212650Y0045000D01*
X0212650Y0044002D02*
X0207238Y0044002D01*
X0208236Y0043003D02*
X0212650Y0043003D01*
X0212650Y0042005D02*
X0208748Y0042005D01*
X0209150Y0041006D02*
X0212650Y0041006D01*
X0212650Y0040008D02*
X0209150Y0040008D01*
X0209119Y0039009D02*
X0212650Y0039009D01*
X0212650Y0038011D02*
X0208705Y0038011D01*
X0208132Y0037012D02*
X0212650Y0037012D01*
X0212650Y0036014D02*
X0207133Y0036014D01*
X0207119Y0045999D02*
X0212650Y0045999D01*
X0212650Y0046997D02*
X0208117Y0046997D01*
X0208699Y0047996D02*
X0212650Y0047996D01*
X0212650Y0048994D02*
X0209112Y0048994D01*
X0209150Y0049993D02*
X0212650Y0049993D01*
X0212650Y0050992D02*
X0209150Y0050992D01*
X0208754Y0051990D02*
X0212650Y0051990D01*
X0212650Y0052989D02*
X0208251Y0052989D01*
X0207253Y0053987D02*
X0212650Y0053987D01*
X0212650Y0056983D02*
X0208079Y0056983D01*
X0209660Y0057981D02*
X0212650Y0057981D01*
X0212650Y0058980D02*
X0210850Y0058980D01*
X0211593Y0059978D02*
X0212650Y0059978D01*
X0212650Y0060977D02*
X0212169Y0060977D01*
X0199930Y0072959D02*
X0158570Y0072959D01*
X0159873Y0071960D02*
X0198627Y0071960D01*
X0196307Y0014047D02*
X0192193Y0014047D01*
X0193192Y0013048D02*
X0195308Y0013048D01*
X0194770Y0012050D02*
X0193730Y0012050D01*
X0194143Y0011051D02*
X0194357Y0011051D01*
X0194350Y0010053D02*
X0194150Y0010053D01*
X0194137Y0009054D02*
X0194363Y0009054D01*
X0194777Y0008056D02*
X0193723Y0008056D01*
X0193177Y0007057D02*
X0195323Y0007057D01*
X0185323Y0007057D02*
X0183177Y0007057D01*
X0183723Y0008056D02*
X0184777Y0008056D01*
X0184363Y0009054D02*
X0184137Y0009054D01*
X0184150Y0010053D02*
X0184350Y0010053D01*
X0184357Y0011051D02*
X0184143Y0011051D01*
X0183730Y0012050D02*
X0184770Y0012050D01*
X0185308Y0013048D02*
X0183192Y0013048D01*
X0182193Y0014047D02*
X0186307Y0014047D01*
X0141650Y0036014D02*
X0136133Y0036014D01*
X0136026Y0035906D02*
X0137404Y0037284D01*
X0138150Y0039085D01*
X0138150Y0041035D01*
X0137404Y0042836D01*
X0136026Y0044214D01*
X0134225Y0044960D01*
X0132275Y0044960D01*
X0130474Y0044214D01*
X0129096Y0042836D01*
X0128350Y0041035D01*
X0128350Y0039085D01*
X0129096Y0037284D01*
X0130474Y0035906D01*
X0132275Y0035160D01*
X0134225Y0035160D01*
X0136026Y0035906D01*
X0137132Y0037012D02*
X0141650Y0037012D01*
X0141650Y0038011D02*
X0137705Y0038011D01*
X0138119Y0039009D02*
X0141650Y0039009D01*
X0141650Y0040008D02*
X0138150Y0040008D01*
X0138150Y0041006D02*
X0141650Y0041006D01*
X0141650Y0042005D02*
X0137748Y0042005D01*
X0137236Y0043003D02*
X0141650Y0043003D01*
X0141650Y0044002D02*
X0136238Y0044002D01*
X0136119Y0045999D02*
X0141650Y0045999D01*
X0141650Y0046997D02*
X0137117Y0046997D01*
X0137699Y0047996D02*
X0141650Y0047996D01*
X0141650Y0048994D02*
X0138112Y0048994D01*
X0138150Y0049993D02*
X0141650Y0049993D01*
X0141650Y0050992D02*
X0138150Y0050992D01*
X0137754Y0051990D02*
X0141650Y0051990D01*
X0141650Y0052989D02*
X0137251Y0052989D01*
X0136253Y0053987D02*
X0141650Y0053987D01*
X0141650Y0056983D02*
X0137079Y0056983D01*
X0138660Y0057981D02*
X0141650Y0057981D01*
X0141650Y0058980D02*
X0139850Y0058980D01*
X0140173Y0059251D02*
X0140173Y0059251D01*
X0140593Y0059978D02*
X0141650Y0059978D01*
X0141650Y0060977D02*
X0141169Y0060977D01*
X0126990Y0050992D02*
X0126418Y0050992D01*
X0128378Y0047996D02*
X0128801Y0047996D01*
X0129383Y0046997D02*
X0127379Y0046997D01*
X0126418Y0045999D02*
X0130381Y0045999D01*
X0130262Y0044002D02*
X0126418Y0044002D01*
X0126418Y0043003D02*
X0129264Y0043003D01*
X0128752Y0042005D02*
X0126418Y0042005D01*
X0126418Y0041006D02*
X0128350Y0041006D01*
X0128350Y0040008D02*
X0126418Y0040008D01*
X0126377Y0039009D02*
X0128381Y0039009D01*
X0128795Y0038011D02*
X0124800Y0038011D01*
X0124800Y0037012D02*
X0129368Y0037012D01*
X0130366Y0036014D02*
X0124800Y0036014D01*
X0125794Y0045000D02*
X0141650Y0045000D01*
X0125307Y0014047D02*
X0121193Y0014047D01*
X0122192Y0013048D02*
X0124308Y0013048D01*
X0123770Y0012050D02*
X0122730Y0012050D01*
X0123143Y0011051D02*
X0123357Y0011051D01*
X0123350Y0010053D02*
X0123150Y0010053D01*
X0123137Y0009054D02*
X0123363Y0009054D01*
X0123777Y0008056D02*
X0122723Y0008056D01*
X0122177Y0007057D02*
X0124323Y0007057D01*
X0115307Y0014047D02*
X0111193Y0014047D01*
X0112192Y0013048D02*
X0114308Y0013048D01*
X0113770Y0012050D02*
X0112730Y0012050D01*
X0113143Y0011051D02*
X0113357Y0011051D01*
X0113350Y0010053D02*
X0113150Y0010053D01*
X0113137Y0009054D02*
X0113363Y0009054D01*
X0113777Y0008056D02*
X0112723Y0008056D01*
X0112177Y0007057D02*
X0114323Y0007057D01*
X0114429Y0077951D02*
X0112071Y0077951D01*
X0112680Y0078950D02*
X0113820Y0078950D01*
X0113407Y0079948D02*
X0113093Y0079948D01*
X0113150Y0080947D02*
X0113350Y0080947D01*
X0113350Y0081945D02*
X0113150Y0081945D01*
X0112773Y0082944D02*
X0113727Y0082944D01*
X0114203Y0083942D02*
X0112297Y0083942D01*
X0111299Y0084941D02*
X0115201Y0084941D01*
X0127089Y0103913D02*
X0141650Y0103913D01*
X0141650Y0104911D02*
X0126091Y0104911D01*
X0110210Y0106908D02*
X0109800Y0106908D01*
X0070650Y0117892D02*
X0066011Y0117892D01*
X0066655Y0118890D02*
X0070650Y0118890D01*
X0070650Y0119889D02*
X0067069Y0119889D01*
X0067150Y0120887D02*
X0070650Y0120887D01*
X0070650Y0121886D02*
X0067150Y0121886D01*
X0066798Y0122884D02*
X0070650Y0122884D01*
X0070650Y0123883D02*
X0066357Y0123883D01*
X0065358Y0124881D02*
X0070650Y0124881D01*
X0070650Y0127877D02*
X0065789Y0127877D01*
X0066769Y0128233D02*
X0066769Y0128233D01*
X0067534Y0128875D02*
X0070650Y0128875D01*
X0070650Y0129874D02*
X0068724Y0129874D01*
X0069173Y0130251D02*
X0069173Y0130251D01*
X0069173Y0130251D01*
X0069532Y0130872D02*
X0070650Y0130872D01*
X0070650Y0131871D02*
X0070108Y0131871D01*
X0048581Y0168816D02*
X0047612Y0168816D01*
X0047612Y0169814D02*
X0048581Y0169814D01*
X0048581Y0170813D02*
X0047612Y0170813D01*
X0045141Y0168816D02*
X0042954Y0168816D01*
X0039316Y0177802D02*
X0038800Y0177802D01*
X0043905Y0180798D02*
X0045240Y0180798D01*
X0043962Y0181796D02*
X0049081Y0181796D01*
X0049260Y0180798D02*
X0049335Y0180798D01*
X0049812Y0179799D02*
X0050700Y0179799D01*
X0050700Y0178801D02*
X0049900Y0178801D01*
X0049597Y0177802D02*
X0050700Y0177802D01*
X0050700Y0176804D02*
X0048728Y0176804D01*
X0053800Y0177802D02*
X0059724Y0177802D01*
X0059474Y0177906D02*
X0058096Y0179284D01*
X0057350Y0181085D01*
X0057350Y0183035D01*
X0058096Y0184836D01*
X0059474Y0186214D01*
X0061275Y0186960D01*
X0063225Y0186960D01*
X0065026Y0186214D01*
X0066404Y0184836D01*
X0067150Y0183035D01*
X0067150Y0181085D01*
X0066404Y0179284D01*
X0065026Y0177906D01*
X0063225Y0177160D01*
X0061275Y0177160D01*
X0059474Y0177906D01*
X0058579Y0178801D02*
X0053800Y0178801D01*
X0053800Y0179799D02*
X0057883Y0179799D01*
X0057469Y0180798D02*
X0055165Y0180798D01*
X0055418Y0181796D02*
X0057350Y0181796D01*
X0057350Y0182795D02*
X0055418Y0182795D01*
X0055418Y0183794D02*
X0057664Y0183794D01*
X0058078Y0184792D02*
X0055418Y0184792D01*
X0055418Y0185791D02*
X0059051Y0185791D01*
X0060863Y0186789D02*
X0055005Y0186789D01*
X0055418Y0187788D02*
X0059760Y0187788D01*
X0058594Y0188786D02*
X0055418Y0188786D01*
X0057167Y0189785D02*
X0057889Y0189785D01*
X0055700Y0192702D02*
X0055700Y0192702D01*
X0055778Y0192780D02*
X0055418Y0192780D01*
X0057658Y0193779D02*
X0050300Y0193779D01*
X0050300Y0194777D02*
X0058072Y0194777D01*
X0059036Y0195776D02*
X0050300Y0195776D01*
X0050300Y0196774D02*
X0060827Y0196774D01*
X0059001Y0198771D02*
X0048731Y0198771D01*
X0049729Y0197773D02*
X0070650Y0197773D01*
X0070650Y0198771D02*
X0065499Y0198771D01*
X0066769Y0199233D02*
X0066769Y0199233D01*
X0067408Y0199770D02*
X0070650Y0199770D01*
X0070650Y0200768D02*
X0068598Y0200768D01*
X0069173Y0201251D02*
X0069173Y0201251D01*
X0069173Y0201251D01*
X0069471Y0201767D02*
X0070650Y0201767D01*
X0070650Y0202765D02*
X0070047Y0202765D01*
X0070624Y0203764D02*
X0070650Y0203764D01*
X0070650Y0196774D02*
X0063673Y0196774D01*
X0065464Y0195776D02*
X0070650Y0195776D01*
X0070650Y0194777D02*
X0066428Y0194777D01*
X0066842Y0193779D02*
X0070650Y0193779D01*
X0070650Y0192780D02*
X0067150Y0192780D01*
X0067150Y0191782D02*
X0070650Y0191782D01*
X0070650Y0190783D02*
X0067025Y0190783D01*
X0066611Y0189785D02*
X0070650Y0189785D01*
X0070650Y0188786D02*
X0065906Y0188786D01*
X0064740Y0187788D02*
X0070650Y0187788D01*
X0070650Y0186789D02*
X0063637Y0186789D01*
X0065449Y0185791D02*
X0070650Y0185791D01*
X0070650Y0184792D02*
X0066422Y0184792D01*
X0066836Y0183794D02*
X0070650Y0183794D01*
X0070650Y0182795D02*
X0067150Y0182795D01*
X0067150Y0181796D02*
X0070650Y0181796D01*
X0070650Y0180798D02*
X0067031Y0180798D01*
X0066617Y0179799D02*
X0070650Y0179799D01*
X0070650Y0178801D02*
X0065921Y0178801D01*
X0064776Y0177802D02*
X0070650Y0177802D01*
X0070650Y0176804D02*
X0054198Y0176804D01*
X0055197Y0175805D02*
X0070650Y0175805D01*
X0070650Y0174807D02*
X0056195Y0174807D01*
X0048323Y0182795D02*
X0043962Y0182795D01*
X0043962Y0183794D02*
X0047324Y0183794D01*
X0047200Y0184792D02*
X0043774Y0184792D01*
X0047200Y0185791D02*
X0028800Y0185791D01*
X0028800Y0186789D02*
X0047200Y0186789D01*
X0047200Y0187788D02*
X0028800Y0187788D01*
X0028800Y0188786D02*
X0047200Y0188786D01*
X0047200Y0189785D02*
X0043962Y0189785D01*
X0047732Y0199770D02*
X0057092Y0199770D01*
X0057731Y0199233D02*
X0057731Y0199233D01*
X0055902Y0200768D02*
X0046734Y0200768D01*
X0043962Y0201767D02*
X0055029Y0201767D01*
X0054453Y0202765D02*
X0042146Y0202765D01*
X0042146Y0203764D02*
X0053876Y0203764D01*
X0053758Y0203969D02*
X0053758Y0203969D01*
X0053618Y0204762D02*
X0041240Y0204762D01*
X0040241Y0205761D02*
X0053442Y0205761D01*
X0053266Y0206759D02*
X0039243Y0206759D01*
X0037108Y0204510D02*
X0027392Y0204510D01*
X0021900Y0199018D01*
X0021900Y0198033D01*
X0021725Y0197610D01*
X0024609Y0197610D01*
X0025003Y0198561D01*
X0025749Y0199307D01*
X0026723Y0199710D01*
X0027777Y0199710D01*
X0028751Y0199307D01*
X0029497Y0198561D01*
X0029891Y0197610D01*
X0030238Y0197610D01*
X0030238Y0199076D01*
X0033419Y0199076D01*
X0033419Y0200044D01*
X0030238Y0200044D01*
X0030238Y0201726D01*
X0030340Y0202107D01*
X0030538Y0202450D01*
X0030817Y0202729D01*
X0031159Y0202926D01*
X0031541Y0203028D01*
X0033419Y0203028D01*
X0033419Y0200044D01*
X0034388Y0200044D01*
X0034388Y0203028D01*
X0036266Y0203028D01*
X0036648Y0202926D01*
X0036990Y0202729D01*
X0037269Y0202450D01*
X0037410Y0202205D01*
X0037934Y0202728D01*
X0038889Y0202728D01*
X0037108Y0204510D01*
X0037854Y0203764D02*
X0026646Y0203764D01*
X0025647Y0202765D02*
X0030880Y0202765D01*
X0030249Y0201767D02*
X0024649Y0201767D01*
X0023650Y0200768D02*
X0030238Y0200768D01*
X0030238Y0198771D02*
X0029286Y0198771D01*
X0029823Y0197773D02*
X0030238Y0197773D01*
X0033419Y0199770D02*
X0022652Y0199770D01*
X0021900Y0198771D02*
X0025214Y0198771D01*
X0024677Y0197773D02*
X0021792Y0197773D01*
X0020265Y0201767D02*
X0019471Y0201767D01*
X0019173Y0201251D02*
X0019173Y0201251D01*
X0019173Y0201251D01*
X0020047Y0202765D02*
X0021263Y0202765D01*
X0020624Y0203764D02*
X0022262Y0203764D01*
X0023260Y0204762D02*
X0020882Y0204762D01*
X0020742Y0203969D02*
X0020742Y0203969D01*
X0021058Y0205761D02*
X0024259Y0205761D01*
X0025257Y0206759D02*
X0021234Y0206759D01*
X0021287Y0207060D02*
X0021287Y0207060D01*
X0021164Y0207758D02*
X0053336Y0207758D01*
X0053213Y0207060D02*
X0053213Y0207060D01*
X0053512Y0208756D02*
X0020988Y0208756D01*
X0020812Y0209755D02*
X0053688Y0209755D01*
X0054106Y0210753D02*
X0020394Y0210753D01*
X0020742Y0210151D02*
X0020742Y0210151D01*
X0019818Y0211752D02*
X0054682Y0211752D01*
X0055259Y0212750D02*
X0019241Y0212750D01*
X0018124Y0213749D02*
X0056376Y0213749D01*
X0055327Y0212869D02*
X0055327Y0212869D01*
X0055327Y0212869D01*
X0057566Y0214747D02*
X0016934Y0214747D01*
X0033419Y0202765D02*
X0034388Y0202765D01*
X0034388Y0201767D02*
X0033419Y0201767D01*
X0033419Y0200768D02*
X0034388Y0200768D01*
X0036927Y0202765D02*
X0038853Y0202765D01*
X0030538Y0191782D02*
X0026720Y0191782D01*
X0027719Y0190783D02*
X0030538Y0190783D01*
X0030538Y0189785D02*
X0028717Y0189785D01*
X0028800Y0184792D02*
X0030726Y0184792D01*
X0030538Y0183794D02*
X0028800Y0183794D01*
X0028800Y0182795D02*
X0030538Y0182795D01*
X0030538Y0181796D02*
X0028800Y0181796D01*
X0028800Y0180798D02*
X0030594Y0180798D01*
X0030297Y0179799D02*
X0028800Y0179799D01*
X0029257Y0178801D02*
X0029299Y0178801D01*
X0057731Y0214887D02*
X0057731Y0214887D01*
X0087934Y0214747D02*
X0128566Y0214747D01*
X0128731Y0214887D02*
X0128731Y0214887D01*
X0127376Y0213749D02*
X0089124Y0213749D01*
X0090241Y0212750D02*
X0126259Y0212750D01*
X0126327Y0212869D02*
X0126327Y0212869D01*
X0126327Y0212869D01*
X0125682Y0211752D02*
X0090818Y0211752D01*
X0091394Y0210753D02*
X0125106Y0210753D01*
X0124688Y0209755D02*
X0091812Y0209755D01*
X0091742Y0210151D02*
X0091742Y0210151D01*
X0091988Y0208756D02*
X0124512Y0208756D01*
X0119731Y0198771D02*
X0130001Y0198771D01*
X0136499Y0198771D02*
X0141650Y0198771D01*
X0141650Y0199770D02*
X0138408Y0199770D01*
X0137769Y0199233D02*
X0137769Y0199233D01*
X0139598Y0200768D02*
X0141650Y0200768D01*
X0141650Y0201767D02*
X0140471Y0201767D01*
X0140173Y0201251D02*
X0140173Y0201251D01*
X0140173Y0201251D01*
X0141047Y0202765D02*
X0141650Y0202765D01*
X0141624Y0203764D02*
X0141650Y0203764D01*
X0158934Y0214747D02*
X0199566Y0214747D01*
X0198376Y0213749D02*
X0160124Y0213749D01*
X0161241Y0212750D02*
X0197259Y0212750D01*
X0197327Y0212869D02*
X0197327Y0212869D01*
X0197327Y0212869D01*
X0196682Y0211752D02*
X0161818Y0211752D01*
X0162394Y0210753D02*
X0196106Y0210753D01*
X0195688Y0209755D02*
X0162812Y0209755D01*
X0162742Y0210151D02*
X0162742Y0210151D01*
X0162988Y0208756D02*
X0195512Y0208756D01*
X0195336Y0207758D02*
X0163164Y0207758D01*
X0163287Y0207060D02*
X0163287Y0207060D01*
X0163234Y0206759D02*
X0167257Y0206759D01*
X0166259Y0205761D02*
X0163058Y0205761D01*
X0162882Y0204762D02*
X0165260Y0204762D01*
X0164262Y0203764D02*
X0162624Y0203764D01*
X0162742Y0203969D02*
X0162742Y0203969D01*
X0163263Y0202765D02*
X0162047Y0202765D01*
X0162265Y0201767D02*
X0161471Y0201767D01*
X0161173Y0201251D02*
X0161173Y0201251D01*
X0161173Y0201251D01*
X0163900Y0199018D02*
X0169392Y0204510D01*
X0179108Y0204510D01*
X0180889Y0202728D01*
X0179934Y0202728D01*
X0179410Y0202205D01*
X0179269Y0202450D01*
X0178990Y0202729D01*
X0178648Y0202926D01*
X0178266Y0203028D01*
X0176388Y0203028D01*
X0176388Y0200044D01*
X0175419Y0200044D01*
X0175419Y0199076D01*
X0172238Y0199076D01*
X0172238Y0197610D01*
X0171891Y0197610D01*
X0171497Y0198561D01*
X0170751Y0199307D01*
X0169777Y0199710D01*
X0168723Y0199710D01*
X0167749Y0199307D01*
X0167003Y0198561D01*
X0166609Y0197610D01*
X0163725Y0197610D01*
X0163900Y0198033D01*
X0163900Y0199018D01*
X0163900Y0198771D02*
X0167214Y0198771D01*
X0166677Y0197773D02*
X0163792Y0197773D01*
X0164652Y0199770D02*
X0175419Y0199770D01*
X0175419Y0200044D02*
X0172238Y0200044D01*
X0172238Y0201726D01*
X0172340Y0202107D01*
X0172538Y0202450D01*
X0172817Y0202729D01*
X0173159Y0202926D01*
X0173541Y0203028D01*
X0175419Y0203028D01*
X0175419Y0200044D01*
X0175419Y0200768D02*
X0176388Y0200768D01*
X0176388Y0201767D02*
X0175419Y0201767D01*
X0175419Y0202765D02*
X0176388Y0202765D01*
X0178927Y0202765D02*
X0180853Y0202765D01*
X0179854Y0203764D02*
X0168646Y0203764D01*
X0167647Y0202765D02*
X0172880Y0202765D01*
X0172249Y0201767D02*
X0166649Y0201767D01*
X0165650Y0200768D02*
X0172238Y0200768D01*
X0172238Y0198771D02*
X0171286Y0198771D01*
X0171823Y0197773D02*
X0172238Y0197773D01*
X0172538Y0191782D02*
X0168720Y0191782D01*
X0169719Y0190783D02*
X0172538Y0190783D01*
X0172538Y0189785D02*
X0170717Y0189785D01*
X0170800Y0188786D02*
X0189200Y0188786D01*
X0189200Y0187788D02*
X0170800Y0187788D01*
X0170800Y0186789D02*
X0189200Y0186789D01*
X0189200Y0185791D02*
X0170800Y0185791D01*
X0170800Y0184792D02*
X0172726Y0184792D01*
X0172538Y0183794D02*
X0170800Y0183794D01*
X0170800Y0182795D02*
X0172538Y0182795D01*
X0172538Y0181796D02*
X0170800Y0181796D01*
X0170800Y0180798D02*
X0172594Y0180798D01*
X0172297Y0179799D02*
X0170800Y0179799D01*
X0171257Y0178801D02*
X0171299Y0178801D01*
X0180800Y0177802D02*
X0181316Y0177802D01*
X0185905Y0180798D02*
X0187240Y0180798D01*
X0185962Y0181796D02*
X0191081Y0181796D01*
X0191260Y0180798D02*
X0191335Y0180798D01*
X0191812Y0179799D02*
X0192700Y0179799D01*
X0192700Y0178801D02*
X0191900Y0178801D01*
X0191597Y0177802D02*
X0192700Y0177802D01*
X0192700Y0176804D02*
X0190728Y0176804D01*
X0195800Y0177802D02*
X0201724Y0177802D01*
X0201474Y0177906D02*
X0203275Y0177160D01*
X0205225Y0177160D01*
X0207026Y0177906D01*
X0208404Y0179284D01*
X0209150Y0181085D01*
X0209150Y0183035D01*
X0208404Y0184836D01*
X0207026Y0186214D01*
X0205225Y0186960D01*
X0203275Y0186960D01*
X0201474Y0186214D01*
X0200096Y0184836D01*
X0199350Y0183035D01*
X0199350Y0181085D01*
X0200096Y0179284D01*
X0201474Y0177906D01*
X0200579Y0178801D02*
X0195800Y0178801D01*
X0195800Y0179799D02*
X0199883Y0179799D01*
X0199469Y0180798D02*
X0197165Y0180798D01*
X0197418Y0181796D02*
X0199350Y0181796D01*
X0199350Y0182795D02*
X0197418Y0182795D01*
X0197418Y0183794D02*
X0199664Y0183794D01*
X0200078Y0184792D02*
X0197418Y0184792D01*
X0197418Y0185791D02*
X0201051Y0185791D01*
X0202863Y0186789D02*
X0197005Y0186789D01*
X0197418Y0187788D02*
X0201760Y0187788D01*
X0200594Y0188786D02*
X0197418Y0188786D01*
X0199167Y0189785D02*
X0199889Y0189785D01*
X0197778Y0192780D02*
X0197418Y0192780D01*
X0199658Y0193779D02*
X0192300Y0193779D01*
X0192300Y0194777D02*
X0200072Y0194777D01*
X0201036Y0195776D02*
X0192300Y0195776D01*
X0192300Y0196774D02*
X0202827Y0196774D01*
X0201001Y0198771D02*
X0190731Y0198771D01*
X0191729Y0197773D02*
X0212650Y0197773D01*
X0212650Y0198771D02*
X0207499Y0198771D01*
X0208769Y0199233D02*
X0208769Y0199233D01*
X0209408Y0199770D02*
X0212650Y0199770D01*
X0212650Y0200768D02*
X0210598Y0200768D01*
X0211173Y0201251D02*
X0211173Y0201251D01*
X0211173Y0201251D01*
X0211471Y0201767D02*
X0212650Y0201767D01*
X0212650Y0202765D02*
X0212047Y0202765D01*
X0212624Y0203764D02*
X0212650Y0203764D01*
X0212650Y0196774D02*
X0205673Y0196774D01*
X0207464Y0195776D02*
X0212650Y0195776D01*
X0212650Y0194777D02*
X0208428Y0194777D01*
X0208842Y0193779D02*
X0212650Y0193779D01*
X0212650Y0192780D02*
X0209150Y0192780D01*
X0209150Y0191782D02*
X0212650Y0191782D01*
X0212650Y0190783D02*
X0209025Y0190783D01*
X0208611Y0189785D02*
X0212650Y0189785D01*
X0212650Y0188786D02*
X0207906Y0188786D01*
X0206740Y0187788D02*
X0212650Y0187788D01*
X0212650Y0186789D02*
X0205637Y0186789D01*
X0207449Y0185791D02*
X0212650Y0185791D01*
X0212650Y0184792D02*
X0208422Y0184792D01*
X0208836Y0183794D02*
X0212650Y0183794D01*
X0212650Y0182795D02*
X0209150Y0182795D01*
X0209150Y0181796D02*
X0212650Y0181796D01*
X0212650Y0180798D02*
X0209031Y0180798D01*
X0208617Y0179799D02*
X0212650Y0179799D01*
X0212650Y0178801D02*
X0207921Y0178801D01*
X0206776Y0177802D02*
X0212650Y0177802D01*
X0212650Y0176804D02*
X0196198Y0176804D01*
X0197197Y0175805D02*
X0212650Y0175805D01*
X0212650Y0174807D02*
X0198195Y0174807D01*
X0190581Y0170813D02*
X0189612Y0170813D01*
X0189612Y0169814D02*
X0190581Y0169814D01*
X0190581Y0168816D02*
X0189612Y0168816D01*
X0187141Y0168816D02*
X0184954Y0168816D01*
X0185962Y0182795D02*
X0190323Y0182795D01*
X0189324Y0183794D02*
X0185962Y0183794D01*
X0185774Y0184792D02*
X0189200Y0184792D01*
X0189200Y0189785D02*
X0185962Y0189785D01*
X0189732Y0199770D02*
X0199092Y0199770D01*
X0199731Y0199233D02*
X0199731Y0199233D01*
X0197902Y0200768D02*
X0188734Y0200768D01*
X0185962Y0201767D02*
X0197029Y0201767D01*
X0196453Y0202765D02*
X0184146Y0202765D01*
X0184146Y0203764D02*
X0195876Y0203764D01*
X0195758Y0203969D02*
X0195758Y0203969D01*
X0195618Y0204762D02*
X0183240Y0204762D01*
X0182241Y0205761D02*
X0195442Y0205761D01*
X0195266Y0206759D02*
X0181243Y0206759D01*
X0195213Y0207060D02*
X0195213Y0207060D01*
D17*
X0194250Y0199560D03*
X0186750Y0195560D03*
X0179250Y0195560D03*
X0187250Y0187060D03*
X0189250Y0179060D03*
X0194250Y0167060D03*
X0184250Y0162060D03*
X0169250Y0177060D03*
X0164750Y0177060D03*
X0159250Y0172060D03*
X0149250Y0177060D03*
X0149250Y0197060D03*
X0161250Y0198560D03*
X0169250Y0197060D03*
X0169250Y0201060D03*
X0123250Y0199560D03*
X0115750Y0195560D03*
X0108250Y0195560D03*
X0098250Y0197060D03*
X0098250Y0201060D03*
X0090250Y0198560D03*
X0078250Y0197060D03*
X0078250Y0177060D03*
X0088250Y0172060D03*
X0093750Y0177060D03*
X0098250Y0177060D03*
X0113250Y0162060D03*
X0123250Y0167060D03*
X0118250Y0179060D03*
X0116250Y0187060D03*
X0098250Y0130060D03*
X0098250Y0126060D03*
X0090250Y0127560D03*
X0078250Y0126060D03*
X0078250Y0106060D03*
X0088250Y0101060D03*
X0093750Y0106060D03*
X0098250Y0106060D03*
X0113250Y0091060D03*
X0123250Y0096060D03*
X0118250Y0108060D03*
X0116250Y0116060D03*
X0115750Y0124560D03*
X0123250Y0128560D03*
X0108250Y0124560D03*
X0149250Y0126060D03*
X0161250Y0127560D03*
X0169250Y0126060D03*
X0169250Y0130060D03*
X0179250Y0124560D03*
X0186750Y0124560D03*
X0194250Y0128560D03*
X0187250Y0116060D03*
X0189250Y0108060D03*
X0194250Y0096060D03*
X0184250Y0091060D03*
X0169250Y0106060D03*
X0164750Y0106060D03*
X0159250Y0101060D03*
X0149250Y0106060D03*
X0169250Y0059060D03*
X0169250Y0055060D03*
X0161250Y0056560D03*
X0149250Y0055060D03*
X0149250Y0035060D03*
X0159250Y0030060D03*
X0164750Y0035060D03*
X0169250Y0035060D03*
X0184250Y0020060D03*
X0194250Y0025060D03*
X0189250Y0037060D03*
X0187250Y0045060D03*
X0186750Y0053560D03*
X0179250Y0053560D03*
X0194250Y0057560D03*
X0123250Y0057560D03*
X0115750Y0053560D03*
X0108250Y0053560D03*
X0098250Y0055060D03*
X0098250Y0059060D03*
X0090250Y0056560D03*
X0078250Y0055060D03*
X0078250Y0035060D03*
X0088250Y0030060D03*
X0093750Y0035060D03*
X0098250Y0035060D03*
X0113250Y0020060D03*
X0123250Y0025060D03*
X0118250Y0037060D03*
X0116250Y0045060D03*
X0052250Y0057560D03*
X0044750Y0053560D03*
X0037250Y0053560D03*
X0045250Y0045060D03*
X0047250Y0037060D03*
X0052250Y0025060D03*
X0042250Y0020060D03*
X0027250Y0035060D03*
X0022750Y0035060D03*
X0017250Y0030060D03*
X0007250Y0035060D03*
X0007250Y0055060D03*
X0019250Y0056560D03*
X0027250Y0055060D03*
X0027250Y0059060D03*
X0042250Y0091060D03*
X0052250Y0096060D03*
X0047250Y0108060D03*
X0045250Y0116060D03*
X0044750Y0124560D03*
X0037250Y0124560D03*
X0027250Y0126060D03*
X0027250Y0130060D03*
X0019250Y0127560D03*
X0007250Y0126060D03*
X0007250Y0106060D03*
X0017250Y0101060D03*
X0022750Y0106060D03*
X0027250Y0106060D03*
X0052250Y0128560D03*
X0042250Y0162060D03*
X0052250Y0167060D03*
X0047250Y0179060D03*
X0045250Y0187060D03*
X0044750Y0195560D03*
X0037250Y0195560D03*
X0027250Y0197060D03*
X0027250Y0201060D03*
X0019250Y0198560D03*
X0007250Y0197060D03*
X0007250Y0177060D03*
X0017250Y0172060D03*
X0022750Y0177060D03*
X0027250Y0177060D03*
X0052250Y0199560D03*
D18*
X0048750Y0196560D02*
X0045750Y0199560D01*
X0040596Y0199560D01*
X0040596Y0203214D01*
X0037750Y0206060D01*
X0026750Y0206060D01*
X0019250Y0198560D01*
X0016750Y0196060D02*
X0026250Y0196060D01*
X0027250Y0197060D01*
X0028250Y0196060D01*
X0033250Y0196060D01*
X0034888Y0194422D01*
X0034888Y0191391D01*
X0037250Y0191391D02*
X0037250Y0195560D01*
X0039612Y0194422D02*
X0040750Y0195560D01*
X0044750Y0195560D01*
X0048750Y0196560D02*
X0048750Y0191560D01*
X0048581Y0191391D01*
X0041974Y0191391D01*
X0039612Y0191391D02*
X0039612Y0194422D01*
X0032526Y0193284D02*
X0032526Y0191391D01*
X0032526Y0193284D02*
X0031750Y0194060D01*
X0020250Y0194060D01*
X0019250Y0193060D01*
X0019250Y0189560D01*
X0015596Y0185906D01*
X0015596Y0182060D01*
X0015596Y0178714D01*
X0017250Y0177060D01*
X0017250Y0172060D01*
X0022750Y0173560D02*
X0022750Y0177060D01*
X0022750Y0183714D01*
X0022750Y0190406D02*
X0025904Y0190406D01*
X0027250Y0189060D01*
X0027250Y0177060D01*
X0029750Y0177060D01*
X0032526Y0179836D01*
X0032526Y0182729D01*
X0034888Y0182729D02*
X0034888Y0177198D01*
X0033096Y0175406D01*
X0033096Y0172060D01*
X0033096Y0169406D01*
X0032250Y0168560D01*
X0008750Y0168560D01*
X0007250Y0167060D01*
X0007250Y0152060D01*
X0017250Y0152060D02*
X0017250Y0162060D01*
X0021750Y0166560D01*
X0034250Y0166560D01*
X0037250Y0169560D01*
X0037250Y0182729D01*
X0039612Y0182729D02*
X0039612Y0179698D01*
X0040250Y0179060D01*
X0042250Y0179060D01*
X0041974Y0179336D01*
X0041974Y0182729D01*
X0042250Y0179060D02*
X0047250Y0179060D01*
X0049596Y0183714D02*
X0048750Y0184560D01*
X0048750Y0191560D01*
X0052250Y0190406D02*
X0055596Y0190406D01*
X0057250Y0192060D01*
X0062250Y0192060D01*
X0052250Y0183714D02*
X0049596Y0183714D01*
X0052250Y0183714D02*
X0052250Y0176560D01*
X0057250Y0171560D01*
X0057250Y0152060D01*
X0042250Y0162060D02*
X0042250Y0167060D01*
X0041404Y0167906D01*
X0041404Y0172060D01*
X0042250Y0162060D02*
X0032250Y0162060D01*
X0027250Y0157060D01*
X0027250Y0152060D01*
X0026750Y0135060D02*
X0019250Y0127560D01*
X0016750Y0125060D02*
X0026250Y0125060D01*
X0027250Y0126060D01*
X0028250Y0125060D01*
X0033250Y0125060D01*
X0034888Y0123422D01*
X0034888Y0120391D01*
X0037250Y0120391D02*
X0037250Y0124560D01*
X0039612Y0123422D02*
X0040750Y0124560D01*
X0044750Y0124560D01*
X0045750Y0128560D02*
X0040596Y0128560D01*
X0040596Y0132214D01*
X0037750Y0135060D01*
X0026750Y0135060D01*
X0031750Y0123060D02*
X0020250Y0123060D01*
X0019250Y0122060D01*
X0019250Y0118560D01*
X0015596Y0114906D01*
X0015596Y0111060D01*
X0015596Y0107714D01*
X0017250Y0106060D01*
X0017250Y0101060D01*
X0022750Y0102560D02*
X0022750Y0106060D01*
X0022750Y0112714D01*
X0027250Y0118060D02*
X0027250Y0106060D01*
X0029750Y0106060D01*
X0032526Y0108836D01*
X0032526Y0111729D01*
X0034888Y0111729D02*
X0034888Y0106198D01*
X0033096Y0104406D01*
X0033096Y0101060D01*
X0033096Y0098406D01*
X0032250Y0097560D01*
X0008750Y0097560D01*
X0007250Y0096060D01*
X0007250Y0081060D01*
X0017250Y0081060D02*
X0017250Y0091060D01*
X0021750Y0095560D01*
X0034250Y0095560D01*
X0037250Y0098560D01*
X0037250Y0111729D01*
X0039612Y0111729D02*
X0039612Y0108698D01*
X0040250Y0108060D01*
X0042250Y0108060D01*
X0041974Y0108336D01*
X0041974Y0111729D01*
X0042250Y0108060D02*
X0047250Y0108060D01*
X0049596Y0112714D02*
X0048750Y0113560D01*
X0048750Y0120560D01*
X0048581Y0120391D01*
X0041974Y0120391D01*
X0039612Y0120391D02*
X0039612Y0123422D01*
X0045750Y0128560D02*
X0048750Y0125560D01*
X0048750Y0120560D01*
X0052250Y0119406D02*
X0055596Y0119406D01*
X0057250Y0121060D01*
X0062250Y0121060D01*
X0052250Y0112714D02*
X0049596Y0112714D01*
X0052250Y0112714D02*
X0052250Y0105560D01*
X0057250Y0100560D01*
X0057250Y0081060D01*
X0042250Y0091060D02*
X0042250Y0096060D01*
X0041404Y0096906D01*
X0041404Y0101060D01*
X0042250Y0091060D02*
X0032250Y0091060D01*
X0027250Y0086060D01*
X0027250Y0081060D01*
X0026750Y0064060D02*
X0019250Y0056560D01*
X0016750Y0054060D02*
X0026250Y0054060D01*
X0027250Y0055060D01*
X0028250Y0054060D01*
X0033250Y0054060D01*
X0034888Y0052422D01*
X0034888Y0049391D01*
X0037250Y0049391D02*
X0037250Y0053560D01*
X0039612Y0052422D02*
X0040750Y0053560D01*
X0044750Y0053560D01*
X0045750Y0057560D02*
X0040596Y0057560D01*
X0040596Y0061214D01*
X0037750Y0064060D01*
X0026750Y0064060D01*
X0016750Y0054060D02*
X0015596Y0052906D01*
X0015596Y0050060D01*
X0019250Y0051060D02*
X0019250Y0047560D01*
X0015596Y0043906D01*
X0015596Y0040060D01*
X0015596Y0036714D01*
X0017250Y0035060D01*
X0017250Y0030060D01*
X0022750Y0031560D02*
X0022750Y0035060D01*
X0022750Y0041714D01*
X0027250Y0047060D02*
X0027250Y0035060D01*
X0029750Y0035060D01*
X0032526Y0037836D01*
X0032526Y0040729D01*
X0034888Y0040729D02*
X0034888Y0035198D01*
X0033096Y0033406D01*
X0033096Y0030060D01*
X0033096Y0027406D01*
X0032250Y0026560D01*
X0008750Y0026560D01*
X0007250Y0025060D01*
X0007250Y0010060D01*
X0017250Y0010060D02*
X0017250Y0020060D01*
X0021750Y0024560D01*
X0034250Y0024560D01*
X0037250Y0027560D01*
X0037250Y0040729D01*
X0039612Y0040729D02*
X0039612Y0037698D01*
X0040250Y0037060D01*
X0042250Y0037060D01*
X0041974Y0037336D01*
X0041974Y0040729D01*
X0042250Y0037060D02*
X0047250Y0037060D01*
X0049596Y0041714D02*
X0048750Y0042560D01*
X0048750Y0049560D01*
X0048581Y0049391D01*
X0041974Y0049391D01*
X0039612Y0049391D02*
X0039612Y0052422D01*
X0045750Y0057560D02*
X0048750Y0054560D01*
X0048750Y0049560D01*
X0052250Y0048406D02*
X0055596Y0048406D01*
X0057250Y0050060D01*
X0062250Y0050060D01*
X0052250Y0041714D02*
X0049596Y0041714D01*
X0052250Y0041714D02*
X0052250Y0034560D01*
X0057250Y0029560D01*
X0057250Y0010060D01*
X0042250Y0020060D02*
X0042250Y0025060D01*
X0041404Y0025906D01*
X0041404Y0030060D01*
X0042250Y0020060D02*
X0032250Y0020060D01*
X0027250Y0015060D01*
X0027250Y0010060D01*
X0026404Y0030060D02*
X0024250Y0030060D01*
X0022750Y0031560D01*
X0008904Y0036714D02*
X0007250Y0035060D01*
X0008904Y0036714D02*
X0008904Y0040060D01*
X0008904Y0050060D02*
X0008904Y0053406D01*
X0007250Y0055060D01*
X0019250Y0051060D02*
X0020250Y0052060D01*
X0031750Y0052060D01*
X0032526Y0051284D01*
X0032526Y0049391D01*
X0027250Y0047060D02*
X0025904Y0048406D01*
X0022750Y0048406D01*
X0024250Y0101060D02*
X0022750Y0102560D01*
X0024250Y0101060D02*
X0026404Y0101060D01*
X0027250Y0118060D02*
X0025904Y0119406D01*
X0022750Y0119406D01*
X0015596Y0121060D02*
X0015596Y0123906D01*
X0016750Y0125060D01*
X0008904Y0124406D02*
X0008904Y0121060D01*
X0008904Y0124406D02*
X0007250Y0126060D01*
X0008904Y0111060D02*
X0008904Y0107714D01*
X0007250Y0106060D01*
X0032526Y0120391D02*
X0032526Y0122284D01*
X0031750Y0123060D01*
X0078250Y0126060D02*
X0079904Y0124406D01*
X0079904Y0121060D01*
X0086596Y0121060D02*
X0086596Y0123906D01*
X0087750Y0125060D01*
X0097250Y0125060D01*
X0098250Y0126060D01*
X0099250Y0125060D01*
X0104250Y0125060D01*
X0105888Y0123422D01*
X0105888Y0120391D01*
X0108250Y0120391D02*
X0108250Y0124560D01*
X0110612Y0123422D02*
X0111750Y0124560D01*
X0115750Y0124560D01*
X0116750Y0128560D02*
X0111596Y0128560D01*
X0111596Y0132214D01*
X0108750Y0135060D01*
X0097750Y0135060D01*
X0090250Y0127560D01*
X0091250Y0123060D02*
X0090250Y0122060D01*
X0090250Y0118560D01*
X0086596Y0114906D01*
X0086596Y0111060D01*
X0086596Y0107714D01*
X0088250Y0106060D01*
X0088250Y0101060D01*
X0093750Y0102560D02*
X0093750Y0106060D01*
X0093750Y0112714D01*
X0098250Y0118060D02*
X0098250Y0106060D01*
X0100750Y0106060D01*
X0103526Y0108836D01*
X0103526Y0111729D01*
X0105888Y0111729D02*
X0105888Y0106198D01*
X0104096Y0104406D01*
X0104096Y0101060D01*
X0104096Y0098406D01*
X0103250Y0097560D01*
X0079750Y0097560D01*
X0078250Y0096060D01*
X0078250Y0081060D01*
X0088250Y0081060D02*
X0088250Y0091060D01*
X0092750Y0095560D01*
X0105250Y0095560D01*
X0108250Y0098560D01*
X0108250Y0111729D01*
X0110612Y0111729D02*
X0110612Y0108698D01*
X0111250Y0108060D01*
X0113250Y0108060D01*
X0112974Y0108336D01*
X0112974Y0111729D01*
X0113250Y0108060D02*
X0118250Y0108060D01*
X0120596Y0112714D02*
X0119750Y0113560D01*
X0119750Y0120560D01*
X0119581Y0120391D01*
X0112974Y0120391D01*
X0110612Y0120391D02*
X0110612Y0123422D01*
X0103526Y0122284D02*
X0103526Y0120391D01*
X0103526Y0122284D02*
X0102750Y0123060D01*
X0091250Y0123060D01*
X0093750Y0119406D02*
X0096904Y0119406D01*
X0098250Y0118060D01*
X0093750Y0102560D02*
X0095250Y0101060D01*
X0097404Y0101060D01*
X0103250Y0091060D02*
X0098250Y0086060D01*
X0098250Y0081060D01*
X0103250Y0091060D02*
X0113250Y0091060D01*
X0113250Y0096060D01*
X0112404Y0096906D01*
X0112404Y0101060D01*
X0123250Y0105560D02*
X0123250Y0112714D01*
X0120596Y0112714D01*
X0123250Y0119406D02*
X0126596Y0119406D01*
X0128250Y0121060D01*
X0133250Y0121060D01*
X0119750Y0120560D02*
X0119750Y0125560D01*
X0116750Y0128560D01*
X0123250Y0105560D02*
X0128250Y0100560D01*
X0128250Y0081060D01*
X0149250Y0081060D02*
X0149250Y0096060D01*
X0150750Y0097560D01*
X0174250Y0097560D01*
X0175096Y0098406D01*
X0175096Y0101060D01*
X0175096Y0104406D01*
X0176888Y0106198D01*
X0176888Y0111729D01*
X0179250Y0111729D02*
X0179250Y0098560D01*
X0176250Y0095560D01*
X0163750Y0095560D01*
X0159250Y0091060D01*
X0159250Y0081060D01*
X0169250Y0081060D02*
X0169250Y0086060D01*
X0174250Y0091060D01*
X0184250Y0091060D01*
X0184250Y0096060D01*
X0183404Y0096906D01*
X0183404Y0101060D01*
X0184250Y0108060D02*
X0182250Y0108060D01*
X0181612Y0108698D01*
X0181612Y0111729D01*
X0183974Y0111729D02*
X0183974Y0108336D01*
X0184250Y0108060D01*
X0189250Y0108060D01*
X0191596Y0112714D02*
X0190750Y0113560D01*
X0190750Y0120560D01*
X0190581Y0120391D01*
X0183974Y0120391D01*
X0181612Y0120391D02*
X0181612Y0123422D01*
X0182750Y0124560D01*
X0186750Y0124560D01*
X0187750Y0128560D02*
X0182596Y0128560D01*
X0182596Y0132214D01*
X0179750Y0135060D01*
X0168750Y0135060D01*
X0161250Y0127560D01*
X0158750Y0125060D02*
X0157596Y0123906D01*
X0157596Y0121060D01*
X0158750Y0125060D02*
X0168250Y0125060D01*
X0169250Y0126060D01*
X0170250Y0125060D01*
X0175250Y0125060D01*
X0176888Y0123422D01*
X0176888Y0120391D01*
X0179250Y0120391D02*
X0179250Y0124560D01*
X0174526Y0122284D02*
X0174526Y0120391D01*
X0174526Y0122284D02*
X0173750Y0123060D01*
X0162250Y0123060D01*
X0161250Y0122060D01*
X0161250Y0118560D01*
X0157596Y0114906D01*
X0157596Y0111060D01*
X0157596Y0107714D01*
X0159250Y0106060D01*
X0159250Y0101060D01*
X0164750Y0102560D02*
X0164750Y0106060D01*
X0164750Y0112714D01*
X0169250Y0118060D02*
X0169250Y0106060D01*
X0171750Y0106060D01*
X0174526Y0108836D01*
X0174526Y0111729D01*
X0169250Y0118060D02*
X0167904Y0119406D01*
X0164750Y0119406D01*
X0150904Y0121060D02*
X0150904Y0124406D01*
X0149250Y0126060D01*
X0150904Y0111060D02*
X0150904Y0107714D01*
X0149250Y0106060D01*
X0164750Y0102560D02*
X0166250Y0101060D01*
X0168404Y0101060D01*
X0190750Y0120560D02*
X0190750Y0125560D01*
X0187750Y0128560D01*
X0194250Y0119406D02*
X0197596Y0119406D01*
X0199250Y0121060D01*
X0204250Y0121060D01*
X0194250Y0112714D02*
X0191596Y0112714D01*
X0194250Y0112714D02*
X0194250Y0105560D01*
X0199250Y0100560D01*
X0199250Y0081060D01*
X0179750Y0064060D02*
X0182596Y0061214D01*
X0182596Y0057560D01*
X0187750Y0057560D01*
X0190750Y0054560D01*
X0190750Y0049560D01*
X0190581Y0049391D01*
X0183974Y0049391D01*
X0181612Y0049391D02*
X0181612Y0052422D01*
X0182750Y0053560D01*
X0186750Y0053560D01*
X0190750Y0049560D02*
X0190750Y0042560D01*
X0191596Y0041714D01*
X0194250Y0041714D01*
X0194250Y0034560D01*
X0199250Y0029560D01*
X0199250Y0010060D01*
X0184250Y0020060D02*
X0184250Y0025060D01*
X0183404Y0025906D01*
X0183404Y0030060D01*
X0179250Y0027560D02*
X0176250Y0024560D01*
X0163750Y0024560D01*
X0159250Y0020060D01*
X0159250Y0010060D01*
X0169250Y0010060D02*
X0169250Y0015060D01*
X0174250Y0020060D01*
X0184250Y0020060D01*
X0179250Y0027560D02*
X0179250Y0040729D01*
X0181612Y0040729D02*
X0181612Y0037698D01*
X0182250Y0037060D01*
X0184250Y0037060D01*
X0183974Y0037336D01*
X0183974Y0040729D01*
X0184250Y0037060D02*
X0189250Y0037060D01*
X0194250Y0048406D02*
X0197596Y0048406D01*
X0199250Y0050060D01*
X0204250Y0050060D01*
X0179250Y0049391D02*
X0179250Y0053560D01*
X0176888Y0052422D02*
X0176888Y0049391D01*
X0174526Y0049391D02*
X0174526Y0051284D01*
X0173750Y0052060D01*
X0162250Y0052060D01*
X0161250Y0051060D01*
X0161250Y0047560D01*
X0157596Y0043906D01*
X0157596Y0040060D01*
X0157596Y0036714D01*
X0159250Y0035060D01*
X0159250Y0030060D01*
X0164750Y0031560D02*
X0164750Y0035060D01*
X0164750Y0041714D01*
X0169250Y0047060D02*
X0169250Y0035060D01*
X0171750Y0035060D01*
X0174526Y0037836D01*
X0174526Y0040729D01*
X0176888Y0040729D02*
X0176888Y0035198D01*
X0175096Y0033406D01*
X0175096Y0030060D01*
X0175096Y0027406D01*
X0174250Y0026560D01*
X0150750Y0026560D01*
X0149250Y0025060D01*
X0149250Y0010060D01*
X0128250Y0010060D02*
X0128250Y0029560D01*
X0123250Y0034560D01*
X0123250Y0041714D01*
X0120596Y0041714D01*
X0119750Y0042560D01*
X0119750Y0049560D01*
X0119581Y0049391D01*
X0112974Y0049391D01*
X0110612Y0049391D02*
X0110612Y0052422D01*
X0111750Y0053560D01*
X0115750Y0053560D01*
X0116750Y0057560D02*
X0111596Y0057560D01*
X0111596Y0061214D01*
X0108750Y0064060D01*
X0097750Y0064060D01*
X0090250Y0056560D01*
X0087750Y0054060D02*
X0097250Y0054060D01*
X0098250Y0055060D01*
X0099250Y0054060D01*
X0104250Y0054060D01*
X0105888Y0052422D01*
X0105888Y0049391D01*
X0108250Y0049391D02*
X0108250Y0053560D01*
X0103526Y0051284D02*
X0103526Y0049391D01*
X0103526Y0051284D02*
X0102750Y0052060D01*
X0091250Y0052060D01*
X0090250Y0051060D01*
X0090250Y0047560D01*
X0086596Y0043906D01*
X0086596Y0040060D01*
X0086596Y0036714D01*
X0088250Y0035060D01*
X0088250Y0030060D01*
X0092750Y0024560D02*
X0088250Y0020060D01*
X0088250Y0010060D01*
X0078250Y0010060D02*
X0078250Y0025060D01*
X0079750Y0026560D01*
X0103250Y0026560D01*
X0104096Y0027406D01*
X0104096Y0030060D01*
X0104096Y0033406D01*
X0105888Y0035198D01*
X0105888Y0040729D01*
X0108250Y0040729D02*
X0108250Y0027560D01*
X0105250Y0024560D01*
X0092750Y0024560D01*
X0095250Y0030060D02*
X0093750Y0031560D01*
X0093750Y0035060D01*
X0093750Y0041714D01*
X0098250Y0047060D02*
X0098250Y0035060D01*
X0100750Y0035060D01*
X0103526Y0037836D01*
X0103526Y0040729D01*
X0110612Y0040729D02*
X0110612Y0037698D01*
X0111250Y0037060D01*
X0113250Y0037060D01*
X0112974Y0037336D01*
X0112974Y0040729D01*
X0113250Y0037060D02*
X0118250Y0037060D01*
X0112404Y0030060D02*
X0112404Y0025906D01*
X0113250Y0025060D01*
X0113250Y0020060D01*
X0103250Y0020060D01*
X0098250Y0015060D01*
X0098250Y0010060D01*
X0097404Y0030060D02*
X0095250Y0030060D01*
X0079904Y0036714D02*
X0078250Y0035060D01*
X0079904Y0036714D02*
X0079904Y0040060D01*
X0079904Y0050060D02*
X0079904Y0053406D01*
X0078250Y0055060D01*
X0086596Y0052906D02*
X0086596Y0050060D01*
X0086596Y0052906D02*
X0087750Y0054060D01*
X0093750Y0048406D02*
X0096904Y0048406D01*
X0098250Y0047060D01*
X0116750Y0057560D02*
X0119750Y0054560D01*
X0119750Y0049560D01*
X0123250Y0048406D02*
X0126596Y0048406D01*
X0128250Y0050060D01*
X0133250Y0050060D01*
X0149250Y0055060D02*
X0150904Y0053406D01*
X0150904Y0050060D01*
X0157596Y0050060D02*
X0157596Y0052906D01*
X0158750Y0054060D01*
X0168250Y0054060D01*
X0169250Y0055060D01*
X0170250Y0054060D01*
X0175250Y0054060D01*
X0176888Y0052422D01*
X0169250Y0047060D02*
X0167904Y0048406D01*
X0164750Y0048406D01*
X0161250Y0056560D02*
X0168750Y0064060D01*
X0179750Y0064060D01*
X0150904Y0040060D02*
X0150904Y0036714D01*
X0149250Y0035060D01*
X0164750Y0031560D02*
X0166250Y0030060D01*
X0168404Y0030060D01*
X0079904Y0107714D02*
X0078250Y0106060D01*
X0079904Y0107714D02*
X0079904Y0111060D01*
X0078250Y0152060D02*
X0078250Y0167060D01*
X0079750Y0168560D01*
X0103250Y0168560D01*
X0104096Y0169406D01*
X0104096Y0172060D01*
X0104096Y0175406D01*
X0105888Y0177198D01*
X0105888Y0182729D01*
X0108250Y0182729D02*
X0108250Y0169560D01*
X0105250Y0166560D01*
X0092750Y0166560D01*
X0088250Y0162060D01*
X0088250Y0152060D01*
X0098250Y0152060D02*
X0098250Y0157060D01*
X0103250Y0162060D01*
X0113250Y0162060D01*
X0113250Y0167060D01*
X0112404Y0167906D01*
X0112404Y0172060D01*
X0113250Y0179060D02*
X0111250Y0179060D01*
X0110612Y0179698D01*
X0110612Y0182729D01*
X0112974Y0182729D02*
X0112974Y0179336D01*
X0113250Y0179060D01*
X0118250Y0179060D01*
X0120596Y0183714D02*
X0119750Y0184560D01*
X0119750Y0191560D01*
X0119581Y0191391D01*
X0112974Y0191391D01*
X0110612Y0191391D02*
X0110612Y0194422D01*
X0111750Y0195560D01*
X0115750Y0195560D01*
X0119750Y0196560D02*
X0116750Y0199560D01*
X0111596Y0199560D01*
X0111596Y0203214D01*
X0108750Y0206060D01*
X0097750Y0206060D01*
X0090250Y0198560D01*
X0087750Y0196060D02*
X0097250Y0196060D01*
X0098250Y0197060D01*
X0099250Y0196060D01*
X0104250Y0196060D01*
X0105888Y0194422D01*
X0105888Y0191391D01*
X0108250Y0191391D02*
X0108250Y0195560D01*
X0103526Y0193284D02*
X0103526Y0191391D01*
X0103526Y0193284D02*
X0102750Y0194060D01*
X0091250Y0194060D01*
X0090250Y0193060D01*
X0090250Y0189560D01*
X0086596Y0185906D01*
X0086596Y0182060D01*
X0086596Y0178714D01*
X0088250Y0177060D01*
X0088250Y0172060D01*
X0093750Y0173560D02*
X0095250Y0172060D01*
X0097404Y0172060D01*
X0093750Y0173560D02*
X0093750Y0177060D01*
X0093750Y0183714D01*
X0093750Y0190406D02*
X0096904Y0190406D01*
X0098250Y0189060D01*
X0098250Y0177060D01*
X0100750Y0177060D01*
X0103526Y0179836D01*
X0103526Y0182729D01*
X0087750Y0196060D02*
X0086596Y0194906D01*
X0086596Y0192060D01*
X0079904Y0192060D02*
X0079904Y0195406D01*
X0078250Y0197060D01*
X0079904Y0182060D02*
X0079904Y0178714D01*
X0078250Y0177060D01*
X0120596Y0183714D02*
X0123250Y0183714D01*
X0123250Y0176560D01*
X0128250Y0171560D01*
X0128250Y0152060D01*
X0149250Y0152060D02*
X0149250Y0167060D01*
X0150750Y0168560D01*
X0174250Y0168560D01*
X0175096Y0169406D01*
X0175096Y0172060D01*
X0175096Y0175406D01*
X0176888Y0177198D01*
X0176888Y0182729D01*
X0179250Y0182729D02*
X0179250Y0169560D01*
X0176250Y0166560D01*
X0163750Y0166560D01*
X0159250Y0162060D01*
X0159250Y0152060D01*
X0169250Y0152060D02*
X0169250Y0157060D01*
X0174250Y0162060D01*
X0184250Y0162060D01*
X0184250Y0167060D01*
X0183404Y0167906D01*
X0183404Y0172060D01*
X0184250Y0179060D02*
X0182250Y0179060D01*
X0181612Y0179698D01*
X0181612Y0182729D01*
X0183974Y0182729D02*
X0183974Y0179336D01*
X0184250Y0179060D01*
X0189250Y0179060D01*
X0191596Y0183714D02*
X0190750Y0184560D01*
X0190750Y0191560D01*
X0190581Y0191391D01*
X0183974Y0191391D01*
X0181612Y0191391D02*
X0181612Y0194422D01*
X0182750Y0195560D01*
X0186750Y0195560D01*
X0187750Y0199560D02*
X0182596Y0199560D01*
X0182596Y0203214D01*
X0179750Y0206060D01*
X0168750Y0206060D01*
X0161250Y0198560D01*
X0158750Y0196060D02*
X0168250Y0196060D01*
X0169250Y0197060D01*
X0170250Y0196060D01*
X0175250Y0196060D01*
X0176888Y0194422D01*
X0176888Y0191391D01*
X0179250Y0191391D02*
X0179250Y0195560D01*
X0174526Y0193284D02*
X0174526Y0191391D01*
X0174526Y0193284D02*
X0173750Y0194060D01*
X0162250Y0194060D01*
X0161250Y0193060D01*
X0161250Y0189560D01*
X0157596Y0185906D01*
X0157596Y0182060D01*
X0157596Y0178714D01*
X0159250Y0177060D01*
X0159250Y0172060D01*
X0164750Y0173560D02*
X0164750Y0177060D01*
X0164750Y0183714D01*
X0164750Y0190406D02*
X0167904Y0190406D01*
X0169250Y0189060D01*
X0169250Y0177060D01*
X0171750Y0177060D01*
X0174526Y0179836D01*
X0174526Y0182729D01*
X0168404Y0172060D02*
X0166250Y0172060D01*
X0164750Y0173560D01*
X0150904Y0178714D02*
X0149250Y0177060D01*
X0150904Y0178714D02*
X0150904Y0182060D01*
X0150904Y0192060D02*
X0150904Y0195406D01*
X0149250Y0197060D01*
X0157596Y0194906D02*
X0157596Y0192060D01*
X0157596Y0194906D02*
X0158750Y0196060D01*
X0133250Y0192060D02*
X0128250Y0192060D01*
X0126596Y0190406D01*
X0123250Y0190406D01*
X0119750Y0191560D02*
X0119750Y0196560D01*
X0187750Y0199560D02*
X0190750Y0196560D01*
X0190750Y0191560D01*
X0194250Y0190406D02*
X0197596Y0190406D01*
X0199250Y0192060D01*
X0204250Y0192060D01*
X0194250Y0183714D02*
X0191596Y0183714D01*
X0194250Y0183714D02*
X0194250Y0176560D01*
X0199250Y0171560D01*
X0199250Y0152060D01*
X0026404Y0172060D02*
X0024250Y0172060D01*
X0022750Y0173560D01*
X0008904Y0178714D02*
X0007250Y0177060D01*
X0008904Y0178714D02*
X0008904Y0182060D01*
X0008904Y0192060D02*
X0008904Y0195406D01*
X0007250Y0197060D01*
X0015596Y0194906D02*
X0015596Y0192060D01*
X0015596Y0194906D02*
X0016750Y0196060D01*
M02*
