G75*
%MOIN*%
%OFA0B0*%
%FSLAX25Y25*%
%IPPOS*%
%LPD*%
%AMOC8*
5,1,8,0,0,1.08239X$1,22.5*
%
%ADD10C,0.08200*%
%ADD11R,0.05131X0.04737*%
%ADD12R,0.04737X0.05131*%
%ADD13C,0.13800*%
%ADD14C,0.04737*%
%ADD15R,0.02375X0.03556*%
%ADD16C,0.00197*%
%ADD17C,0.03900*%
D10*
X0007250Y0010060D03*
X0017250Y0010060D03*
X0027250Y0010060D03*
X0037250Y0010060D03*
X0047250Y0010060D03*
X0057250Y0010060D03*
X0067250Y0010060D03*
X0079250Y0010060D03*
X0089250Y0010060D03*
X0099250Y0010060D03*
X0109250Y0010060D03*
X0119250Y0010060D03*
X0129250Y0010060D03*
X0139250Y0010060D03*
X0151250Y0010060D03*
X0161250Y0010060D03*
X0171250Y0010060D03*
X0181250Y0010060D03*
X0191250Y0010060D03*
X0201250Y0010060D03*
X0211250Y0010060D03*
X0206250Y0040060D03*
X0206250Y0050060D03*
X0201250Y0082060D03*
X0191250Y0082060D03*
X0181250Y0082060D03*
X0171250Y0082060D03*
X0161250Y0082060D03*
X0151250Y0082060D03*
X0139250Y0082060D03*
X0129250Y0082060D03*
X0119250Y0082060D03*
X0109250Y0082060D03*
X0099250Y0082060D03*
X0089250Y0082060D03*
X0079250Y0082060D03*
X0067250Y0082060D03*
X0057250Y0082060D03*
X0047250Y0082060D03*
X0037250Y0082060D03*
X0027250Y0082060D03*
X0017250Y0082060D03*
X0007250Y0082060D03*
X0062250Y0112060D03*
X0062250Y0122060D03*
X0057250Y0154060D03*
X0067250Y0154060D03*
X0079250Y0154060D03*
X0089250Y0154060D03*
X0099250Y0154060D03*
X0109250Y0154060D03*
X0119250Y0154060D03*
X0129250Y0154060D03*
X0139250Y0154060D03*
X0151250Y0154060D03*
X0161250Y0154060D03*
X0171250Y0154060D03*
X0181250Y0154060D03*
X0191250Y0154060D03*
X0201250Y0154060D03*
X0211250Y0154060D03*
X0206250Y0184060D03*
X0206250Y0194060D03*
X0206250Y0122060D03*
X0206250Y0112060D03*
X0211250Y0082060D03*
X0134250Y0112060D03*
X0134250Y0122060D03*
X0134250Y0184060D03*
X0134250Y0194060D03*
X0062250Y0194060D03*
X0062250Y0184060D03*
X0047250Y0154060D03*
X0037250Y0154060D03*
X0027250Y0154060D03*
X0017250Y0154060D03*
X0007250Y0154060D03*
X0062250Y0050060D03*
X0062250Y0040060D03*
X0134250Y0040060D03*
X0134250Y0050060D03*
D11*
X0152904Y0050060D03*
X0159596Y0050060D03*
X0159596Y0040060D03*
X0152904Y0040060D03*
X0170404Y0030060D03*
X0177096Y0030060D03*
X0185404Y0030060D03*
X0192096Y0030060D03*
X0184596Y0057560D03*
X0177904Y0057560D03*
X0177096Y0102060D03*
X0170404Y0102060D03*
X0159596Y0112060D03*
X0152904Y0112060D03*
X0152904Y0122060D03*
X0159596Y0122060D03*
X0177904Y0129560D03*
X0184596Y0129560D03*
X0185404Y0102060D03*
X0192096Y0102060D03*
X0192096Y0174060D03*
X0185404Y0174060D03*
X0177096Y0174060D03*
X0170404Y0174060D03*
X0159596Y0184060D03*
X0152904Y0184060D03*
X0152904Y0194060D03*
X0159596Y0194060D03*
X0177904Y0201560D03*
X0184596Y0201560D03*
X0120096Y0174060D03*
X0113404Y0174060D03*
X0105096Y0174060D03*
X0098404Y0174060D03*
X0087596Y0184060D03*
X0080904Y0184060D03*
X0080904Y0194060D03*
X0087596Y0194060D03*
X0105904Y0201560D03*
X0112596Y0201560D03*
X0048096Y0174060D03*
X0041404Y0174060D03*
X0033096Y0174060D03*
X0026404Y0174060D03*
X0015596Y0184060D03*
X0008904Y0184060D03*
X0008904Y0194060D03*
X0015596Y0194060D03*
X0033904Y0201560D03*
X0040596Y0201560D03*
X0040596Y0129560D03*
X0033904Y0129560D03*
X0015596Y0122060D03*
X0008904Y0122060D03*
X0008904Y0112060D03*
X0015596Y0112060D03*
X0026404Y0102060D03*
X0033096Y0102060D03*
X0041404Y0102060D03*
X0048096Y0102060D03*
X0080904Y0112060D03*
X0087596Y0112060D03*
X0087596Y0122060D03*
X0080904Y0122060D03*
X0098404Y0102060D03*
X0105096Y0102060D03*
X0113404Y0102060D03*
X0120096Y0102060D03*
X0112596Y0129560D03*
X0105904Y0129560D03*
X0105904Y0057560D03*
X0112596Y0057560D03*
X0087596Y0050060D03*
X0080904Y0050060D03*
X0080904Y0040060D03*
X0087596Y0040060D03*
X0098404Y0030060D03*
X0105096Y0030060D03*
X0113404Y0030060D03*
X0120096Y0030060D03*
X0048096Y0030060D03*
X0041404Y0030060D03*
X0033096Y0030060D03*
X0026404Y0030060D03*
X0015596Y0040060D03*
X0008904Y0040060D03*
X0008904Y0050060D03*
X0015596Y0050060D03*
X0033904Y0057560D03*
X0040596Y0057560D03*
D12*
X0052250Y0048406D03*
X0052250Y0041714D03*
X0022750Y0041714D03*
X0022750Y0048406D03*
X0022750Y0113714D03*
X0022750Y0120406D03*
X0052250Y0120406D03*
X0052250Y0113714D03*
X0094750Y0113714D03*
X0094750Y0120406D03*
X0124250Y0120406D03*
X0124250Y0113714D03*
X0166750Y0113714D03*
X0166750Y0120406D03*
X0196250Y0120406D03*
X0196250Y0113714D03*
X0196250Y0048406D03*
X0196250Y0041714D03*
X0166750Y0041714D03*
X0166750Y0048406D03*
X0124250Y0048406D03*
X0124250Y0041714D03*
X0094750Y0041714D03*
X0094750Y0048406D03*
X0094750Y0185714D03*
X0094750Y0192406D03*
X0124250Y0192406D03*
X0124250Y0185714D03*
X0166750Y0185714D03*
X0166750Y0192406D03*
X0196250Y0192406D03*
X0196250Y0185714D03*
X0052250Y0185714D03*
X0052250Y0192406D03*
X0022750Y0192406D03*
X0022750Y0185714D03*
D13*
X0012250Y0209060D03*
X0062250Y0209060D03*
X0084250Y0209060D03*
X0134250Y0209060D03*
X0156250Y0209060D03*
X0206250Y0209060D03*
X0206250Y0137060D03*
X0156250Y0137060D03*
X0134250Y0137060D03*
X0084250Y0137060D03*
X0062250Y0137060D03*
X0012250Y0137060D03*
X0012250Y0065060D03*
X0062250Y0065060D03*
X0084250Y0065060D03*
X0134250Y0065060D03*
X0156250Y0065060D03*
X0206250Y0065060D03*
D14*
X0206250Y0087060D03*
X0149250Y0072060D03*
X0134250Y0087060D03*
X0149250Y0144060D03*
X0134250Y0159060D03*
X0149250Y0216060D03*
X0206250Y0159060D03*
X0077250Y0144060D03*
X0062250Y0159060D03*
X0077250Y0216060D03*
X0005250Y0216060D03*
X0005250Y0144060D03*
X0062250Y0087060D03*
X0077250Y0072060D03*
X0062250Y0015060D03*
X0005250Y0072060D03*
X0134250Y0015060D03*
X0206250Y0015060D03*
D15*
X0185974Y0040729D03*
X0183612Y0040729D03*
X0181250Y0040729D03*
X0178888Y0040729D03*
X0176526Y0040729D03*
X0176526Y0049391D03*
X0178888Y0049391D03*
X0181250Y0049391D03*
X0183612Y0049391D03*
X0185974Y0049391D03*
X0185974Y0112729D03*
X0183612Y0112729D03*
X0181250Y0112729D03*
X0178888Y0112729D03*
X0176526Y0112729D03*
X0176526Y0121391D03*
X0178888Y0121391D03*
X0181250Y0121391D03*
X0183612Y0121391D03*
X0185974Y0121391D03*
X0185974Y0184729D03*
X0183612Y0184729D03*
X0181250Y0184729D03*
X0178888Y0184729D03*
X0176526Y0184729D03*
X0176526Y0193391D03*
X0178888Y0193391D03*
X0181250Y0193391D03*
X0183612Y0193391D03*
X0185974Y0193391D03*
X0113974Y0193391D03*
X0111612Y0193391D03*
X0109250Y0193391D03*
X0106888Y0193391D03*
X0104526Y0193391D03*
X0104526Y0184729D03*
X0106888Y0184729D03*
X0109250Y0184729D03*
X0111612Y0184729D03*
X0113974Y0184729D03*
X0113974Y0121391D03*
X0111612Y0121391D03*
X0109250Y0121391D03*
X0106888Y0121391D03*
X0104526Y0121391D03*
X0104526Y0112729D03*
X0106888Y0112729D03*
X0109250Y0112729D03*
X0111612Y0112729D03*
X0113974Y0112729D03*
X0113974Y0049391D03*
X0111612Y0049391D03*
X0109250Y0049391D03*
X0106888Y0049391D03*
X0104526Y0049391D03*
X0104526Y0040729D03*
X0106888Y0040729D03*
X0109250Y0040729D03*
X0111612Y0040729D03*
X0113974Y0040729D03*
X0041974Y0040729D03*
X0039612Y0040729D03*
X0037250Y0040729D03*
X0034888Y0040729D03*
X0032526Y0040729D03*
X0032526Y0049391D03*
X0034888Y0049391D03*
X0037250Y0049391D03*
X0039612Y0049391D03*
X0041974Y0049391D03*
X0041974Y0112729D03*
X0039612Y0112729D03*
X0037250Y0112729D03*
X0034888Y0112729D03*
X0032526Y0112729D03*
X0032526Y0121391D03*
X0034888Y0121391D03*
X0037250Y0121391D03*
X0039612Y0121391D03*
X0041974Y0121391D03*
X0041974Y0184729D03*
X0039612Y0184729D03*
X0037250Y0184729D03*
X0034888Y0184729D03*
X0032526Y0184729D03*
X0032526Y0193391D03*
X0034888Y0193391D03*
X0037250Y0193391D03*
X0039612Y0193391D03*
X0041974Y0193391D03*
D16*
X0042073Y0191521D02*
X0042073Y0186599D01*
X0033510Y0186599D01*
X0032427Y0187682D01*
X0032427Y0191521D01*
X0042073Y0191521D01*
X0042073Y0191435D02*
X0032427Y0191435D01*
X0032427Y0191240D02*
X0042073Y0191240D01*
X0042073Y0191044D02*
X0032427Y0191044D01*
X0032427Y0190849D02*
X0042073Y0190849D01*
X0042073Y0190654D02*
X0032427Y0190654D01*
X0032427Y0190458D02*
X0042073Y0190458D01*
X0042073Y0190263D02*
X0032427Y0190263D01*
X0032427Y0190068D02*
X0042073Y0190068D01*
X0042073Y0189872D02*
X0032427Y0189872D01*
X0032427Y0189677D02*
X0042073Y0189677D01*
X0042073Y0189481D02*
X0032427Y0189481D01*
X0032427Y0189286D02*
X0042073Y0189286D01*
X0042073Y0189091D02*
X0032427Y0189091D01*
X0032427Y0188895D02*
X0042073Y0188895D01*
X0042073Y0188700D02*
X0032427Y0188700D01*
X0032427Y0188505D02*
X0042073Y0188505D01*
X0042073Y0188309D02*
X0032427Y0188309D01*
X0032427Y0188114D02*
X0042073Y0188114D01*
X0042073Y0187919D02*
X0032427Y0187919D01*
X0032427Y0187723D02*
X0042073Y0187723D01*
X0042073Y0187528D02*
X0032581Y0187528D01*
X0032777Y0187332D02*
X0042073Y0187332D01*
X0042073Y0187137D02*
X0032972Y0187137D01*
X0033167Y0186942D02*
X0042073Y0186942D01*
X0042073Y0186746D02*
X0033363Y0186746D01*
X0032427Y0119521D02*
X0042073Y0119521D01*
X0042073Y0114599D01*
X0033510Y0114599D01*
X0032427Y0115682D01*
X0032427Y0119521D01*
X0032427Y0119347D02*
X0042073Y0119347D01*
X0042073Y0119151D02*
X0032427Y0119151D01*
X0032427Y0118956D02*
X0042073Y0118956D01*
X0042073Y0118761D02*
X0032427Y0118761D01*
X0032427Y0118565D02*
X0042073Y0118565D01*
X0042073Y0118370D02*
X0032427Y0118370D01*
X0032427Y0118174D02*
X0042073Y0118174D01*
X0042073Y0117979D02*
X0032427Y0117979D01*
X0032427Y0117784D02*
X0042073Y0117784D01*
X0042073Y0117588D02*
X0032427Y0117588D01*
X0032427Y0117393D02*
X0042073Y0117393D01*
X0042073Y0117198D02*
X0032427Y0117198D01*
X0032427Y0117002D02*
X0042073Y0117002D01*
X0042073Y0116807D02*
X0032427Y0116807D01*
X0032427Y0116612D02*
X0042073Y0116612D01*
X0042073Y0116416D02*
X0032427Y0116416D01*
X0032427Y0116221D02*
X0042073Y0116221D01*
X0042073Y0116025D02*
X0032427Y0116025D01*
X0032427Y0115830D02*
X0042073Y0115830D01*
X0042073Y0115635D02*
X0032474Y0115635D01*
X0032670Y0115439D02*
X0042073Y0115439D01*
X0042073Y0115244D02*
X0032865Y0115244D01*
X0033061Y0115049D02*
X0042073Y0115049D01*
X0042073Y0114853D02*
X0033256Y0114853D01*
X0033451Y0114658D02*
X0042073Y0114658D01*
X0104427Y0115682D02*
X0104427Y0119521D01*
X0114073Y0119521D01*
X0114073Y0114599D01*
X0105510Y0114599D01*
X0104427Y0115682D01*
X0104474Y0115635D02*
X0114073Y0115635D01*
X0114073Y0115830D02*
X0104427Y0115830D01*
X0104427Y0116025D02*
X0114073Y0116025D01*
X0114073Y0116221D02*
X0104427Y0116221D01*
X0104427Y0116416D02*
X0114073Y0116416D01*
X0114073Y0116612D02*
X0104427Y0116612D01*
X0104427Y0116807D02*
X0114073Y0116807D01*
X0114073Y0117002D02*
X0104427Y0117002D01*
X0104427Y0117198D02*
X0114073Y0117198D01*
X0114073Y0117393D02*
X0104427Y0117393D01*
X0104427Y0117588D02*
X0114073Y0117588D01*
X0114073Y0117784D02*
X0104427Y0117784D01*
X0104427Y0117979D02*
X0114073Y0117979D01*
X0114073Y0118174D02*
X0104427Y0118174D01*
X0104427Y0118370D02*
X0114073Y0118370D01*
X0114073Y0118565D02*
X0104427Y0118565D01*
X0104427Y0118761D02*
X0114073Y0118761D01*
X0114073Y0118956D02*
X0104427Y0118956D01*
X0104427Y0119151D02*
X0114073Y0119151D01*
X0114073Y0119347D02*
X0104427Y0119347D01*
X0104670Y0115439D02*
X0114073Y0115439D01*
X0114073Y0115244D02*
X0104865Y0115244D01*
X0105061Y0115049D02*
X0114073Y0115049D01*
X0114073Y0114853D02*
X0105256Y0114853D01*
X0105451Y0114658D02*
X0114073Y0114658D01*
X0176427Y0115682D02*
X0177510Y0114599D01*
X0186073Y0114599D01*
X0186073Y0119521D01*
X0176427Y0119521D01*
X0176427Y0115682D01*
X0176474Y0115635D02*
X0186073Y0115635D01*
X0186073Y0115830D02*
X0176427Y0115830D01*
X0176427Y0116025D02*
X0186073Y0116025D01*
X0186073Y0116221D02*
X0176427Y0116221D01*
X0176427Y0116416D02*
X0186073Y0116416D01*
X0186073Y0116612D02*
X0176427Y0116612D01*
X0176427Y0116807D02*
X0186073Y0116807D01*
X0186073Y0117002D02*
X0176427Y0117002D01*
X0176427Y0117198D02*
X0186073Y0117198D01*
X0186073Y0117393D02*
X0176427Y0117393D01*
X0176427Y0117588D02*
X0186073Y0117588D01*
X0186073Y0117784D02*
X0176427Y0117784D01*
X0176427Y0117979D02*
X0186073Y0117979D01*
X0186073Y0118174D02*
X0176427Y0118174D01*
X0176427Y0118370D02*
X0186073Y0118370D01*
X0186073Y0118565D02*
X0176427Y0118565D01*
X0176427Y0118761D02*
X0186073Y0118761D01*
X0186073Y0118956D02*
X0176427Y0118956D01*
X0176427Y0119151D02*
X0186073Y0119151D01*
X0186073Y0119347D02*
X0176427Y0119347D01*
X0176670Y0115439D02*
X0186073Y0115439D01*
X0186073Y0115244D02*
X0176865Y0115244D01*
X0177061Y0115049D02*
X0186073Y0115049D01*
X0186073Y0114853D02*
X0177256Y0114853D01*
X0177451Y0114658D02*
X0186073Y0114658D01*
X0186073Y0047521D02*
X0176427Y0047521D01*
X0176427Y0043682D01*
X0177510Y0042599D01*
X0186073Y0042599D01*
X0186073Y0047521D01*
X0186073Y0047453D02*
X0176427Y0047453D01*
X0176427Y0047258D02*
X0186073Y0047258D01*
X0186073Y0047063D02*
X0176427Y0047063D01*
X0176427Y0046867D02*
X0186073Y0046867D01*
X0186073Y0046672D02*
X0176427Y0046672D01*
X0176427Y0046477D02*
X0186073Y0046477D01*
X0186073Y0046281D02*
X0176427Y0046281D01*
X0176427Y0046086D02*
X0186073Y0046086D01*
X0186073Y0045891D02*
X0176427Y0045891D01*
X0176427Y0045695D02*
X0186073Y0045695D01*
X0186073Y0045500D02*
X0176427Y0045500D01*
X0176427Y0045305D02*
X0186073Y0045305D01*
X0186073Y0045109D02*
X0176427Y0045109D01*
X0176427Y0044914D02*
X0186073Y0044914D01*
X0186073Y0044718D02*
X0176427Y0044718D01*
X0176427Y0044523D02*
X0186073Y0044523D01*
X0186073Y0044328D02*
X0176427Y0044328D01*
X0176427Y0044132D02*
X0186073Y0044132D01*
X0186073Y0043937D02*
X0176427Y0043937D01*
X0176427Y0043742D02*
X0186073Y0043742D01*
X0186073Y0043546D02*
X0176563Y0043546D01*
X0176758Y0043351D02*
X0186073Y0043351D01*
X0186073Y0043156D02*
X0176954Y0043156D01*
X0177149Y0042960D02*
X0186073Y0042960D01*
X0186073Y0042765D02*
X0177344Y0042765D01*
X0114073Y0042765D02*
X0105344Y0042765D01*
X0105510Y0042599D02*
X0104427Y0043682D01*
X0104427Y0047521D01*
X0114073Y0047521D01*
X0114073Y0042599D01*
X0105510Y0042599D01*
X0105149Y0042960D02*
X0114073Y0042960D01*
X0114073Y0043156D02*
X0104954Y0043156D01*
X0104758Y0043351D02*
X0114073Y0043351D01*
X0114073Y0043546D02*
X0104563Y0043546D01*
X0104427Y0043742D02*
X0114073Y0043742D01*
X0114073Y0043937D02*
X0104427Y0043937D01*
X0104427Y0044132D02*
X0114073Y0044132D01*
X0114073Y0044328D02*
X0104427Y0044328D01*
X0104427Y0044523D02*
X0114073Y0044523D01*
X0114073Y0044718D02*
X0104427Y0044718D01*
X0104427Y0044914D02*
X0114073Y0044914D01*
X0114073Y0045109D02*
X0104427Y0045109D01*
X0104427Y0045305D02*
X0114073Y0045305D01*
X0114073Y0045500D02*
X0104427Y0045500D01*
X0104427Y0045695D02*
X0114073Y0045695D01*
X0114073Y0045891D02*
X0104427Y0045891D01*
X0104427Y0046086D02*
X0114073Y0046086D01*
X0114073Y0046281D02*
X0104427Y0046281D01*
X0104427Y0046477D02*
X0114073Y0046477D01*
X0114073Y0046672D02*
X0104427Y0046672D01*
X0104427Y0046867D02*
X0114073Y0046867D01*
X0114073Y0047063D02*
X0104427Y0047063D01*
X0104427Y0047258D02*
X0114073Y0047258D01*
X0114073Y0047453D02*
X0104427Y0047453D01*
X0042073Y0047453D02*
X0032427Y0047453D01*
X0032427Y0047521D02*
X0042073Y0047521D01*
X0042073Y0042599D01*
X0033510Y0042599D01*
X0032427Y0043682D01*
X0032427Y0047521D01*
X0032427Y0047258D02*
X0042073Y0047258D01*
X0042073Y0047063D02*
X0032427Y0047063D01*
X0032427Y0046867D02*
X0042073Y0046867D01*
X0042073Y0046672D02*
X0032427Y0046672D01*
X0032427Y0046477D02*
X0042073Y0046477D01*
X0042073Y0046281D02*
X0032427Y0046281D01*
X0032427Y0046086D02*
X0042073Y0046086D01*
X0042073Y0045891D02*
X0032427Y0045891D01*
X0032427Y0045695D02*
X0042073Y0045695D01*
X0042073Y0045500D02*
X0032427Y0045500D01*
X0032427Y0045305D02*
X0042073Y0045305D01*
X0042073Y0045109D02*
X0032427Y0045109D01*
X0032427Y0044914D02*
X0042073Y0044914D01*
X0042073Y0044718D02*
X0032427Y0044718D01*
X0032427Y0044523D02*
X0042073Y0044523D01*
X0042073Y0044328D02*
X0032427Y0044328D01*
X0032427Y0044132D02*
X0042073Y0044132D01*
X0042073Y0043937D02*
X0032427Y0043937D01*
X0032427Y0043742D02*
X0042073Y0043742D01*
X0042073Y0043546D02*
X0032563Y0043546D01*
X0032758Y0043351D02*
X0042073Y0043351D01*
X0042073Y0043156D02*
X0032954Y0043156D01*
X0033149Y0042960D02*
X0042073Y0042960D01*
X0042073Y0042765D02*
X0033344Y0042765D01*
X0105510Y0186599D02*
X0104427Y0187682D01*
X0104427Y0191521D01*
X0114073Y0191521D01*
X0114073Y0186599D01*
X0105510Y0186599D01*
X0105363Y0186746D02*
X0114073Y0186746D01*
X0114073Y0186942D02*
X0105167Y0186942D01*
X0104972Y0187137D02*
X0114073Y0187137D01*
X0114073Y0187332D02*
X0104777Y0187332D01*
X0104581Y0187528D02*
X0114073Y0187528D01*
X0114073Y0187723D02*
X0104427Y0187723D01*
X0104427Y0187919D02*
X0114073Y0187919D01*
X0114073Y0188114D02*
X0104427Y0188114D01*
X0104427Y0188309D02*
X0114073Y0188309D01*
X0114073Y0188505D02*
X0104427Y0188505D01*
X0104427Y0188700D02*
X0114073Y0188700D01*
X0114073Y0188895D02*
X0104427Y0188895D01*
X0104427Y0189091D02*
X0114073Y0189091D01*
X0114073Y0189286D02*
X0104427Y0189286D01*
X0104427Y0189481D02*
X0114073Y0189481D01*
X0114073Y0189677D02*
X0104427Y0189677D01*
X0104427Y0189872D02*
X0114073Y0189872D01*
X0114073Y0190068D02*
X0104427Y0190068D01*
X0104427Y0190263D02*
X0114073Y0190263D01*
X0114073Y0190458D02*
X0104427Y0190458D01*
X0104427Y0190654D02*
X0114073Y0190654D01*
X0114073Y0190849D02*
X0104427Y0190849D01*
X0104427Y0191044D02*
X0114073Y0191044D01*
X0114073Y0191240D02*
X0104427Y0191240D01*
X0104427Y0191435D02*
X0114073Y0191435D01*
X0176427Y0191435D02*
X0186073Y0191435D01*
X0186073Y0191521D02*
X0186073Y0186599D01*
X0177510Y0186599D01*
X0176427Y0187682D01*
X0176427Y0191521D01*
X0186073Y0191521D01*
X0186073Y0191240D02*
X0176427Y0191240D01*
X0176427Y0191044D02*
X0186073Y0191044D01*
X0186073Y0190849D02*
X0176427Y0190849D01*
X0176427Y0190654D02*
X0186073Y0190654D01*
X0186073Y0190458D02*
X0176427Y0190458D01*
X0176427Y0190263D02*
X0186073Y0190263D01*
X0186073Y0190068D02*
X0176427Y0190068D01*
X0176427Y0189872D02*
X0186073Y0189872D01*
X0186073Y0189677D02*
X0176427Y0189677D01*
X0176427Y0189481D02*
X0186073Y0189481D01*
X0186073Y0189286D02*
X0176427Y0189286D01*
X0176427Y0189091D02*
X0186073Y0189091D01*
X0186073Y0188895D02*
X0176427Y0188895D01*
X0176427Y0188700D02*
X0186073Y0188700D01*
X0186073Y0188505D02*
X0176427Y0188505D01*
X0176427Y0188309D02*
X0186073Y0188309D01*
X0186073Y0188114D02*
X0176427Y0188114D01*
X0176427Y0187919D02*
X0186073Y0187919D01*
X0186073Y0187723D02*
X0176427Y0187723D01*
X0176581Y0187528D02*
X0186073Y0187528D01*
X0186073Y0187332D02*
X0176777Y0187332D01*
X0176972Y0187137D02*
X0186073Y0187137D01*
X0186073Y0186942D02*
X0177167Y0186942D01*
X0177363Y0186746D02*
X0186073Y0186746D01*
D17*
X0189250Y0189060D03*
X0191250Y0181060D03*
X0196250Y0169060D03*
X0186250Y0164060D03*
X0171250Y0179060D03*
X0166750Y0179060D03*
X0161250Y0174060D03*
X0151250Y0179060D03*
X0151250Y0199060D03*
X0163250Y0200560D03*
X0171250Y0199060D03*
X0171250Y0203060D03*
X0181250Y0197560D03*
X0188750Y0197560D03*
X0196250Y0201560D03*
X0171250Y0131060D03*
X0171250Y0127060D03*
X0163250Y0128560D03*
X0151250Y0127060D03*
X0151250Y0107060D03*
X0161250Y0102060D03*
X0166750Y0107060D03*
X0171250Y0107060D03*
X0186250Y0092060D03*
X0196250Y0097060D03*
X0191250Y0109060D03*
X0189250Y0117060D03*
X0188750Y0125560D03*
X0196250Y0129560D03*
X0181250Y0125560D03*
X0124250Y0129560D03*
X0116750Y0125560D03*
X0109250Y0125560D03*
X0099250Y0127060D03*
X0099250Y0131060D03*
X0091250Y0128560D03*
X0079250Y0127060D03*
X0079250Y0107060D03*
X0089250Y0102060D03*
X0094750Y0107060D03*
X0099250Y0107060D03*
X0114250Y0092060D03*
X0124250Y0097060D03*
X0119250Y0109060D03*
X0117250Y0117060D03*
X0114250Y0164060D03*
X0124250Y0169060D03*
X0119250Y0181060D03*
X0117250Y0189060D03*
X0116750Y0197560D03*
X0124250Y0201560D03*
X0109250Y0197560D03*
X0099250Y0199060D03*
X0099250Y0203060D03*
X0091250Y0200560D03*
X0079250Y0199060D03*
X0079250Y0179060D03*
X0089250Y0174060D03*
X0094750Y0179060D03*
X0099250Y0179060D03*
X0052250Y0169060D03*
X0042250Y0164060D03*
X0047250Y0181060D03*
X0045250Y0189060D03*
X0044750Y0197560D03*
X0052250Y0201560D03*
X0037250Y0197560D03*
X0027250Y0199060D03*
X0027250Y0203060D03*
X0019250Y0200560D03*
X0007250Y0199060D03*
X0007250Y0179060D03*
X0017250Y0174060D03*
X0022750Y0179060D03*
X0027250Y0179060D03*
X0027250Y0131060D03*
X0027250Y0127060D03*
X0019250Y0128560D03*
X0007250Y0127060D03*
X0007250Y0107060D03*
X0017250Y0102060D03*
X0022750Y0107060D03*
X0027250Y0107060D03*
X0042250Y0092060D03*
X0052250Y0097060D03*
X0047250Y0109060D03*
X0045250Y0117060D03*
X0044750Y0125560D03*
X0052250Y0129560D03*
X0037250Y0125560D03*
X0027250Y0059060D03*
X0027250Y0055060D03*
X0019250Y0056560D03*
X0007250Y0055060D03*
X0007250Y0035060D03*
X0017250Y0030060D03*
X0022750Y0035060D03*
X0027250Y0035060D03*
X0042250Y0020060D03*
X0052250Y0025060D03*
X0047250Y0037060D03*
X0045250Y0045060D03*
X0044750Y0053560D03*
X0052250Y0057560D03*
X0037250Y0053560D03*
X0079250Y0055060D03*
X0091250Y0056560D03*
X0099250Y0055060D03*
X0099250Y0059060D03*
X0109250Y0053560D03*
X0116750Y0053560D03*
X0124250Y0057560D03*
X0117250Y0045060D03*
X0119250Y0037060D03*
X0124250Y0025060D03*
X0114250Y0020060D03*
X0099250Y0035060D03*
X0094750Y0035060D03*
X0089250Y0030060D03*
X0079250Y0035060D03*
X0151250Y0035060D03*
X0161250Y0030060D03*
X0166750Y0035060D03*
X0171250Y0035060D03*
X0186250Y0020060D03*
X0196250Y0025060D03*
X0191250Y0037060D03*
X0189250Y0045060D03*
X0188750Y0053560D03*
X0196250Y0057560D03*
X0181250Y0053560D03*
X0171250Y0055060D03*
X0171250Y0059060D03*
X0163250Y0056560D03*
X0151250Y0055060D03*
M02*
