G75*
%MOIN*%
%OFA0B0*%
%FSLAX25Y25*%
%IPPOS*%
%LPD*%
%AMOC8*
5,1,8,0,0,1.08239X$1,22.5*
%
%ADD10C,0.00600*%
%ADD11C,0.00700*%
%ADD12C,0.00800*%
%ADD13C,0.02007*%
%ADD14C,0.00500*%
D10*
X0004350Y0016060D02*
X0004350Y0027109D01*
X0005547Y0025995D02*
X0005547Y0023726D01*
X0005547Y0024861D02*
X0008950Y0024861D01*
X0008383Y0022312D02*
X0008950Y0021745D01*
X0008950Y0020610D01*
X0008383Y0020043D01*
X0007249Y0020610D02*
X0007249Y0021745D01*
X0007816Y0022312D01*
X0008383Y0022312D01*
X0007249Y0020610D02*
X0006681Y0020043D01*
X0006114Y0020043D01*
X0005547Y0020610D01*
X0005547Y0021745D01*
X0006114Y0022312D01*
X0006114Y0018629D02*
X0007249Y0018629D01*
X0007816Y0018061D01*
X0007816Y0016360D01*
X0008950Y0016360D02*
X0005547Y0016360D01*
X0005547Y0018061D01*
X0006114Y0018629D01*
X0007816Y0017494D02*
X0008950Y0018629D01*
X0014350Y0016060D02*
X0014350Y0025882D01*
X0015547Y0024767D02*
X0015547Y0022499D01*
X0015547Y0023633D02*
X0018950Y0023633D01*
X0018950Y0021084D02*
X0015547Y0021084D01*
X0015547Y0018815D02*
X0018950Y0021084D01*
X0018950Y0018815D02*
X0015547Y0018815D01*
X0015547Y0017494D02*
X0015547Y0016360D01*
X0015547Y0016927D02*
X0018950Y0016927D01*
X0018950Y0016360D02*
X0018950Y0017494D01*
X0024350Y0016060D02*
X0024350Y0027109D01*
X0025547Y0025995D02*
X0027816Y0023726D01*
X0027249Y0024293D02*
X0028950Y0025995D01*
X0028950Y0023726D02*
X0025547Y0023726D01*
X0026681Y0022312D02*
X0025547Y0021177D01*
X0026681Y0020043D01*
X0028950Y0020043D01*
X0028950Y0018629D02*
X0025547Y0018629D01*
X0027249Y0020043D02*
X0027249Y0022312D01*
X0026681Y0022312D02*
X0028950Y0022312D01*
X0028950Y0018629D02*
X0027816Y0017494D01*
X0028950Y0016360D01*
X0025547Y0016360D01*
X0035547Y0016927D02*
X0036114Y0016360D01*
X0036681Y0016360D01*
X0037249Y0016927D01*
X0037249Y0018061D01*
X0037816Y0018629D01*
X0038383Y0018629D01*
X0038950Y0018061D01*
X0038950Y0016927D01*
X0038383Y0016360D01*
X0035547Y0016927D02*
X0035547Y0018061D01*
X0036114Y0018629D01*
X0036114Y0020043D02*
X0038383Y0020043D01*
X0038950Y0020610D01*
X0038950Y0021745D01*
X0038383Y0022312D01*
X0038950Y0023726D02*
X0038950Y0025995D01*
X0038950Y0023726D02*
X0035547Y0023726D01*
X0036114Y0022312D02*
X0035547Y0021745D01*
X0035547Y0020610D01*
X0036114Y0020043D01*
X0045547Y0020043D02*
X0045547Y0021745D01*
X0046114Y0022312D01*
X0048383Y0022312D01*
X0048950Y0021745D01*
X0048950Y0020043D01*
X0045547Y0020043D01*
X0046114Y0018629D02*
X0045547Y0018061D01*
X0045547Y0016927D01*
X0046114Y0016360D01*
X0046681Y0016360D01*
X0047249Y0016927D01*
X0047249Y0018061D01*
X0047816Y0018629D01*
X0048383Y0018629D01*
X0048950Y0018061D01*
X0048950Y0016927D01*
X0048383Y0016360D01*
X0055547Y0016927D02*
X0055547Y0018061D01*
X0056114Y0018629D01*
X0056681Y0018629D01*
X0057249Y0018061D01*
X0057816Y0018629D01*
X0058383Y0018629D01*
X0058950Y0018061D01*
X0058950Y0016927D01*
X0058383Y0016360D01*
X0057249Y0017494D02*
X0057249Y0018061D01*
X0056114Y0016360D02*
X0055547Y0016927D01*
X0058383Y0020043D02*
X0058383Y0020610D01*
X0058950Y0020610D01*
X0058950Y0020043D01*
X0058383Y0020043D01*
X0058383Y0021885D02*
X0058950Y0022452D01*
X0058950Y0023586D01*
X0058383Y0024153D01*
X0057816Y0024153D01*
X0057249Y0023586D01*
X0057249Y0023019D01*
X0057249Y0023586D02*
X0056681Y0024153D01*
X0056114Y0024153D01*
X0055547Y0023586D01*
X0055547Y0022452D01*
X0056114Y0021885D01*
X0055547Y0025568D02*
X0057816Y0025568D01*
X0058950Y0026702D01*
X0057816Y0027836D01*
X0055547Y0027836D01*
X0048950Y0025995D02*
X0046681Y0025995D01*
X0045547Y0024861D01*
X0046681Y0023726D01*
X0048950Y0023726D01*
X0047249Y0023726D02*
X0047249Y0025995D01*
X0065547Y0025428D02*
X0065547Y0023726D01*
X0068950Y0023726D01*
X0068950Y0025428D01*
X0068383Y0025995D01*
X0066114Y0025995D01*
X0065547Y0025428D01*
X0065547Y0022312D02*
X0068950Y0022312D01*
X0065547Y0020043D01*
X0068950Y0020043D01*
X0068383Y0018629D02*
X0067249Y0018629D01*
X0067249Y0017494D01*
X0068383Y0016360D02*
X0066114Y0016360D01*
X0065547Y0016927D01*
X0065547Y0018061D01*
X0066114Y0018629D01*
X0068383Y0018629D02*
X0068950Y0018061D01*
X0068950Y0016927D01*
X0068383Y0016360D01*
X0075350Y0016060D02*
X0075350Y0027109D01*
X0076547Y0025995D02*
X0076547Y0023726D01*
X0076547Y0024861D02*
X0079950Y0024861D01*
X0079383Y0022312D02*
X0079950Y0021745D01*
X0079950Y0020610D01*
X0079383Y0020043D01*
X0078249Y0020610D02*
X0078249Y0021745D01*
X0078816Y0022312D01*
X0079383Y0022312D01*
X0078249Y0020610D02*
X0077681Y0020043D01*
X0077114Y0020043D01*
X0076547Y0020610D01*
X0076547Y0021745D01*
X0077114Y0022312D01*
X0077114Y0018629D02*
X0078249Y0018629D01*
X0078816Y0018061D01*
X0078816Y0016360D01*
X0079950Y0016360D02*
X0076547Y0016360D01*
X0076547Y0018061D01*
X0077114Y0018629D01*
X0078816Y0017494D02*
X0079950Y0018629D01*
X0085350Y0016060D02*
X0085350Y0025882D01*
X0086547Y0024767D02*
X0086547Y0022499D01*
X0086547Y0023633D02*
X0089950Y0023633D01*
X0089950Y0021084D02*
X0086547Y0021084D01*
X0086547Y0018815D02*
X0089950Y0021084D01*
X0089950Y0018815D02*
X0086547Y0018815D01*
X0086547Y0017494D02*
X0086547Y0016360D01*
X0086547Y0016927D02*
X0089950Y0016927D01*
X0089950Y0016360D02*
X0089950Y0017494D01*
X0095350Y0016060D02*
X0095350Y0027109D01*
X0096547Y0025995D02*
X0098816Y0023726D01*
X0098249Y0024293D02*
X0099950Y0025995D01*
X0099950Y0023726D02*
X0096547Y0023726D01*
X0097681Y0022312D02*
X0099950Y0022312D01*
X0098249Y0022312D02*
X0098249Y0020043D01*
X0097681Y0020043D02*
X0096547Y0021177D01*
X0097681Y0022312D01*
X0097681Y0020043D02*
X0099950Y0020043D01*
X0099950Y0018629D02*
X0096547Y0018629D01*
X0096547Y0016360D02*
X0099950Y0016360D01*
X0098816Y0017494D01*
X0099950Y0018629D01*
X0106547Y0018061D02*
X0106547Y0016927D01*
X0107114Y0016360D01*
X0107681Y0016360D01*
X0108249Y0016927D01*
X0108249Y0018061D01*
X0108816Y0018629D01*
X0109383Y0018629D01*
X0109950Y0018061D01*
X0109950Y0016927D01*
X0109383Y0016360D01*
X0107114Y0018629D02*
X0106547Y0018061D01*
X0107114Y0020043D02*
X0109383Y0020043D01*
X0109950Y0020610D01*
X0109950Y0021745D01*
X0109383Y0022312D01*
X0109950Y0023726D02*
X0109950Y0025995D01*
X0109950Y0023726D02*
X0106547Y0023726D01*
X0107114Y0022312D02*
X0106547Y0021745D01*
X0106547Y0020610D01*
X0107114Y0020043D01*
X0116547Y0020043D02*
X0116547Y0021745D01*
X0117114Y0022312D01*
X0119383Y0022312D01*
X0119950Y0021745D01*
X0119950Y0020043D01*
X0116547Y0020043D01*
X0117114Y0018629D02*
X0116547Y0018061D01*
X0116547Y0016927D01*
X0117114Y0016360D01*
X0117681Y0016360D01*
X0118249Y0016927D01*
X0118249Y0018061D01*
X0118816Y0018629D01*
X0119383Y0018629D01*
X0119950Y0018061D01*
X0119950Y0016927D01*
X0119383Y0016360D01*
X0119950Y0023726D02*
X0117681Y0023726D01*
X0116547Y0024861D01*
X0117681Y0025995D01*
X0119950Y0025995D01*
X0118249Y0025995D02*
X0118249Y0023726D01*
X0126547Y0023586D02*
X0127114Y0024153D01*
X0127681Y0024153D01*
X0128249Y0023586D01*
X0128816Y0024153D01*
X0129383Y0024153D01*
X0129950Y0023586D01*
X0129950Y0022452D01*
X0129383Y0021885D01*
X0129383Y0020610D02*
X0129950Y0020610D01*
X0129950Y0020043D01*
X0129383Y0020043D01*
X0129383Y0020610D01*
X0129383Y0018629D02*
X0129950Y0018061D01*
X0129950Y0016927D01*
X0129383Y0016360D01*
X0128249Y0017494D02*
X0128249Y0018061D01*
X0128816Y0018629D01*
X0129383Y0018629D01*
X0128249Y0018061D02*
X0127681Y0018629D01*
X0127114Y0018629D01*
X0126547Y0018061D01*
X0126547Y0016927D01*
X0127114Y0016360D01*
X0127114Y0021885D02*
X0126547Y0022452D01*
X0126547Y0023586D01*
X0128249Y0023586D02*
X0128249Y0023019D01*
X0128816Y0025568D02*
X0126547Y0025568D01*
X0126547Y0027836D02*
X0128816Y0027836D01*
X0129950Y0026702D01*
X0128816Y0025568D01*
X0136547Y0025428D02*
X0136547Y0023726D01*
X0139950Y0023726D01*
X0139950Y0025428D01*
X0139383Y0025995D01*
X0137114Y0025995D01*
X0136547Y0025428D01*
X0136547Y0022312D02*
X0139950Y0022312D01*
X0136547Y0020043D01*
X0139950Y0020043D01*
X0139383Y0018629D02*
X0138249Y0018629D01*
X0138249Y0017494D01*
X0139383Y0016360D02*
X0137114Y0016360D01*
X0136547Y0016927D01*
X0136547Y0018061D01*
X0137114Y0018629D01*
X0139383Y0018629D02*
X0139950Y0018061D01*
X0139950Y0016927D01*
X0139383Y0016360D01*
X0146350Y0016060D02*
X0146350Y0027109D01*
X0147547Y0025995D02*
X0147547Y0023726D01*
X0147547Y0024861D02*
X0150950Y0024861D01*
X0150383Y0022312D02*
X0149816Y0022312D01*
X0149249Y0021745D01*
X0149249Y0020610D01*
X0148681Y0020043D01*
X0148114Y0020043D01*
X0147547Y0020610D01*
X0147547Y0021745D01*
X0148114Y0022312D01*
X0150383Y0022312D02*
X0150950Y0021745D01*
X0150950Y0020610D01*
X0150383Y0020043D01*
X0150950Y0018629D02*
X0149816Y0017494D01*
X0149816Y0018061D02*
X0149816Y0016360D01*
X0150950Y0016360D02*
X0147547Y0016360D01*
X0147547Y0018061D01*
X0148114Y0018629D01*
X0149249Y0018629D01*
X0149816Y0018061D01*
X0156350Y0016060D02*
X0156350Y0025882D01*
X0157547Y0024767D02*
X0157547Y0022499D01*
X0157547Y0023633D02*
X0160950Y0023633D01*
X0160950Y0021084D02*
X0157547Y0021084D01*
X0157547Y0018815D02*
X0160950Y0021084D01*
X0160950Y0018815D02*
X0157547Y0018815D01*
X0157547Y0017494D02*
X0157547Y0016360D01*
X0157547Y0016927D02*
X0160950Y0016927D01*
X0160950Y0016360D02*
X0160950Y0017494D01*
X0166350Y0016060D02*
X0166350Y0027109D01*
X0167547Y0025995D02*
X0169816Y0023726D01*
X0169249Y0024293D02*
X0170950Y0025995D01*
X0170950Y0023726D02*
X0167547Y0023726D01*
X0168681Y0022312D02*
X0170950Y0022312D01*
X0169249Y0022312D02*
X0169249Y0020043D01*
X0168681Y0020043D02*
X0167547Y0021177D01*
X0168681Y0022312D01*
X0168681Y0020043D02*
X0170950Y0020043D01*
X0170950Y0018629D02*
X0167547Y0018629D01*
X0167547Y0016360D02*
X0170950Y0016360D01*
X0169816Y0017494D01*
X0170950Y0018629D01*
X0177547Y0018061D02*
X0177547Y0016927D01*
X0178114Y0016360D01*
X0178681Y0016360D01*
X0179249Y0016927D01*
X0179249Y0018061D01*
X0179816Y0018629D01*
X0180383Y0018629D01*
X0180950Y0018061D01*
X0180950Y0016927D01*
X0180383Y0016360D01*
X0178114Y0018629D02*
X0177547Y0018061D01*
X0178114Y0020043D02*
X0180383Y0020043D01*
X0180950Y0020610D01*
X0180950Y0021745D01*
X0180383Y0022312D01*
X0180950Y0023726D02*
X0180950Y0025995D01*
X0180950Y0023726D02*
X0177547Y0023726D01*
X0178114Y0022312D02*
X0177547Y0021745D01*
X0177547Y0020610D01*
X0178114Y0020043D01*
X0187547Y0020043D02*
X0187547Y0021745D01*
X0188114Y0022312D01*
X0190383Y0022312D01*
X0190950Y0021745D01*
X0190950Y0020043D01*
X0187547Y0020043D01*
X0188114Y0018629D02*
X0187547Y0018061D01*
X0187547Y0016927D01*
X0188114Y0016360D01*
X0188681Y0016360D01*
X0189249Y0016927D01*
X0189249Y0018061D01*
X0189816Y0018629D01*
X0190383Y0018629D01*
X0190950Y0018061D01*
X0190950Y0016927D01*
X0190383Y0016360D01*
X0197547Y0016927D02*
X0197547Y0018061D01*
X0198114Y0018629D01*
X0198681Y0018629D01*
X0199249Y0018061D01*
X0199816Y0018629D01*
X0200383Y0018629D01*
X0200950Y0018061D01*
X0200950Y0016927D01*
X0200383Y0016360D01*
X0199249Y0017494D02*
X0199249Y0018061D01*
X0198114Y0016360D02*
X0197547Y0016927D01*
X0200383Y0020043D02*
X0200383Y0020610D01*
X0200950Y0020610D01*
X0200950Y0020043D01*
X0200383Y0020043D01*
X0200383Y0021885D02*
X0200950Y0022452D01*
X0200950Y0023586D01*
X0200383Y0024153D01*
X0199816Y0024153D01*
X0199249Y0023586D01*
X0199249Y0023019D01*
X0199249Y0023586D02*
X0198681Y0024153D01*
X0198114Y0024153D01*
X0197547Y0023586D01*
X0197547Y0022452D01*
X0198114Y0021885D01*
X0197547Y0025568D02*
X0199816Y0025568D01*
X0200950Y0026702D01*
X0199816Y0027836D01*
X0197547Y0027836D01*
X0190950Y0025995D02*
X0188681Y0025995D01*
X0187547Y0024861D01*
X0188681Y0023726D01*
X0190950Y0023726D01*
X0189249Y0023726D02*
X0189249Y0025995D01*
X0207547Y0025428D02*
X0207547Y0023726D01*
X0210950Y0023726D01*
X0210950Y0025428D01*
X0210383Y0025995D01*
X0208114Y0025995D01*
X0207547Y0025428D01*
X0207547Y0022312D02*
X0210950Y0022312D01*
X0207547Y0020043D01*
X0210950Y0020043D01*
X0210383Y0018629D02*
X0209249Y0018629D01*
X0209249Y0017494D01*
X0210383Y0016360D02*
X0210950Y0016927D01*
X0210950Y0018061D01*
X0210383Y0018629D01*
X0208114Y0018629D02*
X0207547Y0018061D01*
X0207547Y0016927D01*
X0208114Y0016360D01*
X0210383Y0016360D01*
X0209047Y0040335D02*
X0212450Y0042604D01*
X0209047Y0042604D01*
X0209047Y0044018D02*
X0209047Y0046287D01*
X0209047Y0045153D02*
X0212450Y0045153D01*
X0211883Y0047702D02*
X0209614Y0047702D01*
X0209047Y0048269D01*
X0209047Y0049403D01*
X0209614Y0049970D01*
X0211883Y0049970D02*
X0212450Y0049403D01*
X0212450Y0048269D01*
X0211883Y0047702D01*
X0212450Y0040335D02*
X0209047Y0040335D01*
X0195563Y0060726D02*
X0194996Y0060726D01*
X0195563Y0060726D02*
X0196130Y0061293D01*
X0196130Y0064129D01*
X0193862Y0064129D02*
X0193862Y0062427D01*
X0194429Y0061860D01*
X0196130Y0061860D01*
X0192541Y0061860D02*
X0191973Y0062427D01*
X0191973Y0064696D01*
X0191406Y0064129D02*
X0192541Y0064129D01*
X0189518Y0064129D02*
X0189518Y0061860D01*
X0188951Y0061860D02*
X0190085Y0061860D01*
X0189518Y0064129D02*
X0188951Y0064129D01*
X0189518Y0065263D02*
X0189518Y0065830D01*
X0187063Y0065263D02*
X0187063Y0061860D01*
X0187630Y0061860D02*
X0186495Y0061860D01*
X0185081Y0061860D02*
X0183379Y0061860D01*
X0182812Y0062427D01*
X0183379Y0062994D01*
X0185081Y0062994D01*
X0185081Y0063561D02*
X0185081Y0061860D01*
X0185081Y0063561D02*
X0184514Y0064129D01*
X0183379Y0064129D01*
X0181398Y0064129D02*
X0181398Y0061860D01*
X0179696Y0061860D01*
X0179129Y0062427D01*
X0179129Y0064129D01*
X0177715Y0064696D02*
X0177715Y0062427D01*
X0177148Y0061860D01*
X0176013Y0061860D01*
X0175446Y0062427D01*
X0175446Y0064696D01*
X0176013Y0065263D01*
X0177148Y0065263D01*
X0177715Y0064696D01*
X0176580Y0062994D02*
X0177715Y0061860D01*
X0170395Y0064129D02*
X0169828Y0064129D01*
X0168694Y0062994D01*
X0168694Y0061860D02*
X0168694Y0064129D01*
X0166805Y0064129D02*
X0166805Y0061860D01*
X0166238Y0061860D02*
X0167373Y0061860D01*
X0166805Y0064129D02*
X0166238Y0064129D01*
X0166805Y0065263D02*
X0166805Y0065830D01*
X0164824Y0064129D02*
X0164824Y0061860D01*
X0164824Y0063561D02*
X0162555Y0063561D01*
X0162555Y0064129D02*
X0162555Y0061860D01*
X0162555Y0064129D02*
X0163689Y0065263D01*
X0164824Y0064129D01*
X0186495Y0065263D02*
X0187063Y0065263D01*
X0188114Y0087360D02*
X0188681Y0087360D01*
X0189249Y0087927D01*
X0189249Y0089061D01*
X0189816Y0089629D01*
X0190383Y0089629D01*
X0190950Y0089061D01*
X0190950Y0087927D01*
X0190383Y0087360D01*
X0188114Y0087360D02*
X0187547Y0087927D01*
X0187547Y0089061D01*
X0188114Y0089629D01*
X0187547Y0091043D02*
X0187547Y0092745D01*
X0188114Y0093312D01*
X0190383Y0093312D01*
X0190950Y0092745D01*
X0190950Y0091043D01*
X0187547Y0091043D01*
X0188681Y0094726D02*
X0187547Y0095861D01*
X0188681Y0096995D01*
X0190950Y0096995D01*
X0189249Y0096995D02*
X0189249Y0094726D01*
X0188681Y0094726D02*
X0190950Y0094726D01*
X0197547Y0094586D02*
X0197547Y0093452D01*
X0198114Y0092885D01*
X0199249Y0094019D02*
X0199249Y0094586D01*
X0199816Y0095153D01*
X0200383Y0095153D01*
X0200950Y0094586D01*
X0200950Y0093452D01*
X0200383Y0092885D01*
X0200383Y0091610D02*
X0200950Y0091610D01*
X0200950Y0091043D01*
X0200383Y0091043D01*
X0200383Y0091610D01*
X0200383Y0089629D02*
X0199816Y0089629D01*
X0199249Y0089061D01*
X0199249Y0088494D01*
X0199249Y0089061D02*
X0198681Y0089629D01*
X0198114Y0089629D01*
X0197547Y0089061D01*
X0197547Y0087927D01*
X0198114Y0087360D01*
X0200383Y0087360D02*
X0200950Y0087927D01*
X0200950Y0089061D01*
X0200383Y0089629D01*
X0199249Y0094586D02*
X0198681Y0095153D01*
X0198114Y0095153D01*
X0197547Y0094586D01*
X0197547Y0096568D02*
X0199816Y0096568D01*
X0200950Y0097702D01*
X0199816Y0098836D01*
X0197547Y0098836D01*
X0207547Y0096428D02*
X0207547Y0094726D01*
X0210950Y0094726D01*
X0210950Y0096428D01*
X0210383Y0096995D01*
X0208114Y0096995D01*
X0207547Y0096428D01*
X0207547Y0093312D02*
X0210950Y0093312D01*
X0207547Y0091043D01*
X0210950Y0091043D01*
X0210383Y0089629D02*
X0209249Y0089629D01*
X0209249Y0088494D01*
X0210383Y0087360D02*
X0208114Y0087360D01*
X0207547Y0087927D01*
X0207547Y0089061D01*
X0208114Y0089629D01*
X0210383Y0089629D02*
X0210950Y0089061D01*
X0210950Y0087927D01*
X0210383Y0087360D01*
X0209047Y0111335D02*
X0212450Y0113604D01*
X0209047Y0113604D01*
X0209047Y0115018D02*
X0209047Y0117287D01*
X0209047Y0116153D02*
X0212450Y0116153D01*
X0211883Y0118702D02*
X0209614Y0118702D01*
X0209047Y0119269D01*
X0209047Y0120403D01*
X0209614Y0120970D01*
X0211883Y0120970D02*
X0212450Y0120403D01*
X0212450Y0119269D01*
X0211883Y0118702D01*
X0212450Y0111335D02*
X0209047Y0111335D01*
X0195563Y0131726D02*
X0194996Y0131726D01*
X0195563Y0131726D02*
X0196130Y0132293D01*
X0196130Y0135129D01*
X0193862Y0135129D02*
X0193862Y0133427D01*
X0194429Y0132860D01*
X0196130Y0132860D01*
X0192541Y0132860D02*
X0191973Y0133427D01*
X0191973Y0135696D01*
X0191406Y0135129D02*
X0192541Y0135129D01*
X0189518Y0135129D02*
X0189518Y0132860D01*
X0188951Y0132860D02*
X0190085Y0132860D01*
X0189518Y0135129D02*
X0188951Y0135129D01*
X0189518Y0136263D02*
X0189518Y0136830D01*
X0187063Y0136263D02*
X0187063Y0132860D01*
X0187630Y0132860D02*
X0186495Y0132860D01*
X0185081Y0132860D02*
X0183379Y0132860D01*
X0182812Y0133427D01*
X0183379Y0133994D01*
X0185081Y0133994D01*
X0185081Y0134561D02*
X0185081Y0132860D01*
X0185081Y0134561D02*
X0184514Y0135129D01*
X0183379Y0135129D01*
X0181398Y0135129D02*
X0181398Y0132860D01*
X0179696Y0132860D01*
X0179129Y0133427D01*
X0179129Y0135129D01*
X0177715Y0135696D02*
X0177715Y0133427D01*
X0177148Y0132860D01*
X0176013Y0132860D01*
X0175446Y0133427D01*
X0175446Y0135696D01*
X0176013Y0136263D01*
X0177148Y0136263D01*
X0177715Y0135696D01*
X0176580Y0133994D02*
X0177715Y0132860D01*
X0170395Y0135129D02*
X0169828Y0135129D01*
X0168694Y0133994D01*
X0168694Y0132860D02*
X0168694Y0135129D01*
X0166805Y0135129D02*
X0166805Y0132860D01*
X0166238Y0132860D02*
X0167373Y0132860D01*
X0166805Y0135129D02*
X0166238Y0135129D01*
X0166805Y0136263D02*
X0166805Y0136830D01*
X0164824Y0135129D02*
X0164824Y0132860D01*
X0164824Y0134561D02*
X0162555Y0134561D01*
X0162555Y0135129D02*
X0163689Y0136263D01*
X0164824Y0135129D01*
X0162555Y0135129D02*
X0162555Y0132860D01*
X0141450Y0120403D02*
X0140883Y0120970D01*
X0141450Y0120403D02*
X0141450Y0119269D01*
X0140883Y0118702D01*
X0138614Y0118702D01*
X0138047Y0119269D01*
X0138047Y0120403D01*
X0138614Y0120970D01*
X0138047Y0117287D02*
X0138047Y0115018D01*
X0138047Y0116153D02*
X0141450Y0116153D01*
X0141450Y0113604D02*
X0138047Y0113604D01*
X0138047Y0111335D02*
X0141450Y0113604D01*
X0141450Y0111335D02*
X0138047Y0111335D01*
X0128816Y0098836D02*
X0126547Y0098836D01*
X0128816Y0098836D02*
X0129950Y0097702D01*
X0128816Y0096568D01*
X0126547Y0096568D01*
X0127114Y0095153D02*
X0127681Y0095153D01*
X0128249Y0094586D01*
X0128816Y0095153D01*
X0129383Y0095153D01*
X0129950Y0094586D01*
X0129950Y0093452D01*
X0129383Y0092885D01*
X0129383Y0091610D02*
X0129950Y0091610D01*
X0129950Y0091043D01*
X0129383Y0091043D01*
X0129383Y0091610D01*
X0129383Y0089629D02*
X0129950Y0089061D01*
X0129950Y0087927D01*
X0129383Y0087360D01*
X0128249Y0088494D02*
X0128249Y0089061D01*
X0128816Y0089629D01*
X0129383Y0089629D01*
X0128249Y0089061D02*
X0127681Y0089629D01*
X0127114Y0089629D01*
X0126547Y0089061D01*
X0126547Y0087927D01*
X0127114Y0087360D01*
X0127114Y0092885D02*
X0126547Y0093452D01*
X0126547Y0094586D01*
X0127114Y0095153D01*
X0128249Y0094586D02*
X0128249Y0094019D01*
X0136547Y0093312D02*
X0139950Y0093312D01*
X0136547Y0091043D01*
X0139950Y0091043D01*
X0139383Y0089629D02*
X0138249Y0089629D01*
X0138249Y0088494D01*
X0139383Y0087360D02*
X0137114Y0087360D01*
X0136547Y0087927D01*
X0136547Y0089061D01*
X0137114Y0089629D01*
X0139383Y0089629D02*
X0139950Y0089061D01*
X0139950Y0087927D01*
X0139383Y0087360D01*
X0146350Y0087060D02*
X0146350Y0098109D01*
X0147547Y0096995D02*
X0147547Y0094726D01*
X0147547Y0095861D02*
X0150950Y0095861D01*
X0150383Y0093312D02*
X0149816Y0093312D01*
X0149249Y0092745D01*
X0149249Y0091610D01*
X0148681Y0091043D01*
X0148114Y0091043D01*
X0147547Y0091610D01*
X0147547Y0092745D01*
X0148114Y0093312D01*
X0150383Y0093312D02*
X0150950Y0092745D01*
X0150950Y0091610D01*
X0150383Y0091043D01*
X0150950Y0089629D02*
X0149816Y0088494D01*
X0149816Y0089061D02*
X0149816Y0087360D01*
X0150950Y0087360D02*
X0147547Y0087360D01*
X0147547Y0089061D01*
X0148114Y0089629D01*
X0149249Y0089629D01*
X0149816Y0089061D01*
X0156350Y0087060D02*
X0156350Y0096882D01*
X0157547Y0095767D02*
X0157547Y0093499D01*
X0157547Y0094633D02*
X0160950Y0094633D01*
X0160950Y0092084D02*
X0157547Y0092084D01*
X0157547Y0089815D02*
X0160950Y0092084D01*
X0160950Y0089815D02*
X0157547Y0089815D01*
X0157547Y0088494D02*
X0157547Y0087360D01*
X0157547Y0087927D02*
X0160950Y0087927D01*
X0160950Y0087360D02*
X0160950Y0088494D01*
X0166350Y0087060D02*
X0166350Y0098109D01*
X0167547Y0096995D02*
X0169816Y0094726D01*
X0169249Y0095293D02*
X0170950Y0096995D01*
X0170950Y0094726D02*
X0167547Y0094726D01*
X0168681Y0093312D02*
X0170950Y0093312D01*
X0169249Y0093312D02*
X0169249Y0091043D01*
X0168681Y0091043D02*
X0167547Y0092177D01*
X0168681Y0093312D01*
X0168681Y0091043D02*
X0170950Y0091043D01*
X0170950Y0089629D02*
X0167547Y0089629D01*
X0167547Y0087360D02*
X0170950Y0087360D01*
X0169816Y0088494D01*
X0170950Y0089629D01*
X0177547Y0089061D02*
X0177547Y0087927D01*
X0178114Y0087360D01*
X0178681Y0087360D01*
X0179249Y0087927D01*
X0179249Y0089061D01*
X0179816Y0089629D01*
X0180383Y0089629D01*
X0180950Y0089061D01*
X0180950Y0087927D01*
X0180383Y0087360D01*
X0178114Y0089629D02*
X0177547Y0089061D01*
X0178114Y0091043D02*
X0180383Y0091043D01*
X0180950Y0091610D01*
X0180950Y0092745D01*
X0180383Y0093312D01*
X0180950Y0094726D02*
X0180950Y0096995D01*
X0180950Y0094726D02*
X0177547Y0094726D01*
X0178114Y0093312D02*
X0177547Y0092745D01*
X0177547Y0091610D01*
X0178114Y0091043D01*
X0139950Y0094726D02*
X0139950Y0096428D01*
X0139383Y0096995D01*
X0137114Y0096995D01*
X0136547Y0096428D01*
X0136547Y0094726D01*
X0139950Y0094726D01*
X0119950Y0094726D02*
X0117681Y0094726D01*
X0116547Y0095861D01*
X0117681Y0096995D01*
X0119950Y0096995D01*
X0118249Y0096995D02*
X0118249Y0094726D01*
X0119383Y0093312D02*
X0117114Y0093312D01*
X0116547Y0092745D01*
X0116547Y0091043D01*
X0119950Y0091043D01*
X0119950Y0092745D01*
X0119383Y0093312D01*
X0119383Y0089629D02*
X0119950Y0089061D01*
X0119950Y0087927D01*
X0119383Y0087360D01*
X0118249Y0087927D02*
X0117681Y0087360D01*
X0117114Y0087360D01*
X0116547Y0087927D01*
X0116547Y0089061D01*
X0117114Y0089629D01*
X0118249Y0089061D02*
X0118816Y0089629D01*
X0119383Y0089629D01*
X0118249Y0089061D02*
X0118249Y0087927D01*
X0109950Y0087927D02*
X0109383Y0087360D01*
X0109950Y0087927D02*
X0109950Y0089061D01*
X0109383Y0089629D01*
X0108816Y0089629D01*
X0108249Y0089061D01*
X0108249Y0087927D01*
X0107681Y0087360D01*
X0107114Y0087360D01*
X0106547Y0087927D01*
X0106547Y0089061D01*
X0107114Y0089629D01*
X0107114Y0091043D02*
X0109383Y0091043D01*
X0109950Y0091610D01*
X0109950Y0092745D01*
X0109383Y0093312D01*
X0109950Y0094726D02*
X0106547Y0094726D01*
X0107114Y0093312D02*
X0106547Y0092745D01*
X0106547Y0091610D01*
X0107114Y0091043D01*
X0109950Y0094726D02*
X0109950Y0096995D01*
X0099950Y0096995D02*
X0098249Y0095293D01*
X0098816Y0094726D02*
X0096547Y0096995D01*
X0095350Y0098109D02*
X0095350Y0087060D01*
X0096547Y0087360D02*
X0099950Y0087360D01*
X0098816Y0088494D01*
X0099950Y0089629D01*
X0096547Y0089629D01*
X0097681Y0091043D02*
X0096547Y0092177D01*
X0097681Y0093312D01*
X0099950Y0093312D01*
X0099950Y0094726D02*
X0096547Y0094726D01*
X0098249Y0093312D02*
X0098249Y0091043D01*
X0097681Y0091043D02*
X0099950Y0091043D01*
X0089950Y0092084D02*
X0086547Y0092084D01*
X0086547Y0093499D02*
X0086547Y0095767D01*
X0086547Y0094633D02*
X0089950Y0094633D01*
X0089950Y0092084D02*
X0086547Y0089815D01*
X0089950Y0089815D01*
X0089950Y0088494D02*
X0089950Y0087360D01*
X0089950Y0087927D02*
X0086547Y0087927D01*
X0086547Y0087360D02*
X0086547Y0088494D01*
X0085350Y0087060D02*
X0085350Y0096882D01*
X0079950Y0095861D02*
X0076547Y0095861D01*
X0076547Y0096995D02*
X0076547Y0094726D01*
X0077114Y0093312D02*
X0076547Y0092745D01*
X0076547Y0091610D01*
X0077114Y0091043D01*
X0077681Y0091043D01*
X0078249Y0091610D01*
X0078249Y0092745D01*
X0078816Y0093312D01*
X0079383Y0093312D01*
X0079950Y0092745D01*
X0079950Y0091610D01*
X0079383Y0091043D01*
X0079950Y0089629D02*
X0078816Y0088494D01*
X0078816Y0089061D02*
X0078816Y0087360D01*
X0079950Y0087360D02*
X0076547Y0087360D01*
X0076547Y0089061D01*
X0077114Y0089629D01*
X0078249Y0089629D01*
X0078816Y0089061D01*
X0075350Y0087060D02*
X0075350Y0098109D01*
X0068950Y0096428D02*
X0068383Y0096995D01*
X0066114Y0096995D01*
X0065547Y0096428D01*
X0065547Y0094726D01*
X0068950Y0094726D01*
X0068950Y0096428D01*
X0068950Y0093312D02*
X0065547Y0093312D01*
X0065547Y0091043D02*
X0068950Y0093312D01*
X0068950Y0091043D02*
X0065547Y0091043D01*
X0066114Y0089629D02*
X0065547Y0089061D01*
X0065547Y0087927D01*
X0066114Y0087360D01*
X0068383Y0087360D01*
X0068950Y0087927D01*
X0068950Y0089061D01*
X0068383Y0089629D01*
X0067249Y0089629D01*
X0067249Y0088494D01*
X0058950Y0087927D02*
X0058383Y0087360D01*
X0058950Y0087927D02*
X0058950Y0089061D01*
X0058383Y0089629D01*
X0057816Y0089629D01*
X0057249Y0089061D01*
X0057249Y0088494D01*
X0057249Y0089061D02*
X0056681Y0089629D01*
X0056114Y0089629D01*
X0055547Y0089061D01*
X0055547Y0087927D01*
X0056114Y0087360D01*
X0058383Y0091043D02*
X0058383Y0091610D01*
X0058950Y0091610D01*
X0058950Y0091043D01*
X0058383Y0091043D01*
X0058383Y0092885D02*
X0058950Y0093452D01*
X0058950Y0094586D01*
X0058383Y0095153D01*
X0057816Y0095153D01*
X0057249Y0094586D01*
X0057249Y0094019D01*
X0057249Y0094586D02*
X0056681Y0095153D01*
X0056114Y0095153D01*
X0055547Y0094586D01*
X0055547Y0093452D01*
X0056114Y0092885D01*
X0055547Y0096568D02*
X0057816Y0096568D01*
X0058950Y0097702D01*
X0057816Y0098836D01*
X0055547Y0098836D01*
X0048950Y0096995D02*
X0046681Y0096995D01*
X0045547Y0095861D01*
X0046681Y0094726D01*
X0048950Y0094726D01*
X0048383Y0093312D02*
X0046114Y0093312D01*
X0045547Y0092745D01*
X0045547Y0091043D01*
X0048950Y0091043D01*
X0048950Y0092745D01*
X0048383Y0093312D01*
X0047249Y0094726D02*
X0047249Y0096995D01*
X0047816Y0089629D02*
X0047249Y0089061D01*
X0047249Y0087927D01*
X0046681Y0087360D01*
X0046114Y0087360D01*
X0045547Y0087927D01*
X0045547Y0089061D01*
X0046114Y0089629D01*
X0047816Y0089629D02*
X0048383Y0089629D01*
X0048950Y0089061D01*
X0048950Y0087927D01*
X0048383Y0087360D01*
X0038950Y0087927D02*
X0038383Y0087360D01*
X0038950Y0087927D02*
X0038950Y0089061D01*
X0038383Y0089629D01*
X0037816Y0089629D01*
X0037249Y0089061D01*
X0037249Y0087927D01*
X0036681Y0087360D01*
X0036114Y0087360D01*
X0035547Y0087927D01*
X0035547Y0089061D01*
X0036114Y0089629D01*
X0036114Y0091043D02*
X0038383Y0091043D01*
X0038950Y0091610D01*
X0038950Y0092745D01*
X0038383Y0093312D01*
X0038950Y0094726D02*
X0035547Y0094726D01*
X0036114Y0093312D02*
X0035547Y0092745D01*
X0035547Y0091610D01*
X0036114Y0091043D01*
X0038950Y0094726D02*
X0038950Y0096995D01*
X0028950Y0096995D02*
X0027249Y0095293D01*
X0027816Y0094726D02*
X0025547Y0096995D01*
X0024350Y0098109D02*
X0024350Y0087060D01*
X0025547Y0087360D02*
X0028950Y0087360D01*
X0027816Y0088494D01*
X0028950Y0089629D01*
X0025547Y0089629D01*
X0026681Y0091043D02*
X0025547Y0092177D01*
X0026681Y0093312D01*
X0028950Y0093312D01*
X0028950Y0094726D02*
X0025547Y0094726D01*
X0027249Y0093312D02*
X0027249Y0091043D01*
X0026681Y0091043D02*
X0028950Y0091043D01*
X0018950Y0092084D02*
X0015547Y0092084D01*
X0015547Y0093499D02*
X0015547Y0095767D01*
X0015547Y0094633D02*
X0018950Y0094633D01*
X0018950Y0092084D02*
X0015547Y0089815D01*
X0018950Y0089815D01*
X0018950Y0088494D02*
X0018950Y0087360D01*
X0018950Y0087927D02*
X0015547Y0087927D01*
X0015547Y0087360D02*
X0015547Y0088494D01*
X0014350Y0087060D02*
X0014350Y0096882D01*
X0008950Y0095861D02*
X0005547Y0095861D01*
X0005547Y0096995D02*
X0005547Y0094726D01*
X0006114Y0093312D02*
X0005547Y0092745D01*
X0005547Y0091610D01*
X0006114Y0091043D01*
X0006681Y0091043D01*
X0007249Y0091610D01*
X0007249Y0092745D01*
X0007816Y0093312D01*
X0008383Y0093312D01*
X0008950Y0092745D01*
X0008950Y0091610D01*
X0008383Y0091043D01*
X0008950Y0089629D02*
X0007816Y0088494D01*
X0007816Y0089061D02*
X0007816Y0087360D01*
X0008950Y0087360D02*
X0005547Y0087360D01*
X0005547Y0089061D01*
X0006114Y0089629D01*
X0007249Y0089629D01*
X0007816Y0089061D01*
X0004350Y0087060D02*
X0004350Y0098109D01*
X0021689Y0065263D02*
X0022824Y0064129D01*
X0022824Y0061860D01*
X0024238Y0061860D02*
X0025373Y0061860D01*
X0024805Y0061860D02*
X0024805Y0064129D01*
X0024238Y0064129D01*
X0024805Y0065263D02*
X0024805Y0065830D01*
X0026694Y0064129D02*
X0026694Y0061860D01*
X0026694Y0062994D02*
X0027828Y0064129D01*
X0028395Y0064129D01*
X0033446Y0064696D02*
X0033446Y0062427D01*
X0034013Y0061860D01*
X0035148Y0061860D01*
X0035715Y0062427D01*
X0035715Y0064696D01*
X0035148Y0065263D01*
X0034013Y0065263D01*
X0033446Y0064696D01*
X0034580Y0062994D02*
X0035715Y0061860D01*
X0037129Y0062427D02*
X0037129Y0064129D01*
X0037129Y0062427D02*
X0037696Y0061860D01*
X0039398Y0061860D01*
X0039398Y0064129D01*
X0041379Y0064129D02*
X0042514Y0064129D01*
X0043081Y0063561D01*
X0043081Y0061860D01*
X0041379Y0061860D01*
X0040812Y0062427D01*
X0041379Y0062994D01*
X0043081Y0062994D01*
X0044495Y0061860D02*
X0045630Y0061860D01*
X0045063Y0061860D02*
X0045063Y0065263D01*
X0044495Y0065263D01*
X0046951Y0064129D02*
X0047518Y0064129D01*
X0047518Y0061860D01*
X0046951Y0061860D02*
X0048085Y0061860D01*
X0049973Y0062427D02*
X0049973Y0064696D01*
X0049406Y0064129D02*
X0050541Y0064129D01*
X0051862Y0064129D02*
X0051862Y0062427D01*
X0052429Y0061860D01*
X0054130Y0061860D01*
X0054130Y0061293D02*
X0053563Y0060726D01*
X0052996Y0060726D01*
X0054130Y0061293D02*
X0054130Y0064129D01*
X0050541Y0061860D02*
X0049973Y0062427D01*
X0047518Y0065263D02*
X0047518Y0065830D01*
X0067047Y0049403D02*
X0067047Y0048269D01*
X0067614Y0047702D01*
X0069883Y0047702D01*
X0070450Y0048269D01*
X0070450Y0049403D01*
X0069883Y0049970D01*
X0067614Y0049970D02*
X0067047Y0049403D01*
X0067047Y0046287D02*
X0067047Y0044018D01*
X0067047Y0045153D02*
X0070450Y0045153D01*
X0070450Y0042604D02*
X0067047Y0042604D01*
X0067047Y0040335D02*
X0070450Y0042604D01*
X0070450Y0040335D02*
X0067047Y0040335D01*
X0091555Y0061860D02*
X0091555Y0064129D01*
X0092689Y0065263D01*
X0093824Y0064129D01*
X0093824Y0061860D01*
X0095238Y0061860D02*
X0096373Y0061860D01*
X0095805Y0061860D02*
X0095805Y0064129D01*
X0095238Y0064129D01*
X0095805Y0065263D02*
X0095805Y0065830D01*
X0097694Y0064129D02*
X0097694Y0061860D01*
X0097694Y0062994D02*
X0098828Y0064129D01*
X0099395Y0064129D01*
X0093824Y0063561D02*
X0091555Y0063561D01*
X0104446Y0062427D02*
X0105013Y0061860D01*
X0106148Y0061860D01*
X0106715Y0062427D01*
X0106715Y0064696D01*
X0106148Y0065263D01*
X0105013Y0065263D01*
X0104446Y0064696D01*
X0104446Y0062427D01*
X0105580Y0062994D02*
X0106715Y0061860D01*
X0108129Y0062427D02*
X0108696Y0061860D01*
X0110398Y0061860D01*
X0110398Y0064129D01*
X0112379Y0064129D02*
X0113514Y0064129D01*
X0114081Y0063561D01*
X0114081Y0061860D01*
X0112379Y0061860D01*
X0111812Y0062427D01*
X0112379Y0062994D01*
X0114081Y0062994D01*
X0115495Y0061860D02*
X0116630Y0061860D01*
X0116063Y0061860D02*
X0116063Y0065263D01*
X0115495Y0065263D01*
X0117951Y0064129D02*
X0118518Y0064129D01*
X0118518Y0061860D01*
X0117951Y0061860D02*
X0119085Y0061860D01*
X0120973Y0062427D02*
X0120973Y0064696D01*
X0120406Y0064129D02*
X0121541Y0064129D01*
X0122862Y0064129D02*
X0122862Y0062427D01*
X0123429Y0061860D01*
X0125130Y0061860D01*
X0125130Y0061293D02*
X0124563Y0060726D01*
X0123996Y0060726D01*
X0125130Y0061293D02*
X0125130Y0064129D01*
X0121541Y0061860D02*
X0120973Y0062427D01*
X0118518Y0065263D02*
X0118518Y0065830D01*
X0108129Y0064129D02*
X0108129Y0062427D01*
X0138047Y0049403D02*
X0138047Y0048269D01*
X0138614Y0047702D01*
X0140883Y0047702D01*
X0141450Y0048269D01*
X0141450Y0049403D01*
X0140883Y0049970D01*
X0138614Y0049970D02*
X0138047Y0049403D01*
X0138047Y0046287D02*
X0138047Y0044018D01*
X0138047Y0045153D02*
X0141450Y0045153D01*
X0141450Y0042604D02*
X0138047Y0042604D01*
X0138047Y0040335D02*
X0141450Y0042604D01*
X0141450Y0040335D02*
X0138047Y0040335D01*
X0070450Y0111335D02*
X0067047Y0111335D01*
X0070450Y0113604D01*
X0067047Y0113604D01*
X0067047Y0115018D02*
X0067047Y0117287D01*
X0067047Y0116153D02*
X0070450Y0116153D01*
X0069883Y0118702D02*
X0067614Y0118702D01*
X0067047Y0119269D01*
X0067047Y0120403D01*
X0067614Y0120970D01*
X0069883Y0120970D02*
X0070450Y0120403D01*
X0070450Y0119269D01*
X0069883Y0118702D01*
X0054130Y0132293D02*
X0053563Y0131726D01*
X0052996Y0131726D01*
X0052429Y0132860D02*
X0051862Y0133427D01*
X0051862Y0135129D01*
X0050541Y0135129D02*
X0049406Y0135129D01*
X0049973Y0135696D02*
X0049973Y0133427D01*
X0050541Y0132860D01*
X0052429Y0132860D02*
X0054130Y0132860D01*
X0054130Y0132293D02*
X0054130Y0135129D01*
X0048085Y0132860D02*
X0046951Y0132860D01*
X0047518Y0132860D02*
X0047518Y0135129D01*
X0046951Y0135129D01*
X0047518Y0136263D02*
X0047518Y0136830D01*
X0045063Y0136263D02*
X0045063Y0132860D01*
X0045630Y0132860D02*
X0044495Y0132860D01*
X0043081Y0132860D02*
X0043081Y0134561D01*
X0042514Y0135129D01*
X0041379Y0135129D01*
X0041379Y0133994D02*
X0043081Y0133994D01*
X0043081Y0132860D02*
X0041379Y0132860D01*
X0040812Y0133427D01*
X0041379Y0133994D01*
X0039398Y0132860D02*
X0039398Y0135129D01*
X0037129Y0135129D02*
X0037129Y0133427D01*
X0037696Y0132860D01*
X0039398Y0132860D01*
X0035715Y0132860D02*
X0034580Y0133994D01*
X0033446Y0133427D02*
X0033446Y0135696D01*
X0034013Y0136263D01*
X0035148Y0136263D01*
X0035715Y0135696D01*
X0035715Y0133427D01*
X0035148Y0132860D01*
X0034013Y0132860D01*
X0033446Y0133427D01*
X0028395Y0135129D02*
X0027828Y0135129D01*
X0026694Y0133994D01*
X0026694Y0132860D02*
X0026694Y0135129D01*
X0024805Y0135129D02*
X0024805Y0132860D01*
X0024238Y0132860D02*
X0025373Y0132860D01*
X0024805Y0135129D02*
X0024238Y0135129D01*
X0024805Y0136263D02*
X0024805Y0136830D01*
X0022824Y0135129D02*
X0022824Y0132860D01*
X0022824Y0134561D02*
X0020555Y0134561D01*
X0020555Y0135129D02*
X0021689Y0136263D01*
X0022824Y0135129D01*
X0020555Y0135129D02*
X0020555Y0132860D01*
X0044495Y0136263D02*
X0045063Y0136263D01*
X0024350Y0158060D02*
X0024350Y0169109D01*
X0025547Y0167995D02*
X0027816Y0165726D01*
X0027249Y0166293D02*
X0028950Y0167995D01*
X0028950Y0165726D02*
X0025547Y0165726D01*
X0026681Y0164312D02*
X0025547Y0163177D01*
X0026681Y0162043D01*
X0028950Y0162043D01*
X0028950Y0160629D02*
X0025547Y0160629D01*
X0027249Y0162043D02*
X0027249Y0164312D01*
X0026681Y0164312D02*
X0028950Y0164312D01*
X0028950Y0160629D02*
X0027816Y0159494D01*
X0028950Y0158360D01*
X0025547Y0158360D01*
X0018950Y0158360D02*
X0018950Y0159494D01*
X0018950Y0158927D02*
X0015547Y0158927D01*
X0015547Y0158360D02*
X0015547Y0159494D01*
X0015547Y0160815D02*
X0018950Y0163084D01*
X0015547Y0163084D01*
X0015547Y0164499D02*
X0015547Y0166767D01*
X0015547Y0165633D02*
X0018950Y0165633D01*
X0018950Y0160815D02*
X0015547Y0160815D01*
X0014350Y0158060D02*
X0014350Y0167882D01*
X0008950Y0166861D02*
X0005547Y0166861D01*
X0005547Y0167995D02*
X0005547Y0165726D01*
X0006114Y0164312D02*
X0005547Y0163745D01*
X0005547Y0162610D01*
X0006114Y0162043D01*
X0006681Y0162043D01*
X0007249Y0162610D01*
X0007249Y0163745D01*
X0007816Y0164312D01*
X0008383Y0164312D01*
X0008950Y0163745D01*
X0008950Y0162610D01*
X0008383Y0162043D01*
X0008950Y0160629D02*
X0007816Y0159494D01*
X0007816Y0160061D02*
X0007816Y0158360D01*
X0008950Y0158360D02*
X0005547Y0158360D01*
X0005547Y0160061D01*
X0006114Y0160629D01*
X0007249Y0160629D01*
X0007816Y0160061D01*
X0004350Y0158060D02*
X0004350Y0169109D01*
X0035547Y0165726D02*
X0038950Y0165726D01*
X0038950Y0167995D01*
X0038383Y0164312D02*
X0038950Y0163745D01*
X0038950Y0162610D01*
X0038383Y0162043D01*
X0036114Y0162043D01*
X0035547Y0162610D01*
X0035547Y0163745D01*
X0036114Y0164312D01*
X0036114Y0160629D02*
X0035547Y0160061D01*
X0035547Y0158927D01*
X0036114Y0158360D01*
X0036681Y0158360D01*
X0037249Y0158927D01*
X0037249Y0160061D01*
X0037816Y0160629D01*
X0038383Y0160629D01*
X0038950Y0160061D01*
X0038950Y0158927D01*
X0038383Y0158360D01*
X0045547Y0158927D02*
X0046114Y0158360D01*
X0046681Y0158360D01*
X0047249Y0158927D01*
X0047249Y0160061D01*
X0047816Y0160629D01*
X0048383Y0160629D01*
X0048950Y0160061D01*
X0048950Y0158927D01*
X0048383Y0158360D01*
X0046114Y0160629D02*
X0045547Y0160061D01*
X0045547Y0158927D01*
X0045547Y0162043D02*
X0045547Y0163745D01*
X0046114Y0164312D01*
X0048383Y0164312D01*
X0048950Y0163745D01*
X0048950Y0162043D01*
X0045547Y0162043D01*
X0046681Y0165726D02*
X0045547Y0166861D01*
X0046681Y0167995D01*
X0048950Y0167995D01*
X0047249Y0167995D02*
X0047249Y0165726D01*
X0046681Y0165726D02*
X0048950Y0165726D01*
X0055547Y0165586D02*
X0055547Y0164452D01*
X0056114Y0163885D01*
X0057249Y0165019D02*
X0057249Y0165586D01*
X0057816Y0166153D01*
X0058383Y0166153D01*
X0058950Y0165586D01*
X0058950Y0164452D01*
X0058383Y0163885D01*
X0058383Y0162610D02*
X0058950Y0162610D01*
X0058950Y0162043D01*
X0058383Y0162043D01*
X0058383Y0162610D01*
X0058383Y0160629D02*
X0058950Y0160061D01*
X0058950Y0158927D01*
X0058383Y0158360D01*
X0057249Y0159494D02*
X0057249Y0160061D01*
X0057816Y0160629D01*
X0058383Y0160629D01*
X0057249Y0160061D02*
X0056681Y0160629D01*
X0056114Y0160629D01*
X0055547Y0160061D01*
X0055547Y0158927D01*
X0056114Y0158360D01*
X0055547Y0165586D02*
X0056114Y0166153D01*
X0056681Y0166153D01*
X0057249Y0165586D01*
X0057816Y0167568D02*
X0055547Y0167568D01*
X0055547Y0169836D02*
X0057816Y0169836D01*
X0058950Y0168702D01*
X0057816Y0167568D01*
X0065547Y0167428D02*
X0065547Y0165726D01*
X0068950Y0165726D01*
X0068950Y0167428D01*
X0068383Y0167995D01*
X0066114Y0167995D01*
X0065547Y0167428D01*
X0065547Y0164312D02*
X0068950Y0164312D01*
X0065547Y0162043D01*
X0068950Y0162043D01*
X0068383Y0160629D02*
X0067249Y0160629D01*
X0067249Y0159494D01*
X0068383Y0158360D02*
X0066114Y0158360D01*
X0065547Y0158927D01*
X0065547Y0160061D01*
X0066114Y0160629D01*
X0068383Y0160629D02*
X0068950Y0160061D01*
X0068950Y0158927D01*
X0068383Y0158360D01*
X0075350Y0158060D02*
X0075350Y0169109D01*
X0076547Y0167995D02*
X0076547Y0165726D01*
X0076547Y0166861D02*
X0079950Y0166861D01*
X0079383Y0164312D02*
X0079950Y0163745D01*
X0079950Y0162610D01*
X0079383Y0162043D01*
X0078249Y0162610D02*
X0078249Y0163745D01*
X0078816Y0164312D01*
X0079383Y0164312D01*
X0078249Y0162610D02*
X0077681Y0162043D01*
X0077114Y0162043D01*
X0076547Y0162610D01*
X0076547Y0163745D01*
X0077114Y0164312D01*
X0077114Y0160629D02*
X0078249Y0160629D01*
X0078816Y0160061D01*
X0078816Y0158360D01*
X0079950Y0158360D02*
X0076547Y0158360D01*
X0076547Y0160061D01*
X0077114Y0160629D01*
X0078816Y0159494D02*
X0079950Y0160629D01*
X0085350Y0158060D02*
X0085350Y0167882D01*
X0086547Y0166767D02*
X0086547Y0164499D01*
X0086547Y0165633D02*
X0089950Y0165633D01*
X0089950Y0163084D02*
X0086547Y0163084D01*
X0086547Y0160815D02*
X0089950Y0163084D01*
X0089950Y0160815D02*
X0086547Y0160815D01*
X0086547Y0159494D02*
X0086547Y0158360D01*
X0086547Y0158927D02*
X0089950Y0158927D01*
X0089950Y0158360D02*
X0089950Y0159494D01*
X0095350Y0158060D02*
X0095350Y0169109D01*
X0096547Y0167995D02*
X0098816Y0165726D01*
X0098249Y0166293D02*
X0099950Y0167995D01*
X0099950Y0165726D02*
X0096547Y0165726D01*
X0097681Y0164312D02*
X0099950Y0164312D01*
X0098249Y0164312D02*
X0098249Y0162043D01*
X0097681Y0162043D02*
X0096547Y0163177D01*
X0097681Y0164312D01*
X0097681Y0162043D02*
X0099950Y0162043D01*
X0099950Y0160629D02*
X0096547Y0160629D01*
X0096547Y0158360D02*
X0099950Y0158360D01*
X0098816Y0159494D01*
X0099950Y0160629D01*
X0106547Y0160061D02*
X0106547Y0158927D01*
X0107114Y0158360D01*
X0107681Y0158360D01*
X0108249Y0158927D01*
X0108249Y0160061D01*
X0108816Y0160629D01*
X0109383Y0160629D01*
X0109950Y0160061D01*
X0109950Y0158927D01*
X0109383Y0158360D01*
X0107114Y0160629D02*
X0106547Y0160061D01*
X0107114Y0162043D02*
X0109383Y0162043D01*
X0109950Y0162610D01*
X0109950Y0163745D01*
X0109383Y0164312D01*
X0109950Y0165726D02*
X0106547Y0165726D01*
X0107114Y0164312D02*
X0106547Y0163745D01*
X0106547Y0162610D01*
X0107114Y0162043D01*
X0109950Y0165726D02*
X0109950Y0167995D01*
X0116547Y0166861D02*
X0117681Y0167995D01*
X0119950Y0167995D01*
X0118249Y0167995D02*
X0118249Y0165726D01*
X0117681Y0165726D02*
X0116547Y0166861D01*
X0117681Y0165726D02*
X0119950Y0165726D01*
X0119383Y0164312D02*
X0117114Y0164312D01*
X0116547Y0163745D01*
X0116547Y0162043D01*
X0119950Y0162043D01*
X0119950Y0163745D01*
X0119383Y0164312D01*
X0119383Y0160629D02*
X0119950Y0160061D01*
X0119950Y0158927D01*
X0119383Y0158360D01*
X0118249Y0158927D02*
X0118249Y0160061D01*
X0118816Y0160629D01*
X0119383Y0160629D01*
X0118249Y0158927D02*
X0117681Y0158360D01*
X0117114Y0158360D01*
X0116547Y0158927D01*
X0116547Y0160061D01*
X0117114Y0160629D01*
X0126547Y0160061D02*
X0127114Y0160629D01*
X0127681Y0160629D01*
X0128249Y0160061D01*
X0128816Y0160629D01*
X0129383Y0160629D01*
X0129950Y0160061D01*
X0129950Y0158927D01*
X0129383Y0158360D01*
X0128249Y0159494D02*
X0128249Y0160061D01*
X0126547Y0160061D02*
X0126547Y0158927D01*
X0127114Y0158360D01*
X0129383Y0162043D02*
X0129383Y0162610D01*
X0129950Y0162610D01*
X0129950Y0162043D01*
X0129383Y0162043D01*
X0129383Y0163885D02*
X0129950Y0164452D01*
X0129950Y0165586D01*
X0129383Y0166153D01*
X0128816Y0166153D01*
X0128249Y0165586D01*
X0128249Y0165019D01*
X0128249Y0165586D02*
X0127681Y0166153D01*
X0127114Y0166153D01*
X0126547Y0165586D01*
X0126547Y0164452D01*
X0127114Y0163885D01*
X0126547Y0167568D02*
X0128816Y0167568D01*
X0129950Y0168702D01*
X0128816Y0169836D01*
X0126547Y0169836D01*
X0136547Y0167428D02*
X0136547Y0165726D01*
X0139950Y0165726D01*
X0139950Y0167428D01*
X0139383Y0167995D01*
X0137114Y0167995D01*
X0136547Y0167428D01*
X0136547Y0164312D02*
X0139950Y0164312D01*
X0136547Y0162043D01*
X0139950Y0162043D01*
X0139383Y0160629D02*
X0138249Y0160629D01*
X0138249Y0159494D01*
X0139383Y0158360D02*
X0137114Y0158360D01*
X0136547Y0158927D01*
X0136547Y0160061D01*
X0137114Y0160629D01*
X0139383Y0160629D02*
X0139950Y0160061D01*
X0139950Y0158927D01*
X0139383Y0158360D01*
X0146350Y0158060D02*
X0146350Y0169109D01*
X0147547Y0167995D02*
X0147547Y0165726D01*
X0147547Y0166861D02*
X0150950Y0166861D01*
X0150383Y0164312D02*
X0149816Y0164312D01*
X0149249Y0163745D01*
X0149249Y0162610D01*
X0148681Y0162043D01*
X0148114Y0162043D01*
X0147547Y0162610D01*
X0147547Y0163745D01*
X0148114Y0164312D01*
X0150383Y0164312D02*
X0150950Y0163745D01*
X0150950Y0162610D01*
X0150383Y0162043D01*
X0150950Y0160629D02*
X0149816Y0159494D01*
X0149816Y0160061D02*
X0149816Y0158360D01*
X0150950Y0158360D02*
X0147547Y0158360D01*
X0147547Y0160061D01*
X0148114Y0160629D01*
X0149249Y0160629D01*
X0149816Y0160061D01*
X0156350Y0158060D02*
X0156350Y0167882D01*
X0157547Y0166767D02*
X0157547Y0164499D01*
X0157547Y0165633D02*
X0160950Y0165633D01*
X0160950Y0163084D02*
X0157547Y0163084D01*
X0157547Y0160815D02*
X0160950Y0163084D01*
X0160950Y0160815D02*
X0157547Y0160815D01*
X0157547Y0159494D02*
X0157547Y0158360D01*
X0157547Y0158927D02*
X0160950Y0158927D01*
X0160950Y0158360D02*
X0160950Y0159494D01*
X0166350Y0158060D02*
X0166350Y0169109D01*
X0167547Y0167995D02*
X0169816Y0165726D01*
X0169249Y0166293D02*
X0170950Y0167995D01*
X0170950Y0165726D02*
X0167547Y0165726D01*
X0168681Y0164312D02*
X0170950Y0164312D01*
X0169249Y0164312D02*
X0169249Y0162043D01*
X0168681Y0162043D02*
X0167547Y0163177D01*
X0168681Y0164312D01*
X0168681Y0162043D02*
X0170950Y0162043D01*
X0170950Y0160629D02*
X0167547Y0160629D01*
X0167547Y0158360D02*
X0170950Y0158360D01*
X0169816Y0159494D01*
X0170950Y0160629D01*
X0177547Y0160061D02*
X0177547Y0158927D01*
X0178114Y0158360D01*
X0178681Y0158360D01*
X0179249Y0158927D01*
X0179249Y0160061D01*
X0179816Y0160629D01*
X0180383Y0160629D01*
X0180950Y0160061D01*
X0180950Y0158927D01*
X0180383Y0158360D01*
X0180383Y0162043D02*
X0180950Y0162610D01*
X0180950Y0163745D01*
X0180383Y0164312D01*
X0180950Y0165726D02*
X0180950Y0167995D01*
X0180950Y0165726D02*
X0177547Y0165726D01*
X0178114Y0164312D02*
X0177547Y0163745D01*
X0177547Y0162610D01*
X0178114Y0162043D01*
X0180383Y0162043D01*
X0178114Y0160629D02*
X0177547Y0160061D01*
X0187547Y0160061D02*
X0187547Y0158927D01*
X0188114Y0158360D01*
X0188681Y0158360D01*
X0189249Y0158927D01*
X0189249Y0160061D01*
X0189816Y0160629D01*
X0190383Y0160629D01*
X0190950Y0160061D01*
X0190950Y0158927D01*
X0190383Y0158360D01*
X0188114Y0160629D02*
X0187547Y0160061D01*
X0187547Y0162043D02*
X0187547Y0163745D01*
X0188114Y0164312D01*
X0190383Y0164312D01*
X0190950Y0163745D01*
X0190950Y0162043D01*
X0187547Y0162043D01*
X0188681Y0165726D02*
X0187547Y0166861D01*
X0188681Y0167995D01*
X0190950Y0167995D01*
X0189249Y0167995D02*
X0189249Y0165726D01*
X0188681Y0165726D02*
X0190950Y0165726D01*
X0197547Y0165586D02*
X0197547Y0164452D01*
X0198114Y0163885D01*
X0199249Y0165019D02*
X0199249Y0165586D01*
X0199816Y0166153D01*
X0200383Y0166153D01*
X0200950Y0165586D01*
X0200950Y0164452D01*
X0200383Y0163885D01*
X0200383Y0162610D02*
X0200950Y0162610D01*
X0200950Y0162043D01*
X0200383Y0162043D01*
X0200383Y0162610D01*
X0200383Y0160629D02*
X0199816Y0160629D01*
X0199249Y0160061D01*
X0199249Y0159494D01*
X0199249Y0160061D02*
X0198681Y0160629D01*
X0198114Y0160629D01*
X0197547Y0160061D01*
X0197547Y0158927D01*
X0198114Y0158360D01*
X0200383Y0158360D02*
X0200950Y0158927D01*
X0200950Y0160061D01*
X0200383Y0160629D01*
X0199249Y0165586D02*
X0198681Y0166153D01*
X0198114Y0166153D01*
X0197547Y0165586D01*
X0197547Y0167568D02*
X0199816Y0167568D01*
X0200950Y0168702D01*
X0199816Y0169836D01*
X0197547Y0169836D01*
X0207547Y0167428D02*
X0207547Y0165726D01*
X0210950Y0165726D01*
X0210950Y0167428D01*
X0210383Y0167995D01*
X0208114Y0167995D01*
X0207547Y0167428D01*
X0207547Y0164312D02*
X0210950Y0164312D01*
X0207547Y0162043D01*
X0210950Y0162043D01*
X0210383Y0160629D02*
X0210950Y0160061D01*
X0210950Y0158927D01*
X0210383Y0158360D01*
X0208114Y0158360D01*
X0207547Y0158927D01*
X0207547Y0160061D01*
X0208114Y0160629D01*
X0209249Y0160629D02*
X0209249Y0159494D01*
X0209249Y0160629D02*
X0210383Y0160629D01*
X0209047Y0182335D02*
X0212450Y0184604D01*
X0209047Y0184604D01*
X0209047Y0186018D02*
X0209047Y0188287D01*
X0209047Y0187153D02*
X0212450Y0187153D01*
X0211883Y0189702D02*
X0209614Y0189702D01*
X0209047Y0190269D01*
X0209047Y0191403D01*
X0209614Y0191970D01*
X0211883Y0191970D02*
X0212450Y0191403D01*
X0212450Y0190269D01*
X0211883Y0189702D01*
X0212450Y0182335D02*
X0209047Y0182335D01*
X0195563Y0202726D02*
X0194996Y0202726D01*
X0195563Y0202726D02*
X0196130Y0203293D01*
X0196130Y0206129D01*
X0193862Y0206129D02*
X0193862Y0204427D01*
X0194429Y0203860D01*
X0196130Y0203860D01*
X0192541Y0203860D02*
X0191973Y0204427D01*
X0191973Y0206696D01*
X0191406Y0206129D02*
X0192541Y0206129D01*
X0189518Y0206129D02*
X0189518Y0203860D01*
X0188951Y0203860D02*
X0190085Y0203860D01*
X0189518Y0206129D02*
X0188951Y0206129D01*
X0189518Y0207263D02*
X0189518Y0207830D01*
X0187063Y0207263D02*
X0187063Y0203860D01*
X0187630Y0203860D02*
X0186495Y0203860D01*
X0185081Y0203860D02*
X0183379Y0203860D01*
X0182812Y0204427D01*
X0183379Y0204994D01*
X0185081Y0204994D01*
X0185081Y0205561D02*
X0185081Y0203860D01*
X0185081Y0205561D02*
X0184514Y0206129D01*
X0183379Y0206129D01*
X0181398Y0206129D02*
X0181398Y0203860D01*
X0179696Y0203860D01*
X0179129Y0204427D01*
X0179129Y0206129D01*
X0177715Y0206696D02*
X0177715Y0204427D01*
X0177148Y0203860D01*
X0176013Y0203860D01*
X0175446Y0204427D01*
X0175446Y0206696D01*
X0176013Y0207263D01*
X0177148Y0207263D01*
X0177715Y0206696D01*
X0176580Y0204994D02*
X0177715Y0203860D01*
X0170395Y0206129D02*
X0169828Y0206129D01*
X0168694Y0204994D01*
X0168694Y0203860D02*
X0168694Y0206129D01*
X0166805Y0206129D02*
X0166805Y0203860D01*
X0166238Y0203860D02*
X0167373Y0203860D01*
X0166805Y0206129D02*
X0166238Y0206129D01*
X0166805Y0207263D02*
X0166805Y0207830D01*
X0164824Y0206129D02*
X0164824Y0203860D01*
X0164824Y0205561D02*
X0162555Y0205561D01*
X0162555Y0206129D02*
X0163689Y0207263D01*
X0164824Y0206129D01*
X0162555Y0206129D02*
X0162555Y0203860D01*
X0141450Y0191403D02*
X0141450Y0190269D01*
X0140883Y0189702D01*
X0138614Y0189702D01*
X0138047Y0190269D01*
X0138047Y0191403D01*
X0138614Y0191970D01*
X0140883Y0191970D02*
X0141450Y0191403D01*
X0141450Y0187153D02*
X0138047Y0187153D01*
X0138047Y0188287D02*
X0138047Y0186018D01*
X0138047Y0184604D02*
X0141450Y0184604D01*
X0138047Y0182335D01*
X0141450Y0182335D01*
X0124563Y0202726D02*
X0123996Y0202726D01*
X0124563Y0202726D02*
X0125130Y0203293D01*
X0125130Y0206129D01*
X0122862Y0206129D02*
X0122862Y0204427D01*
X0123429Y0203860D01*
X0125130Y0203860D01*
X0121541Y0203860D02*
X0120973Y0204427D01*
X0120973Y0206696D01*
X0120406Y0206129D02*
X0121541Y0206129D01*
X0118518Y0206129D02*
X0118518Y0203860D01*
X0117951Y0203860D02*
X0119085Y0203860D01*
X0118518Y0206129D02*
X0117951Y0206129D01*
X0118518Y0207263D02*
X0118518Y0207830D01*
X0116063Y0207263D02*
X0116063Y0203860D01*
X0116630Y0203860D02*
X0115495Y0203860D01*
X0114081Y0203860D02*
X0114081Y0205561D01*
X0113514Y0206129D01*
X0112379Y0206129D01*
X0112379Y0204994D02*
X0114081Y0204994D01*
X0114081Y0203860D02*
X0112379Y0203860D01*
X0111812Y0204427D01*
X0112379Y0204994D01*
X0110398Y0203860D02*
X0110398Y0206129D01*
X0108129Y0206129D02*
X0108129Y0204427D01*
X0108696Y0203860D01*
X0110398Y0203860D01*
X0106715Y0203860D02*
X0105580Y0204994D01*
X0105013Y0203860D02*
X0104446Y0204427D01*
X0104446Y0206696D01*
X0105013Y0207263D01*
X0106148Y0207263D01*
X0106715Y0206696D01*
X0106715Y0204427D01*
X0106148Y0203860D01*
X0105013Y0203860D01*
X0099395Y0206129D02*
X0098828Y0206129D01*
X0097694Y0204994D01*
X0097694Y0203860D02*
X0097694Y0206129D01*
X0095805Y0206129D02*
X0095805Y0203860D01*
X0095238Y0203860D02*
X0096373Y0203860D01*
X0095805Y0206129D02*
X0095238Y0206129D01*
X0095805Y0207263D02*
X0095805Y0207830D01*
X0093824Y0206129D02*
X0093824Y0203860D01*
X0093824Y0205561D02*
X0091555Y0205561D01*
X0091555Y0206129D02*
X0092689Y0207263D01*
X0093824Y0206129D01*
X0091555Y0206129D02*
X0091555Y0203860D01*
X0070450Y0191403D02*
X0070450Y0190269D01*
X0069883Y0189702D01*
X0067614Y0189702D01*
X0067047Y0190269D01*
X0067047Y0191403D01*
X0067614Y0191970D01*
X0069883Y0191970D02*
X0070450Y0191403D01*
X0070450Y0187153D02*
X0067047Y0187153D01*
X0067047Y0188287D02*
X0067047Y0186018D01*
X0067047Y0184604D02*
X0070450Y0184604D01*
X0067047Y0182335D01*
X0070450Y0182335D01*
X0053563Y0202726D02*
X0052996Y0202726D01*
X0053563Y0202726D02*
X0054130Y0203293D01*
X0054130Y0206129D01*
X0051862Y0206129D02*
X0051862Y0204427D01*
X0052429Y0203860D01*
X0054130Y0203860D01*
X0050541Y0203860D02*
X0049973Y0204427D01*
X0049973Y0206696D01*
X0049406Y0206129D02*
X0050541Y0206129D01*
X0048085Y0203860D02*
X0046951Y0203860D01*
X0047518Y0203860D02*
X0047518Y0206129D01*
X0046951Y0206129D01*
X0047518Y0207263D02*
X0047518Y0207830D01*
X0045063Y0207263D02*
X0045063Y0203860D01*
X0045630Y0203860D02*
X0044495Y0203860D01*
X0043081Y0203860D02*
X0043081Y0205561D01*
X0042514Y0206129D01*
X0041379Y0206129D01*
X0041379Y0204994D02*
X0043081Y0204994D01*
X0043081Y0203860D02*
X0041379Y0203860D01*
X0040812Y0204427D01*
X0041379Y0204994D01*
X0039398Y0203860D02*
X0039398Y0206129D01*
X0037129Y0206129D02*
X0037129Y0204427D01*
X0037696Y0203860D01*
X0039398Y0203860D01*
X0035715Y0203860D02*
X0034580Y0204994D01*
X0034013Y0203860D02*
X0033446Y0204427D01*
X0033446Y0206696D01*
X0034013Y0207263D01*
X0035148Y0207263D01*
X0035715Y0206696D01*
X0035715Y0204427D01*
X0035148Y0203860D01*
X0034013Y0203860D01*
X0028395Y0206129D02*
X0027828Y0206129D01*
X0026694Y0204994D01*
X0026694Y0203860D02*
X0026694Y0206129D01*
X0024805Y0206129D02*
X0024805Y0203860D01*
X0024238Y0203860D02*
X0025373Y0203860D01*
X0024805Y0206129D02*
X0024238Y0206129D01*
X0024805Y0207263D02*
X0024805Y0207830D01*
X0022824Y0206129D02*
X0022824Y0203860D01*
X0022824Y0205561D02*
X0020555Y0205561D01*
X0020555Y0206129D02*
X0021689Y0207263D01*
X0022824Y0206129D01*
X0020555Y0206129D02*
X0020555Y0203860D01*
X0044495Y0207263D02*
X0045063Y0207263D01*
X0092689Y0136263D02*
X0093824Y0135129D01*
X0093824Y0132860D01*
X0095238Y0132860D02*
X0096373Y0132860D01*
X0095805Y0132860D02*
X0095805Y0135129D01*
X0095238Y0135129D01*
X0095805Y0136263D02*
X0095805Y0136830D01*
X0097694Y0135129D02*
X0097694Y0132860D01*
X0097694Y0133994D02*
X0098828Y0135129D01*
X0099395Y0135129D01*
X0093824Y0134561D02*
X0091555Y0134561D01*
X0091555Y0135129D02*
X0092689Y0136263D01*
X0091555Y0135129D02*
X0091555Y0132860D01*
X0104446Y0133427D02*
X0105013Y0132860D01*
X0106148Y0132860D01*
X0106715Y0133427D01*
X0106715Y0135696D01*
X0106148Y0136263D01*
X0105013Y0136263D01*
X0104446Y0135696D01*
X0104446Y0133427D01*
X0105580Y0133994D02*
X0106715Y0132860D01*
X0108129Y0133427D02*
X0108696Y0132860D01*
X0110398Y0132860D01*
X0110398Y0135129D01*
X0112379Y0135129D02*
X0113514Y0135129D01*
X0114081Y0134561D01*
X0114081Y0132860D01*
X0112379Y0132860D01*
X0111812Y0133427D01*
X0112379Y0133994D01*
X0114081Y0133994D01*
X0115495Y0132860D02*
X0116630Y0132860D01*
X0116063Y0132860D02*
X0116063Y0136263D01*
X0115495Y0136263D01*
X0117951Y0135129D02*
X0118518Y0135129D01*
X0118518Y0132860D01*
X0117951Y0132860D02*
X0119085Y0132860D01*
X0120973Y0133427D02*
X0120973Y0135696D01*
X0120406Y0135129D02*
X0121541Y0135129D01*
X0122862Y0135129D02*
X0122862Y0133427D01*
X0123429Y0132860D01*
X0125130Y0132860D01*
X0125130Y0132293D02*
X0124563Y0131726D01*
X0123996Y0131726D01*
X0125130Y0132293D02*
X0125130Y0135129D01*
X0121541Y0132860D02*
X0120973Y0133427D01*
X0118518Y0136263D02*
X0118518Y0136830D01*
X0108129Y0135129D02*
X0108129Y0133427D01*
X0115495Y0207263D02*
X0116063Y0207263D01*
X0186495Y0207263D02*
X0187063Y0207263D01*
X0187063Y0136263D02*
X0186495Y0136263D01*
X0022824Y0063561D02*
X0020555Y0063561D01*
X0020555Y0064129D02*
X0020555Y0061860D01*
X0020555Y0064129D02*
X0021689Y0065263D01*
D11*
X0024979Y0068711D02*
X0025654Y0068035D01*
X0027006Y0068035D01*
X0027681Y0068711D01*
X0029353Y0068711D02*
X0030028Y0068035D01*
X0031379Y0068035D01*
X0032055Y0068711D01*
X0033726Y0068711D02*
X0034402Y0068035D01*
X0035753Y0068035D01*
X0036429Y0068711D01*
X0036429Y0069386D01*
X0035753Y0070062D01*
X0034402Y0070062D01*
X0033726Y0070737D01*
X0033726Y0071413D01*
X0034402Y0072088D01*
X0035753Y0072088D01*
X0036429Y0071413D01*
X0038100Y0071413D02*
X0038100Y0070737D01*
X0038776Y0070062D01*
X0040127Y0070062D01*
X0040802Y0069386D01*
X0040802Y0068711D01*
X0040127Y0068035D01*
X0038776Y0068035D01*
X0038100Y0068711D01*
X0038100Y0069386D01*
X0038776Y0070062D01*
X0040127Y0070062D02*
X0040802Y0070737D01*
X0040802Y0071413D01*
X0040127Y0072088D01*
X0038776Y0072088D01*
X0038100Y0071413D01*
X0042474Y0070737D02*
X0043825Y0072088D01*
X0043825Y0068035D01*
X0042474Y0068035D02*
X0045176Y0068035D01*
X0046847Y0068035D02*
X0049550Y0068035D01*
X0048199Y0068035D02*
X0048199Y0072088D01*
X0046847Y0070737D01*
X0032055Y0071413D02*
X0031379Y0072088D01*
X0030028Y0072088D01*
X0029353Y0071413D01*
X0029353Y0068711D01*
X0027681Y0071413D02*
X0027006Y0072088D01*
X0025654Y0072088D01*
X0024979Y0071413D01*
X0024979Y0068711D01*
X0025654Y0139035D02*
X0027006Y0139035D01*
X0027681Y0139711D01*
X0029353Y0139711D02*
X0029353Y0142413D01*
X0030028Y0143088D01*
X0031379Y0143088D01*
X0032055Y0142413D01*
X0033726Y0142413D02*
X0034402Y0143088D01*
X0035753Y0143088D01*
X0036429Y0142413D01*
X0035753Y0141062D02*
X0036429Y0140386D01*
X0036429Y0139711D01*
X0035753Y0139035D01*
X0034402Y0139035D01*
X0033726Y0139711D01*
X0034402Y0141062D02*
X0035753Y0141062D01*
X0034402Y0141062D02*
X0033726Y0141737D01*
X0033726Y0142413D01*
X0032055Y0139711D02*
X0031379Y0139035D01*
X0030028Y0139035D01*
X0029353Y0139711D01*
X0027681Y0142413D02*
X0027006Y0143088D01*
X0025654Y0143088D01*
X0024979Y0142413D01*
X0024979Y0139711D01*
X0025654Y0139035D01*
X0038100Y0139711D02*
X0038100Y0140386D01*
X0038776Y0141062D01*
X0040127Y0141062D01*
X0040802Y0140386D01*
X0040802Y0139711D01*
X0040127Y0139035D01*
X0038776Y0139035D01*
X0038100Y0139711D01*
X0038776Y0141062D02*
X0038100Y0141737D01*
X0038100Y0142413D01*
X0038776Y0143088D01*
X0040127Y0143088D01*
X0040802Y0142413D01*
X0040802Y0141737D01*
X0040127Y0141062D01*
X0042474Y0141737D02*
X0043825Y0143088D01*
X0043825Y0139035D01*
X0042474Y0139035D02*
X0045176Y0139035D01*
X0046847Y0139035D02*
X0049550Y0139035D01*
X0048199Y0139035D02*
X0048199Y0143088D01*
X0046847Y0141737D01*
X0095979Y0142413D02*
X0095979Y0139711D01*
X0096654Y0139035D01*
X0098006Y0139035D01*
X0098681Y0139711D01*
X0100353Y0139711D02*
X0100353Y0142413D01*
X0101028Y0143088D01*
X0102379Y0143088D01*
X0103055Y0142413D01*
X0104726Y0142413D02*
X0105402Y0143088D01*
X0106753Y0143088D01*
X0107429Y0142413D01*
X0106753Y0141062D02*
X0107429Y0140386D01*
X0107429Y0139711D01*
X0106753Y0139035D01*
X0105402Y0139035D01*
X0104726Y0139711D01*
X0105402Y0141062D02*
X0106753Y0141062D01*
X0105402Y0141062D02*
X0104726Y0141737D01*
X0104726Y0142413D01*
X0103055Y0139711D02*
X0102379Y0139035D01*
X0101028Y0139035D01*
X0100353Y0139711D01*
X0098681Y0142413D02*
X0098006Y0143088D01*
X0096654Y0143088D01*
X0095979Y0142413D01*
X0109100Y0142413D02*
X0109100Y0141737D01*
X0109776Y0141062D01*
X0111127Y0141062D01*
X0111802Y0140386D01*
X0111802Y0139711D01*
X0111127Y0139035D01*
X0109776Y0139035D01*
X0109100Y0139711D01*
X0109100Y0140386D01*
X0109776Y0141062D01*
X0111127Y0141062D02*
X0111802Y0141737D01*
X0111802Y0142413D01*
X0111127Y0143088D01*
X0109776Y0143088D01*
X0109100Y0142413D01*
X0113474Y0141737D02*
X0114825Y0143088D01*
X0114825Y0139035D01*
X0113474Y0139035D02*
X0116176Y0139035D01*
X0117847Y0139035D02*
X0120550Y0139035D01*
X0119199Y0139035D02*
X0119199Y0143088D01*
X0117847Y0141737D01*
X0166979Y0142413D02*
X0166979Y0139711D01*
X0167654Y0139035D01*
X0169006Y0139035D01*
X0169681Y0139711D01*
X0171353Y0139711D02*
X0172028Y0139035D01*
X0173379Y0139035D01*
X0174055Y0139711D01*
X0175726Y0139711D02*
X0176402Y0139035D01*
X0177753Y0139035D01*
X0178429Y0139711D01*
X0178429Y0140386D01*
X0177753Y0141062D01*
X0176402Y0141062D01*
X0175726Y0141737D01*
X0175726Y0142413D01*
X0176402Y0143088D01*
X0177753Y0143088D01*
X0178429Y0142413D01*
X0180100Y0142413D02*
X0180100Y0141737D01*
X0180776Y0141062D01*
X0182127Y0141062D01*
X0182802Y0140386D01*
X0182802Y0139711D01*
X0182127Y0139035D01*
X0180776Y0139035D01*
X0180100Y0139711D01*
X0180100Y0140386D01*
X0180776Y0141062D01*
X0182127Y0141062D02*
X0182802Y0141737D01*
X0182802Y0142413D01*
X0182127Y0143088D01*
X0180776Y0143088D01*
X0180100Y0142413D01*
X0184474Y0141737D02*
X0185825Y0143088D01*
X0185825Y0139035D01*
X0184474Y0139035D02*
X0187176Y0139035D01*
X0188847Y0139035D02*
X0191550Y0139035D01*
X0190199Y0139035D02*
X0190199Y0143088D01*
X0188847Y0141737D01*
X0174055Y0142413D02*
X0173379Y0143088D01*
X0172028Y0143088D01*
X0171353Y0142413D01*
X0171353Y0139711D01*
X0169681Y0142413D02*
X0169006Y0143088D01*
X0167654Y0143088D01*
X0166979Y0142413D01*
X0167654Y0210035D02*
X0166979Y0210711D01*
X0166979Y0213413D01*
X0167654Y0214088D01*
X0169006Y0214088D01*
X0169681Y0213413D01*
X0171353Y0213413D02*
X0171353Y0210711D01*
X0172028Y0210035D01*
X0173379Y0210035D01*
X0174055Y0210711D01*
X0175726Y0210711D02*
X0176402Y0210035D01*
X0177753Y0210035D01*
X0178429Y0210711D01*
X0178429Y0211386D01*
X0177753Y0212062D01*
X0176402Y0212062D01*
X0175726Y0212737D01*
X0175726Y0213413D01*
X0176402Y0214088D01*
X0177753Y0214088D01*
X0178429Y0213413D01*
X0180100Y0213413D02*
X0180100Y0212737D01*
X0180776Y0212062D01*
X0182127Y0212062D01*
X0182802Y0211386D01*
X0182802Y0210711D01*
X0182127Y0210035D01*
X0180776Y0210035D01*
X0180100Y0210711D01*
X0180100Y0211386D01*
X0180776Y0212062D01*
X0182127Y0212062D02*
X0182802Y0212737D01*
X0182802Y0213413D01*
X0182127Y0214088D01*
X0180776Y0214088D01*
X0180100Y0213413D01*
X0184474Y0212737D02*
X0185825Y0214088D01*
X0185825Y0210035D01*
X0184474Y0210035D02*
X0187176Y0210035D01*
X0188847Y0210035D02*
X0191550Y0210035D01*
X0190199Y0210035D02*
X0190199Y0214088D01*
X0188847Y0212737D01*
X0174055Y0213413D02*
X0173379Y0214088D01*
X0172028Y0214088D01*
X0171353Y0213413D01*
X0169681Y0210711D02*
X0169006Y0210035D01*
X0167654Y0210035D01*
X0120550Y0210035D02*
X0117847Y0210035D01*
X0119199Y0210035D02*
X0119199Y0214088D01*
X0117847Y0212737D01*
X0116176Y0210035D02*
X0113474Y0210035D01*
X0114825Y0210035D02*
X0114825Y0214088D01*
X0113474Y0212737D01*
X0111802Y0212737D02*
X0111802Y0213413D01*
X0111127Y0214088D01*
X0109776Y0214088D01*
X0109100Y0213413D01*
X0109100Y0212737D01*
X0109776Y0212062D01*
X0111127Y0212062D01*
X0111802Y0211386D01*
X0111802Y0210711D01*
X0111127Y0210035D01*
X0109776Y0210035D01*
X0109100Y0210711D01*
X0109100Y0211386D01*
X0109776Y0212062D01*
X0111127Y0212062D02*
X0111802Y0212737D01*
X0107429Y0213413D02*
X0106753Y0214088D01*
X0105402Y0214088D01*
X0104726Y0213413D01*
X0104726Y0212737D01*
X0105402Y0212062D01*
X0106753Y0212062D01*
X0107429Y0211386D01*
X0107429Y0210711D01*
X0106753Y0210035D01*
X0105402Y0210035D01*
X0104726Y0210711D01*
X0103055Y0210711D02*
X0102379Y0210035D01*
X0101028Y0210035D01*
X0100353Y0210711D01*
X0100353Y0213413D01*
X0101028Y0214088D01*
X0102379Y0214088D01*
X0103055Y0213413D01*
X0098681Y0213413D02*
X0098006Y0214088D01*
X0096654Y0214088D01*
X0095979Y0213413D01*
X0095979Y0210711D01*
X0096654Y0210035D01*
X0098006Y0210035D01*
X0098681Y0210711D01*
X0049550Y0210035D02*
X0046847Y0210035D01*
X0048199Y0210035D02*
X0048199Y0214088D01*
X0046847Y0212737D01*
X0045176Y0210035D02*
X0042474Y0210035D01*
X0043825Y0210035D02*
X0043825Y0214088D01*
X0042474Y0212737D01*
X0040802Y0212737D02*
X0040802Y0213413D01*
X0040127Y0214088D01*
X0038776Y0214088D01*
X0038100Y0213413D01*
X0038100Y0212737D01*
X0038776Y0212062D01*
X0040127Y0212062D01*
X0040802Y0211386D01*
X0040802Y0210711D01*
X0040127Y0210035D01*
X0038776Y0210035D01*
X0038100Y0210711D01*
X0038100Y0211386D01*
X0038776Y0212062D01*
X0040127Y0212062D02*
X0040802Y0212737D01*
X0036429Y0213413D02*
X0035753Y0214088D01*
X0034402Y0214088D01*
X0033726Y0213413D01*
X0033726Y0212737D01*
X0034402Y0212062D01*
X0035753Y0212062D01*
X0036429Y0211386D01*
X0036429Y0210711D01*
X0035753Y0210035D01*
X0034402Y0210035D01*
X0033726Y0210711D01*
X0032055Y0210711D02*
X0031379Y0210035D01*
X0030028Y0210035D01*
X0029353Y0210711D01*
X0029353Y0213413D01*
X0030028Y0214088D01*
X0031379Y0214088D01*
X0032055Y0213413D01*
X0027681Y0213413D02*
X0027006Y0214088D01*
X0025654Y0214088D01*
X0024979Y0213413D01*
X0024979Y0210711D01*
X0025654Y0210035D01*
X0027006Y0210035D01*
X0027681Y0210711D01*
X0096654Y0072088D02*
X0095979Y0071413D01*
X0095979Y0068711D01*
X0096654Y0068035D01*
X0098006Y0068035D01*
X0098681Y0068711D01*
X0100353Y0068711D02*
X0101028Y0068035D01*
X0102379Y0068035D01*
X0103055Y0068711D01*
X0104726Y0068711D02*
X0105402Y0068035D01*
X0106753Y0068035D01*
X0107429Y0068711D01*
X0107429Y0069386D01*
X0106753Y0070062D01*
X0105402Y0070062D01*
X0104726Y0070737D01*
X0104726Y0071413D01*
X0105402Y0072088D01*
X0106753Y0072088D01*
X0107429Y0071413D01*
X0109100Y0071413D02*
X0109100Y0070737D01*
X0109776Y0070062D01*
X0111127Y0070062D01*
X0111802Y0069386D01*
X0111802Y0068711D01*
X0111127Y0068035D01*
X0109776Y0068035D01*
X0109100Y0068711D01*
X0109100Y0069386D01*
X0109776Y0070062D01*
X0111127Y0070062D02*
X0111802Y0070737D01*
X0111802Y0071413D01*
X0111127Y0072088D01*
X0109776Y0072088D01*
X0109100Y0071413D01*
X0113474Y0070737D02*
X0114825Y0072088D01*
X0114825Y0068035D01*
X0113474Y0068035D02*
X0116176Y0068035D01*
X0117847Y0068035D02*
X0120550Y0068035D01*
X0119199Y0068035D02*
X0119199Y0072088D01*
X0117847Y0070737D01*
X0103055Y0071413D02*
X0102379Y0072088D01*
X0101028Y0072088D01*
X0100353Y0071413D01*
X0100353Y0068711D01*
X0098681Y0071413D02*
X0098006Y0072088D01*
X0096654Y0072088D01*
X0166979Y0071413D02*
X0166979Y0068711D01*
X0167654Y0068035D01*
X0169006Y0068035D01*
X0169681Y0068711D01*
X0171353Y0068711D02*
X0172028Y0068035D01*
X0173379Y0068035D01*
X0174055Y0068711D01*
X0175726Y0068711D02*
X0176402Y0068035D01*
X0177753Y0068035D01*
X0178429Y0068711D01*
X0178429Y0069386D01*
X0177753Y0070062D01*
X0176402Y0070062D01*
X0175726Y0070737D01*
X0175726Y0071413D01*
X0176402Y0072088D01*
X0177753Y0072088D01*
X0178429Y0071413D01*
X0180100Y0071413D02*
X0180100Y0070737D01*
X0180776Y0070062D01*
X0182127Y0070062D01*
X0182802Y0069386D01*
X0182802Y0068711D01*
X0182127Y0068035D01*
X0180776Y0068035D01*
X0180100Y0068711D01*
X0180100Y0069386D01*
X0180776Y0070062D01*
X0182127Y0070062D02*
X0182802Y0070737D01*
X0182802Y0071413D01*
X0182127Y0072088D01*
X0180776Y0072088D01*
X0180100Y0071413D01*
X0184474Y0070737D02*
X0185825Y0072088D01*
X0185825Y0068035D01*
X0184474Y0068035D02*
X0187176Y0068035D01*
X0188847Y0068035D02*
X0191550Y0068035D01*
X0190199Y0068035D02*
X0190199Y0072088D01*
X0188847Y0070737D01*
X0174055Y0071413D02*
X0173379Y0072088D01*
X0172028Y0072088D01*
X0171353Y0071413D01*
X0171353Y0068711D01*
X0169681Y0071413D02*
X0169006Y0072088D01*
X0167654Y0072088D01*
X0166979Y0071413D01*
D12*
X0136250Y0045060D02*
X0133250Y0045060D01*
X0133250Y0046060D01*
X0133250Y0045060D02*
X0133250Y0044060D01*
X0133250Y0045060D02*
X0130250Y0045060D01*
X0065250Y0045060D02*
X0062250Y0045060D01*
X0062250Y0046060D01*
X0062250Y0045060D02*
X0062250Y0044060D01*
X0062250Y0045060D02*
X0059250Y0045060D01*
X0062250Y0115060D02*
X0062250Y0116060D01*
X0062250Y0117060D01*
X0062250Y0116060D02*
X0059250Y0116060D01*
X0062250Y0116060D02*
X0065250Y0116060D01*
X0130250Y0116060D02*
X0133250Y0116060D01*
X0133250Y0117060D01*
X0133250Y0116060D02*
X0133250Y0115060D01*
X0133250Y0116060D02*
X0136250Y0116060D01*
X0201250Y0116060D02*
X0204250Y0116060D01*
X0204250Y0117060D01*
X0204250Y0116060D02*
X0204250Y0115060D01*
X0204250Y0116060D02*
X0207250Y0116060D01*
X0204250Y0186060D02*
X0204250Y0187060D01*
X0204250Y0188060D01*
X0204250Y0187060D02*
X0207250Y0187060D01*
X0204250Y0187060D02*
X0201250Y0187060D01*
X0136250Y0187060D02*
X0133250Y0187060D01*
X0133250Y0188060D01*
X0133250Y0187060D02*
X0133250Y0186060D01*
X0133250Y0187060D02*
X0130250Y0187060D01*
X0065250Y0187060D02*
X0062250Y0187060D01*
X0062250Y0188060D01*
X0062250Y0187060D02*
X0062250Y0186060D01*
X0062250Y0187060D02*
X0059250Y0187060D01*
X0201250Y0045060D02*
X0204250Y0045060D01*
X0204250Y0046060D01*
X0204250Y0045060D02*
X0204250Y0044060D01*
X0204250Y0045060D02*
X0207250Y0045060D01*
D13*
X0170195Y0037973D03*
X0170195Y0108973D03*
X0170195Y0179973D03*
X0099195Y0179973D03*
X0099195Y0108973D03*
X0099195Y0037973D03*
X0028195Y0037973D03*
X0028195Y0108973D03*
X0028195Y0179973D03*
D14*
X0028982Y0180761D02*
X0028982Y0193359D01*
X0045518Y0193359D01*
X0045518Y0180761D01*
X0028982Y0180761D01*
X0028982Y0122359D02*
X0045518Y0122359D01*
X0045518Y0109761D01*
X0028982Y0109761D01*
X0028982Y0122359D01*
X0028982Y0051359D02*
X0045518Y0051359D01*
X0045518Y0038761D01*
X0028982Y0038761D01*
X0028982Y0051359D01*
X0099982Y0051359D02*
X0099982Y0038761D01*
X0116518Y0038761D01*
X0116518Y0051359D01*
X0099982Y0051359D01*
X0099982Y0109761D02*
X0099982Y0122359D01*
X0116518Y0122359D01*
X0116518Y0109761D01*
X0099982Y0109761D01*
X0170982Y0109761D02*
X0170982Y0122359D01*
X0187518Y0122359D01*
X0187518Y0109761D01*
X0170982Y0109761D01*
X0170982Y0051359D02*
X0187518Y0051359D01*
X0187518Y0038761D01*
X0170982Y0038761D01*
X0170982Y0051359D01*
X0170982Y0180761D02*
X0170982Y0193359D01*
X0187518Y0193359D01*
X0187518Y0180761D01*
X0170982Y0180761D01*
X0116518Y0180761D02*
X0116518Y0193359D01*
X0099982Y0193359D01*
X0099982Y0180761D01*
X0116518Y0180761D01*
M02*
