G75*
%MOIN*%
%OFA0B0*%
%FSLAX25Y25*%
%IPPOS*%
%LPD*%
%AMOC8*
5,1,8,0,0,1.08239X$1,22.5*
%
%ADD10C,0.00800*%
%ADD11C,0.07400*%
%ADD12R,0.05000X0.02500*%
%ADD13C,0.01000*%
%ADD14C,0.02900*%
%ADD15C,0.00700*%
D10*
X0067150Y0040435D02*
X0070353Y0042570D01*
X0069285Y0044118D02*
X0070353Y0045186D01*
X0067150Y0045186D01*
X0067150Y0044118D02*
X0067150Y0046254D01*
X0067684Y0047802D02*
X0067150Y0048335D01*
X0067150Y0049403D01*
X0067684Y0049937D01*
X0069819Y0049937D01*
X0067684Y0047802D01*
X0069819Y0047802D01*
X0070353Y0048335D01*
X0070353Y0049403D01*
X0069819Y0049937D01*
X0067150Y0042570D02*
X0070353Y0040435D01*
X0138150Y0040435D02*
X0141353Y0042570D01*
X0140285Y0044118D02*
X0141353Y0045186D01*
X0138150Y0045186D01*
X0138150Y0044118D02*
X0138150Y0046254D01*
X0138684Y0047802D02*
X0140819Y0049937D01*
X0138684Y0049937D01*
X0138150Y0049403D01*
X0138150Y0048335D01*
X0138684Y0047802D01*
X0140819Y0047802D01*
X0141353Y0048335D01*
X0141353Y0049403D01*
X0140819Y0049937D01*
X0138150Y0042570D02*
X0141353Y0040435D01*
X0209150Y0040435D02*
X0212353Y0042570D01*
X0211285Y0044118D02*
X0212353Y0045186D01*
X0209150Y0045186D01*
X0209150Y0044118D02*
X0209150Y0046254D01*
X0209684Y0047802D02*
X0211819Y0049937D01*
X0209684Y0049937D01*
X0209150Y0049403D01*
X0209150Y0048335D01*
X0209684Y0047802D01*
X0211819Y0047802D01*
X0212353Y0048335D01*
X0212353Y0049403D01*
X0211819Y0049937D01*
X0209150Y0042570D02*
X0212353Y0040435D01*
X0212353Y0111435D02*
X0209150Y0113570D01*
X0209150Y0115118D02*
X0209150Y0117254D01*
X0209150Y0116186D02*
X0212353Y0116186D01*
X0211285Y0115118D01*
X0212353Y0113570D02*
X0209150Y0111435D01*
X0209684Y0118802D02*
X0211819Y0120937D01*
X0209684Y0120937D01*
X0209150Y0120403D01*
X0209150Y0119335D01*
X0209684Y0118802D01*
X0211819Y0118802D01*
X0212353Y0119335D01*
X0212353Y0120403D01*
X0211819Y0120937D01*
X0212353Y0182435D02*
X0209150Y0184570D01*
X0209150Y0186118D02*
X0209150Y0188254D01*
X0209150Y0187186D02*
X0212353Y0187186D01*
X0211285Y0186118D01*
X0212353Y0184570D02*
X0209150Y0182435D01*
X0209684Y0189802D02*
X0211819Y0191937D01*
X0209684Y0191937D01*
X0209150Y0191403D01*
X0209150Y0190335D01*
X0209684Y0189802D01*
X0211819Y0189802D01*
X0212353Y0190335D01*
X0212353Y0191403D01*
X0211819Y0191937D01*
X0141353Y0191403D02*
X0141353Y0190335D01*
X0140819Y0189802D01*
X0138684Y0189802D01*
X0140819Y0191937D01*
X0138684Y0191937D01*
X0138150Y0191403D01*
X0138150Y0190335D01*
X0138684Y0189802D01*
X0138150Y0188254D02*
X0138150Y0186118D01*
X0138150Y0187186D02*
X0141353Y0187186D01*
X0140285Y0186118D01*
X0141353Y0184570D02*
X0138150Y0182435D01*
X0138150Y0184570D02*
X0141353Y0182435D01*
X0141353Y0191403D02*
X0140819Y0191937D01*
X0070353Y0191403D02*
X0070353Y0190335D01*
X0069819Y0189802D01*
X0067684Y0189802D01*
X0069819Y0191937D01*
X0067684Y0191937D01*
X0067150Y0191403D01*
X0067150Y0190335D01*
X0067684Y0189802D01*
X0067150Y0188254D02*
X0067150Y0186118D01*
X0067150Y0187186D02*
X0070353Y0187186D01*
X0069285Y0186118D01*
X0070353Y0184570D02*
X0067150Y0182435D01*
X0067150Y0184570D02*
X0070353Y0182435D01*
X0070353Y0191403D02*
X0069819Y0191937D01*
X0069819Y0120937D02*
X0067684Y0120937D01*
X0067150Y0120403D01*
X0067150Y0119335D01*
X0067684Y0118802D01*
X0069819Y0120937D01*
X0070353Y0120403D01*
X0070353Y0119335D01*
X0069819Y0118802D01*
X0067684Y0118802D01*
X0067150Y0117254D02*
X0067150Y0115118D01*
X0067150Y0116186D02*
X0070353Y0116186D01*
X0069285Y0115118D01*
X0070353Y0113570D02*
X0067150Y0111435D01*
X0067150Y0113570D02*
X0070353Y0111435D01*
X0138150Y0111435D02*
X0141353Y0113570D01*
X0140285Y0115118D02*
X0141353Y0116186D01*
X0138150Y0116186D01*
X0138150Y0115118D02*
X0138150Y0117254D01*
X0138684Y0118802D02*
X0140819Y0120937D01*
X0138684Y0120937D01*
X0138150Y0120403D01*
X0138150Y0119335D01*
X0138684Y0118802D01*
X0140819Y0118802D01*
X0141353Y0119335D01*
X0141353Y0120403D01*
X0140819Y0120937D01*
X0138150Y0113570D02*
X0141353Y0111435D01*
D11*
X0007250Y0010060D03*
X0017250Y0010060D03*
X0027250Y0010060D03*
X0037250Y0010060D03*
X0047250Y0010060D03*
X0057250Y0010060D03*
X0067250Y0010060D03*
X0078250Y0010060D03*
X0088250Y0010060D03*
X0098250Y0010060D03*
X0108250Y0010060D03*
X0118250Y0010060D03*
X0128250Y0010060D03*
X0138250Y0010060D03*
X0149250Y0010060D03*
X0159250Y0010060D03*
X0169250Y0010060D03*
X0179250Y0010060D03*
X0189250Y0010060D03*
X0199250Y0010060D03*
X0209250Y0010060D03*
X0204250Y0040060D03*
X0204250Y0050060D03*
X0199250Y0081060D03*
X0189250Y0081060D03*
X0179250Y0081060D03*
X0169250Y0081060D03*
X0159250Y0081060D03*
X0149250Y0081060D03*
X0138250Y0081060D03*
X0128250Y0081060D03*
X0118250Y0081060D03*
X0108250Y0081060D03*
X0098250Y0081060D03*
X0088250Y0081060D03*
X0078250Y0081060D03*
X0067250Y0081060D03*
X0057250Y0081060D03*
X0047250Y0081060D03*
X0037250Y0081060D03*
X0027250Y0081060D03*
X0017250Y0081060D03*
X0007250Y0081060D03*
X0062250Y0111060D03*
X0062250Y0121060D03*
X0057250Y0152060D03*
X0067250Y0152060D03*
X0078250Y0152060D03*
X0088250Y0152060D03*
X0098250Y0152060D03*
X0108250Y0152060D03*
X0118250Y0152060D03*
X0128250Y0152060D03*
X0138250Y0152060D03*
X0149250Y0152060D03*
X0159250Y0152060D03*
X0169250Y0152060D03*
X0179250Y0152060D03*
X0189250Y0152060D03*
X0199250Y0152060D03*
X0209250Y0152060D03*
X0204250Y0182060D03*
X0204250Y0192060D03*
X0204250Y0121060D03*
X0204250Y0111060D03*
X0209250Y0081060D03*
X0133250Y0111060D03*
X0133250Y0121060D03*
X0133250Y0182060D03*
X0133250Y0192060D03*
X0062250Y0192060D03*
X0062250Y0182060D03*
X0047250Y0152060D03*
X0037250Y0152060D03*
X0027250Y0152060D03*
X0017250Y0152060D03*
X0007250Y0152060D03*
X0062250Y0050060D03*
X0062250Y0040060D03*
X0133250Y0040060D03*
X0133250Y0050060D03*
D12*
X0154250Y0049060D03*
X0154250Y0045060D03*
X0154250Y0041060D03*
X0169250Y0043460D03*
X0169250Y0046660D03*
X0154250Y0112060D03*
X0154250Y0116060D03*
X0154250Y0120060D03*
X0169250Y0117660D03*
X0169250Y0114460D03*
X0154250Y0183060D03*
X0154250Y0187060D03*
X0154250Y0191060D03*
X0169250Y0188660D03*
X0169250Y0185460D03*
X0098250Y0185460D03*
X0098250Y0188660D03*
X0083250Y0187060D03*
X0083250Y0191060D03*
X0083250Y0183060D03*
X0027250Y0185460D03*
X0027250Y0188660D03*
X0012250Y0187060D03*
X0012250Y0191060D03*
X0012250Y0183060D03*
X0012250Y0120060D03*
X0012250Y0116060D03*
X0012250Y0112060D03*
X0027250Y0114460D03*
X0027250Y0117660D03*
X0083250Y0116060D03*
X0083250Y0112060D03*
X0083250Y0120060D03*
X0098250Y0117660D03*
X0098250Y0114460D03*
X0083250Y0049060D03*
X0083250Y0045060D03*
X0083250Y0041060D03*
X0098250Y0043460D03*
X0098250Y0046660D03*
X0027250Y0046660D03*
X0027250Y0043460D03*
X0012250Y0045060D03*
X0012250Y0049060D03*
X0012250Y0041060D03*
D13*
X0012250Y0045060D01*
X0012250Y0049060D01*
X0013800Y0051510D02*
X0013800Y0054202D01*
X0012992Y0055010D01*
X0017052Y0055010D01*
X0017749Y0054313D01*
X0018723Y0053910D01*
X0019777Y0053910D01*
X0020751Y0054313D01*
X0021497Y0055059D01*
X0021900Y0056033D01*
X0021900Y0057087D01*
X0021497Y0058061D01*
X0020751Y0058807D01*
X0019777Y0059210D01*
X0019124Y0059210D01*
X0019173Y0059251D01*
X0020742Y0061969D01*
X0021287Y0065060D01*
X0020742Y0068151D01*
X0019173Y0070869D01*
X0019173Y0070869D01*
X0016769Y0072887D01*
X0016769Y0072887D01*
X0015193Y0073460D01*
X0059307Y0073460D01*
X0057731Y0072887D01*
X0055327Y0070869D01*
X0053758Y0068151D01*
X0053758Y0068151D01*
X0053213Y0065060D01*
X0053758Y0061969D01*
X0055327Y0059251D01*
X0055327Y0059251D01*
X0057731Y0057233D01*
X0060681Y0056160D01*
X0063819Y0056160D01*
X0066769Y0057233D01*
X0069173Y0059251D01*
X0070650Y0061809D01*
X0070650Y0051368D01*
X0070482Y0051537D01*
X0067021Y0051537D01*
X0066965Y0051481D01*
X0066404Y0052836D01*
X0065026Y0054214D01*
X0063225Y0054960D01*
X0061275Y0054960D01*
X0059474Y0054214D01*
X0058096Y0052836D01*
X0057588Y0051610D01*
X0056392Y0051610D01*
X0049800Y0058202D01*
X0048892Y0059110D01*
X0038108Y0059110D01*
X0037200Y0058202D01*
X0036608Y0057610D01*
X0035700Y0056702D01*
X0035700Y0055758D01*
X0035003Y0055061D01*
X0034600Y0054087D01*
X0034600Y0053033D01*
X0035003Y0052059D01*
X0035749Y0051313D01*
X0036723Y0050910D01*
X0037777Y0050910D01*
X0038751Y0051313D01*
X0039497Y0052059D01*
X0039900Y0053033D01*
X0039900Y0054087D01*
X0039497Y0055061D01*
X0038970Y0055588D01*
X0039392Y0056010D01*
X0043740Y0056010D01*
X0043249Y0055807D01*
X0042503Y0055061D01*
X0042100Y0054087D01*
X0042100Y0053102D01*
X0040700Y0051702D01*
X0040700Y0022258D01*
X0040003Y0021561D01*
X0039600Y0020587D01*
X0039600Y0019902D01*
X0033800Y0025702D01*
X0033800Y0050702D01*
X0029900Y0054602D01*
X0029900Y0055587D01*
X0029497Y0056561D01*
X0028751Y0057307D01*
X0027777Y0057710D01*
X0026723Y0057710D01*
X0025749Y0057307D01*
X0025003Y0056561D01*
X0024600Y0055587D01*
X0024600Y0054533D01*
X0025003Y0053559D01*
X0025749Y0052813D01*
X0026723Y0052410D01*
X0027708Y0052410D01*
X0030700Y0049418D01*
X0030700Y0049081D01*
X0030671Y0049110D01*
X0030329Y0049308D01*
X0029947Y0049410D01*
X0027375Y0049410D01*
X0027375Y0046785D01*
X0027125Y0046785D01*
X0027125Y0049410D01*
X0024553Y0049410D01*
X0024171Y0049308D01*
X0023829Y0049110D01*
X0023550Y0048831D01*
X0023352Y0048489D01*
X0023250Y0048107D01*
X0023250Y0046785D01*
X0027125Y0046785D01*
X0027125Y0046535D01*
X0023250Y0046535D01*
X0023250Y0045212D01*
X0023352Y0044831D01*
X0023550Y0044489D01*
X0023550Y0044489D01*
X0023550Y0041713D01*
X0024253Y0041010D01*
X0025700Y0041010D01*
X0025700Y0037258D01*
X0025003Y0036561D01*
X0025000Y0036553D01*
X0024997Y0036561D01*
X0024251Y0037307D01*
X0023277Y0037710D01*
X0022223Y0037710D01*
X0021249Y0037307D01*
X0020552Y0036610D01*
X0016608Y0036610D01*
X0015700Y0035702D01*
X0011608Y0031610D01*
X0007892Y0031610D01*
X0007092Y0032410D01*
X0007777Y0032410D01*
X0008751Y0032813D01*
X0009448Y0033510D01*
X0011392Y0033510D01*
X0012892Y0035010D01*
X0013800Y0035918D01*
X0013800Y0038610D01*
X0015247Y0038610D01*
X0015950Y0039313D01*
X0015950Y0042807D01*
X0015697Y0043060D01*
X0015950Y0043313D01*
X0015950Y0046807D01*
X0015697Y0047060D01*
X0015950Y0047313D01*
X0015950Y0050807D01*
X0015247Y0051510D01*
X0013800Y0051510D01*
X0013800Y0051990D02*
X0028128Y0051990D01*
X0029126Y0050992D02*
X0015766Y0050992D01*
X0015950Y0049993D02*
X0030125Y0049993D01*
X0027375Y0048994D02*
X0027125Y0048994D01*
X0027125Y0047996D02*
X0027375Y0047996D01*
X0027375Y0046997D02*
X0027125Y0046997D01*
X0023250Y0046997D02*
X0015760Y0046997D01*
X0015950Y0045999D02*
X0023250Y0045999D01*
X0023307Y0045000D02*
X0015950Y0045000D01*
X0015950Y0044002D02*
X0023550Y0044002D01*
X0023550Y0043003D02*
X0015754Y0043003D01*
X0015950Y0042005D02*
X0023550Y0042005D01*
X0025700Y0041006D02*
X0015950Y0041006D01*
X0015950Y0040008D02*
X0025700Y0040008D01*
X0025700Y0039009D02*
X0015646Y0039009D01*
X0013800Y0038011D02*
X0025700Y0038011D01*
X0025455Y0037012D02*
X0024545Y0037012D01*
X0020955Y0037012D02*
X0013800Y0037012D01*
X0013800Y0036014D02*
X0016012Y0036014D01*
X0015013Y0035015D02*
X0012897Y0035015D01*
X0011899Y0034017D02*
X0014015Y0034017D01*
X0013016Y0033018D02*
X0008956Y0033018D01*
X0007482Y0032020D02*
X0012018Y0032020D01*
X0015950Y0047996D02*
X0023250Y0047996D01*
X0023713Y0048994D02*
X0015950Y0048994D01*
X0013800Y0052989D02*
X0025574Y0052989D01*
X0024826Y0053987D02*
X0019963Y0053987D01*
X0018537Y0053987D02*
X0013800Y0053987D01*
X0013016Y0054986D02*
X0017077Y0054986D01*
X0019173Y0059251D02*
X0019173Y0059251D01*
X0019173Y0059251D01*
X0019593Y0059978D02*
X0054907Y0059978D01*
X0054331Y0060977D02*
X0020169Y0060977D01*
X0020742Y0061969D02*
X0020742Y0061969D01*
X0020743Y0061975D02*
X0053757Y0061975D01*
X0053758Y0061969D02*
X0053758Y0061969D01*
X0053581Y0062974D02*
X0020919Y0062974D01*
X0021095Y0063972D02*
X0053405Y0063972D01*
X0053228Y0064971D02*
X0021272Y0064971D01*
X0021287Y0065060D02*
X0021287Y0065060D01*
X0021127Y0065969D02*
X0053373Y0065969D01*
X0053213Y0065060D02*
X0053213Y0065060D01*
X0053549Y0066968D02*
X0020951Y0066968D01*
X0020775Y0067966D02*
X0053725Y0067966D01*
X0054228Y0068965D02*
X0020272Y0068965D01*
X0020742Y0068151D02*
X0020742Y0068151D01*
X0019696Y0069963D02*
X0054804Y0069963D01*
X0055327Y0070869D02*
X0055327Y0070869D01*
X0055327Y0070869D01*
X0055438Y0070962D02*
X0019063Y0070962D01*
X0017873Y0071960D02*
X0056627Y0071960D01*
X0057731Y0072887D02*
X0057731Y0072887D01*
X0057930Y0072959D02*
X0016570Y0072959D01*
X0020333Y0058980D02*
X0037978Y0058980D01*
X0036979Y0057981D02*
X0021530Y0057981D01*
X0021900Y0056983D02*
X0025425Y0056983D01*
X0024764Y0055984D02*
X0021880Y0055984D01*
X0021423Y0054986D02*
X0024600Y0054986D01*
X0029075Y0056983D02*
X0035981Y0056983D01*
X0035700Y0055984D02*
X0029736Y0055984D01*
X0029900Y0054986D02*
X0034972Y0054986D01*
X0034600Y0053987D02*
X0030515Y0053987D01*
X0031513Y0052989D02*
X0034618Y0052989D01*
X0035072Y0051990D02*
X0032512Y0051990D01*
X0033510Y0050992D02*
X0036526Y0050992D01*
X0037974Y0050992D02*
X0040700Y0050992D01*
X0040700Y0049993D02*
X0033800Y0049993D01*
X0033800Y0048994D02*
X0040700Y0048994D01*
X0040700Y0047996D02*
X0033800Y0047996D01*
X0033800Y0046997D02*
X0040700Y0046997D01*
X0040700Y0045999D02*
X0033800Y0045999D01*
X0033800Y0045000D02*
X0040700Y0045000D01*
X0040700Y0044002D02*
X0033800Y0044002D01*
X0033800Y0043003D02*
X0040700Y0043003D01*
X0040700Y0042005D02*
X0033800Y0042005D01*
X0033800Y0041006D02*
X0040700Y0041006D01*
X0040700Y0040008D02*
X0033800Y0040008D01*
X0033800Y0039009D02*
X0040700Y0039009D01*
X0040700Y0038011D02*
X0033800Y0038011D01*
X0033800Y0037012D02*
X0040700Y0037012D01*
X0040700Y0036014D02*
X0033800Y0036014D01*
X0033800Y0035015D02*
X0040700Y0035015D01*
X0040700Y0034017D02*
X0033800Y0034017D01*
X0033800Y0033018D02*
X0040700Y0033018D01*
X0040700Y0032020D02*
X0033800Y0032020D01*
X0033800Y0031021D02*
X0040700Y0031021D01*
X0040700Y0030023D02*
X0033800Y0030023D01*
X0033800Y0029024D02*
X0040700Y0029024D01*
X0040700Y0028026D02*
X0033800Y0028026D01*
X0033800Y0027027D02*
X0040700Y0027027D01*
X0040700Y0026029D02*
X0033800Y0026029D01*
X0034472Y0025030D02*
X0040700Y0025030D01*
X0040700Y0024032D02*
X0035470Y0024032D01*
X0036469Y0023033D02*
X0040700Y0023033D01*
X0040477Y0022035D02*
X0037467Y0022035D01*
X0038466Y0021036D02*
X0039786Y0021036D01*
X0039600Y0020038D02*
X0039464Y0020038D01*
X0042092Y0017410D02*
X0042777Y0017410D01*
X0043751Y0017813D01*
X0044497Y0018559D01*
X0044900Y0019533D01*
X0044900Y0020587D01*
X0044497Y0021561D01*
X0043800Y0022258D01*
X0043800Y0050418D01*
X0044292Y0050910D01*
X0045277Y0050910D01*
X0046251Y0051313D01*
X0046997Y0052059D01*
X0047400Y0053033D01*
X0047400Y0054087D01*
X0046997Y0055061D01*
X0046251Y0055807D01*
X0045760Y0056010D01*
X0047608Y0056010D01*
X0055108Y0048510D01*
X0057588Y0048510D01*
X0058096Y0047284D01*
X0059474Y0045906D01*
X0061275Y0045160D01*
X0063225Y0045160D01*
X0065026Y0045906D01*
X0065550Y0046430D01*
X0065550Y0043690D01*
X0065026Y0044214D01*
X0063225Y0044960D01*
X0061275Y0044960D01*
X0059474Y0044214D01*
X0058096Y0042836D01*
X0057350Y0041035D01*
X0057350Y0039085D01*
X0057547Y0038610D01*
X0049448Y0038610D01*
X0048751Y0039307D01*
X0047777Y0039710D01*
X0046723Y0039710D01*
X0045749Y0039307D01*
X0045003Y0038561D01*
X0044600Y0037587D01*
X0044600Y0036533D01*
X0045003Y0035559D01*
X0045749Y0034813D01*
X0046723Y0034410D01*
X0047777Y0034410D01*
X0048751Y0034813D01*
X0049448Y0035510D01*
X0059892Y0035510D01*
X0060050Y0035668D01*
X0061275Y0035160D01*
X0063225Y0035160D01*
X0065026Y0035906D01*
X0066404Y0037284D01*
X0067042Y0038825D01*
X0067486Y0038736D01*
X0068751Y0039580D01*
X0070017Y0038736D01*
X0070650Y0038863D01*
X0070650Y0014014D01*
X0070638Y0014026D01*
X0069975Y0014507D01*
X0069246Y0014879D01*
X0068468Y0015132D01*
X0067750Y0015246D01*
X0067750Y0010560D01*
X0066750Y0010560D01*
X0066750Y0015246D01*
X0066032Y0015132D01*
X0065254Y0014879D01*
X0064525Y0014507D01*
X0063862Y0014026D01*
X0063284Y0013448D01*
X0062803Y0012785D01*
X0062431Y0012056D01*
X0062178Y0011278D01*
X0062142Y0011053D01*
X0061404Y0012836D01*
X0060026Y0014214D01*
X0058225Y0014960D01*
X0056275Y0014960D01*
X0054474Y0014214D01*
X0053096Y0012836D01*
X0052350Y0011035D01*
X0052350Y0009085D01*
X0053096Y0007284D01*
X0053720Y0006660D01*
X0050780Y0006660D01*
X0051404Y0007284D01*
X0052150Y0009085D01*
X0052150Y0011035D01*
X0051404Y0012836D01*
X0050026Y0014214D01*
X0048225Y0014960D01*
X0046275Y0014960D01*
X0045050Y0014452D01*
X0042092Y0017410D01*
X0042460Y0017042D02*
X0070650Y0017042D01*
X0070650Y0016044D02*
X0043458Y0016044D01*
X0044457Y0015045D02*
X0065765Y0015045D01*
X0066750Y0015045D02*
X0067750Y0015045D01*
X0068735Y0015045D02*
X0070650Y0015045D01*
X0070610Y0014047D02*
X0070650Y0014047D01*
X0067750Y0014047D02*
X0066750Y0014047D01*
X0066750Y0013048D02*
X0067750Y0013048D01*
X0067750Y0012050D02*
X0066750Y0012050D01*
X0066750Y0011051D02*
X0067750Y0011051D01*
X0063890Y0014047D02*
X0060193Y0014047D01*
X0061192Y0013048D02*
X0062993Y0013048D01*
X0062429Y0012050D02*
X0061730Y0012050D01*
X0054307Y0014047D02*
X0050193Y0014047D01*
X0051192Y0013048D02*
X0053308Y0013048D01*
X0052770Y0012050D02*
X0051730Y0012050D01*
X0052143Y0011051D02*
X0052357Y0011051D01*
X0052350Y0010053D02*
X0052150Y0010053D01*
X0052137Y0009054D02*
X0052363Y0009054D01*
X0052777Y0008056D02*
X0051723Y0008056D01*
X0051177Y0007057D02*
X0053323Y0007057D01*
X0043978Y0018041D02*
X0070650Y0018041D01*
X0070650Y0019039D02*
X0044695Y0019039D01*
X0044900Y0020038D02*
X0070650Y0020038D01*
X0070650Y0021036D02*
X0044714Y0021036D01*
X0044023Y0022035D02*
X0070650Y0022035D01*
X0070650Y0023033D02*
X0043800Y0023033D01*
X0043800Y0024032D02*
X0070650Y0024032D01*
X0070650Y0025030D02*
X0043800Y0025030D01*
X0043800Y0026029D02*
X0070650Y0026029D01*
X0070650Y0027027D02*
X0043800Y0027027D01*
X0043800Y0028026D02*
X0070650Y0028026D01*
X0070650Y0029024D02*
X0043800Y0029024D01*
X0043800Y0030023D02*
X0070650Y0030023D01*
X0070650Y0031021D02*
X0043800Y0031021D01*
X0043800Y0032020D02*
X0070650Y0032020D01*
X0070650Y0033018D02*
X0043800Y0033018D01*
X0043800Y0034017D02*
X0070650Y0034017D01*
X0070650Y0035015D02*
X0048953Y0035015D01*
X0045547Y0035015D02*
X0043800Y0035015D01*
X0043800Y0036014D02*
X0044815Y0036014D01*
X0044600Y0037012D02*
X0043800Y0037012D01*
X0043800Y0038011D02*
X0044776Y0038011D01*
X0045452Y0039009D02*
X0043800Y0039009D01*
X0043800Y0040008D02*
X0057350Y0040008D01*
X0057350Y0041006D02*
X0043800Y0041006D01*
X0043800Y0042005D02*
X0057752Y0042005D01*
X0058264Y0043003D02*
X0043800Y0043003D01*
X0043800Y0044002D02*
X0059262Y0044002D01*
X0059381Y0045999D02*
X0043800Y0045999D01*
X0043800Y0046997D02*
X0058383Y0046997D01*
X0057801Y0047996D02*
X0043800Y0047996D01*
X0043800Y0048994D02*
X0054623Y0048994D01*
X0053625Y0049993D02*
X0043800Y0049993D01*
X0045474Y0050992D02*
X0052626Y0050992D01*
X0051628Y0051990D02*
X0046928Y0051990D01*
X0047382Y0052989D02*
X0050629Y0052989D01*
X0049631Y0053987D02*
X0047400Y0053987D01*
X0047028Y0054986D02*
X0048632Y0054986D01*
X0047634Y0055984D02*
X0045823Y0055984D01*
X0043677Y0055984D02*
X0039366Y0055984D01*
X0039528Y0054986D02*
X0042472Y0054986D01*
X0042100Y0053987D02*
X0039900Y0053987D01*
X0039882Y0052989D02*
X0041987Y0052989D01*
X0040988Y0051990D02*
X0039428Y0051990D01*
X0043800Y0045000D02*
X0065550Y0045000D01*
X0065550Y0044002D02*
X0065238Y0044002D01*
X0065119Y0045999D02*
X0065550Y0045999D01*
X0066754Y0051990D02*
X0070650Y0051990D01*
X0070650Y0052989D02*
X0066251Y0052989D01*
X0065253Y0053987D02*
X0070650Y0053987D01*
X0070650Y0054986D02*
X0053016Y0054986D01*
X0052018Y0055984D02*
X0070650Y0055984D01*
X0070650Y0056983D02*
X0066079Y0056983D01*
X0066769Y0057233D02*
X0066769Y0057233D01*
X0067660Y0057981D02*
X0070650Y0057981D01*
X0070650Y0058980D02*
X0068850Y0058980D01*
X0069173Y0059251D02*
X0069173Y0059251D01*
X0069173Y0059251D01*
X0069593Y0059978D02*
X0070650Y0059978D01*
X0070650Y0060977D02*
X0070169Y0060977D01*
X0059247Y0053987D02*
X0054015Y0053987D01*
X0055013Y0052989D02*
X0058249Y0052989D01*
X0057746Y0051990D02*
X0056012Y0051990D01*
X0058421Y0056983D02*
X0051019Y0056983D01*
X0050021Y0057981D02*
X0056840Y0057981D01*
X0057731Y0057233D02*
X0057731Y0057233D01*
X0055650Y0058980D02*
X0049022Y0058980D01*
X0050780Y0077660D02*
X0051404Y0078284D01*
X0052150Y0080085D01*
X0052150Y0082035D01*
X0051404Y0083836D01*
X0050026Y0085214D01*
X0048225Y0085960D01*
X0046275Y0085960D01*
X0045050Y0085452D01*
X0042092Y0088410D01*
X0042777Y0088410D01*
X0043751Y0088813D01*
X0044497Y0089559D01*
X0044900Y0090533D01*
X0044900Y0091587D01*
X0044497Y0092561D01*
X0043800Y0093258D01*
X0043800Y0121418D01*
X0044292Y0121910D01*
X0045277Y0121910D01*
X0046251Y0122313D01*
X0046997Y0123059D01*
X0047400Y0124033D01*
X0047400Y0125087D01*
X0046997Y0126061D01*
X0046251Y0126807D01*
X0045760Y0127010D01*
X0047608Y0127010D01*
X0055108Y0119510D01*
X0057588Y0119510D01*
X0058096Y0118284D01*
X0059474Y0116906D01*
X0061275Y0116160D01*
X0063225Y0116160D01*
X0065026Y0116906D01*
X0065550Y0117430D01*
X0065550Y0114690D01*
X0065026Y0115214D01*
X0063225Y0115960D01*
X0061275Y0115960D01*
X0059474Y0115214D01*
X0058096Y0113836D01*
X0057350Y0112035D01*
X0057350Y0110085D01*
X0057547Y0109610D01*
X0049448Y0109610D01*
X0048751Y0110307D01*
X0047777Y0110710D01*
X0046723Y0110710D01*
X0045749Y0110307D01*
X0045003Y0109561D01*
X0044600Y0108587D01*
X0044600Y0107533D01*
X0045003Y0106559D01*
X0045749Y0105813D01*
X0046723Y0105410D01*
X0047777Y0105410D01*
X0048751Y0105813D01*
X0049448Y0106510D01*
X0059892Y0106510D01*
X0060050Y0106668D01*
X0061275Y0106160D01*
X0063225Y0106160D01*
X0065026Y0106906D01*
X0066404Y0108284D01*
X0067042Y0109825D01*
X0067486Y0109736D01*
X0068751Y0110580D01*
X0070017Y0109736D01*
X0070650Y0109863D01*
X0070650Y0085014D01*
X0070638Y0085026D01*
X0069975Y0085507D01*
X0069246Y0085879D01*
X0068468Y0086132D01*
X0067750Y0086246D01*
X0067750Y0081560D01*
X0066750Y0081560D01*
X0066750Y0086246D01*
X0066032Y0086132D01*
X0065254Y0085879D01*
X0064525Y0085507D01*
X0063862Y0085026D01*
X0063284Y0084448D01*
X0062803Y0083785D01*
X0062431Y0083056D01*
X0062178Y0082278D01*
X0062142Y0082053D01*
X0061404Y0083836D01*
X0060026Y0085214D01*
X0058225Y0085960D01*
X0056275Y0085960D01*
X0054474Y0085214D01*
X0053096Y0083836D01*
X0052350Y0082035D01*
X0052350Y0080085D01*
X0053096Y0078284D01*
X0053720Y0077660D01*
X0050780Y0077660D01*
X0051071Y0077951D02*
X0053429Y0077951D01*
X0052820Y0078950D02*
X0051680Y0078950D01*
X0052093Y0079948D02*
X0052407Y0079948D01*
X0052350Y0080947D02*
X0052150Y0080947D01*
X0052150Y0081945D02*
X0052350Y0081945D01*
X0052727Y0082944D02*
X0051773Y0082944D01*
X0051297Y0083942D02*
X0053203Y0083942D01*
X0054201Y0084941D02*
X0050299Y0084941D01*
X0048274Y0085939D02*
X0056226Y0085939D01*
X0058274Y0085939D02*
X0065440Y0085939D01*
X0066750Y0085939D02*
X0067750Y0085939D01*
X0067750Y0084941D02*
X0066750Y0084941D01*
X0066750Y0083942D02*
X0067750Y0083942D01*
X0067750Y0082944D02*
X0066750Y0082944D01*
X0066750Y0081945D02*
X0067750Y0081945D01*
X0069060Y0085939D02*
X0070650Y0085939D01*
X0070650Y0086938D02*
X0043564Y0086938D01*
X0042566Y0087936D02*
X0070650Y0087936D01*
X0070650Y0088935D02*
X0043873Y0088935D01*
X0044652Y0089933D02*
X0070650Y0089933D01*
X0070650Y0090932D02*
X0044900Y0090932D01*
X0044758Y0091930D02*
X0070650Y0091930D01*
X0070650Y0092929D02*
X0044129Y0092929D01*
X0043800Y0093927D02*
X0070650Y0093927D01*
X0070650Y0094926D02*
X0043800Y0094926D01*
X0043800Y0095925D02*
X0070650Y0095925D01*
X0070650Y0096923D02*
X0043800Y0096923D01*
X0043800Y0097922D02*
X0070650Y0097922D01*
X0070650Y0098920D02*
X0043800Y0098920D01*
X0043800Y0099919D02*
X0070650Y0099919D01*
X0070650Y0100917D02*
X0043800Y0100917D01*
X0043800Y0101916D02*
X0070650Y0101916D01*
X0070650Y0102914D02*
X0043800Y0102914D01*
X0043800Y0103913D02*
X0070650Y0103913D01*
X0070650Y0104911D02*
X0043800Y0104911D01*
X0043800Y0105910D02*
X0045653Y0105910D01*
X0044859Y0106908D02*
X0043800Y0106908D01*
X0043800Y0107907D02*
X0044600Y0107907D01*
X0044732Y0108905D02*
X0043800Y0108905D01*
X0043800Y0109904D02*
X0045346Y0109904D01*
X0043800Y0110902D02*
X0057350Y0110902D01*
X0057350Y0111901D02*
X0043800Y0111901D01*
X0043800Y0112899D02*
X0057708Y0112899D01*
X0058158Y0113898D02*
X0043800Y0113898D01*
X0043800Y0114896D02*
X0059157Y0114896D01*
X0059505Y0116893D02*
X0043800Y0116893D01*
X0043800Y0115895D02*
X0061118Y0115895D01*
X0063382Y0115895D02*
X0065550Y0115895D01*
X0065550Y0116893D02*
X0064995Y0116893D01*
X0065343Y0114896D02*
X0065550Y0114896D01*
X0067737Y0109904D02*
X0069766Y0109904D01*
X0070650Y0108905D02*
X0066661Y0108905D01*
X0066026Y0107907D02*
X0070650Y0107907D01*
X0070650Y0106908D02*
X0065028Y0106908D01*
X0070650Y0105910D02*
X0048847Y0105910D01*
X0049154Y0109904D02*
X0057425Y0109904D01*
X0058489Y0117892D02*
X0043800Y0117892D01*
X0043800Y0118890D02*
X0057845Y0118890D01*
X0054729Y0119889D02*
X0043800Y0119889D01*
X0043800Y0120887D02*
X0053731Y0120887D01*
X0052732Y0121886D02*
X0044268Y0121886D01*
X0046822Y0122884D02*
X0051734Y0122884D01*
X0050735Y0123883D02*
X0047338Y0123883D01*
X0047400Y0124881D02*
X0049737Y0124881D01*
X0048738Y0125880D02*
X0047072Y0125880D01*
X0047740Y0126878D02*
X0046078Y0126878D01*
X0043740Y0127010D02*
X0043249Y0126807D01*
X0042503Y0126061D01*
X0042100Y0125087D01*
X0042100Y0124102D01*
X0040700Y0122702D01*
X0040700Y0093258D01*
X0040003Y0092561D01*
X0039600Y0091587D01*
X0039600Y0090902D01*
X0033800Y0096702D01*
X0033800Y0121702D01*
X0029900Y0125602D01*
X0029900Y0126587D01*
X0029497Y0127561D01*
X0028751Y0128307D01*
X0027777Y0128710D01*
X0026723Y0128710D01*
X0025749Y0128307D01*
X0025003Y0127561D01*
X0024600Y0126587D01*
X0024600Y0125533D01*
X0025003Y0124559D01*
X0025749Y0123813D01*
X0026723Y0123410D01*
X0027708Y0123410D01*
X0030700Y0120418D01*
X0030700Y0120081D01*
X0030671Y0120110D01*
X0030329Y0120308D01*
X0029947Y0120410D01*
X0027375Y0120410D01*
X0027375Y0117785D01*
X0027125Y0117785D01*
X0027125Y0120410D01*
X0024553Y0120410D01*
X0024171Y0120308D01*
X0023829Y0120110D01*
X0023550Y0119831D01*
X0023352Y0119489D01*
X0023250Y0119107D01*
X0023250Y0117785D01*
X0027125Y0117785D01*
X0027125Y0117535D01*
X0023250Y0117535D01*
X0023250Y0116212D01*
X0023352Y0115831D01*
X0023550Y0115489D01*
X0023550Y0115489D01*
X0023550Y0112713D01*
X0024253Y0112010D01*
X0025700Y0112010D01*
X0025700Y0108258D01*
X0025003Y0107561D01*
X0025000Y0107553D01*
X0024997Y0107561D01*
X0024251Y0108307D01*
X0023277Y0108710D01*
X0022223Y0108710D01*
X0021249Y0108307D01*
X0020552Y0107610D01*
X0016608Y0107610D01*
X0015700Y0106702D01*
X0011608Y0102610D01*
X0007892Y0102610D01*
X0007092Y0103410D01*
X0007777Y0103410D01*
X0008751Y0103813D01*
X0009448Y0104510D01*
X0011392Y0104510D01*
X0012892Y0106010D01*
X0013800Y0106918D01*
X0013800Y0109610D01*
X0015247Y0109610D01*
X0015950Y0110313D01*
X0015950Y0113807D01*
X0015697Y0114060D01*
X0015950Y0114313D01*
X0015950Y0117807D01*
X0015697Y0118060D01*
X0015950Y0118313D01*
X0015950Y0121807D01*
X0015247Y0122510D01*
X0013800Y0122510D01*
X0013800Y0125202D01*
X0012992Y0126010D01*
X0017052Y0126010D01*
X0017749Y0125313D01*
X0018723Y0124910D01*
X0019777Y0124910D01*
X0020751Y0125313D01*
X0021497Y0126059D01*
X0021900Y0127033D01*
X0021900Y0128087D01*
X0021497Y0129061D01*
X0020751Y0129807D01*
X0019777Y0130210D01*
X0019124Y0130210D01*
X0019173Y0130251D01*
X0020742Y0132969D01*
X0021287Y0136060D01*
X0020742Y0139151D01*
X0019173Y0141869D01*
X0019173Y0141869D01*
X0016769Y0143887D01*
X0016769Y0143887D01*
X0015193Y0144460D01*
X0059307Y0144460D01*
X0057731Y0143887D01*
X0055327Y0141869D01*
X0053758Y0139151D01*
X0053758Y0139151D01*
X0053213Y0136060D01*
X0053758Y0132969D01*
X0055327Y0130251D01*
X0055327Y0130251D01*
X0057731Y0128233D01*
X0060681Y0127160D01*
X0063819Y0127160D01*
X0066769Y0128233D01*
X0069173Y0130251D01*
X0070650Y0132809D01*
X0070650Y0122368D01*
X0070482Y0122537D01*
X0067021Y0122537D01*
X0066965Y0122481D01*
X0066404Y0123836D01*
X0065026Y0125214D01*
X0063225Y0125960D01*
X0061275Y0125960D01*
X0059474Y0125214D01*
X0058096Y0123836D01*
X0057588Y0122610D01*
X0056392Y0122610D01*
X0049800Y0129202D01*
X0048892Y0130110D01*
X0038108Y0130110D01*
X0037200Y0129202D01*
X0036608Y0128610D01*
X0035700Y0127702D01*
X0035700Y0126758D01*
X0035003Y0126061D01*
X0034600Y0125087D01*
X0034600Y0124033D01*
X0035003Y0123059D01*
X0035749Y0122313D01*
X0036723Y0121910D01*
X0037777Y0121910D01*
X0038751Y0122313D01*
X0039497Y0123059D01*
X0039900Y0124033D01*
X0039900Y0125087D01*
X0039497Y0126061D01*
X0038970Y0126588D01*
X0039392Y0127010D01*
X0043740Y0127010D01*
X0043422Y0126878D02*
X0039260Y0126878D01*
X0039572Y0125880D02*
X0042428Y0125880D01*
X0042100Y0124881D02*
X0039900Y0124881D01*
X0039838Y0123883D02*
X0041881Y0123883D01*
X0040882Y0122884D02*
X0039322Y0122884D01*
X0040700Y0121886D02*
X0033616Y0121886D01*
X0033800Y0120887D02*
X0040700Y0120887D01*
X0040700Y0119889D02*
X0033800Y0119889D01*
X0033800Y0118890D02*
X0040700Y0118890D01*
X0040700Y0117892D02*
X0033800Y0117892D01*
X0033800Y0116893D02*
X0040700Y0116893D01*
X0040700Y0115895D02*
X0033800Y0115895D01*
X0033800Y0114896D02*
X0040700Y0114896D01*
X0040700Y0113898D02*
X0033800Y0113898D01*
X0033800Y0112899D02*
X0040700Y0112899D01*
X0040700Y0111901D02*
X0033800Y0111901D01*
X0033800Y0110902D02*
X0040700Y0110902D01*
X0040700Y0109904D02*
X0033800Y0109904D01*
X0033800Y0108905D02*
X0040700Y0108905D01*
X0040700Y0107907D02*
X0033800Y0107907D01*
X0033800Y0106908D02*
X0040700Y0106908D01*
X0040700Y0105910D02*
X0033800Y0105910D01*
X0033800Y0104911D02*
X0040700Y0104911D01*
X0040700Y0103913D02*
X0033800Y0103913D01*
X0033800Y0102914D02*
X0040700Y0102914D01*
X0040700Y0101916D02*
X0033800Y0101916D01*
X0033800Y0100917D02*
X0040700Y0100917D01*
X0040700Y0099919D02*
X0033800Y0099919D01*
X0033800Y0098920D02*
X0040700Y0098920D01*
X0040700Y0097922D02*
X0033800Y0097922D01*
X0033800Y0096923D02*
X0040700Y0096923D01*
X0040700Y0095925D02*
X0034577Y0095925D01*
X0035576Y0094926D02*
X0040700Y0094926D01*
X0040700Y0093927D02*
X0036574Y0093927D01*
X0037573Y0092929D02*
X0040371Y0092929D01*
X0039742Y0091930D02*
X0038572Y0091930D01*
X0039570Y0090932D02*
X0039600Y0090932D01*
X0044563Y0085939D02*
X0046226Y0085939D01*
X0060299Y0084941D02*
X0063777Y0084941D01*
X0062917Y0083942D02*
X0061297Y0083942D01*
X0061773Y0082944D02*
X0062395Y0082944D01*
X0078892Y0102610D02*
X0078092Y0103410D01*
X0078777Y0103410D01*
X0079751Y0103813D01*
X0080448Y0104510D01*
X0082392Y0104510D01*
X0083892Y0106010D01*
X0084800Y0106918D01*
X0084800Y0109610D01*
X0086247Y0109610D01*
X0086950Y0110313D01*
X0086950Y0113807D01*
X0086697Y0114060D01*
X0086950Y0114313D01*
X0086950Y0117807D01*
X0086697Y0118060D01*
X0086950Y0118313D01*
X0086950Y0121807D01*
X0086247Y0122510D01*
X0084800Y0122510D01*
X0084800Y0125202D01*
X0083992Y0126010D01*
X0088052Y0126010D01*
X0088749Y0125313D01*
X0089723Y0124910D01*
X0090777Y0124910D01*
X0091751Y0125313D01*
X0092497Y0126059D01*
X0092900Y0127033D01*
X0092900Y0128087D01*
X0092497Y0129061D01*
X0091751Y0129807D01*
X0090777Y0130210D01*
X0090124Y0130210D01*
X0090173Y0130251D01*
X0091742Y0132969D01*
X0092287Y0136060D01*
X0091742Y0139151D01*
X0090173Y0141869D01*
X0090173Y0141869D01*
X0087769Y0143887D01*
X0087769Y0143887D01*
X0086193Y0144460D01*
X0130307Y0144460D01*
X0128731Y0143887D01*
X0126327Y0141869D01*
X0124758Y0139151D01*
X0124213Y0136060D01*
X0124758Y0132969D01*
X0126327Y0130251D01*
X0126327Y0130251D01*
X0128731Y0128233D01*
X0131681Y0127160D01*
X0134819Y0127160D01*
X0137769Y0128233D01*
X0140173Y0130251D01*
X0141650Y0132809D01*
X0141650Y0122368D01*
X0141482Y0122537D01*
X0138021Y0122537D01*
X0137965Y0122481D01*
X0137404Y0123836D01*
X0136026Y0125214D01*
X0134225Y0125960D01*
X0132275Y0125960D01*
X0130474Y0125214D01*
X0129096Y0123836D01*
X0128588Y0122610D01*
X0127392Y0122610D01*
X0120800Y0129202D01*
X0119892Y0130110D01*
X0109108Y0130110D01*
X0107608Y0128610D01*
X0106700Y0127702D01*
X0106700Y0126758D01*
X0106003Y0126061D01*
X0105600Y0125087D01*
X0105600Y0124033D01*
X0106003Y0123059D01*
X0106749Y0122313D01*
X0107723Y0121910D01*
X0108777Y0121910D01*
X0109751Y0122313D01*
X0110497Y0123059D01*
X0110900Y0124033D01*
X0110900Y0125087D01*
X0110497Y0126061D01*
X0109970Y0126588D01*
X0110392Y0127010D01*
X0114740Y0127010D01*
X0114249Y0126807D01*
X0113503Y0126061D01*
X0113100Y0125087D01*
X0113100Y0124102D01*
X0111700Y0122702D01*
X0111700Y0093258D01*
X0111003Y0092561D01*
X0110600Y0091587D01*
X0110600Y0090902D01*
X0104800Y0096702D01*
X0104800Y0121702D01*
X0100900Y0125602D01*
X0100900Y0126587D01*
X0100497Y0127561D01*
X0099751Y0128307D01*
X0098777Y0128710D01*
X0097723Y0128710D01*
X0096749Y0128307D01*
X0096003Y0127561D01*
X0095600Y0126587D01*
X0095600Y0125533D01*
X0096003Y0124559D01*
X0096749Y0123813D01*
X0097723Y0123410D01*
X0098708Y0123410D01*
X0101700Y0120418D01*
X0101700Y0120081D01*
X0101671Y0120110D01*
X0101329Y0120308D01*
X0100947Y0120410D01*
X0098375Y0120410D01*
X0098375Y0117785D01*
X0098125Y0117785D01*
X0098125Y0120410D01*
X0095553Y0120410D01*
X0095171Y0120308D01*
X0094829Y0120110D01*
X0094550Y0119831D01*
X0094352Y0119489D01*
X0094250Y0119107D01*
X0094250Y0117785D01*
X0098125Y0117785D01*
X0098125Y0117535D01*
X0094250Y0117535D01*
X0094250Y0116212D01*
X0094352Y0115831D01*
X0094550Y0115489D01*
X0094550Y0115489D01*
X0094550Y0112713D01*
X0095253Y0112010D01*
X0096700Y0112010D01*
X0096700Y0108258D01*
X0096003Y0107561D01*
X0096000Y0107553D01*
X0095997Y0107561D01*
X0095251Y0108307D01*
X0094277Y0108710D01*
X0093223Y0108710D01*
X0092249Y0108307D01*
X0091552Y0107610D01*
X0087608Y0107610D01*
X0086700Y0106702D01*
X0082608Y0102610D01*
X0078892Y0102610D01*
X0078588Y0102914D02*
X0082912Y0102914D01*
X0083911Y0103913D02*
X0079850Y0103913D01*
X0082793Y0104911D02*
X0084909Y0104911D01*
X0085908Y0105910D02*
X0083792Y0105910D01*
X0084790Y0106908D02*
X0086906Y0106908D01*
X0084800Y0107907D02*
X0091849Y0107907D01*
X0095651Y0107907D02*
X0096349Y0107907D01*
X0096700Y0108905D02*
X0084800Y0108905D01*
X0086541Y0109904D02*
X0096700Y0109904D01*
X0096700Y0110902D02*
X0086950Y0110902D01*
X0086950Y0111901D02*
X0096700Y0111901D01*
X0094550Y0112899D02*
X0086950Y0112899D01*
X0086859Y0113898D02*
X0094550Y0113898D01*
X0094550Y0114896D02*
X0086950Y0114896D01*
X0086950Y0115895D02*
X0094335Y0115895D01*
X0094250Y0116893D02*
X0086950Y0116893D01*
X0086865Y0117892D02*
X0094250Y0117892D01*
X0094250Y0118890D02*
X0086950Y0118890D01*
X0086950Y0119889D02*
X0094607Y0119889D01*
X0098125Y0119889D02*
X0098375Y0119889D01*
X0098375Y0118890D02*
X0098125Y0118890D01*
X0098125Y0117892D02*
X0098375Y0117892D01*
X0101231Y0120887D02*
X0086950Y0120887D01*
X0086871Y0121886D02*
X0100232Y0121886D01*
X0099234Y0122884D02*
X0084800Y0122884D01*
X0084800Y0123883D02*
X0096679Y0123883D01*
X0095870Y0124881D02*
X0084800Y0124881D01*
X0084122Y0125880D02*
X0088182Y0125880D01*
X0092318Y0125880D02*
X0095600Y0125880D01*
X0095721Y0126878D02*
X0092836Y0126878D01*
X0092900Y0127877D02*
X0096319Y0127877D01*
X0100181Y0127877D02*
X0106875Y0127877D01*
X0106700Y0126878D02*
X0100779Y0126878D01*
X0100900Y0125880D02*
X0105928Y0125880D01*
X0105600Y0124881D02*
X0101621Y0124881D01*
X0102619Y0123883D02*
X0105662Y0123883D01*
X0106178Y0122884D02*
X0103618Y0122884D01*
X0104616Y0121886D02*
X0111700Y0121886D01*
X0111700Y0120887D02*
X0104800Y0120887D01*
X0104800Y0119889D02*
X0111700Y0119889D01*
X0111700Y0118890D02*
X0104800Y0118890D01*
X0104800Y0117892D02*
X0111700Y0117892D01*
X0111700Y0116893D02*
X0104800Y0116893D01*
X0104800Y0115895D02*
X0111700Y0115895D01*
X0111700Y0114896D02*
X0104800Y0114896D01*
X0104800Y0113898D02*
X0111700Y0113898D01*
X0111700Y0112899D02*
X0104800Y0112899D01*
X0104800Y0111901D02*
X0111700Y0111901D01*
X0111700Y0110902D02*
X0104800Y0110902D01*
X0104800Y0109904D02*
X0111700Y0109904D01*
X0111700Y0108905D02*
X0104800Y0108905D01*
X0104800Y0107907D02*
X0111700Y0107907D01*
X0111700Y0106908D02*
X0104800Y0106908D01*
X0104800Y0105910D02*
X0111700Y0105910D01*
X0111700Y0104911D02*
X0104800Y0104911D01*
X0104800Y0103913D02*
X0111700Y0103913D01*
X0111700Y0102914D02*
X0104800Y0102914D01*
X0104800Y0101916D02*
X0111700Y0101916D01*
X0111700Y0100917D02*
X0104800Y0100917D01*
X0104800Y0099919D02*
X0111700Y0099919D01*
X0111700Y0098920D02*
X0104800Y0098920D01*
X0104800Y0097922D02*
X0111700Y0097922D01*
X0111700Y0096923D02*
X0104800Y0096923D01*
X0105577Y0095925D02*
X0111700Y0095925D01*
X0111700Y0094926D02*
X0106576Y0094926D01*
X0107575Y0093927D02*
X0111700Y0093927D01*
X0111371Y0092929D02*
X0108573Y0092929D01*
X0109572Y0091930D02*
X0110742Y0091930D01*
X0110600Y0090932D02*
X0110570Y0090932D01*
X0113092Y0088410D02*
X0113777Y0088410D01*
X0114751Y0088813D01*
X0115497Y0089559D01*
X0115900Y0090533D01*
X0115900Y0091587D01*
X0115497Y0092561D01*
X0114800Y0093258D01*
X0114800Y0121418D01*
X0115292Y0121910D01*
X0116277Y0121910D01*
X0117251Y0122313D01*
X0117997Y0123059D01*
X0118400Y0124033D01*
X0118400Y0125087D01*
X0117997Y0126061D01*
X0117251Y0126807D01*
X0116760Y0127010D01*
X0118608Y0127010D01*
X0126108Y0119510D01*
X0128588Y0119510D01*
X0129096Y0118284D01*
X0130474Y0116906D01*
X0132275Y0116160D01*
X0134225Y0116160D01*
X0136026Y0116906D01*
X0136550Y0117430D01*
X0136550Y0114690D01*
X0136026Y0115214D01*
X0134225Y0115960D01*
X0132275Y0115960D01*
X0130474Y0115214D01*
X0129096Y0113836D01*
X0128350Y0112035D01*
X0128350Y0110085D01*
X0128547Y0109610D01*
X0120448Y0109610D01*
X0119751Y0110307D01*
X0118777Y0110710D01*
X0117723Y0110710D01*
X0116749Y0110307D01*
X0116003Y0109561D01*
X0115600Y0108587D01*
X0115600Y0107533D01*
X0116003Y0106559D01*
X0116749Y0105813D01*
X0117723Y0105410D01*
X0118777Y0105410D01*
X0119751Y0105813D01*
X0120448Y0106510D01*
X0130892Y0106510D01*
X0131050Y0106668D01*
X0132275Y0106160D01*
X0134225Y0106160D01*
X0136026Y0106906D01*
X0137404Y0108284D01*
X0138042Y0109825D01*
X0138486Y0109736D01*
X0139751Y0110580D01*
X0141017Y0109736D01*
X0141650Y0109863D01*
X0141650Y0085014D01*
X0141638Y0085026D01*
X0140975Y0085507D01*
X0140246Y0085879D01*
X0139468Y0086132D01*
X0138750Y0086246D01*
X0138750Y0081560D01*
X0137750Y0081560D01*
X0137750Y0086246D01*
X0137032Y0086132D01*
X0136254Y0085879D01*
X0135525Y0085507D01*
X0134862Y0085026D01*
X0134284Y0084448D01*
X0133803Y0083785D01*
X0133431Y0083056D01*
X0133178Y0082278D01*
X0133142Y0082053D01*
X0132404Y0083836D01*
X0131026Y0085214D01*
X0129225Y0085960D01*
X0127275Y0085960D01*
X0125474Y0085214D01*
X0124096Y0083836D01*
X0123350Y0082035D01*
X0123350Y0080085D01*
X0124096Y0078284D01*
X0124720Y0077660D01*
X0121780Y0077660D01*
X0122404Y0078284D01*
X0123150Y0080085D01*
X0123150Y0082035D01*
X0122404Y0083836D01*
X0121026Y0085214D01*
X0119225Y0085960D01*
X0117275Y0085960D01*
X0116050Y0085452D01*
X0113092Y0088410D01*
X0113566Y0087936D02*
X0141650Y0087936D01*
X0141650Y0086938D02*
X0114564Y0086938D01*
X0115563Y0085939D02*
X0117226Y0085939D01*
X0119274Y0085939D02*
X0127226Y0085939D01*
X0129274Y0085939D02*
X0136440Y0085939D01*
X0137750Y0085939D02*
X0138750Y0085939D01*
X0138750Y0084941D02*
X0137750Y0084941D01*
X0137750Y0083942D02*
X0138750Y0083942D01*
X0138750Y0082944D02*
X0137750Y0082944D01*
X0137750Y0081945D02*
X0138750Y0081945D01*
X0134777Y0084941D02*
X0131299Y0084941D01*
X0132297Y0083942D02*
X0133917Y0083942D01*
X0133395Y0082944D02*
X0132773Y0082944D01*
X0140060Y0085939D02*
X0141650Y0085939D01*
X0141650Y0088935D02*
X0114873Y0088935D01*
X0115652Y0089933D02*
X0141650Y0089933D01*
X0141650Y0090932D02*
X0115900Y0090932D01*
X0115758Y0091930D02*
X0141650Y0091930D01*
X0141650Y0092929D02*
X0115129Y0092929D01*
X0114800Y0093927D02*
X0141650Y0093927D01*
X0141650Y0094926D02*
X0114800Y0094926D01*
X0114800Y0095925D02*
X0141650Y0095925D01*
X0141650Y0096923D02*
X0114800Y0096923D01*
X0114800Y0097922D02*
X0141650Y0097922D01*
X0141650Y0098920D02*
X0114800Y0098920D01*
X0114800Y0099919D02*
X0141650Y0099919D01*
X0141650Y0100917D02*
X0114800Y0100917D01*
X0114800Y0101916D02*
X0141650Y0101916D01*
X0141650Y0102914D02*
X0114800Y0102914D01*
X0114800Y0103913D02*
X0141650Y0103913D01*
X0141650Y0104911D02*
X0114800Y0104911D01*
X0114800Y0105910D02*
X0116653Y0105910D01*
X0115859Y0106908D02*
X0114800Y0106908D01*
X0114800Y0107907D02*
X0115600Y0107907D01*
X0115732Y0108905D02*
X0114800Y0108905D01*
X0114800Y0109904D02*
X0116346Y0109904D01*
X0114800Y0110902D02*
X0128350Y0110902D01*
X0128350Y0111901D02*
X0114800Y0111901D01*
X0114800Y0112899D02*
X0128708Y0112899D01*
X0129158Y0113898D02*
X0114800Y0113898D01*
X0114800Y0114896D02*
X0130157Y0114896D01*
X0130505Y0116893D02*
X0114800Y0116893D01*
X0114800Y0115895D02*
X0132118Y0115895D01*
X0134382Y0115895D02*
X0136550Y0115895D01*
X0136550Y0116893D02*
X0135995Y0116893D01*
X0136343Y0114896D02*
X0136550Y0114896D01*
X0138737Y0109904D02*
X0140766Y0109904D01*
X0141650Y0108905D02*
X0137661Y0108905D01*
X0137026Y0107907D02*
X0141650Y0107907D01*
X0141650Y0106908D02*
X0136028Y0106908D01*
X0141650Y0105910D02*
X0119847Y0105910D01*
X0120154Y0109904D02*
X0128425Y0109904D01*
X0129489Y0117892D02*
X0114800Y0117892D01*
X0114800Y0118890D02*
X0128845Y0118890D01*
X0128702Y0122884D02*
X0127118Y0122884D01*
X0126119Y0123883D02*
X0129143Y0123883D01*
X0130142Y0124881D02*
X0125121Y0124881D01*
X0124122Y0125880D02*
X0132082Y0125880D01*
X0134418Y0125880D02*
X0141650Y0125880D01*
X0141650Y0126878D02*
X0123124Y0126878D01*
X0122125Y0127877D02*
X0129711Y0127877D01*
X0128731Y0128233D02*
X0128731Y0128233D01*
X0127966Y0128875D02*
X0121127Y0128875D01*
X0120800Y0129202D02*
X0120800Y0129202D01*
X0120128Y0129874D02*
X0126776Y0129874D01*
X0125968Y0130872D02*
X0090532Y0130872D01*
X0090173Y0130251D02*
X0090173Y0130251D01*
X0090173Y0130251D01*
X0091588Y0129874D02*
X0108872Y0129874D01*
X0107873Y0128875D02*
X0092573Y0128875D01*
X0091108Y0131871D02*
X0125392Y0131871D01*
X0124815Y0132869D02*
X0091685Y0132869D01*
X0091742Y0132969D02*
X0091742Y0132969D01*
X0091901Y0133868D02*
X0124599Y0133868D01*
X0124423Y0134866D02*
X0092077Y0134866D01*
X0092253Y0135865D02*
X0124247Y0135865D01*
X0124354Y0136863D02*
X0092146Y0136863D01*
X0092287Y0136060D02*
X0092287Y0136060D01*
X0091970Y0137862D02*
X0124530Y0137862D01*
X0124707Y0138861D02*
X0091793Y0138861D01*
X0091742Y0139151D02*
X0091742Y0139151D01*
X0091333Y0139859D02*
X0125167Y0139859D01*
X0125743Y0140858D02*
X0090757Y0140858D01*
X0090180Y0141856D02*
X0126320Y0141856D01*
X0126327Y0141869D02*
X0126327Y0141869D01*
X0126327Y0141869D01*
X0127502Y0142855D02*
X0088998Y0142855D01*
X0087809Y0143853D02*
X0128691Y0143853D01*
X0128731Y0143887D02*
X0128731Y0143887D01*
X0124720Y0148660D02*
X0121780Y0148660D01*
X0122404Y0149284D01*
X0123150Y0151085D01*
X0123150Y0153035D01*
X0122404Y0154836D01*
X0121026Y0156214D01*
X0119225Y0156960D01*
X0117275Y0156960D01*
X0116050Y0156452D01*
X0113092Y0159410D01*
X0113777Y0159410D01*
X0114751Y0159813D01*
X0115497Y0160559D01*
X0115900Y0161533D01*
X0115900Y0162587D01*
X0115497Y0163561D01*
X0114800Y0164258D01*
X0114800Y0192418D01*
X0115292Y0192910D01*
X0116277Y0192910D01*
X0117251Y0193313D01*
X0117997Y0194059D01*
X0118400Y0195033D01*
X0118400Y0196087D01*
X0117997Y0197061D01*
X0117251Y0197807D01*
X0116760Y0198010D01*
X0118608Y0198010D01*
X0126108Y0190510D01*
X0128588Y0190510D01*
X0129096Y0189284D01*
X0130474Y0187906D01*
X0132275Y0187160D01*
X0134225Y0187160D01*
X0136026Y0187906D01*
X0136550Y0188430D01*
X0136550Y0185690D01*
X0136026Y0186214D01*
X0134225Y0186960D01*
X0132275Y0186960D01*
X0130474Y0186214D01*
X0129096Y0184836D01*
X0128350Y0183035D01*
X0128350Y0181085D01*
X0128547Y0180610D01*
X0120448Y0180610D01*
X0119751Y0181307D01*
X0118777Y0181710D01*
X0117723Y0181710D01*
X0116749Y0181307D01*
X0116003Y0180561D01*
X0115600Y0179587D01*
X0115600Y0178533D01*
X0116003Y0177559D01*
X0116749Y0176813D01*
X0117723Y0176410D01*
X0118777Y0176410D01*
X0119751Y0176813D01*
X0120448Y0177510D01*
X0130892Y0177510D01*
X0131050Y0177668D01*
X0132275Y0177160D01*
X0134225Y0177160D01*
X0136026Y0177906D01*
X0137404Y0179284D01*
X0138042Y0180825D01*
X0138486Y0180736D01*
X0139751Y0181580D01*
X0141017Y0180736D01*
X0141650Y0180863D01*
X0141650Y0156014D01*
X0141638Y0156026D01*
X0140975Y0156507D01*
X0140246Y0156879D01*
X0139468Y0157132D01*
X0138750Y0157246D01*
X0138750Y0152560D01*
X0137750Y0152560D01*
X0137750Y0157246D01*
X0137032Y0157132D01*
X0136254Y0156879D01*
X0135525Y0156507D01*
X0134862Y0156026D01*
X0134284Y0155448D01*
X0133803Y0154785D01*
X0133431Y0154056D01*
X0133178Y0153278D01*
X0133142Y0153053D01*
X0132404Y0154836D01*
X0131026Y0156214D01*
X0129225Y0156960D01*
X0127275Y0156960D01*
X0125474Y0156214D01*
X0124096Y0154836D01*
X0123350Y0153035D01*
X0123350Y0151085D01*
X0124096Y0149284D01*
X0124720Y0148660D01*
X0124535Y0148846D02*
X0121965Y0148846D01*
X0122636Y0149844D02*
X0123864Y0149844D01*
X0123451Y0150843D02*
X0123049Y0150843D01*
X0123150Y0151841D02*
X0123350Y0151841D01*
X0123350Y0152840D02*
X0123150Y0152840D01*
X0122817Y0153838D02*
X0123683Y0153838D01*
X0124097Y0154837D02*
X0122403Y0154837D01*
X0121404Y0155835D02*
X0125096Y0155835D01*
X0126970Y0156834D02*
X0119530Y0156834D01*
X0116970Y0156834D02*
X0115668Y0156834D01*
X0114670Y0157832D02*
X0141650Y0157832D01*
X0141650Y0156834D02*
X0140335Y0156834D01*
X0138750Y0156834D02*
X0137750Y0156834D01*
X0137750Y0155835D02*
X0138750Y0155835D01*
X0138750Y0154837D02*
X0137750Y0154837D01*
X0137750Y0153838D02*
X0138750Y0153838D01*
X0138750Y0152840D02*
X0137750Y0152840D01*
X0134671Y0155835D02*
X0131404Y0155835D01*
X0132403Y0154837D02*
X0133840Y0154837D01*
X0133360Y0153838D02*
X0132817Y0153838D01*
X0129530Y0156834D02*
X0136165Y0156834D01*
X0141650Y0158831D02*
X0113671Y0158831D01*
X0114767Y0159829D02*
X0141650Y0159829D01*
X0141650Y0160828D02*
X0115608Y0160828D01*
X0115900Y0161826D02*
X0141650Y0161826D01*
X0141650Y0162825D02*
X0115802Y0162825D01*
X0115234Y0163823D02*
X0141650Y0163823D01*
X0141650Y0164822D02*
X0114800Y0164822D01*
X0114800Y0165820D02*
X0141650Y0165820D01*
X0141650Y0166819D02*
X0114800Y0166819D01*
X0114800Y0167817D02*
X0141650Y0167817D01*
X0141650Y0168816D02*
X0114800Y0168816D01*
X0114800Y0169814D02*
X0141650Y0169814D01*
X0141650Y0170813D02*
X0114800Y0170813D01*
X0114800Y0171811D02*
X0141650Y0171811D01*
X0141650Y0172810D02*
X0114800Y0172810D01*
X0114800Y0173808D02*
X0141650Y0173808D01*
X0141650Y0174807D02*
X0114800Y0174807D01*
X0114800Y0175805D02*
X0141650Y0175805D01*
X0141650Y0176804D02*
X0119728Y0176804D01*
X0116772Y0176804D02*
X0114800Y0176804D01*
X0114800Y0177802D02*
X0115903Y0177802D01*
X0115600Y0178801D02*
X0114800Y0178801D01*
X0114800Y0179799D02*
X0115688Y0179799D01*
X0116240Y0180798D02*
X0114800Y0180798D01*
X0114800Y0181796D02*
X0128350Y0181796D01*
X0128350Y0182795D02*
X0114800Y0182795D01*
X0114800Y0183794D02*
X0128664Y0183794D01*
X0129078Y0184792D02*
X0114800Y0184792D01*
X0114800Y0185791D02*
X0130051Y0185791D01*
X0131863Y0186789D02*
X0114800Y0186789D01*
X0114800Y0187788D02*
X0130760Y0187788D01*
X0129594Y0188786D02*
X0114800Y0188786D01*
X0114800Y0189785D02*
X0128889Y0189785D01*
X0125835Y0190783D02*
X0114800Y0190783D01*
X0114800Y0191782D02*
X0124836Y0191782D01*
X0123838Y0192780D02*
X0115162Y0192780D01*
X0117716Y0193779D02*
X0122839Y0193779D01*
X0121841Y0194777D02*
X0118294Y0194777D01*
X0118400Y0195776D02*
X0120842Y0195776D01*
X0119844Y0196774D02*
X0118115Y0196774D01*
X0118845Y0197773D02*
X0117285Y0197773D01*
X0114740Y0198010D02*
X0114249Y0197807D01*
X0113503Y0197061D01*
X0113100Y0196087D01*
X0113100Y0195102D01*
X0111700Y0193702D01*
X0111700Y0164258D01*
X0111003Y0163561D01*
X0110600Y0162587D01*
X0110600Y0161902D01*
X0104800Y0167702D01*
X0104800Y0192702D01*
X0100900Y0196602D01*
X0100900Y0197587D01*
X0100497Y0198561D01*
X0099751Y0199307D01*
X0098777Y0199710D01*
X0097723Y0199710D01*
X0096749Y0199307D01*
X0096003Y0198561D01*
X0095600Y0197587D01*
X0095600Y0196533D01*
X0096003Y0195559D01*
X0096749Y0194813D01*
X0097723Y0194410D01*
X0098708Y0194410D01*
X0101700Y0191418D01*
X0101700Y0191081D01*
X0101671Y0191110D01*
X0101329Y0191308D01*
X0100947Y0191410D01*
X0098375Y0191410D01*
X0098375Y0188785D01*
X0098125Y0188785D01*
X0098125Y0191410D01*
X0095553Y0191410D01*
X0095171Y0191308D01*
X0094829Y0191110D01*
X0094550Y0190831D01*
X0094352Y0190489D01*
X0094250Y0190107D01*
X0094250Y0188785D01*
X0098125Y0188785D01*
X0098125Y0188535D01*
X0094250Y0188535D01*
X0094250Y0187212D01*
X0094352Y0186831D01*
X0094550Y0186489D01*
X0094550Y0186489D01*
X0094550Y0183713D01*
X0095253Y0183010D01*
X0096700Y0183010D01*
X0096700Y0179258D01*
X0096003Y0178561D01*
X0096000Y0178553D01*
X0095997Y0178561D01*
X0095251Y0179307D01*
X0094277Y0179710D01*
X0093223Y0179710D01*
X0092249Y0179307D01*
X0091552Y0178610D01*
X0087608Y0178610D01*
X0086700Y0177702D01*
X0082608Y0173610D01*
X0078892Y0173610D01*
X0078092Y0174410D01*
X0078777Y0174410D01*
X0079751Y0174813D01*
X0080448Y0175510D01*
X0082392Y0175510D01*
X0083892Y0177010D01*
X0084800Y0177918D01*
X0084800Y0180610D01*
X0086247Y0180610D01*
X0086950Y0181313D01*
X0086950Y0184807D01*
X0086697Y0185060D01*
X0086950Y0185313D01*
X0086950Y0188807D01*
X0086697Y0189060D01*
X0086950Y0189313D01*
X0086950Y0192807D01*
X0086247Y0193510D01*
X0084800Y0193510D01*
X0084800Y0196202D01*
X0083992Y0197010D01*
X0088052Y0197010D01*
X0088749Y0196313D01*
X0089723Y0195910D01*
X0090777Y0195910D01*
X0091751Y0196313D01*
X0092497Y0197059D01*
X0092900Y0198033D01*
X0092900Y0199087D01*
X0092497Y0200061D01*
X0091751Y0200807D01*
X0090777Y0201210D01*
X0090124Y0201210D01*
X0090173Y0201251D01*
X0091742Y0203969D01*
X0092287Y0207060D01*
X0091742Y0210151D01*
X0090173Y0212869D01*
X0090173Y0212869D01*
X0087769Y0214887D01*
X0087769Y0214887D01*
X0086193Y0215460D01*
X0130307Y0215460D01*
X0128731Y0214887D01*
X0126327Y0212869D01*
X0124758Y0210151D01*
X0124758Y0210151D01*
X0124213Y0207060D01*
X0124758Y0203969D01*
X0126327Y0201251D01*
X0126327Y0201251D01*
X0128731Y0199233D01*
X0131681Y0198160D01*
X0134819Y0198160D01*
X0137769Y0199233D01*
X0140173Y0201251D01*
X0141650Y0203809D01*
X0141650Y0193368D01*
X0141482Y0193537D01*
X0138021Y0193537D01*
X0137965Y0193481D01*
X0137404Y0194836D01*
X0136026Y0196214D01*
X0134225Y0196960D01*
X0132275Y0196960D01*
X0130474Y0196214D01*
X0129096Y0194836D01*
X0128588Y0193610D01*
X0127392Y0193610D01*
X0120800Y0200202D01*
X0119892Y0201110D01*
X0109108Y0201110D01*
X0107608Y0199610D01*
X0106700Y0198702D01*
X0106700Y0197758D01*
X0106003Y0197061D01*
X0105600Y0196087D01*
X0105600Y0195033D01*
X0106003Y0194059D01*
X0106749Y0193313D01*
X0107723Y0192910D01*
X0108777Y0192910D01*
X0109751Y0193313D01*
X0110497Y0194059D01*
X0110900Y0195033D01*
X0110900Y0196087D01*
X0110497Y0197061D01*
X0109970Y0197588D01*
X0110392Y0198010D01*
X0114740Y0198010D01*
X0114215Y0197773D02*
X0110155Y0197773D01*
X0110615Y0196774D02*
X0113385Y0196774D01*
X0113100Y0195776D02*
X0110900Y0195776D01*
X0110794Y0194777D02*
X0112775Y0194777D01*
X0111777Y0193779D02*
X0110216Y0193779D01*
X0111700Y0192780D02*
X0104722Y0192780D01*
X0104800Y0191782D02*
X0111700Y0191782D01*
X0111700Y0190783D02*
X0104800Y0190783D01*
X0104800Y0189785D02*
X0111700Y0189785D01*
X0111700Y0188786D02*
X0104800Y0188786D01*
X0104800Y0187788D02*
X0111700Y0187788D01*
X0111700Y0186789D02*
X0104800Y0186789D01*
X0104800Y0185791D02*
X0111700Y0185791D01*
X0111700Y0184792D02*
X0104800Y0184792D01*
X0104800Y0183794D02*
X0111700Y0183794D01*
X0111700Y0182795D02*
X0104800Y0182795D01*
X0104800Y0181796D02*
X0111700Y0181796D01*
X0111700Y0180798D02*
X0104800Y0180798D01*
X0104800Y0179799D02*
X0111700Y0179799D01*
X0111700Y0178801D02*
X0104800Y0178801D01*
X0104800Y0177802D02*
X0111700Y0177802D01*
X0111700Y0176804D02*
X0104800Y0176804D01*
X0104800Y0175805D02*
X0111700Y0175805D01*
X0111700Y0174807D02*
X0104800Y0174807D01*
X0104800Y0173808D02*
X0111700Y0173808D01*
X0111700Y0172810D02*
X0104800Y0172810D01*
X0104800Y0171811D02*
X0111700Y0171811D01*
X0111700Y0170813D02*
X0104800Y0170813D01*
X0104800Y0169814D02*
X0111700Y0169814D01*
X0111700Y0168816D02*
X0104800Y0168816D01*
X0104800Y0167817D02*
X0111700Y0167817D01*
X0111700Y0166819D02*
X0105683Y0166819D01*
X0106682Y0165820D02*
X0111700Y0165820D01*
X0111700Y0164822D02*
X0107680Y0164822D01*
X0108679Y0163823D02*
X0111266Y0163823D01*
X0110698Y0162825D02*
X0109677Y0162825D01*
X0096243Y0178801D02*
X0095757Y0178801D01*
X0096700Y0179799D02*
X0084800Y0179799D01*
X0084800Y0178801D02*
X0091743Y0178801D01*
X0096700Y0180798D02*
X0086435Y0180798D01*
X0086950Y0181796D02*
X0096700Y0181796D01*
X0096700Y0182795D02*
X0086950Y0182795D01*
X0086950Y0183794D02*
X0094550Y0183794D01*
X0094550Y0184792D02*
X0086950Y0184792D01*
X0086950Y0185791D02*
X0094550Y0185791D01*
X0094376Y0186789D02*
X0086950Y0186789D01*
X0086950Y0187788D02*
X0094250Y0187788D01*
X0094250Y0188786D02*
X0086950Y0188786D01*
X0086950Y0189785D02*
X0094250Y0189785D01*
X0094522Y0190783D02*
X0086950Y0190783D01*
X0086950Y0191782D02*
X0101336Y0191782D01*
X0100338Y0192780D02*
X0086950Y0192780D01*
X0084800Y0193779D02*
X0099339Y0193779D01*
X0096836Y0194777D02*
X0084800Y0194777D01*
X0084800Y0195776D02*
X0095914Y0195776D01*
X0095600Y0196774D02*
X0092212Y0196774D01*
X0092792Y0197773D02*
X0095677Y0197773D01*
X0096214Y0198771D02*
X0092900Y0198771D01*
X0092617Y0199770D02*
X0107768Y0199770D01*
X0108766Y0200768D02*
X0091789Y0200768D01*
X0090471Y0201767D02*
X0126029Y0201767D01*
X0125453Y0202765D02*
X0091047Y0202765D01*
X0091624Y0203764D02*
X0124876Y0203764D01*
X0124758Y0203969D02*
X0124758Y0203969D01*
X0124618Y0204762D02*
X0091882Y0204762D01*
X0091742Y0203969D02*
X0091742Y0203969D01*
X0092058Y0205761D02*
X0124442Y0205761D01*
X0124266Y0206759D02*
X0092234Y0206759D01*
X0092287Y0207060D02*
X0092287Y0207060D01*
X0092164Y0207758D02*
X0124336Y0207758D01*
X0124213Y0207060D02*
X0124213Y0207060D01*
X0124512Y0208756D02*
X0091988Y0208756D01*
X0091812Y0209755D02*
X0124688Y0209755D01*
X0125106Y0210753D02*
X0091394Y0210753D01*
X0091742Y0210151D02*
X0091742Y0210151D01*
X0090818Y0211752D02*
X0125682Y0211752D01*
X0126259Y0212750D02*
X0090241Y0212750D01*
X0089124Y0213749D02*
X0127376Y0213749D01*
X0126327Y0212869D02*
X0126327Y0212869D01*
X0126327Y0212869D01*
X0128566Y0214747D02*
X0087934Y0214747D01*
X0090173Y0201251D02*
X0090173Y0201251D01*
X0090173Y0201251D01*
X0088288Y0196774D02*
X0084228Y0196774D01*
X0083250Y0191060D02*
X0083250Y0187060D01*
X0083250Y0183060D01*
X0084684Y0177802D02*
X0086800Y0177802D01*
X0085802Y0176804D02*
X0083686Y0176804D01*
X0082687Y0175805D02*
X0084803Y0175805D01*
X0083805Y0174807D02*
X0079735Y0174807D01*
X0078694Y0173808D02*
X0082806Y0173808D01*
X0070650Y0173808D02*
X0043800Y0173808D01*
X0043800Y0172810D02*
X0070650Y0172810D01*
X0070650Y0171811D02*
X0043800Y0171811D01*
X0043800Y0170813D02*
X0070650Y0170813D01*
X0070650Y0169814D02*
X0043800Y0169814D01*
X0043800Y0168816D02*
X0070650Y0168816D01*
X0070650Y0167817D02*
X0043800Y0167817D01*
X0043800Y0166819D02*
X0070650Y0166819D01*
X0070650Y0165820D02*
X0043800Y0165820D01*
X0043800Y0164822D02*
X0070650Y0164822D01*
X0070650Y0163823D02*
X0044234Y0163823D01*
X0044497Y0163561D02*
X0043800Y0164258D01*
X0043800Y0192418D01*
X0044292Y0192910D01*
X0045277Y0192910D01*
X0046251Y0193313D01*
X0046997Y0194059D01*
X0047400Y0195033D01*
X0047400Y0196087D01*
X0046997Y0197061D01*
X0046251Y0197807D01*
X0045760Y0198010D01*
X0047608Y0198010D01*
X0055108Y0190510D01*
X0057588Y0190510D01*
X0058096Y0189284D01*
X0059474Y0187906D01*
X0061275Y0187160D01*
X0063225Y0187160D01*
X0065026Y0187906D01*
X0065550Y0188430D01*
X0065550Y0185690D01*
X0065026Y0186214D01*
X0063225Y0186960D01*
X0061275Y0186960D01*
X0059474Y0186214D01*
X0058096Y0184836D01*
X0057350Y0183035D01*
X0057350Y0181085D01*
X0057547Y0180610D01*
X0049448Y0180610D01*
X0048751Y0181307D01*
X0047777Y0181710D01*
X0046723Y0181710D01*
X0045749Y0181307D01*
X0045003Y0180561D01*
X0044600Y0179587D01*
X0044600Y0178533D01*
X0045003Y0177559D01*
X0045749Y0176813D01*
X0046723Y0176410D01*
X0047777Y0176410D01*
X0048751Y0176813D01*
X0049448Y0177510D01*
X0059892Y0177510D01*
X0060050Y0177668D01*
X0061275Y0177160D01*
X0063225Y0177160D01*
X0065026Y0177906D01*
X0066404Y0179284D01*
X0067042Y0180825D01*
X0067486Y0180736D01*
X0068751Y0181580D01*
X0070017Y0180736D01*
X0070650Y0180863D01*
X0070650Y0156014D01*
X0070638Y0156026D01*
X0069975Y0156507D01*
X0069246Y0156879D01*
X0068468Y0157132D01*
X0067750Y0157246D01*
X0067750Y0152560D01*
X0066750Y0152560D01*
X0066750Y0157246D01*
X0066032Y0157132D01*
X0065254Y0156879D01*
X0064525Y0156507D01*
X0063862Y0156026D01*
X0063284Y0155448D01*
X0062803Y0154785D01*
X0062431Y0154056D01*
X0062178Y0153278D01*
X0062142Y0153053D01*
X0061404Y0154836D01*
X0060026Y0156214D01*
X0058225Y0156960D01*
X0056275Y0156960D01*
X0054474Y0156214D01*
X0053096Y0154836D01*
X0052350Y0153035D01*
X0052350Y0151085D01*
X0053096Y0149284D01*
X0053720Y0148660D01*
X0050780Y0148660D01*
X0051404Y0149284D01*
X0052150Y0151085D01*
X0052150Y0153035D01*
X0051404Y0154836D01*
X0050026Y0156214D01*
X0048225Y0156960D01*
X0046275Y0156960D01*
X0045050Y0156452D01*
X0042092Y0159410D01*
X0042777Y0159410D01*
X0043751Y0159813D01*
X0044497Y0160559D01*
X0044900Y0161533D01*
X0044900Y0162587D01*
X0044497Y0163561D01*
X0044802Y0162825D02*
X0070650Y0162825D01*
X0070650Y0161826D02*
X0044900Y0161826D01*
X0044608Y0160828D02*
X0070650Y0160828D01*
X0070650Y0159829D02*
X0043767Y0159829D01*
X0042671Y0158831D02*
X0070650Y0158831D01*
X0070650Y0157832D02*
X0043670Y0157832D01*
X0044668Y0156834D02*
X0045970Y0156834D01*
X0048530Y0156834D02*
X0055970Y0156834D01*
X0054096Y0155835D02*
X0050404Y0155835D01*
X0051403Y0154837D02*
X0053097Y0154837D01*
X0052683Y0153838D02*
X0051817Y0153838D01*
X0052150Y0152840D02*
X0052350Y0152840D01*
X0052350Y0151841D02*
X0052150Y0151841D01*
X0052049Y0150843D02*
X0052451Y0150843D01*
X0052864Y0149844D02*
X0051636Y0149844D01*
X0050965Y0148846D02*
X0053535Y0148846D01*
X0057692Y0143853D02*
X0016809Y0143853D01*
X0017998Y0142855D02*
X0056502Y0142855D01*
X0055327Y0141869D02*
X0055327Y0141869D01*
X0055320Y0141856D02*
X0019180Y0141856D01*
X0019757Y0140858D02*
X0054743Y0140858D01*
X0054167Y0139859D02*
X0020333Y0139859D01*
X0020742Y0139151D02*
X0020742Y0139151D01*
X0020793Y0138861D02*
X0053707Y0138861D01*
X0053530Y0137862D02*
X0020970Y0137862D01*
X0021146Y0136863D02*
X0053354Y0136863D01*
X0053213Y0136060D02*
X0053213Y0136060D01*
X0053247Y0135865D02*
X0021253Y0135865D01*
X0021287Y0136060D02*
X0021287Y0136060D01*
X0021077Y0134866D02*
X0053423Y0134866D01*
X0053599Y0133868D02*
X0020901Y0133868D01*
X0020742Y0132969D02*
X0020742Y0132969D01*
X0020685Y0132869D02*
X0053815Y0132869D01*
X0053758Y0132969D02*
X0053758Y0132969D01*
X0054392Y0131871D02*
X0020108Y0131871D01*
X0019532Y0130872D02*
X0054968Y0130872D01*
X0055776Y0129874D02*
X0049128Y0129874D01*
X0050127Y0128875D02*
X0056966Y0128875D01*
X0057731Y0128233D02*
X0057731Y0128233D01*
X0058711Y0127877D02*
X0051125Y0127877D01*
X0052124Y0126878D02*
X0070650Y0126878D01*
X0070650Y0125880D02*
X0063418Y0125880D01*
X0065358Y0124881D02*
X0070650Y0124881D01*
X0070650Y0123883D02*
X0066357Y0123883D01*
X0066798Y0122884D02*
X0070650Y0122884D01*
X0070650Y0127877D02*
X0065789Y0127877D01*
X0066769Y0128233D02*
X0066769Y0128233D01*
X0067534Y0128875D02*
X0070650Y0128875D01*
X0070650Y0129874D02*
X0068724Y0129874D01*
X0069173Y0130251D02*
X0069173Y0130251D01*
X0069173Y0130251D01*
X0069532Y0130872D02*
X0070650Y0130872D01*
X0070650Y0131871D02*
X0070108Y0131871D01*
X0061082Y0125880D02*
X0053122Y0125880D01*
X0054121Y0124881D02*
X0059142Y0124881D01*
X0058143Y0123883D02*
X0055119Y0123883D01*
X0056118Y0122884D02*
X0057702Y0122884D01*
X0037872Y0129874D02*
X0020588Y0129874D01*
X0021573Y0128875D02*
X0036873Y0128875D01*
X0035875Y0127877D02*
X0029181Y0127877D01*
X0029779Y0126878D02*
X0035700Y0126878D01*
X0034928Y0125880D02*
X0029900Y0125880D01*
X0030621Y0124881D02*
X0034600Y0124881D01*
X0034662Y0123883D02*
X0031619Y0123883D01*
X0032618Y0122884D02*
X0035178Y0122884D01*
X0030231Y0120887D02*
X0015950Y0120887D01*
X0015950Y0119889D02*
X0023607Y0119889D01*
X0023250Y0118890D02*
X0015950Y0118890D01*
X0015865Y0117892D02*
X0023250Y0117892D01*
X0023250Y0116893D02*
X0015950Y0116893D01*
X0015950Y0115895D02*
X0023335Y0115895D01*
X0023550Y0114896D02*
X0015950Y0114896D01*
X0015859Y0113898D02*
X0023550Y0113898D01*
X0023550Y0112899D02*
X0015950Y0112899D01*
X0015950Y0111901D02*
X0025700Y0111901D01*
X0025700Y0110902D02*
X0015950Y0110902D01*
X0015541Y0109904D02*
X0025700Y0109904D01*
X0025700Y0108905D02*
X0013800Y0108905D01*
X0013800Y0107907D02*
X0020849Y0107907D01*
X0024651Y0107907D02*
X0025349Y0107907D01*
X0015906Y0106908D02*
X0013790Y0106908D01*
X0012792Y0105910D02*
X0014908Y0105910D01*
X0013909Y0104911D02*
X0011793Y0104911D01*
X0012911Y0103913D02*
X0008850Y0103913D01*
X0007588Y0102914D02*
X0011912Y0102914D01*
X0012250Y0112060D02*
X0012250Y0116060D01*
X0012250Y0120060D01*
X0013800Y0122884D02*
X0028234Y0122884D01*
X0029232Y0121886D02*
X0015871Y0121886D01*
X0013800Y0123883D02*
X0025679Y0123883D01*
X0024870Y0124881D02*
X0013800Y0124881D01*
X0013122Y0125880D02*
X0017182Y0125880D01*
X0021318Y0125880D02*
X0024600Y0125880D01*
X0024721Y0126878D02*
X0021836Y0126878D01*
X0021900Y0127877D02*
X0025319Y0127877D01*
X0019173Y0130251D02*
X0019173Y0130251D01*
X0019173Y0130251D01*
X0027125Y0119889D02*
X0027375Y0119889D01*
X0027375Y0118890D02*
X0027125Y0118890D01*
X0027125Y0117892D02*
X0027375Y0117892D01*
X0061817Y0153838D02*
X0062360Y0153838D01*
X0062840Y0154837D02*
X0061403Y0154837D01*
X0060404Y0155835D02*
X0063671Y0155835D01*
X0065165Y0156834D02*
X0058530Y0156834D01*
X0066750Y0156834D02*
X0067750Y0156834D01*
X0067750Y0155835D02*
X0066750Y0155835D01*
X0066750Y0154837D02*
X0067750Y0154837D01*
X0067750Y0153838D02*
X0066750Y0153838D01*
X0066750Y0152840D02*
X0067750Y0152840D01*
X0069335Y0156834D02*
X0070650Y0156834D01*
X0070650Y0174807D02*
X0043800Y0174807D01*
X0043800Y0175805D02*
X0070650Y0175805D01*
X0070650Y0176804D02*
X0048728Y0176804D01*
X0045772Y0176804D02*
X0043800Y0176804D01*
X0043800Y0177802D02*
X0044903Y0177802D01*
X0044600Y0178801D02*
X0043800Y0178801D01*
X0043800Y0179799D02*
X0044688Y0179799D01*
X0045240Y0180798D02*
X0043800Y0180798D01*
X0043800Y0181796D02*
X0057350Y0181796D01*
X0057350Y0182795D02*
X0043800Y0182795D01*
X0043800Y0183794D02*
X0057664Y0183794D01*
X0058078Y0184792D02*
X0043800Y0184792D01*
X0043800Y0185791D02*
X0059051Y0185791D01*
X0060863Y0186789D02*
X0043800Y0186789D01*
X0043800Y0187788D02*
X0059760Y0187788D01*
X0058594Y0188786D02*
X0043800Y0188786D01*
X0043800Y0189785D02*
X0057889Y0189785D01*
X0054835Y0190783D02*
X0043800Y0190783D01*
X0043800Y0191782D02*
X0053836Y0191782D01*
X0052838Y0192780D02*
X0044162Y0192780D01*
X0046716Y0193779D02*
X0051839Y0193779D01*
X0050841Y0194777D02*
X0047294Y0194777D01*
X0047400Y0195776D02*
X0049842Y0195776D01*
X0048844Y0196774D02*
X0047115Y0196774D01*
X0047845Y0197773D02*
X0046285Y0197773D01*
X0043740Y0198010D02*
X0043249Y0197807D01*
X0042503Y0197061D01*
X0042100Y0196087D01*
X0042100Y0195102D01*
X0040700Y0193702D01*
X0040700Y0164258D01*
X0040003Y0163561D01*
X0039600Y0162587D01*
X0039600Y0161902D01*
X0033800Y0167702D01*
X0033800Y0192702D01*
X0029900Y0196602D01*
X0029900Y0197587D01*
X0029497Y0198561D01*
X0028751Y0199307D01*
X0027777Y0199710D01*
X0026723Y0199710D01*
X0025749Y0199307D01*
X0025003Y0198561D01*
X0024600Y0197587D01*
X0024600Y0196533D01*
X0025003Y0195559D01*
X0025749Y0194813D01*
X0026723Y0194410D01*
X0027708Y0194410D01*
X0030700Y0191418D01*
X0030700Y0191081D01*
X0030671Y0191110D01*
X0030329Y0191308D01*
X0029947Y0191410D01*
X0027375Y0191410D01*
X0027375Y0188785D01*
X0027125Y0188785D01*
X0027125Y0191410D01*
X0024553Y0191410D01*
X0024171Y0191308D01*
X0023829Y0191110D01*
X0023550Y0190831D01*
X0023352Y0190489D01*
X0023250Y0190107D01*
X0023250Y0188785D01*
X0027125Y0188785D01*
X0027125Y0188535D01*
X0023250Y0188535D01*
X0023250Y0187212D01*
X0023352Y0186831D01*
X0023550Y0186489D01*
X0023550Y0186489D01*
X0023550Y0183713D01*
X0024253Y0183010D01*
X0025700Y0183010D01*
X0025700Y0179258D01*
X0025003Y0178561D01*
X0025000Y0178553D01*
X0024997Y0178561D01*
X0024251Y0179307D01*
X0023277Y0179710D01*
X0022223Y0179710D01*
X0021249Y0179307D01*
X0020552Y0178610D01*
X0016608Y0178610D01*
X0015700Y0177702D01*
X0011608Y0173610D01*
X0007892Y0173610D01*
X0007092Y0174410D01*
X0007777Y0174410D01*
X0008751Y0174813D01*
X0009448Y0175510D01*
X0011392Y0175510D01*
X0012892Y0177010D01*
X0013800Y0177918D01*
X0013800Y0180610D01*
X0015247Y0180610D01*
X0015950Y0181313D01*
X0015950Y0184807D01*
X0015697Y0185060D01*
X0015950Y0185313D01*
X0015950Y0188807D01*
X0015697Y0189060D01*
X0015950Y0189313D01*
X0015950Y0192807D01*
X0015247Y0193510D01*
X0013800Y0193510D01*
X0013800Y0196202D01*
X0012992Y0197010D01*
X0017052Y0197010D01*
X0017749Y0196313D01*
X0018723Y0195910D01*
X0019777Y0195910D01*
X0020751Y0196313D01*
X0021497Y0197059D01*
X0021900Y0198033D01*
X0021900Y0199087D01*
X0021497Y0200061D01*
X0020751Y0200807D01*
X0019777Y0201210D01*
X0019124Y0201210D01*
X0019173Y0201251D01*
X0020742Y0203969D01*
X0021287Y0207060D01*
X0020742Y0210151D01*
X0019173Y0212869D01*
X0019173Y0212869D01*
X0016769Y0214887D01*
X0016769Y0214887D01*
X0015193Y0215460D01*
X0059307Y0215460D01*
X0057731Y0214887D01*
X0055327Y0212869D01*
X0053758Y0210151D01*
X0053758Y0210151D01*
X0053213Y0207060D01*
X0053758Y0203969D01*
X0055327Y0201251D01*
X0055327Y0201251D01*
X0057731Y0199233D01*
X0060681Y0198160D01*
X0063819Y0198160D01*
X0066769Y0199233D01*
X0069173Y0201251D01*
X0070650Y0203809D01*
X0070650Y0193368D01*
X0070482Y0193537D01*
X0067021Y0193537D01*
X0066965Y0193481D01*
X0066404Y0194836D01*
X0065026Y0196214D01*
X0063225Y0196960D01*
X0061275Y0196960D01*
X0059474Y0196214D01*
X0058096Y0194836D01*
X0057588Y0193610D01*
X0056392Y0193610D01*
X0049800Y0200202D01*
X0048892Y0201110D01*
X0038108Y0201110D01*
X0037200Y0200202D01*
X0036608Y0199610D01*
X0035700Y0198702D01*
X0035700Y0197758D01*
X0035003Y0197061D01*
X0034600Y0196087D01*
X0034600Y0195033D01*
X0035003Y0194059D01*
X0035749Y0193313D01*
X0036723Y0192910D01*
X0037777Y0192910D01*
X0038751Y0193313D01*
X0039497Y0194059D01*
X0039900Y0195033D01*
X0039900Y0196087D01*
X0039497Y0197061D01*
X0038970Y0197588D01*
X0039392Y0198010D01*
X0043740Y0198010D01*
X0043215Y0197773D02*
X0039155Y0197773D01*
X0039615Y0196774D02*
X0042385Y0196774D01*
X0042100Y0195776D02*
X0039900Y0195776D01*
X0039794Y0194777D02*
X0041775Y0194777D01*
X0040777Y0193779D02*
X0039216Y0193779D01*
X0040700Y0192780D02*
X0033722Y0192780D01*
X0033800Y0191782D02*
X0040700Y0191782D01*
X0040700Y0190783D02*
X0033800Y0190783D01*
X0033800Y0189785D02*
X0040700Y0189785D01*
X0040700Y0188786D02*
X0033800Y0188786D01*
X0033800Y0187788D02*
X0040700Y0187788D01*
X0040700Y0186789D02*
X0033800Y0186789D01*
X0033800Y0185791D02*
X0040700Y0185791D01*
X0040700Y0184792D02*
X0033800Y0184792D01*
X0033800Y0183794D02*
X0040700Y0183794D01*
X0040700Y0182795D02*
X0033800Y0182795D01*
X0033800Y0181796D02*
X0040700Y0181796D01*
X0040700Y0180798D02*
X0033800Y0180798D01*
X0033800Y0179799D02*
X0040700Y0179799D01*
X0040700Y0178801D02*
X0033800Y0178801D01*
X0033800Y0177802D02*
X0040700Y0177802D01*
X0040700Y0176804D02*
X0033800Y0176804D01*
X0033800Y0175805D02*
X0040700Y0175805D01*
X0040700Y0174807D02*
X0033800Y0174807D01*
X0033800Y0173808D02*
X0040700Y0173808D01*
X0040700Y0172810D02*
X0033800Y0172810D01*
X0033800Y0171811D02*
X0040700Y0171811D01*
X0040700Y0170813D02*
X0033800Y0170813D01*
X0033800Y0169814D02*
X0040700Y0169814D01*
X0040700Y0168816D02*
X0033800Y0168816D01*
X0033800Y0167817D02*
X0040700Y0167817D01*
X0040700Y0166819D02*
X0034683Y0166819D01*
X0035682Y0165820D02*
X0040700Y0165820D01*
X0040700Y0164822D02*
X0036680Y0164822D01*
X0037679Y0163823D02*
X0040266Y0163823D01*
X0039698Y0162825D02*
X0038677Y0162825D01*
X0025243Y0178801D02*
X0024757Y0178801D01*
X0025700Y0179799D02*
X0013800Y0179799D01*
X0013800Y0178801D02*
X0020743Y0178801D01*
X0015800Y0177802D02*
X0013684Y0177802D01*
X0012686Y0176804D02*
X0014802Y0176804D01*
X0013803Y0175805D02*
X0011687Y0175805D01*
X0012805Y0174807D02*
X0008735Y0174807D01*
X0007694Y0173808D02*
X0011806Y0173808D01*
X0015435Y0180798D02*
X0025700Y0180798D01*
X0025700Y0181796D02*
X0015950Y0181796D01*
X0015950Y0182795D02*
X0025700Y0182795D01*
X0023550Y0183794D02*
X0015950Y0183794D01*
X0015950Y0184792D02*
X0023550Y0184792D01*
X0023550Y0185791D02*
X0015950Y0185791D01*
X0015950Y0186789D02*
X0023376Y0186789D01*
X0023250Y0187788D02*
X0015950Y0187788D01*
X0015950Y0188786D02*
X0023250Y0188786D01*
X0023250Y0189785D02*
X0015950Y0189785D01*
X0015950Y0190783D02*
X0023522Y0190783D01*
X0027125Y0190783D02*
X0027375Y0190783D01*
X0027375Y0189785D02*
X0027125Y0189785D01*
X0027125Y0188786D02*
X0027375Y0188786D01*
X0030336Y0191782D02*
X0015950Y0191782D01*
X0015950Y0192780D02*
X0029338Y0192780D01*
X0028339Y0193779D02*
X0013800Y0193779D01*
X0013800Y0194777D02*
X0025836Y0194777D01*
X0024914Y0195776D02*
X0013800Y0195776D01*
X0013228Y0196774D02*
X0017288Y0196774D01*
X0021212Y0196774D02*
X0024600Y0196774D01*
X0024677Y0197773D02*
X0021792Y0197773D01*
X0021900Y0198771D02*
X0025214Y0198771D01*
X0021617Y0199770D02*
X0036768Y0199770D01*
X0037766Y0200768D02*
X0020789Y0200768D01*
X0019471Y0201767D02*
X0055029Y0201767D01*
X0054453Y0202765D02*
X0020047Y0202765D01*
X0020624Y0203764D02*
X0053876Y0203764D01*
X0053758Y0203969D02*
X0053758Y0203969D01*
X0053618Y0204762D02*
X0020882Y0204762D01*
X0020742Y0203969D02*
X0020742Y0203969D01*
X0021058Y0205761D02*
X0053442Y0205761D01*
X0053266Y0206759D02*
X0021234Y0206759D01*
X0021287Y0207060D02*
X0021287Y0207060D01*
X0021164Y0207758D02*
X0053336Y0207758D01*
X0053213Y0207060D02*
X0053213Y0207060D01*
X0053512Y0208756D02*
X0020988Y0208756D01*
X0020812Y0209755D02*
X0053688Y0209755D01*
X0054106Y0210753D02*
X0020394Y0210753D01*
X0020742Y0210151D02*
X0020742Y0210151D01*
X0019818Y0211752D02*
X0054682Y0211752D01*
X0055259Y0212750D02*
X0019241Y0212750D01*
X0018124Y0213749D02*
X0056376Y0213749D01*
X0055327Y0212869D02*
X0055327Y0212869D01*
X0055327Y0212869D01*
X0057566Y0214747D02*
X0016934Y0214747D01*
X0019173Y0201251D02*
X0019173Y0201251D01*
X0019173Y0201251D01*
X0029286Y0198771D02*
X0035769Y0198771D01*
X0035700Y0197773D02*
X0029823Y0197773D01*
X0029900Y0196774D02*
X0034885Y0196774D01*
X0034600Y0195776D02*
X0030726Y0195776D01*
X0031725Y0194777D02*
X0034706Y0194777D01*
X0035284Y0193779D02*
X0032723Y0193779D01*
X0049234Y0200768D02*
X0055902Y0200768D01*
X0057092Y0199770D02*
X0050232Y0199770D01*
X0051231Y0198771D02*
X0059001Y0198771D01*
X0057731Y0199233D02*
X0057731Y0199233D01*
X0059036Y0195776D02*
X0054226Y0195776D01*
X0053228Y0196774D02*
X0060827Y0196774D01*
X0058072Y0194777D02*
X0055225Y0194777D01*
X0056223Y0193779D02*
X0057658Y0193779D01*
X0052229Y0197773D02*
X0070650Y0197773D01*
X0070650Y0198771D02*
X0065499Y0198771D01*
X0066769Y0199233D02*
X0066769Y0199233D01*
X0067408Y0199770D02*
X0070650Y0199770D01*
X0070650Y0200768D02*
X0068598Y0200768D01*
X0069173Y0201251D02*
X0069173Y0201251D01*
X0069173Y0201251D01*
X0069471Y0201767D02*
X0070650Y0201767D01*
X0070650Y0202765D02*
X0070047Y0202765D01*
X0070624Y0203764D02*
X0070650Y0203764D01*
X0070650Y0196774D02*
X0063673Y0196774D01*
X0065464Y0195776D02*
X0070650Y0195776D01*
X0070650Y0194777D02*
X0066428Y0194777D01*
X0066842Y0193779D02*
X0070650Y0193779D01*
X0065550Y0187788D02*
X0064740Y0187788D01*
X0065550Y0186789D02*
X0063637Y0186789D01*
X0065449Y0185791D02*
X0065550Y0185791D01*
X0067031Y0180798D02*
X0067178Y0180798D01*
X0067578Y0180798D02*
X0069924Y0180798D01*
X0070325Y0180798D02*
X0070650Y0180798D01*
X0070650Y0179799D02*
X0066617Y0179799D01*
X0065921Y0178801D02*
X0070650Y0178801D01*
X0070650Y0177802D02*
X0064776Y0177802D01*
X0057469Y0180798D02*
X0049260Y0180798D01*
X0057731Y0214887D02*
X0057731Y0214887D01*
X0098125Y0190783D02*
X0098375Y0190783D01*
X0098375Y0189785D02*
X0098125Y0189785D01*
X0098125Y0188786D02*
X0098375Y0188786D01*
X0103723Y0193779D02*
X0106284Y0193779D01*
X0105706Y0194777D02*
X0102725Y0194777D01*
X0101726Y0195776D02*
X0105600Y0195776D01*
X0105885Y0196774D02*
X0100900Y0196774D01*
X0100823Y0197773D02*
X0106700Y0197773D01*
X0106769Y0198771D02*
X0100286Y0198771D01*
X0120234Y0200768D02*
X0126902Y0200768D01*
X0128092Y0199770D02*
X0121232Y0199770D01*
X0120800Y0200202D02*
X0120800Y0200202D01*
X0122231Y0198771D02*
X0130001Y0198771D01*
X0128731Y0199233D02*
X0128731Y0199233D01*
X0130036Y0195776D02*
X0125226Y0195776D01*
X0124228Y0196774D02*
X0131827Y0196774D01*
X0134673Y0196774D02*
X0141650Y0196774D01*
X0141650Y0195776D02*
X0136464Y0195776D01*
X0137428Y0194777D02*
X0141650Y0194777D01*
X0141650Y0193779D02*
X0137842Y0193779D01*
X0136499Y0198771D02*
X0141650Y0198771D01*
X0141650Y0197773D02*
X0123229Y0197773D01*
X0126225Y0194777D02*
X0129072Y0194777D01*
X0128658Y0193779D02*
X0127223Y0193779D01*
X0134637Y0186789D02*
X0136550Y0186789D01*
X0136550Y0185791D02*
X0136449Y0185791D01*
X0136550Y0187788D02*
X0135740Y0187788D01*
X0138031Y0180798D02*
X0138178Y0180798D01*
X0138579Y0180798D02*
X0140924Y0180798D01*
X0141325Y0180798D02*
X0141650Y0180798D01*
X0141650Y0179799D02*
X0137617Y0179799D01*
X0136921Y0178801D02*
X0141650Y0178801D01*
X0141650Y0177802D02*
X0135776Y0177802D01*
X0128469Y0180798D02*
X0120260Y0180798D01*
X0137769Y0199233D02*
X0137769Y0199233D01*
X0138408Y0199770D02*
X0141650Y0199770D01*
X0141650Y0200768D02*
X0139598Y0200768D01*
X0140173Y0201251D02*
X0140173Y0201251D01*
X0140173Y0201251D01*
X0140471Y0201767D02*
X0141650Y0201767D01*
X0141650Y0202765D02*
X0141047Y0202765D01*
X0141624Y0203764D02*
X0141650Y0203764D01*
X0154992Y0197010D02*
X0159052Y0197010D01*
X0159749Y0196313D01*
X0160723Y0195910D01*
X0161777Y0195910D01*
X0162751Y0196313D01*
X0163497Y0197059D01*
X0163900Y0198033D01*
X0163900Y0199087D01*
X0163497Y0200061D01*
X0162751Y0200807D01*
X0161777Y0201210D01*
X0161124Y0201210D01*
X0161173Y0201251D01*
X0162742Y0203969D01*
X0162742Y0203969D01*
X0163287Y0207060D01*
X0162742Y0210151D01*
X0161173Y0212869D01*
X0161173Y0212869D01*
X0158769Y0214887D01*
X0158769Y0214887D01*
X0157193Y0215460D01*
X0201307Y0215460D01*
X0199731Y0214887D01*
X0197327Y0212869D01*
X0195758Y0210151D01*
X0195758Y0210151D01*
X0195213Y0207060D01*
X0195758Y0203969D01*
X0197327Y0201251D01*
X0197327Y0201251D01*
X0199731Y0199233D01*
X0202681Y0198160D01*
X0205819Y0198160D01*
X0208769Y0199233D01*
X0211173Y0201251D01*
X0212650Y0203809D01*
X0212650Y0193368D01*
X0212482Y0193537D01*
X0209021Y0193537D01*
X0208965Y0193481D01*
X0208404Y0194836D01*
X0207026Y0196214D01*
X0205225Y0196960D01*
X0203275Y0196960D01*
X0201474Y0196214D01*
X0200096Y0194836D01*
X0199588Y0193610D01*
X0198392Y0193610D01*
X0191800Y0200202D01*
X0190892Y0201110D01*
X0180108Y0201110D01*
X0179200Y0200202D01*
X0178608Y0199610D01*
X0177700Y0198702D01*
X0177700Y0197758D01*
X0177003Y0197061D01*
X0176600Y0196087D01*
X0176600Y0195033D01*
X0177003Y0194059D01*
X0177749Y0193313D01*
X0178723Y0192910D01*
X0179777Y0192910D01*
X0180751Y0193313D01*
X0181497Y0194059D01*
X0181900Y0195033D01*
X0181900Y0196087D01*
X0181497Y0197061D01*
X0180970Y0197588D01*
X0181392Y0198010D01*
X0185740Y0198010D01*
X0185249Y0197807D01*
X0184503Y0197061D01*
X0184100Y0196087D01*
X0184100Y0195102D01*
X0182700Y0193702D01*
X0182700Y0164258D01*
X0182003Y0163561D01*
X0181600Y0162587D01*
X0181600Y0161902D01*
X0175800Y0167702D01*
X0175800Y0192702D01*
X0171900Y0196602D01*
X0171900Y0197587D01*
X0171497Y0198561D01*
X0170751Y0199307D01*
X0169777Y0199710D01*
X0168723Y0199710D01*
X0167749Y0199307D01*
X0167003Y0198561D01*
X0166600Y0197587D01*
X0166600Y0196533D01*
X0167003Y0195559D01*
X0167749Y0194813D01*
X0168723Y0194410D01*
X0169708Y0194410D01*
X0172700Y0191418D01*
X0172700Y0191081D01*
X0172671Y0191110D01*
X0172329Y0191308D01*
X0171947Y0191410D01*
X0169375Y0191410D01*
X0169375Y0188785D01*
X0169125Y0188785D01*
X0169125Y0191410D01*
X0166553Y0191410D01*
X0166171Y0191308D01*
X0165829Y0191110D01*
X0165550Y0190831D01*
X0165352Y0190489D01*
X0165250Y0190107D01*
X0165250Y0188785D01*
X0169125Y0188785D01*
X0169125Y0188535D01*
X0165250Y0188535D01*
X0165250Y0187212D01*
X0165352Y0186831D01*
X0165550Y0186489D01*
X0165550Y0186489D01*
X0165550Y0183713D01*
X0166253Y0183010D01*
X0167700Y0183010D01*
X0167700Y0179258D01*
X0167003Y0178561D01*
X0167000Y0178553D01*
X0166997Y0178561D01*
X0166251Y0179307D01*
X0165277Y0179710D01*
X0164223Y0179710D01*
X0163249Y0179307D01*
X0162552Y0178610D01*
X0158608Y0178610D01*
X0157700Y0177702D01*
X0153608Y0173610D01*
X0149892Y0173610D01*
X0149092Y0174410D01*
X0149777Y0174410D01*
X0150751Y0174813D01*
X0151448Y0175510D01*
X0153392Y0175510D01*
X0154892Y0177010D01*
X0155800Y0177918D01*
X0155800Y0180610D01*
X0157247Y0180610D01*
X0157950Y0181313D01*
X0157950Y0184807D01*
X0157697Y0185060D01*
X0157950Y0185313D01*
X0157950Y0188807D01*
X0157697Y0189060D01*
X0157950Y0189313D01*
X0157950Y0192807D01*
X0157247Y0193510D01*
X0155800Y0193510D01*
X0155800Y0196202D01*
X0154992Y0197010D01*
X0155228Y0196774D02*
X0159288Y0196774D01*
X0155800Y0195776D02*
X0166914Y0195776D01*
X0166600Y0196774D02*
X0163212Y0196774D01*
X0163792Y0197773D02*
X0166677Y0197773D01*
X0167214Y0198771D02*
X0163900Y0198771D01*
X0163617Y0199770D02*
X0178768Y0199770D01*
X0179766Y0200768D02*
X0162789Y0200768D01*
X0161471Y0201767D02*
X0197029Y0201767D01*
X0196453Y0202765D02*
X0162047Y0202765D01*
X0162624Y0203764D02*
X0195876Y0203764D01*
X0195758Y0203969D02*
X0195758Y0203969D01*
X0195618Y0204762D02*
X0162882Y0204762D01*
X0163058Y0205761D02*
X0195442Y0205761D01*
X0195266Y0206759D02*
X0163234Y0206759D01*
X0163164Y0207758D02*
X0195336Y0207758D01*
X0195213Y0207060D02*
X0195213Y0207060D01*
X0195512Y0208756D02*
X0162988Y0208756D01*
X0162812Y0209755D02*
X0195688Y0209755D01*
X0196106Y0210753D02*
X0162394Y0210753D01*
X0162742Y0210151D02*
X0162742Y0210151D01*
X0161818Y0211752D02*
X0196682Y0211752D01*
X0197259Y0212750D02*
X0161241Y0212750D01*
X0160124Y0213749D02*
X0198376Y0213749D01*
X0197327Y0212869D02*
X0197327Y0212869D01*
X0197327Y0212869D01*
X0199566Y0214747D02*
X0158934Y0214747D01*
X0161173Y0201251D02*
X0161173Y0201251D01*
X0155800Y0194777D02*
X0167836Y0194777D01*
X0170339Y0193779D02*
X0155800Y0193779D01*
X0157950Y0192780D02*
X0171338Y0192780D01*
X0172336Y0191782D02*
X0157950Y0191782D01*
X0157950Y0190783D02*
X0165522Y0190783D01*
X0165250Y0189785D02*
X0157950Y0189785D01*
X0157950Y0188786D02*
X0165250Y0188786D01*
X0165250Y0187788D02*
X0157950Y0187788D01*
X0157950Y0186789D02*
X0165376Y0186789D01*
X0165550Y0185791D02*
X0157950Y0185791D01*
X0157950Y0184792D02*
X0165550Y0184792D01*
X0165550Y0183794D02*
X0157950Y0183794D01*
X0157950Y0182795D02*
X0167700Y0182795D01*
X0167700Y0181796D02*
X0157950Y0181796D01*
X0157435Y0180798D02*
X0167700Y0180798D01*
X0167700Y0179799D02*
X0155800Y0179799D01*
X0155800Y0178801D02*
X0162743Y0178801D01*
X0166757Y0178801D02*
X0167243Y0178801D01*
X0175800Y0178801D02*
X0182700Y0178801D01*
X0182700Y0179799D02*
X0175800Y0179799D01*
X0175800Y0180798D02*
X0182700Y0180798D01*
X0182700Y0181796D02*
X0175800Y0181796D01*
X0175800Y0182795D02*
X0182700Y0182795D01*
X0182700Y0183794D02*
X0175800Y0183794D01*
X0175800Y0184792D02*
X0182700Y0184792D01*
X0182700Y0185791D02*
X0175800Y0185791D01*
X0175800Y0186789D02*
X0182700Y0186789D01*
X0182700Y0187788D02*
X0175800Y0187788D01*
X0175800Y0188786D02*
X0182700Y0188786D01*
X0182700Y0189785D02*
X0175800Y0189785D01*
X0175800Y0190783D02*
X0182700Y0190783D01*
X0182700Y0191782D02*
X0175800Y0191782D01*
X0175722Y0192780D02*
X0182700Y0192780D01*
X0182777Y0193779D02*
X0181216Y0193779D01*
X0181794Y0194777D02*
X0183775Y0194777D01*
X0184100Y0195776D02*
X0181900Y0195776D01*
X0181615Y0196774D02*
X0184385Y0196774D01*
X0185215Y0197773D02*
X0181155Y0197773D01*
X0177700Y0197773D02*
X0171823Y0197773D01*
X0171900Y0196774D02*
X0176885Y0196774D01*
X0176600Y0195776D02*
X0172726Y0195776D01*
X0173725Y0194777D02*
X0176706Y0194777D01*
X0177284Y0193779D02*
X0174723Y0193779D01*
X0177769Y0198771D02*
X0171286Y0198771D01*
X0169375Y0190783D02*
X0169125Y0190783D01*
X0169125Y0189785D02*
X0169375Y0189785D01*
X0169375Y0188786D02*
X0169125Y0188786D01*
X0175800Y0177802D02*
X0182700Y0177802D01*
X0182700Y0176804D02*
X0175800Y0176804D01*
X0175800Y0175805D02*
X0182700Y0175805D01*
X0182700Y0174807D02*
X0175800Y0174807D01*
X0175800Y0173808D02*
X0182700Y0173808D01*
X0182700Y0172810D02*
X0175800Y0172810D01*
X0175800Y0171811D02*
X0182700Y0171811D01*
X0182700Y0170813D02*
X0175800Y0170813D01*
X0175800Y0169814D02*
X0182700Y0169814D01*
X0182700Y0168816D02*
X0175800Y0168816D01*
X0175800Y0167817D02*
X0182700Y0167817D01*
X0182700Y0166819D02*
X0176683Y0166819D01*
X0177682Y0165820D02*
X0182700Y0165820D01*
X0182700Y0164822D02*
X0178680Y0164822D01*
X0179679Y0163823D02*
X0182266Y0163823D01*
X0181698Y0162825D02*
X0180677Y0162825D01*
X0184092Y0159410D02*
X0184777Y0159410D01*
X0185751Y0159813D01*
X0186497Y0160559D01*
X0186900Y0161533D01*
X0186900Y0162587D01*
X0186497Y0163561D01*
X0185800Y0164258D01*
X0185800Y0192418D01*
X0186292Y0192910D01*
X0187277Y0192910D01*
X0188251Y0193313D01*
X0188997Y0194059D01*
X0189400Y0195033D01*
X0189400Y0196087D01*
X0188997Y0197061D01*
X0188251Y0197807D01*
X0187760Y0198010D01*
X0189608Y0198010D01*
X0197108Y0190510D01*
X0199588Y0190510D01*
X0200096Y0189284D01*
X0201474Y0187906D01*
X0203275Y0187160D01*
X0205225Y0187160D01*
X0207026Y0187906D01*
X0207550Y0188430D01*
X0207550Y0185690D01*
X0207026Y0186214D01*
X0205225Y0186960D01*
X0203275Y0186960D01*
X0201474Y0186214D01*
X0200096Y0184836D01*
X0199350Y0183035D01*
X0199350Y0181085D01*
X0199547Y0180610D01*
X0191448Y0180610D01*
X0190751Y0181307D01*
X0189777Y0181710D01*
X0188723Y0181710D01*
X0187749Y0181307D01*
X0187003Y0180561D01*
X0186600Y0179587D01*
X0186600Y0178533D01*
X0187003Y0177559D01*
X0187749Y0176813D01*
X0188723Y0176410D01*
X0189777Y0176410D01*
X0190751Y0176813D01*
X0191448Y0177510D01*
X0201892Y0177510D01*
X0202050Y0177668D01*
X0203275Y0177160D01*
X0205225Y0177160D01*
X0207026Y0177906D01*
X0208404Y0179284D01*
X0209042Y0180825D01*
X0209486Y0180736D01*
X0210751Y0181580D01*
X0212017Y0180736D01*
X0212650Y0180863D01*
X0212650Y0156014D01*
X0212638Y0156026D01*
X0211975Y0156507D01*
X0211246Y0156879D01*
X0210468Y0157132D01*
X0209750Y0157246D01*
X0209750Y0152560D01*
X0208750Y0152560D01*
X0208750Y0157246D01*
X0208032Y0157132D01*
X0207254Y0156879D01*
X0206525Y0156507D01*
X0205862Y0156026D01*
X0205284Y0155448D01*
X0204803Y0154785D01*
X0204431Y0154056D01*
X0204178Y0153278D01*
X0204142Y0153053D01*
X0203404Y0154836D01*
X0202026Y0156214D01*
X0200225Y0156960D01*
X0198275Y0156960D01*
X0196474Y0156214D01*
X0195096Y0154836D01*
X0194350Y0153035D01*
X0194350Y0151085D01*
X0195096Y0149284D01*
X0195720Y0148660D01*
X0192780Y0148660D01*
X0193404Y0149284D01*
X0194150Y0151085D01*
X0194150Y0153035D01*
X0193404Y0154836D01*
X0192026Y0156214D01*
X0190225Y0156960D01*
X0188275Y0156960D01*
X0187050Y0156452D01*
X0184092Y0159410D01*
X0184671Y0158831D02*
X0212650Y0158831D01*
X0212650Y0159829D02*
X0185767Y0159829D01*
X0186608Y0160828D02*
X0212650Y0160828D01*
X0212650Y0161826D02*
X0186900Y0161826D01*
X0186802Y0162825D02*
X0212650Y0162825D01*
X0212650Y0163823D02*
X0186234Y0163823D01*
X0185800Y0164822D02*
X0212650Y0164822D01*
X0212650Y0165820D02*
X0185800Y0165820D01*
X0185800Y0166819D02*
X0212650Y0166819D01*
X0212650Y0167817D02*
X0185800Y0167817D01*
X0185800Y0168816D02*
X0212650Y0168816D01*
X0212650Y0169814D02*
X0185800Y0169814D01*
X0185800Y0170813D02*
X0212650Y0170813D01*
X0212650Y0171811D02*
X0185800Y0171811D01*
X0185800Y0172810D02*
X0212650Y0172810D01*
X0212650Y0173808D02*
X0185800Y0173808D01*
X0185800Y0174807D02*
X0212650Y0174807D01*
X0212650Y0175805D02*
X0185800Y0175805D01*
X0185800Y0176804D02*
X0187772Y0176804D01*
X0186903Y0177802D02*
X0185800Y0177802D01*
X0185800Y0178801D02*
X0186600Y0178801D01*
X0186688Y0179799D02*
X0185800Y0179799D01*
X0185800Y0180798D02*
X0187240Y0180798D01*
X0185800Y0181796D02*
X0199350Y0181796D01*
X0199350Y0182795D02*
X0185800Y0182795D01*
X0185800Y0183794D02*
X0199664Y0183794D01*
X0200078Y0184792D02*
X0185800Y0184792D01*
X0185800Y0185791D02*
X0201051Y0185791D01*
X0202863Y0186789D02*
X0185800Y0186789D01*
X0185800Y0187788D02*
X0201760Y0187788D01*
X0200594Y0188786D02*
X0185800Y0188786D01*
X0185800Y0189785D02*
X0199889Y0189785D01*
X0196835Y0190783D02*
X0185800Y0190783D01*
X0185800Y0191782D02*
X0195836Y0191782D01*
X0194838Y0192780D02*
X0186162Y0192780D01*
X0188716Y0193779D02*
X0193839Y0193779D01*
X0192841Y0194777D02*
X0189294Y0194777D01*
X0189400Y0195776D02*
X0191842Y0195776D01*
X0190844Y0196774D02*
X0189115Y0196774D01*
X0189845Y0197773D02*
X0188285Y0197773D01*
X0191234Y0200768D02*
X0197902Y0200768D01*
X0199092Y0199770D02*
X0192232Y0199770D01*
X0193231Y0198771D02*
X0201001Y0198771D01*
X0199731Y0199233D02*
X0199731Y0199233D01*
X0201036Y0195776D02*
X0196226Y0195776D01*
X0195228Y0196774D02*
X0202827Y0196774D01*
X0205673Y0196774D02*
X0212650Y0196774D01*
X0212650Y0195776D02*
X0207464Y0195776D01*
X0208428Y0194777D02*
X0212650Y0194777D01*
X0212650Y0193779D02*
X0208842Y0193779D01*
X0207499Y0198771D02*
X0212650Y0198771D01*
X0212650Y0197773D02*
X0194229Y0197773D01*
X0197225Y0194777D02*
X0200072Y0194777D01*
X0199658Y0193779D02*
X0198223Y0193779D01*
X0205637Y0186789D02*
X0207550Y0186789D01*
X0207550Y0185791D02*
X0207449Y0185791D01*
X0207550Y0187788D02*
X0206740Y0187788D01*
X0209031Y0180798D02*
X0209178Y0180798D01*
X0209578Y0180798D02*
X0211924Y0180798D01*
X0212325Y0180798D02*
X0212650Y0180798D01*
X0212650Y0179799D02*
X0208617Y0179799D01*
X0207921Y0178801D02*
X0212650Y0178801D01*
X0212650Y0177802D02*
X0206776Y0177802D01*
X0212650Y0176804D02*
X0190728Y0176804D01*
X0191260Y0180798D02*
X0199469Y0180798D01*
X0208769Y0199233D02*
X0208769Y0199233D01*
X0209408Y0199770D02*
X0212650Y0199770D01*
X0212650Y0200768D02*
X0210598Y0200768D01*
X0211173Y0201251D02*
X0211173Y0201251D01*
X0211173Y0201251D01*
X0211471Y0201767D02*
X0212650Y0201767D01*
X0212650Y0202765D02*
X0212047Y0202765D01*
X0212624Y0203764D02*
X0212650Y0203764D01*
X0199731Y0214887D02*
X0199731Y0214887D01*
X0157800Y0177802D02*
X0155684Y0177802D01*
X0154686Y0176804D02*
X0156802Y0176804D01*
X0155803Y0175805D02*
X0153687Y0175805D01*
X0154805Y0174807D02*
X0150735Y0174807D01*
X0149694Y0173808D02*
X0153806Y0173808D01*
X0154250Y0183060D02*
X0154250Y0187060D01*
X0154250Y0191060D01*
X0128731Y0214887D02*
X0128731Y0214887D01*
X0185670Y0157832D02*
X0212650Y0157832D01*
X0212650Y0156834D02*
X0211335Y0156834D01*
X0209750Y0156834D02*
X0208750Y0156834D01*
X0208750Y0155835D02*
X0209750Y0155835D01*
X0209750Y0154837D02*
X0208750Y0154837D01*
X0208750Y0153838D02*
X0209750Y0153838D01*
X0209750Y0152840D02*
X0208750Y0152840D01*
X0205671Y0155835D02*
X0202404Y0155835D01*
X0203403Y0154837D02*
X0204840Y0154837D01*
X0204360Y0153838D02*
X0203817Y0153838D01*
X0200530Y0156834D02*
X0207165Y0156834D01*
X0197970Y0156834D02*
X0190530Y0156834D01*
X0192404Y0155835D02*
X0196096Y0155835D01*
X0195097Y0154837D02*
X0193403Y0154837D01*
X0193817Y0153838D02*
X0194683Y0153838D01*
X0194350Y0152840D02*
X0194150Y0152840D01*
X0194150Y0151841D02*
X0194350Y0151841D01*
X0194451Y0150843D02*
X0194049Y0150843D01*
X0193636Y0149844D02*
X0194864Y0149844D01*
X0195535Y0148846D02*
X0192965Y0148846D01*
X0198502Y0142855D02*
X0159998Y0142855D01*
X0161173Y0141869D02*
X0158769Y0143887D01*
X0158769Y0143887D01*
X0157193Y0144460D01*
X0201307Y0144460D01*
X0199731Y0143887D01*
X0197327Y0141869D01*
X0195758Y0139151D01*
X0195758Y0139151D01*
X0195213Y0136060D01*
X0195758Y0132969D01*
X0197327Y0130251D01*
X0199731Y0128233D01*
X0202681Y0127160D01*
X0205819Y0127160D01*
X0208769Y0128233D01*
X0211173Y0130251D01*
X0212650Y0132809D01*
X0212650Y0122368D01*
X0212482Y0122537D01*
X0209021Y0122537D01*
X0208965Y0122481D01*
X0208404Y0123836D01*
X0207026Y0125214D01*
X0205225Y0125960D01*
X0203275Y0125960D01*
X0201474Y0125214D01*
X0200096Y0123836D01*
X0199588Y0122610D01*
X0198392Y0122610D01*
X0191800Y0129202D01*
X0190892Y0130110D01*
X0180108Y0130110D01*
X0179200Y0129202D01*
X0178608Y0128610D01*
X0177700Y0127702D01*
X0177700Y0126758D01*
X0177003Y0126061D01*
X0176600Y0125087D01*
X0176600Y0124033D01*
X0177003Y0123059D01*
X0177749Y0122313D01*
X0178723Y0121910D01*
X0179777Y0121910D01*
X0180751Y0122313D01*
X0181497Y0123059D01*
X0181900Y0124033D01*
X0181900Y0125087D01*
X0181497Y0126061D01*
X0180970Y0126588D01*
X0181392Y0127010D01*
X0185740Y0127010D01*
X0185249Y0126807D01*
X0184503Y0126061D01*
X0184100Y0125087D01*
X0184100Y0124102D01*
X0182700Y0122702D01*
X0182700Y0093258D01*
X0182003Y0092561D01*
X0181600Y0091587D01*
X0181600Y0090902D01*
X0175800Y0096702D01*
X0175800Y0121702D01*
X0171900Y0125602D01*
X0171900Y0126587D01*
X0171497Y0127561D01*
X0170751Y0128307D01*
X0169777Y0128710D01*
X0168723Y0128710D01*
X0167749Y0128307D01*
X0167003Y0127561D01*
X0166600Y0126587D01*
X0166600Y0125533D01*
X0167003Y0124559D01*
X0167749Y0123813D01*
X0168723Y0123410D01*
X0169708Y0123410D01*
X0172700Y0120418D01*
X0172700Y0120081D01*
X0172671Y0120110D01*
X0172329Y0120308D01*
X0171947Y0120410D01*
X0169375Y0120410D01*
X0169375Y0117785D01*
X0169125Y0117785D01*
X0169125Y0120410D01*
X0166553Y0120410D01*
X0166171Y0120308D01*
X0165829Y0120110D01*
X0165550Y0119831D01*
X0165352Y0119489D01*
X0165250Y0119107D01*
X0165250Y0117785D01*
X0169125Y0117785D01*
X0169125Y0117535D01*
X0165250Y0117535D01*
X0165250Y0116212D01*
X0165352Y0115831D01*
X0165550Y0115489D01*
X0165550Y0115489D01*
X0165550Y0112713D01*
X0166253Y0112010D01*
X0167700Y0112010D01*
X0167700Y0108258D01*
X0167003Y0107561D01*
X0167000Y0107553D01*
X0166997Y0107561D01*
X0166251Y0108307D01*
X0165277Y0108710D01*
X0164223Y0108710D01*
X0163249Y0108307D01*
X0162552Y0107610D01*
X0158608Y0107610D01*
X0157700Y0106702D01*
X0153608Y0102610D01*
X0149892Y0102610D01*
X0149092Y0103410D01*
X0149777Y0103410D01*
X0150751Y0103813D01*
X0151448Y0104510D01*
X0153392Y0104510D01*
X0154892Y0106010D01*
X0155800Y0106918D01*
X0155800Y0109610D01*
X0157247Y0109610D01*
X0157950Y0110313D01*
X0157950Y0113807D01*
X0157697Y0114060D01*
X0157950Y0114313D01*
X0157950Y0117807D01*
X0157697Y0118060D01*
X0157950Y0118313D01*
X0157950Y0121807D01*
X0157247Y0122510D01*
X0155800Y0122510D01*
X0155800Y0125202D01*
X0154992Y0126010D01*
X0159052Y0126010D01*
X0159749Y0125313D01*
X0160723Y0124910D01*
X0161777Y0124910D01*
X0162751Y0125313D01*
X0163497Y0126059D01*
X0163900Y0127033D01*
X0163900Y0128087D01*
X0163497Y0129061D01*
X0162751Y0129807D01*
X0161777Y0130210D01*
X0161124Y0130210D01*
X0161173Y0130251D01*
X0162742Y0132969D01*
X0163287Y0136060D01*
X0162742Y0139151D01*
X0161173Y0141869D01*
X0161173Y0141869D01*
X0161180Y0141856D02*
X0197320Y0141856D01*
X0197327Y0141869D02*
X0197327Y0141869D01*
X0197327Y0141869D01*
X0196743Y0140858D02*
X0161757Y0140858D01*
X0162333Y0139859D02*
X0196167Y0139859D01*
X0195707Y0138861D02*
X0162793Y0138861D01*
X0162742Y0139151D02*
X0162742Y0139151D01*
X0162970Y0137862D02*
X0195530Y0137862D01*
X0195354Y0136863D02*
X0163146Y0136863D01*
X0163287Y0136060D02*
X0163287Y0136060D01*
X0163253Y0135865D02*
X0195247Y0135865D01*
X0195213Y0136060D02*
X0195213Y0136060D01*
X0195423Y0134866D02*
X0163077Y0134866D01*
X0162901Y0133868D02*
X0195599Y0133868D01*
X0195758Y0132969D02*
X0195758Y0132969D01*
X0195815Y0132869D02*
X0162685Y0132869D01*
X0162742Y0132969D02*
X0162742Y0132969D01*
X0162108Y0131871D02*
X0196392Y0131871D01*
X0196968Y0130872D02*
X0161532Y0130872D01*
X0161173Y0130251D02*
X0161173Y0130251D01*
X0161173Y0130251D01*
X0162588Y0129874D02*
X0179872Y0129874D01*
X0178873Y0128875D02*
X0163573Y0128875D01*
X0163900Y0127877D02*
X0167319Y0127877D01*
X0166721Y0126878D02*
X0163836Y0126878D01*
X0163318Y0125880D02*
X0166600Y0125880D01*
X0166870Y0124881D02*
X0155800Y0124881D01*
X0155800Y0123883D02*
X0167679Y0123883D01*
X0170234Y0122884D02*
X0155800Y0122884D01*
X0157871Y0121886D02*
X0171232Y0121886D01*
X0172231Y0120887D02*
X0157950Y0120887D01*
X0157950Y0119889D02*
X0165607Y0119889D01*
X0165250Y0118890D02*
X0157950Y0118890D01*
X0157865Y0117892D02*
X0165250Y0117892D01*
X0165250Y0116893D02*
X0157950Y0116893D01*
X0157950Y0115895D02*
X0165335Y0115895D01*
X0165550Y0114896D02*
X0157950Y0114896D01*
X0157859Y0113898D02*
X0165550Y0113898D01*
X0165550Y0112899D02*
X0157950Y0112899D01*
X0157950Y0111901D02*
X0167700Y0111901D01*
X0167700Y0110902D02*
X0157950Y0110902D01*
X0157541Y0109904D02*
X0167700Y0109904D01*
X0167700Y0108905D02*
X0155800Y0108905D01*
X0155800Y0107907D02*
X0162849Y0107907D01*
X0166651Y0107907D02*
X0167349Y0107907D01*
X0175800Y0107907D02*
X0182700Y0107907D01*
X0182700Y0108905D02*
X0175800Y0108905D01*
X0175800Y0109904D02*
X0182700Y0109904D01*
X0182700Y0110902D02*
X0175800Y0110902D01*
X0175800Y0111901D02*
X0182700Y0111901D01*
X0182700Y0112899D02*
X0175800Y0112899D01*
X0175800Y0113898D02*
X0182700Y0113898D01*
X0182700Y0114896D02*
X0175800Y0114896D01*
X0175800Y0115895D02*
X0182700Y0115895D01*
X0182700Y0116893D02*
X0175800Y0116893D01*
X0175800Y0117892D02*
X0182700Y0117892D01*
X0182700Y0118890D02*
X0175800Y0118890D01*
X0175800Y0119889D02*
X0182700Y0119889D01*
X0182700Y0120887D02*
X0175800Y0120887D01*
X0175616Y0121886D02*
X0182700Y0121886D01*
X0182882Y0122884D02*
X0181322Y0122884D01*
X0181838Y0123883D02*
X0183881Y0123883D01*
X0184100Y0124881D02*
X0181900Y0124881D01*
X0181572Y0125880D02*
X0184428Y0125880D01*
X0185422Y0126878D02*
X0181260Y0126878D01*
X0177875Y0127877D02*
X0171181Y0127877D01*
X0171779Y0126878D02*
X0177700Y0126878D01*
X0176928Y0125880D02*
X0171900Y0125880D01*
X0172621Y0124881D02*
X0176600Y0124881D01*
X0176662Y0123883D02*
X0173619Y0123883D01*
X0174618Y0122884D02*
X0177178Y0122884D01*
X0169375Y0119889D02*
X0169125Y0119889D01*
X0169125Y0118890D02*
X0169375Y0118890D01*
X0169375Y0117892D02*
X0169125Y0117892D01*
X0159182Y0125880D02*
X0155122Y0125880D01*
X0154250Y0120060D02*
X0154250Y0116060D01*
X0154250Y0112060D01*
X0155790Y0106908D02*
X0157906Y0106908D01*
X0156908Y0105910D02*
X0154792Y0105910D01*
X0153793Y0104911D02*
X0155909Y0104911D01*
X0154911Y0103913D02*
X0150850Y0103913D01*
X0149588Y0102914D02*
X0153912Y0102914D01*
X0141650Y0122884D02*
X0137798Y0122884D01*
X0137357Y0123883D02*
X0141650Y0123883D01*
X0141650Y0124881D02*
X0136358Y0124881D01*
X0136789Y0127877D02*
X0141650Y0127877D01*
X0141650Y0128875D02*
X0138534Y0128875D01*
X0137769Y0128233D02*
X0137769Y0128233D01*
X0139724Y0129874D02*
X0141650Y0129874D01*
X0141650Y0130872D02*
X0140532Y0130872D01*
X0140173Y0130251D02*
X0140173Y0130251D01*
X0140173Y0130251D01*
X0141108Y0131871D02*
X0141650Y0131871D01*
X0125729Y0119889D02*
X0114800Y0119889D01*
X0114800Y0120887D02*
X0124731Y0120887D01*
X0123732Y0121886D02*
X0115268Y0121886D01*
X0117822Y0122884D02*
X0122734Y0122884D01*
X0121735Y0123883D02*
X0118338Y0123883D01*
X0118400Y0124881D02*
X0120737Y0124881D01*
X0119738Y0125880D02*
X0118072Y0125880D01*
X0118740Y0126878D02*
X0117078Y0126878D01*
X0114422Y0126878D02*
X0110260Y0126878D01*
X0110572Y0125880D02*
X0113428Y0125880D01*
X0113100Y0124881D02*
X0110900Y0124881D01*
X0110838Y0123883D02*
X0112881Y0123883D01*
X0111882Y0122884D02*
X0110322Y0122884D01*
X0083250Y0120060D02*
X0083250Y0116060D01*
X0083250Y0112060D01*
X0121299Y0084941D02*
X0125201Y0084941D01*
X0124203Y0083942D02*
X0122297Y0083942D01*
X0122773Y0082944D02*
X0123727Y0082944D01*
X0123350Y0081945D02*
X0123150Y0081945D01*
X0123150Y0080947D02*
X0123350Y0080947D01*
X0123407Y0079948D02*
X0123093Y0079948D01*
X0122680Y0078950D02*
X0123820Y0078950D01*
X0124429Y0077951D02*
X0122071Y0077951D01*
X0127627Y0071960D02*
X0088873Y0071960D01*
X0087769Y0072887D02*
X0087769Y0072887D01*
X0090173Y0070869D01*
X0090173Y0070869D01*
X0091742Y0068151D01*
X0091742Y0068151D01*
X0092287Y0065060D01*
X0092287Y0065060D01*
X0091742Y0061969D01*
X0091742Y0061969D01*
X0090173Y0059251D01*
X0090173Y0059251D01*
X0090173Y0059251D01*
X0090124Y0059210D01*
X0090777Y0059210D01*
X0091751Y0058807D01*
X0092497Y0058061D01*
X0092900Y0057087D01*
X0092900Y0056033D01*
X0092497Y0055059D01*
X0091751Y0054313D01*
X0090777Y0053910D01*
X0089723Y0053910D01*
X0088749Y0054313D01*
X0088052Y0055010D01*
X0083992Y0055010D01*
X0084800Y0054202D01*
X0084800Y0051510D01*
X0086247Y0051510D01*
X0086950Y0050807D01*
X0086950Y0047313D01*
X0086697Y0047060D01*
X0086950Y0046807D01*
X0086950Y0043313D01*
X0086697Y0043060D01*
X0086950Y0042807D01*
X0086950Y0039313D01*
X0086247Y0038610D01*
X0084800Y0038610D01*
X0084800Y0035918D01*
X0083892Y0035010D01*
X0082392Y0033510D01*
X0080448Y0033510D01*
X0079751Y0032813D01*
X0078777Y0032410D01*
X0078092Y0032410D01*
X0078892Y0031610D01*
X0082608Y0031610D01*
X0086700Y0035702D01*
X0087608Y0036610D01*
X0091552Y0036610D01*
X0092249Y0037307D01*
X0093223Y0037710D01*
X0094277Y0037710D01*
X0095251Y0037307D01*
X0095997Y0036561D01*
X0096000Y0036553D01*
X0096003Y0036561D01*
X0096700Y0037258D01*
X0096700Y0041010D01*
X0095253Y0041010D01*
X0094550Y0041713D01*
X0094550Y0044489D01*
X0094550Y0044489D01*
X0094352Y0044831D01*
X0094250Y0045212D01*
X0094250Y0046535D01*
X0098125Y0046535D01*
X0098125Y0046785D01*
X0098125Y0049410D01*
X0095553Y0049410D01*
X0095171Y0049308D01*
X0094829Y0049110D01*
X0094550Y0048831D01*
X0094352Y0048489D01*
X0094250Y0048107D01*
X0094250Y0046785D01*
X0098125Y0046785D01*
X0098375Y0046785D01*
X0098375Y0049410D01*
X0100947Y0049410D01*
X0101329Y0049308D01*
X0101671Y0049110D01*
X0101700Y0049081D01*
X0101700Y0049418D01*
X0098708Y0052410D01*
X0097723Y0052410D01*
X0096749Y0052813D01*
X0096003Y0053559D01*
X0095600Y0054533D01*
X0095600Y0055587D01*
X0096003Y0056561D01*
X0096749Y0057307D01*
X0097723Y0057710D01*
X0098777Y0057710D01*
X0099751Y0057307D01*
X0100497Y0056561D01*
X0100900Y0055587D01*
X0100900Y0054602D01*
X0104800Y0050702D01*
X0104800Y0025702D01*
X0110600Y0019902D01*
X0110600Y0020587D01*
X0111003Y0021561D01*
X0111700Y0022258D01*
X0111700Y0051702D01*
X0113100Y0053102D01*
X0113100Y0054087D01*
X0113503Y0055061D01*
X0114249Y0055807D01*
X0114740Y0056010D01*
X0110392Y0056010D01*
X0109970Y0055588D01*
X0110497Y0055061D01*
X0110900Y0054087D01*
X0110900Y0053033D01*
X0110497Y0052059D01*
X0109751Y0051313D01*
X0108777Y0050910D01*
X0107723Y0050910D01*
X0106749Y0051313D01*
X0106003Y0052059D01*
X0105600Y0053033D01*
X0105600Y0054087D01*
X0106003Y0055061D01*
X0106700Y0055758D01*
X0106700Y0056702D01*
X0107608Y0057610D01*
X0109108Y0059110D01*
X0119892Y0059110D01*
X0120800Y0058202D01*
X0120800Y0058202D01*
X0127392Y0051610D01*
X0128588Y0051610D01*
X0129096Y0052836D01*
X0130474Y0054214D01*
X0132275Y0054960D01*
X0134225Y0054960D01*
X0136026Y0054214D01*
X0137404Y0052836D01*
X0137965Y0051481D01*
X0138021Y0051537D01*
X0141482Y0051537D01*
X0141650Y0051368D01*
X0141650Y0061809D01*
X0140173Y0059251D01*
X0140173Y0059251D01*
X0140173Y0059251D01*
X0137769Y0057233D01*
X0137769Y0057233D01*
X0134819Y0056160D01*
X0131681Y0056160D01*
X0128731Y0057233D01*
X0128731Y0057233D01*
X0126327Y0059251D01*
X0126327Y0059251D01*
X0124758Y0061969D01*
X0124758Y0061969D01*
X0124213Y0065060D01*
X0124213Y0065060D01*
X0124758Y0068151D01*
X0124758Y0068151D01*
X0126327Y0070869D01*
X0126327Y0070869D01*
X0126327Y0070869D01*
X0128731Y0072887D01*
X0128731Y0072887D01*
X0130307Y0073460D01*
X0086193Y0073460D01*
X0087769Y0072887D01*
X0087570Y0072959D02*
X0128930Y0072959D01*
X0126438Y0070962D02*
X0090062Y0070962D01*
X0090696Y0069963D02*
X0125804Y0069963D01*
X0125228Y0068965D02*
X0091272Y0068965D01*
X0091775Y0067966D02*
X0124725Y0067966D01*
X0124549Y0066968D02*
X0091951Y0066968D01*
X0092127Y0065969D02*
X0124373Y0065969D01*
X0124228Y0064971D02*
X0092272Y0064971D01*
X0092095Y0063972D02*
X0124405Y0063972D01*
X0124581Y0062974D02*
X0091919Y0062974D01*
X0091743Y0061975D02*
X0124757Y0061975D01*
X0125331Y0060977D02*
X0091169Y0060977D01*
X0090593Y0059978D02*
X0125907Y0059978D01*
X0126650Y0058980D02*
X0120022Y0058980D01*
X0121021Y0057981D02*
X0127840Y0057981D01*
X0129421Y0056983D02*
X0122019Y0056983D01*
X0123018Y0055984D02*
X0141650Y0055984D01*
X0141650Y0054986D02*
X0124016Y0054986D01*
X0125015Y0053987D02*
X0130247Y0053987D01*
X0129249Y0052989D02*
X0126013Y0052989D01*
X0127012Y0051990D02*
X0128746Y0051990D01*
X0128588Y0048510D02*
X0126108Y0048510D01*
X0118608Y0056010D01*
X0116760Y0056010D01*
X0117251Y0055807D01*
X0117997Y0055061D01*
X0118400Y0054087D01*
X0118400Y0053033D01*
X0117997Y0052059D01*
X0117251Y0051313D01*
X0116277Y0050910D01*
X0115292Y0050910D01*
X0114800Y0050418D01*
X0114800Y0022258D01*
X0115497Y0021561D01*
X0115900Y0020587D01*
X0115900Y0019533D01*
X0115497Y0018559D01*
X0114751Y0017813D01*
X0113777Y0017410D01*
X0113092Y0017410D01*
X0116050Y0014452D01*
X0117275Y0014960D01*
X0119225Y0014960D01*
X0121026Y0014214D01*
X0122404Y0012836D01*
X0123150Y0011035D01*
X0123150Y0009085D01*
X0122404Y0007284D01*
X0121780Y0006660D01*
X0124720Y0006660D01*
X0124096Y0007284D01*
X0123350Y0009085D01*
X0123350Y0011035D01*
X0124096Y0012836D01*
X0125474Y0014214D01*
X0127275Y0014960D01*
X0129225Y0014960D01*
X0131026Y0014214D01*
X0132404Y0012836D01*
X0133142Y0011053D01*
X0133178Y0011278D01*
X0133431Y0012056D01*
X0133803Y0012785D01*
X0134284Y0013448D01*
X0134862Y0014026D01*
X0135525Y0014507D01*
X0136254Y0014879D01*
X0137032Y0015132D01*
X0137750Y0015246D01*
X0137750Y0010560D01*
X0138750Y0010560D01*
X0138750Y0015246D01*
X0139468Y0015132D01*
X0140246Y0014879D01*
X0140975Y0014507D01*
X0141638Y0014026D01*
X0141650Y0014014D01*
X0141650Y0038863D01*
X0141017Y0038736D01*
X0139751Y0039580D01*
X0138486Y0038736D01*
X0138042Y0038825D01*
X0137404Y0037284D01*
X0136026Y0035906D01*
X0134225Y0035160D01*
X0132275Y0035160D01*
X0131050Y0035668D01*
X0130892Y0035510D01*
X0120448Y0035510D01*
X0119751Y0034813D01*
X0118777Y0034410D01*
X0117723Y0034410D01*
X0116749Y0034813D01*
X0116003Y0035559D01*
X0115600Y0036533D01*
X0115600Y0037587D01*
X0116003Y0038561D01*
X0116749Y0039307D01*
X0117723Y0039710D01*
X0118777Y0039710D01*
X0119751Y0039307D01*
X0120448Y0038610D01*
X0128547Y0038610D01*
X0128350Y0039085D01*
X0128350Y0041035D01*
X0129096Y0042836D01*
X0130474Y0044214D01*
X0132275Y0044960D01*
X0134225Y0044960D01*
X0136026Y0044214D01*
X0136550Y0043690D01*
X0136550Y0046430D01*
X0136026Y0045906D01*
X0134225Y0045160D01*
X0132275Y0045160D01*
X0130474Y0045906D01*
X0129096Y0047284D01*
X0128588Y0048510D01*
X0128801Y0047996D02*
X0114800Y0047996D01*
X0114800Y0048994D02*
X0125623Y0048994D01*
X0124625Y0049993D02*
X0114800Y0049993D01*
X0116474Y0050992D02*
X0123626Y0050992D01*
X0122628Y0051990D02*
X0117928Y0051990D01*
X0118382Y0052989D02*
X0121629Y0052989D01*
X0120631Y0053987D02*
X0118400Y0053987D01*
X0118028Y0054986D02*
X0119632Y0054986D01*
X0118634Y0055984D02*
X0116823Y0055984D01*
X0114677Y0055984D02*
X0110366Y0055984D01*
X0110528Y0054986D02*
X0113472Y0054986D01*
X0113100Y0053987D02*
X0110900Y0053987D01*
X0110882Y0052989D02*
X0112987Y0052989D01*
X0111988Y0051990D02*
X0110428Y0051990D01*
X0111700Y0050992D02*
X0108974Y0050992D01*
X0107526Y0050992D02*
X0104510Y0050992D01*
X0104800Y0049993D02*
X0111700Y0049993D01*
X0111700Y0048994D02*
X0104800Y0048994D01*
X0104800Y0047996D02*
X0111700Y0047996D01*
X0111700Y0046997D02*
X0104800Y0046997D01*
X0104800Y0045999D02*
X0111700Y0045999D01*
X0111700Y0045000D02*
X0104800Y0045000D01*
X0104800Y0044002D02*
X0111700Y0044002D01*
X0111700Y0043003D02*
X0104800Y0043003D01*
X0104800Y0042005D02*
X0111700Y0042005D01*
X0111700Y0041006D02*
X0104800Y0041006D01*
X0104800Y0040008D02*
X0111700Y0040008D01*
X0111700Y0039009D02*
X0104800Y0039009D01*
X0104800Y0038011D02*
X0111700Y0038011D01*
X0111700Y0037012D02*
X0104800Y0037012D01*
X0104800Y0036014D02*
X0111700Y0036014D01*
X0111700Y0035015D02*
X0104800Y0035015D01*
X0104800Y0034017D02*
X0111700Y0034017D01*
X0111700Y0033018D02*
X0104800Y0033018D01*
X0104800Y0032020D02*
X0111700Y0032020D01*
X0111700Y0031021D02*
X0104800Y0031021D01*
X0104800Y0030023D02*
X0111700Y0030023D01*
X0111700Y0029024D02*
X0104800Y0029024D01*
X0104800Y0028026D02*
X0111700Y0028026D01*
X0111700Y0027027D02*
X0104800Y0027027D01*
X0104800Y0026029D02*
X0111700Y0026029D01*
X0111700Y0025030D02*
X0105472Y0025030D01*
X0106470Y0024032D02*
X0111700Y0024032D01*
X0111700Y0023033D02*
X0107469Y0023033D01*
X0108467Y0022035D02*
X0111477Y0022035D01*
X0110786Y0021036D02*
X0109466Y0021036D01*
X0110464Y0020038D02*
X0110600Y0020038D01*
X0113460Y0017042D02*
X0141650Y0017042D01*
X0141650Y0016044D02*
X0114458Y0016044D01*
X0115457Y0015045D02*
X0136765Y0015045D01*
X0137750Y0015045D02*
X0138750Y0015045D01*
X0139735Y0015045D02*
X0141650Y0015045D01*
X0141610Y0014047D02*
X0141650Y0014047D01*
X0138750Y0014047D02*
X0137750Y0014047D01*
X0137750Y0013048D02*
X0138750Y0013048D01*
X0138750Y0012050D02*
X0137750Y0012050D01*
X0137750Y0011051D02*
X0138750Y0011051D01*
X0134890Y0014047D02*
X0131193Y0014047D01*
X0132192Y0013048D02*
X0133993Y0013048D01*
X0133429Y0012050D02*
X0132730Y0012050D01*
X0125307Y0014047D02*
X0121193Y0014047D01*
X0122192Y0013048D02*
X0124308Y0013048D01*
X0123770Y0012050D02*
X0122730Y0012050D01*
X0123143Y0011051D02*
X0123357Y0011051D01*
X0123350Y0010053D02*
X0123150Y0010053D01*
X0123137Y0009054D02*
X0123363Y0009054D01*
X0123777Y0008056D02*
X0122723Y0008056D01*
X0122177Y0007057D02*
X0124323Y0007057D01*
X0114978Y0018041D02*
X0141650Y0018041D01*
X0141650Y0019039D02*
X0115695Y0019039D01*
X0115900Y0020038D02*
X0141650Y0020038D01*
X0141650Y0021036D02*
X0115714Y0021036D01*
X0115023Y0022035D02*
X0141650Y0022035D01*
X0141650Y0023033D02*
X0114800Y0023033D01*
X0114800Y0024032D02*
X0141650Y0024032D01*
X0141650Y0025030D02*
X0114800Y0025030D01*
X0114800Y0026029D02*
X0141650Y0026029D01*
X0141650Y0027027D02*
X0114800Y0027027D01*
X0114800Y0028026D02*
X0141650Y0028026D01*
X0141650Y0029024D02*
X0114800Y0029024D01*
X0114800Y0030023D02*
X0141650Y0030023D01*
X0141650Y0031021D02*
X0114800Y0031021D01*
X0114800Y0032020D02*
X0141650Y0032020D01*
X0141650Y0033018D02*
X0114800Y0033018D01*
X0114800Y0034017D02*
X0141650Y0034017D01*
X0141650Y0035015D02*
X0119953Y0035015D01*
X0116547Y0035015D02*
X0114800Y0035015D01*
X0114800Y0036014D02*
X0115815Y0036014D01*
X0115600Y0037012D02*
X0114800Y0037012D01*
X0114800Y0038011D02*
X0115776Y0038011D01*
X0116452Y0039009D02*
X0114800Y0039009D01*
X0114800Y0040008D02*
X0128350Y0040008D01*
X0128350Y0041006D02*
X0114800Y0041006D01*
X0114800Y0042005D02*
X0128752Y0042005D01*
X0129264Y0043003D02*
X0114800Y0043003D01*
X0114800Y0044002D02*
X0130262Y0044002D01*
X0130381Y0045999D02*
X0114800Y0045999D01*
X0114800Y0046997D02*
X0129383Y0046997D01*
X0136119Y0045999D02*
X0136550Y0045999D01*
X0136550Y0045000D02*
X0114800Y0045000D01*
X0120048Y0039009D02*
X0128381Y0039009D01*
X0136133Y0036014D02*
X0141650Y0036014D01*
X0141650Y0037012D02*
X0137132Y0037012D01*
X0137705Y0038011D02*
X0141650Y0038011D01*
X0140607Y0039009D02*
X0138896Y0039009D01*
X0136550Y0044002D02*
X0136238Y0044002D01*
X0137754Y0051990D02*
X0141650Y0051990D01*
X0141650Y0052989D02*
X0137251Y0052989D01*
X0136253Y0053987D02*
X0141650Y0053987D01*
X0141650Y0056983D02*
X0137079Y0056983D01*
X0138660Y0057981D02*
X0141650Y0057981D01*
X0141650Y0058980D02*
X0139850Y0058980D01*
X0140593Y0059978D02*
X0141650Y0059978D01*
X0141650Y0060977D02*
X0141169Y0060977D01*
X0154992Y0055010D02*
X0155800Y0054202D01*
X0155800Y0051510D01*
X0157247Y0051510D01*
X0157950Y0050807D01*
X0157950Y0047313D01*
X0157697Y0047060D01*
X0157950Y0046807D01*
X0157950Y0043313D01*
X0157697Y0043060D01*
X0157950Y0042807D01*
X0157950Y0039313D01*
X0157247Y0038610D01*
X0155800Y0038610D01*
X0155800Y0035918D01*
X0154892Y0035010D01*
X0153392Y0033510D01*
X0151448Y0033510D01*
X0150751Y0032813D01*
X0149777Y0032410D01*
X0149092Y0032410D01*
X0149892Y0031610D01*
X0153608Y0031610D01*
X0157700Y0035702D01*
X0158608Y0036610D01*
X0162552Y0036610D01*
X0163249Y0037307D01*
X0164223Y0037710D01*
X0165277Y0037710D01*
X0166251Y0037307D01*
X0166997Y0036561D01*
X0167000Y0036553D01*
X0167003Y0036561D01*
X0167700Y0037258D01*
X0167700Y0041010D01*
X0166253Y0041010D01*
X0165550Y0041713D01*
X0165550Y0044489D01*
X0165550Y0044489D01*
X0165352Y0044831D01*
X0165250Y0045212D01*
X0165250Y0046535D01*
X0169125Y0046535D01*
X0169125Y0046785D01*
X0169125Y0049410D01*
X0166553Y0049410D01*
X0166171Y0049308D01*
X0165829Y0049110D01*
X0165550Y0048831D01*
X0165352Y0048489D01*
X0165250Y0048107D01*
X0165250Y0046785D01*
X0169125Y0046785D01*
X0169375Y0046785D01*
X0169375Y0049410D01*
X0171947Y0049410D01*
X0172329Y0049308D01*
X0172671Y0049110D01*
X0172700Y0049081D01*
X0172700Y0049418D01*
X0169708Y0052410D01*
X0168723Y0052410D01*
X0167749Y0052813D01*
X0167003Y0053559D01*
X0166600Y0054533D01*
X0166600Y0055587D01*
X0167003Y0056561D01*
X0167749Y0057307D01*
X0168723Y0057710D01*
X0169777Y0057710D01*
X0170751Y0057307D01*
X0171497Y0056561D01*
X0171900Y0055587D01*
X0171900Y0054602D01*
X0175800Y0050702D01*
X0175800Y0025702D01*
X0181600Y0019902D01*
X0181600Y0020587D01*
X0182003Y0021561D01*
X0182700Y0022258D01*
X0182700Y0051702D01*
X0184100Y0053102D01*
X0184100Y0054087D01*
X0184503Y0055061D01*
X0185249Y0055807D01*
X0185740Y0056010D01*
X0181392Y0056010D01*
X0180970Y0055588D01*
X0181497Y0055061D01*
X0181900Y0054087D01*
X0181900Y0053033D01*
X0181497Y0052059D01*
X0180751Y0051313D01*
X0179777Y0050910D01*
X0178723Y0050910D01*
X0177749Y0051313D01*
X0177003Y0052059D01*
X0176600Y0053033D01*
X0176600Y0054087D01*
X0177003Y0055061D01*
X0177700Y0055758D01*
X0177700Y0056702D01*
X0178608Y0057610D01*
X0179200Y0058202D01*
X0180108Y0059110D01*
X0190892Y0059110D01*
X0191800Y0058202D01*
X0198392Y0051610D01*
X0199588Y0051610D01*
X0200096Y0052836D01*
X0201474Y0054214D01*
X0203275Y0054960D01*
X0205225Y0054960D01*
X0207026Y0054214D01*
X0208404Y0052836D01*
X0208965Y0051481D01*
X0209021Y0051537D01*
X0212482Y0051537D01*
X0212650Y0051368D01*
X0212650Y0061809D01*
X0211173Y0059251D01*
X0211173Y0059251D01*
X0211173Y0059251D01*
X0208769Y0057233D01*
X0208769Y0057233D01*
X0205819Y0056160D01*
X0202681Y0056160D01*
X0199731Y0057233D01*
X0199731Y0057233D01*
X0197327Y0059251D01*
X0197327Y0059251D01*
X0195758Y0061969D01*
X0195758Y0061969D01*
X0195213Y0065060D01*
X0195213Y0065060D01*
X0195758Y0068151D01*
X0195758Y0068151D01*
X0197327Y0070869D01*
X0197327Y0070869D01*
X0197327Y0070869D01*
X0199731Y0072887D01*
X0199731Y0072887D01*
X0201307Y0073460D01*
X0157193Y0073460D01*
X0158769Y0072887D01*
X0158769Y0072887D01*
X0161173Y0070869D01*
X0161173Y0070869D01*
X0162742Y0068151D01*
X0162742Y0068151D01*
X0163287Y0065060D01*
X0163287Y0065060D01*
X0162742Y0061969D01*
X0162742Y0061969D01*
X0161173Y0059251D01*
X0161173Y0059251D01*
X0161173Y0059251D01*
X0161124Y0059210D01*
X0161777Y0059210D01*
X0162751Y0058807D01*
X0163497Y0058061D01*
X0163900Y0057087D01*
X0163900Y0056033D01*
X0163497Y0055059D01*
X0162751Y0054313D01*
X0161777Y0053910D01*
X0160723Y0053910D01*
X0159749Y0054313D01*
X0159052Y0055010D01*
X0154992Y0055010D01*
X0155016Y0054986D02*
X0159077Y0054986D01*
X0160537Y0053987D02*
X0155800Y0053987D01*
X0155800Y0052989D02*
X0167574Y0052989D01*
X0166826Y0053987D02*
X0161963Y0053987D01*
X0163423Y0054986D02*
X0166600Y0054986D01*
X0166764Y0055984D02*
X0163880Y0055984D01*
X0163900Y0056983D02*
X0167425Y0056983D01*
X0171075Y0056983D02*
X0177981Y0056983D01*
X0177700Y0055984D02*
X0171736Y0055984D01*
X0171900Y0054986D02*
X0176972Y0054986D01*
X0176600Y0053987D02*
X0172515Y0053987D01*
X0173513Y0052989D02*
X0176618Y0052989D01*
X0177072Y0051990D02*
X0174512Y0051990D01*
X0175510Y0050992D02*
X0178526Y0050992D01*
X0179974Y0050992D02*
X0182700Y0050992D01*
X0182700Y0049993D02*
X0175800Y0049993D01*
X0175800Y0048994D02*
X0182700Y0048994D01*
X0182700Y0047996D02*
X0175800Y0047996D01*
X0175800Y0046997D02*
X0182700Y0046997D01*
X0182700Y0045999D02*
X0175800Y0045999D01*
X0175800Y0045000D02*
X0182700Y0045000D01*
X0182700Y0044002D02*
X0175800Y0044002D01*
X0175800Y0043003D02*
X0182700Y0043003D01*
X0182700Y0042005D02*
X0175800Y0042005D01*
X0175800Y0041006D02*
X0182700Y0041006D01*
X0182700Y0040008D02*
X0175800Y0040008D01*
X0175800Y0039009D02*
X0182700Y0039009D01*
X0182700Y0038011D02*
X0175800Y0038011D01*
X0175800Y0037012D02*
X0182700Y0037012D01*
X0182700Y0036014D02*
X0175800Y0036014D01*
X0175800Y0035015D02*
X0182700Y0035015D01*
X0182700Y0034017D02*
X0175800Y0034017D01*
X0175800Y0033018D02*
X0182700Y0033018D01*
X0182700Y0032020D02*
X0175800Y0032020D01*
X0175800Y0031021D02*
X0182700Y0031021D01*
X0182700Y0030023D02*
X0175800Y0030023D01*
X0175800Y0029024D02*
X0182700Y0029024D01*
X0182700Y0028026D02*
X0175800Y0028026D01*
X0175800Y0027027D02*
X0182700Y0027027D01*
X0182700Y0026029D02*
X0175800Y0026029D01*
X0176472Y0025030D02*
X0182700Y0025030D01*
X0182700Y0024032D02*
X0177470Y0024032D01*
X0178469Y0023033D02*
X0182700Y0023033D01*
X0182477Y0022035D02*
X0179467Y0022035D01*
X0180466Y0021036D02*
X0181786Y0021036D01*
X0181600Y0020038D02*
X0181464Y0020038D01*
X0184092Y0017410D02*
X0184777Y0017410D01*
X0185751Y0017813D01*
X0186497Y0018559D01*
X0186900Y0019533D01*
X0186900Y0020587D01*
X0186497Y0021561D01*
X0185800Y0022258D01*
X0185800Y0050418D01*
X0186292Y0050910D01*
X0187277Y0050910D01*
X0188251Y0051313D01*
X0188997Y0052059D01*
X0189400Y0053033D01*
X0189400Y0054087D01*
X0188997Y0055061D01*
X0188251Y0055807D01*
X0187760Y0056010D01*
X0189608Y0056010D01*
X0197108Y0048510D01*
X0199588Y0048510D01*
X0200096Y0047284D01*
X0201474Y0045906D01*
X0203275Y0045160D01*
X0205225Y0045160D01*
X0207026Y0045906D01*
X0207550Y0046430D01*
X0207550Y0043690D01*
X0207026Y0044214D01*
X0205225Y0044960D01*
X0203275Y0044960D01*
X0201474Y0044214D01*
X0200096Y0042836D01*
X0199350Y0041035D01*
X0199350Y0039085D01*
X0199547Y0038610D01*
X0191448Y0038610D01*
X0190751Y0039307D01*
X0189777Y0039710D01*
X0188723Y0039710D01*
X0187749Y0039307D01*
X0187003Y0038561D01*
X0186600Y0037587D01*
X0186600Y0036533D01*
X0187003Y0035559D01*
X0187749Y0034813D01*
X0188723Y0034410D01*
X0189777Y0034410D01*
X0190751Y0034813D01*
X0191448Y0035510D01*
X0201892Y0035510D01*
X0202050Y0035668D01*
X0203275Y0035160D01*
X0205225Y0035160D01*
X0207026Y0035906D01*
X0208404Y0037284D01*
X0209042Y0038825D01*
X0209486Y0038736D01*
X0210751Y0039580D01*
X0212017Y0038736D01*
X0212650Y0038863D01*
X0212650Y0014014D01*
X0212638Y0014026D01*
X0211975Y0014507D01*
X0211246Y0014879D01*
X0210468Y0015132D01*
X0209750Y0015246D01*
X0209750Y0010560D01*
X0208750Y0010560D01*
X0208750Y0015246D01*
X0208032Y0015132D01*
X0207254Y0014879D01*
X0206525Y0014507D01*
X0205862Y0014026D01*
X0205284Y0013448D01*
X0204803Y0012785D01*
X0204431Y0012056D01*
X0204178Y0011278D01*
X0204142Y0011053D01*
X0203404Y0012836D01*
X0202026Y0014214D01*
X0200225Y0014960D01*
X0198275Y0014960D01*
X0196474Y0014214D01*
X0195096Y0012836D01*
X0194350Y0011035D01*
X0194350Y0009085D01*
X0195096Y0007284D01*
X0195720Y0006660D01*
X0192780Y0006660D01*
X0193404Y0007284D01*
X0194150Y0009085D01*
X0194150Y0011035D01*
X0193404Y0012836D01*
X0192026Y0014214D01*
X0190225Y0014960D01*
X0188275Y0014960D01*
X0187050Y0014452D01*
X0184092Y0017410D01*
X0184460Y0017042D02*
X0212650Y0017042D01*
X0212650Y0016044D02*
X0185458Y0016044D01*
X0186457Y0015045D02*
X0207765Y0015045D01*
X0208750Y0015045D02*
X0209750Y0015045D01*
X0210735Y0015045D02*
X0212650Y0015045D01*
X0212610Y0014047D02*
X0212650Y0014047D01*
X0209750Y0014047D02*
X0208750Y0014047D01*
X0208750Y0013048D02*
X0209750Y0013048D01*
X0209750Y0012050D02*
X0208750Y0012050D01*
X0208750Y0011051D02*
X0209750Y0011051D01*
X0205890Y0014047D02*
X0202193Y0014047D01*
X0203192Y0013048D02*
X0204993Y0013048D01*
X0204429Y0012050D02*
X0203730Y0012050D01*
X0196307Y0014047D02*
X0192193Y0014047D01*
X0193192Y0013048D02*
X0195308Y0013048D01*
X0194770Y0012050D02*
X0193730Y0012050D01*
X0194143Y0011051D02*
X0194357Y0011051D01*
X0194350Y0010053D02*
X0194150Y0010053D01*
X0194137Y0009054D02*
X0194363Y0009054D01*
X0194777Y0008056D02*
X0193723Y0008056D01*
X0193177Y0007057D02*
X0195323Y0007057D01*
X0185978Y0018041D02*
X0212650Y0018041D01*
X0212650Y0019039D02*
X0186695Y0019039D01*
X0186900Y0020038D02*
X0212650Y0020038D01*
X0212650Y0021036D02*
X0186714Y0021036D01*
X0186023Y0022035D02*
X0212650Y0022035D01*
X0212650Y0023033D02*
X0185800Y0023033D01*
X0185800Y0024032D02*
X0212650Y0024032D01*
X0212650Y0025030D02*
X0185800Y0025030D01*
X0185800Y0026029D02*
X0212650Y0026029D01*
X0212650Y0027027D02*
X0185800Y0027027D01*
X0185800Y0028026D02*
X0212650Y0028026D01*
X0212650Y0029024D02*
X0185800Y0029024D01*
X0185800Y0030023D02*
X0212650Y0030023D01*
X0212650Y0031021D02*
X0185800Y0031021D01*
X0185800Y0032020D02*
X0212650Y0032020D01*
X0212650Y0033018D02*
X0185800Y0033018D01*
X0185800Y0034017D02*
X0212650Y0034017D01*
X0212650Y0035015D02*
X0190953Y0035015D01*
X0187547Y0035015D02*
X0185800Y0035015D01*
X0185800Y0036014D02*
X0186815Y0036014D01*
X0186600Y0037012D02*
X0185800Y0037012D01*
X0185800Y0038011D02*
X0186776Y0038011D01*
X0187452Y0039009D02*
X0185800Y0039009D01*
X0185800Y0040008D02*
X0199350Y0040008D01*
X0199350Y0041006D02*
X0185800Y0041006D01*
X0185800Y0042005D02*
X0199752Y0042005D01*
X0200264Y0043003D02*
X0185800Y0043003D01*
X0185800Y0044002D02*
X0201262Y0044002D01*
X0201381Y0045999D02*
X0185800Y0045999D01*
X0185800Y0046997D02*
X0200383Y0046997D01*
X0199801Y0047996D02*
X0185800Y0047996D01*
X0185800Y0048994D02*
X0196623Y0048994D01*
X0195625Y0049993D02*
X0185800Y0049993D01*
X0187474Y0050992D02*
X0194626Y0050992D01*
X0193628Y0051990D02*
X0188928Y0051990D01*
X0189382Y0052989D02*
X0192629Y0052989D01*
X0191631Y0053987D02*
X0189400Y0053987D01*
X0189028Y0054986D02*
X0190632Y0054986D01*
X0189634Y0055984D02*
X0187823Y0055984D01*
X0185677Y0055984D02*
X0181366Y0055984D01*
X0181528Y0054986D02*
X0184472Y0054986D01*
X0184100Y0053987D02*
X0181900Y0053987D01*
X0181882Y0052989D02*
X0183987Y0052989D01*
X0182988Y0051990D02*
X0181428Y0051990D01*
X0178979Y0057981D02*
X0163530Y0057981D01*
X0162333Y0058980D02*
X0179978Y0058980D01*
X0171126Y0050992D02*
X0157766Y0050992D01*
X0157950Y0049993D02*
X0172125Y0049993D01*
X0170128Y0051990D02*
X0155800Y0051990D01*
X0154250Y0049060D02*
X0154250Y0045060D01*
X0154250Y0041060D01*
X0155800Y0038011D02*
X0167700Y0038011D01*
X0167700Y0039009D02*
X0157646Y0039009D01*
X0157950Y0040008D02*
X0167700Y0040008D01*
X0167700Y0041006D02*
X0157950Y0041006D01*
X0157950Y0042005D02*
X0165550Y0042005D01*
X0165550Y0043003D02*
X0157754Y0043003D01*
X0157950Y0044002D02*
X0165550Y0044002D01*
X0165307Y0045000D02*
X0157950Y0045000D01*
X0157950Y0045999D02*
X0165250Y0045999D01*
X0165250Y0046997D02*
X0157760Y0046997D01*
X0157950Y0047996D02*
X0165250Y0047996D01*
X0165713Y0048994D02*
X0157950Y0048994D01*
X0169125Y0048994D02*
X0169375Y0048994D01*
X0169375Y0047996D02*
X0169125Y0047996D01*
X0169125Y0046997D02*
X0169375Y0046997D01*
X0167455Y0037012D02*
X0166545Y0037012D01*
X0162955Y0037012D02*
X0155800Y0037012D01*
X0155800Y0036014D02*
X0158012Y0036014D01*
X0157013Y0035015D02*
X0154897Y0035015D01*
X0153899Y0034017D02*
X0156015Y0034017D01*
X0155016Y0033018D02*
X0150956Y0033018D01*
X0149482Y0032020D02*
X0154018Y0032020D01*
X0161593Y0059978D02*
X0196907Y0059978D01*
X0196331Y0060977D02*
X0162169Y0060977D01*
X0162743Y0061975D02*
X0195757Y0061975D01*
X0195581Y0062974D02*
X0162919Y0062974D01*
X0163095Y0063972D02*
X0195405Y0063972D01*
X0195228Y0064971D02*
X0163272Y0064971D01*
X0163127Y0065969D02*
X0195373Y0065969D01*
X0195549Y0066968D02*
X0162951Y0066968D01*
X0162775Y0067966D02*
X0195725Y0067966D01*
X0196228Y0068965D02*
X0162272Y0068965D01*
X0161696Y0069963D02*
X0196804Y0069963D01*
X0197438Y0070962D02*
X0161063Y0070962D01*
X0159873Y0071960D02*
X0198627Y0071960D01*
X0199930Y0072959D02*
X0158570Y0072959D01*
X0178575Y0093927D02*
X0182700Y0093927D01*
X0182700Y0094926D02*
X0177576Y0094926D01*
X0176577Y0095925D02*
X0182700Y0095925D01*
X0182700Y0096923D02*
X0175800Y0096923D01*
X0175800Y0097922D02*
X0182700Y0097922D01*
X0182700Y0098920D02*
X0175800Y0098920D01*
X0175800Y0099919D02*
X0182700Y0099919D01*
X0182700Y0100917D02*
X0175800Y0100917D01*
X0175800Y0101916D02*
X0182700Y0101916D01*
X0182700Y0102914D02*
X0175800Y0102914D01*
X0175800Y0103913D02*
X0182700Y0103913D01*
X0182700Y0104911D02*
X0175800Y0104911D01*
X0175800Y0105910D02*
X0182700Y0105910D01*
X0182700Y0106908D02*
X0175800Y0106908D01*
X0185800Y0106908D02*
X0186859Y0106908D01*
X0187003Y0106559D02*
X0187749Y0105813D01*
X0188723Y0105410D01*
X0189777Y0105410D01*
X0190751Y0105813D01*
X0191448Y0106510D01*
X0201892Y0106510D01*
X0202050Y0106668D01*
X0203275Y0106160D01*
X0205225Y0106160D01*
X0207026Y0106906D01*
X0208404Y0108284D01*
X0209042Y0109825D01*
X0209486Y0109736D01*
X0210751Y0110580D01*
X0212017Y0109736D01*
X0212650Y0109863D01*
X0212650Y0085014D01*
X0212638Y0085026D01*
X0211975Y0085507D01*
X0211246Y0085879D01*
X0210468Y0086132D01*
X0209750Y0086246D01*
X0209750Y0081560D01*
X0208750Y0081560D01*
X0208750Y0086246D01*
X0208032Y0086132D01*
X0207254Y0085879D01*
X0206525Y0085507D01*
X0205862Y0085026D01*
X0205284Y0084448D01*
X0204803Y0083785D01*
X0204431Y0083056D01*
X0204178Y0082278D01*
X0204142Y0082053D01*
X0203404Y0083836D01*
X0202026Y0085214D01*
X0200225Y0085960D01*
X0198275Y0085960D01*
X0196474Y0085214D01*
X0195096Y0083836D01*
X0194350Y0082035D01*
X0194350Y0080085D01*
X0195096Y0078284D01*
X0195720Y0077660D01*
X0192780Y0077660D01*
X0193404Y0078284D01*
X0194150Y0080085D01*
X0194150Y0082035D01*
X0193404Y0083836D01*
X0192026Y0085214D01*
X0190225Y0085960D01*
X0188275Y0085960D01*
X0187050Y0085452D01*
X0184092Y0088410D01*
X0184777Y0088410D01*
X0185751Y0088813D01*
X0186497Y0089559D01*
X0186900Y0090533D01*
X0186900Y0091587D01*
X0186497Y0092561D01*
X0185800Y0093258D01*
X0185800Y0121418D01*
X0186292Y0121910D01*
X0187277Y0121910D01*
X0188251Y0122313D01*
X0188997Y0123059D01*
X0189400Y0124033D01*
X0189400Y0125087D01*
X0188997Y0126061D01*
X0188251Y0126807D01*
X0187760Y0127010D01*
X0189608Y0127010D01*
X0197108Y0119510D01*
X0199588Y0119510D01*
X0200096Y0118284D01*
X0201474Y0116906D01*
X0203275Y0116160D01*
X0205225Y0116160D01*
X0207026Y0116906D01*
X0207550Y0117430D01*
X0207550Y0114690D01*
X0207026Y0115214D01*
X0205225Y0115960D01*
X0203275Y0115960D01*
X0201474Y0115214D01*
X0200096Y0113836D01*
X0199350Y0112035D01*
X0199350Y0110085D01*
X0199547Y0109610D01*
X0191448Y0109610D01*
X0190751Y0110307D01*
X0189777Y0110710D01*
X0188723Y0110710D01*
X0187749Y0110307D01*
X0187003Y0109561D01*
X0186600Y0108587D01*
X0186600Y0107533D01*
X0187003Y0106559D01*
X0187653Y0105910D02*
X0185800Y0105910D01*
X0185800Y0104911D02*
X0212650Y0104911D01*
X0212650Y0103913D02*
X0185800Y0103913D01*
X0185800Y0102914D02*
X0212650Y0102914D01*
X0212650Y0101916D02*
X0185800Y0101916D01*
X0185800Y0100917D02*
X0212650Y0100917D01*
X0212650Y0099919D02*
X0185800Y0099919D01*
X0185800Y0098920D02*
X0212650Y0098920D01*
X0212650Y0097922D02*
X0185800Y0097922D01*
X0185800Y0096923D02*
X0212650Y0096923D01*
X0212650Y0095925D02*
X0185800Y0095925D01*
X0185800Y0094926D02*
X0212650Y0094926D01*
X0212650Y0093927D02*
X0185800Y0093927D01*
X0186129Y0092929D02*
X0212650Y0092929D01*
X0212650Y0091930D02*
X0186758Y0091930D01*
X0186900Y0090932D02*
X0212650Y0090932D01*
X0212650Y0089933D02*
X0186652Y0089933D01*
X0185873Y0088935D02*
X0212650Y0088935D01*
X0212650Y0087936D02*
X0184566Y0087936D01*
X0185564Y0086938D02*
X0212650Y0086938D01*
X0212650Y0085939D02*
X0211060Y0085939D01*
X0209750Y0085939D02*
X0208750Y0085939D01*
X0208750Y0084941D02*
X0209750Y0084941D01*
X0209750Y0083942D02*
X0208750Y0083942D01*
X0208750Y0082944D02*
X0209750Y0082944D01*
X0209750Y0081945D02*
X0208750Y0081945D01*
X0207440Y0085939D02*
X0200274Y0085939D01*
X0198226Y0085939D02*
X0190274Y0085939D01*
X0188226Y0085939D02*
X0186563Y0085939D01*
X0181600Y0090932D02*
X0181570Y0090932D01*
X0181742Y0091930D02*
X0180572Y0091930D01*
X0179573Y0092929D02*
X0182371Y0092929D01*
X0192299Y0084941D02*
X0196201Y0084941D01*
X0195203Y0083942D02*
X0193297Y0083942D01*
X0193773Y0082944D02*
X0194727Y0082944D01*
X0194350Y0081945D02*
X0194150Y0081945D01*
X0194150Y0080947D02*
X0194350Y0080947D01*
X0194407Y0079948D02*
X0194093Y0079948D01*
X0193680Y0078950D02*
X0194820Y0078950D01*
X0195429Y0077951D02*
X0193071Y0077951D01*
X0202299Y0084941D02*
X0205777Y0084941D01*
X0204917Y0083942D02*
X0203297Y0083942D01*
X0203773Y0082944D02*
X0204395Y0082944D01*
X0212169Y0060977D02*
X0212650Y0060977D01*
X0212650Y0059978D02*
X0211593Y0059978D01*
X0210850Y0058980D02*
X0212650Y0058980D01*
X0212650Y0057981D02*
X0209660Y0057981D01*
X0208079Y0056983D02*
X0212650Y0056983D01*
X0212650Y0055984D02*
X0194018Y0055984D01*
X0195016Y0054986D02*
X0212650Y0054986D01*
X0212650Y0053987D02*
X0207253Y0053987D01*
X0208251Y0052989D02*
X0212650Y0052989D01*
X0212650Y0051990D02*
X0208754Y0051990D01*
X0207550Y0045999D02*
X0207119Y0045999D01*
X0207550Y0045000D02*
X0185800Y0045000D01*
X0191048Y0039009D02*
X0199381Y0039009D01*
X0207133Y0036014D02*
X0212650Y0036014D01*
X0212650Y0037012D02*
X0208132Y0037012D01*
X0208705Y0038011D02*
X0212650Y0038011D01*
X0211607Y0039009D02*
X0209896Y0039009D01*
X0207550Y0044002D02*
X0207238Y0044002D01*
X0199746Y0051990D02*
X0198012Y0051990D01*
X0197013Y0052989D02*
X0200249Y0052989D01*
X0201247Y0053987D02*
X0196015Y0053987D01*
X0193019Y0056983D02*
X0200421Y0056983D01*
X0198840Y0057981D02*
X0192021Y0057981D01*
X0191022Y0058980D02*
X0197650Y0058980D01*
X0190847Y0105910D02*
X0212650Y0105910D01*
X0212650Y0106908D02*
X0207028Y0106908D01*
X0208026Y0107907D02*
X0212650Y0107907D01*
X0212650Y0108905D02*
X0208661Y0108905D01*
X0209737Y0109904D02*
X0211766Y0109904D01*
X0207550Y0114896D02*
X0207343Y0114896D01*
X0207550Y0115895D02*
X0205382Y0115895D01*
X0206995Y0116893D02*
X0207550Y0116893D01*
X0203118Y0115895D02*
X0185800Y0115895D01*
X0185800Y0116893D02*
X0201505Y0116893D01*
X0200489Y0117892D02*
X0185800Y0117892D01*
X0185800Y0118890D02*
X0199845Y0118890D01*
X0196729Y0119889D02*
X0185800Y0119889D01*
X0185800Y0120887D02*
X0195731Y0120887D01*
X0194732Y0121886D02*
X0186268Y0121886D01*
X0188822Y0122884D02*
X0193734Y0122884D01*
X0192735Y0123883D02*
X0189338Y0123883D01*
X0189400Y0124881D02*
X0191737Y0124881D01*
X0190738Y0125880D02*
X0189072Y0125880D01*
X0189740Y0126878D02*
X0188078Y0126878D01*
X0191128Y0129874D02*
X0197776Y0129874D01*
X0197327Y0130251D02*
X0197327Y0130251D01*
X0198966Y0128875D02*
X0192127Y0128875D01*
X0193125Y0127877D02*
X0200711Y0127877D01*
X0199731Y0128233D02*
X0199731Y0128233D01*
X0201142Y0124881D02*
X0196121Y0124881D01*
X0197119Y0123883D02*
X0200143Y0123883D01*
X0199702Y0122884D02*
X0198118Y0122884D01*
X0195122Y0125880D02*
X0203082Y0125880D01*
X0205418Y0125880D02*
X0212650Y0125880D01*
X0212650Y0126878D02*
X0194124Y0126878D01*
X0201157Y0114896D02*
X0185800Y0114896D01*
X0185800Y0113898D02*
X0200158Y0113898D01*
X0199708Y0112899D02*
X0185800Y0112899D01*
X0185800Y0111901D02*
X0199350Y0111901D01*
X0199350Y0110902D02*
X0185800Y0110902D01*
X0185800Y0109904D02*
X0187346Y0109904D01*
X0186732Y0108905D02*
X0185800Y0108905D01*
X0185800Y0107907D02*
X0186600Y0107907D01*
X0191154Y0109904D02*
X0199425Y0109904D01*
X0208798Y0122884D02*
X0212650Y0122884D01*
X0212650Y0123883D02*
X0208357Y0123883D01*
X0207358Y0124881D02*
X0212650Y0124881D01*
X0212650Y0127877D02*
X0207789Y0127877D01*
X0208769Y0128233D02*
X0208769Y0128233D01*
X0209534Y0128875D02*
X0212650Y0128875D01*
X0212650Y0129874D02*
X0210724Y0129874D01*
X0211173Y0130251D02*
X0211173Y0130251D01*
X0211173Y0130251D01*
X0211532Y0130872D02*
X0212650Y0130872D01*
X0212650Y0131871D02*
X0212108Y0131871D01*
X0199731Y0143887D02*
X0199731Y0143887D01*
X0199691Y0143853D02*
X0158809Y0143853D01*
X0186668Y0156834D02*
X0187970Y0156834D01*
X0108978Y0058980D02*
X0091333Y0058980D01*
X0092530Y0057981D02*
X0107979Y0057981D01*
X0106981Y0056983D02*
X0100075Y0056983D01*
X0100736Y0055984D02*
X0106700Y0055984D01*
X0105972Y0054986D02*
X0100900Y0054986D01*
X0101515Y0053987D02*
X0105600Y0053987D01*
X0105618Y0052989D02*
X0102513Y0052989D01*
X0103512Y0051990D02*
X0106072Y0051990D01*
X0101125Y0049993D02*
X0086950Y0049993D01*
X0086950Y0048994D02*
X0094713Y0048994D01*
X0094250Y0047996D02*
X0086950Y0047996D01*
X0086760Y0046997D02*
X0094250Y0046997D01*
X0094250Y0045999D02*
X0086950Y0045999D01*
X0086950Y0045000D02*
X0094307Y0045000D01*
X0094550Y0044002D02*
X0086950Y0044002D01*
X0086754Y0043003D02*
X0094550Y0043003D01*
X0094550Y0042005D02*
X0086950Y0042005D01*
X0086950Y0041006D02*
X0096700Y0041006D01*
X0096700Y0040008D02*
X0086950Y0040008D01*
X0086646Y0039009D02*
X0096700Y0039009D01*
X0096700Y0038011D02*
X0084800Y0038011D01*
X0084800Y0037012D02*
X0091955Y0037012D01*
X0095545Y0037012D02*
X0096455Y0037012D01*
X0087012Y0036014D02*
X0084800Y0036014D01*
X0083897Y0035015D02*
X0086013Y0035015D01*
X0085015Y0034017D02*
X0082899Y0034017D01*
X0084016Y0033018D02*
X0079956Y0033018D01*
X0078482Y0032020D02*
X0083018Y0032020D01*
X0083250Y0041060D02*
X0083250Y0045060D01*
X0083250Y0049060D01*
X0084800Y0051990D02*
X0099128Y0051990D01*
X0100126Y0050992D02*
X0086766Y0050992D01*
X0084800Y0052989D02*
X0096574Y0052989D01*
X0095826Y0053987D02*
X0090963Y0053987D01*
X0089537Y0053987D02*
X0084800Y0053987D01*
X0084016Y0054986D02*
X0088077Y0054986D01*
X0092423Y0054986D02*
X0095600Y0054986D01*
X0095764Y0055984D02*
X0092880Y0055984D01*
X0092900Y0056983D02*
X0096425Y0056983D01*
X0098125Y0048994D02*
X0098375Y0048994D01*
X0098375Y0047996D02*
X0098125Y0047996D01*
X0098125Y0046997D02*
X0098375Y0046997D01*
X0070650Y0038011D02*
X0066705Y0038011D01*
X0066132Y0037012D02*
X0070650Y0037012D01*
X0070650Y0036014D02*
X0065133Y0036014D01*
X0067896Y0039009D02*
X0069607Y0039009D01*
X0057381Y0039009D02*
X0049048Y0039009D01*
X0012250Y0183060D02*
X0012250Y0187060D01*
X0012250Y0191060D01*
D14*
X0007250Y0197060D03*
X0019250Y0198560D03*
X0027250Y0197060D03*
X0027250Y0201060D03*
X0037250Y0195560D03*
X0044750Y0195560D03*
X0052250Y0199560D03*
X0045250Y0187060D03*
X0047250Y0179060D03*
X0052250Y0167060D03*
X0042250Y0162060D03*
X0027250Y0177060D03*
X0022750Y0177060D03*
X0017250Y0172060D03*
X0007250Y0177060D03*
X0027250Y0130060D03*
X0027250Y0126060D03*
X0019250Y0127560D03*
X0007250Y0126060D03*
X0007250Y0106060D03*
X0017250Y0101060D03*
X0022750Y0106060D03*
X0027250Y0106060D03*
X0042250Y0091060D03*
X0052250Y0096060D03*
X0047250Y0108060D03*
X0045250Y0116060D03*
X0044750Y0124560D03*
X0037250Y0124560D03*
X0052250Y0128560D03*
X0078250Y0126060D03*
X0090250Y0127560D03*
X0098250Y0126060D03*
X0098250Y0130060D03*
X0108250Y0124560D03*
X0115750Y0124560D03*
X0123250Y0128560D03*
X0116250Y0116060D03*
X0118250Y0108060D03*
X0123250Y0096060D03*
X0113250Y0091060D03*
X0098250Y0106060D03*
X0093750Y0106060D03*
X0088250Y0101060D03*
X0078250Y0106060D03*
X0098250Y0059060D03*
X0098250Y0055060D03*
X0090250Y0056560D03*
X0078250Y0055060D03*
X0078250Y0035060D03*
X0088250Y0030060D03*
X0093750Y0035060D03*
X0098250Y0035060D03*
X0113250Y0020060D03*
X0123250Y0025060D03*
X0118250Y0037060D03*
X0116250Y0045060D03*
X0115750Y0053560D03*
X0123250Y0057560D03*
X0108250Y0053560D03*
X0149250Y0055060D03*
X0161250Y0056560D03*
X0169250Y0055060D03*
X0169250Y0059060D03*
X0179250Y0053560D03*
X0186750Y0053560D03*
X0194250Y0057560D03*
X0187250Y0045060D03*
X0189250Y0037060D03*
X0194250Y0025060D03*
X0184250Y0020060D03*
X0169250Y0035060D03*
X0164750Y0035060D03*
X0159250Y0030060D03*
X0149250Y0035060D03*
X0184250Y0091060D03*
X0194250Y0096060D03*
X0189250Y0108060D03*
X0187250Y0116060D03*
X0186750Y0124560D03*
X0179250Y0124560D03*
X0169250Y0126060D03*
X0169250Y0130060D03*
X0161250Y0127560D03*
X0149250Y0126060D03*
X0149250Y0106060D03*
X0159250Y0101060D03*
X0164750Y0106060D03*
X0169250Y0106060D03*
X0194250Y0128560D03*
X0184250Y0162060D03*
X0194250Y0167060D03*
X0189250Y0179060D03*
X0187250Y0187060D03*
X0186750Y0195560D03*
X0179250Y0195560D03*
X0169250Y0197060D03*
X0169250Y0201060D03*
X0161250Y0198560D03*
X0149250Y0197060D03*
X0149250Y0177060D03*
X0159250Y0172060D03*
X0164750Y0177060D03*
X0169250Y0177060D03*
X0194250Y0199560D03*
X0123250Y0199560D03*
X0115750Y0195560D03*
X0108250Y0195560D03*
X0098250Y0197060D03*
X0098250Y0201060D03*
X0090250Y0198560D03*
X0078250Y0197060D03*
X0078250Y0177060D03*
X0088250Y0172060D03*
X0093750Y0177060D03*
X0098250Y0177060D03*
X0113250Y0162060D03*
X0123250Y0167060D03*
X0118250Y0179060D03*
X0116250Y0187060D03*
X0052250Y0057560D03*
X0044750Y0053560D03*
X0037250Y0053560D03*
X0045250Y0045060D03*
X0047250Y0037060D03*
X0052250Y0025060D03*
X0042250Y0020060D03*
X0027250Y0035060D03*
X0022750Y0035060D03*
X0017250Y0030060D03*
X0007250Y0035060D03*
X0007250Y0055060D03*
X0019250Y0056560D03*
X0027250Y0055060D03*
X0027250Y0059060D03*
D15*
X0027250Y0055060D02*
X0032250Y0050060D01*
X0032250Y0025060D01*
X0047250Y0010060D01*
X0037250Y0010060D02*
X0037250Y0015060D01*
X0022250Y0030060D01*
X0017250Y0030060D01*
X0017250Y0035060D02*
X0022750Y0035060D01*
X0027250Y0035060D02*
X0027250Y0043460D01*
X0017250Y0035060D02*
X0012250Y0030060D01*
X0007250Y0030060D01*
X0004250Y0033060D01*
X0004250Y0045060D01*
X0012250Y0045060D01*
X0012250Y0049060D02*
X0012250Y0053560D01*
X0010750Y0055060D01*
X0007250Y0055060D01*
X0009750Y0056560D02*
X0008250Y0058060D01*
X0005250Y0058060D01*
X0004250Y0057060D01*
X0004250Y0045060D01*
X0012250Y0041060D02*
X0012250Y0036560D01*
X0010750Y0035060D01*
X0007250Y0035060D01*
X0009750Y0056560D02*
X0019250Y0056560D01*
X0037250Y0056060D02*
X0037250Y0053560D01*
X0037250Y0056060D02*
X0038750Y0057560D01*
X0048250Y0057560D01*
X0055750Y0050060D01*
X0062250Y0050060D01*
X0062250Y0040060D02*
X0059250Y0037060D01*
X0047250Y0037060D01*
X0042250Y0051060D02*
X0042250Y0020060D01*
X0042250Y0051060D02*
X0044750Y0053560D01*
X0047250Y0081060D02*
X0032250Y0096060D01*
X0032250Y0121060D01*
X0027250Y0126060D01*
X0019250Y0127560D02*
X0009750Y0127560D01*
X0008250Y0129060D01*
X0005250Y0129060D01*
X0004250Y0128060D01*
X0004250Y0116060D01*
X0012250Y0116060D01*
X0012250Y0112060D02*
X0012250Y0107560D01*
X0010750Y0106060D01*
X0007250Y0106060D01*
X0004250Y0104060D02*
X0007250Y0101060D01*
X0012250Y0101060D01*
X0017250Y0106060D01*
X0022750Y0106060D01*
X0027250Y0106060D02*
X0027250Y0114460D01*
X0037250Y0124560D02*
X0037250Y0127060D01*
X0038750Y0128560D01*
X0048250Y0128560D01*
X0055750Y0121060D01*
X0062250Y0121060D01*
X0062250Y0111060D02*
X0059250Y0108060D01*
X0047250Y0108060D01*
X0042250Y0122060D02*
X0044750Y0124560D01*
X0042250Y0122060D02*
X0042250Y0091060D01*
X0037250Y0086060D02*
X0037250Y0081060D01*
X0037250Y0086060D02*
X0022250Y0101060D01*
X0017250Y0101060D01*
X0004250Y0104060D02*
X0004250Y0116060D01*
X0012250Y0120060D02*
X0012250Y0124560D01*
X0010750Y0126060D01*
X0007250Y0126060D01*
X0037250Y0152060D02*
X0037250Y0157060D01*
X0022250Y0172060D01*
X0017250Y0172060D01*
X0017250Y0177060D02*
X0022750Y0177060D01*
X0027250Y0177060D02*
X0027250Y0185460D01*
X0032250Y0192060D02*
X0027250Y0197060D01*
X0032250Y0192060D02*
X0032250Y0167060D01*
X0047250Y0152060D01*
X0042250Y0162060D02*
X0042250Y0193060D01*
X0044750Y0195560D01*
X0048250Y0199560D02*
X0038750Y0199560D01*
X0037250Y0198060D01*
X0037250Y0195560D01*
X0048250Y0199560D02*
X0055750Y0192060D01*
X0062250Y0192060D01*
X0062250Y0182060D02*
X0059250Y0179060D01*
X0047250Y0179060D01*
X0075250Y0175060D02*
X0078250Y0172060D01*
X0083250Y0172060D01*
X0088250Y0177060D01*
X0093750Y0177060D01*
X0098250Y0177060D02*
X0098250Y0185460D01*
X0103250Y0192060D02*
X0098250Y0197060D01*
X0103250Y0192060D02*
X0103250Y0167060D01*
X0118250Y0152060D01*
X0113250Y0162060D02*
X0113250Y0193060D01*
X0115750Y0195560D01*
X0119250Y0199560D02*
X0109750Y0199560D01*
X0108250Y0198060D01*
X0108250Y0195560D01*
X0119250Y0199560D02*
X0126750Y0192060D01*
X0133250Y0192060D01*
X0133250Y0182060D02*
X0130250Y0179060D01*
X0118250Y0179060D01*
X0108250Y0157060D02*
X0108250Y0152060D01*
X0108250Y0157060D02*
X0093250Y0172060D01*
X0088250Y0172060D01*
X0083250Y0178560D02*
X0083250Y0183060D01*
X0083250Y0187060D02*
X0075250Y0187060D01*
X0075250Y0175060D01*
X0078250Y0177060D02*
X0081750Y0177060D01*
X0083250Y0178560D01*
X0075250Y0187060D02*
X0075250Y0199060D01*
X0076250Y0200060D01*
X0079250Y0200060D01*
X0080750Y0198560D01*
X0090250Y0198560D01*
X0083250Y0195560D02*
X0083250Y0191060D01*
X0083250Y0195560D02*
X0081750Y0197060D01*
X0078250Y0197060D01*
X0019250Y0198560D02*
X0009750Y0198560D01*
X0008250Y0200060D01*
X0005250Y0200060D01*
X0004250Y0199060D01*
X0004250Y0187060D01*
X0012250Y0187060D01*
X0012250Y0191060D02*
X0012250Y0195560D01*
X0010750Y0197060D01*
X0007250Y0197060D01*
X0004250Y0187060D02*
X0004250Y0175060D01*
X0007250Y0172060D01*
X0012250Y0172060D01*
X0017250Y0177060D01*
X0012250Y0178560D02*
X0012250Y0183060D01*
X0012250Y0178560D02*
X0010750Y0177060D01*
X0007250Y0177060D01*
X0075250Y0128060D02*
X0075250Y0116060D01*
X0083250Y0116060D01*
X0083250Y0112060D02*
X0083250Y0107560D01*
X0081750Y0106060D01*
X0078250Y0106060D01*
X0075250Y0104060D02*
X0078250Y0101060D01*
X0083250Y0101060D01*
X0088250Y0106060D01*
X0093750Y0106060D01*
X0098250Y0106060D02*
X0098250Y0114460D01*
X0103250Y0121060D02*
X0098250Y0126060D01*
X0103250Y0121060D02*
X0103250Y0096060D01*
X0118250Y0081060D01*
X0108250Y0081060D02*
X0108250Y0086060D01*
X0093250Y0101060D01*
X0088250Y0101060D01*
X0075250Y0104060D02*
X0075250Y0116060D01*
X0083250Y0120060D02*
X0083250Y0124560D01*
X0081750Y0126060D01*
X0078250Y0126060D01*
X0080750Y0127560D02*
X0079250Y0129060D01*
X0076250Y0129060D01*
X0075250Y0128060D01*
X0080750Y0127560D02*
X0090250Y0127560D01*
X0108250Y0127060D02*
X0108250Y0124560D01*
X0108250Y0127060D02*
X0109750Y0128560D01*
X0119250Y0128560D01*
X0126750Y0121060D01*
X0133250Y0121060D01*
X0133250Y0111060D02*
X0130250Y0108060D01*
X0118250Y0108060D01*
X0113250Y0122060D02*
X0115750Y0124560D01*
X0113250Y0122060D02*
X0113250Y0091060D01*
X0109750Y0057560D02*
X0119250Y0057560D01*
X0126750Y0050060D01*
X0133250Y0050060D01*
X0133250Y0040060D02*
X0130250Y0037060D01*
X0118250Y0037060D01*
X0113250Y0051060D02*
X0113250Y0020060D01*
X0108250Y0015060D02*
X0108250Y0010060D01*
X0108250Y0015060D02*
X0093250Y0030060D01*
X0088250Y0030060D01*
X0088250Y0035060D02*
X0093750Y0035060D01*
X0098250Y0035060D02*
X0098250Y0043460D01*
X0103250Y0050060D02*
X0098250Y0055060D01*
X0103250Y0050060D02*
X0103250Y0025060D01*
X0118250Y0010060D01*
X0146250Y0033060D02*
X0149250Y0030060D01*
X0154250Y0030060D01*
X0159250Y0035060D01*
X0164750Y0035060D01*
X0169250Y0035060D02*
X0169250Y0043460D01*
X0174250Y0050060D02*
X0169250Y0055060D01*
X0174250Y0050060D02*
X0174250Y0025060D01*
X0189250Y0010060D01*
X0179250Y0010060D02*
X0179250Y0015060D01*
X0164250Y0030060D01*
X0159250Y0030060D01*
X0154250Y0036560D02*
X0154250Y0041060D01*
X0154250Y0045060D02*
X0146250Y0045060D01*
X0146250Y0033060D01*
X0149250Y0035060D02*
X0152750Y0035060D01*
X0154250Y0036560D01*
X0146250Y0045060D02*
X0146250Y0057060D01*
X0147250Y0058060D01*
X0150250Y0058060D01*
X0151750Y0056560D01*
X0161250Y0056560D01*
X0154250Y0053560D02*
X0154250Y0049060D01*
X0154250Y0053560D02*
X0152750Y0055060D01*
X0149250Y0055060D01*
X0179250Y0056060D02*
X0179250Y0053560D01*
X0179250Y0056060D02*
X0180750Y0057560D01*
X0190250Y0057560D01*
X0197750Y0050060D01*
X0204250Y0050060D01*
X0204250Y0040060D02*
X0201250Y0037060D01*
X0189250Y0037060D01*
X0184250Y0051060D02*
X0184250Y0020060D01*
X0184250Y0051060D02*
X0186750Y0053560D01*
X0189250Y0081060D02*
X0174250Y0096060D01*
X0174250Y0121060D01*
X0169250Y0126060D01*
X0161250Y0127560D02*
X0151750Y0127560D01*
X0150250Y0129060D01*
X0147250Y0129060D01*
X0146250Y0128060D01*
X0146250Y0116060D01*
X0154250Y0116060D01*
X0154250Y0112060D02*
X0154250Y0107560D01*
X0152750Y0106060D01*
X0149250Y0106060D01*
X0146250Y0104060D02*
X0149250Y0101060D01*
X0154250Y0101060D01*
X0159250Y0106060D01*
X0164750Y0106060D01*
X0169250Y0106060D02*
X0169250Y0114460D01*
X0179250Y0124560D02*
X0179250Y0127060D01*
X0180750Y0128560D01*
X0190250Y0128560D01*
X0197750Y0121060D01*
X0204250Y0121060D01*
X0204250Y0111060D02*
X0201250Y0108060D01*
X0189250Y0108060D01*
X0184250Y0122060D02*
X0186750Y0124560D01*
X0184250Y0122060D02*
X0184250Y0091060D01*
X0179250Y0086060D02*
X0179250Y0081060D01*
X0179250Y0086060D02*
X0164250Y0101060D01*
X0159250Y0101060D01*
X0146250Y0104060D02*
X0146250Y0116060D01*
X0154250Y0120060D02*
X0154250Y0124560D01*
X0152750Y0126060D01*
X0149250Y0126060D01*
X0179250Y0152060D02*
X0179250Y0157060D01*
X0164250Y0172060D01*
X0159250Y0172060D01*
X0159250Y0177060D02*
X0164750Y0177060D01*
X0169250Y0177060D02*
X0169250Y0185460D01*
X0174250Y0192060D02*
X0169250Y0197060D01*
X0174250Y0192060D02*
X0174250Y0167060D01*
X0189250Y0152060D01*
X0184250Y0162060D02*
X0184250Y0193060D01*
X0186750Y0195560D01*
X0190250Y0199560D02*
X0180750Y0199560D01*
X0179250Y0198060D01*
X0179250Y0195560D01*
X0190250Y0199560D02*
X0197750Y0192060D01*
X0204250Y0192060D01*
X0204250Y0182060D02*
X0201250Y0179060D01*
X0189250Y0179060D01*
X0161250Y0198560D02*
X0151750Y0198560D01*
X0150250Y0200060D01*
X0147250Y0200060D01*
X0146250Y0199060D01*
X0146250Y0187060D01*
X0154250Y0187060D01*
X0154250Y0191060D02*
X0154250Y0195560D01*
X0152750Y0197060D01*
X0149250Y0197060D01*
X0146250Y0187060D02*
X0146250Y0175060D01*
X0149250Y0172060D01*
X0154250Y0172060D01*
X0159250Y0177060D01*
X0154250Y0178560D02*
X0154250Y0183060D01*
X0154250Y0178560D02*
X0152750Y0177060D01*
X0149250Y0177060D01*
X0109750Y0057560D02*
X0108250Y0056060D01*
X0108250Y0053560D01*
X0113250Y0051060D02*
X0115750Y0053560D01*
X0090250Y0056560D02*
X0080750Y0056560D01*
X0079250Y0058060D01*
X0076250Y0058060D01*
X0075250Y0057060D01*
X0075250Y0045060D01*
X0083250Y0045060D01*
X0083250Y0049060D02*
X0083250Y0053560D01*
X0081750Y0055060D01*
X0078250Y0055060D01*
X0075250Y0045060D02*
X0075250Y0033060D01*
X0078250Y0030060D01*
X0083250Y0030060D01*
X0088250Y0035060D01*
X0083250Y0036560D02*
X0083250Y0041060D01*
X0083250Y0036560D02*
X0081750Y0035060D01*
X0078250Y0035060D01*
M02*
