G75*
%MOIN*%
%OFA0B0*%
%FSLAX25Y25*%
%IPPOS*%
%LPD*%
%AMOC8*
5,1,8,0,0,1.08239X$1,22.5*
%
%ADD10R,0.04331X0.03937*%
%ADD11R,0.03937X0.04331*%
%ADD12R,0.02756X0.02826*%
%ADD13R,0.01575X0.02756*%
D10*
X0026404Y0030060D03*
X0033096Y0030060D03*
X0041404Y0030060D03*
X0048096Y0030060D03*
X0040596Y0057560D03*
X0033904Y0057560D03*
X0015596Y0050060D03*
X0008904Y0050060D03*
X0008904Y0040060D03*
X0015596Y0040060D03*
X0026404Y0102060D03*
X0033096Y0102060D03*
X0041404Y0102060D03*
X0048096Y0102060D03*
X0040596Y0129560D03*
X0033904Y0129560D03*
X0015596Y0122060D03*
X0008904Y0122060D03*
X0008904Y0112060D03*
X0015596Y0112060D03*
X0026404Y0174060D03*
X0033096Y0174060D03*
X0041404Y0174060D03*
X0048096Y0174060D03*
X0040596Y0201560D03*
X0033904Y0201560D03*
X0015596Y0194060D03*
X0008904Y0194060D03*
X0008904Y0184060D03*
X0015596Y0184060D03*
X0080904Y0184060D03*
X0087596Y0184060D03*
X0087596Y0194060D03*
X0080904Y0194060D03*
X0098404Y0174060D03*
X0105096Y0174060D03*
X0113404Y0174060D03*
X0120096Y0174060D03*
X0112596Y0201560D03*
X0105904Y0201560D03*
X0152904Y0194060D03*
X0159596Y0194060D03*
X0159596Y0184060D03*
X0152904Y0184060D03*
X0170404Y0174060D03*
X0177096Y0174060D03*
X0185404Y0174060D03*
X0192096Y0174060D03*
X0184596Y0201560D03*
X0177904Y0201560D03*
X0177904Y0129560D03*
X0184596Y0129560D03*
X0159596Y0122060D03*
X0152904Y0122060D03*
X0152904Y0112060D03*
X0159596Y0112060D03*
X0170404Y0102060D03*
X0177096Y0102060D03*
X0185404Y0102060D03*
X0192096Y0102060D03*
X0184596Y0057560D03*
X0177904Y0057560D03*
X0159596Y0050060D03*
X0152904Y0050060D03*
X0152904Y0040060D03*
X0159596Y0040060D03*
X0170404Y0030060D03*
X0177096Y0030060D03*
X0185404Y0030060D03*
X0192096Y0030060D03*
X0120096Y0030060D03*
X0113404Y0030060D03*
X0105096Y0030060D03*
X0098404Y0030060D03*
X0087596Y0040060D03*
X0080904Y0040060D03*
X0080904Y0050060D03*
X0087596Y0050060D03*
X0105904Y0057560D03*
X0112596Y0057560D03*
X0113404Y0102060D03*
X0120096Y0102060D03*
X0105096Y0102060D03*
X0098404Y0102060D03*
X0087596Y0112060D03*
X0080904Y0112060D03*
X0080904Y0122060D03*
X0087596Y0122060D03*
X0105904Y0129560D03*
X0112596Y0129560D03*
D11*
X0124250Y0120406D03*
X0124250Y0113714D03*
X0094750Y0113714D03*
X0094750Y0120406D03*
X0052250Y0120406D03*
X0052250Y0113714D03*
X0022750Y0113714D03*
X0022750Y0120406D03*
X0022750Y0185714D03*
X0022750Y0192406D03*
X0052250Y0192406D03*
X0052250Y0185714D03*
X0094750Y0185714D03*
X0094750Y0192406D03*
X0124250Y0192406D03*
X0124250Y0185714D03*
X0166750Y0185714D03*
X0166750Y0192406D03*
X0196250Y0192406D03*
X0196250Y0185714D03*
X0196250Y0120406D03*
X0196250Y0113714D03*
X0166750Y0113714D03*
X0166750Y0120406D03*
X0166750Y0048406D03*
X0166750Y0041714D03*
X0196250Y0041714D03*
X0196250Y0048406D03*
X0124250Y0048406D03*
X0124250Y0041714D03*
X0094750Y0041714D03*
X0094750Y0048406D03*
X0052250Y0048406D03*
X0052250Y0041714D03*
X0022750Y0041714D03*
X0022750Y0048406D03*
D12*
X0037053Y0045060D03*
X0037053Y0117060D03*
X0037053Y0189060D03*
X0109053Y0189060D03*
X0109053Y0117060D03*
X0109053Y0045060D03*
X0181053Y0045060D03*
X0181053Y0117060D03*
X0181053Y0189060D03*
D13*
X0181250Y0193391D03*
X0178888Y0193391D03*
X0176526Y0193391D03*
X0183612Y0193391D03*
X0185974Y0193391D03*
X0185974Y0184729D03*
X0183612Y0184729D03*
X0181250Y0184729D03*
X0178888Y0184729D03*
X0176526Y0184729D03*
X0113974Y0184729D03*
X0111612Y0184729D03*
X0109250Y0184729D03*
X0106888Y0184729D03*
X0104526Y0184729D03*
X0104526Y0193391D03*
X0106888Y0193391D03*
X0109250Y0193391D03*
X0111612Y0193391D03*
X0113974Y0193391D03*
X0041974Y0193391D03*
X0039612Y0193391D03*
X0037250Y0193391D03*
X0034888Y0193391D03*
X0032526Y0193391D03*
X0032526Y0184729D03*
X0034888Y0184729D03*
X0037250Y0184729D03*
X0039612Y0184729D03*
X0041974Y0184729D03*
X0041974Y0121391D03*
X0039612Y0121391D03*
X0037250Y0121391D03*
X0034888Y0121391D03*
X0032526Y0121391D03*
X0032526Y0112729D03*
X0034888Y0112729D03*
X0037250Y0112729D03*
X0039612Y0112729D03*
X0041974Y0112729D03*
X0104526Y0112729D03*
X0106888Y0112729D03*
X0109250Y0112729D03*
X0111612Y0112729D03*
X0113974Y0112729D03*
X0113974Y0121391D03*
X0111612Y0121391D03*
X0109250Y0121391D03*
X0106888Y0121391D03*
X0104526Y0121391D03*
X0104526Y0049391D03*
X0106888Y0049391D03*
X0109250Y0049391D03*
X0111612Y0049391D03*
X0113974Y0049391D03*
X0113974Y0040729D03*
X0111612Y0040729D03*
X0109250Y0040729D03*
X0106888Y0040729D03*
X0104526Y0040729D03*
X0041974Y0040729D03*
X0039612Y0040729D03*
X0037250Y0040729D03*
X0034888Y0040729D03*
X0032526Y0040729D03*
X0032526Y0049391D03*
X0034888Y0049391D03*
X0037250Y0049391D03*
X0039612Y0049391D03*
X0041974Y0049391D03*
X0176526Y0049391D03*
X0178888Y0049391D03*
X0181250Y0049391D03*
X0183612Y0049391D03*
X0185974Y0049391D03*
X0185974Y0040729D03*
X0183612Y0040729D03*
X0181250Y0040729D03*
X0178888Y0040729D03*
X0176526Y0040729D03*
X0176526Y0112729D03*
X0178888Y0112729D03*
X0181250Y0112729D03*
X0183612Y0112729D03*
X0185974Y0112729D03*
X0185974Y0121391D03*
X0183612Y0121391D03*
X0181250Y0121391D03*
X0178888Y0121391D03*
X0176526Y0121391D03*
M02*
