G75*
%MOIN*%
%OFA0B0*%
%FSLAX25Y25*%
%IPPOS*%
%LPD*%
%AMOC8*
5,1,8,0,0,1.08239X$1,22.5*
%
%ADD10C,0.00800*%
%ADD11C,0.00000*%
D10*
X0002250Y0005060D02*
X0072250Y0005060D01*
X0072250Y0075060D01*
X0002250Y0075060D01*
X0002250Y0005060D01*
X0002250Y0077060D02*
X0072250Y0077060D01*
X0072250Y0147060D01*
X0002250Y0147060D01*
X0002250Y0077060D01*
X0074250Y0077060D02*
X0074250Y0147060D01*
X0144250Y0147060D01*
X0144250Y0077060D01*
X0074250Y0077060D01*
X0074250Y0075060D02*
X0144250Y0075060D01*
X0144250Y0005060D01*
X0074250Y0005060D01*
X0074250Y0075060D01*
X0146250Y0075060D02*
X0146250Y0005060D01*
X0216250Y0005060D01*
X0216250Y0075060D01*
X0146250Y0075060D01*
X0146250Y0077060D02*
X0216250Y0077060D01*
X0216250Y0147060D01*
X0146250Y0147060D01*
X0146250Y0077060D01*
X0146250Y0149060D02*
X0216250Y0149060D01*
X0216250Y0219060D01*
X0146250Y0219060D01*
X0146250Y0149060D01*
X0144250Y0149060D02*
X0074250Y0149060D01*
X0074250Y0219060D01*
X0144250Y0219060D01*
X0144250Y0149060D01*
X0072250Y0149060D02*
X0002250Y0149060D01*
X0002250Y0219060D01*
X0072250Y0219060D01*
X0072250Y0149060D01*
D11*
X0055750Y0137060D02*
X0055752Y0137221D01*
X0055758Y0137381D01*
X0055768Y0137542D01*
X0055782Y0137702D01*
X0055800Y0137862D01*
X0055821Y0138021D01*
X0055847Y0138180D01*
X0055877Y0138338D01*
X0055910Y0138495D01*
X0055948Y0138652D01*
X0055989Y0138807D01*
X0056034Y0138961D01*
X0056083Y0139114D01*
X0056136Y0139266D01*
X0056192Y0139417D01*
X0056253Y0139566D01*
X0056316Y0139714D01*
X0056384Y0139860D01*
X0056455Y0140004D01*
X0056529Y0140146D01*
X0056607Y0140287D01*
X0056689Y0140425D01*
X0056774Y0140562D01*
X0056862Y0140696D01*
X0056954Y0140828D01*
X0057049Y0140958D01*
X0057147Y0141086D01*
X0057248Y0141211D01*
X0057352Y0141333D01*
X0057459Y0141453D01*
X0057569Y0141570D01*
X0057682Y0141685D01*
X0057798Y0141796D01*
X0057917Y0141905D01*
X0058038Y0142010D01*
X0058162Y0142113D01*
X0058288Y0142213D01*
X0058416Y0142309D01*
X0058547Y0142402D01*
X0058681Y0142492D01*
X0058816Y0142579D01*
X0058954Y0142662D01*
X0059093Y0142742D01*
X0059235Y0142818D01*
X0059378Y0142891D01*
X0059523Y0142960D01*
X0059670Y0143026D01*
X0059818Y0143088D01*
X0059968Y0143146D01*
X0060119Y0143201D01*
X0060272Y0143252D01*
X0060426Y0143299D01*
X0060581Y0143342D01*
X0060737Y0143381D01*
X0060893Y0143417D01*
X0061051Y0143448D01*
X0061209Y0143476D01*
X0061368Y0143500D01*
X0061528Y0143520D01*
X0061688Y0143536D01*
X0061848Y0143548D01*
X0062009Y0143556D01*
X0062170Y0143560D01*
X0062330Y0143560D01*
X0062491Y0143556D01*
X0062652Y0143548D01*
X0062812Y0143536D01*
X0062972Y0143520D01*
X0063132Y0143500D01*
X0063291Y0143476D01*
X0063449Y0143448D01*
X0063607Y0143417D01*
X0063763Y0143381D01*
X0063919Y0143342D01*
X0064074Y0143299D01*
X0064228Y0143252D01*
X0064381Y0143201D01*
X0064532Y0143146D01*
X0064682Y0143088D01*
X0064830Y0143026D01*
X0064977Y0142960D01*
X0065122Y0142891D01*
X0065265Y0142818D01*
X0065407Y0142742D01*
X0065546Y0142662D01*
X0065684Y0142579D01*
X0065819Y0142492D01*
X0065953Y0142402D01*
X0066084Y0142309D01*
X0066212Y0142213D01*
X0066338Y0142113D01*
X0066462Y0142010D01*
X0066583Y0141905D01*
X0066702Y0141796D01*
X0066818Y0141685D01*
X0066931Y0141570D01*
X0067041Y0141453D01*
X0067148Y0141333D01*
X0067252Y0141211D01*
X0067353Y0141086D01*
X0067451Y0140958D01*
X0067546Y0140828D01*
X0067638Y0140696D01*
X0067726Y0140562D01*
X0067811Y0140425D01*
X0067893Y0140287D01*
X0067971Y0140146D01*
X0068045Y0140004D01*
X0068116Y0139860D01*
X0068184Y0139714D01*
X0068247Y0139566D01*
X0068308Y0139417D01*
X0068364Y0139266D01*
X0068417Y0139114D01*
X0068466Y0138961D01*
X0068511Y0138807D01*
X0068552Y0138652D01*
X0068590Y0138495D01*
X0068623Y0138338D01*
X0068653Y0138180D01*
X0068679Y0138021D01*
X0068700Y0137862D01*
X0068718Y0137702D01*
X0068732Y0137542D01*
X0068742Y0137381D01*
X0068748Y0137221D01*
X0068750Y0137060D01*
X0068748Y0136899D01*
X0068742Y0136739D01*
X0068732Y0136578D01*
X0068718Y0136418D01*
X0068700Y0136258D01*
X0068679Y0136099D01*
X0068653Y0135940D01*
X0068623Y0135782D01*
X0068590Y0135625D01*
X0068552Y0135468D01*
X0068511Y0135313D01*
X0068466Y0135159D01*
X0068417Y0135006D01*
X0068364Y0134854D01*
X0068308Y0134703D01*
X0068247Y0134554D01*
X0068184Y0134406D01*
X0068116Y0134260D01*
X0068045Y0134116D01*
X0067971Y0133974D01*
X0067893Y0133833D01*
X0067811Y0133695D01*
X0067726Y0133558D01*
X0067638Y0133424D01*
X0067546Y0133292D01*
X0067451Y0133162D01*
X0067353Y0133034D01*
X0067252Y0132909D01*
X0067148Y0132787D01*
X0067041Y0132667D01*
X0066931Y0132550D01*
X0066818Y0132435D01*
X0066702Y0132324D01*
X0066583Y0132215D01*
X0066462Y0132110D01*
X0066338Y0132007D01*
X0066212Y0131907D01*
X0066084Y0131811D01*
X0065953Y0131718D01*
X0065819Y0131628D01*
X0065684Y0131541D01*
X0065546Y0131458D01*
X0065407Y0131378D01*
X0065265Y0131302D01*
X0065122Y0131229D01*
X0064977Y0131160D01*
X0064830Y0131094D01*
X0064682Y0131032D01*
X0064532Y0130974D01*
X0064381Y0130919D01*
X0064228Y0130868D01*
X0064074Y0130821D01*
X0063919Y0130778D01*
X0063763Y0130739D01*
X0063607Y0130703D01*
X0063449Y0130672D01*
X0063291Y0130644D01*
X0063132Y0130620D01*
X0062972Y0130600D01*
X0062812Y0130584D01*
X0062652Y0130572D01*
X0062491Y0130564D01*
X0062330Y0130560D01*
X0062170Y0130560D01*
X0062009Y0130564D01*
X0061848Y0130572D01*
X0061688Y0130584D01*
X0061528Y0130600D01*
X0061368Y0130620D01*
X0061209Y0130644D01*
X0061051Y0130672D01*
X0060893Y0130703D01*
X0060737Y0130739D01*
X0060581Y0130778D01*
X0060426Y0130821D01*
X0060272Y0130868D01*
X0060119Y0130919D01*
X0059968Y0130974D01*
X0059818Y0131032D01*
X0059670Y0131094D01*
X0059523Y0131160D01*
X0059378Y0131229D01*
X0059235Y0131302D01*
X0059093Y0131378D01*
X0058954Y0131458D01*
X0058816Y0131541D01*
X0058681Y0131628D01*
X0058547Y0131718D01*
X0058416Y0131811D01*
X0058288Y0131907D01*
X0058162Y0132007D01*
X0058038Y0132110D01*
X0057917Y0132215D01*
X0057798Y0132324D01*
X0057682Y0132435D01*
X0057569Y0132550D01*
X0057459Y0132667D01*
X0057352Y0132787D01*
X0057248Y0132909D01*
X0057147Y0133034D01*
X0057049Y0133162D01*
X0056954Y0133292D01*
X0056862Y0133424D01*
X0056774Y0133558D01*
X0056689Y0133695D01*
X0056607Y0133833D01*
X0056529Y0133974D01*
X0056455Y0134116D01*
X0056384Y0134260D01*
X0056316Y0134406D01*
X0056253Y0134554D01*
X0056192Y0134703D01*
X0056136Y0134854D01*
X0056083Y0135006D01*
X0056034Y0135159D01*
X0055989Y0135313D01*
X0055948Y0135468D01*
X0055910Y0135625D01*
X0055877Y0135782D01*
X0055847Y0135940D01*
X0055821Y0136099D01*
X0055800Y0136258D01*
X0055782Y0136418D01*
X0055768Y0136578D01*
X0055758Y0136739D01*
X0055752Y0136899D01*
X0055750Y0137060D01*
X0077750Y0137060D02*
X0077752Y0137221D01*
X0077758Y0137381D01*
X0077768Y0137542D01*
X0077782Y0137702D01*
X0077800Y0137862D01*
X0077821Y0138021D01*
X0077847Y0138180D01*
X0077877Y0138338D01*
X0077910Y0138495D01*
X0077948Y0138652D01*
X0077989Y0138807D01*
X0078034Y0138961D01*
X0078083Y0139114D01*
X0078136Y0139266D01*
X0078192Y0139417D01*
X0078253Y0139566D01*
X0078316Y0139714D01*
X0078384Y0139860D01*
X0078455Y0140004D01*
X0078529Y0140146D01*
X0078607Y0140287D01*
X0078689Y0140425D01*
X0078774Y0140562D01*
X0078862Y0140696D01*
X0078954Y0140828D01*
X0079049Y0140958D01*
X0079147Y0141086D01*
X0079248Y0141211D01*
X0079352Y0141333D01*
X0079459Y0141453D01*
X0079569Y0141570D01*
X0079682Y0141685D01*
X0079798Y0141796D01*
X0079917Y0141905D01*
X0080038Y0142010D01*
X0080162Y0142113D01*
X0080288Y0142213D01*
X0080416Y0142309D01*
X0080547Y0142402D01*
X0080681Y0142492D01*
X0080816Y0142579D01*
X0080954Y0142662D01*
X0081093Y0142742D01*
X0081235Y0142818D01*
X0081378Y0142891D01*
X0081523Y0142960D01*
X0081670Y0143026D01*
X0081818Y0143088D01*
X0081968Y0143146D01*
X0082119Y0143201D01*
X0082272Y0143252D01*
X0082426Y0143299D01*
X0082581Y0143342D01*
X0082737Y0143381D01*
X0082893Y0143417D01*
X0083051Y0143448D01*
X0083209Y0143476D01*
X0083368Y0143500D01*
X0083528Y0143520D01*
X0083688Y0143536D01*
X0083848Y0143548D01*
X0084009Y0143556D01*
X0084170Y0143560D01*
X0084330Y0143560D01*
X0084491Y0143556D01*
X0084652Y0143548D01*
X0084812Y0143536D01*
X0084972Y0143520D01*
X0085132Y0143500D01*
X0085291Y0143476D01*
X0085449Y0143448D01*
X0085607Y0143417D01*
X0085763Y0143381D01*
X0085919Y0143342D01*
X0086074Y0143299D01*
X0086228Y0143252D01*
X0086381Y0143201D01*
X0086532Y0143146D01*
X0086682Y0143088D01*
X0086830Y0143026D01*
X0086977Y0142960D01*
X0087122Y0142891D01*
X0087265Y0142818D01*
X0087407Y0142742D01*
X0087546Y0142662D01*
X0087684Y0142579D01*
X0087819Y0142492D01*
X0087953Y0142402D01*
X0088084Y0142309D01*
X0088212Y0142213D01*
X0088338Y0142113D01*
X0088462Y0142010D01*
X0088583Y0141905D01*
X0088702Y0141796D01*
X0088818Y0141685D01*
X0088931Y0141570D01*
X0089041Y0141453D01*
X0089148Y0141333D01*
X0089252Y0141211D01*
X0089353Y0141086D01*
X0089451Y0140958D01*
X0089546Y0140828D01*
X0089638Y0140696D01*
X0089726Y0140562D01*
X0089811Y0140425D01*
X0089893Y0140287D01*
X0089971Y0140146D01*
X0090045Y0140004D01*
X0090116Y0139860D01*
X0090184Y0139714D01*
X0090247Y0139566D01*
X0090308Y0139417D01*
X0090364Y0139266D01*
X0090417Y0139114D01*
X0090466Y0138961D01*
X0090511Y0138807D01*
X0090552Y0138652D01*
X0090590Y0138495D01*
X0090623Y0138338D01*
X0090653Y0138180D01*
X0090679Y0138021D01*
X0090700Y0137862D01*
X0090718Y0137702D01*
X0090732Y0137542D01*
X0090742Y0137381D01*
X0090748Y0137221D01*
X0090750Y0137060D01*
X0090748Y0136899D01*
X0090742Y0136739D01*
X0090732Y0136578D01*
X0090718Y0136418D01*
X0090700Y0136258D01*
X0090679Y0136099D01*
X0090653Y0135940D01*
X0090623Y0135782D01*
X0090590Y0135625D01*
X0090552Y0135468D01*
X0090511Y0135313D01*
X0090466Y0135159D01*
X0090417Y0135006D01*
X0090364Y0134854D01*
X0090308Y0134703D01*
X0090247Y0134554D01*
X0090184Y0134406D01*
X0090116Y0134260D01*
X0090045Y0134116D01*
X0089971Y0133974D01*
X0089893Y0133833D01*
X0089811Y0133695D01*
X0089726Y0133558D01*
X0089638Y0133424D01*
X0089546Y0133292D01*
X0089451Y0133162D01*
X0089353Y0133034D01*
X0089252Y0132909D01*
X0089148Y0132787D01*
X0089041Y0132667D01*
X0088931Y0132550D01*
X0088818Y0132435D01*
X0088702Y0132324D01*
X0088583Y0132215D01*
X0088462Y0132110D01*
X0088338Y0132007D01*
X0088212Y0131907D01*
X0088084Y0131811D01*
X0087953Y0131718D01*
X0087819Y0131628D01*
X0087684Y0131541D01*
X0087546Y0131458D01*
X0087407Y0131378D01*
X0087265Y0131302D01*
X0087122Y0131229D01*
X0086977Y0131160D01*
X0086830Y0131094D01*
X0086682Y0131032D01*
X0086532Y0130974D01*
X0086381Y0130919D01*
X0086228Y0130868D01*
X0086074Y0130821D01*
X0085919Y0130778D01*
X0085763Y0130739D01*
X0085607Y0130703D01*
X0085449Y0130672D01*
X0085291Y0130644D01*
X0085132Y0130620D01*
X0084972Y0130600D01*
X0084812Y0130584D01*
X0084652Y0130572D01*
X0084491Y0130564D01*
X0084330Y0130560D01*
X0084170Y0130560D01*
X0084009Y0130564D01*
X0083848Y0130572D01*
X0083688Y0130584D01*
X0083528Y0130600D01*
X0083368Y0130620D01*
X0083209Y0130644D01*
X0083051Y0130672D01*
X0082893Y0130703D01*
X0082737Y0130739D01*
X0082581Y0130778D01*
X0082426Y0130821D01*
X0082272Y0130868D01*
X0082119Y0130919D01*
X0081968Y0130974D01*
X0081818Y0131032D01*
X0081670Y0131094D01*
X0081523Y0131160D01*
X0081378Y0131229D01*
X0081235Y0131302D01*
X0081093Y0131378D01*
X0080954Y0131458D01*
X0080816Y0131541D01*
X0080681Y0131628D01*
X0080547Y0131718D01*
X0080416Y0131811D01*
X0080288Y0131907D01*
X0080162Y0132007D01*
X0080038Y0132110D01*
X0079917Y0132215D01*
X0079798Y0132324D01*
X0079682Y0132435D01*
X0079569Y0132550D01*
X0079459Y0132667D01*
X0079352Y0132787D01*
X0079248Y0132909D01*
X0079147Y0133034D01*
X0079049Y0133162D01*
X0078954Y0133292D01*
X0078862Y0133424D01*
X0078774Y0133558D01*
X0078689Y0133695D01*
X0078607Y0133833D01*
X0078529Y0133974D01*
X0078455Y0134116D01*
X0078384Y0134260D01*
X0078316Y0134406D01*
X0078253Y0134554D01*
X0078192Y0134703D01*
X0078136Y0134854D01*
X0078083Y0135006D01*
X0078034Y0135159D01*
X0077989Y0135313D01*
X0077948Y0135468D01*
X0077910Y0135625D01*
X0077877Y0135782D01*
X0077847Y0135940D01*
X0077821Y0136099D01*
X0077800Y0136258D01*
X0077782Y0136418D01*
X0077768Y0136578D01*
X0077758Y0136739D01*
X0077752Y0136899D01*
X0077750Y0137060D01*
X0127750Y0137060D02*
X0127752Y0137221D01*
X0127758Y0137381D01*
X0127768Y0137542D01*
X0127782Y0137702D01*
X0127800Y0137862D01*
X0127821Y0138021D01*
X0127847Y0138180D01*
X0127877Y0138338D01*
X0127910Y0138495D01*
X0127948Y0138652D01*
X0127989Y0138807D01*
X0128034Y0138961D01*
X0128083Y0139114D01*
X0128136Y0139266D01*
X0128192Y0139417D01*
X0128253Y0139566D01*
X0128316Y0139714D01*
X0128384Y0139860D01*
X0128455Y0140004D01*
X0128529Y0140146D01*
X0128607Y0140287D01*
X0128689Y0140425D01*
X0128774Y0140562D01*
X0128862Y0140696D01*
X0128954Y0140828D01*
X0129049Y0140958D01*
X0129147Y0141086D01*
X0129248Y0141211D01*
X0129352Y0141333D01*
X0129459Y0141453D01*
X0129569Y0141570D01*
X0129682Y0141685D01*
X0129798Y0141796D01*
X0129917Y0141905D01*
X0130038Y0142010D01*
X0130162Y0142113D01*
X0130288Y0142213D01*
X0130416Y0142309D01*
X0130547Y0142402D01*
X0130681Y0142492D01*
X0130816Y0142579D01*
X0130954Y0142662D01*
X0131093Y0142742D01*
X0131235Y0142818D01*
X0131378Y0142891D01*
X0131523Y0142960D01*
X0131670Y0143026D01*
X0131818Y0143088D01*
X0131968Y0143146D01*
X0132119Y0143201D01*
X0132272Y0143252D01*
X0132426Y0143299D01*
X0132581Y0143342D01*
X0132737Y0143381D01*
X0132893Y0143417D01*
X0133051Y0143448D01*
X0133209Y0143476D01*
X0133368Y0143500D01*
X0133528Y0143520D01*
X0133688Y0143536D01*
X0133848Y0143548D01*
X0134009Y0143556D01*
X0134170Y0143560D01*
X0134330Y0143560D01*
X0134491Y0143556D01*
X0134652Y0143548D01*
X0134812Y0143536D01*
X0134972Y0143520D01*
X0135132Y0143500D01*
X0135291Y0143476D01*
X0135449Y0143448D01*
X0135607Y0143417D01*
X0135763Y0143381D01*
X0135919Y0143342D01*
X0136074Y0143299D01*
X0136228Y0143252D01*
X0136381Y0143201D01*
X0136532Y0143146D01*
X0136682Y0143088D01*
X0136830Y0143026D01*
X0136977Y0142960D01*
X0137122Y0142891D01*
X0137265Y0142818D01*
X0137407Y0142742D01*
X0137546Y0142662D01*
X0137684Y0142579D01*
X0137819Y0142492D01*
X0137953Y0142402D01*
X0138084Y0142309D01*
X0138212Y0142213D01*
X0138338Y0142113D01*
X0138462Y0142010D01*
X0138583Y0141905D01*
X0138702Y0141796D01*
X0138818Y0141685D01*
X0138931Y0141570D01*
X0139041Y0141453D01*
X0139148Y0141333D01*
X0139252Y0141211D01*
X0139353Y0141086D01*
X0139451Y0140958D01*
X0139546Y0140828D01*
X0139638Y0140696D01*
X0139726Y0140562D01*
X0139811Y0140425D01*
X0139893Y0140287D01*
X0139971Y0140146D01*
X0140045Y0140004D01*
X0140116Y0139860D01*
X0140184Y0139714D01*
X0140247Y0139566D01*
X0140308Y0139417D01*
X0140364Y0139266D01*
X0140417Y0139114D01*
X0140466Y0138961D01*
X0140511Y0138807D01*
X0140552Y0138652D01*
X0140590Y0138495D01*
X0140623Y0138338D01*
X0140653Y0138180D01*
X0140679Y0138021D01*
X0140700Y0137862D01*
X0140718Y0137702D01*
X0140732Y0137542D01*
X0140742Y0137381D01*
X0140748Y0137221D01*
X0140750Y0137060D01*
X0140748Y0136899D01*
X0140742Y0136739D01*
X0140732Y0136578D01*
X0140718Y0136418D01*
X0140700Y0136258D01*
X0140679Y0136099D01*
X0140653Y0135940D01*
X0140623Y0135782D01*
X0140590Y0135625D01*
X0140552Y0135468D01*
X0140511Y0135313D01*
X0140466Y0135159D01*
X0140417Y0135006D01*
X0140364Y0134854D01*
X0140308Y0134703D01*
X0140247Y0134554D01*
X0140184Y0134406D01*
X0140116Y0134260D01*
X0140045Y0134116D01*
X0139971Y0133974D01*
X0139893Y0133833D01*
X0139811Y0133695D01*
X0139726Y0133558D01*
X0139638Y0133424D01*
X0139546Y0133292D01*
X0139451Y0133162D01*
X0139353Y0133034D01*
X0139252Y0132909D01*
X0139148Y0132787D01*
X0139041Y0132667D01*
X0138931Y0132550D01*
X0138818Y0132435D01*
X0138702Y0132324D01*
X0138583Y0132215D01*
X0138462Y0132110D01*
X0138338Y0132007D01*
X0138212Y0131907D01*
X0138084Y0131811D01*
X0137953Y0131718D01*
X0137819Y0131628D01*
X0137684Y0131541D01*
X0137546Y0131458D01*
X0137407Y0131378D01*
X0137265Y0131302D01*
X0137122Y0131229D01*
X0136977Y0131160D01*
X0136830Y0131094D01*
X0136682Y0131032D01*
X0136532Y0130974D01*
X0136381Y0130919D01*
X0136228Y0130868D01*
X0136074Y0130821D01*
X0135919Y0130778D01*
X0135763Y0130739D01*
X0135607Y0130703D01*
X0135449Y0130672D01*
X0135291Y0130644D01*
X0135132Y0130620D01*
X0134972Y0130600D01*
X0134812Y0130584D01*
X0134652Y0130572D01*
X0134491Y0130564D01*
X0134330Y0130560D01*
X0134170Y0130560D01*
X0134009Y0130564D01*
X0133848Y0130572D01*
X0133688Y0130584D01*
X0133528Y0130600D01*
X0133368Y0130620D01*
X0133209Y0130644D01*
X0133051Y0130672D01*
X0132893Y0130703D01*
X0132737Y0130739D01*
X0132581Y0130778D01*
X0132426Y0130821D01*
X0132272Y0130868D01*
X0132119Y0130919D01*
X0131968Y0130974D01*
X0131818Y0131032D01*
X0131670Y0131094D01*
X0131523Y0131160D01*
X0131378Y0131229D01*
X0131235Y0131302D01*
X0131093Y0131378D01*
X0130954Y0131458D01*
X0130816Y0131541D01*
X0130681Y0131628D01*
X0130547Y0131718D01*
X0130416Y0131811D01*
X0130288Y0131907D01*
X0130162Y0132007D01*
X0130038Y0132110D01*
X0129917Y0132215D01*
X0129798Y0132324D01*
X0129682Y0132435D01*
X0129569Y0132550D01*
X0129459Y0132667D01*
X0129352Y0132787D01*
X0129248Y0132909D01*
X0129147Y0133034D01*
X0129049Y0133162D01*
X0128954Y0133292D01*
X0128862Y0133424D01*
X0128774Y0133558D01*
X0128689Y0133695D01*
X0128607Y0133833D01*
X0128529Y0133974D01*
X0128455Y0134116D01*
X0128384Y0134260D01*
X0128316Y0134406D01*
X0128253Y0134554D01*
X0128192Y0134703D01*
X0128136Y0134854D01*
X0128083Y0135006D01*
X0128034Y0135159D01*
X0127989Y0135313D01*
X0127948Y0135468D01*
X0127910Y0135625D01*
X0127877Y0135782D01*
X0127847Y0135940D01*
X0127821Y0136099D01*
X0127800Y0136258D01*
X0127782Y0136418D01*
X0127768Y0136578D01*
X0127758Y0136739D01*
X0127752Y0136899D01*
X0127750Y0137060D01*
X0149750Y0137060D02*
X0149752Y0137221D01*
X0149758Y0137381D01*
X0149768Y0137542D01*
X0149782Y0137702D01*
X0149800Y0137862D01*
X0149821Y0138021D01*
X0149847Y0138180D01*
X0149877Y0138338D01*
X0149910Y0138495D01*
X0149948Y0138652D01*
X0149989Y0138807D01*
X0150034Y0138961D01*
X0150083Y0139114D01*
X0150136Y0139266D01*
X0150192Y0139417D01*
X0150253Y0139566D01*
X0150316Y0139714D01*
X0150384Y0139860D01*
X0150455Y0140004D01*
X0150529Y0140146D01*
X0150607Y0140287D01*
X0150689Y0140425D01*
X0150774Y0140562D01*
X0150862Y0140696D01*
X0150954Y0140828D01*
X0151049Y0140958D01*
X0151147Y0141086D01*
X0151248Y0141211D01*
X0151352Y0141333D01*
X0151459Y0141453D01*
X0151569Y0141570D01*
X0151682Y0141685D01*
X0151798Y0141796D01*
X0151917Y0141905D01*
X0152038Y0142010D01*
X0152162Y0142113D01*
X0152288Y0142213D01*
X0152416Y0142309D01*
X0152547Y0142402D01*
X0152681Y0142492D01*
X0152816Y0142579D01*
X0152954Y0142662D01*
X0153093Y0142742D01*
X0153235Y0142818D01*
X0153378Y0142891D01*
X0153523Y0142960D01*
X0153670Y0143026D01*
X0153818Y0143088D01*
X0153968Y0143146D01*
X0154119Y0143201D01*
X0154272Y0143252D01*
X0154426Y0143299D01*
X0154581Y0143342D01*
X0154737Y0143381D01*
X0154893Y0143417D01*
X0155051Y0143448D01*
X0155209Y0143476D01*
X0155368Y0143500D01*
X0155528Y0143520D01*
X0155688Y0143536D01*
X0155848Y0143548D01*
X0156009Y0143556D01*
X0156170Y0143560D01*
X0156330Y0143560D01*
X0156491Y0143556D01*
X0156652Y0143548D01*
X0156812Y0143536D01*
X0156972Y0143520D01*
X0157132Y0143500D01*
X0157291Y0143476D01*
X0157449Y0143448D01*
X0157607Y0143417D01*
X0157763Y0143381D01*
X0157919Y0143342D01*
X0158074Y0143299D01*
X0158228Y0143252D01*
X0158381Y0143201D01*
X0158532Y0143146D01*
X0158682Y0143088D01*
X0158830Y0143026D01*
X0158977Y0142960D01*
X0159122Y0142891D01*
X0159265Y0142818D01*
X0159407Y0142742D01*
X0159546Y0142662D01*
X0159684Y0142579D01*
X0159819Y0142492D01*
X0159953Y0142402D01*
X0160084Y0142309D01*
X0160212Y0142213D01*
X0160338Y0142113D01*
X0160462Y0142010D01*
X0160583Y0141905D01*
X0160702Y0141796D01*
X0160818Y0141685D01*
X0160931Y0141570D01*
X0161041Y0141453D01*
X0161148Y0141333D01*
X0161252Y0141211D01*
X0161353Y0141086D01*
X0161451Y0140958D01*
X0161546Y0140828D01*
X0161638Y0140696D01*
X0161726Y0140562D01*
X0161811Y0140425D01*
X0161893Y0140287D01*
X0161971Y0140146D01*
X0162045Y0140004D01*
X0162116Y0139860D01*
X0162184Y0139714D01*
X0162247Y0139566D01*
X0162308Y0139417D01*
X0162364Y0139266D01*
X0162417Y0139114D01*
X0162466Y0138961D01*
X0162511Y0138807D01*
X0162552Y0138652D01*
X0162590Y0138495D01*
X0162623Y0138338D01*
X0162653Y0138180D01*
X0162679Y0138021D01*
X0162700Y0137862D01*
X0162718Y0137702D01*
X0162732Y0137542D01*
X0162742Y0137381D01*
X0162748Y0137221D01*
X0162750Y0137060D01*
X0162748Y0136899D01*
X0162742Y0136739D01*
X0162732Y0136578D01*
X0162718Y0136418D01*
X0162700Y0136258D01*
X0162679Y0136099D01*
X0162653Y0135940D01*
X0162623Y0135782D01*
X0162590Y0135625D01*
X0162552Y0135468D01*
X0162511Y0135313D01*
X0162466Y0135159D01*
X0162417Y0135006D01*
X0162364Y0134854D01*
X0162308Y0134703D01*
X0162247Y0134554D01*
X0162184Y0134406D01*
X0162116Y0134260D01*
X0162045Y0134116D01*
X0161971Y0133974D01*
X0161893Y0133833D01*
X0161811Y0133695D01*
X0161726Y0133558D01*
X0161638Y0133424D01*
X0161546Y0133292D01*
X0161451Y0133162D01*
X0161353Y0133034D01*
X0161252Y0132909D01*
X0161148Y0132787D01*
X0161041Y0132667D01*
X0160931Y0132550D01*
X0160818Y0132435D01*
X0160702Y0132324D01*
X0160583Y0132215D01*
X0160462Y0132110D01*
X0160338Y0132007D01*
X0160212Y0131907D01*
X0160084Y0131811D01*
X0159953Y0131718D01*
X0159819Y0131628D01*
X0159684Y0131541D01*
X0159546Y0131458D01*
X0159407Y0131378D01*
X0159265Y0131302D01*
X0159122Y0131229D01*
X0158977Y0131160D01*
X0158830Y0131094D01*
X0158682Y0131032D01*
X0158532Y0130974D01*
X0158381Y0130919D01*
X0158228Y0130868D01*
X0158074Y0130821D01*
X0157919Y0130778D01*
X0157763Y0130739D01*
X0157607Y0130703D01*
X0157449Y0130672D01*
X0157291Y0130644D01*
X0157132Y0130620D01*
X0156972Y0130600D01*
X0156812Y0130584D01*
X0156652Y0130572D01*
X0156491Y0130564D01*
X0156330Y0130560D01*
X0156170Y0130560D01*
X0156009Y0130564D01*
X0155848Y0130572D01*
X0155688Y0130584D01*
X0155528Y0130600D01*
X0155368Y0130620D01*
X0155209Y0130644D01*
X0155051Y0130672D01*
X0154893Y0130703D01*
X0154737Y0130739D01*
X0154581Y0130778D01*
X0154426Y0130821D01*
X0154272Y0130868D01*
X0154119Y0130919D01*
X0153968Y0130974D01*
X0153818Y0131032D01*
X0153670Y0131094D01*
X0153523Y0131160D01*
X0153378Y0131229D01*
X0153235Y0131302D01*
X0153093Y0131378D01*
X0152954Y0131458D01*
X0152816Y0131541D01*
X0152681Y0131628D01*
X0152547Y0131718D01*
X0152416Y0131811D01*
X0152288Y0131907D01*
X0152162Y0132007D01*
X0152038Y0132110D01*
X0151917Y0132215D01*
X0151798Y0132324D01*
X0151682Y0132435D01*
X0151569Y0132550D01*
X0151459Y0132667D01*
X0151352Y0132787D01*
X0151248Y0132909D01*
X0151147Y0133034D01*
X0151049Y0133162D01*
X0150954Y0133292D01*
X0150862Y0133424D01*
X0150774Y0133558D01*
X0150689Y0133695D01*
X0150607Y0133833D01*
X0150529Y0133974D01*
X0150455Y0134116D01*
X0150384Y0134260D01*
X0150316Y0134406D01*
X0150253Y0134554D01*
X0150192Y0134703D01*
X0150136Y0134854D01*
X0150083Y0135006D01*
X0150034Y0135159D01*
X0149989Y0135313D01*
X0149948Y0135468D01*
X0149910Y0135625D01*
X0149877Y0135782D01*
X0149847Y0135940D01*
X0149821Y0136099D01*
X0149800Y0136258D01*
X0149782Y0136418D01*
X0149768Y0136578D01*
X0149758Y0136739D01*
X0149752Y0136899D01*
X0149750Y0137060D01*
X0199750Y0137060D02*
X0199752Y0137221D01*
X0199758Y0137381D01*
X0199768Y0137542D01*
X0199782Y0137702D01*
X0199800Y0137862D01*
X0199821Y0138021D01*
X0199847Y0138180D01*
X0199877Y0138338D01*
X0199910Y0138495D01*
X0199948Y0138652D01*
X0199989Y0138807D01*
X0200034Y0138961D01*
X0200083Y0139114D01*
X0200136Y0139266D01*
X0200192Y0139417D01*
X0200253Y0139566D01*
X0200316Y0139714D01*
X0200384Y0139860D01*
X0200455Y0140004D01*
X0200529Y0140146D01*
X0200607Y0140287D01*
X0200689Y0140425D01*
X0200774Y0140562D01*
X0200862Y0140696D01*
X0200954Y0140828D01*
X0201049Y0140958D01*
X0201147Y0141086D01*
X0201248Y0141211D01*
X0201352Y0141333D01*
X0201459Y0141453D01*
X0201569Y0141570D01*
X0201682Y0141685D01*
X0201798Y0141796D01*
X0201917Y0141905D01*
X0202038Y0142010D01*
X0202162Y0142113D01*
X0202288Y0142213D01*
X0202416Y0142309D01*
X0202547Y0142402D01*
X0202681Y0142492D01*
X0202816Y0142579D01*
X0202954Y0142662D01*
X0203093Y0142742D01*
X0203235Y0142818D01*
X0203378Y0142891D01*
X0203523Y0142960D01*
X0203670Y0143026D01*
X0203818Y0143088D01*
X0203968Y0143146D01*
X0204119Y0143201D01*
X0204272Y0143252D01*
X0204426Y0143299D01*
X0204581Y0143342D01*
X0204737Y0143381D01*
X0204893Y0143417D01*
X0205051Y0143448D01*
X0205209Y0143476D01*
X0205368Y0143500D01*
X0205528Y0143520D01*
X0205688Y0143536D01*
X0205848Y0143548D01*
X0206009Y0143556D01*
X0206170Y0143560D01*
X0206330Y0143560D01*
X0206491Y0143556D01*
X0206652Y0143548D01*
X0206812Y0143536D01*
X0206972Y0143520D01*
X0207132Y0143500D01*
X0207291Y0143476D01*
X0207449Y0143448D01*
X0207607Y0143417D01*
X0207763Y0143381D01*
X0207919Y0143342D01*
X0208074Y0143299D01*
X0208228Y0143252D01*
X0208381Y0143201D01*
X0208532Y0143146D01*
X0208682Y0143088D01*
X0208830Y0143026D01*
X0208977Y0142960D01*
X0209122Y0142891D01*
X0209265Y0142818D01*
X0209407Y0142742D01*
X0209546Y0142662D01*
X0209684Y0142579D01*
X0209819Y0142492D01*
X0209953Y0142402D01*
X0210084Y0142309D01*
X0210212Y0142213D01*
X0210338Y0142113D01*
X0210462Y0142010D01*
X0210583Y0141905D01*
X0210702Y0141796D01*
X0210818Y0141685D01*
X0210931Y0141570D01*
X0211041Y0141453D01*
X0211148Y0141333D01*
X0211252Y0141211D01*
X0211353Y0141086D01*
X0211451Y0140958D01*
X0211546Y0140828D01*
X0211638Y0140696D01*
X0211726Y0140562D01*
X0211811Y0140425D01*
X0211893Y0140287D01*
X0211971Y0140146D01*
X0212045Y0140004D01*
X0212116Y0139860D01*
X0212184Y0139714D01*
X0212247Y0139566D01*
X0212308Y0139417D01*
X0212364Y0139266D01*
X0212417Y0139114D01*
X0212466Y0138961D01*
X0212511Y0138807D01*
X0212552Y0138652D01*
X0212590Y0138495D01*
X0212623Y0138338D01*
X0212653Y0138180D01*
X0212679Y0138021D01*
X0212700Y0137862D01*
X0212718Y0137702D01*
X0212732Y0137542D01*
X0212742Y0137381D01*
X0212748Y0137221D01*
X0212750Y0137060D01*
X0212748Y0136899D01*
X0212742Y0136739D01*
X0212732Y0136578D01*
X0212718Y0136418D01*
X0212700Y0136258D01*
X0212679Y0136099D01*
X0212653Y0135940D01*
X0212623Y0135782D01*
X0212590Y0135625D01*
X0212552Y0135468D01*
X0212511Y0135313D01*
X0212466Y0135159D01*
X0212417Y0135006D01*
X0212364Y0134854D01*
X0212308Y0134703D01*
X0212247Y0134554D01*
X0212184Y0134406D01*
X0212116Y0134260D01*
X0212045Y0134116D01*
X0211971Y0133974D01*
X0211893Y0133833D01*
X0211811Y0133695D01*
X0211726Y0133558D01*
X0211638Y0133424D01*
X0211546Y0133292D01*
X0211451Y0133162D01*
X0211353Y0133034D01*
X0211252Y0132909D01*
X0211148Y0132787D01*
X0211041Y0132667D01*
X0210931Y0132550D01*
X0210818Y0132435D01*
X0210702Y0132324D01*
X0210583Y0132215D01*
X0210462Y0132110D01*
X0210338Y0132007D01*
X0210212Y0131907D01*
X0210084Y0131811D01*
X0209953Y0131718D01*
X0209819Y0131628D01*
X0209684Y0131541D01*
X0209546Y0131458D01*
X0209407Y0131378D01*
X0209265Y0131302D01*
X0209122Y0131229D01*
X0208977Y0131160D01*
X0208830Y0131094D01*
X0208682Y0131032D01*
X0208532Y0130974D01*
X0208381Y0130919D01*
X0208228Y0130868D01*
X0208074Y0130821D01*
X0207919Y0130778D01*
X0207763Y0130739D01*
X0207607Y0130703D01*
X0207449Y0130672D01*
X0207291Y0130644D01*
X0207132Y0130620D01*
X0206972Y0130600D01*
X0206812Y0130584D01*
X0206652Y0130572D01*
X0206491Y0130564D01*
X0206330Y0130560D01*
X0206170Y0130560D01*
X0206009Y0130564D01*
X0205848Y0130572D01*
X0205688Y0130584D01*
X0205528Y0130600D01*
X0205368Y0130620D01*
X0205209Y0130644D01*
X0205051Y0130672D01*
X0204893Y0130703D01*
X0204737Y0130739D01*
X0204581Y0130778D01*
X0204426Y0130821D01*
X0204272Y0130868D01*
X0204119Y0130919D01*
X0203968Y0130974D01*
X0203818Y0131032D01*
X0203670Y0131094D01*
X0203523Y0131160D01*
X0203378Y0131229D01*
X0203235Y0131302D01*
X0203093Y0131378D01*
X0202954Y0131458D01*
X0202816Y0131541D01*
X0202681Y0131628D01*
X0202547Y0131718D01*
X0202416Y0131811D01*
X0202288Y0131907D01*
X0202162Y0132007D01*
X0202038Y0132110D01*
X0201917Y0132215D01*
X0201798Y0132324D01*
X0201682Y0132435D01*
X0201569Y0132550D01*
X0201459Y0132667D01*
X0201352Y0132787D01*
X0201248Y0132909D01*
X0201147Y0133034D01*
X0201049Y0133162D01*
X0200954Y0133292D01*
X0200862Y0133424D01*
X0200774Y0133558D01*
X0200689Y0133695D01*
X0200607Y0133833D01*
X0200529Y0133974D01*
X0200455Y0134116D01*
X0200384Y0134260D01*
X0200316Y0134406D01*
X0200253Y0134554D01*
X0200192Y0134703D01*
X0200136Y0134854D01*
X0200083Y0135006D01*
X0200034Y0135159D01*
X0199989Y0135313D01*
X0199948Y0135468D01*
X0199910Y0135625D01*
X0199877Y0135782D01*
X0199847Y0135940D01*
X0199821Y0136099D01*
X0199800Y0136258D01*
X0199782Y0136418D01*
X0199768Y0136578D01*
X0199758Y0136739D01*
X0199752Y0136899D01*
X0199750Y0137060D01*
X0199750Y0065060D02*
X0199752Y0065221D01*
X0199758Y0065381D01*
X0199768Y0065542D01*
X0199782Y0065702D01*
X0199800Y0065862D01*
X0199821Y0066021D01*
X0199847Y0066180D01*
X0199877Y0066338D01*
X0199910Y0066495D01*
X0199948Y0066652D01*
X0199989Y0066807D01*
X0200034Y0066961D01*
X0200083Y0067114D01*
X0200136Y0067266D01*
X0200192Y0067417D01*
X0200253Y0067566D01*
X0200316Y0067714D01*
X0200384Y0067860D01*
X0200455Y0068004D01*
X0200529Y0068146D01*
X0200607Y0068287D01*
X0200689Y0068425D01*
X0200774Y0068562D01*
X0200862Y0068696D01*
X0200954Y0068828D01*
X0201049Y0068958D01*
X0201147Y0069086D01*
X0201248Y0069211D01*
X0201352Y0069333D01*
X0201459Y0069453D01*
X0201569Y0069570D01*
X0201682Y0069685D01*
X0201798Y0069796D01*
X0201917Y0069905D01*
X0202038Y0070010D01*
X0202162Y0070113D01*
X0202288Y0070213D01*
X0202416Y0070309D01*
X0202547Y0070402D01*
X0202681Y0070492D01*
X0202816Y0070579D01*
X0202954Y0070662D01*
X0203093Y0070742D01*
X0203235Y0070818D01*
X0203378Y0070891D01*
X0203523Y0070960D01*
X0203670Y0071026D01*
X0203818Y0071088D01*
X0203968Y0071146D01*
X0204119Y0071201D01*
X0204272Y0071252D01*
X0204426Y0071299D01*
X0204581Y0071342D01*
X0204737Y0071381D01*
X0204893Y0071417D01*
X0205051Y0071448D01*
X0205209Y0071476D01*
X0205368Y0071500D01*
X0205528Y0071520D01*
X0205688Y0071536D01*
X0205848Y0071548D01*
X0206009Y0071556D01*
X0206170Y0071560D01*
X0206330Y0071560D01*
X0206491Y0071556D01*
X0206652Y0071548D01*
X0206812Y0071536D01*
X0206972Y0071520D01*
X0207132Y0071500D01*
X0207291Y0071476D01*
X0207449Y0071448D01*
X0207607Y0071417D01*
X0207763Y0071381D01*
X0207919Y0071342D01*
X0208074Y0071299D01*
X0208228Y0071252D01*
X0208381Y0071201D01*
X0208532Y0071146D01*
X0208682Y0071088D01*
X0208830Y0071026D01*
X0208977Y0070960D01*
X0209122Y0070891D01*
X0209265Y0070818D01*
X0209407Y0070742D01*
X0209546Y0070662D01*
X0209684Y0070579D01*
X0209819Y0070492D01*
X0209953Y0070402D01*
X0210084Y0070309D01*
X0210212Y0070213D01*
X0210338Y0070113D01*
X0210462Y0070010D01*
X0210583Y0069905D01*
X0210702Y0069796D01*
X0210818Y0069685D01*
X0210931Y0069570D01*
X0211041Y0069453D01*
X0211148Y0069333D01*
X0211252Y0069211D01*
X0211353Y0069086D01*
X0211451Y0068958D01*
X0211546Y0068828D01*
X0211638Y0068696D01*
X0211726Y0068562D01*
X0211811Y0068425D01*
X0211893Y0068287D01*
X0211971Y0068146D01*
X0212045Y0068004D01*
X0212116Y0067860D01*
X0212184Y0067714D01*
X0212247Y0067566D01*
X0212308Y0067417D01*
X0212364Y0067266D01*
X0212417Y0067114D01*
X0212466Y0066961D01*
X0212511Y0066807D01*
X0212552Y0066652D01*
X0212590Y0066495D01*
X0212623Y0066338D01*
X0212653Y0066180D01*
X0212679Y0066021D01*
X0212700Y0065862D01*
X0212718Y0065702D01*
X0212732Y0065542D01*
X0212742Y0065381D01*
X0212748Y0065221D01*
X0212750Y0065060D01*
X0212748Y0064899D01*
X0212742Y0064739D01*
X0212732Y0064578D01*
X0212718Y0064418D01*
X0212700Y0064258D01*
X0212679Y0064099D01*
X0212653Y0063940D01*
X0212623Y0063782D01*
X0212590Y0063625D01*
X0212552Y0063468D01*
X0212511Y0063313D01*
X0212466Y0063159D01*
X0212417Y0063006D01*
X0212364Y0062854D01*
X0212308Y0062703D01*
X0212247Y0062554D01*
X0212184Y0062406D01*
X0212116Y0062260D01*
X0212045Y0062116D01*
X0211971Y0061974D01*
X0211893Y0061833D01*
X0211811Y0061695D01*
X0211726Y0061558D01*
X0211638Y0061424D01*
X0211546Y0061292D01*
X0211451Y0061162D01*
X0211353Y0061034D01*
X0211252Y0060909D01*
X0211148Y0060787D01*
X0211041Y0060667D01*
X0210931Y0060550D01*
X0210818Y0060435D01*
X0210702Y0060324D01*
X0210583Y0060215D01*
X0210462Y0060110D01*
X0210338Y0060007D01*
X0210212Y0059907D01*
X0210084Y0059811D01*
X0209953Y0059718D01*
X0209819Y0059628D01*
X0209684Y0059541D01*
X0209546Y0059458D01*
X0209407Y0059378D01*
X0209265Y0059302D01*
X0209122Y0059229D01*
X0208977Y0059160D01*
X0208830Y0059094D01*
X0208682Y0059032D01*
X0208532Y0058974D01*
X0208381Y0058919D01*
X0208228Y0058868D01*
X0208074Y0058821D01*
X0207919Y0058778D01*
X0207763Y0058739D01*
X0207607Y0058703D01*
X0207449Y0058672D01*
X0207291Y0058644D01*
X0207132Y0058620D01*
X0206972Y0058600D01*
X0206812Y0058584D01*
X0206652Y0058572D01*
X0206491Y0058564D01*
X0206330Y0058560D01*
X0206170Y0058560D01*
X0206009Y0058564D01*
X0205848Y0058572D01*
X0205688Y0058584D01*
X0205528Y0058600D01*
X0205368Y0058620D01*
X0205209Y0058644D01*
X0205051Y0058672D01*
X0204893Y0058703D01*
X0204737Y0058739D01*
X0204581Y0058778D01*
X0204426Y0058821D01*
X0204272Y0058868D01*
X0204119Y0058919D01*
X0203968Y0058974D01*
X0203818Y0059032D01*
X0203670Y0059094D01*
X0203523Y0059160D01*
X0203378Y0059229D01*
X0203235Y0059302D01*
X0203093Y0059378D01*
X0202954Y0059458D01*
X0202816Y0059541D01*
X0202681Y0059628D01*
X0202547Y0059718D01*
X0202416Y0059811D01*
X0202288Y0059907D01*
X0202162Y0060007D01*
X0202038Y0060110D01*
X0201917Y0060215D01*
X0201798Y0060324D01*
X0201682Y0060435D01*
X0201569Y0060550D01*
X0201459Y0060667D01*
X0201352Y0060787D01*
X0201248Y0060909D01*
X0201147Y0061034D01*
X0201049Y0061162D01*
X0200954Y0061292D01*
X0200862Y0061424D01*
X0200774Y0061558D01*
X0200689Y0061695D01*
X0200607Y0061833D01*
X0200529Y0061974D01*
X0200455Y0062116D01*
X0200384Y0062260D01*
X0200316Y0062406D01*
X0200253Y0062554D01*
X0200192Y0062703D01*
X0200136Y0062854D01*
X0200083Y0063006D01*
X0200034Y0063159D01*
X0199989Y0063313D01*
X0199948Y0063468D01*
X0199910Y0063625D01*
X0199877Y0063782D01*
X0199847Y0063940D01*
X0199821Y0064099D01*
X0199800Y0064258D01*
X0199782Y0064418D01*
X0199768Y0064578D01*
X0199758Y0064739D01*
X0199752Y0064899D01*
X0199750Y0065060D01*
X0149750Y0065060D02*
X0149752Y0065221D01*
X0149758Y0065381D01*
X0149768Y0065542D01*
X0149782Y0065702D01*
X0149800Y0065862D01*
X0149821Y0066021D01*
X0149847Y0066180D01*
X0149877Y0066338D01*
X0149910Y0066495D01*
X0149948Y0066652D01*
X0149989Y0066807D01*
X0150034Y0066961D01*
X0150083Y0067114D01*
X0150136Y0067266D01*
X0150192Y0067417D01*
X0150253Y0067566D01*
X0150316Y0067714D01*
X0150384Y0067860D01*
X0150455Y0068004D01*
X0150529Y0068146D01*
X0150607Y0068287D01*
X0150689Y0068425D01*
X0150774Y0068562D01*
X0150862Y0068696D01*
X0150954Y0068828D01*
X0151049Y0068958D01*
X0151147Y0069086D01*
X0151248Y0069211D01*
X0151352Y0069333D01*
X0151459Y0069453D01*
X0151569Y0069570D01*
X0151682Y0069685D01*
X0151798Y0069796D01*
X0151917Y0069905D01*
X0152038Y0070010D01*
X0152162Y0070113D01*
X0152288Y0070213D01*
X0152416Y0070309D01*
X0152547Y0070402D01*
X0152681Y0070492D01*
X0152816Y0070579D01*
X0152954Y0070662D01*
X0153093Y0070742D01*
X0153235Y0070818D01*
X0153378Y0070891D01*
X0153523Y0070960D01*
X0153670Y0071026D01*
X0153818Y0071088D01*
X0153968Y0071146D01*
X0154119Y0071201D01*
X0154272Y0071252D01*
X0154426Y0071299D01*
X0154581Y0071342D01*
X0154737Y0071381D01*
X0154893Y0071417D01*
X0155051Y0071448D01*
X0155209Y0071476D01*
X0155368Y0071500D01*
X0155528Y0071520D01*
X0155688Y0071536D01*
X0155848Y0071548D01*
X0156009Y0071556D01*
X0156170Y0071560D01*
X0156330Y0071560D01*
X0156491Y0071556D01*
X0156652Y0071548D01*
X0156812Y0071536D01*
X0156972Y0071520D01*
X0157132Y0071500D01*
X0157291Y0071476D01*
X0157449Y0071448D01*
X0157607Y0071417D01*
X0157763Y0071381D01*
X0157919Y0071342D01*
X0158074Y0071299D01*
X0158228Y0071252D01*
X0158381Y0071201D01*
X0158532Y0071146D01*
X0158682Y0071088D01*
X0158830Y0071026D01*
X0158977Y0070960D01*
X0159122Y0070891D01*
X0159265Y0070818D01*
X0159407Y0070742D01*
X0159546Y0070662D01*
X0159684Y0070579D01*
X0159819Y0070492D01*
X0159953Y0070402D01*
X0160084Y0070309D01*
X0160212Y0070213D01*
X0160338Y0070113D01*
X0160462Y0070010D01*
X0160583Y0069905D01*
X0160702Y0069796D01*
X0160818Y0069685D01*
X0160931Y0069570D01*
X0161041Y0069453D01*
X0161148Y0069333D01*
X0161252Y0069211D01*
X0161353Y0069086D01*
X0161451Y0068958D01*
X0161546Y0068828D01*
X0161638Y0068696D01*
X0161726Y0068562D01*
X0161811Y0068425D01*
X0161893Y0068287D01*
X0161971Y0068146D01*
X0162045Y0068004D01*
X0162116Y0067860D01*
X0162184Y0067714D01*
X0162247Y0067566D01*
X0162308Y0067417D01*
X0162364Y0067266D01*
X0162417Y0067114D01*
X0162466Y0066961D01*
X0162511Y0066807D01*
X0162552Y0066652D01*
X0162590Y0066495D01*
X0162623Y0066338D01*
X0162653Y0066180D01*
X0162679Y0066021D01*
X0162700Y0065862D01*
X0162718Y0065702D01*
X0162732Y0065542D01*
X0162742Y0065381D01*
X0162748Y0065221D01*
X0162750Y0065060D01*
X0162748Y0064899D01*
X0162742Y0064739D01*
X0162732Y0064578D01*
X0162718Y0064418D01*
X0162700Y0064258D01*
X0162679Y0064099D01*
X0162653Y0063940D01*
X0162623Y0063782D01*
X0162590Y0063625D01*
X0162552Y0063468D01*
X0162511Y0063313D01*
X0162466Y0063159D01*
X0162417Y0063006D01*
X0162364Y0062854D01*
X0162308Y0062703D01*
X0162247Y0062554D01*
X0162184Y0062406D01*
X0162116Y0062260D01*
X0162045Y0062116D01*
X0161971Y0061974D01*
X0161893Y0061833D01*
X0161811Y0061695D01*
X0161726Y0061558D01*
X0161638Y0061424D01*
X0161546Y0061292D01*
X0161451Y0061162D01*
X0161353Y0061034D01*
X0161252Y0060909D01*
X0161148Y0060787D01*
X0161041Y0060667D01*
X0160931Y0060550D01*
X0160818Y0060435D01*
X0160702Y0060324D01*
X0160583Y0060215D01*
X0160462Y0060110D01*
X0160338Y0060007D01*
X0160212Y0059907D01*
X0160084Y0059811D01*
X0159953Y0059718D01*
X0159819Y0059628D01*
X0159684Y0059541D01*
X0159546Y0059458D01*
X0159407Y0059378D01*
X0159265Y0059302D01*
X0159122Y0059229D01*
X0158977Y0059160D01*
X0158830Y0059094D01*
X0158682Y0059032D01*
X0158532Y0058974D01*
X0158381Y0058919D01*
X0158228Y0058868D01*
X0158074Y0058821D01*
X0157919Y0058778D01*
X0157763Y0058739D01*
X0157607Y0058703D01*
X0157449Y0058672D01*
X0157291Y0058644D01*
X0157132Y0058620D01*
X0156972Y0058600D01*
X0156812Y0058584D01*
X0156652Y0058572D01*
X0156491Y0058564D01*
X0156330Y0058560D01*
X0156170Y0058560D01*
X0156009Y0058564D01*
X0155848Y0058572D01*
X0155688Y0058584D01*
X0155528Y0058600D01*
X0155368Y0058620D01*
X0155209Y0058644D01*
X0155051Y0058672D01*
X0154893Y0058703D01*
X0154737Y0058739D01*
X0154581Y0058778D01*
X0154426Y0058821D01*
X0154272Y0058868D01*
X0154119Y0058919D01*
X0153968Y0058974D01*
X0153818Y0059032D01*
X0153670Y0059094D01*
X0153523Y0059160D01*
X0153378Y0059229D01*
X0153235Y0059302D01*
X0153093Y0059378D01*
X0152954Y0059458D01*
X0152816Y0059541D01*
X0152681Y0059628D01*
X0152547Y0059718D01*
X0152416Y0059811D01*
X0152288Y0059907D01*
X0152162Y0060007D01*
X0152038Y0060110D01*
X0151917Y0060215D01*
X0151798Y0060324D01*
X0151682Y0060435D01*
X0151569Y0060550D01*
X0151459Y0060667D01*
X0151352Y0060787D01*
X0151248Y0060909D01*
X0151147Y0061034D01*
X0151049Y0061162D01*
X0150954Y0061292D01*
X0150862Y0061424D01*
X0150774Y0061558D01*
X0150689Y0061695D01*
X0150607Y0061833D01*
X0150529Y0061974D01*
X0150455Y0062116D01*
X0150384Y0062260D01*
X0150316Y0062406D01*
X0150253Y0062554D01*
X0150192Y0062703D01*
X0150136Y0062854D01*
X0150083Y0063006D01*
X0150034Y0063159D01*
X0149989Y0063313D01*
X0149948Y0063468D01*
X0149910Y0063625D01*
X0149877Y0063782D01*
X0149847Y0063940D01*
X0149821Y0064099D01*
X0149800Y0064258D01*
X0149782Y0064418D01*
X0149768Y0064578D01*
X0149758Y0064739D01*
X0149752Y0064899D01*
X0149750Y0065060D01*
X0127750Y0065060D02*
X0127752Y0065221D01*
X0127758Y0065381D01*
X0127768Y0065542D01*
X0127782Y0065702D01*
X0127800Y0065862D01*
X0127821Y0066021D01*
X0127847Y0066180D01*
X0127877Y0066338D01*
X0127910Y0066495D01*
X0127948Y0066652D01*
X0127989Y0066807D01*
X0128034Y0066961D01*
X0128083Y0067114D01*
X0128136Y0067266D01*
X0128192Y0067417D01*
X0128253Y0067566D01*
X0128316Y0067714D01*
X0128384Y0067860D01*
X0128455Y0068004D01*
X0128529Y0068146D01*
X0128607Y0068287D01*
X0128689Y0068425D01*
X0128774Y0068562D01*
X0128862Y0068696D01*
X0128954Y0068828D01*
X0129049Y0068958D01*
X0129147Y0069086D01*
X0129248Y0069211D01*
X0129352Y0069333D01*
X0129459Y0069453D01*
X0129569Y0069570D01*
X0129682Y0069685D01*
X0129798Y0069796D01*
X0129917Y0069905D01*
X0130038Y0070010D01*
X0130162Y0070113D01*
X0130288Y0070213D01*
X0130416Y0070309D01*
X0130547Y0070402D01*
X0130681Y0070492D01*
X0130816Y0070579D01*
X0130954Y0070662D01*
X0131093Y0070742D01*
X0131235Y0070818D01*
X0131378Y0070891D01*
X0131523Y0070960D01*
X0131670Y0071026D01*
X0131818Y0071088D01*
X0131968Y0071146D01*
X0132119Y0071201D01*
X0132272Y0071252D01*
X0132426Y0071299D01*
X0132581Y0071342D01*
X0132737Y0071381D01*
X0132893Y0071417D01*
X0133051Y0071448D01*
X0133209Y0071476D01*
X0133368Y0071500D01*
X0133528Y0071520D01*
X0133688Y0071536D01*
X0133848Y0071548D01*
X0134009Y0071556D01*
X0134170Y0071560D01*
X0134330Y0071560D01*
X0134491Y0071556D01*
X0134652Y0071548D01*
X0134812Y0071536D01*
X0134972Y0071520D01*
X0135132Y0071500D01*
X0135291Y0071476D01*
X0135449Y0071448D01*
X0135607Y0071417D01*
X0135763Y0071381D01*
X0135919Y0071342D01*
X0136074Y0071299D01*
X0136228Y0071252D01*
X0136381Y0071201D01*
X0136532Y0071146D01*
X0136682Y0071088D01*
X0136830Y0071026D01*
X0136977Y0070960D01*
X0137122Y0070891D01*
X0137265Y0070818D01*
X0137407Y0070742D01*
X0137546Y0070662D01*
X0137684Y0070579D01*
X0137819Y0070492D01*
X0137953Y0070402D01*
X0138084Y0070309D01*
X0138212Y0070213D01*
X0138338Y0070113D01*
X0138462Y0070010D01*
X0138583Y0069905D01*
X0138702Y0069796D01*
X0138818Y0069685D01*
X0138931Y0069570D01*
X0139041Y0069453D01*
X0139148Y0069333D01*
X0139252Y0069211D01*
X0139353Y0069086D01*
X0139451Y0068958D01*
X0139546Y0068828D01*
X0139638Y0068696D01*
X0139726Y0068562D01*
X0139811Y0068425D01*
X0139893Y0068287D01*
X0139971Y0068146D01*
X0140045Y0068004D01*
X0140116Y0067860D01*
X0140184Y0067714D01*
X0140247Y0067566D01*
X0140308Y0067417D01*
X0140364Y0067266D01*
X0140417Y0067114D01*
X0140466Y0066961D01*
X0140511Y0066807D01*
X0140552Y0066652D01*
X0140590Y0066495D01*
X0140623Y0066338D01*
X0140653Y0066180D01*
X0140679Y0066021D01*
X0140700Y0065862D01*
X0140718Y0065702D01*
X0140732Y0065542D01*
X0140742Y0065381D01*
X0140748Y0065221D01*
X0140750Y0065060D01*
X0140748Y0064899D01*
X0140742Y0064739D01*
X0140732Y0064578D01*
X0140718Y0064418D01*
X0140700Y0064258D01*
X0140679Y0064099D01*
X0140653Y0063940D01*
X0140623Y0063782D01*
X0140590Y0063625D01*
X0140552Y0063468D01*
X0140511Y0063313D01*
X0140466Y0063159D01*
X0140417Y0063006D01*
X0140364Y0062854D01*
X0140308Y0062703D01*
X0140247Y0062554D01*
X0140184Y0062406D01*
X0140116Y0062260D01*
X0140045Y0062116D01*
X0139971Y0061974D01*
X0139893Y0061833D01*
X0139811Y0061695D01*
X0139726Y0061558D01*
X0139638Y0061424D01*
X0139546Y0061292D01*
X0139451Y0061162D01*
X0139353Y0061034D01*
X0139252Y0060909D01*
X0139148Y0060787D01*
X0139041Y0060667D01*
X0138931Y0060550D01*
X0138818Y0060435D01*
X0138702Y0060324D01*
X0138583Y0060215D01*
X0138462Y0060110D01*
X0138338Y0060007D01*
X0138212Y0059907D01*
X0138084Y0059811D01*
X0137953Y0059718D01*
X0137819Y0059628D01*
X0137684Y0059541D01*
X0137546Y0059458D01*
X0137407Y0059378D01*
X0137265Y0059302D01*
X0137122Y0059229D01*
X0136977Y0059160D01*
X0136830Y0059094D01*
X0136682Y0059032D01*
X0136532Y0058974D01*
X0136381Y0058919D01*
X0136228Y0058868D01*
X0136074Y0058821D01*
X0135919Y0058778D01*
X0135763Y0058739D01*
X0135607Y0058703D01*
X0135449Y0058672D01*
X0135291Y0058644D01*
X0135132Y0058620D01*
X0134972Y0058600D01*
X0134812Y0058584D01*
X0134652Y0058572D01*
X0134491Y0058564D01*
X0134330Y0058560D01*
X0134170Y0058560D01*
X0134009Y0058564D01*
X0133848Y0058572D01*
X0133688Y0058584D01*
X0133528Y0058600D01*
X0133368Y0058620D01*
X0133209Y0058644D01*
X0133051Y0058672D01*
X0132893Y0058703D01*
X0132737Y0058739D01*
X0132581Y0058778D01*
X0132426Y0058821D01*
X0132272Y0058868D01*
X0132119Y0058919D01*
X0131968Y0058974D01*
X0131818Y0059032D01*
X0131670Y0059094D01*
X0131523Y0059160D01*
X0131378Y0059229D01*
X0131235Y0059302D01*
X0131093Y0059378D01*
X0130954Y0059458D01*
X0130816Y0059541D01*
X0130681Y0059628D01*
X0130547Y0059718D01*
X0130416Y0059811D01*
X0130288Y0059907D01*
X0130162Y0060007D01*
X0130038Y0060110D01*
X0129917Y0060215D01*
X0129798Y0060324D01*
X0129682Y0060435D01*
X0129569Y0060550D01*
X0129459Y0060667D01*
X0129352Y0060787D01*
X0129248Y0060909D01*
X0129147Y0061034D01*
X0129049Y0061162D01*
X0128954Y0061292D01*
X0128862Y0061424D01*
X0128774Y0061558D01*
X0128689Y0061695D01*
X0128607Y0061833D01*
X0128529Y0061974D01*
X0128455Y0062116D01*
X0128384Y0062260D01*
X0128316Y0062406D01*
X0128253Y0062554D01*
X0128192Y0062703D01*
X0128136Y0062854D01*
X0128083Y0063006D01*
X0128034Y0063159D01*
X0127989Y0063313D01*
X0127948Y0063468D01*
X0127910Y0063625D01*
X0127877Y0063782D01*
X0127847Y0063940D01*
X0127821Y0064099D01*
X0127800Y0064258D01*
X0127782Y0064418D01*
X0127768Y0064578D01*
X0127758Y0064739D01*
X0127752Y0064899D01*
X0127750Y0065060D01*
X0077750Y0065060D02*
X0077752Y0065221D01*
X0077758Y0065381D01*
X0077768Y0065542D01*
X0077782Y0065702D01*
X0077800Y0065862D01*
X0077821Y0066021D01*
X0077847Y0066180D01*
X0077877Y0066338D01*
X0077910Y0066495D01*
X0077948Y0066652D01*
X0077989Y0066807D01*
X0078034Y0066961D01*
X0078083Y0067114D01*
X0078136Y0067266D01*
X0078192Y0067417D01*
X0078253Y0067566D01*
X0078316Y0067714D01*
X0078384Y0067860D01*
X0078455Y0068004D01*
X0078529Y0068146D01*
X0078607Y0068287D01*
X0078689Y0068425D01*
X0078774Y0068562D01*
X0078862Y0068696D01*
X0078954Y0068828D01*
X0079049Y0068958D01*
X0079147Y0069086D01*
X0079248Y0069211D01*
X0079352Y0069333D01*
X0079459Y0069453D01*
X0079569Y0069570D01*
X0079682Y0069685D01*
X0079798Y0069796D01*
X0079917Y0069905D01*
X0080038Y0070010D01*
X0080162Y0070113D01*
X0080288Y0070213D01*
X0080416Y0070309D01*
X0080547Y0070402D01*
X0080681Y0070492D01*
X0080816Y0070579D01*
X0080954Y0070662D01*
X0081093Y0070742D01*
X0081235Y0070818D01*
X0081378Y0070891D01*
X0081523Y0070960D01*
X0081670Y0071026D01*
X0081818Y0071088D01*
X0081968Y0071146D01*
X0082119Y0071201D01*
X0082272Y0071252D01*
X0082426Y0071299D01*
X0082581Y0071342D01*
X0082737Y0071381D01*
X0082893Y0071417D01*
X0083051Y0071448D01*
X0083209Y0071476D01*
X0083368Y0071500D01*
X0083528Y0071520D01*
X0083688Y0071536D01*
X0083848Y0071548D01*
X0084009Y0071556D01*
X0084170Y0071560D01*
X0084330Y0071560D01*
X0084491Y0071556D01*
X0084652Y0071548D01*
X0084812Y0071536D01*
X0084972Y0071520D01*
X0085132Y0071500D01*
X0085291Y0071476D01*
X0085449Y0071448D01*
X0085607Y0071417D01*
X0085763Y0071381D01*
X0085919Y0071342D01*
X0086074Y0071299D01*
X0086228Y0071252D01*
X0086381Y0071201D01*
X0086532Y0071146D01*
X0086682Y0071088D01*
X0086830Y0071026D01*
X0086977Y0070960D01*
X0087122Y0070891D01*
X0087265Y0070818D01*
X0087407Y0070742D01*
X0087546Y0070662D01*
X0087684Y0070579D01*
X0087819Y0070492D01*
X0087953Y0070402D01*
X0088084Y0070309D01*
X0088212Y0070213D01*
X0088338Y0070113D01*
X0088462Y0070010D01*
X0088583Y0069905D01*
X0088702Y0069796D01*
X0088818Y0069685D01*
X0088931Y0069570D01*
X0089041Y0069453D01*
X0089148Y0069333D01*
X0089252Y0069211D01*
X0089353Y0069086D01*
X0089451Y0068958D01*
X0089546Y0068828D01*
X0089638Y0068696D01*
X0089726Y0068562D01*
X0089811Y0068425D01*
X0089893Y0068287D01*
X0089971Y0068146D01*
X0090045Y0068004D01*
X0090116Y0067860D01*
X0090184Y0067714D01*
X0090247Y0067566D01*
X0090308Y0067417D01*
X0090364Y0067266D01*
X0090417Y0067114D01*
X0090466Y0066961D01*
X0090511Y0066807D01*
X0090552Y0066652D01*
X0090590Y0066495D01*
X0090623Y0066338D01*
X0090653Y0066180D01*
X0090679Y0066021D01*
X0090700Y0065862D01*
X0090718Y0065702D01*
X0090732Y0065542D01*
X0090742Y0065381D01*
X0090748Y0065221D01*
X0090750Y0065060D01*
X0090748Y0064899D01*
X0090742Y0064739D01*
X0090732Y0064578D01*
X0090718Y0064418D01*
X0090700Y0064258D01*
X0090679Y0064099D01*
X0090653Y0063940D01*
X0090623Y0063782D01*
X0090590Y0063625D01*
X0090552Y0063468D01*
X0090511Y0063313D01*
X0090466Y0063159D01*
X0090417Y0063006D01*
X0090364Y0062854D01*
X0090308Y0062703D01*
X0090247Y0062554D01*
X0090184Y0062406D01*
X0090116Y0062260D01*
X0090045Y0062116D01*
X0089971Y0061974D01*
X0089893Y0061833D01*
X0089811Y0061695D01*
X0089726Y0061558D01*
X0089638Y0061424D01*
X0089546Y0061292D01*
X0089451Y0061162D01*
X0089353Y0061034D01*
X0089252Y0060909D01*
X0089148Y0060787D01*
X0089041Y0060667D01*
X0088931Y0060550D01*
X0088818Y0060435D01*
X0088702Y0060324D01*
X0088583Y0060215D01*
X0088462Y0060110D01*
X0088338Y0060007D01*
X0088212Y0059907D01*
X0088084Y0059811D01*
X0087953Y0059718D01*
X0087819Y0059628D01*
X0087684Y0059541D01*
X0087546Y0059458D01*
X0087407Y0059378D01*
X0087265Y0059302D01*
X0087122Y0059229D01*
X0086977Y0059160D01*
X0086830Y0059094D01*
X0086682Y0059032D01*
X0086532Y0058974D01*
X0086381Y0058919D01*
X0086228Y0058868D01*
X0086074Y0058821D01*
X0085919Y0058778D01*
X0085763Y0058739D01*
X0085607Y0058703D01*
X0085449Y0058672D01*
X0085291Y0058644D01*
X0085132Y0058620D01*
X0084972Y0058600D01*
X0084812Y0058584D01*
X0084652Y0058572D01*
X0084491Y0058564D01*
X0084330Y0058560D01*
X0084170Y0058560D01*
X0084009Y0058564D01*
X0083848Y0058572D01*
X0083688Y0058584D01*
X0083528Y0058600D01*
X0083368Y0058620D01*
X0083209Y0058644D01*
X0083051Y0058672D01*
X0082893Y0058703D01*
X0082737Y0058739D01*
X0082581Y0058778D01*
X0082426Y0058821D01*
X0082272Y0058868D01*
X0082119Y0058919D01*
X0081968Y0058974D01*
X0081818Y0059032D01*
X0081670Y0059094D01*
X0081523Y0059160D01*
X0081378Y0059229D01*
X0081235Y0059302D01*
X0081093Y0059378D01*
X0080954Y0059458D01*
X0080816Y0059541D01*
X0080681Y0059628D01*
X0080547Y0059718D01*
X0080416Y0059811D01*
X0080288Y0059907D01*
X0080162Y0060007D01*
X0080038Y0060110D01*
X0079917Y0060215D01*
X0079798Y0060324D01*
X0079682Y0060435D01*
X0079569Y0060550D01*
X0079459Y0060667D01*
X0079352Y0060787D01*
X0079248Y0060909D01*
X0079147Y0061034D01*
X0079049Y0061162D01*
X0078954Y0061292D01*
X0078862Y0061424D01*
X0078774Y0061558D01*
X0078689Y0061695D01*
X0078607Y0061833D01*
X0078529Y0061974D01*
X0078455Y0062116D01*
X0078384Y0062260D01*
X0078316Y0062406D01*
X0078253Y0062554D01*
X0078192Y0062703D01*
X0078136Y0062854D01*
X0078083Y0063006D01*
X0078034Y0063159D01*
X0077989Y0063313D01*
X0077948Y0063468D01*
X0077910Y0063625D01*
X0077877Y0063782D01*
X0077847Y0063940D01*
X0077821Y0064099D01*
X0077800Y0064258D01*
X0077782Y0064418D01*
X0077768Y0064578D01*
X0077758Y0064739D01*
X0077752Y0064899D01*
X0077750Y0065060D01*
X0055750Y0065060D02*
X0055752Y0065221D01*
X0055758Y0065381D01*
X0055768Y0065542D01*
X0055782Y0065702D01*
X0055800Y0065862D01*
X0055821Y0066021D01*
X0055847Y0066180D01*
X0055877Y0066338D01*
X0055910Y0066495D01*
X0055948Y0066652D01*
X0055989Y0066807D01*
X0056034Y0066961D01*
X0056083Y0067114D01*
X0056136Y0067266D01*
X0056192Y0067417D01*
X0056253Y0067566D01*
X0056316Y0067714D01*
X0056384Y0067860D01*
X0056455Y0068004D01*
X0056529Y0068146D01*
X0056607Y0068287D01*
X0056689Y0068425D01*
X0056774Y0068562D01*
X0056862Y0068696D01*
X0056954Y0068828D01*
X0057049Y0068958D01*
X0057147Y0069086D01*
X0057248Y0069211D01*
X0057352Y0069333D01*
X0057459Y0069453D01*
X0057569Y0069570D01*
X0057682Y0069685D01*
X0057798Y0069796D01*
X0057917Y0069905D01*
X0058038Y0070010D01*
X0058162Y0070113D01*
X0058288Y0070213D01*
X0058416Y0070309D01*
X0058547Y0070402D01*
X0058681Y0070492D01*
X0058816Y0070579D01*
X0058954Y0070662D01*
X0059093Y0070742D01*
X0059235Y0070818D01*
X0059378Y0070891D01*
X0059523Y0070960D01*
X0059670Y0071026D01*
X0059818Y0071088D01*
X0059968Y0071146D01*
X0060119Y0071201D01*
X0060272Y0071252D01*
X0060426Y0071299D01*
X0060581Y0071342D01*
X0060737Y0071381D01*
X0060893Y0071417D01*
X0061051Y0071448D01*
X0061209Y0071476D01*
X0061368Y0071500D01*
X0061528Y0071520D01*
X0061688Y0071536D01*
X0061848Y0071548D01*
X0062009Y0071556D01*
X0062170Y0071560D01*
X0062330Y0071560D01*
X0062491Y0071556D01*
X0062652Y0071548D01*
X0062812Y0071536D01*
X0062972Y0071520D01*
X0063132Y0071500D01*
X0063291Y0071476D01*
X0063449Y0071448D01*
X0063607Y0071417D01*
X0063763Y0071381D01*
X0063919Y0071342D01*
X0064074Y0071299D01*
X0064228Y0071252D01*
X0064381Y0071201D01*
X0064532Y0071146D01*
X0064682Y0071088D01*
X0064830Y0071026D01*
X0064977Y0070960D01*
X0065122Y0070891D01*
X0065265Y0070818D01*
X0065407Y0070742D01*
X0065546Y0070662D01*
X0065684Y0070579D01*
X0065819Y0070492D01*
X0065953Y0070402D01*
X0066084Y0070309D01*
X0066212Y0070213D01*
X0066338Y0070113D01*
X0066462Y0070010D01*
X0066583Y0069905D01*
X0066702Y0069796D01*
X0066818Y0069685D01*
X0066931Y0069570D01*
X0067041Y0069453D01*
X0067148Y0069333D01*
X0067252Y0069211D01*
X0067353Y0069086D01*
X0067451Y0068958D01*
X0067546Y0068828D01*
X0067638Y0068696D01*
X0067726Y0068562D01*
X0067811Y0068425D01*
X0067893Y0068287D01*
X0067971Y0068146D01*
X0068045Y0068004D01*
X0068116Y0067860D01*
X0068184Y0067714D01*
X0068247Y0067566D01*
X0068308Y0067417D01*
X0068364Y0067266D01*
X0068417Y0067114D01*
X0068466Y0066961D01*
X0068511Y0066807D01*
X0068552Y0066652D01*
X0068590Y0066495D01*
X0068623Y0066338D01*
X0068653Y0066180D01*
X0068679Y0066021D01*
X0068700Y0065862D01*
X0068718Y0065702D01*
X0068732Y0065542D01*
X0068742Y0065381D01*
X0068748Y0065221D01*
X0068750Y0065060D01*
X0068748Y0064899D01*
X0068742Y0064739D01*
X0068732Y0064578D01*
X0068718Y0064418D01*
X0068700Y0064258D01*
X0068679Y0064099D01*
X0068653Y0063940D01*
X0068623Y0063782D01*
X0068590Y0063625D01*
X0068552Y0063468D01*
X0068511Y0063313D01*
X0068466Y0063159D01*
X0068417Y0063006D01*
X0068364Y0062854D01*
X0068308Y0062703D01*
X0068247Y0062554D01*
X0068184Y0062406D01*
X0068116Y0062260D01*
X0068045Y0062116D01*
X0067971Y0061974D01*
X0067893Y0061833D01*
X0067811Y0061695D01*
X0067726Y0061558D01*
X0067638Y0061424D01*
X0067546Y0061292D01*
X0067451Y0061162D01*
X0067353Y0061034D01*
X0067252Y0060909D01*
X0067148Y0060787D01*
X0067041Y0060667D01*
X0066931Y0060550D01*
X0066818Y0060435D01*
X0066702Y0060324D01*
X0066583Y0060215D01*
X0066462Y0060110D01*
X0066338Y0060007D01*
X0066212Y0059907D01*
X0066084Y0059811D01*
X0065953Y0059718D01*
X0065819Y0059628D01*
X0065684Y0059541D01*
X0065546Y0059458D01*
X0065407Y0059378D01*
X0065265Y0059302D01*
X0065122Y0059229D01*
X0064977Y0059160D01*
X0064830Y0059094D01*
X0064682Y0059032D01*
X0064532Y0058974D01*
X0064381Y0058919D01*
X0064228Y0058868D01*
X0064074Y0058821D01*
X0063919Y0058778D01*
X0063763Y0058739D01*
X0063607Y0058703D01*
X0063449Y0058672D01*
X0063291Y0058644D01*
X0063132Y0058620D01*
X0062972Y0058600D01*
X0062812Y0058584D01*
X0062652Y0058572D01*
X0062491Y0058564D01*
X0062330Y0058560D01*
X0062170Y0058560D01*
X0062009Y0058564D01*
X0061848Y0058572D01*
X0061688Y0058584D01*
X0061528Y0058600D01*
X0061368Y0058620D01*
X0061209Y0058644D01*
X0061051Y0058672D01*
X0060893Y0058703D01*
X0060737Y0058739D01*
X0060581Y0058778D01*
X0060426Y0058821D01*
X0060272Y0058868D01*
X0060119Y0058919D01*
X0059968Y0058974D01*
X0059818Y0059032D01*
X0059670Y0059094D01*
X0059523Y0059160D01*
X0059378Y0059229D01*
X0059235Y0059302D01*
X0059093Y0059378D01*
X0058954Y0059458D01*
X0058816Y0059541D01*
X0058681Y0059628D01*
X0058547Y0059718D01*
X0058416Y0059811D01*
X0058288Y0059907D01*
X0058162Y0060007D01*
X0058038Y0060110D01*
X0057917Y0060215D01*
X0057798Y0060324D01*
X0057682Y0060435D01*
X0057569Y0060550D01*
X0057459Y0060667D01*
X0057352Y0060787D01*
X0057248Y0060909D01*
X0057147Y0061034D01*
X0057049Y0061162D01*
X0056954Y0061292D01*
X0056862Y0061424D01*
X0056774Y0061558D01*
X0056689Y0061695D01*
X0056607Y0061833D01*
X0056529Y0061974D01*
X0056455Y0062116D01*
X0056384Y0062260D01*
X0056316Y0062406D01*
X0056253Y0062554D01*
X0056192Y0062703D01*
X0056136Y0062854D01*
X0056083Y0063006D01*
X0056034Y0063159D01*
X0055989Y0063313D01*
X0055948Y0063468D01*
X0055910Y0063625D01*
X0055877Y0063782D01*
X0055847Y0063940D01*
X0055821Y0064099D01*
X0055800Y0064258D01*
X0055782Y0064418D01*
X0055768Y0064578D01*
X0055758Y0064739D01*
X0055752Y0064899D01*
X0055750Y0065060D01*
X0005750Y0065060D02*
X0005752Y0065221D01*
X0005758Y0065381D01*
X0005768Y0065542D01*
X0005782Y0065702D01*
X0005800Y0065862D01*
X0005821Y0066021D01*
X0005847Y0066180D01*
X0005877Y0066338D01*
X0005910Y0066495D01*
X0005948Y0066652D01*
X0005989Y0066807D01*
X0006034Y0066961D01*
X0006083Y0067114D01*
X0006136Y0067266D01*
X0006192Y0067417D01*
X0006253Y0067566D01*
X0006316Y0067714D01*
X0006384Y0067860D01*
X0006455Y0068004D01*
X0006529Y0068146D01*
X0006607Y0068287D01*
X0006689Y0068425D01*
X0006774Y0068562D01*
X0006862Y0068696D01*
X0006954Y0068828D01*
X0007049Y0068958D01*
X0007147Y0069086D01*
X0007248Y0069211D01*
X0007352Y0069333D01*
X0007459Y0069453D01*
X0007569Y0069570D01*
X0007682Y0069685D01*
X0007798Y0069796D01*
X0007917Y0069905D01*
X0008038Y0070010D01*
X0008162Y0070113D01*
X0008288Y0070213D01*
X0008416Y0070309D01*
X0008547Y0070402D01*
X0008681Y0070492D01*
X0008816Y0070579D01*
X0008954Y0070662D01*
X0009093Y0070742D01*
X0009235Y0070818D01*
X0009378Y0070891D01*
X0009523Y0070960D01*
X0009670Y0071026D01*
X0009818Y0071088D01*
X0009968Y0071146D01*
X0010119Y0071201D01*
X0010272Y0071252D01*
X0010426Y0071299D01*
X0010581Y0071342D01*
X0010737Y0071381D01*
X0010893Y0071417D01*
X0011051Y0071448D01*
X0011209Y0071476D01*
X0011368Y0071500D01*
X0011528Y0071520D01*
X0011688Y0071536D01*
X0011848Y0071548D01*
X0012009Y0071556D01*
X0012170Y0071560D01*
X0012330Y0071560D01*
X0012491Y0071556D01*
X0012652Y0071548D01*
X0012812Y0071536D01*
X0012972Y0071520D01*
X0013132Y0071500D01*
X0013291Y0071476D01*
X0013449Y0071448D01*
X0013607Y0071417D01*
X0013763Y0071381D01*
X0013919Y0071342D01*
X0014074Y0071299D01*
X0014228Y0071252D01*
X0014381Y0071201D01*
X0014532Y0071146D01*
X0014682Y0071088D01*
X0014830Y0071026D01*
X0014977Y0070960D01*
X0015122Y0070891D01*
X0015265Y0070818D01*
X0015407Y0070742D01*
X0015546Y0070662D01*
X0015684Y0070579D01*
X0015819Y0070492D01*
X0015953Y0070402D01*
X0016084Y0070309D01*
X0016212Y0070213D01*
X0016338Y0070113D01*
X0016462Y0070010D01*
X0016583Y0069905D01*
X0016702Y0069796D01*
X0016818Y0069685D01*
X0016931Y0069570D01*
X0017041Y0069453D01*
X0017148Y0069333D01*
X0017252Y0069211D01*
X0017353Y0069086D01*
X0017451Y0068958D01*
X0017546Y0068828D01*
X0017638Y0068696D01*
X0017726Y0068562D01*
X0017811Y0068425D01*
X0017893Y0068287D01*
X0017971Y0068146D01*
X0018045Y0068004D01*
X0018116Y0067860D01*
X0018184Y0067714D01*
X0018247Y0067566D01*
X0018308Y0067417D01*
X0018364Y0067266D01*
X0018417Y0067114D01*
X0018466Y0066961D01*
X0018511Y0066807D01*
X0018552Y0066652D01*
X0018590Y0066495D01*
X0018623Y0066338D01*
X0018653Y0066180D01*
X0018679Y0066021D01*
X0018700Y0065862D01*
X0018718Y0065702D01*
X0018732Y0065542D01*
X0018742Y0065381D01*
X0018748Y0065221D01*
X0018750Y0065060D01*
X0018748Y0064899D01*
X0018742Y0064739D01*
X0018732Y0064578D01*
X0018718Y0064418D01*
X0018700Y0064258D01*
X0018679Y0064099D01*
X0018653Y0063940D01*
X0018623Y0063782D01*
X0018590Y0063625D01*
X0018552Y0063468D01*
X0018511Y0063313D01*
X0018466Y0063159D01*
X0018417Y0063006D01*
X0018364Y0062854D01*
X0018308Y0062703D01*
X0018247Y0062554D01*
X0018184Y0062406D01*
X0018116Y0062260D01*
X0018045Y0062116D01*
X0017971Y0061974D01*
X0017893Y0061833D01*
X0017811Y0061695D01*
X0017726Y0061558D01*
X0017638Y0061424D01*
X0017546Y0061292D01*
X0017451Y0061162D01*
X0017353Y0061034D01*
X0017252Y0060909D01*
X0017148Y0060787D01*
X0017041Y0060667D01*
X0016931Y0060550D01*
X0016818Y0060435D01*
X0016702Y0060324D01*
X0016583Y0060215D01*
X0016462Y0060110D01*
X0016338Y0060007D01*
X0016212Y0059907D01*
X0016084Y0059811D01*
X0015953Y0059718D01*
X0015819Y0059628D01*
X0015684Y0059541D01*
X0015546Y0059458D01*
X0015407Y0059378D01*
X0015265Y0059302D01*
X0015122Y0059229D01*
X0014977Y0059160D01*
X0014830Y0059094D01*
X0014682Y0059032D01*
X0014532Y0058974D01*
X0014381Y0058919D01*
X0014228Y0058868D01*
X0014074Y0058821D01*
X0013919Y0058778D01*
X0013763Y0058739D01*
X0013607Y0058703D01*
X0013449Y0058672D01*
X0013291Y0058644D01*
X0013132Y0058620D01*
X0012972Y0058600D01*
X0012812Y0058584D01*
X0012652Y0058572D01*
X0012491Y0058564D01*
X0012330Y0058560D01*
X0012170Y0058560D01*
X0012009Y0058564D01*
X0011848Y0058572D01*
X0011688Y0058584D01*
X0011528Y0058600D01*
X0011368Y0058620D01*
X0011209Y0058644D01*
X0011051Y0058672D01*
X0010893Y0058703D01*
X0010737Y0058739D01*
X0010581Y0058778D01*
X0010426Y0058821D01*
X0010272Y0058868D01*
X0010119Y0058919D01*
X0009968Y0058974D01*
X0009818Y0059032D01*
X0009670Y0059094D01*
X0009523Y0059160D01*
X0009378Y0059229D01*
X0009235Y0059302D01*
X0009093Y0059378D01*
X0008954Y0059458D01*
X0008816Y0059541D01*
X0008681Y0059628D01*
X0008547Y0059718D01*
X0008416Y0059811D01*
X0008288Y0059907D01*
X0008162Y0060007D01*
X0008038Y0060110D01*
X0007917Y0060215D01*
X0007798Y0060324D01*
X0007682Y0060435D01*
X0007569Y0060550D01*
X0007459Y0060667D01*
X0007352Y0060787D01*
X0007248Y0060909D01*
X0007147Y0061034D01*
X0007049Y0061162D01*
X0006954Y0061292D01*
X0006862Y0061424D01*
X0006774Y0061558D01*
X0006689Y0061695D01*
X0006607Y0061833D01*
X0006529Y0061974D01*
X0006455Y0062116D01*
X0006384Y0062260D01*
X0006316Y0062406D01*
X0006253Y0062554D01*
X0006192Y0062703D01*
X0006136Y0062854D01*
X0006083Y0063006D01*
X0006034Y0063159D01*
X0005989Y0063313D01*
X0005948Y0063468D01*
X0005910Y0063625D01*
X0005877Y0063782D01*
X0005847Y0063940D01*
X0005821Y0064099D01*
X0005800Y0064258D01*
X0005782Y0064418D01*
X0005768Y0064578D01*
X0005758Y0064739D01*
X0005752Y0064899D01*
X0005750Y0065060D01*
X0005750Y0137060D02*
X0005752Y0137221D01*
X0005758Y0137381D01*
X0005768Y0137542D01*
X0005782Y0137702D01*
X0005800Y0137862D01*
X0005821Y0138021D01*
X0005847Y0138180D01*
X0005877Y0138338D01*
X0005910Y0138495D01*
X0005948Y0138652D01*
X0005989Y0138807D01*
X0006034Y0138961D01*
X0006083Y0139114D01*
X0006136Y0139266D01*
X0006192Y0139417D01*
X0006253Y0139566D01*
X0006316Y0139714D01*
X0006384Y0139860D01*
X0006455Y0140004D01*
X0006529Y0140146D01*
X0006607Y0140287D01*
X0006689Y0140425D01*
X0006774Y0140562D01*
X0006862Y0140696D01*
X0006954Y0140828D01*
X0007049Y0140958D01*
X0007147Y0141086D01*
X0007248Y0141211D01*
X0007352Y0141333D01*
X0007459Y0141453D01*
X0007569Y0141570D01*
X0007682Y0141685D01*
X0007798Y0141796D01*
X0007917Y0141905D01*
X0008038Y0142010D01*
X0008162Y0142113D01*
X0008288Y0142213D01*
X0008416Y0142309D01*
X0008547Y0142402D01*
X0008681Y0142492D01*
X0008816Y0142579D01*
X0008954Y0142662D01*
X0009093Y0142742D01*
X0009235Y0142818D01*
X0009378Y0142891D01*
X0009523Y0142960D01*
X0009670Y0143026D01*
X0009818Y0143088D01*
X0009968Y0143146D01*
X0010119Y0143201D01*
X0010272Y0143252D01*
X0010426Y0143299D01*
X0010581Y0143342D01*
X0010737Y0143381D01*
X0010893Y0143417D01*
X0011051Y0143448D01*
X0011209Y0143476D01*
X0011368Y0143500D01*
X0011528Y0143520D01*
X0011688Y0143536D01*
X0011848Y0143548D01*
X0012009Y0143556D01*
X0012170Y0143560D01*
X0012330Y0143560D01*
X0012491Y0143556D01*
X0012652Y0143548D01*
X0012812Y0143536D01*
X0012972Y0143520D01*
X0013132Y0143500D01*
X0013291Y0143476D01*
X0013449Y0143448D01*
X0013607Y0143417D01*
X0013763Y0143381D01*
X0013919Y0143342D01*
X0014074Y0143299D01*
X0014228Y0143252D01*
X0014381Y0143201D01*
X0014532Y0143146D01*
X0014682Y0143088D01*
X0014830Y0143026D01*
X0014977Y0142960D01*
X0015122Y0142891D01*
X0015265Y0142818D01*
X0015407Y0142742D01*
X0015546Y0142662D01*
X0015684Y0142579D01*
X0015819Y0142492D01*
X0015953Y0142402D01*
X0016084Y0142309D01*
X0016212Y0142213D01*
X0016338Y0142113D01*
X0016462Y0142010D01*
X0016583Y0141905D01*
X0016702Y0141796D01*
X0016818Y0141685D01*
X0016931Y0141570D01*
X0017041Y0141453D01*
X0017148Y0141333D01*
X0017252Y0141211D01*
X0017353Y0141086D01*
X0017451Y0140958D01*
X0017546Y0140828D01*
X0017638Y0140696D01*
X0017726Y0140562D01*
X0017811Y0140425D01*
X0017893Y0140287D01*
X0017971Y0140146D01*
X0018045Y0140004D01*
X0018116Y0139860D01*
X0018184Y0139714D01*
X0018247Y0139566D01*
X0018308Y0139417D01*
X0018364Y0139266D01*
X0018417Y0139114D01*
X0018466Y0138961D01*
X0018511Y0138807D01*
X0018552Y0138652D01*
X0018590Y0138495D01*
X0018623Y0138338D01*
X0018653Y0138180D01*
X0018679Y0138021D01*
X0018700Y0137862D01*
X0018718Y0137702D01*
X0018732Y0137542D01*
X0018742Y0137381D01*
X0018748Y0137221D01*
X0018750Y0137060D01*
X0018748Y0136899D01*
X0018742Y0136739D01*
X0018732Y0136578D01*
X0018718Y0136418D01*
X0018700Y0136258D01*
X0018679Y0136099D01*
X0018653Y0135940D01*
X0018623Y0135782D01*
X0018590Y0135625D01*
X0018552Y0135468D01*
X0018511Y0135313D01*
X0018466Y0135159D01*
X0018417Y0135006D01*
X0018364Y0134854D01*
X0018308Y0134703D01*
X0018247Y0134554D01*
X0018184Y0134406D01*
X0018116Y0134260D01*
X0018045Y0134116D01*
X0017971Y0133974D01*
X0017893Y0133833D01*
X0017811Y0133695D01*
X0017726Y0133558D01*
X0017638Y0133424D01*
X0017546Y0133292D01*
X0017451Y0133162D01*
X0017353Y0133034D01*
X0017252Y0132909D01*
X0017148Y0132787D01*
X0017041Y0132667D01*
X0016931Y0132550D01*
X0016818Y0132435D01*
X0016702Y0132324D01*
X0016583Y0132215D01*
X0016462Y0132110D01*
X0016338Y0132007D01*
X0016212Y0131907D01*
X0016084Y0131811D01*
X0015953Y0131718D01*
X0015819Y0131628D01*
X0015684Y0131541D01*
X0015546Y0131458D01*
X0015407Y0131378D01*
X0015265Y0131302D01*
X0015122Y0131229D01*
X0014977Y0131160D01*
X0014830Y0131094D01*
X0014682Y0131032D01*
X0014532Y0130974D01*
X0014381Y0130919D01*
X0014228Y0130868D01*
X0014074Y0130821D01*
X0013919Y0130778D01*
X0013763Y0130739D01*
X0013607Y0130703D01*
X0013449Y0130672D01*
X0013291Y0130644D01*
X0013132Y0130620D01*
X0012972Y0130600D01*
X0012812Y0130584D01*
X0012652Y0130572D01*
X0012491Y0130564D01*
X0012330Y0130560D01*
X0012170Y0130560D01*
X0012009Y0130564D01*
X0011848Y0130572D01*
X0011688Y0130584D01*
X0011528Y0130600D01*
X0011368Y0130620D01*
X0011209Y0130644D01*
X0011051Y0130672D01*
X0010893Y0130703D01*
X0010737Y0130739D01*
X0010581Y0130778D01*
X0010426Y0130821D01*
X0010272Y0130868D01*
X0010119Y0130919D01*
X0009968Y0130974D01*
X0009818Y0131032D01*
X0009670Y0131094D01*
X0009523Y0131160D01*
X0009378Y0131229D01*
X0009235Y0131302D01*
X0009093Y0131378D01*
X0008954Y0131458D01*
X0008816Y0131541D01*
X0008681Y0131628D01*
X0008547Y0131718D01*
X0008416Y0131811D01*
X0008288Y0131907D01*
X0008162Y0132007D01*
X0008038Y0132110D01*
X0007917Y0132215D01*
X0007798Y0132324D01*
X0007682Y0132435D01*
X0007569Y0132550D01*
X0007459Y0132667D01*
X0007352Y0132787D01*
X0007248Y0132909D01*
X0007147Y0133034D01*
X0007049Y0133162D01*
X0006954Y0133292D01*
X0006862Y0133424D01*
X0006774Y0133558D01*
X0006689Y0133695D01*
X0006607Y0133833D01*
X0006529Y0133974D01*
X0006455Y0134116D01*
X0006384Y0134260D01*
X0006316Y0134406D01*
X0006253Y0134554D01*
X0006192Y0134703D01*
X0006136Y0134854D01*
X0006083Y0135006D01*
X0006034Y0135159D01*
X0005989Y0135313D01*
X0005948Y0135468D01*
X0005910Y0135625D01*
X0005877Y0135782D01*
X0005847Y0135940D01*
X0005821Y0136099D01*
X0005800Y0136258D01*
X0005782Y0136418D01*
X0005768Y0136578D01*
X0005758Y0136739D01*
X0005752Y0136899D01*
X0005750Y0137060D01*
X0005750Y0209060D02*
X0005752Y0209221D01*
X0005758Y0209381D01*
X0005768Y0209542D01*
X0005782Y0209702D01*
X0005800Y0209862D01*
X0005821Y0210021D01*
X0005847Y0210180D01*
X0005877Y0210338D01*
X0005910Y0210495D01*
X0005948Y0210652D01*
X0005989Y0210807D01*
X0006034Y0210961D01*
X0006083Y0211114D01*
X0006136Y0211266D01*
X0006192Y0211417D01*
X0006253Y0211566D01*
X0006316Y0211714D01*
X0006384Y0211860D01*
X0006455Y0212004D01*
X0006529Y0212146D01*
X0006607Y0212287D01*
X0006689Y0212425D01*
X0006774Y0212562D01*
X0006862Y0212696D01*
X0006954Y0212828D01*
X0007049Y0212958D01*
X0007147Y0213086D01*
X0007248Y0213211D01*
X0007352Y0213333D01*
X0007459Y0213453D01*
X0007569Y0213570D01*
X0007682Y0213685D01*
X0007798Y0213796D01*
X0007917Y0213905D01*
X0008038Y0214010D01*
X0008162Y0214113D01*
X0008288Y0214213D01*
X0008416Y0214309D01*
X0008547Y0214402D01*
X0008681Y0214492D01*
X0008816Y0214579D01*
X0008954Y0214662D01*
X0009093Y0214742D01*
X0009235Y0214818D01*
X0009378Y0214891D01*
X0009523Y0214960D01*
X0009670Y0215026D01*
X0009818Y0215088D01*
X0009968Y0215146D01*
X0010119Y0215201D01*
X0010272Y0215252D01*
X0010426Y0215299D01*
X0010581Y0215342D01*
X0010737Y0215381D01*
X0010893Y0215417D01*
X0011051Y0215448D01*
X0011209Y0215476D01*
X0011368Y0215500D01*
X0011528Y0215520D01*
X0011688Y0215536D01*
X0011848Y0215548D01*
X0012009Y0215556D01*
X0012170Y0215560D01*
X0012330Y0215560D01*
X0012491Y0215556D01*
X0012652Y0215548D01*
X0012812Y0215536D01*
X0012972Y0215520D01*
X0013132Y0215500D01*
X0013291Y0215476D01*
X0013449Y0215448D01*
X0013607Y0215417D01*
X0013763Y0215381D01*
X0013919Y0215342D01*
X0014074Y0215299D01*
X0014228Y0215252D01*
X0014381Y0215201D01*
X0014532Y0215146D01*
X0014682Y0215088D01*
X0014830Y0215026D01*
X0014977Y0214960D01*
X0015122Y0214891D01*
X0015265Y0214818D01*
X0015407Y0214742D01*
X0015546Y0214662D01*
X0015684Y0214579D01*
X0015819Y0214492D01*
X0015953Y0214402D01*
X0016084Y0214309D01*
X0016212Y0214213D01*
X0016338Y0214113D01*
X0016462Y0214010D01*
X0016583Y0213905D01*
X0016702Y0213796D01*
X0016818Y0213685D01*
X0016931Y0213570D01*
X0017041Y0213453D01*
X0017148Y0213333D01*
X0017252Y0213211D01*
X0017353Y0213086D01*
X0017451Y0212958D01*
X0017546Y0212828D01*
X0017638Y0212696D01*
X0017726Y0212562D01*
X0017811Y0212425D01*
X0017893Y0212287D01*
X0017971Y0212146D01*
X0018045Y0212004D01*
X0018116Y0211860D01*
X0018184Y0211714D01*
X0018247Y0211566D01*
X0018308Y0211417D01*
X0018364Y0211266D01*
X0018417Y0211114D01*
X0018466Y0210961D01*
X0018511Y0210807D01*
X0018552Y0210652D01*
X0018590Y0210495D01*
X0018623Y0210338D01*
X0018653Y0210180D01*
X0018679Y0210021D01*
X0018700Y0209862D01*
X0018718Y0209702D01*
X0018732Y0209542D01*
X0018742Y0209381D01*
X0018748Y0209221D01*
X0018750Y0209060D01*
X0018748Y0208899D01*
X0018742Y0208739D01*
X0018732Y0208578D01*
X0018718Y0208418D01*
X0018700Y0208258D01*
X0018679Y0208099D01*
X0018653Y0207940D01*
X0018623Y0207782D01*
X0018590Y0207625D01*
X0018552Y0207468D01*
X0018511Y0207313D01*
X0018466Y0207159D01*
X0018417Y0207006D01*
X0018364Y0206854D01*
X0018308Y0206703D01*
X0018247Y0206554D01*
X0018184Y0206406D01*
X0018116Y0206260D01*
X0018045Y0206116D01*
X0017971Y0205974D01*
X0017893Y0205833D01*
X0017811Y0205695D01*
X0017726Y0205558D01*
X0017638Y0205424D01*
X0017546Y0205292D01*
X0017451Y0205162D01*
X0017353Y0205034D01*
X0017252Y0204909D01*
X0017148Y0204787D01*
X0017041Y0204667D01*
X0016931Y0204550D01*
X0016818Y0204435D01*
X0016702Y0204324D01*
X0016583Y0204215D01*
X0016462Y0204110D01*
X0016338Y0204007D01*
X0016212Y0203907D01*
X0016084Y0203811D01*
X0015953Y0203718D01*
X0015819Y0203628D01*
X0015684Y0203541D01*
X0015546Y0203458D01*
X0015407Y0203378D01*
X0015265Y0203302D01*
X0015122Y0203229D01*
X0014977Y0203160D01*
X0014830Y0203094D01*
X0014682Y0203032D01*
X0014532Y0202974D01*
X0014381Y0202919D01*
X0014228Y0202868D01*
X0014074Y0202821D01*
X0013919Y0202778D01*
X0013763Y0202739D01*
X0013607Y0202703D01*
X0013449Y0202672D01*
X0013291Y0202644D01*
X0013132Y0202620D01*
X0012972Y0202600D01*
X0012812Y0202584D01*
X0012652Y0202572D01*
X0012491Y0202564D01*
X0012330Y0202560D01*
X0012170Y0202560D01*
X0012009Y0202564D01*
X0011848Y0202572D01*
X0011688Y0202584D01*
X0011528Y0202600D01*
X0011368Y0202620D01*
X0011209Y0202644D01*
X0011051Y0202672D01*
X0010893Y0202703D01*
X0010737Y0202739D01*
X0010581Y0202778D01*
X0010426Y0202821D01*
X0010272Y0202868D01*
X0010119Y0202919D01*
X0009968Y0202974D01*
X0009818Y0203032D01*
X0009670Y0203094D01*
X0009523Y0203160D01*
X0009378Y0203229D01*
X0009235Y0203302D01*
X0009093Y0203378D01*
X0008954Y0203458D01*
X0008816Y0203541D01*
X0008681Y0203628D01*
X0008547Y0203718D01*
X0008416Y0203811D01*
X0008288Y0203907D01*
X0008162Y0204007D01*
X0008038Y0204110D01*
X0007917Y0204215D01*
X0007798Y0204324D01*
X0007682Y0204435D01*
X0007569Y0204550D01*
X0007459Y0204667D01*
X0007352Y0204787D01*
X0007248Y0204909D01*
X0007147Y0205034D01*
X0007049Y0205162D01*
X0006954Y0205292D01*
X0006862Y0205424D01*
X0006774Y0205558D01*
X0006689Y0205695D01*
X0006607Y0205833D01*
X0006529Y0205974D01*
X0006455Y0206116D01*
X0006384Y0206260D01*
X0006316Y0206406D01*
X0006253Y0206554D01*
X0006192Y0206703D01*
X0006136Y0206854D01*
X0006083Y0207006D01*
X0006034Y0207159D01*
X0005989Y0207313D01*
X0005948Y0207468D01*
X0005910Y0207625D01*
X0005877Y0207782D01*
X0005847Y0207940D01*
X0005821Y0208099D01*
X0005800Y0208258D01*
X0005782Y0208418D01*
X0005768Y0208578D01*
X0005758Y0208739D01*
X0005752Y0208899D01*
X0005750Y0209060D01*
X0055750Y0209060D02*
X0055752Y0209221D01*
X0055758Y0209381D01*
X0055768Y0209542D01*
X0055782Y0209702D01*
X0055800Y0209862D01*
X0055821Y0210021D01*
X0055847Y0210180D01*
X0055877Y0210338D01*
X0055910Y0210495D01*
X0055948Y0210652D01*
X0055989Y0210807D01*
X0056034Y0210961D01*
X0056083Y0211114D01*
X0056136Y0211266D01*
X0056192Y0211417D01*
X0056253Y0211566D01*
X0056316Y0211714D01*
X0056384Y0211860D01*
X0056455Y0212004D01*
X0056529Y0212146D01*
X0056607Y0212287D01*
X0056689Y0212425D01*
X0056774Y0212562D01*
X0056862Y0212696D01*
X0056954Y0212828D01*
X0057049Y0212958D01*
X0057147Y0213086D01*
X0057248Y0213211D01*
X0057352Y0213333D01*
X0057459Y0213453D01*
X0057569Y0213570D01*
X0057682Y0213685D01*
X0057798Y0213796D01*
X0057917Y0213905D01*
X0058038Y0214010D01*
X0058162Y0214113D01*
X0058288Y0214213D01*
X0058416Y0214309D01*
X0058547Y0214402D01*
X0058681Y0214492D01*
X0058816Y0214579D01*
X0058954Y0214662D01*
X0059093Y0214742D01*
X0059235Y0214818D01*
X0059378Y0214891D01*
X0059523Y0214960D01*
X0059670Y0215026D01*
X0059818Y0215088D01*
X0059968Y0215146D01*
X0060119Y0215201D01*
X0060272Y0215252D01*
X0060426Y0215299D01*
X0060581Y0215342D01*
X0060737Y0215381D01*
X0060893Y0215417D01*
X0061051Y0215448D01*
X0061209Y0215476D01*
X0061368Y0215500D01*
X0061528Y0215520D01*
X0061688Y0215536D01*
X0061848Y0215548D01*
X0062009Y0215556D01*
X0062170Y0215560D01*
X0062330Y0215560D01*
X0062491Y0215556D01*
X0062652Y0215548D01*
X0062812Y0215536D01*
X0062972Y0215520D01*
X0063132Y0215500D01*
X0063291Y0215476D01*
X0063449Y0215448D01*
X0063607Y0215417D01*
X0063763Y0215381D01*
X0063919Y0215342D01*
X0064074Y0215299D01*
X0064228Y0215252D01*
X0064381Y0215201D01*
X0064532Y0215146D01*
X0064682Y0215088D01*
X0064830Y0215026D01*
X0064977Y0214960D01*
X0065122Y0214891D01*
X0065265Y0214818D01*
X0065407Y0214742D01*
X0065546Y0214662D01*
X0065684Y0214579D01*
X0065819Y0214492D01*
X0065953Y0214402D01*
X0066084Y0214309D01*
X0066212Y0214213D01*
X0066338Y0214113D01*
X0066462Y0214010D01*
X0066583Y0213905D01*
X0066702Y0213796D01*
X0066818Y0213685D01*
X0066931Y0213570D01*
X0067041Y0213453D01*
X0067148Y0213333D01*
X0067252Y0213211D01*
X0067353Y0213086D01*
X0067451Y0212958D01*
X0067546Y0212828D01*
X0067638Y0212696D01*
X0067726Y0212562D01*
X0067811Y0212425D01*
X0067893Y0212287D01*
X0067971Y0212146D01*
X0068045Y0212004D01*
X0068116Y0211860D01*
X0068184Y0211714D01*
X0068247Y0211566D01*
X0068308Y0211417D01*
X0068364Y0211266D01*
X0068417Y0211114D01*
X0068466Y0210961D01*
X0068511Y0210807D01*
X0068552Y0210652D01*
X0068590Y0210495D01*
X0068623Y0210338D01*
X0068653Y0210180D01*
X0068679Y0210021D01*
X0068700Y0209862D01*
X0068718Y0209702D01*
X0068732Y0209542D01*
X0068742Y0209381D01*
X0068748Y0209221D01*
X0068750Y0209060D01*
X0068748Y0208899D01*
X0068742Y0208739D01*
X0068732Y0208578D01*
X0068718Y0208418D01*
X0068700Y0208258D01*
X0068679Y0208099D01*
X0068653Y0207940D01*
X0068623Y0207782D01*
X0068590Y0207625D01*
X0068552Y0207468D01*
X0068511Y0207313D01*
X0068466Y0207159D01*
X0068417Y0207006D01*
X0068364Y0206854D01*
X0068308Y0206703D01*
X0068247Y0206554D01*
X0068184Y0206406D01*
X0068116Y0206260D01*
X0068045Y0206116D01*
X0067971Y0205974D01*
X0067893Y0205833D01*
X0067811Y0205695D01*
X0067726Y0205558D01*
X0067638Y0205424D01*
X0067546Y0205292D01*
X0067451Y0205162D01*
X0067353Y0205034D01*
X0067252Y0204909D01*
X0067148Y0204787D01*
X0067041Y0204667D01*
X0066931Y0204550D01*
X0066818Y0204435D01*
X0066702Y0204324D01*
X0066583Y0204215D01*
X0066462Y0204110D01*
X0066338Y0204007D01*
X0066212Y0203907D01*
X0066084Y0203811D01*
X0065953Y0203718D01*
X0065819Y0203628D01*
X0065684Y0203541D01*
X0065546Y0203458D01*
X0065407Y0203378D01*
X0065265Y0203302D01*
X0065122Y0203229D01*
X0064977Y0203160D01*
X0064830Y0203094D01*
X0064682Y0203032D01*
X0064532Y0202974D01*
X0064381Y0202919D01*
X0064228Y0202868D01*
X0064074Y0202821D01*
X0063919Y0202778D01*
X0063763Y0202739D01*
X0063607Y0202703D01*
X0063449Y0202672D01*
X0063291Y0202644D01*
X0063132Y0202620D01*
X0062972Y0202600D01*
X0062812Y0202584D01*
X0062652Y0202572D01*
X0062491Y0202564D01*
X0062330Y0202560D01*
X0062170Y0202560D01*
X0062009Y0202564D01*
X0061848Y0202572D01*
X0061688Y0202584D01*
X0061528Y0202600D01*
X0061368Y0202620D01*
X0061209Y0202644D01*
X0061051Y0202672D01*
X0060893Y0202703D01*
X0060737Y0202739D01*
X0060581Y0202778D01*
X0060426Y0202821D01*
X0060272Y0202868D01*
X0060119Y0202919D01*
X0059968Y0202974D01*
X0059818Y0203032D01*
X0059670Y0203094D01*
X0059523Y0203160D01*
X0059378Y0203229D01*
X0059235Y0203302D01*
X0059093Y0203378D01*
X0058954Y0203458D01*
X0058816Y0203541D01*
X0058681Y0203628D01*
X0058547Y0203718D01*
X0058416Y0203811D01*
X0058288Y0203907D01*
X0058162Y0204007D01*
X0058038Y0204110D01*
X0057917Y0204215D01*
X0057798Y0204324D01*
X0057682Y0204435D01*
X0057569Y0204550D01*
X0057459Y0204667D01*
X0057352Y0204787D01*
X0057248Y0204909D01*
X0057147Y0205034D01*
X0057049Y0205162D01*
X0056954Y0205292D01*
X0056862Y0205424D01*
X0056774Y0205558D01*
X0056689Y0205695D01*
X0056607Y0205833D01*
X0056529Y0205974D01*
X0056455Y0206116D01*
X0056384Y0206260D01*
X0056316Y0206406D01*
X0056253Y0206554D01*
X0056192Y0206703D01*
X0056136Y0206854D01*
X0056083Y0207006D01*
X0056034Y0207159D01*
X0055989Y0207313D01*
X0055948Y0207468D01*
X0055910Y0207625D01*
X0055877Y0207782D01*
X0055847Y0207940D01*
X0055821Y0208099D01*
X0055800Y0208258D01*
X0055782Y0208418D01*
X0055768Y0208578D01*
X0055758Y0208739D01*
X0055752Y0208899D01*
X0055750Y0209060D01*
X0077750Y0209060D02*
X0077752Y0209221D01*
X0077758Y0209381D01*
X0077768Y0209542D01*
X0077782Y0209702D01*
X0077800Y0209862D01*
X0077821Y0210021D01*
X0077847Y0210180D01*
X0077877Y0210338D01*
X0077910Y0210495D01*
X0077948Y0210652D01*
X0077989Y0210807D01*
X0078034Y0210961D01*
X0078083Y0211114D01*
X0078136Y0211266D01*
X0078192Y0211417D01*
X0078253Y0211566D01*
X0078316Y0211714D01*
X0078384Y0211860D01*
X0078455Y0212004D01*
X0078529Y0212146D01*
X0078607Y0212287D01*
X0078689Y0212425D01*
X0078774Y0212562D01*
X0078862Y0212696D01*
X0078954Y0212828D01*
X0079049Y0212958D01*
X0079147Y0213086D01*
X0079248Y0213211D01*
X0079352Y0213333D01*
X0079459Y0213453D01*
X0079569Y0213570D01*
X0079682Y0213685D01*
X0079798Y0213796D01*
X0079917Y0213905D01*
X0080038Y0214010D01*
X0080162Y0214113D01*
X0080288Y0214213D01*
X0080416Y0214309D01*
X0080547Y0214402D01*
X0080681Y0214492D01*
X0080816Y0214579D01*
X0080954Y0214662D01*
X0081093Y0214742D01*
X0081235Y0214818D01*
X0081378Y0214891D01*
X0081523Y0214960D01*
X0081670Y0215026D01*
X0081818Y0215088D01*
X0081968Y0215146D01*
X0082119Y0215201D01*
X0082272Y0215252D01*
X0082426Y0215299D01*
X0082581Y0215342D01*
X0082737Y0215381D01*
X0082893Y0215417D01*
X0083051Y0215448D01*
X0083209Y0215476D01*
X0083368Y0215500D01*
X0083528Y0215520D01*
X0083688Y0215536D01*
X0083848Y0215548D01*
X0084009Y0215556D01*
X0084170Y0215560D01*
X0084330Y0215560D01*
X0084491Y0215556D01*
X0084652Y0215548D01*
X0084812Y0215536D01*
X0084972Y0215520D01*
X0085132Y0215500D01*
X0085291Y0215476D01*
X0085449Y0215448D01*
X0085607Y0215417D01*
X0085763Y0215381D01*
X0085919Y0215342D01*
X0086074Y0215299D01*
X0086228Y0215252D01*
X0086381Y0215201D01*
X0086532Y0215146D01*
X0086682Y0215088D01*
X0086830Y0215026D01*
X0086977Y0214960D01*
X0087122Y0214891D01*
X0087265Y0214818D01*
X0087407Y0214742D01*
X0087546Y0214662D01*
X0087684Y0214579D01*
X0087819Y0214492D01*
X0087953Y0214402D01*
X0088084Y0214309D01*
X0088212Y0214213D01*
X0088338Y0214113D01*
X0088462Y0214010D01*
X0088583Y0213905D01*
X0088702Y0213796D01*
X0088818Y0213685D01*
X0088931Y0213570D01*
X0089041Y0213453D01*
X0089148Y0213333D01*
X0089252Y0213211D01*
X0089353Y0213086D01*
X0089451Y0212958D01*
X0089546Y0212828D01*
X0089638Y0212696D01*
X0089726Y0212562D01*
X0089811Y0212425D01*
X0089893Y0212287D01*
X0089971Y0212146D01*
X0090045Y0212004D01*
X0090116Y0211860D01*
X0090184Y0211714D01*
X0090247Y0211566D01*
X0090308Y0211417D01*
X0090364Y0211266D01*
X0090417Y0211114D01*
X0090466Y0210961D01*
X0090511Y0210807D01*
X0090552Y0210652D01*
X0090590Y0210495D01*
X0090623Y0210338D01*
X0090653Y0210180D01*
X0090679Y0210021D01*
X0090700Y0209862D01*
X0090718Y0209702D01*
X0090732Y0209542D01*
X0090742Y0209381D01*
X0090748Y0209221D01*
X0090750Y0209060D01*
X0090748Y0208899D01*
X0090742Y0208739D01*
X0090732Y0208578D01*
X0090718Y0208418D01*
X0090700Y0208258D01*
X0090679Y0208099D01*
X0090653Y0207940D01*
X0090623Y0207782D01*
X0090590Y0207625D01*
X0090552Y0207468D01*
X0090511Y0207313D01*
X0090466Y0207159D01*
X0090417Y0207006D01*
X0090364Y0206854D01*
X0090308Y0206703D01*
X0090247Y0206554D01*
X0090184Y0206406D01*
X0090116Y0206260D01*
X0090045Y0206116D01*
X0089971Y0205974D01*
X0089893Y0205833D01*
X0089811Y0205695D01*
X0089726Y0205558D01*
X0089638Y0205424D01*
X0089546Y0205292D01*
X0089451Y0205162D01*
X0089353Y0205034D01*
X0089252Y0204909D01*
X0089148Y0204787D01*
X0089041Y0204667D01*
X0088931Y0204550D01*
X0088818Y0204435D01*
X0088702Y0204324D01*
X0088583Y0204215D01*
X0088462Y0204110D01*
X0088338Y0204007D01*
X0088212Y0203907D01*
X0088084Y0203811D01*
X0087953Y0203718D01*
X0087819Y0203628D01*
X0087684Y0203541D01*
X0087546Y0203458D01*
X0087407Y0203378D01*
X0087265Y0203302D01*
X0087122Y0203229D01*
X0086977Y0203160D01*
X0086830Y0203094D01*
X0086682Y0203032D01*
X0086532Y0202974D01*
X0086381Y0202919D01*
X0086228Y0202868D01*
X0086074Y0202821D01*
X0085919Y0202778D01*
X0085763Y0202739D01*
X0085607Y0202703D01*
X0085449Y0202672D01*
X0085291Y0202644D01*
X0085132Y0202620D01*
X0084972Y0202600D01*
X0084812Y0202584D01*
X0084652Y0202572D01*
X0084491Y0202564D01*
X0084330Y0202560D01*
X0084170Y0202560D01*
X0084009Y0202564D01*
X0083848Y0202572D01*
X0083688Y0202584D01*
X0083528Y0202600D01*
X0083368Y0202620D01*
X0083209Y0202644D01*
X0083051Y0202672D01*
X0082893Y0202703D01*
X0082737Y0202739D01*
X0082581Y0202778D01*
X0082426Y0202821D01*
X0082272Y0202868D01*
X0082119Y0202919D01*
X0081968Y0202974D01*
X0081818Y0203032D01*
X0081670Y0203094D01*
X0081523Y0203160D01*
X0081378Y0203229D01*
X0081235Y0203302D01*
X0081093Y0203378D01*
X0080954Y0203458D01*
X0080816Y0203541D01*
X0080681Y0203628D01*
X0080547Y0203718D01*
X0080416Y0203811D01*
X0080288Y0203907D01*
X0080162Y0204007D01*
X0080038Y0204110D01*
X0079917Y0204215D01*
X0079798Y0204324D01*
X0079682Y0204435D01*
X0079569Y0204550D01*
X0079459Y0204667D01*
X0079352Y0204787D01*
X0079248Y0204909D01*
X0079147Y0205034D01*
X0079049Y0205162D01*
X0078954Y0205292D01*
X0078862Y0205424D01*
X0078774Y0205558D01*
X0078689Y0205695D01*
X0078607Y0205833D01*
X0078529Y0205974D01*
X0078455Y0206116D01*
X0078384Y0206260D01*
X0078316Y0206406D01*
X0078253Y0206554D01*
X0078192Y0206703D01*
X0078136Y0206854D01*
X0078083Y0207006D01*
X0078034Y0207159D01*
X0077989Y0207313D01*
X0077948Y0207468D01*
X0077910Y0207625D01*
X0077877Y0207782D01*
X0077847Y0207940D01*
X0077821Y0208099D01*
X0077800Y0208258D01*
X0077782Y0208418D01*
X0077768Y0208578D01*
X0077758Y0208739D01*
X0077752Y0208899D01*
X0077750Y0209060D01*
X0127750Y0209060D02*
X0127752Y0209221D01*
X0127758Y0209381D01*
X0127768Y0209542D01*
X0127782Y0209702D01*
X0127800Y0209862D01*
X0127821Y0210021D01*
X0127847Y0210180D01*
X0127877Y0210338D01*
X0127910Y0210495D01*
X0127948Y0210652D01*
X0127989Y0210807D01*
X0128034Y0210961D01*
X0128083Y0211114D01*
X0128136Y0211266D01*
X0128192Y0211417D01*
X0128253Y0211566D01*
X0128316Y0211714D01*
X0128384Y0211860D01*
X0128455Y0212004D01*
X0128529Y0212146D01*
X0128607Y0212287D01*
X0128689Y0212425D01*
X0128774Y0212562D01*
X0128862Y0212696D01*
X0128954Y0212828D01*
X0129049Y0212958D01*
X0129147Y0213086D01*
X0129248Y0213211D01*
X0129352Y0213333D01*
X0129459Y0213453D01*
X0129569Y0213570D01*
X0129682Y0213685D01*
X0129798Y0213796D01*
X0129917Y0213905D01*
X0130038Y0214010D01*
X0130162Y0214113D01*
X0130288Y0214213D01*
X0130416Y0214309D01*
X0130547Y0214402D01*
X0130681Y0214492D01*
X0130816Y0214579D01*
X0130954Y0214662D01*
X0131093Y0214742D01*
X0131235Y0214818D01*
X0131378Y0214891D01*
X0131523Y0214960D01*
X0131670Y0215026D01*
X0131818Y0215088D01*
X0131968Y0215146D01*
X0132119Y0215201D01*
X0132272Y0215252D01*
X0132426Y0215299D01*
X0132581Y0215342D01*
X0132737Y0215381D01*
X0132893Y0215417D01*
X0133051Y0215448D01*
X0133209Y0215476D01*
X0133368Y0215500D01*
X0133528Y0215520D01*
X0133688Y0215536D01*
X0133848Y0215548D01*
X0134009Y0215556D01*
X0134170Y0215560D01*
X0134330Y0215560D01*
X0134491Y0215556D01*
X0134652Y0215548D01*
X0134812Y0215536D01*
X0134972Y0215520D01*
X0135132Y0215500D01*
X0135291Y0215476D01*
X0135449Y0215448D01*
X0135607Y0215417D01*
X0135763Y0215381D01*
X0135919Y0215342D01*
X0136074Y0215299D01*
X0136228Y0215252D01*
X0136381Y0215201D01*
X0136532Y0215146D01*
X0136682Y0215088D01*
X0136830Y0215026D01*
X0136977Y0214960D01*
X0137122Y0214891D01*
X0137265Y0214818D01*
X0137407Y0214742D01*
X0137546Y0214662D01*
X0137684Y0214579D01*
X0137819Y0214492D01*
X0137953Y0214402D01*
X0138084Y0214309D01*
X0138212Y0214213D01*
X0138338Y0214113D01*
X0138462Y0214010D01*
X0138583Y0213905D01*
X0138702Y0213796D01*
X0138818Y0213685D01*
X0138931Y0213570D01*
X0139041Y0213453D01*
X0139148Y0213333D01*
X0139252Y0213211D01*
X0139353Y0213086D01*
X0139451Y0212958D01*
X0139546Y0212828D01*
X0139638Y0212696D01*
X0139726Y0212562D01*
X0139811Y0212425D01*
X0139893Y0212287D01*
X0139971Y0212146D01*
X0140045Y0212004D01*
X0140116Y0211860D01*
X0140184Y0211714D01*
X0140247Y0211566D01*
X0140308Y0211417D01*
X0140364Y0211266D01*
X0140417Y0211114D01*
X0140466Y0210961D01*
X0140511Y0210807D01*
X0140552Y0210652D01*
X0140590Y0210495D01*
X0140623Y0210338D01*
X0140653Y0210180D01*
X0140679Y0210021D01*
X0140700Y0209862D01*
X0140718Y0209702D01*
X0140732Y0209542D01*
X0140742Y0209381D01*
X0140748Y0209221D01*
X0140750Y0209060D01*
X0140748Y0208899D01*
X0140742Y0208739D01*
X0140732Y0208578D01*
X0140718Y0208418D01*
X0140700Y0208258D01*
X0140679Y0208099D01*
X0140653Y0207940D01*
X0140623Y0207782D01*
X0140590Y0207625D01*
X0140552Y0207468D01*
X0140511Y0207313D01*
X0140466Y0207159D01*
X0140417Y0207006D01*
X0140364Y0206854D01*
X0140308Y0206703D01*
X0140247Y0206554D01*
X0140184Y0206406D01*
X0140116Y0206260D01*
X0140045Y0206116D01*
X0139971Y0205974D01*
X0139893Y0205833D01*
X0139811Y0205695D01*
X0139726Y0205558D01*
X0139638Y0205424D01*
X0139546Y0205292D01*
X0139451Y0205162D01*
X0139353Y0205034D01*
X0139252Y0204909D01*
X0139148Y0204787D01*
X0139041Y0204667D01*
X0138931Y0204550D01*
X0138818Y0204435D01*
X0138702Y0204324D01*
X0138583Y0204215D01*
X0138462Y0204110D01*
X0138338Y0204007D01*
X0138212Y0203907D01*
X0138084Y0203811D01*
X0137953Y0203718D01*
X0137819Y0203628D01*
X0137684Y0203541D01*
X0137546Y0203458D01*
X0137407Y0203378D01*
X0137265Y0203302D01*
X0137122Y0203229D01*
X0136977Y0203160D01*
X0136830Y0203094D01*
X0136682Y0203032D01*
X0136532Y0202974D01*
X0136381Y0202919D01*
X0136228Y0202868D01*
X0136074Y0202821D01*
X0135919Y0202778D01*
X0135763Y0202739D01*
X0135607Y0202703D01*
X0135449Y0202672D01*
X0135291Y0202644D01*
X0135132Y0202620D01*
X0134972Y0202600D01*
X0134812Y0202584D01*
X0134652Y0202572D01*
X0134491Y0202564D01*
X0134330Y0202560D01*
X0134170Y0202560D01*
X0134009Y0202564D01*
X0133848Y0202572D01*
X0133688Y0202584D01*
X0133528Y0202600D01*
X0133368Y0202620D01*
X0133209Y0202644D01*
X0133051Y0202672D01*
X0132893Y0202703D01*
X0132737Y0202739D01*
X0132581Y0202778D01*
X0132426Y0202821D01*
X0132272Y0202868D01*
X0132119Y0202919D01*
X0131968Y0202974D01*
X0131818Y0203032D01*
X0131670Y0203094D01*
X0131523Y0203160D01*
X0131378Y0203229D01*
X0131235Y0203302D01*
X0131093Y0203378D01*
X0130954Y0203458D01*
X0130816Y0203541D01*
X0130681Y0203628D01*
X0130547Y0203718D01*
X0130416Y0203811D01*
X0130288Y0203907D01*
X0130162Y0204007D01*
X0130038Y0204110D01*
X0129917Y0204215D01*
X0129798Y0204324D01*
X0129682Y0204435D01*
X0129569Y0204550D01*
X0129459Y0204667D01*
X0129352Y0204787D01*
X0129248Y0204909D01*
X0129147Y0205034D01*
X0129049Y0205162D01*
X0128954Y0205292D01*
X0128862Y0205424D01*
X0128774Y0205558D01*
X0128689Y0205695D01*
X0128607Y0205833D01*
X0128529Y0205974D01*
X0128455Y0206116D01*
X0128384Y0206260D01*
X0128316Y0206406D01*
X0128253Y0206554D01*
X0128192Y0206703D01*
X0128136Y0206854D01*
X0128083Y0207006D01*
X0128034Y0207159D01*
X0127989Y0207313D01*
X0127948Y0207468D01*
X0127910Y0207625D01*
X0127877Y0207782D01*
X0127847Y0207940D01*
X0127821Y0208099D01*
X0127800Y0208258D01*
X0127782Y0208418D01*
X0127768Y0208578D01*
X0127758Y0208739D01*
X0127752Y0208899D01*
X0127750Y0209060D01*
X0149750Y0209060D02*
X0149752Y0209221D01*
X0149758Y0209381D01*
X0149768Y0209542D01*
X0149782Y0209702D01*
X0149800Y0209862D01*
X0149821Y0210021D01*
X0149847Y0210180D01*
X0149877Y0210338D01*
X0149910Y0210495D01*
X0149948Y0210652D01*
X0149989Y0210807D01*
X0150034Y0210961D01*
X0150083Y0211114D01*
X0150136Y0211266D01*
X0150192Y0211417D01*
X0150253Y0211566D01*
X0150316Y0211714D01*
X0150384Y0211860D01*
X0150455Y0212004D01*
X0150529Y0212146D01*
X0150607Y0212287D01*
X0150689Y0212425D01*
X0150774Y0212562D01*
X0150862Y0212696D01*
X0150954Y0212828D01*
X0151049Y0212958D01*
X0151147Y0213086D01*
X0151248Y0213211D01*
X0151352Y0213333D01*
X0151459Y0213453D01*
X0151569Y0213570D01*
X0151682Y0213685D01*
X0151798Y0213796D01*
X0151917Y0213905D01*
X0152038Y0214010D01*
X0152162Y0214113D01*
X0152288Y0214213D01*
X0152416Y0214309D01*
X0152547Y0214402D01*
X0152681Y0214492D01*
X0152816Y0214579D01*
X0152954Y0214662D01*
X0153093Y0214742D01*
X0153235Y0214818D01*
X0153378Y0214891D01*
X0153523Y0214960D01*
X0153670Y0215026D01*
X0153818Y0215088D01*
X0153968Y0215146D01*
X0154119Y0215201D01*
X0154272Y0215252D01*
X0154426Y0215299D01*
X0154581Y0215342D01*
X0154737Y0215381D01*
X0154893Y0215417D01*
X0155051Y0215448D01*
X0155209Y0215476D01*
X0155368Y0215500D01*
X0155528Y0215520D01*
X0155688Y0215536D01*
X0155848Y0215548D01*
X0156009Y0215556D01*
X0156170Y0215560D01*
X0156330Y0215560D01*
X0156491Y0215556D01*
X0156652Y0215548D01*
X0156812Y0215536D01*
X0156972Y0215520D01*
X0157132Y0215500D01*
X0157291Y0215476D01*
X0157449Y0215448D01*
X0157607Y0215417D01*
X0157763Y0215381D01*
X0157919Y0215342D01*
X0158074Y0215299D01*
X0158228Y0215252D01*
X0158381Y0215201D01*
X0158532Y0215146D01*
X0158682Y0215088D01*
X0158830Y0215026D01*
X0158977Y0214960D01*
X0159122Y0214891D01*
X0159265Y0214818D01*
X0159407Y0214742D01*
X0159546Y0214662D01*
X0159684Y0214579D01*
X0159819Y0214492D01*
X0159953Y0214402D01*
X0160084Y0214309D01*
X0160212Y0214213D01*
X0160338Y0214113D01*
X0160462Y0214010D01*
X0160583Y0213905D01*
X0160702Y0213796D01*
X0160818Y0213685D01*
X0160931Y0213570D01*
X0161041Y0213453D01*
X0161148Y0213333D01*
X0161252Y0213211D01*
X0161353Y0213086D01*
X0161451Y0212958D01*
X0161546Y0212828D01*
X0161638Y0212696D01*
X0161726Y0212562D01*
X0161811Y0212425D01*
X0161893Y0212287D01*
X0161971Y0212146D01*
X0162045Y0212004D01*
X0162116Y0211860D01*
X0162184Y0211714D01*
X0162247Y0211566D01*
X0162308Y0211417D01*
X0162364Y0211266D01*
X0162417Y0211114D01*
X0162466Y0210961D01*
X0162511Y0210807D01*
X0162552Y0210652D01*
X0162590Y0210495D01*
X0162623Y0210338D01*
X0162653Y0210180D01*
X0162679Y0210021D01*
X0162700Y0209862D01*
X0162718Y0209702D01*
X0162732Y0209542D01*
X0162742Y0209381D01*
X0162748Y0209221D01*
X0162750Y0209060D01*
X0162748Y0208899D01*
X0162742Y0208739D01*
X0162732Y0208578D01*
X0162718Y0208418D01*
X0162700Y0208258D01*
X0162679Y0208099D01*
X0162653Y0207940D01*
X0162623Y0207782D01*
X0162590Y0207625D01*
X0162552Y0207468D01*
X0162511Y0207313D01*
X0162466Y0207159D01*
X0162417Y0207006D01*
X0162364Y0206854D01*
X0162308Y0206703D01*
X0162247Y0206554D01*
X0162184Y0206406D01*
X0162116Y0206260D01*
X0162045Y0206116D01*
X0161971Y0205974D01*
X0161893Y0205833D01*
X0161811Y0205695D01*
X0161726Y0205558D01*
X0161638Y0205424D01*
X0161546Y0205292D01*
X0161451Y0205162D01*
X0161353Y0205034D01*
X0161252Y0204909D01*
X0161148Y0204787D01*
X0161041Y0204667D01*
X0160931Y0204550D01*
X0160818Y0204435D01*
X0160702Y0204324D01*
X0160583Y0204215D01*
X0160462Y0204110D01*
X0160338Y0204007D01*
X0160212Y0203907D01*
X0160084Y0203811D01*
X0159953Y0203718D01*
X0159819Y0203628D01*
X0159684Y0203541D01*
X0159546Y0203458D01*
X0159407Y0203378D01*
X0159265Y0203302D01*
X0159122Y0203229D01*
X0158977Y0203160D01*
X0158830Y0203094D01*
X0158682Y0203032D01*
X0158532Y0202974D01*
X0158381Y0202919D01*
X0158228Y0202868D01*
X0158074Y0202821D01*
X0157919Y0202778D01*
X0157763Y0202739D01*
X0157607Y0202703D01*
X0157449Y0202672D01*
X0157291Y0202644D01*
X0157132Y0202620D01*
X0156972Y0202600D01*
X0156812Y0202584D01*
X0156652Y0202572D01*
X0156491Y0202564D01*
X0156330Y0202560D01*
X0156170Y0202560D01*
X0156009Y0202564D01*
X0155848Y0202572D01*
X0155688Y0202584D01*
X0155528Y0202600D01*
X0155368Y0202620D01*
X0155209Y0202644D01*
X0155051Y0202672D01*
X0154893Y0202703D01*
X0154737Y0202739D01*
X0154581Y0202778D01*
X0154426Y0202821D01*
X0154272Y0202868D01*
X0154119Y0202919D01*
X0153968Y0202974D01*
X0153818Y0203032D01*
X0153670Y0203094D01*
X0153523Y0203160D01*
X0153378Y0203229D01*
X0153235Y0203302D01*
X0153093Y0203378D01*
X0152954Y0203458D01*
X0152816Y0203541D01*
X0152681Y0203628D01*
X0152547Y0203718D01*
X0152416Y0203811D01*
X0152288Y0203907D01*
X0152162Y0204007D01*
X0152038Y0204110D01*
X0151917Y0204215D01*
X0151798Y0204324D01*
X0151682Y0204435D01*
X0151569Y0204550D01*
X0151459Y0204667D01*
X0151352Y0204787D01*
X0151248Y0204909D01*
X0151147Y0205034D01*
X0151049Y0205162D01*
X0150954Y0205292D01*
X0150862Y0205424D01*
X0150774Y0205558D01*
X0150689Y0205695D01*
X0150607Y0205833D01*
X0150529Y0205974D01*
X0150455Y0206116D01*
X0150384Y0206260D01*
X0150316Y0206406D01*
X0150253Y0206554D01*
X0150192Y0206703D01*
X0150136Y0206854D01*
X0150083Y0207006D01*
X0150034Y0207159D01*
X0149989Y0207313D01*
X0149948Y0207468D01*
X0149910Y0207625D01*
X0149877Y0207782D01*
X0149847Y0207940D01*
X0149821Y0208099D01*
X0149800Y0208258D01*
X0149782Y0208418D01*
X0149768Y0208578D01*
X0149758Y0208739D01*
X0149752Y0208899D01*
X0149750Y0209060D01*
X0199750Y0209060D02*
X0199752Y0209221D01*
X0199758Y0209381D01*
X0199768Y0209542D01*
X0199782Y0209702D01*
X0199800Y0209862D01*
X0199821Y0210021D01*
X0199847Y0210180D01*
X0199877Y0210338D01*
X0199910Y0210495D01*
X0199948Y0210652D01*
X0199989Y0210807D01*
X0200034Y0210961D01*
X0200083Y0211114D01*
X0200136Y0211266D01*
X0200192Y0211417D01*
X0200253Y0211566D01*
X0200316Y0211714D01*
X0200384Y0211860D01*
X0200455Y0212004D01*
X0200529Y0212146D01*
X0200607Y0212287D01*
X0200689Y0212425D01*
X0200774Y0212562D01*
X0200862Y0212696D01*
X0200954Y0212828D01*
X0201049Y0212958D01*
X0201147Y0213086D01*
X0201248Y0213211D01*
X0201352Y0213333D01*
X0201459Y0213453D01*
X0201569Y0213570D01*
X0201682Y0213685D01*
X0201798Y0213796D01*
X0201917Y0213905D01*
X0202038Y0214010D01*
X0202162Y0214113D01*
X0202288Y0214213D01*
X0202416Y0214309D01*
X0202547Y0214402D01*
X0202681Y0214492D01*
X0202816Y0214579D01*
X0202954Y0214662D01*
X0203093Y0214742D01*
X0203235Y0214818D01*
X0203378Y0214891D01*
X0203523Y0214960D01*
X0203670Y0215026D01*
X0203818Y0215088D01*
X0203968Y0215146D01*
X0204119Y0215201D01*
X0204272Y0215252D01*
X0204426Y0215299D01*
X0204581Y0215342D01*
X0204737Y0215381D01*
X0204893Y0215417D01*
X0205051Y0215448D01*
X0205209Y0215476D01*
X0205368Y0215500D01*
X0205528Y0215520D01*
X0205688Y0215536D01*
X0205848Y0215548D01*
X0206009Y0215556D01*
X0206170Y0215560D01*
X0206330Y0215560D01*
X0206491Y0215556D01*
X0206652Y0215548D01*
X0206812Y0215536D01*
X0206972Y0215520D01*
X0207132Y0215500D01*
X0207291Y0215476D01*
X0207449Y0215448D01*
X0207607Y0215417D01*
X0207763Y0215381D01*
X0207919Y0215342D01*
X0208074Y0215299D01*
X0208228Y0215252D01*
X0208381Y0215201D01*
X0208532Y0215146D01*
X0208682Y0215088D01*
X0208830Y0215026D01*
X0208977Y0214960D01*
X0209122Y0214891D01*
X0209265Y0214818D01*
X0209407Y0214742D01*
X0209546Y0214662D01*
X0209684Y0214579D01*
X0209819Y0214492D01*
X0209953Y0214402D01*
X0210084Y0214309D01*
X0210212Y0214213D01*
X0210338Y0214113D01*
X0210462Y0214010D01*
X0210583Y0213905D01*
X0210702Y0213796D01*
X0210818Y0213685D01*
X0210931Y0213570D01*
X0211041Y0213453D01*
X0211148Y0213333D01*
X0211252Y0213211D01*
X0211353Y0213086D01*
X0211451Y0212958D01*
X0211546Y0212828D01*
X0211638Y0212696D01*
X0211726Y0212562D01*
X0211811Y0212425D01*
X0211893Y0212287D01*
X0211971Y0212146D01*
X0212045Y0212004D01*
X0212116Y0211860D01*
X0212184Y0211714D01*
X0212247Y0211566D01*
X0212308Y0211417D01*
X0212364Y0211266D01*
X0212417Y0211114D01*
X0212466Y0210961D01*
X0212511Y0210807D01*
X0212552Y0210652D01*
X0212590Y0210495D01*
X0212623Y0210338D01*
X0212653Y0210180D01*
X0212679Y0210021D01*
X0212700Y0209862D01*
X0212718Y0209702D01*
X0212732Y0209542D01*
X0212742Y0209381D01*
X0212748Y0209221D01*
X0212750Y0209060D01*
X0212748Y0208899D01*
X0212742Y0208739D01*
X0212732Y0208578D01*
X0212718Y0208418D01*
X0212700Y0208258D01*
X0212679Y0208099D01*
X0212653Y0207940D01*
X0212623Y0207782D01*
X0212590Y0207625D01*
X0212552Y0207468D01*
X0212511Y0207313D01*
X0212466Y0207159D01*
X0212417Y0207006D01*
X0212364Y0206854D01*
X0212308Y0206703D01*
X0212247Y0206554D01*
X0212184Y0206406D01*
X0212116Y0206260D01*
X0212045Y0206116D01*
X0211971Y0205974D01*
X0211893Y0205833D01*
X0211811Y0205695D01*
X0211726Y0205558D01*
X0211638Y0205424D01*
X0211546Y0205292D01*
X0211451Y0205162D01*
X0211353Y0205034D01*
X0211252Y0204909D01*
X0211148Y0204787D01*
X0211041Y0204667D01*
X0210931Y0204550D01*
X0210818Y0204435D01*
X0210702Y0204324D01*
X0210583Y0204215D01*
X0210462Y0204110D01*
X0210338Y0204007D01*
X0210212Y0203907D01*
X0210084Y0203811D01*
X0209953Y0203718D01*
X0209819Y0203628D01*
X0209684Y0203541D01*
X0209546Y0203458D01*
X0209407Y0203378D01*
X0209265Y0203302D01*
X0209122Y0203229D01*
X0208977Y0203160D01*
X0208830Y0203094D01*
X0208682Y0203032D01*
X0208532Y0202974D01*
X0208381Y0202919D01*
X0208228Y0202868D01*
X0208074Y0202821D01*
X0207919Y0202778D01*
X0207763Y0202739D01*
X0207607Y0202703D01*
X0207449Y0202672D01*
X0207291Y0202644D01*
X0207132Y0202620D01*
X0206972Y0202600D01*
X0206812Y0202584D01*
X0206652Y0202572D01*
X0206491Y0202564D01*
X0206330Y0202560D01*
X0206170Y0202560D01*
X0206009Y0202564D01*
X0205848Y0202572D01*
X0205688Y0202584D01*
X0205528Y0202600D01*
X0205368Y0202620D01*
X0205209Y0202644D01*
X0205051Y0202672D01*
X0204893Y0202703D01*
X0204737Y0202739D01*
X0204581Y0202778D01*
X0204426Y0202821D01*
X0204272Y0202868D01*
X0204119Y0202919D01*
X0203968Y0202974D01*
X0203818Y0203032D01*
X0203670Y0203094D01*
X0203523Y0203160D01*
X0203378Y0203229D01*
X0203235Y0203302D01*
X0203093Y0203378D01*
X0202954Y0203458D01*
X0202816Y0203541D01*
X0202681Y0203628D01*
X0202547Y0203718D01*
X0202416Y0203811D01*
X0202288Y0203907D01*
X0202162Y0204007D01*
X0202038Y0204110D01*
X0201917Y0204215D01*
X0201798Y0204324D01*
X0201682Y0204435D01*
X0201569Y0204550D01*
X0201459Y0204667D01*
X0201352Y0204787D01*
X0201248Y0204909D01*
X0201147Y0205034D01*
X0201049Y0205162D01*
X0200954Y0205292D01*
X0200862Y0205424D01*
X0200774Y0205558D01*
X0200689Y0205695D01*
X0200607Y0205833D01*
X0200529Y0205974D01*
X0200455Y0206116D01*
X0200384Y0206260D01*
X0200316Y0206406D01*
X0200253Y0206554D01*
X0200192Y0206703D01*
X0200136Y0206854D01*
X0200083Y0207006D01*
X0200034Y0207159D01*
X0199989Y0207313D01*
X0199948Y0207468D01*
X0199910Y0207625D01*
X0199877Y0207782D01*
X0199847Y0207940D01*
X0199821Y0208099D01*
X0199800Y0208258D01*
X0199782Y0208418D01*
X0199768Y0208578D01*
X0199758Y0208739D01*
X0199752Y0208899D01*
X0199750Y0209060D01*
M02*
